%
M48
M72
T01C0.0160
T02C0.0160
T03C0.0160
%
T01
X14333Y4800
X14833Y6300
X14833Y7300
X14833Y8800
X14833Y9800
X14833Y10800
X14833Y11800
X14833Y12800
X14833Y13800
X14833Y14800
X14833Y15800
X14833Y16800
X14833Y17800
X15333Y19300
X15333Y20300
X12833Y20300
X12833Y19300
X12833Y17300
X11833Y17300
X11833Y14800
X12833Y14800
X12833Y12800
X11833Y12800
X11833Y10800
X12833Y10800
X18833Y10800
X18833Y11800
X18833Y12800
X18833Y13800
X18833Y14800
X18833Y15800
X18833Y16800
X18833Y17800
X18333Y19300
X18333Y20300
X20833Y20300
X20833Y19300
X20833Y16800
X21833Y16800
X21833Y14800
X20833Y14800
X20833Y12800
X21833Y12800
X21833Y10800
X20833Y10800
X18833Y9800
X18833Y8800
X18833Y7300
X18833Y6300
X16833Y4800
T02
X16833Y3300
X17833Y3300
X15833Y3300
X12833Y3300
X11833Y3300
X20333Y3300
X21333Y3300
X22333Y3300
X20833Y22300
X19833Y22300
X18833Y22300
X15333Y22300
X14333Y22300
X13333Y22300
T03
X9833Y1800
X24333Y1800
X24333Y24300
X9833Y24300
M30
