G75*
G70*
%OFA0B0*%
%FSLAX24Y24*%
%IPPOS*%
%LPD*%
%AMOC8*
5,1,8,0,0,1.08239X$1,22.5*
%
%ADD10C,0.0520*%
%ADD11C,0.0600*%
%ADD12OC8,0.0630*%
%ADD13C,0.0630*%
%ADD14C,0.2100*%
%ADD15C,0.0400*%
%ADD16R,0.0660X0.0660*%
D10*
X014573Y008800D02*
X015093Y008800D01*
X015093Y009800D02*
X014573Y009800D01*
X014573Y010800D02*
X015093Y010800D01*
X015093Y011800D02*
X014573Y011800D01*
X014573Y012800D02*
X015093Y012800D01*
X015093Y013800D02*
X014573Y013800D01*
X014573Y014800D02*
X015093Y014800D01*
X015093Y015800D02*
X014573Y015800D01*
X014573Y016800D02*
X015093Y016800D01*
X015093Y017800D02*
X014573Y017800D01*
X012833Y015060D02*
X012833Y014540D01*
X011833Y014540D02*
X011833Y015060D01*
X011833Y013060D02*
X011833Y012540D01*
X012833Y012540D02*
X012833Y013060D01*
X012833Y011060D02*
X012833Y010540D01*
X011833Y010540D02*
X011833Y011060D01*
X018573Y010800D02*
X019093Y010800D01*
X019093Y011800D02*
X018573Y011800D01*
X018573Y012800D02*
X019093Y012800D01*
X019093Y013800D02*
X018573Y013800D01*
X018573Y014800D02*
X019093Y014800D01*
X019093Y015800D02*
X018573Y015800D01*
X018573Y016800D02*
X019093Y016800D01*
X019093Y017800D02*
X018573Y017800D01*
X020833Y017060D02*
X020833Y016540D01*
X021833Y016540D02*
X021833Y017060D01*
X021833Y015060D02*
X021833Y014540D01*
X020833Y014540D02*
X020833Y015060D01*
X020833Y013060D02*
X020833Y012540D01*
X021833Y012540D02*
X021833Y013060D01*
X021833Y011060D02*
X021833Y010540D01*
X020833Y010540D02*
X020833Y011060D01*
X019093Y009800D02*
X018573Y009800D01*
X018573Y008800D02*
X019093Y008800D01*
D11*
X020333Y003600D02*
X020333Y003000D01*
X021333Y003000D02*
X021333Y003600D01*
X022333Y003600D02*
X022333Y003000D01*
X017833Y003000D02*
X017833Y003600D01*
X016833Y003600D02*
X016833Y003000D01*
X015833Y003000D02*
X015833Y003600D01*
X012833Y003600D02*
X012833Y003000D01*
X011833Y003000D02*
X011833Y003600D01*
X013333Y022000D02*
X013333Y022600D01*
X014333Y022600D02*
X014333Y022000D01*
X015333Y022000D02*
X015333Y022600D01*
X018833Y022600D02*
X018833Y022000D01*
X019833Y022000D02*
X019833Y022600D01*
X020833Y022600D02*
X020833Y022000D01*
D12*
X020833Y020300D03*
X018333Y020300D03*
X015333Y020300D03*
X012833Y020300D03*
X011833Y017300D03*
X014833Y006300D03*
X018833Y006300D03*
D13*
X018833Y007300D03*
X014833Y007300D03*
X012833Y017300D03*
X012833Y019300D03*
X015333Y019300D03*
X018333Y019300D03*
X020833Y019300D03*
D14*
X024333Y024300D03*
X009833Y024300D03*
X009833Y001800D03*
X024333Y001800D03*
D15*
X008983Y003215D02*
X008983Y022885D01*
X009196Y022762D01*
X009616Y022650D01*
X010051Y022650D01*
X010470Y022762D01*
X010846Y022980D01*
X011154Y023287D01*
X011371Y023663D01*
X011483Y024083D01*
X011483Y024517D01*
X011371Y024937D01*
X011250Y025146D01*
X022917Y025146D01*
X022796Y024937D01*
X022683Y024517D01*
X022683Y024083D01*
X022796Y023663D01*
X023013Y023287D01*
X023320Y022980D01*
X023696Y022762D01*
X024116Y022650D01*
X024551Y022650D01*
X024970Y022762D01*
X025053Y022810D01*
X025053Y003290D01*
X024970Y003338D01*
X024551Y003450D01*
X024116Y003450D01*
X023696Y003338D01*
X023320Y003120D01*
X023013Y002813D01*
X022796Y002437D01*
X022683Y002017D01*
X022683Y001583D01*
X022796Y001163D01*
X022919Y000950D01*
X011248Y000950D01*
X011371Y001163D01*
X011483Y001583D01*
X011483Y002017D01*
X011371Y002437D01*
X011154Y002813D01*
X010846Y003120D01*
X010470Y003338D01*
X010051Y003450D01*
X009616Y003450D01*
X009196Y003338D01*
X008983Y003215D01*
X008983Y003488D02*
X011233Y003488D01*
X011233Y003647D02*
X011233Y003300D01*
X011233Y002953D01*
X011248Y002859D01*
X011277Y002770D01*
X011320Y002686D01*
X011376Y002609D01*
X011442Y002542D01*
X011519Y002487D01*
X011603Y002444D01*
X011693Y002415D01*
X011786Y002400D01*
X011833Y002400D01*
X011833Y003300D01*
X011233Y003300D01*
X011833Y003300D01*
X011833Y003300D01*
X011833Y003300D01*
X011833Y004200D01*
X011786Y004200D01*
X011693Y004185D01*
X011603Y004156D01*
X011519Y004113D01*
X011442Y004058D01*
X011376Y003991D01*
X011320Y003914D01*
X011277Y003830D01*
X011248Y003740D01*
X011233Y003647D01*
X011306Y003887D02*
X008983Y003887D01*
X008983Y004285D02*
X012246Y004285D01*
X012324Y004363D02*
X012099Y004138D01*
X012064Y004156D01*
X011974Y004185D01*
X011881Y004200D01*
X011833Y004200D01*
X011833Y003300D01*
X011833Y003300D01*
X011833Y001800D01*
X016833Y001800D01*
X021833Y001800D01*
X022333Y002300D01*
X022333Y003300D01*
X022333Y003300D01*
X022333Y002400D01*
X022286Y002400D01*
X022193Y002415D01*
X022103Y002444D01*
X022068Y002462D01*
X021843Y002237D01*
X021512Y002100D01*
X021154Y002100D01*
X020833Y002233D01*
X020512Y002100D01*
X020154Y002100D01*
X019824Y002237D01*
X019570Y002490D01*
X019433Y002821D01*
X019433Y003779D01*
X019533Y004020D01*
X019533Y005706D01*
X019212Y005385D01*
X019185Y005385D01*
X018633Y004558D01*
X018633Y004020D01*
X018733Y003779D01*
X018733Y002821D01*
X018596Y002490D01*
X018343Y002237D01*
X018012Y002100D01*
X017654Y002100D01*
X017324Y002237D01*
X017099Y002462D01*
X017064Y002444D01*
X016974Y002415D01*
X016881Y002400D01*
X016833Y002400D01*
X016833Y003300D01*
X016833Y003300D01*
X016833Y001800D01*
X016833Y002400D02*
X016833Y003300D01*
X016833Y003090D02*
X016833Y003090D01*
X016833Y002691D02*
X016833Y002691D01*
X016833Y002400D02*
X016786Y002400D01*
X016693Y002415D01*
X016603Y002444D01*
X016568Y002462D01*
X016343Y002237D01*
X016012Y002100D01*
X015654Y002100D01*
X015324Y002237D01*
X015070Y002490D01*
X014949Y002784D01*
X014786Y002622D01*
X014492Y002500D01*
X013600Y002500D01*
X013596Y002490D01*
X013343Y002237D01*
X013012Y002100D01*
X012654Y002100D01*
X012324Y002237D01*
X012099Y002462D01*
X012064Y002444D01*
X011974Y002415D01*
X011881Y002400D01*
X011833Y002400D01*
X011833Y003300D01*
X010833Y003800D01*
X010833Y008800D01*
X010833Y010800D01*
X011833Y010800D01*
X011273Y010800D01*
X011273Y010496D01*
X011287Y010409D01*
X011314Y010325D01*
X011354Y010246D01*
X011406Y010175D01*
X011469Y010113D01*
X011540Y010061D01*
X011618Y010021D01*
X011702Y009994D01*
X011789Y009980D01*
X011833Y009980D01*
X011833Y010800D01*
X011833Y010800D01*
X011273Y010800D01*
X011273Y011104D01*
X011287Y011191D01*
X011314Y011275D01*
X011354Y011354D01*
X011406Y011425D01*
X011469Y011487D01*
X011495Y011507D01*
X011155Y011847D01*
X011033Y012141D01*
X011033Y012224D01*
X010973Y012369D01*
X010973Y013231D01*
X011104Y013547D01*
X011346Y013789D01*
X011662Y013920D01*
X012004Y013920D01*
X012320Y013789D01*
X012333Y013776D01*
X012346Y013789D01*
X012373Y013800D01*
X012346Y013811D01*
X012106Y014051D01*
X012048Y014021D01*
X011964Y013994D01*
X011877Y013980D01*
X011833Y013980D01*
X011833Y014800D01*
X011273Y014800D01*
X011273Y014496D01*
X011287Y014409D01*
X011314Y014325D01*
X011354Y014246D01*
X011406Y014175D01*
X011469Y014113D01*
X011540Y014061D01*
X011618Y014021D01*
X011702Y013994D01*
X011789Y013980D01*
X011833Y013980D01*
X011833Y014800D01*
X011833Y014800D01*
X011273Y014800D01*
X011273Y015104D01*
X011287Y015191D01*
X011314Y015275D01*
X011354Y015354D01*
X011406Y015425D01*
X011469Y015487D01*
X011540Y015539D01*
X011618Y015579D01*
X011702Y015606D01*
X011789Y015620D01*
X011833Y015620D01*
X011833Y014800D01*
X011833Y014800D01*
X011833Y014800D01*
X010833Y014800D01*
X010833Y013800D01*
X010833Y010800D01*
X011273Y010661D02*
X008983Y010661D01*
X008983Y010263D02*
X011346Y010263D01*
X011833Y010263D02*
X011833Y010263D01*
X011833Y009980D02*
X011877Y009980D01*
X011964Y009994D01*
X012048Y010021D01*
X012106Y010051D01*
X012346Y009811D01*
X012662Y009680D01*
X013004Y009680D01*
X013320Y009811D01*
X013510Y010000D01*
X013725Y010000D01*
X013713Y009971D01*
X013713Y009629D01*
X013844Y009313D01*
X014084Y009073D01*
X014054Y009015D01*
X014027Y008931D01*
X014013Y008844D01*
X014013Y008800D01*
X014833Y008800D01*
X014013Y008800D01*
X014013Y008756D01*
X014027Y008669D01*
X014054Y008585D01*
X014094Y008506D01*
X014146Y008435D01*
X014209Y008373D01*
X014280Y008321D01*
X014358Y008281D01*
X014442Y008254D01*
X014529Y008240D01*
X014833Y008240D01*
X014833Y008800D01*
X014833Y008800D01*
X014833Y008800D01*
X010833Y008800D01*
X012293Y009864D02*
X008983Y009864D01*
X008983Y009466D02*
X013781Y009466D01*
X013713Y009864D02*
X013374Y009864D01*
X014081Y009067D02*
X008983Y009067D01*
X008983Y008669D02*
X014027Y008669D01*
X014392Y008270D02*
X008983Y008270D01*
X008983Y007872D02*
X014111Y007872D01*
X014058Y007818D02*
X013918Y007482D01*
X013918Y007118D01*
X014047Y006808D01*
X013918Y006679D01*
X013918Y005921D01*
X014109Y005730D01*
X013884Y005730D01*
X013663Y005639D01*
X013495Y005470D01*
X013403Y005249D01*
X013403Y004351D01*
X013437Y004269D01*
X013343Y004363D01*
X013012Y004500D01*
X012654Y004500D01*
X012324Y004363D01*
X011833Y003887D02*
X011833Y003887D01*
X011833Y003488D02*
X011833Y003488D01*
X011833Y003090D02*
X011833Y003090D01*
X011233Y003090D02*
X010877Y003090D01*
X011224Y002691D02*
X011317Y002691D01*
X011410Y002293D02*
X012268Y002293D01*
X011833Y002691D02*
X011833Y002691D01*
X011483Y001894D02*
X022683Y001894D01*
X022757Y002293D02*
X021899Y002293D01*
X022333Y002400D02*
X022381Y002400D01*
X022474Y002415D01*
X022564Y002444D01*
X022648Y002487D01*
X022724Y002542D01*
X022791Y002609D01*
X022846Y002686D01*
X022889Y002770D01*
X022919Y002859D01*
X022933Y002953D01*
X022933Y003300D01*
X022933Y003647D01*
X022919Y003740D01*
X022889Y003830D01*
X022846Y003914D01*
X022791Y003991D01*
X022724Y004058D01*
X022648Y004113D01*
X022564Y004156D01*
X022474Y004185D01*
X022381Y004200D01*
X022333Y004200D01*
X022286Y004200D01*
X022193Y004185D01*
X022133Y004166D01*
X022133Y007959D01*
X022012Y008253D01*
X021786Y008478D01*
X020530Y009735D01*
X020662Y009680D01*
X021004Y009680D01*
X021320Y009811D01*
X021560Y010051D01*
X021618Y010021D01*
X021702Y009994D01*
X021789Y009980D01*
X021833Y009980D01*
X021833Y010800D01*
X021833Y011620D01*
X021789Y011620D01*
X021702Y011606D01*
X021618Y011579D01*
X021590Y011564D01*
X021517Y011740D01*
X021662Y011680D01*
X022004Y011680D01*
X022320Y011811D01*
X022562Y012053D01*
X022693Y012369D01*
X022693Y013231D01*
X022633Y013376D01*
X022633Y013459D01*
X022512Y013753D01*
X022286Y013978D01*
X022171Y014093D01*
X022198Y014113D01*
X022260Y014175D01*
X022312Y014246D01*
X022352Y014325D01*
X022380Y014409D01*
X022393Y014496D01*
X022393Y014800D01*
X021833Y014800D01*
X021833Y015620D01*
X021789Y015620D01*
X021702Y015606D01*
X021618Y015579D01*
X021560Y015549D01*
X021320Y015789D01*
X021294Y015800D01*
X021320Y015811D01*
X021560Y016051D01*
X021618Y016021D01*
X021702Y015994D01*
X021789Y015980D01*
X021833Y015980D01*
X021833Y016800D01*
X021833Y017620D01*
X021789Y017620D01*
X021702Y017606D01*
X021618Y017579D01*
X021560Y017549D01*
X021387Y017722D01*
X021512Y017847D01*
X021633Y018141D01*
X021633Y018840D01*
X021748Y019118D01*
X021748Y019482D01*
X021620Y019792D01*
X021748Y019921D01*
X021748Y020679D01*
X021633Y020794D01*
X021633Y021580D01*
X021733Y021821D01*
X021733Y022779D01*
X021596Y023110D01*
X021343Y023363D01*
X021012Y023500D01*
X020654Y023500D01*
X020324Y023363D01*
X020099Y023138D01*
X020064Y023156D01*
X019974Y023185D01*
X019881Y023200D01*
X019833Y023200D01*
X019786Y023200D01*
X019693Y023185D01*
X019603Y023156D01*
X019568Y023138D01*
X019343Y023363D01*
X019012Y023500D01*
X018654Y023500D01*
X018324Y023363D01*
X018070Y023110D01*
X017933Y022779D01*
X017933Y022531D01*
X017880Y022478D01*
X017655Y022253D01*
X017533Y021959D01*
X017533Y020794D01*
X017418Y020679D01*
X017418Y019921D01*
X017547Y019792D01*
X017443Y019541D01*
X017380Y019478D01*
X017155Y019253D01*
X017033Y018959D01*
X017033Y015641D01*
X017155Y015347D01*
X017380Y015122D01*
X017674Y015000D01*
X017725Y015000D01*
X017713Y014971D01*
X017713Y014629D01*
X017844Y014313D01*
X017857Y014300D01*
X017844Y014287D01*
X017713Y013971D01*
X017713Y013629D01*
X017844Y013313D01*
X017857Y013300D01*
X017844Y013287D01*
X017713Y012971D01*
X017713Y012629D01*
X017844Y012313D01*
X017857Y012300D01*
X017844Y012287D01*
X017713Y011971D01*
X017713Y011629D01*
X017806Y011404D01*
X017633Y011231D01*
X017633Y014459D01*
X017512Y014753D01*
X017286Y014978D01*
X016786Y015478D01*
X016598Y015556D01*
X016633Y015641D01*
X016633Y018959D01*
X016512Y019253D01*
X016286Y019478D01*
X016224Y019541D01*
X016120Y019792D01*
X016248Y019921D01*
X016248Y020679D01*
X016133Y020794D01*
X016133Y021580D01*
X016233Y021821D01*
X016233Y022779D01*
X016096Y023110D01*
X015843Y023363D01*
X015512Y023500D01*
X015154Y023500D01*
X014824Y023363D01*
X014599Y023138D01*
X014564Y023156D01*
X014474Y023185D01*
X014381Y023200D01*
X014333Y023200D01*
X014286Y023200D01*
X014193Y023185D01*
X014103Y023156D01*
X014068Y023138D01*
X013843Y023363D01*
X013512Y023500D01*
X013154Y023500D01*
X012824Y023363D01*
X012570Y023110D01*
X012433Y022779D01*
X012433Y022531D01*
X012155Y022253D01*
X012033Y021959D01*
X012033Y020794D01*
X011918Y020679D01*
X011918Y019921D01*
X012047Y019792D01*
X011918Y019482D01*
X011918Y019118D01*
X012058Y018782D01*
X012315Y018524D01*
X012593Y018409D01*
X012787Y018215D01*
X012651Y018215D01*
X012315Y018076D01*
X012121Y017882D01*
X012088Y017915D01*
X011833Y017915D01*
X011579Y017915D01*
X011218Y017555D01*
X011218Y017300D01*
X011833Y017300D01*
X011218Y017300D01*
X011218Y017045D01*
X011579Y016685D01*
X011833Y016685D01*
X011833Y017300D01*
X011833Y017300D01*
X011833Y017300D01*
X011833Y017915D01*
X011833Y017300D01*
X011833Y017300D01*
X010833Y017300D01*
X010833Y014800D01*
X011273Y014646D02*
X008983Y014646D01*
X008983Y014248D02*
X011354Y014248D01*
X011833Y014248D02*
X011833Y014248D01*
X011833Y014646D02*
X011833Y014646D01*
X011833Y014800D02*
X011833Y015620D01*
X011877Y015620D01*
X011964Y015606D01*
X012048Y015579D01*
X012106Y015549D01*
X012346Y015789D01*
X012662Y015920D01*
X013004Y015920D01*
X013320Y015789D01*
X013510Y015600D01*
X013725Y015600D01*
X013713Y015629D01*
X013713Y015971D01*
X013725Y016000D01*
X013174Y016000D01*
X012880Y016122D01*
X012655Y016347D01*
X012593Y016409D01*
X012315Y016524D01*
X012121Y016718D01*
X012088Y016685D01*
X011833Y016685D01*
X011833Y017300D01*
X011833Y017436D02*
X011833Y017436D01*
X011833Y017834D02*
X011833Y017834D01*
X011498Y017834D02*
X008983Y017834D01*
X008983Y017436D02*
X011218Y017436D01*
X011227Y017037D02*
X008983Y017037D01*
X008983Y016639D02*
X012201Y016639D01*
X012762Y016240D02*
X008983Y016240D01*
X008983Y015842D02*
X012473Y015842D01*
X013194Y015842D02*
X013713Y015842D01*
X013333Y016800D02*
X014833Y016800D01*
X014833Y017800D02*
X014333Y017800D01*
X012833Y019300D01*
X012208Y018631D02*
X008983Y018631D01*
X008983Y018233D02*
X012769Y018233D01*
X011955Y019030D02*
X008983Y019030D01*
X008983Y019428D02*
X011918Y019428D01*
X012013Y019827D02*
X008983Y019827D01*
X008983Y020225D02*
X011918Y020225D01*
X011918Y020624D02*
X008983Y020624D01*
X008983Y021022D02*
X012033Y021022D01*
X012033Y021421D02*
X008983Y021421D01*
X008983Y021819D02*
X012033Y021819D01*
X012140Y022218D02*
X008983Y022218D01*
X008983Y022616D02*
X012433Y022616D01*
X012531Y023015D02*
X010881Y023015D01*
X010833Y022800D02*
X010833Y017300D01*
X011833Y017037D02*
X011833Y017037D01*
X012833Y017300D02*
X013333Y016800D01*
X014833Y015800D02*
X015833Y015800D01*
X015833Y018800D01*
X015333Y019300D01*
X014679Y018660D02*
X014605Y018660D01*
X013724Y019541D01*
X013620Y019792D01*
X013748Y019921D01*
X013748Y020679D01*
X013633Y020794D01*
X013633Y021150D01*
X013843Y021237D01*
X014068Y021462D01*
X014103Y021444D01*
X014193Y021415D01*
X014286Y021400D01*
X014333Y021400D01*
X014333Y022300D01*
X014333Y023200D01*
X014333Y022300D01*
X014333Y022300D01*
X014333Y022300D01*
X014333Y023300D01*
X011333Y023300D01*
X010833Y022800D01*
X011226Y023413D02*
X012944Y023413D01*
X013722Y023413D02*
X014944Y023413D01*
X014333Y023300D02*
X019833Y023300D01*
X019833Y022300D01*
X019833Y023200D01*
X019833Y022300D01*
X019833Y022300D01*
X019833Y022300D01*
X019833Y021400D01*
X019786Y021400D01*
X019693Y021415D01*
X019603Y021444D01*
X019568Y021462D01*
X019343Y021237D01*
X019133Y021150D01*
X019133Y020794D01*
X019248Y020679D01*
X019248Y019921D01*
X019120Y019792D01*
X019248Y019482D01*
X019248Y019118D01*
X019109Y018782D01*
X018987Y018660D01*
X019264Y018660D01*
X019409Y018600D01*
X020002Y018600D01*
X020033Y018631D01*
X019334Y018631D01*
X019212Y019030D02*
X019955Y019030D01*
X019918Y019118D02*
X020033Y018840D01*
X020033Y018631D01*
X019918Y019118D02*
X019918Y019482D01*
X020047Y019792D01*
X019918Y019921D01*
X019918Y020679D01*
X020033Y020794D01*
X020033Y021434D01*
X019974Y021415D01*
X019881Y021400D01*
X019833Y021400D01*
X019833Y022300D01*
X019833Y022218D02*
X019833Y022218D01*
X019833Y022616D02*
X019833Y022616D01*
X019833Y023015D02*
X019833Y023015D01*
X019833Y023300D02*
X022333Y023300D01*
X022833Y022800D01*
X022833Y016800D01*
X022833Y014800D01*
X022833Y010800D01*
X022833Y004300D01*
X022333Y003800D01*
X022333Y003300D01*
X022333Y004200D01*
X022333Y003300D01*
X022333Y003300D01*
X022333Y002400D01*
X022333Y002691D02*
X022333Y002691D01*
X022333Y003090D02*
X022333Y003090D01*
X022333Y003300D02*
X022333Y003300D01*
X022933Y003300D01*
X022333Y003300D01*
X022333Y003488D02*
X022333Y003488D01*
X022333Y003887D02*
X022333Y003887D01*
X022133Y004285D02*
X025053Y004285D01*
X025053Y003887D02*
X022861Y003887D01*
X022933Y003488D02*
X025053Y003488D01*
X025053Y004684D02*
X022133Y004684D01*
X022133Y005082D02*
X025053Y005082D01*
X025053Y005481D02*
X022133Y005481D01*
X022133Y005879D02*
X025053Y005879D01*
X025053Y006278D02*
X022133Y006278D01*
X022133Y006676D02*
X025053Y006676D01*
X025053Y007075D02*
X022133Y007075D01*
X022133Y007473D02*
X025053Y007473D01*
X025053Y007872D02*
X022133Y007872D01*
X021995Y008270D02*
X025053Y008270D01*
X025053Y008669D02*
X021596Y008669D01*
X021198Y009067D02*
X025053Y009067D01*
X025053Y009466D02*
X020799Y009466D01*
X021374Y009864D02*
X025053Y009864D01*
X025053Y010263D02*
X022320Y010263D01*
X022312Y010246D02*
X022352Y010325D01*
X022380Y010409D01*
X022393Y010496D01*
X022393Y010800D01*
X021833Y010800D01*
X021833Y010800D01*
X021833Y010800D01*
X022833Y010800D01*
X022393Y010800D02*
X022393Y011104D01*
X022380Y011191D01*
X022352Y011275D01*
X022312Y011354D01*
X022260Y011425D01*
X022198Y011487D01*
X022127Y011539D01*
X022048Y011579D01*
X021964Y011606D01*
X021877Y011620D01*
X021833Y011620D01*
X021833Y010800D01*
X021833Y009980D01*
X021877Y009980D01*
X021964Y009994D01*
X022048Y010021D01*
X022127Y010061D01*
X022198Y010113D01*
X022260Y010175D01*
X022312Y010246D01*
X022393Y010661D02*
X025053Y010661D01*
X025053Y011060D02*
X022393Y011060D01*
X022393Y010800D02*
X021833Y010800D01*
X021833Y010800D01*
X021833Y010661D02*
X021833Y010661D01*
X021833Y010263D02*
X021833Y010263D01*
X021833Y011060D02*
X021833Y011060D01*
X021833Y011458D02*
X021833Y011458D01*
X022227Y011458D02*
X025053Y011458D01*
X025053Y011857D02*
X022366Y011857D01*
X022646Y012255D02*
X025053Y012255D01*
X025053Y012654D02*
X022693Y012654D01*
X022693Y013052D02*
X025053Y013052D01*
X025053Y013451D02*
X022633Y013451D01*
X022416Y013849D02*
X025053Y013849D01*
X025053Y014248D02*
X022313Y014248D01*
X022393Y014646D02*
X025053Y014646D01*
X025053Y015045D02*
X022393Y015045D01*
X022393Y015104D02*
X022380Y015191D01*
X022352Y015275D01*
X022312Y015354D01*
X022260Y015425D01*
X022198Y015487D01*
X022127Y015539D01*
X022048Y015579D01*
X021964Y015606D01*
X021877Y015620D01*
X021833Y015620D01*
X021833Y014800D01*
X021833Y014800D01*
X022833Y014800D01*
X022393Y014800D02*
X022393Y015104D01*
X022393Y014800D02*
X021833Y014800D01*
X021833Y014800D01*
X021833Y015045D02*
X021833Y015045D01*
X021833Y015443D02*
X021833Y015443D01*
X022242Y015443D02*
X025053Y015443D01*
X025053Y015842D02*
X021351Y015842D01*
X021833Y015980D02*
X021877Y015980D01*
X021964Y015994D01*
X022048Y016021D01*
X022127Y016061D01*
X022198Y016113D01*
X022260Y016175D01*
X022312Y016246D01*
X022352Y016325D01*
X022380Y016409D01*
X022393Y016496D01*
X022393Y016800D01*
X021833Y016800D01*
X021833Y016800D01*
X021833Y016800D01*
X022833Y016800D01*
X022393Y016800D02*
X022393Y017104D01*
X022380Y017191D01*
X022352Y017275D01*
X022312Y017354D01*
X022260Y017425D01*
X022198Y017487D01*
X022127Y017539D01*
X022048Y017579D01*
X021964Y017606D01*
X021877Y017620D01*
X021833Y017620D01*
X021833Y016800D01*
X021833Y015980D01*
X021833Y016240D02*
X021833Y016240D01*
X021833Y016639D02*
X021833Y016639D01*
X021833Y016800D02*
X021833Y016800D01*
X022393Y016800D01*
X022393Y016639D02*
X025053Y016639D01*
X025053Y016240D02*
X022308Y016240D01*
X022393Y017037D02*
X025053Y017037D01*
X025053Y017436D02*
X022250Y017436D01*
X021833Y017436D02*
X021833Y017436D01*
X021833Y017037D02*
X021833Y017037D01*
X021499Y017834D02*
X025053Y017834D01*
X025053Y018233D02*
X021633Y018233D01*
X021633Y018631D02*
X025053Y018631D01*
X025053Y019030D02*
X021712Y019030D01*
X021748Y019428D02*
X025053Y019428D01*
X025053Y019827D02*
X021654Y019827D01*
X021748Y020225D02*
X025053Y020225D01*
X025053Y020624D02*
X021748Y020624D01*
X021633Y021022D02*
X025053Y021022D01*
X025053Y021421D02*
X021633Y021421D01*
X021733Y021819D02*
X025053Y021819D01*
X025053Y022218D02*
X021733Y022218D01*
X021733Y022616D02*
X025053Y022616D01*
X023285Y023015D02*
X021636Y023015D01*
X021222Y023413D02*
X022940Y023413D01*
X022756Y023812D02*
X011411Y023812D01*
X011483Y024210D02*
X022683Y024210D01*
X022708Y024609D02*
X011459Y024609D01*
X011330Y025007D02*
X022836Y025007D01*
X020444Y023413D02*
X019222Y023413D01*
X018444Y023413D02*
X015722Y023413D01*
X016136Y023015D02*
X018031Y023015D01*
X017933Y022616D02*
X016233Y022616D01*
X016233Y022218D02*
X017640Y022218D01*
X017533Y021819D02*
X016233Y021819D01*
X016133Y021421D02*
X017533Y021421D01*
X017533Y021022D02*
X016133Y021022D01*
X016248Y020624D02*
X017418Y020624D01*
X017418Y020225D02*
X016248Y020225D01*
X016154Y019827D02*
X017513Y019827D01*
X017330Y019428D02*
X016337Y019428D01*
X016604Y019030D02*
X017062Y019030D01*
X017033Y018631D02*
X016633Y018631D01*
X016633Y018233D02*
X017033Y018233D01*
X017033Y017834D02*
X016633Y017834D01*
X016633Y017436D02*
X017033Y017436D01*
X017033Y017037D02*
X016633Y017037D01*
X016633Y016639D02*
X017033Y016639D01*
X017033Y016240D02*
X016633Y016240D01*
X016633Y015842D02*
X017033Y015842D01*
X017115Y015443D02*
X016822Y015443D01*
X017220Y015045D02*
X017567Y015045D01*
X017556Y014646D02*
X017713Y014646D01*
X017633Y014248D02*
X017828Y014248D01*
X017713Y013849D02*
X017633Y013849D01*
X017633Y013451D02*
X017787Y013451D01*
X017747Y013052D02*
X017633Y013052D01*
X017633Y012654D02*
X017713Y012654D01*
X017633Y012255D02*
X017831Y012255D01*
X017713Y011857D02*
X017633Y011857D01*
X017633Y011458D02*
X017784Y011458D01*
X018333Y010800D02*
X017833Y010300D01*
X017833Y007300D01*
X018833Y007300D01*
X018833Y006300D02*
X017833Y004800D01*
X017833Y003300D01*
X018733Y003488D02*
X019433Y003488D01*
X019433Y003090D02*
X018733Y003090D01*
X018679Y002691D02*
X019487Y002691D01*
X019768Y002293D02*
X018399Y002293D01*
X017268Y002293D02*
X016399Y002293D01*
X015268Y002293D02*
X013399Y002293D01*
X012833Y003300D02*
X014333Y003300D01*
X014333Y004800D01*
X013403Y004684D02*
X008983Y004684D01*
X008983Y005082D02*
X013403Y005082D01*
X013505Y005481D02*
X008983Y005481D01*
X008983Y005879D02*
X013960Y005879D01*
X013918Y006278D02*
X008983Y006278D01*
X008983Y006676D02*
X013918Y006676D01*
X013936Y007075D02*
X008983Y007075D01*
X008983Y007473D02*
X013918Y007473D01*
X014058Y007818D02*
X014315Y008076D01*
X014651Y008215D01*
X015015Y008215D01*
X015033Y008208D01*
X015033Y008240D01*
X014833Y008240D01*
X014833Y008800D01*
X014833Y008669D02*
X014833Y008669D01*
X014833Y008270D02*
X014833Y008270D01*
X014833Y007300D02*
X015833Y007300D01*
X015833Y009300D01*
X015333Y009800D01*
X014833Y009800D01*
X015860Y010404D02*
X015953Y010629D01*
X015953Y010971D01*
X015822Y011287D01*
X015810Y011300D01*
X015822Y011313D01*
X015953Y011629D01*
X015953Y011971D01*
X015822Y012287D01*
X015810Y012300D01*
X015822Y012313D01*
X015953Y012629D01*
X015953Y012971D01*
X015822Y013287D01*
X015583Y013527D01*
X015612Y013585D01*
X015640Y013669D01*
X015653Y013756D01*
X015653Y013800D01*
X015653Y013844D01*
X015640Y013931D01*
X015617Y014000D01*
X016002Y014000D01*
X016033Y013969D01*
X016033Y010231D01*
X015860Y010404D01*
X016002Y010263D02*
X016033Y010263D01*
X016033Y010661D02*
X015953Y010661D01*
X015917Y011060D02*
X016033Y011060D01*
X016033Y011458D02*
X015883Y011458D01*
X015953Y011857D02*
X016033Y011857D01*
X016033Y012255D02*
X015836Y012255D01*
X015953Y012654D02*
X016033Y012654D01*
X016033Y013052D02*
X015920Y013052D01*
X016033Y013451D02*
X015659Y013451D01*
X015653Y013800D02*
X014833Y013800D01*
X014013Y013800D01*
X014833Y013800D01*
X014833Y013800D01*
X010833Y013800D01*
X011064Y013451D02*
X008983Y013451D01*
X008983Y013849D02*
X011491Y013849D01*
X012176Y013849D02*
X012308Y013849D01*
X013294Y013800D02*
X013320Y013811D01*
X013510Y014000D01*
X014049Y014000D01*
X014027Y013931D01*
X014013Y013844D01*
X014013Y013800D01*
X014013Y013756D01*
X014027Y013669D01*
X014049Y013600D01*
X013510Y013600D01*
X013320Y013789D01*
X013294Y013800D01*
X013359Y013849D02*
X014014Y013849D01*
X014833Y013800D02*
X015653Y013800D01*
X015653Y013849D02*
X016033Y013849D01*
X016833Y014300D02*
X016833Y004800D01*
X015833Y004800D02*
X015833Y003300D01*
X014987Y002691D02*
X014856Y002691D01*
X013431Y004285D02*
X013421Y004285D01*
X014833Y006300D02*
X015833Y004800D01*
X018633Y004285D02*
X019533Y004285D01*
X019478Y003887D02*
X018689Y003887D01*
X018717Y004684D02*
X019533Y004684D01*
X019533Y005082D02*
X018983Y005082D01*
X019308Y005481D02*
X019533Y005481D01*
X020333Y007300D02*
X020333Y003300D01*
X021333Y003300D02*
X021333Y007800D01*
X019333Y009800D01*
X018833Y009800D01*
X018833Y008800D02*
X020333Y007300D01*
X020833Y010800D02*
X020833Y011300D01*
X020333Y011800D01*
X018833Y011800D01*
X018833Y010800D02*
X018333Y010800D01*
X018833Y012800D02*
X020833Y012800D01*
X021833Y012800D02*
X021833Y013300D01*
X021333Y013800D01*
X018833Y013800D01*
X018833Y014800D02*
X020833Y014800D01*
X018833Y015800D02*
X017833Y015800D01*
X017833Y018800D01*
X018333Y019300D01*
X019248Y019428D02*
X019918Y019428D01*
X020013Y019827D02*
X019154Y019827D01*
X019248Y020225D02*
X019918Y020225D01*
X019918Y020624D02*
X019248Y020624D01*
X019133Y021022D02*
X020033Y021022D01*
X020033Y021421D02*
X019991Y021421D01*
X019833Y021421D02*
X019833Y021421D01*
X019675Y021421D02*
X019527Y021421D01*
X019833Y021819D02*
X019833Y021819D01*
X020833Y022300D02*
X020833Y020300D01*
X020833Y019300D02*
X020833Y018300D01*
X020333Y017800D01*
X018833Y017800D01*
X018833Y016800D02*
X020833Y016800D01*
X016833Y014300D02*
X016333Y014800D01*
X014833Y014800D01*
X012833Y014800D01*
X011833Y015045D02*
X011833Y015045D01*
X011273Y015045D02*
X008983Y015045D01*
X008983Y015443D02*
X011424Y015443D01*
X011833Y015443D02*
X011833Y015443D01*
X014833Y013800D02*
X014833Y013800D01*
X014833Y012800D02*
X012833Y012800D01*
X011833Y012800D02*
X011833Y012300D01*
X012333Y011800D01*
X014833Y011800D01*
X014833Y010800D02*
X012833Y010800D01*
X011833Y010800D02*
X011833Y009980D01*
X011833Y010661D02*
X011833Y010661D01*
X011833Y010800D02*
X011833Y010800D01*
X011273Y011060D02*
X008983Y011060D01*
X008983Y011458D02*
X011439Y011458D01*
X011151Y011857D02*
X008983Y011857D01*
X008983Y012255D02*
X011021Y012255D01*
X010973Y012654D02*
X008983Y012654D01*
X008983Y013052D02*
X010973Y013052D01*
X014679Y018660D02*
X014558Y018782D01*
X014418Y019118D01*
X014418Y019482D01*
X014547Y019792D01*
X014418Y019921D01*
X014418Y020679D01*
X014533Y020794D01*
X014533Y021434D01*
X014474Y021415D01*
X014381Y021400D01*
X014333Y021400D01*
X014333Y022300D01*
X014333Y022218D02*
X014333Y022218D01*
X014333Y022616D02*
X014333Y022616D01*
X014333Y023015D02*
X014333Y023015D01*
X013333Y022300D02*
X012833Y021800D01*
X012833Y020300D01*
X013748Y020225D02*
X014418Y020225D01*
X014418Y020624D02*
X013748Y020624D01*
X013633Y021022D02*
X014533Y021022D01*
X014533Y021421D02*
X014491Y021421D01*
X014333Y021421D02*
X014333Y021421D01*
X014175Y021421D02*
X014027Y021421D01*
X014333Y021819D02*
X014333Y021819D01*
X015333Y022300D02*
X015333Y020300D01*
X014513Y019827D02*
X013654Y019827D01*
X013837Y019428D02*
X014418Y019428D01*
X014455Y019030D02*
X014235Y019030D01*
X018333Y020300D02*
X018333Y021800D01*
X018833Y022300D01*
X022933Y003090D02*
X023289Y003090D01*
X022942Y002691D02*
X022849Y002691D01*
X022707Y001496D02*
X011460Y001496D01*
X011333Y001097D02*
X022834Y001097D01*
D16*
X016833Y004800D03*
X014333Y004800D03*
M02*
