G75*
G70*
%OFA0B0*%
%FSLAX24Y24*%
%IPPOS*%
%LPD*%
%AMOC8*
5,1,8,0,0,1.08239X$1,22.5*
%
%ADD10C,0.0100*%
%ADD11C,0.0051*%
%ADD12C,0.0110*%
D10*
X008333Y000300D02*
X008333Y025796D01*
X025703Y025796D01*
X025703Y000300D01*
X008333Y000300D01*
D11*
X007066Y000300D01*
X007833Y000300D02*
X007936Y001324D01*
X007959Y001324D02*
X007833Y000300D01*
X007731Y001324D01*
X007708Y001324D02*
X007959Y001324D01*
X007885Y001324D02*
X007833Y000300D01*
X007782Y001324D01*
X007708Y001324D02*
X007833Y000300D01*
X007833Y025800D01*
X007936Y024776D01*
X007959Y024776D02*
X007833Y025800D01*
X007731Y024776D01*
X007708Y024776D02*
X007959Y024776D01*
X007885Y024776D02*
X007833Y025800D01*
X007782Y024776D01*
X007708Y024776D02*
X007833Y025800D01*
X008333Y025800D02*
X007066Y025800D01*
X008333Y025800D02*
X008334Y027072D01*
X008333Y026304D02*
X009357Y026201D01*
X009357Y026178D02*
X008333Y026304D01*
X009357Y026406D01*
X009357Y026429D02*
X009357Y026178D01*
X009357Y026253D02*
X008333Y026304D01*
X009357Y026355D01*
X009357Y026429D02*
X008333Y026304D01*
X025704Y026300D01*
X024680Y026198D01*
X024680Y026175D02*
X025704Y026300D01*
X024680Y026403D01*
X024680Y026426D02*
X024680Y026175D01*
X024680Y026249D02*
X025704Y026300D01*
X024680Y026351D01*
X024680Y026426D02*
X025704Y026300D01*
X025703Y025796D02*
X025704Y027068D01*
D12*
X018273Y027076D02*
X018174Y027174D01*
X017978Y027174D01*
X017879Y027076D01*
X018273Y027076D02*
X018273Y026977D01*
X017879Y026584D01*
X018273Y026584D01*
X017628Y026584D02*
X017235Y026584D01*
X017432Y026584D02*
X017432Y027174D01*
X017235Y026977D01*
X017011Y026682D02*
X017011Y026584D01*
X016912Y026584D01*
X016912Y026682D01*
X017011Y026682D01*
X016662Y026879D02*
X016268Y026879D01*
X016563Y027174D01*
X016563Y026584D01*
X016017Y026879D02*
X015623Y026879D01*
X015919Y027174D01*
X015919Y026584D01*
X007060Y014304D02*
X007454Y013911D01*
X007552Y013911D01*
X007060Y013660D02*
X007454Y013266D01*
X007552Y013266D01*
X007552Y013042D02*
X007552Y012944D01*
X007454Y012944D01*
X007454Y013042D01*
X007552Y013042D01*
X007257Y012693D02*
X007257Y012299D01*
X006962Y012595D01*
X007552Y012595D01*
X007454Y012048D02*
X007355Y012048D01*
X007257Y011950D01*
X007257Y011655D01*
X007454Y011655D01*
X007552Y011753D01*
X007552Y011950D01*
X007454Y012048D01*
X007257Y011655D02*
X007060Y011852D01*
X006962Y012048D01*
X006962Y013266D02*
X006962Y013660D01*
X007060Y013660D01*
X006962Y013911D02*
X006962Y014304D01*
X007060Y014304D01*
M02*
