G75*
G70*
%OFA0B0*%
%FSLAX24Y24*%
%IPPOS*%
%LPD*%
%AMOC8*
5,1,8,0,0,1.08239X$1,22.5*
%
%ADD10C,0.0600*%
%ADD11OC8,0.0710*%
%ADD12C,0.0710*%
%ADD13OC8,0.0600*%
%ADD14C,0.0680*%
%ADD15C,0.2180*%
%ADD16C,0.0580*%
D10*
X010500Y001150D02*
X011020Y001150D01*
X011020Y002150D02*
X010500Y002150D01*
X010500Y003150D02*
X011020Y003150D01*
X011020Y007650D02*
X010500Y007650D01*
X010500Y008650D02*
X011020Y008650D01*
X011020Y009650D02*
X010500Y009650D01*
D11*
X015760Y008650D03*
X019960Y009150D03*
X015760Y001650D03*
X005760Y002150D03*
X004760Y009650D03*
D12*
X005760Y009650D03*
X014760Y008650D03*
X018560Y009150D03*
X014760Y001650D03*
X006760Y002150D03*
D13*
X007760Y003650D03*
X009260Y003650D03*
X012760Y004150D03*
X012760Y005650D03*
X015760Y006150D03*
X017760Y004650D03*
X018760Y006150D03*
X012760Y008650D03*
X009260Y006650D03*
X007760Y006650D03*
X007760Y009650D03*
X006760Y009650D03*
X006760Y012650D03*
X007760Y012650D03*
X010260Y012650D03*
X013260Y012650D03*
X017760Y011650D03*
X019760Y011650D03*
X017760Y001650D03*
X012760Y001150D03*
D14*
X019960Y003650D02*
X020560Y003650D01*
X020560Y004650D02*
X019960Y004650D01*
X015760Y012350D02*
X015760Y012950D01*
X014760Y012950D02*
X014760Y012350D01*
X005060Y006650D02*
X004460Y006650D01*
X004460Y005650D02*
X005060Y005650D01*
X005060Y004650D02*
X004460Y004650D01*
D15*
X003260Y001650D03*
X003260Y012650D03*
X021760Y012650D03*
X021760Y001650D03*
D16*
X009260Y007650D03*
X009260Y010650D03*
M02*
