G75*
G70*
%OFA0B0*%
%FSLAX24Y24*%
%IPPOS*%
%LPD*%
%AMOC8*
5,1,8,0,0,1.08239X$1,22.5*
%
%ADD10C,0.0100*%
%ADD11C,0.0051*%
%ADD12C,0.0110*%
D10*
X001760Y000150D02*
X001760Y014146D01*
X023130Y014146D01*
X023130Y000150D01*
X001760Y000150D01*
D11*
X000492Y000150D01*
X001260Y000150D02*
X001362Y001174D01*
X001385Y001174D02*
X001260Y000150D01*
X001157Y001174D01*
X001134Y001174D02*
X001385Y001174D01*
X001311Y001174D02*
X001260Y000150D01*
X001208Y001174D01*
X001134Y001174D02*
X001260Y000150D01*
X001260Y014150D01*
X001362Y013126D01*
X001385Y013126D02*
X001260Y014150D01*
X001157Y013126D01*
X001134Y013126D02*
X001385Y013126D01*
X001311Y013126D02*
X001260Y014150D01*
X001208Y013126D01*
X001134Y013126D02*
X001260Y014150D01*
X001760Y014150D02*
X000492Y014150D01*
X001760Y014146D02*
X001760Y015418D01*
X001760Y014650D02*
X002783Y014548D01*
X002783Y014524D02*
X001760Y014650D01*
X002783Y014752D01*
X002783Y014776D02*
X002783Y014524D01*
X002783Y014599D02*
X001760Y014650D01*
X002783Y014701D01*
X002783Y014776D02*
X001760Y014650D01*
X023130Y014650D01*
X022106Y014548D01*
X022106Y014524D02*
X023130Y014650D01*
X022106Y014752D01*
X022106Y014776D02*
X022106Y014524D01*
X022106Y014599D02*
X023130Y014650D01*
X022106Y014701D01*
X022106Y014776D02*
X023130Y014650D01*
X023130Y014146D02*
X023130Y015418D01*
D12*
X013699Y015423D02*
X013699Y015325D01*
X013600Y015226D01*
X013404Y015226D01*
X013305Y015325D01*
X013305Y015423D01*
X013404Y015522D01*
X013600Y015522D01*
X013699Y015423D01*
X013600Y015226D02*
X013699Y015128D01*
X013699Y015030D01*
X013600Y014931D01*
X013404Y014931D01*
X013305Y015030D01*
X013305Y015128D01*
X013404Y015226D01*
X013054Y015325D02*
X013054Y015423D01*
X012956Y015522D01*
X012759Y015522D01*
X012661Y015423D01*
X013054Y015325D02*
X012661Y014931D01*
X013054Y014931D01*
X012437Y014931D02*
X012338Y014931D01*
X012338Y015030D01*
X012437Y015030D01*
X012437Y014931D01*
X011989Y014931D02*
X011989Y015522D01*
X011694Y015226D01*
X012088Y015226D01*
X011443Y015226D02*
X011443Y015030D01*
X011345Y014931D01*
X011148Y014931D01*
X011049Y015030D01*
X011049Y015226D02*
X011246Y015325D01*
X011345Y015325D01*
X011443Y015226D01*
X011049Y015226D02*
X011049Y015522D01*
X011443Y015522D01*
X000978Y008306D02*
X000880Y008404D01*
X000781Y008404D01*
X000683Y008306D01*
X000683Y008011D01*
X000880Y008011D01*
X000978Y008109D01*
X000978Y008306D01*
X000683Y008011D02*
X000486Y008208D01*
X000388Y008404D01*
X000388Y007760D02*
X000388Y007366D01*
X000683Y007366D01*
X000585Y007563D01*
X000585Y007661D01*
X000683Y007760D01*
X000880Y007760D01*
X000978Y007661D01*
X000978Y007465D01*
X000880Y007366D01*
X000880Y007142D02*
X000978Y007142D01*
X000978Y007044D01*
X000880Y007044D01*
X000880Y007142D01*
X000880Y006793D02*
X000683Y006793D01*
X000585Y006695D01*
X000585Y006596D01*
X000683Y006399D01*
X000388Y006399D01*
X000388Y006793D01*
X000880Y006793D02*
X000978Y006695D01*
X000978Y006498D01*
X000880Y006399D01*
X000880Y006148D02*
X000978Y006050D01*
X000978Y005853D01*
X000880Y005755D01*
X000683Y005952D02*
X000683Y006050D01*
X000781Y006148D01*
X000880Y006148D01*
X000683Y006050D02*
X000585Y006148D01*
X000486Y006148D01*
X000388Y006050D01*
X000388Y005853D01*
X000486Y005755D01*
M02*
