G75*
G70*
%OFA0B0*%
%FSLAX24Y24*%
%IPPOS*%
%LPD*%
%AMOC8*
5,1,8,0,0,1.08239X$1,22.5*
%
%ADD10C,0.0100*%
%ADD11C,0.0051*%
%ADD12C,0.0110*%
%ADD13C,0.0050*%
%ADD14C,0.0060*%
%ADD15C,0.0120*%
%ADD16C,0.0040*%
%ADD17R,0.0200X0.0150*%
%ADD18R,0.0150X0.0200*%
%ADD19C,0.0020*%
%ADD20C,0.0080*%
D10*
X001760Y000150D02*
X001760Y014146D01*
X023130Y014146D01*
X023130Y000150D01*
X001760Y000150D01*
D11*
X000492Y000150D01*
X001260Y000150D02*
X001362Y001174D01*
X001385Y001174D02*
X001260Y000150D01*
X001157Y001174D01*
X001134Y001174D02*
X001385Y001174D01*
X001311Y001174D02*
X001260Y000150D01*
X001208Y001174D01*
X001134Y001174D02*
X001260Y000150D01*
X001260Y014150D01*
X001362Y013126D01*
X001385Y013126D02*
X001260Y014150D01*
X001157Y013126D01*
X001134Y013126D02*
X001385Y013126D01*
X001311Y013126D02*
X001260Y014150D01*
X001208Y013126D01*
X001134Y013126D02*
X001260Y014150D01*
X001760Y014150D02*
X000492Y014150D01*
X001760Y014146D02*
X001760Y015418D01*
X001760Y014650D02*
X002783Y014548D01*
X002783Y014524D02*
X001760Y014650D01*
X002783Y014752D01*
X002783Y014776D02*
X002783Y014524D01*
X002783Y014599D02*
X001760Y014650D01*
X002783Y014701D01*
X002783Y014776D02*
X001760Y014650D01*
X023130Y014650D01*
X022106Y014548D01*
X022106Y014524D02*
X023130Y014650D01*
X022106Y014752D01*
X022106Y014776D02*
X022106Y014524D01*
X022106Y014599D02*
X023130Y014650D01*
X022106Y014701D01*
X022106Y014776D02*
X023130Y014650D01*
X023130Y014146D02*
X023130Y015418D01*
D12*
X013699Y015423D02*
X013699Y015325D01*
X013600Y015226D01*
X013404Y015226D01*
X013305Y015325D01*
X013305Y015423D01*
X013404Y015522D01*
X013600Y015522D01*
X013699Y015423D01*
X013600Y015226D02*
X013699Y015128D01*
X013699Y015030D01*
X013600Y014931D01*
X013404Y014931D01*
X013305Y015030D01*
X013305Y015128D01*
X013404Y015226D01*
X013054Y015325D02*
X013054Y015423D01*
X012956Y015522D01*
X012759Y015522D01*
X012661Y015423D01*
X013054Y015325D02*
X012661Y014931D01*
X013054Y014931D01*
X012437Y014931D02*
X012338Y014931D01*
X012338Y015030D01*
X012437Y015030D01*
X012437Y014931D01*
X011989Y014931D02*
X011989Y015522D01*
X011694Y015226D01*
X012088Y015226D01*
X011443Y015226D02*
X011443Y015030D01*
X011345Y014931D01*
X011148Y014931D01*
X011049Y015030D01*
X011049Y015226D02*
X011246Y015325D01*
X011345Y015325D01*
X011443Y015226D01*
X011049Y015226D02*
X011049Y015522D01*
X011443Y015522D01*
X000978Y008306D02*
X000880Y008404D01*
X000781Y008404D01*
X000683Y008306D01*
X000683Y008011D01*
X000880Y008011D01*
X000978Y008109D01*
X000978Y008306D01*
X000683Y008011D02*
X000486Y008208D01*
X000388Y008404D01*
X000388Y007760D02*
X000388Y007366D01*
X000683Y007366D01*
X000585Y007563D01*
X000585Y007661D01*
X000683Y007760D01*
X000880Y007760D01*
X000978Y007661D01*
X000978Y007465D01*
X000880Y007366D01*
X000880Y007142D02*
X000978Y007142D01*
X000978Y007044D01*
X000880Y007044D01*
X000880Y007142D01*
X000880Y006793D02*
X000683Y006793D01*
X000585Y006695D01*
X000585Y006596D01*
X000683Y006399D01*
X000388Y006399D01*
X000388Y006793D01*
X000880Y006793D02*
X000978Y006695D01*
X000978Y006498D01*
X000880Y006399D01*
X000880Y006148D02*
X000978Y006050D01*
X000978Y005853D01*
X000880Y005755D01*
X000683Y005952D02*
X000683Y006050D01*
X000781Y006148D01*
X000880Y006148D01*
X000683Y006050D02*
X000585Y006148D01*
X000486Y006148D01*
X000388Y006050D01*
X000388Y005853D01*
X000486Y005755D01*
D13*
X005564Y005216D02*
X006015Y005216D01*
X006015Y005066D02*
X006015Y005366D01*
X005714Y005066D02*
X005564Y005216D01*
X005639Y004906D02*
X005564Y004831D01*
X005564Y004605D01*
X006015Y004605D01*
X005864Y004605D02*
X005864Y004831D01*
X005789Y004906D01*
X005639Y004906D01*
X005564Y004445D02*
X005564Y004295D01*
X005564Y004370D02*
X005939Y004370D01*
X006015Y004295D01*
X006015Y004220D01*
X005939Y004145D01*
X007489Y002125D02*
X007414Y002050D01*
X007414Y001750D01*
X007489Y001675D01*
X007639Y001675D01*
X007714Y001750D01*
X007874Y001675D02*
X008174Y001675D01*
X008024Y001675D02*
X008024Y002125D01*
X007874Y001975D01*
X007714Y002050D02*
X007639Y002125D01*
X007489Y002125D01*
X010110Y001325D02*
X010110Y002975D01*
X010710Y002703D02*
X010710Y002597D01*
X010313Y003100D02*
X010259Y003073D01*
X010208Y003043D01*
X010158Y003010D01*
X010110Y002975D01*
X011207Y003100D02*
X011264Y003071D01*
X011320Y003038D01*
X011373Y003003D01*
X011424Y002963D01*
X011472Y002921D01*
X011518Y002876D01*
X011561Y002829D01*
X011601Y002779D01*
X011638Y002726D01*
X011671Y002671D01*
X011702Y002615D01*
X011728Y002556D01*
X011751Y002496D01*
X011771Y002435D01*
X011786Y002373D01*
X011798Y002310D01*
X011806Y002246D01*
X011810Y002182D01*
X011810Y002118D01*
X011806Y002054D01*
X011798Y001990D01*
X011786Y001927D01*
X011771Y001865D01*
X011751Y001804D01*
X011728Y001744D01*
X011702Y001685D01*
X011671Y001629D01*
X011638Y001574D01*
X011601Y001521D01*
X011561Y001471D01*
X011518Y001424D01*
X011472Y001379D01*
X011424Y001337D01*
X011373Y001297D01*
X011320Y001262D01*
X011264Y001229D01*
X011207Y001200D01*
X010710Y001597D02*
X010710Y001703D01*
X010322Y001196D02*
X010266Y001223D01*
X010212Y001254D01*
X010160Y001288D01*
X010110Y001325D01*
X014735Y003750D02*
X014810Y003675D01*
X014960Y003675D01*
X015035Y003750D01*
X015195Y003750D02*
X015270Y003675D01*
X015420Y003675D01*
X015495Y003750D01*
X015495Y003825D01*
X015420Y003900D01*
X015345Y003900D01*
X015420Y003900D02*
X015495Y003975D01*
X015495Y004050D01*
X015420Y004125D01*
X015270Y004125D01*
X015195Y004050D01*
X015035Y004050D02*
X014960Y004125D01*
X014810Y004125D01*
X014735Y004050D01*
X014735Y003750D01*
X011245Y005175D02*
X010945Y005175D01*
X011095Y005175D02*
X011095Y005625D01*
X010945Y005475D01*
X010785Y005550D02*
X010785Y005250D01*
X010710Y005175D01*
X010560Y005175D01*
X010485Y005250D01*
X010485Y005550D01*
X010560Y005625D01*
X010710Y005625D01*
X010785Y005550D01*
X010635Y005325D02*
X010785Y005175D01*
X010110Y007825D02*
X010110Y009475D01*
X010710Y009203D02*
X010710Y009097D01*
X010313Y009600D02*
X010259Y009573D01*
X010208Y009543D01*
X010158Y009510D01*
X010110Y009475D01*
X011207Y009600D02*
X011264Y009571D01*
X011320Y009538D01*
X011373Y009503D01*
X011424Y009463D01*
X011472Y009421D01*
X011518Y009376D01*
X011561Y009329D01*
X011601Y009279D01*
X011638Y009226D01*
X011671Y009171D01*
X011702Y009115D01*
X011728Y009056D01*
X011751Y008996D01*
X011771Y008935D01*
X011786Y008873D01*
X011798Y008810D01*
X011806Y008746D01*
X011810Y008682D01*
X011810Y008618D01*
X011806Y008554D01*
X011798Y008490D01*
X011786Y008427D01*
X011771Y008365D01*
X011751Y008304D01*
X011728Y008244D01*
X011702Y008185D01*
X011671Y008129D01*
X011638Y008074D01*
X011601Y008021D01*
X011561Y007971D01*
X011518Y007924D01*
X011472Y007879D01*
X011424Y007837D01*
X011373Y007797D01*
X011320Y007762D01*
X011264Y007729D01*
X011207Y007700D01*
X010710Y008097D02*
X010710Y008203D01*
X010322Y007696D02*
X010266Y007723D01*
X010212Y007754D01*
X010160Y007788D01*
X010110Y007825D01*
X014235Y009750D02*
X014310Y009675D01*
X014460Y009675D01*
X014535Y009750D01*
X014695Y009900D02*
X014995Y009900D01*
X014920Y009675D02*
X014920Y010125D01*
X014695Y009900D01*
X014535Y010050D02*
X014460Y010125D01*
X014310Y010125D01*
X014235Y010050D01*
X014235Y009750D01*
X014830Y011395D02*
X014905Y011395D01*
X014980Y011470D01*
X014980Y011845D01*
X014905Y011845D02*
X015055Y011845D01*
X015215Y011845D02*
X015440Y011845D01*
X015515Y011770D01*
X015515Y011620D01*
X015440Y011545D01*
X015215Y011545D01*
X015215Y011395D02*
X015215Y011845D01*
X015675Y011770D02*
X015750Y011845D01*
X015900Y011845D01*
X015976Y011770D01*
X015976Y011695D01*
X015900Y011620D01*
X015976Y011545D01*
X015976Y011470D01*
X015900Y011395D01*
X015750Y011395D01*
X015675Y011470D01*
X015825Y011620D02*
X015900Y011620D01*
X014830Y011395D02*
X014755Y011470D01*
X017935Y013400D02*
X017935Y013700D01*
X018010Y013775D01*
X018160Y013775D01*
X018235Y013700D01*
X018395Y013550D02*
X018620Y013550D01*
X018695Y013475D01*
X018695Y013400D01*
X018620Y013325D01*
X018470Y013325D01*
X018395Y013400D01*
X018395Y013550D01*
X018545Y013700D01*
X018695Y013775D01*
X018235Y013400D02*
X018160Y013325D01*
X018010Y013325D01*
X017935Y013400D01*
X021085Y010650D02*
X021160Y010725D01*
X021310Y010725D01*
X021385Y010650D01*
X021545Y010725D02*
X021545Y010500D01*
X021695Y010575D01*
X021770Y010575D01*
X021845Y010500D01*
X021845Y010350D01*
X021770Y010275D01*
X021620Y010275D01*
X021545Y010350D01*
X021385Y010350D02*
X021310Y010275D01*
X021160Y010275D01*
X021085Y010350D01*
X021085Y010650D01*
X021545Y010725D02*
X021845Y010725D01*
X019515Y004366D02*
X019515Y004066D01*
X019214Y004366D01*
X019139Y004366D01*
X019064Y004291D01*
X019064Y004141D01*
X019139Y004066D01*
X019139Y003906D02*
X019289Y003906D01*
X019364Y003831D01*
X019364Y003605D01*
X019515Y003605D02*
X019064Y003605D01*
X019064Y003831D01*
X019139Y003906D01*
X019064Y003445D02*
X019064Y003295D01*
X019064Y003370D02*
X019439Y003370D01*
X019515Y003295D01*
X019515Y003220D01*
X019439Y003145D01*
X011245Y011175D02*
X010945Y011175D01*
X011245Y011475D01*
X011245Y011550D01*
X011170Y011625D01*
X011020Y011625D01*
X010945Y011550D01*
X010785Y011550D02*
X010785Y011250D01*
X010710Y011175D01*
X010560Y011175D01*
X010485Y011250D01*
X010485Y011550D01*
X010560Y011625D01*
X010710Y011625D01*
X010785Y011550D01*
X010635Y011325D02*
X010785Y011175D01*
X003674Y010050D02*
X003674Y009975D01*
X003374Y009675D01*
X003674Y009675D01*
X003214Y009750D02*
X003139Y009675D01*
X002989Y009675D01*
X002914Y009750D01*
X002914Y010050D01*
X002989Y010125D01*
X003139Y010125D01*
X003214Y010050D01*
X003374Y010050D02*
X003449Y010125D01*
X003599Y010125D01*
X003674Y010050D01*
D14*
X004260Y009650D02*
X004262Y009713D01*
X004268Y009775D01*
X004278Y009837D01*
X004291Y009899D01*
X004309Y009959D01*
X004330Y010018D01*
X004355Y010076D01*
X004384Y010132D01*
X004416Y010186D01*
X004451Y010238D01*
X004489Y010287D01*
X004531Y010335D01*
X004575Y010379D01*
X004623Y010421D01*
X004672Y010459D01*
X004724Y010494D01*
X004778Y010526D01*
X004834Y010555D01*
X004892Y010580D01*
X004951Y010601D01*
X005011Y010619D01*
X005073Y010632D01*
X005135Y010642D01*
X005197Y010648D01*
X005260Y010650D01*
X005323Y010648D01*
X005385Y010642D01*
X005447Y010632D01*
X005509Y010619D01*
X005569Y010601D01*
X005628Y010580D01*
X005686Y010555D01*
X005742Y010526D01*
X005796Y010494D01*
X005848Y010459D01*
X005897Y010421D01*
X005945Y010379D01*
X005989Y010335D01*
X006031Y010287D01*
X006069Y010238D01*
X006104Y010186D01*
X006136Y010132D01*
X006165Y010076D01*
X006190Y010018D01*
X006211Y009959D01*
X006229Y009899D01*
X006242Y009837D01*
X006252Y009775D01*
X006258Y009713D01*
X006260Y009650D01*
X006258Y009587D01*
X006252Y009525D01*
X006242Y009463D01*
X006229Y009401D01*
X006211Y009341D01*
X006190Y009282D01*
X006165Y009224D01*
X006136Y009168D01*
X006104Y009114D01*
X006069Y009062D01*
X006031Y009013D01*
X005989Y008965D01*
X005945Y008921D01*
X005897Y008879D01*
X005848Y008841D01*
X005796Y008806D01*
X005742Y008774D01*
X005686Y008745D01*
X005628Y008720D01*
X005569Y008699D01*
X005509Y008681D01*
X005447Y008668D01*
X005385Y008658D01*
X005323Y008652D01*
X005260Y008650D01*
X005197Y008652D01*
X005135Y008658D01*
X005073Y008668D01*
X005011Y008681D01*
X004951Y008699D01*
X004892Y008720D01*
X004834Y008745D01*
X004778Y008774D01*
X004724Y008806D01*
X004672Y008841D01*
X004623Y008879D01*
X004575Y008921D01*
X004531Y008965D01*
X004489Y009013D01*
X004451Y009062D01*
X004416Y009114D01*
X004384Y009168D01*
X004355Y009224D01*
X004330Y009282D01*
X004309Y009341D01*
X004291Y009401D01*
X004278Y009463D01*
X004268Y009525D01*
X004262Y009587D01*
X004260Y009650D01*
X005710Y009150D02*
X005810Y009150D01*
X005810Y009050D01*
X005810Y009150D02*
X005810Y009250D01*
X005810Y009150D02*
X005910Y009150D01*
X006460Y010150D02*
X007060Y010150D01*
X007077Y010152D01*
X007094Y010156D01*
X007110Y010163D01*
X007124Y010173D01*
X007137Y010186D01*
X007147Y010200D01*
X007154Y010216D01*
X007158Y010233D01*
X007160Y010250D01*
X007160Y010400D01*
X007110Y010450D01*
X007110Y011850D01*
X007160Y011900D01*
X007160Y012050D01*
X007158Y012067D01*
X007154Y012084D01*
X007147Y012100D01*
X007137Y012114D01*
X007124Y012127D01*
X007110Y012137D01*
X007094Y012144D01*
X007077Y012148D01*
X007060Y012150D01*
X006460Y012150D01*
X006443Y012148D01*
X006426Y012144D01*
X006410Y012137D01*
X006396Y012127D01*
X006383Y012114D01*
X006373Y012100D01*
X006366Y012084D01*
X006362Y012067D01*
X006360Y012050D01*
X006360Y011900D01*
X006410Y011850D01*
X006410Y010450D01*
X006360Y010400D01*
X006360Y010250D01*
X006362Y010233D01*
X006366Y010216D01*
X006373Y010200D01*
X006383Y010186D01*
X006396Y010173D01*
X006410Y010163D01*
X006426Y010156D01*
X006443Y010152D01*
X006460Y010150D01*
X007360Y010250D02*
X007360Y010400D01*
X007410Y010450D01*
X007410Y011850D01*
X007360Y011900D01*
X007360Y012050D01*
X007362Y012067D01*
X007366Y012084D01*
X007373Y012100D01*
X007383Y012114D01*
X007396Y012127D01*
X007410Y012137D01*
X007426Y012144D01*
X007443Y012148D01*
X007460Y012150D01*
X008060Y012150D01*
X008077Y012148D01*
X008094Y012144D01*
X008110Y012137D01*
X008124Y012127D01*
X008137Y012114D01*
X008147Y012100D01*
X008154Y012084D01*
X008158Y012067D01*
X008160Y012050D01*
X008160Y011900D01*
X008110Y011850D01*
X008110Y010450D01*
X008160Y010400D01*
X008160Y010250D01*
X008158Y010233D01*
X008154Y010216D01*
X008147Y010200D01*
X008137Y010186D01*
X008124Y010173D01*
X008110Y010163D01*
X008094Y010156D01*
X008077Y010152D01*
X008060Y010150D01*
X007460Y010150D01*
X007443Y010152D01*
X007426Y010156D01*
X007410Y010163D01*
X007396Y010173D01*
X007383Y010186D01*
X007373Y010200D01*
X007366Y010216D01*
X007362Y010233D01*
X007360Y010250D01*
X010760Y012350D02*
X010760Y012950D01*
X010762Y012967D01*
X010766Y012984D01*
X010773Y013000D01*
X010783Y013014D01*
X010796Y013027D01*
X010810Y013037D01*
X010826Y013044D01*
X010843Y013048D01*
X010860Y013050D01*
X011010Y013050D01*
X011060Y013000D01*
X012460Y013000D01*
X012510Y013050D01*
X012660Y013050D01*
X012677Y013048D01*
X012694Y013044D01*
X012710Y013037D01*
X012724Y013027D01*
X012737Y013014D01*
X012747Y013000D01*
X012754Y012984D01*
X012758Y012967D01*
X012760Y012950D01*
X012760Y012350D01*
X012758Y012333D01*
X012754Y012316D01*
X012747Y012300D01*
X012737Y012286D01*
X012724Y012273D01*
X012710Y012263D01*
X012694Y012256D01*
X012677Y012252D01*
X012660Y012250D01*
X012510Y012250D01*
X012460Y012300D01*
X011060Y012300D01*
X011010Y012250D01*
X010860Y012250D01*
X010843Y012252D01*
X010826Y012256D01*
X010810Y012263D01*
X010796Y012273D01*
X010783Y012286D01*
X010773Y012300D01*
X010766Y012316D01*
X010762Y012333D01*
X010760Y012350D01*
X014260Y012400D02*
X014510Y012150D01*
X015010Y012150D01*
X015260Y012400D01*
X015510Y012150D01*
X016010Y012150D01*
X016260Y012400D01*
X016260Y012900D01*
X016010Y013150D01*
X015510Y013150D01*
X015260Y012900D01*
X015260Y012400D01*
X015260Y012900D02*
X015010Y013150D01*
X014510Y013150D01*
X014260Y012900D01*
X014260Y012400D01*
X017310Y012050D02*
X017310Y011250D01*
X017312Y011233D01*
X017316Y011216D01*
X017323Y011200D01*
X017333Y011186D01*
X017346Y011173D01*
X017360Y011163D01*
X017376Y011156D01*
X017393Y011152D01*
X017410Y011150D01*
X020110Y011150D01*
X020127Y011152D01*
X020144Y011156D01*
X020160Y011163D01*
X020174Y011173D01*
X020187Y011186D01*
X020197Y011200D01*
X020204Y011216D01*
X020208Y011233D01*
X020210Y011250D01*
X020210Y012050D01*
X020208Y012067D01*
X020204Y012084D01*
X020197Y012100D01*
X020187Y012114D01*
X020174Y012127D01*
X020160Y012137D01*
X020144Y012144D01*
X020127Y012148D01*
X020110Y012150D01*
X017410Y012150D01*
X017393Y012148D01*
X017376Y012144D01*
X017360Y012137D01*
X017346Y012127D01*
X017333Y012114D01*
X017323Y012100D01*
X017316Y012084D01*
X017312Y012067D01*
X017310Y012050D01*
X018160Y011650D02*
X018640Y011650D01*
X018890Y011650D02*
X019360Y011650D01*
X020610Y012650D02*
X020612Y012717D01*
X020618Y012785D01*
X020628Y012852D01*
X020642Y012918D01*
X020659Y012983D01*
X020681Y013047D01*
X020706Y013110D01*
X020735Y013171D01*
X020767Y013230D01*
X020803Y013287D01*
X020842Y013342D01*
X020884Y013395D01*
X020929Y013445D01*
X020977Y013492D01*
X021028Y013537D01*
X021081Y013578D01*
X021137Y013617D01*
X021195Y013652D01*
X021255Y013683D01*
X021316Y013711D01*
X021379Y013735D01*
X021443Y013756D01*
X021509Y013772D01*
X021575Y013785D01*
X021642Y013794D01*
X021709Y013799D01*
X021777Y013800D01*
X021844Y013797D01*
X021911Y013790D01*
X021978Y013779D01*
X022044Y013764D01*
X022109Y013746D01*
X022173Y013723D01*
X022235Y013697D01*
X022296Y013668D01*
X022354Y013634D01*
X022411Y013598D01*
X022466Y013558D01*
X022518Y013515D01*
X022567Y013469D01*
X022614Y013420D01*
X022658Y013369D01*
X022698Y013315D01*
X022736Y013259D01*
X022770Y013200D01*
X022800Y013140D01*
X022827Y013078D01*
X022851Y013015D01*
X022870Y012950D01*
X022886Y012885D01*
X022898Y012818D01*
X022906Y012751D01*
X022910Y012684D01*
X022910Y012616D01*
X022906Y012549D01*
X022898Y012482D01*
X022886Y012415D01*
X022870Y012350D01*
X022851Y012285D01*
X022827Y012222D01*
X022800Y012160D01*
X022770Y012100D01*
X022736Y012041D01*
X022698Y011985D01*
X022658Y011931D01*
X022614Y011880D01*
X022567Y011831D01*
X022518Y011785D01*
X022466Y011742D01*
X022411Y011702D01*
X022354Y011666D01*
X022296Y011632D01*
X022235Y011603D01*
X022173Y011577D01*
X022109Y011554D01*
X022044Y011536D01*
X021978Y011521D01*
X021911Y011510D01*
X021844Y011503D01*
X021777Y011500D01*
X021709Y011501D01*
X021642Y011506D01*
X021575Y011515D01*
X021509Y011528D01*
X021443Y011544D01*
X021379Y011565D01*
X021316Y011589D01*
X021255Y011617D01*
X021195Y011648D01*
X021137Y011683D01*
X021081Y011722D01*
X021028Y011763D01*
X020977Y011808D01*
X020929Y011855D01*
X020884Y011905D01*
X020842Y011958D01*
X020803Y012013D01*
X020767Y012070D01*
X020735Y012129D01*
X020706Y012190D01*
X020681Y012253D01*
X020659Y012317D01*
X020642Y012382D01*
X020628Y012448D01*
X020618Y012515D01*
X020612Y012583D01*
X020610Y012650D01*
X018060Y009750D02*
X018060Y009450D01*
X017910Y009600D02*
X018210Y009600D01*
X017660Y009150D02*
X017662Y009230D01*
X017668Y009309D01*
X017678Y009388D01*
X017692Y009467D01*
X017709Y009545D01*
X017731Y009622D01*
X017756Y009697D01*
X017786Y009771D01*
X017818Y009844D01*
X017855Y009915D01*
X017895Y009984D01*
X017938Y010051D01*
X017985Y010116D01*
X018034Y010178D01*
X018087Y010238D01*
X018143Y010295D01*
X018201Y010350D01*
X018262Y010401D01*
X018326Y010449D01*
X018392Y010494D01*
X018460Y010536D01*
X018530Y010574D01*
X018602Y010608D01*
X018675Y010639D01*
X018750Y010667D01*
X018827Y010690D01*
X018904Y010710D01*
X018982Y010726D01*
X019061Y010738D01*
X019140Y010746D01*
X019220Y010750D01*
X019300Y010750D01*
X019380Y010746D01*
X019459Y010738D01*
X019538Y010726D01*
X019616Y010710D01*
X019693Y010690D01*
X019770Y010667D01*
X019845Y010639D01*
X019918Y010608D01*
X019990Y010574D01*
X020060Y010536D01*
X020128Y010494D01*
X020194Y010449D01*
X020258Y010401D01*
X020319Y010350D01*
X020377Y010295D01*
X020433Y010238D01*
X020486Y010178D01*
X020535Y010116D01*
X020582Y010051D01*
X020625Y009984D01*
X020665Y009915D01*
X020702Y009844D01*
X020734Y009771D01*
X020764Y009697D01*
X020789Y009622D01*
X020811Y009545D01*
X020828Y009467D01*
X020842Y009388D01*
X020852Y009309D01*
X020858Y009230D01*
X020860Y009150D01*
X020858Y009070D01*
X020852Y008991D01*
X020842Y008912D01*
X020828Y008833D01*
X020811Y008755D01*
X020789Y008678D01*
X020764Y008603D01*
X020734Y008529D01*
X020702Y008456D01*
X020665Y008385D01*
X020625Y008316D01*
X020582Y008249D01*
X020535Y008184D01*
X020486Y008122D01*
X020433Y008062D01*
X020377Y008005D01*
X020319Y007950D01*
X020258Y007899D01*
X020194Y007851D01*
X020128Y007806D01*
X020060Y007764D01*
X019990Y007726D01*
X019918Y007692D01*
X019845Y007661D01*
X019770Y007633D01*
X019693Y007610D01*
X019616Y007590D01*
X019538Y007574D01*
X019459Y007562D01*
X019380Y007554D01*
X019300Y007550D01*
X019220Y007550D01*
X019140Y007554D01*
X019061Y007562D01*
X018982Y007574D01*
X018904Y007590D01*
X018827Y007610D01*
X018750Y007633D01*
X018675Y007661D01*
X018602Y007692D01*
X018530Y007726D01*
X018460Y007764D01*
X018392Y007806D01*
X018326Y007851D01*
X018262Y007899D01*
X018201Y007950D01*
X018143Y008005D01*
X018087Y008062D01*
X018034Y008122D01*
X017985Y008184D01*
X017938Y008249D01*
X017895Y008316D01*
X017855Y008385D01*
X017818Y008456D01*
X017786Y008529D01*
X017756Y008603D01*
X017731Y008678D01*
X017709Y008755D01*
X017692Y008833D01*
X017678Y008912D01*
X017668Y008991D01*
X017662Y009070D01*
X017660Y009150D01*
X014260Y008650D02*
X014262Y008713D01*
X014268Y008775D01*
X014278Y008837D01*
X014291Y008899D01*
X014309Y008959D01*
X014330Y009018D01*
X014355Y009076D01*
X014384Y009132D01*
X014416Y009186D01*
X014451Y009238D01*
X014489Y009287D01*
X014531Y009335D01*
X014575Y009379D01*
X014623Y009421D01*
X014672Y009459D01*
X014724Y009494D01*
X014778Y009526D01*
X014834Y009555D01*
X014892Y009580D01*
X014951Y009601D01*
X015011Y009619D01*
X015073Y009632D01*
X015135Y009642D01*
X015197Y009648D01*
X015260Y009650D01*
X015323Y009648D01*
X015385Y009642D01*
X015447Y009632D01*
X015509Y009619D01*
X015569Y009601D01*
X015628Y009580D01*
X015686Y009555D01*
X015742Y009526D01*
X015796Y009494D01*
X015848Y009459D01*
X015897Y009421D01*
X015945Y009379D01*
X015989Y009335D01*
X016031Y009287D01*
X016069Y009238D01*
X016104Y009186D01*
X016136Y009132D01*
X016165Y009076D01*
X016190Y009018D01*
X016211Y008959D01*
X016229Y008899D01*
X016242Y008837D01*
X016252Y008775D01*
X016258Y008713D01*
X016260Y008650D01*
X016258Y008587D01*
X016252Y008525D01*
X016242Y008463D01*
X016229Y008401D01*
X016211Y008341D01*
X016190Y008282D01*
X016165Y008224D01*
X016136Y008168D01*
X016104Y008114D01*
X016069Y008062D01*
X016031Y008013D01*
X015989Y007965D01*
X015945Y007921D01*
X015897Y007879D01*
X015848Y007841D01*
X015796Y007806D01*
X015742Y007774D01*
X015686Y007745D01*
X015628Y007720D01*
X015569Y007699D01*
X015509Y007681D01*
X015447Y007668D01*
X015385Y007658D01*
X015323Y007652D01*
X015260Y007650D01*
X015197Y007652D01*
X015135Y007658D01*
X015073Y007668D01*
X015011Y007681D01*
X014951Y007699D01*
X014892Y007720D01*
X014834Y007745D01*
X014778Y007774D01*
X014724Y007806D01*
X014672Y007841D01*
X014623Y007879D01*
X014575Y007921D01*
X014531Y007965D01*
X014489Y008013D01*
X014451Y008062D01*
X014416Y008114D01*
X014384Y008168D01*
X014355Y008224D01*
X014330Y008282D01*
X014309Y008341D01*
X014291Y008401D01*
X014278Y008463D01*
X014268Y008525D01*
X014262Y008587D01*
X014260Y008650D01*
X014710Y009050D02*
X014710Y009150D01*
X014710Y009250D01*
X014710Y009150D02*
X014810Y009150D01*
X014710Y009150D02*
X014610Y009150D01*
X013160Y008050D02*
X013160Y007900D01*
X013110Y007850D01*
X013110Y006450D01*
X013160Y006400D01*
X013160Y006250D01*
X013158Y006233D01*
X013154Y006216D01*
X013147Y006200D01*
X013137Y006186D01*
X013124Y006173D01*
X013110Y006163D01*
X013094Y006156D01*
X013077Y006152D01*
X013060Y006150D01*
X012460Y006150D01*
X012443Y006152D01*
X012426Y006156D01*
X012410Y006163D01*
X012396Y006173D01*
X012383Y006186D01*
X012373Y006200D01*
X012366Y006216D01*
X012362Y006233D01*
X012360Y006250D01*
X012360Y006400D01*
X012410Y006450D01*
X012410Y007850D01*
X012360Y007900D01*
X012360Y008050D01*
X012362Y008067D01*
X012366Y008084D01*
X012373Y008100D01*
X012383Y008114D01*
X012396Y008127D01*
X012410Y008137D01*
X012426Y008144D01*
X012443Y008148D01*
X012460Y008150D01*
X013060Y008150D01*
X013077Y008148D01*
X013094Y008144D01*
X013110Y008137D01*
X013124Y008127D01*
X013137Y008114D01*
X013147Y008100D01*
X013154Y008084D01*
X013158Y008067D01*
X013160Y008050D01*
X016260Y006450D02*
X016260Y005850D01*
X016262Y005833D01*
X016266Y005816D01*
X016273Y005800D01*
X016283Y005786D01*
X016296Y005773D01*
X016310Y005763D01*
X016326Y005756D01*
X016343Y005752D01*
X016360Y005750D01*
X016510Y005750D01*
X016560Y005800D01*
X017960Y005800D01*
X018010Y005750D01*
X018160Y005750D01*
X018177Y005752D01*
X018194Y005756D01*
X018210Y005763D01*
X018224Y005773D01*
X018237Y005786D01*
X018247Y005800D01*
X018254Y005816D01*
X018258Y005833D01*
X018260Y005850D01*
X018260Y006450D01*
X018258Y006467D01*
X018254Y006484D01*
X018247Y006500D01*
X018237Y006514D01*
X018224Y006527D01*
X018210Y006537D01*
X018194Y006544D01*
X018177Y006548D01*
X018160Y006550D01*
X018010Y006550D01*
X017960Y006500D01*
X016560Y006500D01*
X016510Y006550D01*
X016360Y006550D01*
X016343Y006548D01*
X016326Y006544D01*
X016310Y006537D01*
X016296Y006527D01*
X016283Y006514D01*
X016273Y006500D01*
X016266Y006484D01*
X016262Y006467D01*
X016260Y006450D01*
X017460Y004150D02*
X018060Y004150D01*
X018077Y004148D01*
X018094Y004144D01*
X018110Y004137D01*
X018124Y004127D01*
X018137Y004114D01*
X018147Y004100D01*
X018154Y004084D01*
X018158Y004067D01*
X018160Y004050D01*
X018160Y003900D01*
X018110Y003850D01*
X018110Y002450D01*
X018160Y002400D01*
X018160Y002250D01*
X018158Y002233D01*
X018154Y002216D01*
X018147Y002200D01*
X018137Y002186D01*
X018124Y002173D01*
X018110Y002163D01*
X018094Y002156D01*
X018077Y002152D01*
X018060Y002150D01*
X017460Y002150D01*
X017443Y002152D01*
X017426Y002156D01*
X017410Y002163D01*
X017396Y002173D01*
X017383Y002186D01*
X017373Y002200D01*
X017366Y002216D01*
X017362Y002233D01*
X017360Y002250D01*
X017360Y002400D01*
X017410Y002450D01*
X017410Y003850D01*
X017360Y003900D01*
X017360Y004050D01*
X017362Y004067D01*
X017366Y004084D01*
X017373Y004100D01*
X017383Y004114D01*
X017396Y004127D01*
X017410Y004137D01*
X017426Y004144D01*
X017443Y004148D01*
X017460Y004150D01*
X019760Y003900D02*
X019760Y003400D01*
X020010Y003150D01*
X020510Y003150D01*
X020760Y003400D01*
X020760Y003900D01*
X020510Y004150D01*
X020760Y004400D01*
X020760Y004900D01*
X020510Y005150D01*
X020010Y005150D01*
X019760Y004900D01*
X019760Y004400D01*
X020010Y004150D01*
X020510Y004150D01*
X020010Y004150D02*
X019760Y003900D01*
X020610Y001650D02*
X020612Y001717D01*
X020618Y001785D01*
X020628Y001852D01*
X020642Y001918D01*
X020659Y001983D01*
X020681Y002047D01*
X020706Y002110D01*
X020735Y002171D01*
X020767Y002230D01*
X020803Y002287D01*
X020842Y002342D01*
X020884Y002395D01*
X020929Y002445D01*
X020977Y002492D01*
X021028Y002537D01*
X021081Y002578D01*
X021137Y002617D01*
X021195Y002652D01*
X021255Y002683D01*
X021316Y002711D01*
X021379Y002735D01*
X021443Y002756D01*
X021509Y002772D01*
X021575Y002785D01*
X021642Y002794D01*
X021709Y002799D01*
X021777Y002800D01*
X021844Y002797D01*
X021911Y002790D01*
X021978Y002779D01*
X022044Y002764D01*
X022109Y002746D01*
X022173Y002723D01*
X022235Y002697D01*
X022296Y002668D01*
X022354Y002634D01*
X022411Y002598D01*
X022466Y002558D01*
X022518Y002515D01*
X022567Y002469D01*
X022614Y002420D01*
X022658Y002369D01*
X022698Y002315D01*
X022736Y002259D01*
X022770Y002200D01*
X022800Y002140D01*
X022827Y002078D01*
X022851Y002015D01*
X022870Y001950D01*
X022886Y001885D01*
X022898Y001818D01*
X022906Y001751D01*
X022910Y001684D01*
X022910Y001616D01*
X022906Y001549D01*
X022898Y001482D01*
X022886Y001415D01*
X022870Y001350D01*
X022851Y001285D01*
X022827Y001222D01*
X022800Y001160D01*
X022770Y001100D01*
X022736Y001041D01*
X022698Y000985D01*
X022658Y000931D01*
X022614Y000880D01*
X022567Y000831D01*
X022518Y000785D01*
X022466Y000742D01*
X022411Y000702D01*
X022354Y000666D01*
X022296Y000632D01*
X022235Y000603D01*
X022173Y000577D01*
X022109Y000554D01*
X022044Y000536D01*
X021978Y000521D01*
X021911Y000510D01*
X021844Y000503D01*
X021777Y000500D01*
X021709Y000501D01*
X021642Y000506D01*
X021575Y000515D01*
X021509Y000528D01*
X021443Y000544D01*
X021379Y000565D01*
X021316Y000589D01*
X021255Y000617D01*
X021195Y000648D01*
X021137Y000683D01*
X021081Y000722D01*
X021028Y000763D01*
X020977Y000808D01*
X020929Y000855D01*
X020884Y000905D01*
X020842Y000958D01*
X020803Y001013D01*
X020767Y001070D01*
X020735Y001129D01*
X020706Y001190D01*
X020681Y001253D01*
X020659Y001317D01*
X020642Y001382D01*
X020628Y001448D01*
X020618Y001515D01*
X020612Y001583D01*
X020610Y001650D01*
X014260Y001650D02*
X014262Y001713D01*
X014268Y001775D01*
X014278Y001837D01*
X014291Y001899D01*
X014309Y001959D01*
X014330Y002018D01*
X014355Y002076D01*
X014384Y002132D01*
X014416Y002186D01*
X014451Y002238D01*
X014489Y002287D01*
X014531Y002335D01*
X014575Y002379D01*
X014623Y002421D01*
X014672Y002459D01*
X014724Y002494D01*
X014778Y002526D01*
X014834Y002555D01*
X014892Y002580D01*
X014951Y002601D01*
X015011Y002619D01*
X015073Y002632D01*
X015135Y002642D01*
X015197Y002648D01*
X015260Y002650D01*
X015323Y002648D01*
X015385Y002642D01*
X015447Y002632D01*
X015509Y002619D01*
X015569Y002601D01*
X015628Y002580D01*
X015686Y002555D01*
X015742Y002526D01*
X015796Y002494D01*
X015848Y002459D01*
X015897Y002421D01*
X015945Y002379D01*
X015989Y002335D01*
X016031Y002287D01*
X016069Y002238D01*
X016104Y002186D01*
X016136Y002132D01*
X016165Y002076D01*
X016190Y002018D01*
X016211Y001959D01*
X016229Y001899D01*
X016242Y001837D01*
X016252Y001775D01*
X016258Y001713D01*
X016260Y001650D01*
X016258Y001587D01*
X016252Y001525D01*
X016242Y001463D01*
X016229Y001401D01*
X016211Y001341D01*
X016190Y001282D01*
X016165Y001224D01*
X016136Y001168D01*
X016104Y001114D01*
X016069Y001062D01*
X016031Y001013D01*
X015989Y000965D01*
X015945Y000921D01*
X015897Y000879D01*
X015848Y000841D01*
X015796Y000806D01*
X015742Y000774D01*
X015686Y000745D01*
X015628Y000720D01*
X015569Y000699D01*
X015509Y000681D01*
X015447Y000668D01*
X015385Y000658D01*
X015323Y000652D01*
X015260Y000650D01*
X015197Y000652D01*
X015135Y000658D01*
X015073Y000668D01*
X015011Y000681D01*
X014951Y000699D01*
X014892Y000720D01*
X014834Y000745D01*
X014778Y000774D01*
X014724Y000806D01*
X014672Y000841D01*
X014623Y000879D01*
X014575Y000921D01*
X014531Y000965D01*
X014489Y001013D01*
X014451Y001062D01*
X014416Y001114D01*
X014384Y001168D01*
X014355Y001224D01*
X014330Y001282D01*
X014309Y001341D01*
X014291Y001401D01*
X014278Y001463D01*
X014268Y001525D01*
X014262Y001587D01*
X014260Y001650D01*
X014710Y002050D02*
X014710Y002150D01*
X014710Y002250D01*
X014710Y002150D02*
X014810Y002150D01*
X014710Y002150D02*
X014610Y002150D01*
X013160Y001900D02*
X013160Y001750D01*
X013158Y001733D01*
X013154Y001716D01*
X013147Y001700D01*
X013137Y001686D01*
X013124Y001673D01*
X013110Y001663D01*
X013094Y001656D01*
X013077Y001652D01*
X013060Y001650D01*
X012460Y001650D01*
X012443Y001652D01*
X012426Y001656D01*
X012410Y001663D01*
X012396Y001673D01*
X012383Y001686D01*
X012373Y001700D01*
X012366Y001716D01*
X012362Y001733D01*
X012360Y001750D01*
X012360Y001900D01*
X012410Y001950D01*
X012410Y003350D01*
X012360Y003400D01*
X012360Y003550D01*
X012362Y003567D01*
X012366Y003584D01*
X012373Y003600D01*
X012383Y003614D01*
X012396Y003627D01*
X012410Y003637D01*
X012426Y003644D01*
X012443Y003648D01*
X012460Y003650D01*
X013060Y003650D01*
X013077Y003648D01*
X013094Y003644D01*
X013110Y003637D01*
X013124Y003627D01*
X013137Y003614D01*
X013147Y003600D01*
X013154Y003584D01*
X013158Y003567D01*
X013160Y003550D01*
X013160Y003400D01*
X013110Y003350D01*
X013110Y001950D01*
X013160Y001900D01*
X009660Y004250D02*
X009660Y004400D01*
X009610Y004450D01*
X009610Y005850D01*
X009660Y005900D01*
X009660Y006050D01*
X009658Y006067D01*
X009654Y006084D01*
X009647Y006100D01*
X009637Y006114D01*
X009624Y006127D01*
X009610Y006137D01*
X009594Y006144D01*
X009577Y006148D01*
X009560Y006150D01*
X008960Y006150D01*
X008943Y006148D01*
X008926Y006144D01*
X008910Y006137D01*
X008896Y006127D01*
X008883Y006114D01*
X008873Y006100D01*
X008866Y006084D01*
X008862Y006067D01*
X008860Y006050D01*
X008860Y005900D01*
X008910Y005850D01*
X008910Y004450D01*
X008860Y004400D01*
X008860Y004250D01*
X008862Y004233D01*
X008866Y004216D01*
X008873Y004200D01*
X008883Y004186D01*
X008896Y004173D01*
X008910Y004163D01*
X008926Y004156D01*
X008943Y004152D01*
X008960Y004150D01*
X009560Y004150D01*
X009577Y004152D01*
X009594Y004156D01*
X009610Y004163D01*
X009624Y004173D01*
X009637Y004186D01*
X009647Y004200D01*
X009654Y004216D01*
X009658Y004233D01*
X009660Y004250D01*
X008160Y004250D02*
X008160Y004400D01*
X008110Y004450D01*
X008110Y005850D01*
X008160Y005900D01*
X008160Y006050D01*
X008158Y006067D01*
X008154Y006084D01*
X008147Y006100D01*
X008137Y006114D01*
X008124Y006127D01*
X008110Y006137D01*
X008094Y006144D01*
X008077Y006148D01*
X008060Y006150D01*
X007460Y006150D01*
X007443Y006148D01*
X007426Y006144D01*
X007410Y006137D01*
X007396Y006127D01*
X007383Y006114D01*
X007373Y006100D01*
X007366Y006084D01*
X007362Y006067D01*
X007360Y006050D01*
X007360Y005900D01*
X007410Y005850D01*
X007410Y004450D01*
X007360Y004400D01*
X007360Y004250D01*
X007362Y004233D01*
X007366Y004216D01*
X007373Y004200D01*
X007383Y004186D01*
X007396Y004173D01*
X007410Y004163D01*
X007426Y004156D01*
X007443Y004152D01*
X007460Y004150D01*
X008060Y004150D01*
X008077Y004152D01*
X008094Y004156D01*
X008110Y004163D01*
X008124Y004173D01*
X008137Y004186D01*
X008147Y004200D01*
X008154Y004216D01*
X008158Y004233D01*
X008160Y004250D01*
X005260Y004400D02*
X005260Y004900D01*
X005010Y005150D01*
X005260Y005400D01*
X005260Y005900D01*
X005010Y006150D01*
X005260Y006400D01*
X005260Y006900D01*
X005010Y007150D01*
X004510Y007150D01*
X004260Y006900D01*
X004260Y006400D01*
X004510Y006150D01*
X005010Y006150D01*
X004510Y006150D02*
X004260Y005900D01*
X004260Y005400D01*
X004510Y005150D01*
X005010Y005150D01*
X004510Y005150D02*
X004260Y004900D01*
X004260Y004400D01*
X004510Y004150D01*
X005010Y004150D01*
X005260Y004400D01*
X005260Y002150D02*
X005262Y002213D01*
X005268Y002275D01*
X005278Y002337D01*
X005291Y002399D01*
X005309Y002459D01*
X005330Y002518D01*
X005355Y002576D01*
X005384Y002632D01*
X005416Y002686D01*
X005451Y002738D01*
X005489Y002787D01*
X005531Y002835D01*
X005575Y002879D01*
X005623Y002921D01*
X005672Y002959D01*
X005724Y002994D01*
X005778Y003026D01*
X005834Y003055D01*
X005892Y003080D01*
X005951Y003101D01*
X006011Y003119D01*
X006073Y003132D01*
X006135Y003142D01*
X006197Y003148D01*
X006260Y003150D01*
X006323Y003148D01*
X006385Y003142D01*
X006447Y003132D01*
X006509Y003119D01*
X006569Y003101D01*
X006628Y003080D01*
X006686Y003055D01*
X006742Y003026D01*
X006796Y002994D01*
X006848Y002959D01*
X006897Y002921D01*
X006945Y002879D01*
X006989Y002835D01*
X007031Y002787D01*
X007069Y002738D01*
X007104Y002686D01*
X007136Y002632D01*
X007165Y002576D01*
X007190Y002518D01*
X007211Y002459D01*
X007229Y002399D01*
X007242Y002337D01*
X007252Y002275D01*
X007258Y002213D01*
X007260Y002150D01*
X007258Y002087D01*
X007252Y002025D01*
X007242Y001963D01*
X007229Y001901D01*
X007211Y001841D01*
X007190Y001782D01*
X007165Y001724D01*
X007136Y001668D01*
X007104Y001614D01*
X007069Y001562D01*
X007031Y001513D01*
X006989Y001465D01*
X006945Y001421D01*
X006897Y001379D01*
X006848Y001341D01*
X006796Y001306D01*
X006742Y001274D01*
X006686Y001245D01*
X006628Y001220D01*
X006569Y001199D01*
X006509Y001181D01*
X006447Y001168D01*
X006385Y001158D01*
X006323Y001152D01*
X006260Y001150D01*
X006197Y001152D01*
X006135Y001158D01*
X006073Y001168D01*
X006011Y001181D01*
X005951Y001199D01*
X005892Y001220D01*
X005834Y001245D01*
X005778Y001274D01*
X005724Y001306D01*
X005672Y001341D01*
X005623Y001379D01*
X005575Y001421D01*
X005531Y001465D01*
X005489Y001513D01*
X005451Y001562D01*
X005416Y001614D01*
X005384Y001668D01*
X005355Y001724D01*
X005330Y001782D01*
X005309Y001841D01*
X005291Y001901D01*
X005278Y001963D01*
X005268Y002025D01*
X005262Y002087D01*
X005260Y002150D01*
X006710Y001650D02*
X006810Y001650D01*
X006810Y001550D01*
X006810Y001650D02*
X006810Y001750D01*
X006810Y001650D02*
X006910Y001650D01*
X002110Y001650D02*
X002112Y001717D01*
X002118Y001785D01*
X002128Y001852D01*
X002142Y001918D01*
X002159Y001983D01*
X002181Y002047D01*
X002206Y002110D01*
X002235Y002171D01*
X002267Y002230D01*
X002303Y002287D01*
X002342Y002342D01*
X002384Y002395D01*
X002429Y002445D01*
X002477Y002492D01*
X002528Y002537D01*
X002581Y002578D01*
X002637Y002617D01*
X002695Y002652D01*
X002755Y002683D01*
X002816Y002711D01*
X002879Y002735D01*
X002943Y002756D01*
X003009Y002772D01*
X003075Y002785D01*
X003142Y002794D01*
X003209Y002799D01*
X003277Y002800D01*
X003344Y002797D01*
X003411Y002790D01*
X003478Y002779D01*
X003544Y002764D01*
X003609Y002746D01*
X003673Y002723D01*
X003735Y002697D01*
X003796Y002668D01*
X003854Y002634D01*
X003911Y002598D01*
X003966Y002558D01*
X004018Y002515D01*
X004067Y002469D01*
X004114Y002420D01*
X004158Y002369D01*
X004198Y002315D01*
X004236Y002259D01*
X004270Y002200D01*
X004300Y002140D01*
X004327Y002078D01*
X004351Y002015D01*
X004370Y001950D01*
X004386Y001885D01*
X004398Y001818D01*
X004406Y001751D01*
X004410Y001684D01*
X004410Y001616D01*
X004406Y001549D01*
X004398Y001482D01*
X004386Y001415D01*
X004370Y001350D01*
X004351Y001285D01*
X004327Y001222D01*
X004300Y001160D01*
X004270Y001100D01*
X004236Y001041D01*
X004198Y000985D01*
X004158Y000931D01*
X004114Y000880D01*
X004067Y000831D01*
X004018Y000785D01*
X003966Y000742D01*
X003911Y000702D01*
X003854Y000666D01*
X003796Y000632D01*
X003735Y000603D01*
X003673Y000577D01*
X003609Y000554D01*
X003544Y000536D01*
X003478Y000521D01*
X003411Y000510D01*
X003344Y000503D01*
X003277Y000500D01*
X003209Y000501D01*
X003142Y000506D01*
X003075Y000515D01*
X003009Y000528D01*
X002943Y000544D01*
X002879Y000565D01*
X002816Y000589D01*
X002755Y000617D01*
X002695Y000648D01*
X002637Y000683D01*
X002581Y000722D01*
X002528Y000763D01*
X002477Y000808D01*
X002429Y000855D01*
X002384Y000905D01*
X002342Y000958D01*
X002303Y001013D01*
X002267Y001070D01*
X002235Y001129D01*
X002206Y001190D01*
X002181Y001253D01*
X002159Y001317D01*
X002142Y001382D01*
X002128Y001448D01*
X002118Y001515D01*
X002112Y001583D01*
X002110Y001650D01*
X002110Y012650D02*
X002112Y012717D01*
X002118Y012785D01*
X002128Y012852D01*
X002142Y012918D01*
X002159Y012983D01*
X002181Y013047D01*
X002206Y013110D01*
X002235Y013171D01*
X002267Y013230D01*
X002303Y013287D01*
X002342Y013342D01*
X002384Y013395D01*
X002429Y013445D01*
X002477Y013492D01*
X002528Y013537D01*
X002581Y013578D01*
X002637Y013617D01*
X002695Y013652D01*
X002755Y013683D01*
X002816Y013711D01*
X002879Y013735D01*
X002943Y013756D01*
X003009Y013772D01*
X003075Y013785D01*
X003142Y013794D01*
X003209Y013799D01*
X003277Y013800D01*
X003344Y013797D01*
X003411Y013790D01*
X003478Y013779D01*
X003544Y013764D01*
X003609Y013746D01*
X003673Y013723D01*
X003735Y013697D01*
X003796Y013668D01*
X003854Y013634D01*
X003911Y013598D01*
X003966Y013558D01*
X004018Y013515D01*
X004067Y013469D01*
X004114Y013420D01*
X004158Y013369D01*
X004198Y013315D01*
X004236Y013259D01*
X004270Y013200D01*
X004300Y013140D01*
X004327Y013078D01*
X004351Y013015D01*
X004370Y012950D01*
X004386Y012885D01*
X004398Y012818D01*
X004406Y012751D01*
X004410Y012684D01*
X004410Y012616D01*
X004406Y012549D01*
X004398Y012482D01*
X004386Y012415D01*
X004370Y012350D01*
X004351Y012285D01*
X004327Y012222D01*
X004300Y012160D01*
X004270Y012100D01*
X004236Y012041D01*
X004198Y011985D01*
X004158Y011931D01*
X004114Y011880D01*
X004067Y011831D01*
X004018Y011785D01*
X003966Y011742D01*
X003911Y011702D01*
X003854Y011666D01*
X003796Y011632D01*
X003735Y011603D01*
X003673Y011577D01*
X003609Y011554D01*
X003544Y011536D01*
X003478Y011521D01*
X003411Y011510D01*
X003344Y011503D01*
X003277Y011500D01*
X003209Y011501D01*
X003142Y011506D01*
X003075Y011515D01*
X003009Y011528D01*
X002943Y011544D01*
X002879Y011565D01*
X002816Y011589D01*
X002755Y011617D01*
X002695Y011648D01*
X002637Y011683D01*
X002581Y011722D01*
X002528Y011763D01*
X002477Y011808D01*
X002429Y011855D01*
X002384Y011905D01*
X002342Y011958D01*
X002303Y012013D01*
X002267Y012070D01*
X002235Y012129D01*
X002206Y012190D01*
X002181Y012253D01*
X002159Y012317D01*
X002142Y012382D01*
X002128Y012448D01*
X002118Y012515D01*
X002112Y012583D01*
X002110Y012650D01*
D15*
X018640Y011900D02*
X018640Y011650D01*
X018640Y011400D01*
X018890Y011400D02*
X018890Y011650D01*
X018890Y011900D01*
D16*
X016814Y007030D02*
X016697Y007030D01*
X016639Y006972D01*
X016639Y006914D01*
X016697Y006855D01*
X016872Y006855D01*
X016872Y006738D02*
X016872Y006972D01*
X016814Y007030D01*
X016513Y006972D02*
X016513Y006855D01*
X016455Y006797D01*
X016280Y006797D01*
X016396Y006797D02*
X016513Y006680D01*
X016639Y006738D02*
X016697Y006680D01*
X016814Y006680D01*
X016872Y006738D01*
X016513Y006972D02*
X016455Y007030D01*
X016280Y007030D01*
X016280Y006680D01*
X012230Y006704D02*
X012230Y006587D01*
X012171Y006529D01*
X012113Y006529D01*
X012054Y006587D01*
X012054Y006704D01*
X012113Y006763D01*
X012171Y006763D01*
X012230Y006704D01*
X012054Y006704D02*
X011996Y006763D01*
X011938Y006763D01*
X011879Y006704D01*
X011879Y006587D01*
X011938Y006529D01*
X011996Y006529D01*
X012054Y006587D01*
X012054Y006404D02*
X011938Y006404D01*
X011879Y006345D01*
X011879Y006170D01*
X012230Y006170D01*
X012113Y006170D02*
X012113Y006345D01*
X012054Y006404D01*
X012113Y006287D02*
X012230Y006404D01*
X008730Y004763D02*
X008730Y004529D01*
X008496Y004763D01*
X008438Y004763D01*
X008379Y004704D01*
X008379Y004587D01*
X008438Y004529D01*
X008438Y004404D02*
X008379Y004345D01*
X008379Y004170D01*
X008730Y004170D01*
X008613Y004170D02*
X008613Y004345D01*
X008554Y004404D01*
X008438Y004404D01*
X008613Y004287D02*
X008730Y004404D01*
X007230Y004404D02*
X007113Y004287D01*
X007113Y004345D02*
X007113Y004170D01*
X007230Y004170D02*
X006879Y004170D01*
X006879Y004345D01*
X006938Y004404D01*
X007054Y004404D01*
X007113Y004345D01*
X007230Y004529D02*
X007230Y004763D01*
X007230Y004646D02*
X006879Y004646D01*
X006996Y004529D01*
X013289Y003486D02*
X013348Y003544D01*
X013406Y003544D01*
X013464Y003486D01*
X013523Y003544D01*
X013581Y003544D01*
X013640Y003486D01*
X013640Y003369D01*
X013581Y003311D01*
X013640Y003185D02*
X013523Y003069D01*
X013523Y003127D02*
X013523Y002952D01*
X013640Y002952D02*
X013289Y002952D01*
X013289Y003127D01*
X013348Y003185D01*
X013464Y003185D01*
X013523Y003127D01*
X013348Y003311D02*
X013289Y003369D01*
X013289Y003486D01*
X013464Y003486D02*
X013464Y003428D01*
X016879Y002704D02*
X017054Y002529D01*
X017054Y002763D01*
X016879Y002704D02*
X017230Y002704D01*
X017230Y002404D02*
X017113Y002287D01*
X017113Y002345D02*
X017113Y002170D01*
X017230Y002170D02*
X016879Y002170D01*
X016879Y002345D01*
X016938Y002404D01*
X017054Y002404D01*
X017113Y002345D01*
X008730Y011170D02*
X008379Y011170D01*
X008379Y011345D01*
X008438Y011404D01*
X008554Y011404D01*
X008613Y011345D01*
X008613Y011170D01*
X008613Y011287D02*
X008730Y011404D01*
X008730Y011529D02*
X008671Y011529D01*
X008438Y011763D01*
X008379Y011763D01*
X008379Y011529D01*
X006230Y011587D02*
X006230Y011704D01*
X006171Y011763D01*
X006113Y011763D01*
X006054Y011704D01*
X006054Y011529D01*
X006171Y011529D01*
X006230Y011587D01*
X006230Y011404D02*
X006113Y011287D01*
X006113Y011345D02*
X006113Y011170D01*
X006230Y011170D02*
X005879Y011170D01*
X005879Y011345D01*
X005938Y011404D01*
X006054Y011404D01*
X006113Y011345D01*
X006054Y011529D02*
X005938Y011646D01*
X005879Y011763D01*
X010780Y013180D02*
X010780Y013530D01*
X010955Y013530D01*
X011013Y013472D01*
X011013Y013355D01*
X010955Y013297D01*
X010780Y013297D01*
X010896Y013297D02*
X011013Y013180D01*
X011139Y013238D02*
X011197Y013180D01*
X011314Y013180D01*
X011372Y013238D01*
X011372Y013355D01*
X011314Y013414D01*
X011255Y013414D01*
X011139Y013355D01*
X011139Y013530D01*
X011372Y013530D01*
D17*
X007760Y012225D03*
X006760Y012225D03*
X006760Y010075D03*
X007760Y010075D03*
X012760Y008225D03*
X012760Y006075D03*
X012760Y003725D03*
X012760Y001575D03*
X009260Y004075D03*
X007760Y004075D03*
X007760Y006225D03*
X009260Y006225D03*
X017760Y004225D03*
X017760Y002075D03*
D18*
X018335Y006150D03*
X016185Y006150D03*
X012835Y012650D03*
X010685Y012650D03*
D19*
X003260Y011600D02*
X003260Y011500D01*
X003260Y013700D02*
X003260Y013800D01*
X003260Y002800D02*
X003260Y002700D01*
X003260Y000600D02*
X003260Y000500D01*
X021760Y000600D02*
X021760Y000500D01*
X021760Y002700D02*
X021760Y002800D01*
X021760Y011500D02*
X021760Y011600D01*
X021760Y013700D02*
X021760Y013800D01*
D20*
X021169Y012650D02*
X021171Y012698D01*
X021177Y012746D01*
X021187Y012793D01*
X021200Y012839D01*
X021218Y012884D01*
X021238Y012928D01*
X021263Y012970D01*
X021291Y013009D01*
X021321Y013046D01*
X021355Y013080D01*
X021392Y013112D01*
X021430Y013141D01*
X021471Y013166D01*
X021514Y013188D01*
X021559Y013206D01*
X021605Y013220D01*
X021652Y013231D01*
X021700Y013238D01*
X021748Y013241D01*
X021796Y013240D01*
X021844Y013235D01*
X021892Y013226D01*
X021938Y013214D01*
X021983Y013197D01*
X022027Y013177D01*
X022069Y013154D01*
X022109Y013127D01*
X022147Y013097D01*
X022182Y013064D01*
X022214Y013028D01*
X022244Y012990D01*
X022270Y012949D01*
X022292Y012906D01*
X022312Y012862D01*
X022327Y012817D01*
X022339Y012770D01*
X022347Y012722D01*
X022351Y012674D01*
X022351Y012626D01*
X022347Y012578D01*
X022339Y012530D01*
X022327Y012483D01*
X022312Y012438D01*
X022292Y012394D01*
X022270Y012351D01*
X022244Y012310D01*
X022214Y012272D01*
X022182Y012236D01*
X022147Y012203D01*
X022109Y012173D01*
X022069Y012146D01*
X022027Y012123D01*
X021983Y012103D01*
X021938Y012086D01*
X021892Y012074D01*
X021844Y012065D01*
X021796Y012060D01*
X021748Y012059D01*
X021700Y012062D01*
X021652Y012069D01*
X021605Y012080D01*
X021559Y012094D01*
X021514Y012112D01*
X021471Y012134D01*
X021430Y012159D01*
X021392Y012188D01*
X021355Y012220D01*
X021321Y012254D01*
X021291Y012291D01*
X021263Y012330D01*
X021238Y012372D01*
X021218Y012416D01*
X021200Y012461D01*
X021187Y012507D01*
X021177Y012554D01*
X021171Y012602D01*
X021169Y012650D01*
X021169Y001650D02*
X021171Y001698D01*
X021177Y001746D01*
X021187Y001793D01*
X021200Y001839D01*
X021218Y001884D01*
X021238Y001928D01*
X021263Y001970D01*
X021291Y002009D01*
X021321Y002046D01*
X021355Y002080D01*
X021392Y002112D01*
X021430Y002141D01*
X021471Y002166D01*
X021514Y002188D01*
X021559Y002206D01*
X021605Y002220D01*
X021652Y002231D01*
X021700Y002238D01*
X021748Y002241D01*
X021796Y002240D01*
X021844Y002235D01*
X021892Y002226D01*
X021938Y002214D01*
X021983Y002197D01*
X022027Y002177D01*
X022069Y002154D01*
X022109Y002127D01*
X022147Y002097D01*
X022182Y002064D01*
X022214Y002028D01*
X022244Y001990D01*
X022270Y001949D01*
X022292Y001906D01*
X022312Y001862D01*
X022327Y001817D01*
X022339Y001770D01*
X022347Y001722D01*
X022351Y001674D01*
X022351Y001626D01*
X022347Y001578D01*
X022339Y001530D01*
X022327Y001483D01*
X022312Y001438D01*
X022292Y001394D01*
X022270Y001351D01*
X022244Y001310D01*
X022214Y001272D01*
X022182Y001236D01*
X022147Y001203D01*
X022109Y001173D01*
X022069Y001146D01*
X022027Y001123D01*
X021983Y001103D01*
X021938Y001086D01*
X021892Y001074D01*
X021844Y001065D01*
X021796Y001060D01*
X021748Y001059D01*
X021700Y001062D01*
X021652Y001069D01*
X021605Y001080D01*
X021559Y001094D01*
X021514Y001112D01*
X021471Y001134D01*
X021430Y001159D01*
X021392Y001188D01*
X021355Y001220D01*
X021321Y001254D01*
X021291Y001291D01*
X021263Y001330D01*
X021238Y001372D01*
X021218Y001416D01*
X021200Y001461D01*
X021187Y001507D01*
X021177Y001554D01*
X021171Y001602D01*
X021169Y001650D01*
X002669Y001650D02*
X002671Y001698D01*
X002677Y001746D01*
X002687Y001793D01*
X002700Y001839D01*
X002718Y001884D01*
X002738Y001928D01*
X002763Y001970D01*
X002791Y002009D01*
X002821Y002046D01*
X002855Y002080D01*
X002892Y002112D01*
X002930Y002141D01*
X002971Y002166D01*
X003014Y002188D01*
X003059Y002206D01*
X003105Y002220D01*
X003152Y002231D01*
X003200Y002238D01*
X003248Y002241D01*
X003296Y002240D01*
X003344Y002235D01*
X003392Y002226D01*
X003438Y002214D01*
X003483Y002197D01*
X003527Y002177D01*
X003569Y002154D01*
X003609Y002127D01*
X003647Y002097D01*
X003682Y002064D01*
X003714Y002028D01*
X003744Y001990D01*
X003770Y001949D01*
X003792Y001906D01*
X003812Y001862D01*
X003827Y001817D01*
X003839Y001770D01*
X003847Y001722D01*
X003851Y001674D01*
X003851Y001626D01*
X003847Y001578D01*
X003839Y001530D01*
X003827Y001483D01*
X003812Y001438D01*
X003792Y001394D01*
X003770Y001351D01*
X003744Y001310D01*
X003714Y001272D01*
X003682Y001236D01*
X003647Y001203D01*
X003609Y001173D01*
X003569Y001146D01*
X003527Y001123D01*
X003483Y001103D01*
X003438Y001086D01*
X003392Y001074D01*
X003344Y001065D01*
X003296Y001060D01*
X003248Y001059D01*
X003200Y001062D01*
X003152Y001069D01*
X003105Y001080D01*
X003059Y001094D01*
X003014Y001112D01*
X002971Y001134D01*
X002930Y001159D01*
X002892Y001188D01*
X002855Y001220D01*
X002821Y001254D01*
X002791Y001291D01*
X002763Y001330D01*
X002738Y001372D01*
X002718Y001416D01*
X002700Y001461D01*
X002687Y001507D01*
X002677Y001554D01*
X002671Y001602D01*
X002669Y001650D01*
X002669Y012650D02*
X002671Y012698D01*
X002677Y012746D01*
X002687Y012793D01*
X002700Y012839D01*
X002718Y012884D01*
X002738Y012928D01*
X002763Y012970D01*
X002791Y013009D01*
X002821Y013046D01*
X002855Y013080D01*
X002892Y013112D01*
X002930Y013141D01*
X002971Y013166D01*
X003014Y013188D01*
X003059Y013206D01*
X003105Y013220D01*
X003152Y013231D01*
X003200Y013238D01*
X003248Y013241D01*
X003296Y013240D01*
X003344Y013235D01*
X003392Y013226D01*
X003438Y013214D01*
X003483Y013197D01*
X003527Y013177D01*
X003569Y013154D01*
X003609Y013127D01*
X003647Y013097D01*
X003682Y013064D01*
X003714Y013028D01*
X003744Y012990D01*
X003770Y012949D01*
X003792Y012906D01*
X003812Y012862D01*
X003827Y012817D01*
X003839Y012770D01*
X003847Y012722D01*
X003851Y012674D01*
X003851Y012626D01*
X003847Y012578D01*
X003839Y012530D01*
X003827Y012483D01*
X003812Y012438D01*
X003792Y012394D01*
X003770Y012351D01*
X003744Y012310D01*
X003714Y012272D01*
X003682Y012236D01*
X003647Y012203D01*
X003609Y012173D01*
X003569Y012146D01*
X003527Y012123D01*
X003483Y012103D01*
X003438Y012086D01*
X003392Y012074D01*
X003344Y012065D01*
X003296Y012060D01*
X003248Y012059D01*
X003200Y012062D01*
X003152Y012069D01*
X003105Y012080D01*
X003059Y012094D01*
X003014Y012112D01*
X002971Y012134D01*
X002930Y012159D01*
X002892Y012188D01*
X002855Y012220D01*
X002821Y012254D01*
X002791Y012291D01*
X002763Y012330D01*
X002738Y012372D01*
X002718Y012416D01*
X002700Y012461D01*
X002687Y012507D01*
X002677Y012554D01*
X002671Y012602D01*
X002669Y012650D01*
M02*
