%
M48
M72
T01C0.0160
T02C0.0160
T03C0.0160
T04C0.0160
%
T01
X9260Y7650
X9260Y10650
T02
X10760Y9650
X10760Y8650
X10760Y7650
X9260Y6650
X7760Y6650
X7760Y3650
X9260Y3650
X10760Y3150
X10760Y2150
X10760Y1150
X12760Y1150
X14760Y1650
X15760Y1650
X17760Y1650
X17760Y4650
X18760Y6150
X15760Y6150
X12760Y5650
X12760Y4150
X6760Y2150
X5760Y2150
X12760Y8650
X14760Y8650
X15760Y8650
X18560Y9150
X19960Y9150
X19760Y11650
X17760Y11650
X13260Y12650
X10260Y12650
X7760Y12650
X6760Y12650
X6760Y9650
X5760Y9650
X4760Y9650
X7760Y9650
T03
X4760Y6650
X4760Y5650
X4760Y4650
X14760Y12650
X15760Y12650
X20260Y4650
X20260Y3650
T04
X3260Y1650
X3260Y12650
X21760Y12650
X21760Y1650
M30
