G75*
G70*
%OFA0B0*%
%FSLAX24Y24*%
%IPPOS*%
%LPD*%
%AMOC8*
5,1,8,0,0,1.08239X$1,22.5*
%
%ADD10C,0.0100*%
%ADD11C,0.0080*%
%ADD12C,0.0060*%
%ADD13C,0.0110*%
%ADD14C,0.0051*%
%ADD15C,0.0050*%
%ADD16C,0.0010*%
%ADD17C,0.0000*%
D10*
X008333Y000150D02*
X008333Y021646D01*
X028703Y021646D01*
X028703Y000150D01*
X008333Y000150D01*
D11*
X010242Y002650D02*
X010244Y002698D01*
X010250Y002746D01*
X010260Y002793D01*
X010273Y002839D01*
X010291Y002884D01*
X010311Y002928D01*
X010336Y002970D01*
X010364Y003009D01*
X010394Y003046D01*
X010428Y003080D01*
X010465Y003112D01*
X010503Y003141D01*
X010544Y003166D01*
X010587Y003188D01*
X010632Y003206D01*
X010678Y003220D01*
X010725Y003231D01*
X010773Y003238D01*
X010821Y003241D01*
X010869Y003240D01*
X010917Y003235D01*
X010965Y003226D01*
X011011Y003214D01*
X011056Y003197D01*
X011100Y003177D01*
X011142Y003154D01*
X011182Y003127D01*
X011220Y003097D01*
X011255Y003064D01*
X011287Y003028D01*
X011317Y002990D01*
X011343Y002949D01*
X011365Y002906D01*
X011385Y002862D01*
X011400Y002817D01*
X011412Y002770D01*
X011420Y002722D01*
X011424Y002674D01*
X011424Y002626D01*
X011420Y002578D01*
X011412Y002530D01*
X011400Y002483D01*
X011385Y002438D01*
X011365Y002394D01*
X011343Y002351D01*
X011317Y002310D01*
X011287Y002272D01*
X011255Y002236D01*
X011220Y002203D01*
X011182Y002173D01*
X011142Y002146D01*
X011100Y002123D01*
X011056Y002103D01*
X011011Y002086D01*
X010965Y002074D01*
X010917Y002065D01*
X010869Y002060D01*
X010821Y002059D01*
X010773Y002062D01*
X010725Y002069D01*
X010678Y002080D01*
X010632Y002094D01*
X010587Y002112D01*
X010544Y002134D01*
X010503Y002159D01*
X010465Y002188D01*
X010428Y002220D01*
X010394Y002254D01*
X010364Y002291D01*
X010336Y002330D01*
X010311Y002372D01*
X010291Y002416D01*
X010273Y002461D01*
X010260Y002507D01*
X010250Y002554D01*
X010244Y002602D01*
X010242Y002650D01*
X015093Y005178D02*
X015093Y006122D01*
X017573Y006122D01*
X017573Y005178D01*
X015093Y005178D01*
X013306Y006410D02*
X012361Y006410D01*
X012361Y008890D01*
X013306Y008890D01*
X013306Y006410D01*
X015093Y007178D02*
X017573Y007178D01*
X017573Y008122D01*
X015093Y008122D01*
X015093Y007178D01*
X011083Y006650D02*
X010583Y006650D01*
X009793Y009190D02*
X009373Y009190D01*
X009793Y009190D02*
X009793Y009470D01*
X009723Y010111D02*
X009443Y010111D01*
X009373Y010181D01*
X009373Y010321D01*
X009443Y010391D01*
X009583Y010391D02*
X009583Y010251D01*
X009583Y010391D02*
X009723Y010391D01*
X009793Y010321D01*
X009793Y010181D01*
X009723Y010111D01*
X009793Y010571D02*
X009373Y010571D01*
X009793Y010851D01*
X009373Y010851D01*
X009373Y011032D02*
X009373Y011242D01*
X009443Y011312D01*
X009723Y011312D01*
X009793Y011242D01*
X009793Y011032D01*
X009373Y011032D01*
X009373Y011952D02*
X009373Y012163D01*
X009443Y012233D01*
X009583Y012233D01*
X009653Y012163D01*
X009653Y011952D01*
X009793Y011952D02*
X009373Y011952D01*
X009653Y012092D02*
X009793Y012233D01*
X012361Y012410D02*
X012361Y014890D01*
X013306Y014890D01*
X013306Y012410D01*
X012361Y012410D01*
X011083Y014650D02*
X010583Y014650D01*
X016093Y014622D02*
X016093Y013678D01*
X018573Y013678D01*
X018573Y014622D01*
X016093Y014622D01*
X016093Y015678D02*
X016093Y016622D01*
X018573Y016622D01*
X018573Y015678D01*
X016093Y015678D01*
X018333Y017400D02*
X018333Y017900D01*
X023053Y016150D02*
X023055Y016221D01*
X023061Y016292D01*
X023071Y016363D01*
X023085Y016432D01*
X023102Y016501D01*
X023124Y016569D01*
X023149Y016636D01*
X023178Y016701D01*
X023210Y016764D01*
X023246Y016826D01*
X023285Y016885D01*
X023328Y016942D01*
X023373Y016997D01*
X023422Y017049D01*
X023473Y017098D01*
X023527Y017144D01*
X023584Y017188D01*
X023642Y017228D01*
X023703Y017264D01*
X023766Y017298D01*
X023831Y017327D01*
X023897Y017353D01*
X023965Y017376D01*
X024033Y017394D01*
X024103Y017409D01*
X024173Y017420D01*
X024244Y017427D01*
X024315Y017430D01*
X024386Y017429D01*
X024457Y017424D01*
X024528Y017415D01*
X024598Y017402D01*
X024667Y017386D01*
X024735Y017365D01*
X024802Y017341D01*
X024868Y017313D01*
X024931Y017281D01*
X024993Y017246D01*
X025053Y017208D01*
X025111Y017166D01*
X025166Y017122D01*
X025219Y017074D01*
X025269Y017023D01*
X025316Y016970D01*
X025360Y016914D01*
X025401Y016856D01*
X025439Y016795D01*
X025473Y016733D01*
X025503Y016668D01*
X025530Y016603D01*
X025554Y016535D01*
X025573Y016467D01*
X025589Y016398D01*
X025601Y016327D01*
X025609Y016257D01*
X025613Y016186D01*
X025613Y016114D01*
X025609Y016043D01*
X025601Y015973D01*
X025589Y015902D01*
X025573Y015833D01*
X025554Y015765D01*
X025530Y015697D01*
X025503Y015632D01*
X025473Y015567D01*
X025439Y015505D01*
X025401Y015444D01*
X025360Y015386D01*
X025316Y015330D01*
X025269Y015277D01*
X025219Y015226D01*
X025166Y015178D01*
X025111Y015134D01*
X025053Y015092D01*
X024993Y015054D01*
X024931Y015019D01*
X024868Y014987D01*
X024802Y014959D01*
X024735Y014935D01*
X024667Y014914D01*
X024598Y014898D01*
X024528Y014885D01*
X024457Y014876D01*
X024386Y014871D01*
X024315Y014870D01*
X024244Y014873D01*
X024173Y014880D01*
X024103Y014891D01*
X024033Y014906D01*
X023965Y014924D01*
X023897Y014947D01*
X023831Y014973D01*
X023766Y015002D01*
X023703Y015036D01*
X023642Y015072D01*
X023584Y015112D01*
X023527Y015156D01*
X023473Y015202D01*
X023422Y015251D01*
X023373Y015303D01*
X023328Y015358D01*
X023285Y015415D01*
X023246Y015474D01*
X023210Y015536D01*
X023178Y015599D01*
X023149Y015664D01*
X023124Y015731D01*
X023102Y015799D01*
X023085Y015868D01*
X023071Y015937D01*
X023061Y016008D01*
X023055Y016079D01*
X023053Y016150D01*
X024833Y016400D02*
X024833Y016900D01*
X025742Y019150D02*
X025744Y019198D01*
X025750Y019246D01*
X025760Y019293D01*
X025773Y019339D01*
X025791Y019384D01*
X025811Y019428D01*
X025836Y019470D01*
X025864Y019509D01*
X025894Y019546D01*
X025928Y019580D01*
X025965Y019612D01*
X026003Y019641D01*
X026044Y019666D01*
X026087Y019688D01*
X026132Y019706D01*
X026178Y019720D01*
X026225Y019731D01*
X026273Y019738D01*
X026321Y019741D01*
X026369Y019740D01*
X026417Y019735D01*
X026465Y019726D01*
X026511Y019714D01*
X026556Y019697D01*
X026600Y019677D01*
X026642Y019654D01*
X026682Y019627D01*
X026720Y019597D01*
X026755Y019564D01*
X026787Y019528D01*
X026817Y019490D01*
X026843Y019449D01*
X026865Y019406D01*
X026885Y019362D01*
X026900Y019317D01*
X026912Y019270D01*
X026920Y019222D01*
X026924Y019174D01*
X026924Y019126D01*
X026920Y019078D01*
X026912Y019030D01*
X026900Y018983D01*
X026885Y018938D01*
X026865Y018894D01*
X026843Y018851D01*
X026817Y018810D01*
X026787Y018772D01*
X026755Y018736D01*
X026720Y018703D01*
X026682Y018673D01*
X026642Y018646D01*
X026600Y018623D01*
X026556Y018603D01*
X026511Y018586D01*
X026465Y018574D01*
X026417Y018565D01*
X026369Y018560D01*
X026321Y018559D01*
X026273Y018562D01*
X026225Y018569D01*
X026178Y018580D01*
X026132Y018594D01*
X026087Y018612D01*
X026044Y018634D01*
X026003Y018659D01*
X025965Y018688D01*
X025928Y018720D01*
X025894Y018754D01*
X025864Y018791D01*
X025836Y018830D01*
X025811Y018872D01*
X025791Y018916D01*
X025773Y018961D01*
X025760Y019007D01*
X025750Y019054D01*
X025744Y019102D01*
X025742Y019150D01*
X027583Y014733D02*
X027583Y014452D01*
X027443Y014592D02*
X027723Y014592D01*
X027723Y013812D02*
X027443Y013812D01*
X027373Y013742D01*
X027373Y013532D01*
X027793Y013532D01*
X027793Y013742D01*
X027723Y013812D01*
X027793Y013351D02*
X027373Y013351D01*
X027373Y013071D02*
X027793Y013351D01*
X027793Y013071D02*
X027373Y013071D01*
X027443Y012891D02*
X027373Y012821D01*
X027373Y012681D01*
X027443Y012611D01*
X027723Y012611D01*
X027793Y012681D01*
X027793Y012821D01*
X027723Y012891D01*
X027583Y012891D01*
X027583Y012751D01*
X027583Y011970D02*
X027583Y011690D01*
X023053Y010150D02*
X023055Y010221D01*
X023061Y010292D01*
X023071Y010363D01*
X023085Y010432D01*
X023102Y010501D01*
X023124Y010569D01*
X023149Y010636D01*
X023178Y010701D01*
X023210Y010764D01*
X023246Y010826D01*
X023285Y010885D01*
X023328Y010942D01*
X023373Y010997D01*
X023422Y011049D01*
X023473Y011098D01*
X023527Y011144D01*
X023584Y011188D01*
X023642Y011228D01*
X023703Y011264D01*
X023766Y011298D01*
X023831Y011327D01*
X023897Y011353D01*
X023965Y011376D01*
X024033Y011394D01*
X024103Y011409D01*
X024173Y011420D01*
X024244Y011427D01*
X024315Y011430D01*
X024386Y011429D01*
X024457Y011424D01*
X024528Y011415D01*
X024598Y011402D01*
X024667Y011386D01*
X024735Y011365D01*
X024802Y011341D01*
X024868Y011313D01*
X024931Y011281D01*
X024993Y011246D01*
X025053Y011208D01*
X025111Y011166D01*
X025166Y011122D01*
X025219Y011074D01*
X025269Y011023D01*
X025316Y010970D01*
X025360Y010914D01*
X025401Y010856D01*
X025439Y010795D01*
X025473Y010733D01*
X025503Y010668D01*
X025530Y010603D01*
X025554Y010535D01*
X025573Y010467D01*
X025589Y010398D01*
X025601Y010327D01*
X025609Y010257D01*
X025613Y010186D01*
X025613Y010114D01*
X025609Y010043D01*
X025601Y009973D01*
X025589Y009902D01*
X025573Y009833D01*
X025554Y009765D01*
X025530Y009697D01*
X025503Y009632D01*
X025473Y009567D01*
X025439Y009505D01*
X025401Y009444D01*
X025360Y009386D01*
X025316Y009330D01*
X025269Y009277D01*
X025219Y009226D01*
X025166Y009178D01*
X025111Y009134D01*
X025053Y009092D01*
X024993Y009054D01*
X024931Y009019D01*
X024868Y008987D01*
X024802Y008959D01*
X024735Y008935D01*
X024667Y008914D01*
X024598Y008898D01*
X024528Y008885D01*
X024457Y008876D01*
X024386Y008871D01*
X024315Y008870D01*
X024244Y008873D01*
X024173Y008880D01*
X024103Y008891D01*
X024033Y008906D01*
X023965Y008924D01*
X023897Y008947D01*
X023831Y008973D01*
X023766Y009002D01*
X023703Y009036D01*
X023642Y009072D01*
X023584Y009112D01*
X023527Y009156D01*
X023473Y009202D01*
X023422Y009251D01*
X023373Y009303D01*
X023328Y009358D01*
X023285Y009415D01*
X023246Y009474D01*
X023210Y009536D01*
X023178Y009599D01*
X023149Y009664D01*
X023124Y009731D01*
X023102Y009799D01*
X023085Y009868D01*
X023071Y009937D01*
X023061Y010008D01*
X023055Y010079D01*
X023053Y010150D01*
X023833Y009900D02*
X023833Y009400D01*
X022306Y008910D02*
X021361Y008910D01*
X021361Y011390D01*
X022306Y011390D01*
X022306Y008910D01*
X022306Y006390D02*
X021361Y006390D01*
X021361Y003910D01*
X022306Y003910D01*
X022306Y006390D01*
X017333Y004400D02*
X017333Y003900D01*
X025742Y002650D02*
X025744Y002698D01*
X025750Y002746D01*
X025760Y002793D01*
X025773Y002839D01*
X025791Y002884D01*
X025811Y002928D01*
X025836Y002970D01*
X025864Y003009D01*
X025894Y003046D01*
X025928Y003080D01*
X025965Y003112D01*
X026003Y003141D01*
X026044Y003166D01*
X026087Y003188D01*
X026132Y003206D01*
X026178Y003220D01*
X026225Y003231D01*
X026273Y003238D01*
X026321Y003241D01*
X026369Y003240D01*
X026417Y003235D01*
X026465Y003226D01*
X026511Y003214D01*
X026556Y003197D01*
X026600Y003177D01*
X026642Y003154D01*
X026682Y003127D01*
X026720Y003097D01*
X026755Y003064D01*
X026787Y003028D01*
X026817Y002990D01*
X026843Y002949D01*
X026865Y002906D01*
X026885Y002862D01*
X026900Y002817D01*
X026912Y002770D01*
X026920Y002722D01*
X026924Y002674D01*
X026924Y002626D01*
X026920Y002578D01*
X026912Y002530D01*
X026900Y002483D01*
X026885Y002438D01*
X026865Y002394D01*
X026843Y002351D01*
X026817Y002310D01*
X026787Y002272D01*
X026755Y002236D01*
X026720Y002203D01*
X026682Y002173D01*
X026642Y002146D01*
X026600Y002123D01*
X026556Y002103D01*
X026511Y002086D01*
X026465Y002074D01*
X026417Y002065D01*
X026369Y002060D01*
X026321Y002059D01*
X026273Y002062D01*
X026225Y002069D01*
X026178Y002080D01*
X026132Y002094D01*
X026087Y002112D01*
X026044Y002134D01*
X026003Y002159D01*
X025965Y002188D01*
X025928Y002220D01*
X025894Y002254D01*
X025864Y002291D01*
X025836Y002330D01*
X025811Y002372D01*
X025791Y002416D01*
X025773Y002461D01*
X025760Y002507D01*
X025750Y002554D01*
X025744Y002602D01*
X025742Y002650D01*
X010242Y019150D02*
X010244Y019198D01*
X010250Y019246D01*
X010260Y019293D01*
X010273Y019339D01*
X010291Y019384D01*
X010311Y019428D01*
X010336Y019470D01*
X010364Y019509D01*
X010394Y019546D01*
X010428Y019580D01*
X010465Y019612D01*
X010503Y019641D01*
X010544Y019666D01*
X010587Y019688D01*
X010632Y019706D01*
X010678Y019720D01*
X010725Y019731D01*
X010773Y019738D01*
X010821Y019741D01*
X010869Y019740D01*
X010917Y019735D01*
X010965Y019726D01*
X011011Y019714D01*
X011056Y019697D01*
X011100Y019677D01*
X011142Y019654D01*
X011182Y019627D01*
X011220Y019597D01*
X011255Y019564D01*
X011287Y019528D01*
X011317Y019490D01*
X011343Y019449D01*
X011365Y019406D01*
X011385Y019362D01*
X011400Y019317D01*
X011412Y019270D01*
X011420Y019222D01*
X011424Y019174D01*
X011424Y019126D01*
X011420Y019078D01*
X011412Y019030D01*
X011400Y018983D01*
X011385Y018938D01*
X011365Y018894D01*
X011343Y018851D01*
X011317Y018810D01*
X011287Y018772D01*
X011255Y018736D01*
X011220Y018703D01*
X011182Y018673D01*
X011142Y018646D01*
X011100Y018623D01*
X011056Y018603D01*
X011011Y018586D01*
X010965Y018574D01*
X010917Y018565D01*
X010869Y018560D01*
X010821Y018559D01*
X010773Y018562D01*
X010725Y018569D01*
X010678Y018580D01*
X010632Y018594D01*
X010587Y018612D01*
X010544Y018634D01*
X010503Y018659D01*
X010465Y018688D01*
X010428Y018720D01*
X010394Y018754D01*
X010364Y018791D01*
X010336Y018830D01*
X010311Y018872D01*
X010291Y018916D01*
X010273Y018961D01*
X010260Y019007D01*
X010250Y019054D01*
X010244Y019102D01*
X010242Y019150D01*
D12*
X009683Y019150D02*
X009685Y019217D01*
X009691Y019285D01*
X009701Y019352D01*
X009715Y019418D01*
X009732Y019483D01*
X009754Y019547D01*
X009779Y019610D01*
X009808Y019671D01*
X009840Y019730D01*
X009876Y019787D01*
X009915Y019842D01*
X009957Y019895D01*
X010002Y019945D01*
X010050Y019992D01*
X010101Y020037D01*
X010154Y020078D01*
X010210Y020117D01*
X010268Y020152D01*
X010328Y020183D01*
X010389Y020211D01*
X010452Y020235D01*
X010516Y020256D01*
X010582Y020272D01*
X010648Y020285D01*
X010715Y020294D01*
X010782Y020299D01*
X010850Y020300D01*
X010917Y020297D01*
X010984Y020290D01*
X011051Y020279D01*
X011117Y020264D01*
X011182Y020246D01*
X011246Y020223D01*
X011308Y020197D01*
X011369Y020168D01*
X011427Y020134D01*
X011484Y020098D01*
X011539Y020058D01*
X011591Y020015D01*
X011640Y019969D01*
X011687Y019920D01*
X011731Y019869D01*
X011771Y019815D01*
X011809Y019759D01*
X011843Y019700D01*
X011873Y019640D01*
X011900Y019578D01*
X011924Y019515D01*
X011943Y019450D01*
X011959Y019385D01*
X011971Y019318D01*
X011979Y019251D01*
X011983Y019184D01*
X011983Y019116D01*
X011979Y019049D01*
X011971Y018982D01*
X011959Y018915D01*
X011943Y018850D01*
X011924Y018785D01*
X011900Y018722D01*
X011873Y018660D01*
X011843Y018600D01*
X011809Y018541D01*
X011771Y018485D01*
X011731Y018431D01*
X011687Y018380D01*
X011640Y018331D01*
X011591Y018285D01*
X011539Y018242D01*
X011484Y018202D01*
X011427Y018166D01*
X011369Y018132D01*
X011308Y018103D01*
X011246Y018077D01*
X011182Y018054D01*
X011117Y018036D01*
X011051Y018021D01*
X010984Y018010D01*
X010917Y018003D01*
X010850Y018000D01*
X010782Y018001D01*
X010715Y018006D01*
X010648Y018015D01*
X010582Y018028D01*
X010516Y018044D01*
X010452Y018065D01*
X010389Y018089D01*
X010328Y018117D01*
X010268Y018148D01*
X010210Y018183D01*
X010154Y018222D01*
X010101Y018263D01*
X010050Y018308D01*
X010002Y018355D01*
X009957Y018405D01*
X009915Y018458D01*
X009876Y018513D01*
X009840Y018570D01*
X009808Y018629D01*
X009779Y018690D01*
X009754Y018753D01*
X009732Y018817D01*
X009715Y018882D01*
X009701Y018948D01*
X009691Y019015D01*
X009685Y019083D01*
X009683Y019150D01*
X009609Y013520D02*
X009836Y013180D01*
X009836Y013520D01*
X009609Y013520D02*
X009609Y013180D01*
X009477Y013180D02*
X009363Y013180D01*
X009420Y013180D02*
X009420Y013520D01*
X009363Y013520D02*
X009477Y013520D01*
X010583Y012150D02*
X010333Y011900D01*
X010333Y011400D01*
X010583Y011150D01*
X010333Y010900D01*
X010333Y010400D01*
X010583Y010150D01*
X010333Y009900D01*
X010333Y009400D01*
X010583Y009150D01*
X011083Y009150D01*
X011333Y009400D01*
X011333Y009900D01*
X011083Y010150D01*
X010583Y010150D01*
X011083Y010150D02*
X011333Y010400D01*
X011333Y010900D01*
X011083Y011150D01*
X010583Y011150D01*
X011083Y011150D02*
X011333Y011400D01*
X011333Y011900D01*
X011083Y012150D01*
X010583Y012150D01*
X016833Y011800D02*
X016833Y011050D01*
X016872Y011048D01*
X016911Y011042D01*
X016949Y011033D01*
X016986Y011020D01*
X017022Y011003D01*
X017055Y010983D01*
X017087Y010959D01*
X017116Y010933D01*
X017142Y010904D01*
X017166Y010872D01*
X017186Y010839D01*
X017203Y010803D01*
X017216Y010766D01*
X017225Y010728D01*
X017231Y010689D01*
X017233Y010650D01*
X017231Y010611D01*
X017225Y010572D01*
X017216Y010534D01*
X017203Y010497D01*
X017186Y010461D01*
X017166Y010428D01*
X017142Y010396D01*
X017116Y010367D01*
X017087Y010341D01*
X017055Y010317D01*
X017022Y010297D01*
X016986Y010280D01*
X016949Y010267D01*
X016911Y010258D01*
X016872Y010252D01*
X016833Y010250D01*
X016833Y009500D01*
X020833Y009500D01*
X020833Y011800D01*
X016833Y011800D01*
X025833Y011900D02*
X026083Y011650D01*
X026583Y011650D01*
X026833Y011900D01*
X026833Y012400D01*
X026583Y012650D01*
X026083Y012650D01*
X025833Y012400D01*
X025833Y011900D01*
X026083Y012650D02*
X025833Y012900D01*
X025833Y013400D01*
X026083Y013650D01*
X025833Y013900D01*
X025833Y014400D01*
X026083Y014650D01*
X026583Y014650D01*
X026833Y014400D01*
X026833Y013900D01*
X026583Y013650D01*
X026833Y013400D01*
X026833Y012900D01*
X026583Y012650D01*
X026583Y013650D02*
X026083Y013650D01*
X026863Y015680D02*
X026863Y016020D01*
X027033Y016020D01*
X027090Y015964D01*
X027090Y015850D01*
X027033Y015793D01*
X026863Y015793D01*
X027232Y015680D02*
X027232Y016020D01*
X027459Y016020D02*
X027459Y015680D01*
X027345Y015793D01*
X027232Y015680D01*
X027600Y015680D02*
X027600Y016020D01*
X027770Y016020D01*
X027827Y015964D01*
X027827Y015850D01*
X027770Y015793D01*
X027600Y015793D01*
X027713Y015793D02*
X027827Y015680D01*
X025183Y019150D02*
X025185Y019217D01*
X025191Y019285D01*
X025201Y019352D01*
X025215Y019418D01*
X025232Y019483D01*
X025254Y019547D01*
X025279Y019610D01*
X025308Y019671D01*
X025340Y019730D01*
X025376Y019787D01*
X025415Y019842D01*
X025457Y019895D01*
X025502Y019945D01*
X025550Y019992D01*
X025601Y020037D01*
X025654Y020078D01*
X025710Y020117D01*
X025768Y020152D01*
X025828Y020183D01*
X025889Y020211D01*
X025952Y020235D01*
X026016Y020256D01*
X026082Y020272D01*
X026148Y020285D01*
X026215Y020294D01*
X026282Y020299D01*
X026350Y020300D01*
X026417Y020297D01*
X026484Y020290D01*
X026551Y020279D01*
X026617Y020264D01*
X026682Y020246D01*
X026746Y020223D01*
X026808Y020197D01*
X026869Y020168D01*
X026927Y020134D01*
X026984Y020098D01*
X027039Y020058D01*
X027091Y020015D01*
X027140Y019969D01*
X027187Y019920D01*
X027231Y019869D01*
X027271Y019815D01*
X027309Y019759D01*
X027343Y019700D01*
X027373Y019640D01*
X027400Y019578D01*
X027424Y019515D01*
X027443Y019450D01*
X027459Y019385D01*
X027471Y019318D01*
X027479Y019251D01*
X027483Y019184D01*
X027483Y019116D01*
X027479Y019049D01*
X027471Y018982D01*
X027459Y018915D01*
X027443Y018850D01*
X027424Y018785D01*
X027400Y018722D01*
X027373Y018660D01*
X027343Y018600D01*
X027309Y018541D01*
X027271Y018485D01*
X027231Y018431D01*
X027187Y018380D01*
X027140Y018331D01*
X027091Y018285D01*
X027039Y018242D01*
X026984Y018202D01*
X026927Y018166D01*
X026869Y018132D01*
X026808Y018103D01*
X026746Y018077D01*
X026682Y018054D01*
X026617Y018036D01*
X026551Y018021D01*
X026484Y018010D01*
X026417Y018003D01*
X026350Y018000D01*
X026282Y018001D01*
X026215Y018006D01*
X026148Y018015D01*
X026082Y018028D01*
X026016Y018044D01*
X025952Y018065D01*
X025889Y018089D01*
X025828Y018117D01*
X025768Y018148D01*
X025710Y018183D01*
X025654Y018222D01*
X025601Y018263D01*
X025550Y018308D01*
X025502Y018355D01*
X025457Y018405D01*
X025415Y018458D01*
X025376Y018513D01*
X025340Y018570D01*
X025308Y018629D01*
X025279Y018690D01*
X025254Y018753D01*
X025232Y018817D01*
X025215Y018882D01*
X025201Y018948D01*
X025191Y019015D01*
X025185Y019083D01*
X025183Y019150D01*
X026920Y009020D02*
X026863Y008964D01*
X026863Y008737D01*
X026920Y008680D01*
X027033Y008680D01*
X027090Y008737D01*
X027090Y008964D01*
X027033Y009020D01*
X026920Y009020D01*
X027232Y009020D02*
X027232Y008737D01*
X027288Y008680D01*
X027402Y008680D01*
X027459Y008737D01*
X027459Y009020D01*
X027600Y009020D02*
X027827Y009020D01*
X027713Y009020D02*
X027713Y008680D01*
X026583Y007650D02*
X026083Y007650D01*
X025833Y007400D01*
X025833Y006900D01*
X026083Y006650D01*
X025833Y006400D01*
X025833Y005900D01*
X026083Y005650D01*
X026583Y005650D01*
X026833Y005900D01*
X026833Y006400D01*
X026583Y006650D01*
X026083Y006650D01*
X026583Y006650D02*
X026833Y006900D01*
X026833Y007400D01*
X026583Y007650D01*
X027463Y007323D02*
X027463Y007210D01*
X027520Y007153D01*
X027576Y007153D01*
X027633Y007210D01*
X027633Y007323D01*
X027690Y007380D01*
X027747Y007380D01*
X027803Y007323D01*
X027803Y007210D01*
X027747Y007153D01*
X027520Y007380D02*
X027463Y007323D01*
X027520Y006643D02*
X027463Y006587D01*
X027463Y006417D01*
X027803Y006417D01*
X027803Y006587D01*
X027747Y006643D01*
X027520Y006643D01*
X027463Y006275D02*
X027803Y006275D01*
X027463Y006048D01*
X027803Y006048D01*
X027747Y005907D02*
X027633Y005907D01*
X027633Y005793D01*
X027520Y005680D02*
X027747Y005680D01*
X027803Y005737D01*
X027803Y005850D01*
X027747Y005907D01*
X027520Y005907D02*
X027463Y005850D01*
X027463Y005737D01*
X027520Y005680D01*
X025183Y002650D02*
X025185Y002717D01*
X025191Y002785D01*
X025201Y002852D01*
X025215Y002918D01*
X025232Y002983D01*
X025254Y003047D01*
X025279Y003110D01*
X025308Y003171D01*
X025340Y003230D01*
X025376Y003287D01*
X025415Y003342D01*
X025457Y003395D01*
X025502Y003445D01*
X025550Y003492D01*
X025601Y003537D01*
X025654Y003578D01*
X025710Y003617D01*
X025768Y003652D01*
X025828Y003683D01*
X025889Y003711D01*
X025952Y003735D01*
X026016Y003756D01*
X026082Y003772D01*
X026148Y003785D01*
X026215Y003794D01*
X026282Y003799D01*
X026350Y003800D01*
X026417Y003797D01*
X026484Y003790D01*
X026551Y003779D01*
X026617Y003764D01*
X026682Y003746D01*
X026746Y003723D01*
X026808Y003697D01*
X026869Y003668D01*
X026927Y003634D01*
X026984Y003598D01*
X027039Y003558D01*
X027091Y003515D01*
X027140Y003469D01*
X027187Y003420D01*
X027231Y003369D01*
X027271Y003315D01*
X027309Y003259D01*
X027343Y003200D01*
X027373Y003140D01*
X027400Y003078D01*
X027424Y003015D01*
X027443Y002950D01*
X027459Y002885D01*
X027471Y002818D01*
X027479Y002751D01*
X027483Y002684D01*
X027483Y002616D01*
X027479Y002549D01*
X027471Y002482D01*
X027459Y002415D01*
X027443Y002350D01*
X027424Y002285D01*
X027400Y002222D01*
X027373Y002160D01*
X027343Y002100D01*
X027309Y002041D01*
X027271Y001985D01*
X027231Y001931D01*
X027187Y001880D01*
X027140Y001831D01*
X027091Y001785D01*
X027039Y001742D01*
X026984Y001702D01*
X026927Y001666D01*
X026869Y001632D01*
X026808Y001603D01*
X026746Y001577D01*
X026682Y001554D01*
X026617Y001536D01*
X026551Y001521D01*
X026484Y001510D01*
X026417Y001503D01*
X026350Y001500D01*
X026282Y001501D01*
X026215Y001506D01*
X026148Y001515D01*
X026082Y001528D01*
X026016Y001544D01*
X025952Y001565D01*
X025889Y001589D01*
X025828Y001617D01*
X025768Y001648D01*
X025710Y001683D01*
X025654Y001722D01*
X025601Y001763D01*
X025550Y001808D01*
X025502Y001855D01*
X025457Y001905D01*
X025415Y001958D01*
X025376Y002013D01*
X025340Y002070D01*
X025308Y002129D01*
X025279Y002190D01*
X025254Y002253D01*
X025232Y002317D01*
X025215Y002382D01*
X025201Y002448D01*
X025191Y002515D01*
X025185Y002583D01*
X025183Y002650D01*
X009683Y002650D02*
X009685Y002717D01*
X009691Y002785D01*
X009701Y002852D01*
X009715Y002918D01*
X009732Y002983D01*
X009754Y003047D01*
X009779Y003110D01*
X009808Y003171D01*
X009840Y003230D01*
X009876Y003287D01*
X009915Y003342D01*
X009957Y003395D01*
X010002Y003445D01*
X010050Y003492D01*
X010101Y003537D01*
X010154Y003578D01*
X010210Y003617D01*
X010268Y003652D01*
X010328Y003683D01*
X010389Y003711D01*
X010452Y003735D01*
X010516Y003756D01*
X010582Y003772D01*
X010648Y003785D01*
X010715Y003794D01*
X010782Y003799D01*
X010850Y003800D01*
X010917Y003797D01*
X010984Y003790D01*
X011051Y003779D01*
X011117Y003764D01*
X011182Y003746D01*
X011246Y003723D01*
X011308Y003697D01*
X011369Y003668D01*
X011427Y003634D01*
X011484Y003598D01*
X011539Y003558D01*
X011591Y003515D01*
X011640Y003469D01*
X011687Y003420D01*
X011731Y003369D01*
X011771Y003315D01*
X011809Y003259D01*
X011843Y003200D01*
X011873Y003140D01*
X011900Y003078D01*
X011924Y003015D01*
X011943Y002950D01*
X011959Y002885D01*
X011971Y002818D01*
X011979Y002751D01*
X011983Y002684D01*
X011983Y002616D01*
X011979Y002549D01*
X011971Y002482D01*
X011959Y002415D01*
X011943Y002350D01*
X011924Y002285D01*
X011900Y002222D01*
X011873Y002160D01*
X011843Y002100D01*
X011809Y002041D01*
X011771Y001985D01*
X011731Y001931D01*
X011687Y001880D01*
X011640Y001831D01*
X011591Y001785D01*
X011539Y001742D01*
X011484Y001702D01*
X011427Y001666D01*
X011369Y001632D01*
X011308Y001603D01*
X011246Y001577D01*
X011182Y001554D01*
X011117Y001536D01*
X011051Y001521D01*
X010984Y001510D01*
X010917Y001503D01*
X010850Y001500D01*
X010782Y001501D01*
X010715Y001506D01*
X010648Y001515D01*
X010582Y001528D01*
X010516Y001544D01*
X010452Y001565D01*
X010389Y001589D01*
X010328Y001617D01*
X010268Y001648D01*
X010210Y001683D01*
X010154Y001722D01*
X010101Y001763D01*
X010050Y001808D01*
X010002Y001855D01*
X009957Y001905D01*
X009915Y001958D01*
X009876Y002013D01*
X009840Y002070D01*
X009808Y002129D01*
X009779Y002190D01*
X009754Y002253D01*
X009732Y002317D01*
X009715Y002382D01*
X009701Y002448D01*
X009691Y002515D01*
X009685Y002583D01*
X009683Y002650D01*
D13*
X014987Y019705D02*
X014888Y019803D01*
X014987Y019705D02*
X015184Y019705D01*
X015282Y019803D01*
X015282Y019902D01*
X015184Y020000D01*
X014987Y020000D01*
X014888Y020099D01*
X014888Y020197D01*
X014987Y020296D01*
X015184Y020296D01*
X015282Y020197D01*
X015533Y020099D02*
X015533Y019803D01*
X015631Y019705D01*
X015927Y019705D01*
X015927Y020099D01*
X016177Y020099D02*
X016276Y020099D01*
X016374Y020000D01*
X016473Y020099D01*
X016571Y020000D01*
X016571Y019705D01*
X016374Y019705D02*
X016374Y020000D01*
X016177Y020099D02*
X016177Y019705D01*
X016822Y019705D02*
X016822Y020099D01*
X016920Y020099D01*
X017019Y020000D01*
X017117Y020099D01*
X017216Y020000D01*
X017216Y019705D01*
X017019Y019705D02*
X017019Y020000D01*
X017467Y019803D02*
X017565Y019902D01*
X017860Y019902D01*
X017860Y020000D02*
X017860Y019705D01*
X017565Y019705D01*
X017467Y019803D01*
X017565Y020099D02*
X017762Y020099D01*
X017860Y020000D01*
X018111Y020099D02*
X018308Y020099D01*
X018209Y020197D02*
X018209Y019803D01*
X018308Y019705D01*
X018541Y019803D02*
X018639Y019705D01*
X018836Y019705D01*
X018934Y019803D01*
X018934Y020000D01*
X018836Y020099D01*
X018639Y020099D01*
X018541Y020000D01*
X018541Y019803D01*
X019185Y019705D02*
X019185Y020099D01*
X019185Y019902D02*
X019382Y020099D01*
X019481Y020099D01*
X020367Y020099D02*
X020564Y019705D01*
X020761Y020099D01*
X021012Y020099D02*
X021208Y020296D01*
X021208Y019705D01*
X021012Y019705D02*
X021405Y019705D01*
X021656Y019705D02*
X021656Y019803D01*
X021755Y019803D01*
X021755Y019705D01*
X021656Y019705D01*
X021978Y019803D02*
X022372Y020197D01*
X022372Y019803D01*
X022274Y019705D01*
X022077Y019705D01*
X021978Y019803D01*
X021978Y020197D01*
X022077Y020296D01*
X022274Y020296D01*
X022372Y020197D01*
X019444Y022431D02*
X019444Y022530D01*
X019838Y022923D01*
X019838Y023022D01*
X019444Y023022D01*
X019193Y022923D02*
X018799Y022530D01*
X018898Y022431D01*
X019095Y022431D01*
X019193Y022530D01*
X019193Y022923D01*
X019095Y023022D01*
X018898Y023022D01*
X018799Y022923D01*
X018799Y022530D01*
X018576Y022530D02*
X018576Y022431D01*
X018477Y022431D01*
X018477Y022530D01*
X018576Y022530D01*
X018226Y022431D02*
X017833Y022431D01*
X018226Y022825D01*
X018226Y022923D01*
X018128Y023022D01*
X017931Y023022D01*
X017833Y022923D01*
X017582Y023022D02*
X017188Y023022D01*
X017188Y022726D01*
X017385Y022825D01*
X017483Y022825D01*
X017582Y022726D01*
X017582Y022530D01*
X017483Y022431D01*
X017287Y022431D01*
X017188Y022530D01*
D14*
X009357Y022276D02*
X009357Y022024D01*
X008333Y022150D01*
X009357Y022048D01*
X009357Y022099D02*
X008333Y022150D01*
X009357Y022252D01*
X009357Y022276D02*
X008333Y022150D01*
X009357Y022201D01*
X008333Y022150D02*
X028833Y022150D01*
X027810Y022048D01*
X027810Y022024D02*
X028833Y022150D01*
X027810Y022252D01*
X027810Y022276D02*
X027810Y022024D01*
X027810Y022099D02*
X028833Y022150D01*
X027810Y022201D01*
X027810Y022276D02*
X028833Y022150D01*
X028833Y021650D02*
X028833Y022918D01*
X008333Y022918D02*
X008333Y021650D01*
D15*
X017423Y016230D02*
X017469Y016275D01*
X017559Y016275D01*
X017604Y016230D01*
X017604Y016185D01*
X017423Y016005D01*
X017604Y016005D01*
X017718Y016005D02*
X017898Y016185D01*
X017898Y016230D01*
X017853Y016275D01*
X017763Y016275D01*
X017718Y016230D01*
X017718Y016005D02*
X017898Y016005D01*
X018013Y016005D02*
X018013Y016275D01*
X018148Y016185D02*
X018013Y016095D01*
X018148Y016005D01*
X018154Y015375D02*
X018019Y015375D01*
X018019Y015105D01*
X018019Y015195D02*
X018154Y015195D01*
X018199Y015240D01*
X018199Y015330D01*
X018154Y015375D01*
X018109Y015195D02*
X018199Y015105D01*
X018314Y015150D02*
X018359Y015105D01*
X018449Y015105D01*
X018494Y015150D01*
X018494Y015195D01*
X018449Y015240D01*
X018314Y015240D01*
X018314Y015150D01*
X018314Y015240D02*
X018404Y015330D01*
X018494Y015375D01*
X017183Y014205D02*
X017048Y014115D01*
X017183Y014025D01*
X017048Y014025D02*
X017048Y014295D01*
X016933Y014295D02*
X016753Y014295D01*
X016753Y014160D01*
X016843Y014205D01*
X016888Y014205D01*
X016933Y014160D01*
X016933Y014070D01*
X016888Y014025D01*
X016798Y014025D01*
X016753Y014070D01*
X016638Y014025D02*
X016458Y014025D01*
X016548Y014025D02*
X016548Y014295D01*
X016458Y014205D01*
X016538Y014925D02*
X016538Y015195D01*
X016403Y015060D01*
X016583Y015060D01*
X016288Y015060D02*
X016243Y015015D01*
X016108Y015015D01*
X016108Y014925D02*
X016108Y015195D01*
X016243Y015195D01*
X016288Y015150D01*
X016288Y015060D01*
X016198Y015015D02*
X016288Y014925D01*
X012958Y013499D02*
X012868Y013364D01*
X012778Y013499D01*
X012688Y013364D02*
X012958Y013364D01*
X012958Y013250D02*
X012958Y013070D01*
X012778Y013250D01*
X012733Y013250D01*
X012688Y013205D01*
X012688Y013115D01*
X012733Y013070D01*
X012733Y012955D02*
X012688Y012910D01*
X012688Y012820D01*
X012733Y012775D01*
X012733Y012955D02*
X012778Y012955D01*
X012958Y012775D01*
X012958Y012955D01*
X012058Y012900D02*
X012058Y012720D01*
X011878Y012900D01*
X011833Y012900D01*
X011788Y012855D01*
X011788Y012765D01*
X011833Y012720D01*
X011833Y012605D02*
X011923Y012605D01*
X011968Y012560D01*
X011968Y012425D01*
X011968Y012515D02*
X012058Y012605D01*
X012058Y012425D02*
X011788Y012425D01*
X011788Y012560D01*
X011833Y012605D01*
X012028Y010545D02*
X012028Y010245D01*
X012028Y010395D02*
X011578Y010395D01*
X011728Y010245D01*
X011653Y010084D02*
X011578Y010009D01*
X011578Y009784D01*
X012028Y009784D01*
X011878Y009784D02*
X011878Y010009D01*
X011803Y010084D01*
X011653Y010084D01*
X011578Y009624D02*
X011578Y009474D01*
X011578Y009549D02*
X011953Y009549D01*
X012028Y009474D01*
X012028Y009399D01*
X011953Y009324D01*
X012798Y008465D02*
X012888Y008329D01*
X012978Y008465D01*
X012978Y008329D02*
X012708Y008329D01*
X012753Y008215D02*
X012708Y008170D01*
X012708Y008080D01*
X012753Y008035D01*
X012753Y007920D02*
X012708Y007875D01*
X012708Y007785D01*
X012753Y007740D01*
X012753Y007920D02*
X012798Y007920D01*
X012978Y007740D01*
X012978Y007920D01*
X012978Y008035D02*
X012798Y008215D01*
X012753Y008215D01*
X012978Y008215D02*
X012978Y008035D01*
X013608Y008336D02*
X013608Y008471D01*
X013653Y008516D01*
X013743Y008516D01*
X013788Y008471D01*
X013788Y008336D01*
X013788Y008426D02*
X013878Y008516D01*
X013878Y008630D02*
X013878Y008811D01*
X013878Y008720D02*
X013608Y008720D01*
X013698Y008630D01*
X013608Y008336D02*
X013878Y008336D01*
X015108Y008425D02*
X015108Y008695D01*
X015243Y008695D01*
X015288Y008650D01*
X015288Y008560D01*
X015243Y008515D01*
X015108Y008515D01*
X015198Y008515D02*
X015288Y008425D01*
X015403Y008470D02*
X015448Y008425D01*
X015538Y008425D01*
X015583Y008470D01*
X015583Y008515D01*
X015538Y008560D01*
X015493Y008560D01*
X015538Y008560D02*
X015583Y008605D01*
X015583Y008650D01*
X015538Y008695D01*
X015448Y008695D01*
X015403Y008650D01*
X016258Y009525D02*
X016258Y009675D01*
X016258Y009600D02*
X016708Y009600D01*
X016708Y009525D02*
X016708Y009675D01*
X016633Y009832D02*
X016708Y009907D01*
X016708Y010057D01*
X016633Y010132D01*
X016708Y010292D02*
X016708Y010593D01*
X016708Y010442D02*
X016258Y010442D01*
X016408Y010292D01*
X016333Y010132D02*
X016258Y010057D01*
X016258Y009907D01*
X016333Y009832D01*
X016633Y009832D01*
X016048Y007795D02*
X016048Y007525D01*
X016048Y007615D02*
X016183Y007705D01*
X016048Y007615D02*
X016183Y007525D01*
X015933Y007570D02*
X015888Y007525D01*
X015798Y007525D01*
X015753Y007570D01*
X015753Y007660D02*
X015843Y007705D01*
X015888Y007705D01*
X015933Y007660D01*
X015933Y007570D01*
X015753Y007660D02*
X015753Y007795D01*
X015933Y007795D01*
X015548Y007795D02*
X015548Y007525D01*
X015458Y007525D02*
X015638Y007525D01*
X015458Y007705D02*
X015548Y007795D01*
X016469Y005775D02*
X016423Y005730D01*
X016469Y005775D02*
X016559Y005775D01*
X016604Y005730D01*
X016604Y005685D01*
X016423Y005505D01*
X016604Y005505D01*
X016718Y005505D02*
X016898Y005685D01*
X016898Y005730D01*
X016853Y005775D01*
X016763Y005775D01*
X016718Y005730D01*
X016718Y005505D02*
X016898Y005505D01*
X017013Y005505D02*
X017013Y005775D01*
X017148Y005685D02*
X017013Y005595D01*
X017148Y005505D01*
X017154Y004875D02*
X017199Y004830D01*
X017199Y004740D01*
X017154Y004695D01*
X017019Y004695D01*
X017019Y004605D02*
X017019Y004875D01*
X017154Y004875D01*
X017314Y004875D02*
X017314Y004740D01*
X017404Y004785D01*
X017449Y004785D01*
X017494Y004740D01*
X017494Y004650D01*
X017449Y004605D01*
X017359Y004605D01*
X017314Y004650D01*
X017199Y004605D02*
X017109Y004695D01*
X017314Y004875D02*
X017494Y004875D01*
X021708Y005625D02*
X021978Y005625D01*
X021978Y005535D02*
X021978Y005715D01*
X021978Y005829D02*
X021708Y005829D01*
X021798Y005965D02*
X021888Y005829D01*
X021978Y005965D01*
X022608Y005971D02*
X022608Y005836D01*
X022878Y005836D01*
X022788Y005836D02*
X022788Y005971D01*
X022743Y006016D01*
X022653Y006016D01*
X022608Y005971D01*
X022608Y006130D02*
X022608Y006311D01*
X022653Y006311D01*
X022833Y006130D01*
X022878Y006130D01*
X022878Y006016D02*
X022788Y005926D01*
X021798Y005535D02*
X021708Y005625D01*
X025078Y005974D02*
X025078Y006124D01*
X025078Y006049D02*
X025453Y006049D01*
X025528Y005974D01*
X025528Y005899D01*
X025453Y005824D01*
X025378Y006284D02*
X025378Y006509D01*
X025303Y006584D01*
X025153Y006584D01*
X025078Y006509D01*
X025078Y006284D01*
X025528Y006284D01*
X025453Y006745D02*
X025528Y006820D01*
X025528Y006970D01*
X025453Y007045D01*
X025378Y007045D01*
X025303Y006970D01*
X025303Y006895D01*
X025303Y006970D02*
X025228Y007045D01*
X025153Y007045D01*
X025078Y006970D01*
X025078Y006820D01*
X025153Y006745D01*
X021978Y010535D02*
X021978Y010715D01*
X021978Y010625D02*
X021708Y010625D01*
X021798Y010535D01*
X021708Y010829D02*
X021978Y010829D01*
X021888Y010829D02*
X021798Y010965D01*
X021888Y010829D02*
X021978Y010965D01*
X022608Y010971D02*
X022608Y010836D01*
X022878Y010836D01*
X022788Y010836D02*
X022788Y010971D01*
X022743Y011016D01*
X022653Y011016D01*
X022608Y010971D01*
X022653Y011130D02*
X022698Y011130D01*
X022743Y011175D01*
X022743Y011265D01*
X022788Y011311D01*
X022833Y011311D01*
X022878Y011265D01*
X022878Y011175D01*
X022833Y011130D01*
X022788Y011130D01*
X022743Y011175D01*
X022743Y011265D02*
X022698Y011311D01*
X022653Y011311D01*
X022608Y011265D01*
X022608Y011175D01*
X022653Y011130D01*
X022788Y010926D02*
X022878Y011016D01*
X025078Y011974D02*
X025078Y012124D01*
X025078Y012049D02*
X025453Y012049D01*
X025528Y011974D01*
X025528Y011899D01*
X025453Y011824D01*
X025378Y012284D02*
X025378Y012509D01*
X025303Y012584D01*
X025153Y012584D01*
X025078Y012509D01*
X025078Y012284D01*
X025528Y012284D01*
X025528Y012745D02*
X025228Y013045D01*
X025153Y013045D01*
X025078Y012970D01*
X025078Y012820D01*
X025153Y012745D01*
X025528Y012745D02*
X025528Y013045D01*
D16*
X023653Y010102D02*
X023628Y010102D01*
X023603Y010077D01*
X023603Y010002D01*
X023653Y010002D01*
X023678Y010027D01*
X023678Y010077D01*
X023653Y010102D01*
X023553Y010052D02*
X023603Y010002D01*
X023553Y009955D02*
X023528Y009930D01*
X023528Y009880D01*
X023553Y009855D01*
X023653Y009855D01*
X023678Y009880D01*
X023678Y009930D01*
X023653Y009955D01*
X023553Y010052D02*
X023528Y010102D01*
X025013Y016160D02*
X025113Y016160D01*
X025138Y016185D01*
X025138Y016235D01*
X025113Y016260D01*
X025113Y016308D02*
X025138Y016333D01*
X025138Y016383D01*
X025113Y016408D01*
X025063Y016408D01*
X025038Y016383D01*
X025038Y016358D01*
X025063Y016308D01*
X024988Y016308D01*
X024988Y016408D01*
X025013Y016260D02*
X024988Y016235D01*
X024988Y016185D01*
X025013Y016160D01*
X018591Y017070D02*
X018491Y017070D01*
X018566Y017145D01*
X018566Y016995D01*
X018444Y017020D02*
X018419Y016995D01*
X018369Y016995D01*
X018344Y017020D01*
X018344Y017120D01*
X018369Y017145D01*
X018419Y017145D01*
X018444Y017120D01*
X010328Y014602D02*
X010328Y014502D01*
X010228Y014602D01*
X010203Y014602D01*
X010178Y014577D01*
X010178Y014527D01*
X010203Y014502D01*
X010203Y014455D02*
X010178Y014430D01*
X010178Y014380D01*
X010203Y014355D01*
X010303Y014355D01*
X010328Y014380D01*
X010328Y014430D01*
X010303Y014455D01*
X011488Y006908D02*
X011488Y006808D01*
X011488Y006858D02*
X011338Y006858D01*
X011388Y006808D01*
X011363Y006760D02*
X011338Y006735D01*
X011338Y006685D01*
X011363Y006660D01*
X011463Y006660D01*
X011488Y006685D01*
X011488Y006735D01*
X011463Y006760D01*
X017344Y003620D02*
X017344Y003520D01*
X017369Y003495D01*
X017419Y003495D01*
X017444Y003520D01*
X017491Y003520D02*
X017516Y003495D01*
X017566Y003495D01*
X017591Y003520D01*
X017591Y003545D01*
X017566Y003570D01*
X017541Y003570D01*
X017566Y003570D02*
X017591Y003595D01*
X017591Y003620D01*
X017566Y003645D01*
X017516Y003645D01*
X017491Y003620D01*
X017444Y003620D02*
X017419Y003645D01*
X017369Y003645D01*
X017344Y003620D01*
D17*
X010282Y002650D02*
X010284Y002697D01*
X010290Y002743D01*
X010300Y002789D01*
X010313Y002834D01*
X010331Y002877D01*
X010352Y002919D01*
X010376Y002959D01*
X010404Y002996D01*
X010435Y003031D01*
X010469Y003064D01*
X010505Y003093D01*
X010544Y003119D01*
X010585Y003142D01*
X010628Y003161D01*
X010672Y003177D01*
X010717Y003189D01*
X010763Y003197D01*
X010810Y003201D01*
X010856Y003201D01*
X010903Y003197D01*
X010949Y003189D01*
X010994Y003177D01*
X011038Y003161D01*
X011081Y003142D01*
X011122Y003119D01*
X011161Y003093D01*
X011197Y003064D01*
X011231Y003031D01*
X011262Y002996D01*
X011290Y002959D01*
X011314Y002919D01*
X011335Y002877D01*
X011353Y002834D01*
X011366Y002789D01*
X011376Y002743D01*
X011382Y002697D01*
X011384Y002650D01*
X011382Y002603D01*
X011376Y002557D01*
X011366Y002511D01*
X011353Y002466D01*
X011335Y002423D01*
X011314Y002381D01*
X011290Y002341D01*
X011262Y002304D01*
X011231Y002269D01*
X011197Y002236D01*
X011161Y002207D01*
X011122Y002181D01*
X011081Y002158D01*
X011038Y002139D01*
X010994Y002123D01*
X010949Y002111D01*
X010903Y002103D01*
X010856Y002099D01*
X010810Y002099D01*
X010763Y002103D01*
X010717Y002111D01*
X010672Y002123D01*
X010628Y002139D01*
X010585Y002158D01*
X010544Y002181D01*
X010505Y002207D01*
X010469Y002236D01*
X010435Y002269D01*
X010404Y002304D01*
X010376Y002341D01*
X010352Y002381D01*
X010331Y002423D01*
X010313Y002466D01*
X010300Y002511D01*
X010290Y002557D01*
X010284Y002603D01*
X010282Y002650D01*
X025782Y002650D02*
X025784Y002697D01*
X025790Y002743D01*
X025800Y002789D01*
X025813Y002834D01*
X025831Y002877D01*
X025852Y002919D01*
X025876Y002959D01*
X025904Y002996D01*
X025935Y003031D01*
X025969Y003064D01*
X026005Y003093D01*
X026044Y003119D01*
X026085Y003142D01*
X026128Y003161D01*
X026172Y003177D01*
X026217Y003189D01*
X026263Y003197D01*
X026310Y003201D01*
X026356Y003201D01*
X026403Y003197D01*
X026449Y003189D01*
X026494Y003177D01*
X026538Y003161D01*
X026581Y003142D01*
X026622Y003119D01*
X026661Y003093D01*
X026697Y003064D01*
X026731Y003031D01*
X026762Y002996D01*
X026790Y002959D01*
X026814Y002919D01*
X026835Y002877D01*
X026853Y002834D01*
X026866Y002789D01*
X026876Y002743D01*
X026882Y002697D01*
X026884Y002650D01*
X026882Y002603D01*
X026876Y002557D01*
X026866Y002511D01*
X026853Y002466D01*
X026835Y002423D01*
X026814Y002381D01*
X026790Y002341D01*
X026762Y002304D01*
X026731Y002269D01*
X026697Y002236D01*
X026661Y002207D01*
X026622Y002181D01*
X026581Y002158D01*
X026538Y002139D01*
X026494Y002123D01*
X026449Y002111D01*
X026403Y002103D01*
X026356Y002099D01*
X026310Y002099D01*
X026263Y002103D01*
X026217Y002111D01*
X026172Y002123D01*
X026128Y002139D01*
X026085Y002158D01*
X026044Y002181D01*
X026005Y002207D01*
X025969Y002236D01*
X025935Y002269D01*
X025904Y002304D01*
X025876Y002341D01*
X025852Y002381D01*
X025831Y002423D01*
X025813Y002466D01*
X025800Y002511D01*
X025790Y002557D01*
X025784Y002603D01*
X025782Y002650D01*
X025782Y019150D02*
X025784Y019197D01*
X025790Y019243D01*
X025800Y019289D01*
X025813Y019334D01*
X025831Y019377D01*
X025852Y019419D01*
X025876Y019459D01*
X025904Y019496D01*
X025935Y019531D01*
X025969Y019564D01*
X026005Y019593D01*
X026044Y019619D01*
X026085Y019642D01*
X026128Y019661D01*
X026172Y019677D01*
X026217Y019689D01*
X026263Y019697D01*
X026310Y019701D01*
X026356Y019701D01*
X026403Y019697D01*
X026449Y019689D01*
X026494Y019677D01*
X026538Y019661D01*
X026581Y019642D01*
X026622Y019619D01*
X026661Y019593D01*
X026697Y019564D01*
X026731Y019531D01*
X026762Y019496D01*
X026790Y019459D01*
X026814Y019419D01*
X026835Y019377D01*
X026853Y019334D01*
X026866Y019289D01*
X026876Y019243D01*
X026882Y019197D01*
X026884Y019150D01*
X026882Y019103D01*
X026876Y019057D01*
X026866Y019011D01*
X026853Y018966D01*
X026835Y018923D01*
X026814Y018881D01*
X026790Y018841D01*
X026762Y018804D01*
X026731Y018769D01*
X026697Y018736D01*
X026661Y018707D01*
X026622Y018681D01*
X026581Y018658D01*
X026538Y018639D01*
X026494Y018623D01*
X026449Y018611D01*
X026403Y018603D01*
X026356Y018599D01*
X026310Y018599D01*
X026263Y018603D01*
X026217Y018611D01*
X026172Y018623D01*
X026128Y018639D01*
X026085Y018658D01*
X026044Y018681D01*
X026005Y018707D01*
X025969Y018736D01*
X025935Y018769D01*
X025904Y018804D01*
X025876Y018841D01*
X025852Y018881D01*
X025831Y018923D01*
X025813Y018966D01*
X025800Y019011D01*
X025790Y019057D01*
X025784Y019103D01*
X025782Y019150D01*
X010282Y019150D02*
X010284Y019197D01*
X010290Y019243D01*
X010300Y019289D01*
X010313Y019334D01*
X010331Y019377D01*
X010352Y019419D01*
X010376Y019459D01*
X010404Y019496D01*
X010435Y019531D01*
X010469Y019564D01*
X010505Y019593D01*
X010544Y019619D01*
X010585Y019642D01*
X010628Y019661D01*
X010672Y019677D01*
X010717Y019689D01*
X010763Y019697D01*
X010810Y019701D01*
X010856Y019701D01*
X010903Y019697D01*
X010949Y019689D01*
X010994Y019677D01*
X011038Y019661D01*
X011081Y019642D01*
X011122Y019619D01*
X011161Y019593D01*
X011197Y019564D01*
X011231Y019531D01*
X011262Y019496D01*
X011290Y019459D01*
X011314Y019419D01*
X011335Y019377D01*
X011353Y019334D01*
X011366Y019289D01*
X011376Y019243D01*
X011382Y019197D01*
X011384Y019150D01*
X011382Y019103D01*
X011376Y019057D01*
X011366Y019011D01*
X011353Y018966D01*
X011335Y018923D01*
X011314Y018881D01*
X011290Y018841D01*
X011262Y018804D01*
X011231Y018769D01*
X011197Y018736D01*
X011161Y018707D01*
X011122Y018681D01*
X011081Y018658D01*
X011038Y018639D01*
X010994Y018623D01*
X010949Y018611D01*
X010903Y018603D01*
X010856Y018599D01*
X010810Y018599D01*
X010763Y018603D01*
X010717Y018611D01*
X010672Y018623D01*
X010628Y018639D01*
X010585Y018658D01*
X010544Y018681D01*
X010505Y018707D01*
X010469Y018736D01*
X010435Y018769D01*
X010404Y018804D01*
X010376Y018841D01*
X010352Y018881D01*
X010331Y018923D01*
X010313Y018966D01*
X010300Y019011D01*
X010290Y019057D01*
X010284Y019103D01*
X010282Y019150D01*
M02*
