G75*
G70*
%OFA0B0*%
%FSLAX24Y24*%
%IPPOS*%
%LPD*%
%AMOC8*
5,1,8,0,0,1.08239X$1,22.5*
%
%ADD10C,0.0600*%
%ADD11C,0.0680*%
%ADD12C,0.0730*%
%ADD13C,0.0820*%
%ADD14C,0.1182*%
%ADD15R,0.0730X0.0730*%
%ADD16C,0.0780*%
D10*
X017333Y008890D02*
X017333Y009410D01*
X018333Y009410D02*
X018333Y008890D01*
X019333Y008890D02*
X019333Y009410D01*
X020333Y009410D02*
X020333Y008890D01*
X020333Y011890D02*
X020333Y012410D01*
X019333Y012410D02*
X019333Y011890D01*
X018333Y011890D02*
X018333Y012410D01*
X017333Y012410D02*
X017333Y011890D01*
D11*
X011133Y011650D02*
X010533Y011650D01*
X010533Y010650D02*
X011133Y010650D01*
X011133Y009650D02*
X010533Y009650D01*
X026033Y007150D02*
X026633Y007150D01*
X026633Y006150D02*
X026033Y006150D01*
X026033Y012150D02*
X026633Y012150D01*
X026633Y013150D02*
X026033Y013150D01*
X026033Y014150D02*
X026633Y014150D01*
D12*
X024333Y016650D03*
X019318Y017650D03*
X017349Y017650D03*
X010833Y015634D03*
X010833Y013666D03*
X010833Y007634D03*
X010833Y005666D03*
X016349Y004150D03*
X018318Y004150D03*
X024333Y009650D03*
D13*
X021833Y008150D03*
X021833Y007150D03*
X018333Y007650D03*
X018333Y005650D03*
X014333Y005650D03*
X012833Y005650D03*
X014333Y007650D03*
X012833Y009650D03*
X012833Y011650D03*
X015333Y014150D03*
X012833Y015650D03*
X015333Y016150D03*
X019333Y016150D03*
X019333Y014150D03*
X021833Y012150D03*
X021833Y003150D03*
D14*
X010833Y002650D03*
X026333Y002650D03*
X026333Y019150D03*
X010833Y019150D03*
D15*
X024333Y015650D03*
X024333Y010650D03*
D16*
X022833Y013150D03*
X017333Y013150D03*
M02*
