%
M48
M72
T01C0.0160
T02C0.0160
T03C0.0160
T04C0.0160
T05C0.0160
T06C0.0160
%
T01
X10833Y5666
X10833Y7634
X16349Y4150
X18318Y4150
X24333Y9650
X24333Y10650
X24333Y15650
X24333Y16650
X19318Y17650
X17349Y17650
X10833Y15634
X10833Y13666
T02
X17333Y13150
X22833Y13150
T03
X20333Y12150
X19333Y12150
X18333Y12150
X17333Y12150
X17333Y9150
X18333Y9150
X19333Y9150
X20333Y9150
T04
X21833Y8150
X21833Y7150
X18333Y7650
X18333Y5650
X14333Y5650
X12833Y5650
X14333Y7650
X12833Y9650
X12833Y11650
X15333Y14150
X12833Y15650
X15333Y16150
X19333Y16150
X19333Y14150
X21833Y12150
X21833Y3150
T05
X26333Y6150
X26333Y7150
X26333Y12150
X26333Y13150
X26333Y14150
X10833Y11650
X10833Y10650
X10833Y9650
T06
X10833Y2650
X26333Y2650
X26333Y19150
X10833Y19150
M30
