<?xml version="1.0" encoding="UTF-8"?>
<svg xmlns="http://www.w3.org/2000/svg" xmlns:xlink="http://www.w3.org/1999/xlink" width="2405pt" height="1559pt" viewBox="0 0 2405 1559" version="1.1">
<g id="surface1">
<path style="fill:none;stroke-width:0.01;stroke-linecap:round;stroke-linejoin:miter;stroke:rgb(0%,0%,0%);stroke-opacity:1;stroke-miterlimit:10;" d="M 0.17595 0.015 L 0.17595 2.464609 " transform="matrix(600,0,0,-600,-102.569997,1565)"/>
<path style="fill:none;stroke-width:0.01;stroke-linecap:round;stroke-linejoin:miter;stroke:rgb(0%,0%,0%);stroke-opacity:1;stroke-miterlimit:10;" d="M 0.17595 2.464609 L 4.162962 2.464609 " transform="matrix(600,0,0,-600,-102.569997,1565)"/>
<path style="fill:none;stroke-width:0.01;stroke-linecap:round;stroke-linejoin:miter;stroke:rgb(0%,0%,0%);stroke-opacity:1;stroke-miterlimit:10;" d="M 4.162962 2.464609 L 4.162962 0.015 " transform="matrix(600,0,0,-600,-102.569997,1565)"/>
<path style="fill:none;stroke-width:0.01;stroke-linecap:round;stroke-linejoin:miter;stroke:rgb(0%,0%,0%);stroke-opacity:1;stroke-miterlimit:10;" d="M 4.162962 0.015 L 0.17595 0.015 " transform="matrix(600,0,0,-600,-102.569997,1565)"/>
<path style="fill:none;stroke-width:0.00512;stroke-linecap:round;stroke-linejoin:miter;stroke:rgb(0%,0%,0%);stroke-opacity:1;stroke-miterlimit:10;" d="M 0.17595 2.415 L 0.17595 2.591771 " transform="matrix(600,0,0,-600,-102.569997,1565)"/>
<path style="fill:none;stroke-width:0.00512;stroke-linecap:round;stroke-linejoin:miter;stroke:rgb(0%,0%,0%);stroke-opacity:1;stroke-miterlimit:10;" d="M 0.178509 2.515 L 0.278307 2.504759 " transform="matrix(600,0,0,-600,-102.569997,1565)"/>
<path style="fill:none;stroke-width:0.00512;stroke-linecap:round;stroke-linejoin:miter;stroke:rgb(0%,0%,0%);stroke-opacity:1;stroke-miterlimit:10;" d="M 0.278307 2.502428 L 0.178509 2.515 " transform="matrix(600,0,0,-600,-102.569997,1565)"/>
<path style="fill:none;stroke-width:0.00512;stroke-linecap:round;stroke-linejoin:miter;stroke:rgb(0%,0%,0%);stroke-opacity:1;stroke-miterlimit:10;" d="M 0.178509 2.515 L 0.278307 2.525241 " transform="matrix(600,0,0,-600,-102.569997,1565)"/>
<path style="fill:none;stroke-width:0.00512;stroke-linecap:round;stroke-linejoin:miter;stroke:rgb(0%,0%,0%);stroke-opacity:1;stroke-miterlimit:10;" d="M 0.278307 2.527572 L 0.278307 2.502428 " transform="matrix(600,0,0,-600,-102.569997,1565)"/>
<path style="fill:none;stroke-width:0.00512;stroke-linecap:round;stroke-linejoin:miter;stroke:rgb(0%,0%,0%);stroke-opacity:1;stroke-miterlimit:10;" d="M 0.278307 2.509883 L 0.178509 2.515 " transform="matrix(600,0,0,-600,-102.569997,1565)"/>
<path style="fill:none;stroke-width:0.00512;stroke-linecap:round;stroke-linejoin:miter;stroke:rgb(0%,0%,0%);stroke-opacity:1;stroke-miterlimit:10;" d="M 0.178509 2.515 L 0.278307 2.520117 " transform="matrix(600,0,0,-600,-102.569997,1565)"/>
<path style="fill:none;stroke-width:0.00512;stroke-linecap:round;stroke-linejoin:miter;stroke:rgb(0%,0%,0%);stroke-opacity:1;stroke-miterlimit:10;" d="M 0.278307 2.527572 L 0.178509 2.515 " transform="matrix(600,0,0,-600,-102.569997,1565)"/>
<path style="fill:none;stroke-width:0.00512;stroke-linecap:round;stroke-linejoin:miter;stroke:rgb(0%,0%,0%);stroke-opacity:1;stroke-miterlimit:10;" d="M 0.178509 2.515 L 4.173391 2.515 " transform="matrix(600,0,0,-600,-102.569997,1565)"/>
<path style="fill:none;stroke-width:0.00512;stroke-linecap:round;stroke-linejoin:miter;stroke:rgb(0%,0%,0%);stroke-opacity:1;stroke-miterlimit:10;" d="M 4.173391 2.515 L 4.073593 2.504759 " transform="matrix(600,0,0,-600,-102.569997,1565)"/>
<path style="fill:none;stroke-width:0.00512;stroke-linecap:round;stroke-linejoin:miter;stroke:rgb(0%,0%,0%);stroke-opacity:1;stroke-miterlimit:10;" d="M 4.073593 2.502428 L 4.173391 2.515 " transform="matrix(600,0,0,-600,-102.569997,1565)"/>
<path style="fill:none;stroke-width:0.00512;stroke-linecap:round;stroke-linejoin:miter;stroke:rgb(0%,0%,0%);stroke-opacity:1;stroke-miterlimit:10;" d="M 4.173391 2.515 L 4.073593 2.525241 " transform="matrix(600,0,0,-600,-102.569997,1565)"/>
<path style="fill:none;stroke-width:0.00512;stroke-linecap:round;stroke-linejoin:miter;stroke:rgb(0%,0%,0%);stroke-opacity:1;stroke-miterlimit:10;" d="M 4.073593 2.527572 L 4.073593 2.502428 " transform="matrix(600,0,0,-600,-102.569997,1565)"/>
<path style="fill:none;stroke-width:0.00512;stroke-linecap:round;stroke-linejoin:miter;stroke:rgb(0%,0%,0%);stroke-opacity:1;stroke-miterlimit:10;" d="M 4.073593 2.509883 L 4.173391 2.515 " transform="matrix(600,0,0,-600,-102.569997,1565)"/>
<path style="fill:none;stroke-width:0.00512;stroke-linecap:round;stroke-linejoin:miter;stroke:rgb(0%,0%,0%);stroke-opacity:1;stroke-miterlimit:10;" d="M 4.173391 2.515 L 4.073593 2.520117 " transform="matrix(600,0,0,-600,-102.569997,1565)"/>
<path style="fill:none;stroke-width:0.00512;stroke-linecap:round;stroke-linejoin:miter;stroke:rgb(0%,0%,0%);stroke-opacity:1;stroke-miterlimit:10;" d="M 4.073593 2.527572 L 4.173391 2.515 " transform="matrix(600,0,0,-600,-102.569997,1565)"/>
<path style="fill:none;stroke-width:0.00512;stroke-linecap:round;stroke-linejoin:miter;stroke:rgb(0%,0%,0%);stroke-opacity:1;stroke-miterlimit:10;" d="M 4.17595 2.591771 L 4.17595 2.415 " transform="matrix(600,0,0,-600,-102.569997,1565)"/>
<path style="fill:none;stroke-width:0.011;stroke-linecap:round;stroke-linejoin:miter;stroke:rgb(0%,0%,0%);stroke-opacity:1;stroke-miterlimit:10;" d="M 2.353593 2.552962 L 2.343749 2.543118 " transform="matrix(600,0,0,-600,-102.569997,1565)"/>
<path style="fill:none;stroke-width:0.011;stroke-linecap:round;stroke-linejoin:miter;stroke:rgb(0%,0%,0%);stroke-opacity:1;stroke-miterlimit:10;" d="M 2.343749 2.543118 L 2.324062 2.543118 " transform="matrix(600,0,0,-600,-102.569997,1565)"/>
<path style="fill:none;stroke-width:0.011;stroke-linecap:round;stroke-linejoin:miter;stroke:rgb(0%,0%,0%);stroke-opacity:1;stroke-miterlimit:10;" d="M 2.324062 2.543118 L 2.314218 2.552962 " transform="matrix(600,0,0,-600,-102.569997,1565)"/>
<path style="fill:none;stroke-width:0.011;stroke-linecap:round;stroke-linejoin:miter;stroke:rgb(0%,0%,0%);stroke-opacity:1;stroke-miterlimit:10;" d="M 2.314218 2.552962 L 2.353593 2.592331 " transform="matrix(600,0,0,-600,-102.569997,1565)"/>
<path style="fill:none;stroke-width:0.011;stroke-linecap:round;stroke-linejoin:miter;stroke:rgb(0%,0%,0%);stroke-opacity:1;stroke-miterlimit:10;" d="M 2.353593 2.592331 L 2.353593 2.552962 " transform="matrix(600,0,0,-600,-102.569997,1565)"/>
<path style="fill:none;stroke-width:0.011;stroke-linecap:round;stroke-linejoin:miter;stroke:rgb(0%,0%,0%);stroke-opacity:1;stroke-miterlimit:10;" d="M 2.353593 2.592331 L 2.343749 2.602168 " transform="matrix(600,0,0,-600,-102.569997,1565)"/>
<path style="fill:none;stroke-width:0.011;stroke-linecap:round;stroke-linejoin:miter;stroke:rgb(0%,0%,0%);stroke-opacity:1;stroke-miterlimit:10;" d="M 2.343749 2.602168 L 2.324062 2.602168 " transform="matrix(600,0,0,-600,-102.569997,1565)"/>
<path style="fill:none;stroke-width:0.011;stroke-linecap:round;stroke-linejoin:miter;stroke:rgb(0%,0%,0%);stroke-opacity:1;stroke-miterlimit:10;" d="M 2.324062 2.602168 L 2.314218 2.592331 " transform="matrix(600,0,0,-600,-102.569997,1565)"/>
<path style="fill:none;stroke-width:0.011;stroke-linecap:round;stroke-linejoin:miter;stroke:rgb(0%,0%,0%);stroke-opacity:1;stroke-miterlimit:10;" d="M 2.314218 2.592331 L 2.314218 2.552962 " transform="matrix(600,0,0,-600,-102.569997,1565)"/>
<path style="fill:none;stroke-width:0.011;stroke-linecap:round;stroke-linejoin:miter;stroke:rgb(0%,0%,0%);stroke-opacity:1;stroke-miterlimit:10;" d="M 2.289127 2.552962 L 2.27929 2.543118 " transform="matrix(600,0,0,-600,-102.569997,1565)"/>
<path style="fill:none;stroke-width:0.011;stroke-linecap:round;stroke-linejoin:miter;stroke:rgb(0%,0%,0%);stroke-opacity:1;stroke-miterlimit:10;" d="M 2.27929 2.543118 L 2.259609 2.543118 " transform="matrix(600,0,0,-600,-102.569997,1565)"/>
<path style="fill:none;stroke-width:0.011;stroke-linecap:round;stroke-linejoin:miter;stroke:rgb(0%,0%,0%);stroke-opacity:1;stroke-miterlimit:10;" d="M 2.259609 2.543118 L 2.249772 2.552962 " transform="matrix(600,0,0,-600,-102.569997,1565)"/>
<path style="fill:none;stroke-width:0.011;stroke-linecap:round;stroke-linejoin:miter;stroke:rgb(0%,0%,0%);stroke-opacity:1;stroke-miterlimit:10;" d="M 2.249772 2.552962 L 2.249772 2.572643 " transform="matrix(600,0,0,-600,-102.569997,1565)"/>
<path style="fill:none;stroke-width:0.011;stroke-linecap:round;stroke-linejoin:miter;stroke:rgb(0%,0%,0%);stroke-opacity:1;stroke-miterlimit:10;" d="M 2.249772 2.572643 L 2.27929 2.572643 " transform="matrix(600,0,0,-600,-102.569997,1565)"/>
<path style="fill:none;stroke-width:0.011;stroke-linecap:round;stroke-linejoin:miter;stroke:rgb(0%,0%,0%);stroke-opacity:1;stroke-miterlimit:10;" d="M 2.27929 2.572643 L 2.289127 2.562799 " transform="matrix(600,0,0,-600,-102.569997,1565)"/>
<path style="fill:none;stroke-width:0.011;stroke-linecap:round;stroke-linejoin:miter;stroke:rgb(0%,0%,0%);stroke-opacity:1;stroke-miterlimit:10;" d="M 2.289127 2.562799 L 2.289127 2.552962 " transform="matrix(600,0,0,-600,-102.569997,1565)"/>
<path style="fill:none;stroke-width:0.011;stroke-linecap:round;stroke-linejoin:miter;stroke:rgb(0%,0%,0%);stroke-opacity:1;stroke-miterlimit:10;" d="M 2.249772 2.572643 L 2.269453 2.592331 " transform="matrix(600,0,0,-600,-102.569997,1565)"/>
<path style="fill:none;stroke-width:0.011;stroke-linecap:round;stroke-linejoin:miter;stroke:rgb(0%,0%,0%);stroke-opacity:1;stroke-miterlimit:10;" d="M 2.269453 2.592331 L 2.289127 2.602168 " transform="matrix(600,0,0,-600,-102.569997,1565)"/>
<path style="fill:none;stroke-width:0.011;stroke-linecap:round;stroke-linejoin:miter;stroke:rgb(0%,0%,0%);stroke-opacity:1;stroke-miterlimit:10;" d="M 2.227382 2.552962 L 2.217539 2.552962 " transform="matrix(600,0,0,-600,-102.569997,1565)"/>
<path style="fill:none;stroke-width:0.011;stroke-linecap:round;stroke-linejoin:miter;stroke:rgb(0%,0%,0%);stroke-opacity:1;stroke-miterlimit:10;" d="M 2.217539 2.552962 L 2.217539 2.543118 " transform="matrix(600,0,0,-600,-102.569997,1565)"/>
<path style="fill:none;stroke-width:0.011;stroke-linecap:round;stroke-linejoin:miter;stroke:rgb(0%,0%,0%);stroke-opacity:1;stroke-miterlimit:10;" d="M 2.217539 2.543118 L 2.227382 2.543118 " transform="matrix(600,0,0,-600,-102.569997,1565)"/>
<path style="fill:none;stroke-width:0.011;stroke-linecap:round;stroke-linejoin:miter;stroke:rgb(0%,0%,0%);stroke-opacity:1;stroke-miterlimit:10;" d="M 2.227382 2.543118 L 2.227382 2.552962 " transform="matrix(600,0,0,-600,-102.569997,1565)"/>
<path style="fill:none;stroke-width:0.011;stroke-linecap:round;stroke-linejoin:miter;stroke:rgb(0%,0%,0%);stroke-opacity:1;stroke-miterlimit:10;" d="M 2.192447 2.543118 L 2.153079 2.543118 " transform="matrix(600,0,0,-600,-102.569997,1565)"/>
<path style="fill:none;stroke-width:0.011;stroke-linecap:round;stroke-linejoin:miter;stroke:rgb(0%,0%,0%);stroke-opacity:1;stroke-miterlimit:10;" d="M 2.172773 2.543118 L 2.172773 2.602168 " transform="matrix(600,0,0,-600,-102.569997,1565)"/>
<path style="fill:none;stroke-width:0.011;stroke-linecap:round;stroke-linejoin:miter;stroke:rgb(0%,0%,0%);stroke-opacity:1;stroke-miterlimit:10;" d="M 2.172773 2.602168 L 2.153079 2.58248 " transform="matrix(600,0,0,-600,-102.569997,1565)"/>
<path style="fill:none;stroke-width:0.011;stroke-linecap:round;stroke-linejoin:miter;stroke:rgb(0%,0%,0%);stroke-opacity:1;stroke-miterlimit:10;" d="M 2.128001 2.592331 L 2.128001 2.552962 " transform="matrix(600,0,0,-600,-102.569997,1565)"/>
<path style="fill:none;stroke-width:0.011;stroke-linecap:round;stroke-linejoin:miter;stroke:rgb(0%,0%,0%);stroke-opacity:1;stroke-miterlimit:10;" d="M 2.128001 2.552962 L 2.118151 2.543118 " transform="matrix(600,0,0,-600,-102.569997,1565)"/>
<path style="fill:none;stroke-width:0.011;stroke-linecap:round;stroke-linejoin:miter;stroke:rgb(0%,0%,0%);stroke-opacity:1;stroke-miterlimit:10;" d="M 2.118151 2.543118 L 2.09847 2.543118 " transform="matrix(600,0,0,-600,-102.569997,1565)"/>
<path style="fill:none;stroke-width:0.011;stroke-linecap:round;stroke-linejoin:miter;stroke:rgb(0%,0%,0%);stroke-opacity:1;stroke-miterlimit:10;" d="M 2.09847 2.543118 L 2.088632 2.552962 " transform="matrix(600,0,0,-600,-102.569997,1565)"/>
<path style="fill:none;stroke-width:0.011;stroke-linecap:round;stroke-linejoin:miter;stroke:rgb(0%,0%,0%);stroke-opacity:1;stroke-miterlimit:10;" d="M 2.088632 2.552962 L 2.128001 2.592331 " transform="matrix(600,0,0,-600,-102.569997,1565)"/>
<path style="fill:none;stroke-width:0.011;stroke-linecap:round;stroke-linejoin:miter;stroke:rgb(0%,0%,0%);stroke-opacity:1;stroke-miterlimit:10;" d="M 2.128001 2.592331 L 2.118151 2.602168 " transform="matrix(600,0,0,-600,-102.569997,1565)"/>
<path style="fill:none;stroke-width:0.011;stroke-linecap:round;stroke-linejoin:miter;stroke:rgb(0%,0%,0%);stroke-opacity:1;stroke-miterlimit:10;" d="M 2.118151 2.602168 L 2.09847 2.602168 " transform="matrix(600,0,0,-600,-102.569997,1565)"/>
<path style="fill:none;stroke-width:0.011;stroke-linecap:round;stroke-linejoin:miter;stroke:rgb(0%,0%,0%);stroke-opacity:1;stroke-miterlimit:10;" d="M 2.09847 2.602168 L 2.088632 2.592331 " transform="matrix(600,0,0,-600,-102.569997,1565)"/>
<path style="fill:none;stroke-width:0.011;stroke-linecap:round;stroke-linejoin:miter;stroke:rgb(0%,0%,0%);stroke-opacity:1;stroke-miterlimit:10;" d="M 2.088632 2.592331 L 2.088632 2.552962 " transform="matrix(600,0,0,-600,-102.569997,1565)"/>
<path style="fill:none;stroke-width:0.011;stroke-linecap:round;stroke-linejoin:miter;stroke:rgb(0%,0%,0%);stroke-opacity:1;stroke-miterlimit:10;" d="M 2.063541 2.543118 L 2.024173 2.543118 " transform="matrix(600,0,0,-600,-102.569997,1565)"/>
<path style="fill:none;stroke-width:0.011;stroke-linecap:round;stroke-linejoin:miter;stroke:rgb(0%,0%,0%);stroke-opacity:1;stroke-miterlimit:10;" d="M 2.04386 2.543118 L 2.04386 2.602168 " transform="matrix(600,0,0,-600,-102.569997,1565)"/>
<path style="fill:none;stroke-width:0.011;stroke-linecap:round;stroke-linejoin:miter;stroke:rgb(0%,0%,0%);stroke-opacity:1;stroke-miterlimit:10;" d="M 2.04386 2.602168 L 2.024173 2.58248 " transform="matrix(600,0,0,-600,-102.569997,1565)"/>
<path style="fill:none;stroke-width:0.052;stroke-linecap:round;stroke-linejoin:miter;stroke:rgb(0%,0%,0%);stroke-opacity:1;stroke-miterlimit:10;" d="M 1.02595 0.988997 L 1.02595 1.041003 " transform="matrix(600,0,0,-600,-102.569997,1565)"/>
<path style="fill:none;stroke-width:0.052;stroke-linecap:round;stroke-linejoin:miter;stroke:rgb(0%,0%,0%);stroke-opacity:1;stroke-miterlimit:10;" d="M 1.12595 1.041003 L 1.12595 0.988997 " transform="matrix(600,0,0,-600,-102.569997,1565)"/>
<path style="fill:none;stroke-width:0.052;stroke-linecap:round;stroke-linejoin:miter;stroke:rgb(0%,0%,0%);stroke-opacity:1;stroke-miterlimit:10;" d="M 1.22595 0.988997 L 1.22595 1.041003 " transform="matrix(600,0,0,-600,-102.569997,1565)"/>
<path style="fill:none;stroke-width:0.052;stroke-linecap:round;stroke-linejoin:miter;stroke:rgb(0%,0%,0%);stroke-opacity:1;stroke-miterlimit:10;" d="M 1.32595 1.041003 L 1.32595 0.988997 " transform="matrix(600,0,0,-600,-102.569997,1565)"/>
<path style="fill:none;stroke-width:0.052;stroke-linecap:round;stroke-linejoin:miter;stroke:rgb(0%,0%,0%);stroke-opacity:1;stroke-miterlimit:10;" d="M 1.42595 0.988997 L 1.42595 1.041003 " transform="matrix(600,0,0,-600,-102.569997,1565)"/>
<path style="fill:none;stroke-width:0.052;stroke-linecap:round;stroke-linejoin:miter;stroke:rgb(0%,0%,0%);stroke-opacity:1;stroke-miterlimit:10;" d="M 1.52595 1.041003 L 1.52595 0.988997 " transform="matrix(600,0,0,-600,-102.569997,1565)"/>
<path style="fill:none;stroke-width:0.052;stroke-linecap:round;stroke-linejoin:miter;stroke:rgb(0%,0%,0%);stroke-opacity:1;stroke-miterlimit:10;" d="M 1.62595 0.988997 L 1.62595 1.041003 " transform="matrix(600,0,0,-600,-102.569997,1565)"/>
<path style="fill:none;stroke-width:0.052;stroke-linecap:round;stroke-linejoin:miter;stroke:rgb(0%,0%,0%);stroke-opacity:1;stroke-miterlimit:10;" d="M 1.72595 1.041003 L 1.72595 0.988997 " transform="matrix(600,0,0,-600,-102.569997,1565)"/>
<path style="fill:none;stroke-width:0.052;stroke-linecap:round;stroke-linejoin:miter;stroke:rgb(0%,0%,0%);stroke-opacity:1;stroke-miterlimit:10;" d="M 1.82595 0.988997 L 1.82595 1.041003 " transform="matrix(600,0,0,-600,-102.569997,1565)"/>
<path style="fill:none;stroke-width:0.052;stroke-linecap:round;stroke-linejoin:miter;stroke:rgb(0%,0%,0%);stroke-opacity:1;stroke-miterlimit:10;" d="M 1.92595 1.041003 L 1.92595 0.988997 " transform="matrix(600,0,0,-600,-102.569997,1565)"/>
<path style="fill:none;stroke-width:0.052;stroke-linecap:round;stroke-linejoin:miter;stroke:rgb(0%,0%,0%);stroke-opacity:1;stroke-miterlimit:10;" d="M 2.02595 0.988997 L 2.02595 1.041003 " transform="matrix(600,0,0,-600,-102.569997,1565)"/>
<path style="fill:none;stroke-width:0.052;stroke-linecap:round;stroke-linejoin:miter;stroke:rgb(0%,0%,0%);stroke-opacity:1;stroke-miterlimit:10;" d="M 2.12595 1.041003 L 2.12595 0.988997 " transform="matrix(600,0,0,-600,-102.569997,1565)"/>
<path style="fill:none;stroke-width:0.052;stroke-linecap:round;stroke-linejoin:miter;stroke:rgb(0%,0%,0%);stroke-opacity:1;stroke-miterlimit:10;" d="M 2.22595 0.988997 L 2.22595 1.041003 " transform="matrix(600,0,0,-600,-102.569997,1565)"/>
<path style="fill:none;stroke-width:0.052;stroke-linecap:round;stroke-linejoin:miter;stroke:rgb(0%,0%,0%);stroke-opacity:1;stroke-miterlimit:10;" d="M 2.32595 1.041003 L 2.32595 0.988997 " transform="matrix(600,0,0,-600,-102.569997,1565)"/>
<path style="fill:none;stroke-width:0.052;stroke-linecap:round;stroke-linejoin:miter;stroke:rgb(0%,0%,0%);stroke-opacity:1;stroke-miterlimit:10;" d="M 2.32595 1.288997 L 2.32595 1.341003 " transform="matrix(600,0,0,-600,-102.569997,1565)"/>
<path style="fill:none;stroke-width:0.052;stroke-linecap:round;stroke-linejoin:miter;stroke:rgb(0%,0%,0%);stroke-opacity:1;stroke-miterlimit:10;" d="M 2.22595 1.341003 L 2.22595 1.288997 " transform="matrix(600,0,0,-600,-102.569997,1565)"/>
<path style="fill:none;stroke-width:0.052;stroke-linecap:round;stroke-linejoin:miter;stroke:rgb(0%,0%,0%);stroke-opacity:1;stroke-miterlimit:10;" d="M 2.12595 1.288997 L 2.12595 1.341003 " transform="matrix(600,0,0,-600,-102.569997,1565)"/>
<path style="fill:none;stroke-width:0.052;stroke-linecap:round;stroke-linejoin:miter;stroke:rgb(0%,0%,0%);stroke-opacity:1;stroke-miterlimit:10;" d="M 2.02595 1.341003 L 2.02595 1.288997 " transform="matrix(600,0,0,-600,-102.569997,1565)"/>
<path style="fill:none;stroke-width:0.052;stroke-linecap:round;stroke-linejoin:miter;stroke:rgb(0%,0%,0%);stroke-opacity:1;stroke-miterlimit:10;" d="M 1.92595 1.288997 L 1.92595 1.341003 " transform="matrix(600,0,0,-600,-102.569997,1565)"/>
<path style="fill:none;stroke-width:0.052;stroke-linecap:round;stroke-linejoin:miter;stroke:rgb(0%,0%,0%);stroke-opacity:1;stroke-miterlimit:10;" d="M 1.82595 1.341003 L 1.82595 1.288997 " transform="matrix(600,0,0,-600,-102.569997,1565)"/>
<path style="fill:none;stroke-width:0.052;stroke-linecap:round;stroke-linejoin:miter;stroke:rgb(0%,0%,0%);stroke-opacity:1;stroke-miterlimit:10;" d="M 1.72595 1.288997 L 1.72595 1.341003 " transform="matrix(600,0,0,-600,-102.569997,1565)"/>
<path style="fill:none;stroke-width:0.052;stroke-linecap:round;stroke-linejoin:miter;stroke:rgb(0%,0%,0%);stroke-opacity:1;stroke-miterlimit:10;" d="M 1.62595 1.341003 L 1.62595 1.288997 " transform="matrix(600,0,0,-600,-102.569997,1565)"/>
<path style="fill:none;stroke-width:0.052;stroke-linecap:round;stroke-linejoin:miter;stroke:rgb(0%,0%,0%);stroke-opacity:1;stroke-miterlimit:10;" d="M 1.52595 1.288997 L 1.52595 1.341003 " transform="matrix(600,0,0,-600,-102.569997,1565)"/>
<path style="fill:none;stroke-width:0.052;stroke-linecap:round;stroke-linejoin:miter;stroke:rgb(0%,0%,0%);stroke-opacity:1;stroke-miterlimit:10;" d="M 1.42595 1.341003 L 1.42595 1.288997 " transform="matrix(600,0,0,-600,-102.569997,1565)"/>
<path style="fill:none;stroke-width:0.052;stroke-linecap:round;stroke-linejoin:miter;stroke:rgb(0%,0%,0%);stroke-opacity:1;stroke-miterlimit:10;" d="M 1.32595 1.288997 L 1.32595 1.341003 " transform="matrix(600,0,0,-600,-102.569997,1565)"/>
<path style="fill:none;stroke-width:0.052;stroke-linecap:round;stroke-linejoin:miter;stroke:rgb(0%,0%,0%);stroke-opacity:1;stroke-miterlimit:10;" d="M 1.22595 1.341003 L 1.22595 1.288997 " transform="matrix(600,0,0,-600,-102.569997,1565)"/>
<path style="fill:none;stroke-width:0.052;stroke-linecap:round;stroke-linejoin:miter;stroke:rgb(0%,0%,0%);stroke-opacity:1;stroke-miterlimit:10;" d="M 1.12595 1.288997 L 1.12595 1.341003 " transform="matrix(600,0,0,-600,-102.569997,1565)"/>
<path style="fill:none;stroke-width:0.052;stroke-linecap:round;stroke-linejoin:miter;stroke:rgb(0%,0%,0%);stroke-opacity:1;stroke-miterlimit:10;" d="M 1.02595 1.341003 L 1.02595 1.288997 " transform="matrix(600,0,0,-600,-102.569997,1565)"/>
<path style="fill:none;stroke-width:0.052;stroke-linecap:round;stroke-linejoin:miter;stroke:rgb(0%,0%,0%);stroke-opacity:1;stroke-miterlimit:10;" d="M 0.451953 1.815 L 0.399947 1.815 " transform="matrix(600,0,0,-600,-102.569997,1565)"/>
<path style="fill:none;stroke-width:0.052;stroke-linecap:round;stroke-linejoin:miter;stroke:rgb(0%,0%,0%);stroke-opacity:1;stroke-miterlimit:10;" d="M 0.399947 1.915 L 0.451953 1.915 " transform="matrix(600,0,0,-600,-102.569997,1565)"/>
<path style="fill:none;stroke-width:0.052;stroke-linecap:round;stroke-linejoin:miter;stroke:rgb(0%,0%,0%);stroke-opacity:1;stroke-miterlimit:10;" d="M 0.451953 2.015 L 0.399947 2.015 " transform="matrix(600,0,0,-600,-102.569997,1565)"/>
<path style="fill:none;stroke-width:0.052;stroke-linecap:round;stroke-linejoin:miter;stroke:rgb(0%,0%,0%);stroke-opacity:1;stroke-miterlimit:10;" d="M 0.64052 2.27168 L 0.64052 2.323678 " transform="matrix(600,0,0,-600,-102.569997,1565)"/>
<path style="fill:none;stroke-width:0.052;stroke-linecap:round;stroke-linejoin:miter;stroke:rgb(0%,0%,0%);stroke-opacity:1;stroke-miterlimit:10;" d="M 0.74052 2.323678 L 0.74052 2.27168 " transform="matrix(600,0,0,-600,-102.569997,1565)"/>
<path style="fill:none;stroke-width:0.052;stroke-linecap:round;stroke-linejoin:miter;stroke:rgb(0%,0%,0%);stroke-opacity:1;stroke-miterlimit:10;" d="M 0.84052 2.27168 L 0.84052 2.323678 " transform="matrix(600,0,0,-600,-102.569997,1565)"/>
<path style="fill:none;stroke-width:0.052;stroke-linecap:round;stroke-linejoin:miter;stroke:rgb(0%,0%,0%);stroke-opacity:1;stroke-miterlimit:10;" d="M 0.94052 2.323678 L 0.94052 2.27168 " transform="matrix(600,0,0,-600,-102.569997,1565)"/>
<path style="fill:none;stroke-width:0.052;stroke-linecap:round;stroke-linejoin:miter;stroke:rgb(0%,0%,0%);stroke-opacity:1;stroke-miterlimit:10;" d="M 1.04052 2.27168 L 1.04052 2.323678 " transform="matrix(600,0,0,-600,-102.569997,1565)"/>
<path style="fill:none;stroke-width:0.052;stroke-linecap:round;stroke-linejoin:miter;stroke:rgb(0%,0%,0%);stroke-opacity:1;stroke-miterlimit:10;" d="M 1.14052 2.323678 L 1.14052 2.27168 " transform="matrix(600,0,0,-600,-102.569997,1565)"/>
<path style="fill:none;stroke-width:0.052;stroke-linecap:round;stroke-linejoin:miter;stroke:rgb(0%,0%,0%);stroke-opacity:1;stroke-miterlimit:10;" d="M 1.24052 2.27168 L 1.24052 2.323678 " transform="matrix(600,0,0,-600,-102.569997,1565)"/>
<path style="fill:none;stroke-width:0.052;stroke-linecap:round;stroke-linejoin:miter;stroke:rgb(0%,0%,0%);stroke-opacity:1;stroke-miterlimit:10;" d="M 1.34052 2.323678 L 1.34052 2.27168 " transform="matrix(600,0,0,-600,-102.569997,1565)"/>
<path style="fill:none;stroke-width:0.052;stroke-linecap:round;stroke-linejoin:miter;stroke:rgb(0%,0%,0%);stroke-opacity:1;stroke-miterlimit:10;" d="M 1.44052 2.27168 L 1.44052 2.323678 " transform="matrix(600,0,0,-600,-102.569997,1565)"/>
<path style="fill:none;stroke-width:0.052;stroke-linecap:round;stroke-linejoin:miter;stroke:rgb(0%,0%,0%);stroke-opacity:1;stroke-miterlimit:10;" d="M 1.54052 2.323678 L 1.54052 2.27168 " transform="matrix(600,0,0,-600,-102.569997,1565)"/>
<path style="fill:none;stroke-width:0.052;stroke-linecap:round;stroke-linejoin:miter;stroke:rgb(0%,0%,0%);stroke-opacity:1;stroke-miterlimit:10;" d="M 1.64052 2.27168 L 1.64052 2.323678 " transform="matrix(600,0,0,-600,-102.569997,1565)"/>
<path style="fill:none;stroke-width:0.052;stroke-linecap:round;stroke-linejoin:miter;stroke:rgb(0%,0%,0%);stroke-opacity:1;stroke-miterlimit:10;" d="M 1.74052 2.323678 L 1.74052 2.27168 " transform="matrix(600,0,0,-600,-102.569997,1565)"/>
<path style="fill:none;stroke-width:0.052;stroke-linecap:round;stroke-linejoin:miter;stroke:rgb(0%,0%,0%);stroke-opacity:1;stroke-miterlimit:10;" d="M 1.84052 2.27168 L 1.84052 2.323678 " transform="matrix(600,0,0,-600,-102.569997,1565)"/>
<path style="fill:none;stroke-width:0.052;stroke-linecap:round;stroke-linejoin:miter;stroke:rgb(0%,0%,0%);stroke-opacity:1;stroke-miterlimit:10;" d="M 1.94052 2.323678 L 1.94052 2.27168 " transform="matrix(600,0,0,-600,-102.569997,1565)"/>
<path style="fill:none;stroke-width:0.052;stroke-linecap:round;stroke-linejoin:miter;stroke:rgb(0%,0%,0%);stroke-opacity:1;stroke-miterlimit:10;" d="M 2.04052 2.27168 L 2.04052 2.323678 " transform="matrix(600,0,0,-600,-102.569997,1565)"/>
<path style="fill:none;stroke-width:0.052;stroke-linecap:round;stroke-linejoin:miter;stroke:rgb(0%,0%,0%);stroke-opacity:1;stroke-miterlimit:10;" d="M 2.14052 2.323678 L 2.14052 2.27168 " transform="matrix(600,0,0,-600,-102.569997,1565)"/>
<path style=" stroke:none;fill-rule:evenodd;fill:rgb(0%,0%,0%);fill-opacity:1;" d="M 1402.800781 386 C 1402.800781 359.601562 1363.199219 359.601562 1363.199219 386 C 1363.199219 412.398438 1402.800781 412.398438 1402.800781 386 "/>
<path style=" stroke:none;fill-rule:evenodd;fill:rgb(0%,0%,0%);fill-opacity:1;" d="M 982.800781 386 C 982.800781 359.601562 943.199219 359.601562 943.199219 386 C 943.199219 412.398438 982.800781 412.398438 982.800781 386 "/>
<path style=" stroke:none;fill-rule:evenodd;fill:rgb(0%,0%,0%);fill-opacity:1;" d="M 1402.800781 806 C 1402.800781 779.601562 1363.199219 779.601562 1363.199219 806 C 1363.199219 832.398438 1402.800781 832.398438 1402.800781 806 "/>
<path style=" stroke:none;fill-rule:evenodd;fill:rgb(0%,0%,0%);fill-opacity:1;" d="M 1612.800781 776 C 1612.800781 749.601562 1573.199219 749.601562 1573.199219 776 C 1573.199219 802.398438 1612.800781 802.398438 1612.800781 776 "/>
<path style=" stroke:none;fill-rule:evenodd;fill:rgb(0%,0%,0%);fill-opacity:1;" d="M 1612.800781 956 C 1612.800781 929.601562 1573.199219 929.601562 1573.199219 956 C 1573.199219 982.398438 1612.800781 982.398438 1612.800781 956 "/>
<path style=" stroke:none;fill-rule:evenodd;fill:rgb(0%,0%,0%);fill-opacity:1;" d="M 1402.800781 956 C 1402.800781 929.601562 1363.199219 929.601562 1363.199219 956 C 1363.199219 982.398438 1402.800781 982.398438 1402.800781 956 "/>
<path style=" stroke:none;fill-rule:evenodd;fill:rgb(0%,0%,0%);fill-opacity:1;" d="M 1129.800781 1166 C 1129.800781 1139.601562 1090.199219 1139.601562 1090.199219 1166 C 1090.199219 1192.398438 1129.800781 1192.398438 1129.800781 1166 "/>
<path style=" stroke:none;fill-rule:evenodd;fill:rgb(0%,0%,0%);fill-opacity:1;" d="M 1015.800781 1166 C 1015.800781 1139.601562 976.199219 1139.601562 976.199219 1166 C 976.199219 1192.398438 1015.800781 1192.398438 1015.800781 1166 "/>
<path style=" stroke:none;fill-rule:evenodd;fill:rgb(0%,0%,0%);fill-opacity:1;" d="M 1042.5 1346 C 1042.5 1320 1003.5 1320 1003.5 1346 C 1003.5 1372 1042.5 1372 1042.5 1346 "/>
<path style=" stroke:none;fill-rule:evenodd;fill:rgb(0%,0%,0%);fill-opacity:1;" d="M 1042.5 1406 C 1042.5 1380 1003.5 1380 1003.5 1406 C 1003.5 1432 1042.5 1432 1042.5 1406 "/>
<path style=" stroke:none;fill-rule:evenodd;fill:rgb(0%,0%,0%);fill-opacity:1;" d="M 1132.5 1406 C 1132.5 1380 1093.5 1380 1093.5 1406 C 1093.5 1432 1132.5 1432 1132.5 1406 "/>
<path style=" stroke:none;fill-rule:evenodd;fill:rgb(0%,0%,0%);fill-opacity:1;" d="M 1132.5 1346 C 1132.5 1320 1093.5 1320 1093.5 1346 C 1093.5 1372 1132.5 1372 1132.5 1346 "/>
<path style=" stroke:none;fill-rule:evenodd;fill:rgb(0%,0%,0%);fill-opacity:1;" d="M 952.5 596 C 952.5 570 913.5 570 913.5 596 C 913.5 622 952.5 622 952.5 596 "/>
<path style=" stroke:none;fill-rule:evenodd;fill:rgb(0%,0%,0%);fill-opacity:1;" d="M 892.5 596 C 892.5 570 853.5 570 853.5 596 C 853.5 622 892.5 622 892.5 596 "/>
<path style=" stroke:none;fill-rule:evenodd;fill:rgb(0%,0%,0%);fill-opacity:1;" d="M 1855.199219 286.804688 L 1842.195312 273.800781 L 1823.804688 273.800781 L 1810.800781 286.804688 L 1810.800781 305.195312 L 1823.804688 318.199219 L 1842.195312 318.199219 L 1855.199219 305.195312 L 1855.199219 286.804688 "/>
<path style=" stroke:none;fill-rule:evenodd;fill:rgb(0%,0%,0%);fill-opacity:1;" d="M 1915.199219 286.804688 L 1902.195312 273.800781 L 1883.804688 273.800781 L 1870.800781 286.804688 L 1870.800781 305.195312 L 1883.804688 318.199219 L 1902.195312 318.199219 L 1915.199219 305.195312 L 1915.199219 286.804688 "/>
<path style=" stroke:none;fill-rule:evenodd;fill:rgb(0%,0%,0%);fill-opacity:1;" d="M 1975.199219 286.804688 L 1962.195312 273.800781 L 1943.804688 273.800781 L 1930.800781 286.804688 L 1930.800781 305.195312 L 1943.804688 318.199219 L 1962.195312 318.199219 L 1975.199219 305.195312 L 1975.199219 286.804688 "/>
<path style=" stroke:none;fill-rule:evenodd;fill:rgb(0%,0%,0%);fill-opacity:1;" d="M 2035.199219 286.804688 L 2022.195312 273.800781 L 2003.804688 273.800781 L 1990.800781 286.804688 L 1990.800781 305.195312 L 2003.804688 318.199219 L 2022.195312 318.199219 L 2035.199219 305.195312 L 2035.199219 286.804688 "/>
<path style=" stroke:none;fill-rule:evenodd;fill:rgb(0%,0%,0%);fill-opacity:1;" d="M 2095.199219 286.804688 L 2082.195312 273.800781 L 2063.804688 273.800781 L 2050.800781 286.804688 L 2050.800781 305.195312 L 2063.804688 318.199219 L 2082.195312 318.199219 L 2095.199219 305.195312 L 2095.199219 286.804688 "/>
<path style=" stroke:none;fill-rule:evenodd;fill:rgb(0%,0%,0%);fill-opacity:1;" d="M 2095.199219 226.804688 L 2082.195312 213.800781 L 2063.804688 213.800781 L 2050.800781 226.804688 L 2050.800781 245.195312 L 2063.804688 258.199219 L 2082.195312 258.199219 L 2095.199219 245.195312 L 2095.199219 226.804688 "/>
<path style=" stroke:none;fill-rule:evenodd;fill:rgb(0%,0%,0%);fill-opacity:1;" d="M 2035.199219 226.804688 L 2022.195312 213.800781 L 2003.804688 213.800781 L 1990.800781 226.804688 L 1990.800781 245.195312 L 2003.804688 258.199219 L 2022.195312 258.199219 L 2035.199219 245.195312 L 2035.199219 226.804688 "/>
<path style=" stroke:none;fill-rule:evenodd;fill:rgb(0%,0%,0%);fill-opacity:1;" d="M 1975.199219 226.804688 L 1962.195312 213.800781 L 1943.804688 213.800781 L 1930.800781 226.804688 L 1930.800781 245.195312 L 1943.804688 258.199219 L 1962.195312 258.199219 L 1975.199219 245.195312 L 1975.199219 226.804688 "/>
<path style=" stroke:none;fill-rule:evenodd;fill:rgb(0%,0%,0%);fill-opacity:1;" d="M 1915.199219 226.804688 L 1902.195312 213.800781 L 1883.804688 213.800781 L 1870.800781 226.804688 L 1870.800781 245.195312 L 1883.804688 258.199219 L 1902.195312 258.199219 L 1915.199219 245.195312 L 1915.199219 226.804688 "/>
<path style=" stroke:none;fill-rule:evenodd;fill:rgb(0%,0%,0%);fill-opacity:1;" d="M 1855.199219 226.804688 L 1842.195312 213.800781 L 1823.804688 213.800781 L 1810.800781 226.804688 L 1810.800781 245.195312 L 1823.804688 258.199219 L 1842.195312 258.199219 L 1855.199219 245.195312 L 1855.199219 226.804688 "/>
<path style="fill:none;stroke-width:0.06;stroke-linecap:round;stroke-linejoin:miter;stroke:rgb(0%,0%,0%);stroke-opacity:1;stroke-miterlimit:10;" d="M 0.57595 0.395 L 0.57595 0.335 " transform="matrix(600,0,0,-600,-102.569997,1565)"/>
<path style="fill:none;stroke-width:0.06;stroke-linecap:round;stroke-linejoin:miter;stroke:rgb(0%,0%,0%);stroke-opacity:1;stroke-miterlimit:10;" d="M 0.67595 0.335 L 0.67595 0.395 " transform="matrix(600,0,0,-600,-102.569997,1565)"/>
<path style="fill:none;stroke-width:0.06;stroke-linecap:round;stroke-linejoin:miter;stroke:rgb(0%,0%,0%);stroke-opacity:1;stroke-miterlimit:10;" d="M 0.77595 0.395 L 0.77595 0.335 " transform="matrix(600,0,0,-600,-102.569997,1565)"/>
<path style="fill:none;stroke-width:0.06;stroke-linecap:round;stroke-linejoin:miter;stroke:rgb(0%,0%,0%);stroke-opacity:1;stroke-miterlimit:10;" d="M 0.87595 0.335 L 0.87595 0.395 " transform="matrix(600,0,0,-600,-102.569997,1565)"/>
<path style="fill:none;stroke-width:0.06;stroke-linecap:round;stroke-linejoin:miter;stroke:rgb(0%,0%,0%);stroke-opacity:1;stroke-miterlimit:10;" d="M 0.45595 0.665 L 0.39595 0.665 " transform="matrix(600,0,0,-600,-102.569997,1565)"/>
<path style="fill:none;stroke-width:0.06;stroke-linecap:round;stroke-linejoin:miter;stroke:rgb(0%,0%,0%);stroke-opacity:1;stroke-miterlimit:10;" d="M 0.39595 0.765 L 0.45595 0.765 " transform="matrix(600,0,0,-600,-102.569997,1565)"/>
<path style="fill:none;stroke-width:0.06;stroke-linecap:round;stroke-linejoin:miter;stroke:rgb(0%,0%,0%);stroke-opacity:1;stroke-miterlimit:10;" d="M 0.45595 0.865 L 0.39595 0.865 " transform="matrix(600,0,0,-600,-102.569997,1565)"/>
<path style="fill:none;stroke-width:0.06;stroke-linecap:round;stroke-linejoin:miter;stroke:rgb(0%,0%,0%);stroke-opacity:1;stroke-miterlimit:10;" d="M 0.39595 1.115 L 0.45595 1.115 " transform="matrix(600,0,0,-600,-102.569997,1565)"/>
<path style="fill:none;stroke-width:0.06;stroke-linecap:round;stroke-linejoin:miter;stroke:rgb(0%,0%,0%);stroke-opacity:1;stroke-miterlimit:10;" d="M 0.45595 1.215 L 0.39595 1.215 " transform="matrix(600,0,0,-600,-102.569997,1565)"/>
<path style="fill:none;stroke-width:0.06;stroke-linecap:round;stroke-linejoin:miter;stroke:rgb(0%,0%,0%);stroke-opacity:1;stroke-miterlimit:10;" d="M 0.39595 1.315 L 0.45595 1.315 " transform="matrix(600,0,0,-600,-102.569997,1565)"/>
<path style="fill:none;stroke-width:0.06;stroke-linecap:round;stroke-linejoin:miter;stroke:rgb(0%,0%,0%);stroke-opacity:1;stroke-miterlimit:10;" d="M 0.45595 1.565 L 0.39595 1.565 " transform="matrix(600,0,0,-600,-102.569997,1565)"/>
<path style="fill:none;stroke-width:0.06;stroke-linecap:round;stroke-linejoin:miter;stroke:rgb(0%,0%,0%);stroke-opacity:1;stroke-miterlimit:10;" d="M 0.39595 1.665 L 0.45595 1.665 " transform="matrix(600,0,0,-600,-102.569997,1565)"/>
<path style="fill:none;stroke-width:0.06;stroke-linecap:round;stroke-linejoin:miter;stroke:rgb(0%,0%,0%);stroke-opacity:1;stroke-miterlimit:10;" d="M 1.32595 0.395 L 1.32595 0.335 " transform="matrix(600,0,0,-600,-102.569997,1565)"/>
<path style="fill:none;stroke-width:0.06;stroke-linecap:round;stroke-linejoin:miter;stroke:rgb(0%,0%,0%);stroke-opacity:1;stroke-miterlimit:10;" d="M 1.42595 0.335 L 1.42595 0.395 " transform="matrix(600,0,0,-600,-102.569997,1565)"/>
<path style="fill:none;stroke-width:0.06;stroke-linecap:round;stroke-linejoin:miter;stroke:rgb(0%,0%,0%);stroke-opacity:1;stroke-miterlimit:10;" d="M 1.52595 0.395 L 1.52595 0.335 " transform="matrix(600,0,0,-600,-102.569997,1565)"/>
<path style="fill:none;stroke-width:0.06;stroke-linecap:round;stroke-linejoin:miter;stroke:rgb(0%,0%,0%);stroke-opacity:1;stroke-miterlimit:10;" d="M 1.62595 0.335 L 1.62595 0.395 " transform="matrix(600,0,0,-600,-102.569997,1565)"/>
<path style="fill:none;stroke-width:0.06;stroke-linecap:round;stroke-linejoin:miter;stroke:rgb(0%,0%,0%);stroke-opacity:1;stroke-miterlimit:10;" d="M 2.47595 0.395 L 2.47595 0.335 " transform="matrix(600,0,0,-600,-102.569997,1565)"/>
<path style="fill:none;stroke-width:0.06;stroke-linecap:round;stroke-linejoin:miter;stroke:rgb(0%,0%,0%);stroke-opacity:1;stroke-miterlimit:10;" d="M 2.57595 0.335 L 2.57595 0.395 " transform="matrix(600,0,0,-600,-102.569997,1565)"/>
<path style="fill:none;stroke-width:0.06;stroke-linecap:round;stroke-linejoin:miter;stroke:rgb(0%,0%,0%);stroke-opacity:1;stroke-miterlimit:10;" d="M 2.67595 0.395 L 2.67595 0.335 " transform="matrix(600,0,0,-600,-102.569997,1565)"/>
<path style="fill:none;stroke-width:0.06;stroke-linecap:round;stroke-linejoin:miter;stroke:rgb(0%,0%,0%);stroke-opacity:1;stroke-miterlimit:10;" d="M 2.77595 0.335 L 2.77595 0.395 " transform="matrix(600,0,0,-600,-102.569997,1565)"/>
<path style="fill:none;stroke-width:0.06;stroke-linecap:round;stroke-linejoin:miter;stroke:rgb(0%,0%,0%);stroke-opacity:1;stroke-miterlimit:10;" d="M 2.87595 0.395 L 2.87595 0.335 " transform="matrix(600,0,0,-600,-102.569997,1565)"/>
<path style="fill:none;stroke-width:0.06;stroke-linecap:round;stroke-linejoin:miter;stroke:rgb(0%,0%,0%);stroke-opacity:1;stroke-miterlimit:10;" d="M 2.97595 0.335 L 2.97595 0.395 " transform="matrix(600,0,0,-600,-102.569997,1565)"/>
<path style="fill:none;stroke-width:0.06;stroke-linecap:round;stroke-linejoin:miter;stroke:rgb(0%,0%,0%);stroke-opacity:1;stroke-miterlimit:10;" d="M 3.52595 0.395 L 3.52595 0.335 " transform="matrix(600,0,0,-600,-102.569997,1565)"/>
<path style="fill:none;stroke-width:0.06;stroke-linecap:round;stroke-linejoin:miter;stroke:rgb(0%,0%,0%);stroke-opacity:1;stroke-miterlimit:10;" d="M 3.62595 0.335 L 3.62595 0.395 " transform="matrix(600,0,0,-600,-102.569997,1565)"/>
<path style=" stroke:none;fill-rule:evenodd;fill:rgb(0%,0%,0%);fill-opacity:1;" d="M 2161.800781 702.800781 C 2161.800781 673.199219 2117.398438 673.199219 2117.398438 702.800781 C 2117.398438 732.398438 2161.800781 732.398438 2161.800781 702.800781 "/>
<path style=" stroke:none;fill-rule:evenodd;fill:rgb(0%,0%,0%);fill-opacity:1;" d="M 2268.601562 702.800781 C 2268.601562 673.199219 2224.199219 673.199219 2224.199219 702.800781 C 2224.199219 732.398438 2268.601562 732.398438 2268.601562 702.800781 "/>
<path style=" stroke:none;fill-rule:evenodd;fill:rgb(0%,0%,0%);fill-opacity:1;" d="M 2268.601562 549.199219 C 2268.601562 519.601562 2224.199219 519.601562 2224.199219 549.199219 C 2224.199219 578.800781 2268.601562 578.800781 2268.601562 549.199219 "/>
<path style=" stroke:none;fill-rule:evenodd;fill:rgb(0%,0%,0%);fill-opacity:1;" d="M 2161.800781 549.199219 C 2161.800781 519.601562 2117.398438 519.601562 2117.398438 549.199219 C 2117.398438 578.800781 2161.800781 578.800781 2161.800781 549.199219 "/>
<path style=" stroke:none;fill-rule:evenodd;fill:rgb(0%,0%,0%);fill-opacity:1;" d="M 1705.199219 446 C 1705.199219 416.398438 1660.800781 416.398438 1660.800781 446 C 1660.800781 475.601562 1705.199219 475.601562 1705.199219 446 "/>
<path style=" stroke:none;fill-rule:evenodd;fill:rgb(0%,0%,0%);fill-opacity:1;" d="M 1615.199219 386 C 1615.199219 356.398438 1570.800781 356.398438 1570.800781 386 C 1570.800781 415.601562 1615.199219 415.601562 1615.199219 386 "/>
<path style=" stroke:none;fill-rule:evenodd;fill:rgb(0%,0%,0%);fill-opacity:1;" d="M 1615.199219 686 C 1615.199219 656.398438 1570.800781 656.398438 1570.800781 686 C 1570.800781 715.601562 1615.199219 715.601562 1615.199219 686 "/>
<path style=" stroke:none;fill-rule:evenodd;fill:rgb(0%,0%,0%);fill-opacity:1;" d="M 1705.199219 686 C 1705.199219 656.398438 1660.800781 656.398438 1660.800781 686 C 1660.800781 715.601562 1705.199219 715.601562 1705.199219 686 "/>
<path style="fill:none;stroke-width:0.012;stroke-linecap:round;stroke-linejoin:miter;stroke:rgb(0%,0%,0%);stroke-opacity:1;stroke-miterlimit:10;" d="M 2.82595 1.315 L 2.82595 1.015 " transform="matrix(600,0,0,-600,-102.569997,1565)"/>
<path style="fill:none;stroke-width:0.012;stroke-linecap:round;stroke-linejoin:miter;stroke:rgb(0%,0%,0%);stroke-opacity:1;stroke-miterlimit:10;" d="M 2.47595 1.015 L 2.47595 1.265 " transform="matrix(600,0,0,-600,-102.569997,1565)"/>
<path style="fill:none;stroke-width:0.012;stroke-linecap:round;stroke-linejoin:miter;stroke:rgb(0%,0%,0%);stroke-opacity:1;stroke-miterlimit:10;" d="M 2.57595 1.265 L 2.57595 0.615 " transform="matrix(600,0,0,-600,-102.569997,1565)"/>
<path style="fill:none;stroke-width:0.012;stroke-linecap:round;stroke-linejoin:miter;stroke:rgb(0%,0%,0%);stroke-opacity:1;stroke-miterlimit:10;" d="M 2.67595 0.615 L 2.67595 1.265 " transform="matrix(600,0,0,-600,-102.569997,1565)"/>
<path style="fill:none;stroke-width:0.012;stroke-linecap:round;stroke-linejoin:miter;stroke:rgb(0%,0%,0%);stroke-opacity:1;stroke-miterlimit:10;" d="M 2.57595 1.465 L 1.97595 1.465 " transform="matrix(600,0,0,-600,-102.569997,1565)"/>
<path style="fill:none;stroke-width:0.012;stroke-linecap:round;stroke-linejoin:miter;stroke:rgb(0%,0%,0%);stroke-opacity:1;stroke-miterlimit:10;" d="M 1.97595 1.465 L 1.92595 1.515 " transform="matrix(600,0,0,-600,-102.569997,1565)"/>
<path style="fill:none;stroke-width:0.012;stroke-linecap:round;stroke-linejoin:miter;stroke:rgb(0%,0%,0%);stroke-opacity:1;stroke-miterlimit:10;" d="M 1.92595 1.515 L 1.32595 1.515 " transform="matrix(600,0,0,-600,-102.569997,1565)"/>
<path style="fill:none;stroke-width:0.012;stroke-linecap:round;stroke-linejoin:miter;stroke:rgb(0%,0%,0%);stroke-opacity:1;stroke-miterlimit:10;" d="M 1.42595 1.665 L 1.42595 1.865 " transform="matrix(600,0,0,-600,-102.569997,1565)"/>
<path style="fill:none;stroke-width:0.012;stroke-linecap:round;stroke-linejoin:miter;stroke:rgb(0%,0%,0%);stroke-opacity:1;stroke-miterlimit:10;" d="M 1.62595 2.065 L 2.32595 2.065 " transform="matrix(600,0,0,-600,-102.569997,1565)"/>
<path style="fill:none;stroke-width:0.012;stroke-linecap:round;stroke-linejoin:miter;stroke:rgb(0%,0%,0%);stroke-opacity:1;stroke-miterlimit:10;" d="M 2.47595 1.965 L 1.77595 1.965 " transform="matrix(600,0,0,-600,-102.569997,1565)"/>
<path style="fill:none;stroke-width:0.012;stroke-linecap:round;stroke-linejoin:miter;stroke:rgb(0%,0%,0%);stroke-opacity:1;stroke-miterlimit:10;" d="M 1.77595 1.865 L 2.67595 1.865 " transform="matrix(600,0,0,-600,-102.569997,1565)"/>
<path style="fill:none;stroke-width:0.012;stroke-linecap:round;stroke-linejoin:miter;stroke:rgb(0%,0%,0%);stroke-opacity:1;stroke-miterlimit:10;" d="M 2.67595 1.765 L 2.12595 1.765 " transform="matrix(600,0,0,-600,-102.569997,1565)"/>
<path style="fill:none;stroke-width:0.012;stroke-linecap:round;stroke-linejoin:miter;stroke:rgb(0%,0%,0%);stroke-opacity:1;stroke-miterlimit:10;" d="M 1.92595 1.665 L 2.67595 1.665 " transform="matrix(600,0,0,-600,-102.569997,1565)"/>
<path style="fill:none;stroke-width:0.012;stroke-linecap:round;stroke-linejoin:miter;stroke:rgb(0%,0%,0%);stroke-opacity:1;stroke-miterlimit:10;" d="M 2.67595 1.565 L 2.02595 1.565 " transform="matrix(600,0,0,-600,-102.569997,1565)"/>
<path style="fill:none;stroke-width:0.012;stroke-linecap:round;stroke-linejoin:miter;stroke:rgb(0%,0%,0%);stroke-opacity:1;stroke-miterlimit:10;" d="M 1.82595 1.165 L 1.52595 1.165 " transform="matrix(600,0,0,-600,-102.569997,1565)"/>
<path style="fill:none;stroke-width:0.012;stroke-linecap:round;stroke-linejoin:miter;stroke:rgb(0%,0%,0%);stroke-opacity:1;stroke-miterlimit:10;" d="M 1.62595 0.865 L 1.02595 0.865 " transform="matrix(600,0,0,-600,-102.569997,1565)"/>
<path style="fill:none;stroke-width:0.012;stroke-linecap:round;stroke-linejoin:miter;stroke:rgb(0%,0%,0%);stroke-opacity:1;stroke-miterlimit:10;" d="M 0.82595 1.015 L 0.82595 1.515 " transform="matrix(600,0,0,-600,-102.569997,1565)"/>
<path style="fill:none;stroke-width:0.012;stroke-linecap:round;stroke-linejoin:miter;stroke:rgb(0%,0%,0%);stroke-opacity:1;stroke-miterlimit:10;" d="M 0.57595 1.515 L 0.57595 2.015 " transform="matrix(600,0,0,-600,-102.569997,1565)"/>
<path style="fill:none;stroke-width:0.012;stroke-linecap:round;stroke-linejoin:miter;stroke:rgb(0%,0%,0%);stroke-opacity:1;stroke-miterlimit:10;" d="M 1.62595 0.515 L 2.17595 0.515 " transform="matrix(600,0,0,-600,-102.569997,1565)"/>
<path style="fill:none;stroke-width:0.012;stroke-linecap:round;stroke-linejoin:miter;stroke:rgb(0%,0%,0%);stroke-opacity:1;stroke-miterlimit:10;" d="M 2.47595 0.515 L 3.12595 0.515 " transform="matrix(600,0,0,-600,-102.569997,1565)"/>
<path style="fill:none;stroke-width:0.012;stroke-linecap:round;stroke-linejoin:miter;stroke:rgb(0%,0%,0%);stroke-opacity:1;stroke-miterlimit:10;" d="M 3.42595 1.465 L 3.42595 1.965 " transform="matrix(600,0,0,-600,-102.569997,1565)"/>
<path style=" stroke:none;fill-rule:evenodd;fill:rgb(0%,0%,0%);fill-opacity:1;" d="M 1974 386 C 1974 358 1932 358 1932 386 C 1932 414 1974 414 1974 386 "/>
<path style=" stroke:none;fill-rule:evenodd;fill:rgb(0%,0%,0%);fill-opacity:1;" d="M 1974 686 C 1974 658 1932 658 1932 686 C 1932 714 1974 714 1974 686 "/>
<path style=" stroke:none;fill-rule:evenodd;fill:rgb(0%,0%,0%);fill-opacity:1;" d="M 1524 626 C 1524 598 1482 598 1482 626 C 1482 654 1524 654 1524 626 "/>
<path style=" stroke:none;fill-rule:evenodd;fill:rgb(0%,0%,0%);fill-opacity:1;" d="M 1524 566 C 1524 538 1482 538 1482 566 C 1482 594 1524 594 1524 566 "/>
<path style=" stroke:none;fill-rule:evenodd;fill:rgb(0%,0%,0%);fill-opacity:1;" d="M 1524 506 C 1524 478 1482 478 1482 506 C 1482 534 1524 534 1524 506 "/>
<path style=" stroke:none;fill-rule:evenodd;fill:rgb(0%,0%,0%);fill-opacity:1;" d="M 1524 446 C 1524 418 1482 418 1482 446 C 1482 474 1524 474 1524 446 "/>
<path style=" stroke:none;fill-rule:evenodd;fill:rgb(0%,0%,0%);fill-opacity:1;" d="M 1314 326 C 1314 298 1272 298 1272 326 C 1272 354 1314 354 1314 326 "/>
<path style=" stroke:none;fill-rule:evenodd;fill:rgb(0%,0%,0%);fill-opacity:1;" d="M 1194 506 C 1194 478 1152 478 1152 506 C 1152 534 1194 534 1194 506 "/>
<path style=" stroke:none;fill-rule:evenodd;fill:rgb(0%,0%,0%);fill-opacity:1;" d="M 1074 566 C 1074 538 1032 538 1032 566 C 1032 594 1074 594 1074 566 "/>
<path style=" stroke:none;fill-rule:evenodd;fill:rgb(0%,0%,0%);fill-opacity:1;" d="M 1134 626 C 1134 598 1092 598 1092 626 C 1092 654 1134 654 1134 626 "/>
<path style=" stroke:none;fill-rule:evenodd;fill:rgb(0%,0%,0%);fill-opacity:1;" d="M 984 446 C 984 418 942 418 942 446 C 942 474 984 474 984 446 "/>
<path style=" stroke:none;fill-rule:evenodd;fill:rgb(0%,0%,0%);fill-opacity:1;" d="M 894 326 C 894 298 852 298 852 326 C 852 354 894 354 894 326 "/>
<path style=" stroke:none;fill-rule:evenodd;fill:rgb(0%,0%,0%);fill-opacity:1;" d="M 774 446 C 774 418 732 418 732 446 C 732 474 774 474 774 446 "/>
<path style=" stroke:none;fill-rule:evenodd;fill:rgb(0%,0%,0%);fill-opacity:1;" d="M 774 566 C 774 538 732 538 732 566 C 732 594 774 594 774 566 "/>
<path style=" stroke:none;fill-rule:evenodd;fill:rgb(0%,0%,0%);fill-opacity:1;" d="M 714 656 C 714 628 672 628 672 656 C 672 684 714 684 714 656 "/>
<path style=" stroke:none;fill-rule:evenodd;fill:rgb(0%,0%,0%);fill-opacity:1;" d="M 714 716 C 714 688 672 688 672 716 C 672 744 714 744 714 716 "/>
<path style=" stroke:none;fill-rule:evenodd;fill:rgb(0%,0%,0%);fill-opacity:1;" d="M 834 866 C 834 838 792 838 792 866 C 792 894 834 894 834 866 "/>
<path style=" stroke:none;fill-rule:evenodd;fill:rgb(0%,0%,0%);fill-opacity:1;" d="M 1014 866 C 1014 838 972 838 972 866 C 972 894 1014 894 1014 866 "/>
<path style=" stroke:none;fill-rule:evenodd;fill:rgb(0%,0%,0%);fill-opacity:1;" d="M 894 1046 C 894 1018 852 1018 852 1046 C 852 1074 894 1074 894 1046 "/>
<path style=" stroke:none;fill-rule:evenodd;fill:rgb(0%,0%,0%);fill-opacity:1;" d="M 894 1256 C 894 1228 852 1228 852 1256 C 852 1284 894 1284 894 1256 "/>
<path style=" stroke:none;fill-rule:evenodd;fill:rgb(0%,0%,0%);fill-opacity:1;" d="M 1224 1256 C 1224 1228 1182 1228 1182 1256 C 1182 1284 1224 1284 1224 1256 "/>
<path style=" stroke:none;fill-rule:evenodd;fill:rgb(0%,0%,0%);fill-opacity:1;" d="M 1404 1256 C 1404 1228 1362 1228 1362 1256 C 1362 1284 1404 1284 1404 1256 "/>
<path style=" stroke:none;fill-rule:evenodd;fill:rgb(0%,0%,0%);fill-opacity:1;" d="M 1464 1196 C 1464 1168 1422 1168 1422 1196 C 1422 1224 1464 1224 1464 1196 "/>
<path style=" stroke:none;fill-rule:evenodd;fill:rgb(0%,0%,0%);fill-opacity:1;" d="M 1524 1196 C 1524 1168 1482 1168 1482 1196 C 1482 1224 1524 1224 1524 1196 "/>
<path style=" stroke:none;fill-rule:evenodd;fill:rgb(0%,0%,0%);fill-opacity:1;" d="M 1794 1256 C 1794 1228 1752 1228 1752 1256 C 1752 1284 1794 1284 1794 1256 "/>
<path style=" stroke:none;fill-rule:evenodd;fill:rgb(0%,0%,0%);fill-opacity:1;" d="M 1524 806 C 1524 778 1482 778 1482 806 C 1482 834 1524 834 1524 806 "/>
<path style=" stroke:none;fill-rule:evenodd;fill:rgb(0%,0%,0%);fill-opacity:1;" d="M 1464 806 C 1464 778 1422 778 1422 806 C 1422 834 1464 834 1464 806 "/>
<path style=" stroke:none;fill-rule:evenodd;fill:rgb(0%,0%,0%);fill-opacity:1;" d="M 1464 746 C 1464 718 1422 718 1422 746 C 1422 774 1464 774 1464 746 "/>
<path style=" stroke:none;fill-rule:evenodd;fill:rgb(0%,0%,0%);fill-opacity:1;" d="M 1464 686 C 1464 658 1422 658 1422 686 C 1422 714 1464 714 1464 686 "/>
<path style=" stroke:none;fill-rule:evenodd;fill:rgb(0%,0%,0%);fill-opacity:1;" d="M 534 1046 C 534 1018 492 1018 492 1046 C 492 1074 534 1074 534 1046 "/>
<path style=" stroke:none;fill-rule:evenodd;fill:rgb(0%,0%,0%);fill-opacity:1;" d="M 414 956 C 414 928 372 928 372 956 C 372 984 414 984 414 956 "/>
<path style=" stroke:none;fill-rule:evenodd;fill:rgb(0%,0%,0%);fill-opacity:1;" d="M 414 656 C 414 628 372 628 372 656 C 372 684 414 684 414 656 "/>
<path style=" stroke:none;fill-rule:evenodd;fill:rgb(0%,0%,0%);fill-opacity:1;" d="M 264 656 C 264 628 222 628 222 656 C 222 684 264 684 264 656 "/>
<path style=" stroke:none;fill-rule:evenodd;fill:rgb(0%,0%,0%);fill-opacity:1;" d="M 264 356 C 264 328 222 328 222 356 C 222 384 264 384 264 356 "/>
<path style="fill:none;stroke-width:0.016;stroke-linecap:round;stroke-linejoin:miter;stroke:rgb(0%,0%,0%);stroke-opacity:1;stroke-miterlimit:10;" d="M 1.32595 1.415 L 2.52595 1.415 " transform="matrix(600,0,0,-600,-102.569997,1565)"/>
<path style="fill:none;stroke-width:0.016;stroke-linecap:round;stroke-linejoin:miter;stroke:rgb(0%,0%,0%);stroke-opacity:1;stroke-miterlimit:10;" d="M 2.52595 1.415 L 2.57595 1.365 " transform="matrix(600,0,0,-600,-102.569997,1565)"/>
<path style=" stroke:none;fill-rule:evenodd;fill:rgb(100%,100%,100%);fill-opacity:1;" d="M 877.828125 1256 C 877.828125 1249.601562 868.230469 1249.601562 868.230469 1256 C 868.230469 1262.398438 877.828125 1262.398438 877.828125 1256 "/>
<path style=" stroke:none;fill-rule:evenodd;fill:rgb(100%,100%,100%);fill-opacity:1;" d="M 877.828125 1046 C 877.828125 1039.601562 868.230469 1039.601562 868.230469 1046 C 868.230469 1052.398438 877.828125 1052.398438 877.828125 1046 "/>
<path style=" stroke:none;fill-rule:evenodd;fill:rgb(100%,100%,100%);fill-opacity:1;" d="M 1207.828125 1256 C 1207.828125 1249.601562 1198.230469 1249.601562 1198.230469 1256 C 1198.230469 1262.398438 1207.828125 1262.398438 1207.828125 1256 "/>
<path style=" stroke:none;fill-rule:evenodd;fill:rgb(100%,100%,100%);fill-opacity:1;" d="M 1387.828125 1256 C 1387.828125 1249.601562 1378.230469 1249.601562 1378.230469 1256 C 1378.230469 1262.398438 1387.828125 1262.398438 1387.828125 1256 "/>
<path style=" stroke:none;fill-rule:evenodd;fill:rgb(100%,100%,100%);fill-opacity:1;" d="M 1447.828125 1196 C 1447.828125 1189.601562 1438.230469 1189.601562 1438.230469 1196 C 1438.230469 1202.398438 1447.828125 1202.398438 1447.828125 1196 "/>
<path style=" stroke:none;fill-rule:evenodd;fill:rgb(100%,100%,100%);fill-opacity:1;" d="M 1507.828125 1196 C 1507.828125 1189.601562 1498.230469 1189.601562 1498.230469 1196 C 1498.230469 1202.398438 1507.828125 1202.398438 1507.828125 1196 "/>
<path style=" stroke:none;fill-rule:evenodd;fill:rgb(100%,100%,100%);fill-opacity:1;" d="M 1507.828125 806 C 1507.828125 799.601562 1498.230469 799.601562 1498.230469 806 C 1498.230469 812.398438 1507.828125 812.398438 1507.828125 806 "/>
<path style=" stroke:none;fill-rule:evenodd;fill:rgb(100%,100%,100%);fill-opacity:1;" d="M 1447.828125 806 C 1447.828125 799.601562 1438.230469 799.601562 1438.230469 806 C 1438.230469 812.398438 1447.828125 812.398438 1447.828125 806 "/>
<path style=" stroke:none;fill-rule:evenodd;fill:rgb(100%,100%,100%);fill-opacity:1;" d="M 1447.828125 746 C 1447.828125 739.601562 1438.230469 739.601562 1438.230469 746 C 1438.230469 752.398438 1447.828125 752.398438 1447.828125 746 "/>
<path style=" stroke:none;fill-rule:evenodd;fill:rgb(100%,100%,100%);fill-opacity:1;" d="M 1447.828125 686 C 1447.828125 679.601562 1438.230469 679.601562 1438.230469 686 C 1438.230469 692.398438 1447.828125 692.398438 1447.828125 686 "/>
<path style=" stroke:none;fill-rule:evenodd;fill:rgb(100%,100%,100%);fill-opacity:1;" d="M 697.828125 716 C 697.828125 709.601562 688.230469 709.601562 688.230469 716 C 688.230469 722.398438 697.828125 722.398438 697.828125 716 "/>
<path style=" stroke:none;fill-rule:evenodd;fill:rgb(100%,100%,100%);fill-opacity:1;" d="M 697.828125 656 C 697.828125 649.601562 688.230469 649.601562 688.230469 656 C 688.230469 662.398438 697.828125 662.398438 697.828125 656 "/>
<path style=" stroke:none;fill-rule:evenodd;fill:rgb(100%,100%,100%);fill-opacity:1;" d="M 877.828125 596 C 877.828125 589.601562 868.230469 589.601562 868.230469 596 C 868.230469 602.398438 877.828125 602.398438 877.828125 596 "/>
<path style=" stroke:none;fill-rule:evenodd;fill:rgb(100%,100%,100%);fill-opacity:1;" d="M 937.828125 596 C 937.828125 589.601562 928.230469 589.601562 928.230469 596 C 928.230469 602.398438 937.828125 602.398438 937.828125 596 "/>
<path style=" stroke:none;fill-rule:evenodd;fill:rgb(100%,100%,100%);fill-opacity:1;" d="M 1027.828125 1346 C 1027.828125 1339.601562 1018.230469 1339.601562 1018.230469 1346 C 1018.230469 1352.398438 1027.828125 1352.398438 1027.828125 1346 "/>
<path style=" stroke:none;fill-rule:evenodd;fill:rgb(100%,100%,100%);fill-opacity:1;" d="M 1027.828125 1406 C 1027.828125 1399.601562 1018.230469 1399.601562 1018.230469 1406 C 1018.230469 1412.398438 1027.828125 1412.398438 1027.828125 1406 "/>
<path style=" stroke:none;fill-rule:evenodd;fill:rgb(100%,100%,100%);fill-opacity:1;" d="M 1117.828125 1406 C 1117.828125 1399.601562 1108.230469 1399.601562 1108.230469 1406 C 1108.230469 1412.398438 1117.828125 1412.398438 1117.828125 1406 "/>
<path style=" stroke:none;fill-rule:evenodd;fill:rgb(100%,100%,100%);fill-opacity:1;" d="M 1117.828125 1346 C 1117.828125 1339.601562 1108.230469 1339.601562 1108.230469 1346 C 1108.230469 1352.398438 1117.828125 1352.398438 1117.828125 1346 "/>
<path style=" stroke:none;fill-rule:evenodd;fill:rgb(100%,100%,100%);fill-opacity:1;" d="M 517.828125 1046 C 517.828125 1039.601562 508.230469 1039.601562 508.230469 1046 C 508.230469 1052.398438 517.828125 1052.398438 517.828125 1046 "/>
<path style=" stroke:none;fill-rule:evenodd;fill:rgb(100%,100%,100%);fill-opacity:1;" d="M 817.828125 866 C 817.828125 859.601562 808.230469 859.601562 808.230469 866 C 808.230469 872.398438 817.828125 872.398438 817.828125 866 "/>
<path style=" stroke:none;fill-rule:evenodd;fill:rgb(100%,100%,100%);fill-opacity:1;" d="M 997.828125 866 C 997.828125 859.601562 988.230469 859.601562 988.230469 866 C 988.230469 872.398438 997.828125 872.398438 997.828125 866 "/>
<path style=" stroke:none;fill-rule:evenodd;fill:rgb(100%,100%,100%);fill-opacity:1;" d="M 1117.828125 626 C 1117.828125 619.601562 1108.230469 619.601562 1108.230469 626 C 1108.230469 632.398438 1117.828125 632.398438 1117.828125 626 "/>
<path style=" stroke:none;fill-rule:evenodd;fill:rgb(100%,100%,100%);fill-opacity:1;" d="M 1057.828125 566 C 1057.828125 559.601562 1048.230469 559.601562 1048.230469 566 C 1048.230469 572.398438 1057.828125 572.398438 1057.828125 566 "/>
<path style=" stroke:none;fill-rule:evenodd;fill:rgb(100%,100%,100%);fill-opacity:1;" d="M 1177.828125 506 C 1177.828125 499.601562 1168.230469 499.601562 1168.230469 506 C 1168.230469 512.398438 1177.828125 512.398438 1177.828125 506 "/>
<path style=" stroke:none;fill-rule:evenodd;fill:rgb(100%,100%,100%);fill-opacity:1;" d="M 967.828125 446 C 967.828125 439.601562 958.230469 439.601562 958.230469 446 C 958.230469 452.398438 967.828125 452.398438 967.828125 446 "/>
<path style=" stroke:none;fill-rule:evenodd;fill:rgb(100%,100%,100%);fill-opacity:1;" d="M 877.828125 326 C 877.828125 319.601562 868.230469 319.601562 868.230469 326 C 868.230469 332.398438 877.828125 332.398438 877.828125 326 "/>
<path style=" stroke:none;fill-rule:evenodd;fill:rgb(100%,100%,100%);fill-opacity:1;" d="M 1297.828125 326 C 1297.828125 319.601562 1288.230469 319.601562 1288.230469 326 C 1288.230469 332.398438 1297.828125 332.398438 1297.828125 326 "/>
<path style=" stroke:none;fill-rule:evenodd;fill:rgb(100%,100%,100%);fill-opacity:1;" d="M 1507.828125 446 C 1507.828125 439.601562 1498.230469 439.601562 1498.230469 446 C 1498.230469 452.398438 1507.828125 452.398438 1507.828125 446 "/>
<path style=" stroke:none;fill-rule:evenodd;fill:rgb(100%,100%,100%);fill-opacity:1;" d="M 1507.828125 506 C 1507.828125 499.601562 1498.230469 499.601562 1498.230469 506 C 1498.230469 512.398438 1507.828125 512.398438 1507.828125 506 "/>
<path style=" stroke:none;fill-rule:evenodd;fill:rgb(100%,100%,100%);fill-opacity:1;" d="M 1507.828125 566 C 1507.828125 559.601562 1498.230469 559.601562 1498.230469 566 C 1498.230469 572.398438 1507.828125 572.398438 1507.828125 566 "/>
<path style=" stroke:none;fill-rule:evenodd;fill:rgb(100%,100%,100%);fill-opacity:1;" d="M 1507.828125 626 C 1507.828125 619.601562 1498.230469 619.601562 1498.230469 626 C 1498.230469 632.398438 1507.828125 632.398438 1507.828125 626 "/>
<path style=" stroke:none;fill-rule:evenodd;fill:rgb(100%,100%,100%);fill-opacity:1;" d="M 1957.828125 686 C 1957.828125 679.601562 1948.230469 679.601562 1948.230469 686 C 1948.230469 692.398438 1957.828125 692.398438 1957.828125 686 "/>
<path style=" stroke:none;fill-rule:evenodd;fill:rgb(100%,100%,100%);fill-opacity:1;" d="M 1957.828125 386 C 1957.828125 379.601562 1948.230469 379.601562 1948.230469 386 C 1948.230469 392.398438 1957.828125 392.398438 1957.828125 386 "/>
<path style=" stroke:none;fill-rule:evenodd;fill:rgb(100%,100%,100%);fill-opacity:1;" d="M 1777.828125 1256 C 1777.828125 1249.601562 1768.230469 1249.601562 1768.230469 1256 C 1768.230469 1262.398438 1777.828125 1262.398438 1777.828125 1256 "/>
<path style=" stroke:none;fill-rule:evenodd;fill:rgb(100%,100%,100%);fill-opacity:1;" d="M 1597.828125 956 C 1597.828125 949.601562 1588.230469 949.601562 1588.230469 956 C 1588.230469 962.398438 1597.828125 962.398438 1597.828125 956 "/>
<path style=" stroke:none;fill-rule:evenodd;fill:rgb(100%,100%,100%);fill-opacity:1;" d="M 1387.828125 956 C 1387.828125 949.601562 1378.230469 949.601562 1378.230469 956 C 1378.230469 962.398438 1387.828125 962.398438 1387.828125 956 "/>
<path style=" stroke:none;fill-rule:evenodd;fill:rgb(100%,100%,100%);fill-opacity:1;" d="M 1297.828125 956 C 1297.828125 949.601562 1288.230469 949.601562 1288.230469 956 C 1288.230469 962.398438 1297.828125 962.398438 1297.828125 956 "/>
<path style=" stroke:none;fill-rule:evenodd;fill:rgb(100%,100%,100%);fill-opacity:1;" d="M 1237.828125 956 C 1237.828125 949.601562 1228.230469 949.601562 1228.230469 956 C 1228.230469 962.398438 1237.828125 962.398438 1237.828125 956 "/>
<path style=" stroke:none;fill-rule:evenodd;fill:rgb(100%,100%,100%);fill-opacity:1;" d="M 1177.828125 956 C 1177.828125 949.601562 1168.230469 949.601562 1168.230469 956 C 1168.230469 962.398438 1177.828125 962.398438 1177.828125 956 "/>
<path style=" stroke:none;fill-rule:evenodd;fill:rgb(100%,100%,100%);fill-opacity:1;" d="M 1117.828125 956 C 1117.828125 949.601562 1108.230469 949.601562 1108.230469 956 C 1108.230469 962.398438 1117.828125 962.398438 1117.828125 956 "/>
<path style=" stroke:none;fill-rule:evenodd;fill:rgb(100%,100%,100%);fill-opacity:1;" d="M 1057.828125 956 C 1057.828125 949.601562 1048.230469 949.601562 1048.230469 956 C 1048.230469 962.398438 1057.828125 962.398438 1057.828125 956 "/>
<path style=" stroke:none;fill-rule:evenodd;fill:rgb(100%,100%,100%);fill-opacity:1;" d="M 997.828125 956 C 997.828125 949.601562 988.230469 949.601562 988.230469 956 C 988.230469 962.398438 997.828125 962.398438 997.828125 956 "/>
<path style=" stroke:none;fill-rule:evenodd;fill:rgb(100%,100%,100%);fill-opacity:1;" d="M 937.828125 956 C 937.828125 949.601562 928.230469 949.601562 928.230469 956 C 928.230469 962.398438 937.828125 962.398438 937.828125 956 "/>
<path style=" stroke:none;fill-rule:evenodd;fill:rgb(100%,100%,100%);fill-opacity:1;" d="M 877.828125 956 C 877.828125 949.601562 868.230469 949.601562 868.230469 956 C 868.230469 962.398438 877.828125 962.398438 877.828125 956 "/>
<path style=" stroke:none;fill-rule:evenodd;fill:rgb(100%,100%,100%);fill-opacity:1;" d="M 817.828125 956 C 817.828125 949.601562 808.230469 949.601562 808.230469 956 C 808.230469 962.398438 817.828125 962.398438 817.828125 956 "/>
<path style=" stroke:none;fill-rule:evenodd;fill:rgb(100%,100%,100%);fill-opacity:1;" d="M 757.828125 956 C 757.828125 949.601562 748.230469 949.601562 748.230469 956 C 748.230469 962.398438 757.828125 962.398438 757.828125 956 "/>
<path style=" stroke:none;fill-rule:evenodd;fill:rgb(100%,100%,100%);fill-opacity:1;" d="M 697.828125 956 C 697.828125 949.601562 688.230469 949.601562 688.230469 956 C 688.230469 962.398438 697.828125 962.398438 697.828125 956 "/>
<path style=" stroke:none;fill-rule:evenodd;fill:rgb(100%,100%,100%);fill-opacity:1;" d="M 637.828125 956 C 637.828125 949.601562 628.230469 949.601562 628.230469 956 C 628.230469 962.398438 637.828125 962.398438 637.828125 956 "/>
<path style=" stroke:none;fill-rule:evenodd;fill:rgb(100%,100%,100%);fill-opacity:1;" d="M 577.828125 956 C 577.828125 949.601562 568.230469 949.601562 568.230469 956 C 568.230469 962.398438 577.828125 962.398438 577.828125 956 "/>
<path style=" stroke:none;fill-rule:evenodd;fill:rgb(100%,100%,100%);fill-opacity:1;" d="M 517.828125 956 C 517.828125 949.601562 508.230469 949.601562 508.230469 956 C 508.230469 962.398438 517.828125 962.398438 517.828125 956 "/>
<path style=" stroke:none;fill-rule:evenodd;fill:rgb(100%,100%,100%);fill-opacity:1;" d="M 397.828125 956 C 397.828125 949.601562 388.230469 949.601562 388.230469 956 C 388.230469 962.398438 397.828125 962.398438 397.828125 956 "/>
<path style=" stroke:none;fill-rule:evenodd;fill:rgb(100%,100%,100%);fill-opacity:1;" d="M 517.828125 776 C 517.828125 769.601562 508.230469 769.601562 508.230469 776 C 508.230469 782.398438 517.828125 782.398438 517.828125 776 "/>
<path style=" stroke:none;fill-rule:evenodd;fill:rgb(100%,100%,100%);fill-opacity:1;" d="M 577.828125 776 C 577.828125 769.601562 568.230469 769.601562 568.230469 776 C 568.230469 782.398438 577.828125 782.398438 577.828125 776 "/>
<path style=" stroke:none;fill-rule:evenodd;fill:rgb(100%,100%,100%);fill-opacity:1;" d="M 637.828125 776 C 637.828125 769.601562 628.230469 769.601562 628.230469 776 C 628.230469 782.398438 637.828125 782.398438 637.828125 776 "/>
<path style=" stroke:none;fill-rule:evenodd;fill:rgb(100%,100%,100%);fill-opacity:1;" d="M 697.828125 776 C 697.828125 769.601562 688.230469 769.601562 688.230469 776 C 688.230469 782.398438 697.828125 782.398438 697.828125 776 "/>
<path style=" stroke:none;fill-rule:evenodd;fill:rgb(100%,100%,100%);fill-opacity:1;" d="M 757.828125 776 C 757.828125 769.601562 748.230469 769.601562 748.230469 776 C 748.230469 782.398438 757.828125 782.398438 757.828125 776 "/>
<path style=" stroke:none;fill-rule:evenodd;fill:rgb(100%,100%,100%);fill-opacity:1;" d="M 817.828125 776 C 817.828125 769.601562 808.230469 769.601562 808.230469 776 C 808.230469 782.398438 817.828125 782.398438 817.828125 776 "/>
<path style=" stroke:none;fill-rule:evenodd;fill:rgb(100%,100%,100%);fill-opacity:1;" d="M 877.828125 776 C 877.828125 769.601562 868.230469 769.601562 868.230469 776 C 868.230469 782.398438 877.828125 782.398438 877.828125 776 "/>
<path style=" stroke:none;fill-rule:evenodd;fill:rgb(100%,100%,100%);fill-opacity:1;" d="M 937.828125 776 C 937.828125 769.601562 928.230469 769.601562 928.230469 776 C 928.230469 782.398438 937.828125 782.398438 937.828125 776 "/>
<path style=" stroke:none;fill-rule:evenodd;fill:rgb(100%,100%,100%);fill-opacity:1;" d="M 997.828125 776 C 997.828125 769.601562 988.230469 769.601562 988.230469 776 C 988.230469 782.398438 997.828125 782.398438 997.828125 776 "/>
<path style=" stroke:none;fill-rule:evenodd;fill:rgb(100%,100%,100%);fill-opacity:1;" d="M 1057.828125 776 C 1057.828125 769.601562 1048.230469 769.601562 1048.230469 776 C 1048.230469 782.398438 1057.828125 782.398438 1057.828125 776 "/>
<path style=" stroke:none;fill-rule:evenodd;fill:rgb(100%,100%,100%);fill-opacity:1;" d="M 1117.828125 776 C 1117.828125 769.601562 1108.230469 769.601562 1108.230469 776 C 1108.230469 782.398438 1117.828125 782.398438 1117.828125 776 "/>
<path style=" stroke:none;fill-rule:evenodd;fill:rgb(100%,100%,100%);fill-opacity:1;" d="M 1177.828125 776 C 1177.828125 769.601562 1168.230469 769.601562 1168.230469 776 C 1168.230469 782.398438 1177.828125 782.398438 1177.828125 776 "/>
<path style=" stroke:none;fill-rule:evenodd;fill:rgb(100%,100%,100%);fill-opacity:1;" d="M 1237.828125 776 C 1237.828125 769.601562 1228.230469 769.601562 1228.230469 776 C 1228.230469 782.398438 1237.828125 782.398438 1237.828125 776 "/>
<path style=" stroke:none;fill-rule:evenodd;fill:rgb(100%,100%,100%);fill-opacity:1;" d="M 1297.828125 776 C 1297.828125 769.601562 1288.230469 769.601562 1288.230469 776 C 1288.230469 782.398438 1297.828125 782.398438 1297.828125 776 "/>
<path style=" stroke:none;fill-rule:evenodd;fill:rgb(100%,100%,100%);fill-opacity:1;" d="M 1387.828125 806 C 1387.828125 799.601562 1378.230469 799.601562 1378.230469 806 C 1378.230469 812.398438 1387.828125 812.398438 1387.828125 806 "/>
<path style=" stroke:none;fill-rule:evenodd;fill:rgb(100%,100%,100%);fill-opacity:1;" d="M 1597.828125 776 C 1597.828125 769.601562 1588.230469 769.601562 1588.230469 776 C 1588.230469 782.398438 1597.828125 782.398438 1597.828125 776 "/>
<path style=" stroke:none;fill-rule:evenodd;fill:rgb(100%,100%,100%);fill-opacity:1;" d="M 1387.828125 386 C 1387.828125 379.601562 1378.230469 379.601562 1378.230469 386 C 1378.230469 392.398438 1387.828125 392.398438 1387.828125 386 "/>
<path style=" stroke:none;fill-rule:evenodd;fill:rgb(100%,100%,100%);fill-opacity:1;" d="M 1186.53125 186.378906 C 1186.53125 179.980469 1176.929688 179.980469 1176.929688 186.378906 C 1176.929688 192.78125 1186.53125 192.78125 1186.53125 186.378906 "/>
<path style=" stroke:none;fill-rule:evenodd;fill:rgb(100%,100%,100%);fill-opacity:1;" d="M 1126.53125 186.378906 C 1126.53125 179.980469 1116.929688 179.980469 1116.929688 186.378906 C 1116.929688 192.78125 1126.53125 192.78125 1126.53125 186.378906 "/>
<path style=" stroke:none;fill-rule:evenodd;fill:rgb(100%,100%,100%);fill-opacity:1;" d="M 1066.53125 186.378906 C 1066.53125 179.980469 1056.929688 179.980469 1056.929688 186.378906 C 1056.929688 192.78125 1066.53125 192.78125 1066.53125 186.378906 "/>
<path style=" stroke:none;fill-rule:evenodd;fill:rgb(100%,100%,100%);fill-opacity:1;" d="M 1006.53125 186.378906 C 1006.53125 179.980469 996.929688 179.980469 996.929688 186.378906 C 996.929688 192.78125 1006.53125 192.78125 1006.53125 186.378906 "/>
<path style=" stroke:none;fill-rule:evenodd;fill:rgb(100%,100%,100%);fill-opacity:1;" d="M 946.53125 186.378906 C 946.53125 179.980469 936.929688 179.980469 936.929688 186.378906 C 936.929688 192.78125 946.53125 192.78125 946.53125 186.378906 "/>
<path style=" stroke:none;fill-rule:evenodd;fill:rgb(100%,100%,100%);fill-opacity:1;" d="M 886.53125 186.378906 C 886.53125 179.980469 876.929688 179.980469 876.929688 186.378906 C 876.929688 192.78125 886.53125 192.78125 886.53125 186.378906 "/>
<path style=" stroke:none;fill-rule:evenodd;fill:rgb(100%,100%,100%);fill-opacity:1;" d="M 826.53125 186.378906 C 826.53125 179.980469 816.929688 179.980469 816.929688 186.378906 C 816.929688 192.78125 826.53125 192.78125 826.53125 186.378906 "/>
<path style=" stroke:none;fill-rule:evenodd;fill:rgb(100%,100%,100%);fill-opacity:1;" d="M 766.53125 186.378906 C 766.53125 179.980469 756.929688 179.980469 756.929688 186.378906 C 756.929688 192.78125 766.53125 192.78125 766.53125 186.378906 "/>
<path style=" stroke:none;fill-rule:evenodd;fill:rgb(100%,100%,100%);fill-opacity:1;" d="M 706.53125 186.378906 C 706.53125 179.980469 696.929688 179.980469 696.929688 186.378906 C 696.929688 192.78125 706.53125 192.78125 706.53125 186.378906 "/>
<path style=" stroke:none;fill-rule:evenodd;fill:rgb(100%,100%,100%);fill-opacity:1;" d="M 646.53125 186.378906 C 646.53125 179.980469 636.929688 179.980469 636.929688 186.378906 C 636.929688 192.78125 646.53125 192.78125 646.53125 186.378906 "/>
<path style=" stroke:none;fill-rule:evenodd;fill:rgb(100%,100%,100%);fill-opacity:1;" d="M 586.53125 186.378906 C 586.53125 179.980469 576.929688 179.980469 576.929688 186.378906 C 576.929688 192.78125 586.53125 192.78125 586.53125 186.378906 "/>
<path style=" stroke:none;fill-rule:evenodd;fill:rgb(100%,100%,100%);fill-opacity:1;" d="M 526.53125 186.378906 C 526.53125 179.980469 516.929688 179.980469 516.929688 186.378906 C 516.929688 192.78125 526.53125 192.78125 526.53125 186.378906 "/>
<path style=" stroke:none;fill-rule:evenodd;fill:rgb(100%,100%,100%);fill-opacity:1;" d="M 466.53125 186.378906 C 466.53125 179.980469 456.929688 179.980469 456.929688 186.378906 C 456.929688 192.78125 466.53125 192.78125 466.53125 186.378906 "/>
<path style=" stroke:none;fill-rule:evenodd;fill:rgb(100%,100%,100%);fill-opacity:1;" d="M 406.53125 186.378906 C 406.53125 179.980469 396.929688 179.980469 396.929688 186.378906 C 396.929688 192.78125 406.53125 192.78125 406.53125 186.378906 "/>
<path style=" stroke:none;fill-rule:evenodd;fill:rgb(100%,100%,100%);fill-opacity:1;" d="M 346.53125 186.378906 C 346.53125 179.980469 336.929688 179.980469 336.929688 186.378906 C 336.929688 192.78125 346.53125 192.78125 346.53125 186.378906 "/>
<path style=" stroke:none;fill-rule:evenodd;fill:rgb(100%,100%,100%);fill-opacity:1;" d="M 286.53125 186.378906 C 286.53125 179.980469 276.929688 179.980469 276.929688 186.378906 C 276.929688 192.78125 286.53125 192.78125 286.53125 186.378906 "/>
<path style=" stroke:none;fill-rule:evenodd;fill:rgb(100%,100%,100%);fill-opacity:1;" d="M 247.828125 356 C 247.828125 349.601562 238.230469 349.601562 238.230469 356 C 238.230469 362.398438 247.828125 362.398438 247.828125 356 "/>
<path style=" stroke:none;fill-rule:evenodd;fill:rgb(100%,100%,100%);fill-opacity:1;" d="M 157.828125 356 C 157.828125 349.601562 148.230469 349.601562 148.230469 356 C 148.230469 362.398438 157.828125 362.398438 157.828125 356 "/>
<path style=" stroke:none;fill-rule:evenodd;fill:rgb(100%,100%,100%);fill-opacity:1;" d="M 157.828125 416 C 157.828125 409.601562 148.230469 409.601562 148.230469 416 C 148.230469 422.398438 157.828125 422.398438 157.828125 416 "/>
<path style=" stroke:none;fill-rule:evenodd;fill:rgb(100%,100%,100%);fill-opacity:1;" d="M 157.828125 476 C 157.828125 469.601562 148.230469 469.601562 148.230469 476 C 148.230469 482.398438 157.828125 482.398438 157.828125 476 "/>
<path style=" stroke:none;fill-rule:evenodd;fill:rgb(100%,100%,100%);fill-opacity:1;" d="M 247.828125 656 C 247.828125 649.601562 238.230469 649.601562 238.230469 656 C 238.230469 662.398438 247.828125 662.398438 247.828125 656 "/>
<path style=" stroke:none;fill-rule:evenodd;fill:rgb(100%,100%,100%);fill-opacity:1;" d="M 397.828125 656 C 397.828125 649.601562 388.230469 649.601562 388.230469 656 C 388.230469 662.398438 397.828125 662.398438 397.828125 656 "/>
<path style=" stroke:none;fill-rule:evenodd;fill:rgb(100%,100%,100%);fill-opacity:1;" d="M 757.828125 566 C 757.828125 559.601562 748.230469 559.601562 748.230469 566 C 748.230469 572.398438 757.828125 572.398438 757.828125 566 "/>
<path style=" stroke:none;fill-rule:evenodd;fill:rgb(100%,100%,100%);fill-opacity:1;" d="M 757.828125 446 C 757.828125 439.601562 748.230469 439.601562 748.230469 446 C 748.230469 452.398438 757.828125 452.398438 757.828125 446 "/>
<path style=" stroke:none;fill-rule:evenodd;fill:rgb(100%,100%,100%);fill-opacity:1;" d="M 967.828125 386 C 967.828125 379.601562 958.230469 379.601562 958.230469 386 C 958.230469 392.398438 967.828125 392.398438 967.828125 386 "/>
<path style=" stroke:none;fill-rule:evenodd;fill:rgb(100%,100%,100%);fill-opacity:1;" d="M 1000.828125 1166 C 1000.828125 1159.601562 991.230469 1159.601562 991.230469 1166 C 991.230469 1172.398438 1000.828125 1172.398438 1000.828125 1166 "/>
<path style=" stroke:none;fill-rule:evenodd;fill:rgb(100%,100%,100%);fill-opacity:1;" d="M 1114.828125 1166 C 1114.828125 1159.601562 1105.230469 1159.601562 1105.230469 1166 C 1105.230469 1172.398438 1114.828125 1172.398438 1114.828125 1166 "/>
<path style=" stroke:none;fill-rule:evenodd;fill:rgb(100%,100%,100%);fill-opacity:1;" d="M 1597.828125 686 C 1597.828125 679.601562 1588.230469 679.601562 1588.230469 686 C 1588.230469 692.398438 1597.828125 692.398438 1597.828125 686 "/>
<path style=" stroke:none;fill-rule:evenodd;fill:rgb(100%,100%,100%);fill-opacity:1;" d="M 1687.828125 686 C 1687.828125 679.601562 1678.230469 679.601562 1678.230469 686 C 1678.230469 692.398438 1687.828125 692.398438 1687.828125 686 "/>
<path style=" stroke:none;fill-rule:evenodd;fill:rgb(100%,100%,100%);fill-opacity:1;" d="M 1687.828125 446 C 1687.828125 439.601562 1678.230469 439.601562 1678.230469 446 C 1678.230469 452.398438 1687.828125 452.398438 1687.828125 446 "/>
<path style=" stroke:none;fill-rule:evenodd;fill:rgb(100%,100%,100%);fill-opacity:1;" d="M 1597.828125 386 C 1597.828125 379.601562 1588.230469 379.601562 1588.230469 386 C 1588.230469 392.398438 1597.828125 392.398438 1597.828125 386 "/>
<path style=" stroke:none;fill-rule:evenodd;fill:rgb(100%,100%,100%);fill-opacity:1;" d="M 1837.828125 296 C 1837.828125 289.601562 1828.230469 289.601562 1828.230469 296 C 1828.230469 302.398438 1837.828125 302.398438 1837.828125 296 "/>
<path style=" stroke:none;fill-rule:evenodd;fill:rgb(100%,100%,100%);fill-opacity:1;" d="M 1897.828125 296 C 1897.828125 289.601562 1888.230469 289.601562 1888.230469 296 C 1888.230469 302.398438 1897.828125 302.398438 1897.828125 296 "/>
<path style=" stroke:none;fill-rule:evenodd;fill:rgb(100%,100%,100%);fill-opacity:1;" d="M 1957.828125 296 C 1957.828125 289.601562 1948.230469 289.601562 1948.230469 296 C 1948.230469 302.398438 1957.828125 302.398438 1957.828125 296 "/>
<path style=" stroke:none;fill-rule:evenodd;fill:rgb(100%,100%,100%);fill-opacity:1;" d="M 2017.828125 296 C 2017.828125 289.601562 2008.230469 289.601562 2008.230469 296 C 2008.230469 302.398438 2017.828125 302.398438 2017.828125 296 "/>
<path style=" stroke:none;fill-rule:evenodd;fill:rgb(100%,100%,100%);fill-opacity:1;" d="M 2077.828125 296 C 2077.828125 289.601562 2068.230469 289.601562 2068.230469 296 C 2068.230469 302.398438 2077.828125 302.398438 2077.828125 296 "/>
<path style=" stroke:none;fill-rule:evenodd;fill:rgb(100%,100%,100%);fill-opacity:1;" d="M 2077.828125 236 C 2077.828125 229.601562 2068.230469 229.601562 2068.230469 236 C 2068.230469 242.398438 2077.828125 242.398438 2077.828125 236 "/>
<path style=" stroke:none;fill-rule:evenodd;fill:rgb(100%,100%,100%);fill-opacity:1;" d="M 2017.828125 236 C 2017.828125 229.601562 2008.230469 229.601562 2008.230469 236 C 2008.230469 242.398438 2017.828125 242.398438 2017.828125 236 "/>
<path style=" stroke:none;fill-rule:evenodd;fill:rgb(100%,100%,100%);fill-opacity:1;" d="M 1957.828125 236 C 1957.828125 229.601562 1948.230469 229.601562 1948.230469 236 C 1948.230469 242.398438 1957.828125 242.398438 1957.828125 236 "/>
<path style=" stroke:none;fill-rule:evenodd;fill:rgb(100%,100%,100%);fill-opacity:1;" d="M 1897.828125 236 C 1897.828125 229.601562 1888.230469 229.601562 1888.230469 236 C 1888.230469 242.398438 1897.828125 242.398438 1897.828125 236 "/>
<path style=" stroke:none;fill-rule:evenodd;fill:rgb(100%,100%,100%);fill-opacity:1;" d="M 1837.828125 236 C 1837.828125 229.601562 1828.230469 229.601562 1828.230469 236 C 1828.230469 242.398438 1837.828125 242.398438 1837.828125 236 "/>
<path style=" stroke:none;fill-rule:evenodd;fill:rgb(100%,100%,100%);fill-opacity:1;" d="M 2144.429688 549.199219 C 2144.429688 542.800781 2134.828125 542.800781 2134.828125 549.199219 C 2134.828125 555.601562 2144.429688 555.601562 2144.429688 549.199219 "/>
<path style=" stroke:none;fill-rule:evenodd;fill:rgb(100%,100%,100%);fill-opacity:1;" d="M 2251.230469 549.199219 C 2251.230469 542.800781 2241.628906 542.800781 2241.628906 549.199219 C 2241.628906 555.601562 2251.230469 555.601562 2251.230469 549.199219 "/>
<path style=" stroke:none;fill-rule:evenodd;fill:rgb(100%,100%,100%);fill-opacity:1;" d="M 2251.230469 702.800781 C 2251.230469 696.398438 2241.628906 696.398438 2241.628906 702.800781 C 2241.628906 709.199219 2251.230469 709.199219 2251.230469 702.800781 "/>
<path style=" stroke:none;fill-rule:evenodd;fill:rgb(100%,100%,100%);fill-opacity:1;" d="M 2144.429688 702.800781 C 2144.429688 696.398438 2134.828125 696.398438 2134.828125 702.800781 C 2134.828125 709.199219 2144.429688 709.199219 2144.429688 702.800781 "/>
<path style=" stroke:none;fill-rule:evenodd;fill:rgb(100%,100%,100%);fill-opacity:1;" d="M 2077.828125 1346 C 2077.828125 1339.601562 2068.230469 1339.601562 2068.230469 1346 C 2068.230469 1352.398438 2077.828125 1352.398438 2077.828125 1346 "/>
<path style=" stroke:none;fill-rule:evenodd;fill:rgb(100%,100%,100%);fill-opacity:1;" d="M 2017.828125 1346 C 2017.828125 1339.601562 2008.230469 1339.601562 2008.230469 1346 C 2008.230469 1352.398438 2017.828125 1352.398438 2017.828125 1346 "/>
<path style=" stroke:none;fill-rule:evenodd;fill:rgb(100%,100%,100%);fill-opacity:1;" d="M 1687.828125 1346 C 1687.828125 1339.601562 1678.230469 1339.601562 1678.230469 1346 C 1678.230469 1352.398438 1687.828125 1352.398438 1687.828125 1346 "/>
<path style=" stroke:none;fill-rule:evenodd;fill:rgb(100%,100%,100%);fill-opacity:1;" d="M 1627.828125 1346 C 1627.828125 1339.601562 1618.230469 1339.601562 1618.230469 1346 C 1618.230469 1352.398438 1627.828125 1352.398438 1627.828125 1346 "/>
<path style=" stroke:none;fill-rule:evenodd;fill:rgb(100%,100%,100%);fill-opacity:1;" d="M 1567.828125 1346 C 1567.828125 1339.601562 1558.230469 1339.601562 1558.230469 1346 C 1558.230469 1352.398438 1567.828125 1352.398438 1567.828125 1346 "/>
<path style=" stroke:none;fill-rule:evenodd;fill:rgb(100%,100%,100%);fill-opacity:1;" d="M 1507.828125 1346 C 1507.828125 1339.601562 1498.230469 1339.601562 1498.230469 1346 C 1498.230469 1352.398438 1507.828125 1352.398438 1507.828125 1346 "/>
<path style=" stroke:none;fill-rule:evenodd;fill:rgb(100%,100%,100%);fill-opacity:1;" d="M 1447.828125 1346 C 1447.828125 1339.601562 1438.230469 1339.601562 1438.230469 1346 C 1438.230469 1352.398438 1447.828125 1352.398438 1447.828125 1346 "/>
<path style=" stroke:none;fill-rule:evenodd;fill:rgb(100%,100%,100%);fill-opacity:1;" d="M 1387.828125 1346 C 1387.828125 1339.601562 1378.230469 1339.601562 1378.230469 1346 C 1378.230469 1352.398438 1387.828125 1352.398438 1387.828125 1346 "/>
<path style=" stroke:none;fill-rule:evenodd;fill:rgb(100%,100%,100%);fill-opacity:1;" d="M 877.828125 1346 C 877.828125 1339.601562 868.230469 1339.601562 868.230469 1346 C 868.230469 1352.398438 877.828125 1352.398438 877.828125 1346 "/>
<path style=" stroke:none;fill-rule:evenodd;fill:rgb(100%,100%,100%);fill-opacity:1;" d="M 817.828125 1346 C 817.828125 1339.601562 808.230469 1339.601562 808.230469 1346 C 808.230469 1352.398438 817.828125 1352.398438 817.828125 1346 "/>
<path style=" stroke:none;fill-rule:evenodd;fill:rgb(100%,100%,100%);fill-opacity:1;" d="M 757.828125 1346 C 757.828125 1339.601562 748.230469 1339.601562 748.230469 1346 C 748.230469 1352.398438 757.828125 1352.398438 757.828125 1346 "/>
<path style=" stroke:none;fill-rule:evenodd;fill:rgb(100%,100%,100%);fill-opacity:1;" d="M 697.828125 1346 C 697.828125 1339.601562 688.230469 1339.601562 688.230469 1346 C 688.230469 1352.398438 697.828125 1352.398438 697.828125 1346 "/>
<path style=" stroke:none;fill-rule:evenodd;fill:rgb(100%,100%,100%);fill-opacity:1;" d="M 427.828125 1346 C 427.828125 1339.601562 418.230469 1339.601562 418.230469 1346 C 418.230469 1352.398438 427.828125 1352.398438 427.828125 1346 "/>
<path style=" stroke:none;fill-rule:evenodd;fill:rgb(100%,100%,100%);fill-opacity:1;" d="M 367.828125 1346 C 367.828125 1339.601562 358.230469 1339.601562 358.230469 1346 C 358.230469 1352.398438 367.828125 1352.398438 367.828125 1346 "/>
<path style=" stroke:none;fill-rule:evenodd;fill:rgb(100%,100%,100%);fill-opacity:1;" d="M 307.828125 1346 C 307.828125 1339.601562 298.230469 1339.601562 298.230469 1346 C 298.230469 1352.398438 307.828125 1352.398438 307.828125 1346 "/>
<path style=" stroke:none;fill-rule:evenodd;fill:rgb(100%,100%,100%);fill-opacity:1;" d="M 247.828125 1346 C 247.828125 1339.601562 238.230469 1339.601562 238.230469 1346 C 238.230469 1352.398438 247.828125 1352.398438 247.828125 1346 "/>
<path style=" stroke:none;fill-rule:evenodd;fill:rgb(100%,100%,100%);fill-opacity:1;" d="M 157.828125 1166 C 157.828125 1159.601562 148.230469 1159.601562 148.230469 1166 C 148.230469 1172.398438 157.828125 1172.398438 157.828125 1166 "/>
<path style=" stroke:none;fill-rule:evenodd;fill:rgb(100%,100%,100%);fill-opacity:1;" d="M 157.828125 1106 C 157.828125 1099.601562 148.230469 1099.601562 148.230469 1106 C 148.230469 1112.398438 157.828125 1112.398438 157.828125 1106 "/>
<path style=" stroke:none;fill-rule:evenodd;fill:rgb(100%,100%,100%);fill-opacity:1;" d="M 157.828125 1046 C 157.828125 1039.601562 148.230469 1039.601562 148.230469 1046 C 148.230469 1052.398438 157.828125 1052.398438 157.828125 1046 "/>
<path style=" stroke:none;fill-rule:evenodd;fill:rgb(100%,100%,100%);fill-opacity:1;" d="M 157.828125 896 C 157.828125 889.601562 148.230469 889.601562 148.230469 896 C 148.230469 902.398438 157.828125 902.398438 157.828125 896 "/>
<path style=" stroke:none;fill-rule:evenodd;fill:rgb(100%,100%,100%);fill-opacity:1;" d="M 157.828125 836 C 157.828125 829.601562 148.230469 829.601562 148.230469 836 C 148.230469 842.398438 157.828125 842.398438 157.828125 836 "/>
<path style=" stroke:none;fill-rule:evenodd;fill:rgb(100%,100%,100%);fill-opacity:1;" d="M 157.828125 776 C 157.828125 769.601562 148.230469 769.601562 148.230469 776 C 148.230469 782.398438 157.828125 782.398438 157.828125 776 "/>
<path style=" stroke:none;fill-rule:evenodd;fill:rgb(100%,100%,100%);fill-opacity:1;" d="M 157.828125 626 C 157.828125 619.601562 148.230469 619.601562 148.230469 626 C 148.230469 632.398438 157.828125 632.398438 157.828125 626 "/>
<path style=" stroke:none;fill-rule:evenodd;fill:rgb(100%,100%,100%);fill-opacity:1;" d="M 157.828125 566 C 157.828125 559.601562 148.230469 559.601562 148.230469 566 C 148.230469 572.398438 157.828125 572.398438 157.828125 566 "/>
<path style=" stroke:none;fill-rule:evenodd;fill:rgb(100%,100%,100%);fill-opacity:1;" d="M 109.351562 1485.621094 C 109.351562 1479.21875 99.75 1479.21875 99.75 1485.621094 C 99.75 1492.019531 109.351562 1492.019531 109.351562 1485.621094 "/>
<path style=" stroke:none;fill-rule:evenodd;fill:rgb(100%,100%,100%);fill-opacity:1;" d="M 109.351562 186.378906 C 109.351562 179.980469 99.75 179.980469 99.75 186.378906 C 99.75 192.78125 109.351562 192.78125 109.351562 186.378906 "/>
<path style=" stroke:none;fill-rule:evenodd;fill:rgb(100%,100%,100%);fill-opacity:1;" d="M 2306.25 186.378906 C 2306.25 179.980469 2296.648438 179.980469 2296.648438 186.378906 C 2296.648438 192.78125 2306.25 192.78125 2306.25 186.378906 "/>
<path style=" stroke:none;fill-rule:evenodd;fill:rgb(100%,100%,100%);fill-opacity:1;" d="M 2306.25 1485.621094 C 2306.25 1479.21875 2296.648438 1479.21875 2296.648438 1485.621094 C 2296.648438 1492.019531 2306.25 1492.019531 2306.25 1485.621094 "/>
</g>
</svg>
