<?xml version="1.0" encoding="UTF-8"?>
<svg xmlns="http://www.w3.org/2000/svg" xmlns:xlink="http://www.w3.org/1999/xlink" width="2435pt" height="1409pt" viewBox="0 0 2435 1409" version="1.1">
<g id="surface1">
<path style="fill:none;stroke-width:0.01;stroke-linecap:round;stroke-linejoin:miter;stroke:rgb(0%,0%,0%);stroke-opacity:1;stroke-miterlimit:10;" d="M 0.03333 0.015 L 0.03333 2.214609 " transform="matrix(600,0,0,-600,-16.998,1415)"/>
<path style="fill:none;stroke-width:0.01;stroke-linecap:round;stroke-linejoin:miter;stroke:rgb(0%,0%,0%);stroke-opacity:1;stroke-miterlimit:10;" d="M 0.03333 2.214609 L 4.070342 2.214609 " transform="matrix(600,0,0,-600,-16.998,1415)"/>
<path style="fill:none;stroke-width:0.01;stroke-linecap:round;stroke-linejoin:miter;stroke:rgb(0%,0%,0%);stroke-opacity:1;stroke-miterlimit:10;" d="M 4.070342 2.214609 L 4.070342 0.015 " transform="matrix(600,0,0,-600,-16.998,1415)"/>
<path style="fill:none;stroke-width:0.01;stroke-linecap:round;stroke-linejoin:miter;stroke:rgb(0%,0%,0%);stroke-opacity:1;stroke-miterlimit:10;" d="M 4.070342 0.015 L 0.03333 0.015 " transform="matrix(600,0,0,-600,-16.998,1415)"/>
<path style="fill:none;stroke-width:0.00512;stroke-linecap:round;stroke-linejoin:miter;stroke:rgb(0%,0%,0%);stroke-opacity:1;stroke-miterlimit:10;" d="M 0.03333 2.215 L 0.03333 2.341771 " transform="matrix(600,0,0,-600,-16.998,1415)"/>
<path style="fill:none;stroke-width:0.00512;stroke-linecap:round;stroke-linejoin:miter;stroke:rgb(0%,0%,0%);stroke-opacity:1;stroke-miterlimit:10;" d="M 0.0358886 2.265 L 0.1357 2.254759 " transform="matrix(600,0,0,-600,-16.998,1415)"/>
<path style="fill:none;stroke-width:0.00512;stroke-linecap:round;stroke-linejoin:miter;stroke:rgb(0%,0%,0%);stroke-opacity:1;stroke-miterlimit:10;" d="M 0.1357 2.252428 L 0.0358886 2.265 " transform="matrix(600,0,0,-600,-16.998,1415)"/>
<path style="fill:none;stroke-width:0.00512;stroke-linecap:round;stroke-linejoin:miter;stroke:rgb(0%,0%,0%);stroke-opacity:1;stroke-miterlimit:10;" d="M 0.0358886 2.265 L 0.1357 2.275241 " transform="matrix(600,0,0,-600,-16.998,1415)"/>
<path style="fill:none;stroke-width:0.00512;stroke-linecap:round;stroke-linejoin:miter;stroke:rgb(0%,0%,0%);stroke-opacity:1;stroke-miterlimit:10;" d="M 0.1357 2.277572 L 0.1357 2.252428 " transform="matrix(600,0,0,-600,-16.998,1415)"/>
<path style="fill:none;stroke-width:0.00512;stroke-linecap:round;stroke-linejoin:miter;stroke:rgb(0%,0%,0%);stroke-opacity:1;stroke-miterlimit:10;" d="M 0.1357 2.259883 L 0.0358886 2.265 " transform="matrix(600,0,0,-600,-16.998,1415)"/>
<path style="fill:none;stroke-width:0.00512;stroke-linecap:round;stroke-linejoin:miter;stroke:rgb(0%,0%,0%);stroke-opacity:1;stroke-miterlimit:10;" d="M 0.0358886 2.265 L 0.1357 2.270117 " transform="matrix(600,0,0,-600,-16.998,1415)"/>
<path style="fill:none;stroke-width:0.00512;stroke-linecap:round;stroke-linejoin:miter;stroke:rgb(0%,0%,0%);stroke-opacity:1;stroke-miterlimit:10;" d="M 0.1357 2.277572 L 0.0358886 2.265 " transform="matrix(600,0,0,-600,-16.998,1415)"/>
<path style="fill:none;stroke-width:0.00512;stroke-linecap:round;stroke-linejoin:miter;stroke:rgb(0%,0%,0%);stroke-opacity:1;stroke-miterlimit:10;" d="M 0.0358886 2.265 L 4.080771 2.265 " transform="matrix(600,0,0,-600,-16.998,1415)"/>
<path style="fill:none;stroke-width:0.00512;stroke-linecap:round;stroke-linejoin:miter;stroke:rgb(0%,0%,0%);stroke-opacity:1;stroke-miterlimit:10;" d="M 4.080771 2.265 L 3.980973 2.254759 " transform="matrix(600,0,0,-600,-16.998,1415)"/>
<path style="fill:none;stroke-width:0.00512;stroke-linecap:round;stroke-linejoin:miter;stroke:rgb(0%,0%,0%);stroke-opacity:1;stroke-miterlimit:10;" d="M 3.980973 2.252428 L 4.080771 2.265 " transform="matrix(600,0,0,-600,-16.998,1415)"/>
<path style="fill:none;stroke-width:0.00512;stroke-linecap:round;stroke-linejoin:miter;stroke:rgb(0%,0%,0%);stroke-opacity:1;stroke-miterlimit:10;" d="M 4.080771 2.265 L 3.980973 2.275241 " transform="matrix(600,0,0,-600,-16.998,1415)"/>
<path style="fill:none;stroke-width:0.00512;stroke-linecap:round;stroke-linejoin:miter;stroke:rgb(0%,0%,0%);stroke-opacity:1;stroke-miterlimit:10;" d="M 3.980973 2.277572 L 3.980973 2.252428 " transform="matrix(600,0,0,-600,-16.998,1415)"/>
<path style="fill:none;stroke-width:0.00512;stroke-linecap:round;stroke-linejoin:miter;stroke:rgb(0%,0%,0%);stroke-opacity:1;stroke-miterlimit:10;" d="M 3.980973 2.259883 L 4.080771 2.265 " transform="matrix(600,0,0,-600,-16.998,1415)"/>
<path style="fill:none;stroke-width:0.00512;stroke-linecap:round;stroke-linejoin:miter;stroke:rgb(0%,0%,0%);stroke-opacity:1;stroke-miterlimit:10;" d="M 4.080771 2.265 L 3.980973 2.270117 " transform="matrix(600,0,0,-600,-16.998,1415)"/>
<path style="fill:none;stroke-width:0.00512;stroke-linecap:round;stroke-linejoin:miter;stroke:rgb(0%,0%,0%);stroke-opacity:1;stroke-miterlimit:10;" d="M 3.980973 2.277572 L 4.080771 2.265 " transform="matrix(600,0,0,-600,-16.998,1415)"/>
<path style="fill:none;stroke-width:0.00512;stroke-linecap:round;stroke-linejoin:miter;stroke:rgb(0%,0%,0%);stroke-opacity:1;stroke-miterlimit:10;" d="M 4.08333 2.215 L 4.08333 2.341771 " transform="matrix(600,0,0,-600,-16.998,1415)"/>
<path style="fill:none;stroke-width:0.011;stroke-linecap:round;stroke-linejoin:miter;stroke:rgb(0%,0%,0%);stroke-opacity:1;stroke-miterlimit:10;" d="M 2.235973 2.342331 L 2.196598 2.302962 " transform="matrix(600,0,0,-600,-16.998,1415)"/>
<path style="fill:none;stroke-width:0.011;stroke-linecap:round;stroke-linejoin:miter;stroke:rgb(0%,0%,0%);stroke-opacity:1;stroke-miterlimit:10;" d="M 2.196598 2.302962 L 2.196598 2.293118 " transform="matrix(600,0,0,-600,-16.998,1415)"/>
<path style="fill:none;stroke-width:0.011;stroke-linecap:round;stroke-linejoin:miter;stroke:rgb(0%,0%,0%);stroke-opacity:1;stroke-miterlimit:10;" d="M 2.17152 2.302962 L 2.16167 2.293118 " transform="matrix(600,0,0,-600,-16.998,1415)"/>
<path style="fill:none;stroke-width:0.011;stroke-linecap:round;stroke-linejoin:miter;stroke:rgb(0%,0%,0%);stroke-opacity:1;stroke-miterlimit:10;" d="M 2.16167 2.293118 L 2.141989 2.293118 " transform="matrix(600,0,0,-600,-16.998,1415)"/>
<path style="fill:none;stroke-width:0.011;stroke-linecap:round;stroke-linejoin:miter;stroke:rgb(0%,0%,0%);stroke-opacity:1;stroke-miterlimit:10;" d="M 2.141989 2.293118 L 2.132152 2.302962 " transform="matrix(600,0,0,-600,-16.998,1415)"/>
<path style="fill:none;stroke-width:0.011;stroke-linecap:round;stroke-linejoin:miter;stroke:rgb(0%,0%,0%);stroke-opacity:1;stroke-miterlimit:10;" d="M 2.132152 2.302962 L 2.132152 2.312799 " transform="matrix(600,0,0,-600,-16.998,1415)"/>
<path style="fill:none;stroke-width:0.011;stroke-linecap:round;stroke-linejoin:miter;stroke:rgb(0%,0%,0%);stroke-opacity:1;stroke-miterlimit:10;" d="M 2.132152 2.312799 L 2.141989 2.322643 " transform="matrix(600,0,0,-600,-16.998,1415)"/>
<path style="fill:none;stroke-width:0.011;stroke-linecap:round;stroke-linejoin:miter;stroke:rgb(0%,0%,0%);stroke-opacity:1;stroke-miterlimit:10;" d="M 2.141989 2.322643 L 2.16167 2.322643 " transform="matrix(600,0,0,-600,-16.998,1415)"/>
<path style="fill:none;stroke-width:0.011;stroke-linecap:round;stroke-linejoin:miter;stroke:rgb(0%,0%,0%);stroke-opacity:1;stroke-miterlimit:10;" d="M 2.16167 2.322643 L 2.17152 2.312799 " transform="matrix(600,0,0,-600,-16.998,1415)"/>
<path style="fill:none;stroke-width:0.011;stroke-linecap:round;stroke-linejoin:miter;stroke:rgb(0%,0%,0%);stroke-opacity:1;stroke-miterlimit:10;" d="M 2.17152 2.312799 L 2.17152 2.302962 " transform="matrix(600,0,0,-600,-16.998,1415)"/>
<path style="fill:none;stroke-width:0.011;stroke-linecap:round;stroke-linejoin:miter;stroke:rgb(0%,0%,0%);stroke-opacity:1;stroke-miterlimit:10;" d="M 2.16167 2.322643 L 2.17152 2.33248 " transform="matrix(600,0,0,-600,-16.998,1415)"/>
<path style="fill:none;stroke-width:0.011;stroke-linecap:round;stroke-linejoin:miter;stroke:rgb(0%,0%,0%);stroke-opacity:1;stroke-miterlimit:10;" d="M 2.17152 2.33248 L 2.17152 2.342331 " transform="matrix(600,0,0,-600,-16.998,1415)"/>
<path style="fill:none;stroke-width:0.011;stroke-linecap:round;stroke-linejoin:miter;stroke:rgb(0%,0%,0%);stroke-opacity:1;stroke-miterlimit:10;" d="M 2.17152 2.342331 L 2.16167 2.352168 " transform="matrix(600,0,0,-600,-16.998,1415)"/>
<path style="fill:none;stroke-width:0.011;stroke-linecap:round;stroke-linejoin:miter;stroke:rgb(0%,0%,0%);stroke-opacity:1;stroke-miterlimit:10;" d="M 2.16167 2.352168 L 2.141989 2.352168 " transform="matrix(600,0,0,-600,-16.998,1415)"/>
<path style="fill:none;stroke-width:0.011;stroke-linecap:round;stroke-linejoin:miter;stroke:rgb(0%,0%,0%);stroke-opacity:1;stroke-miterlimit:10;" d="M 2.141989 2.352168 L 2.132152 2.342331 " transform="matrix(600,0,0,-600,-16.998,1415)"/>
<path style="fill:none;stroke-width:0.011;stroke-linecap:round;stroke-linejoin:miter;stroke:rgb(0%,0%,0%);stroke-opacity:1;stroke-miterlimit:10;" d="M 2.132152 2.342331 L 2.132152 2.33248 " transform="matrix(600,0,0,-600,-16.998,1415)"/>
<path style="fill:none;stroke-width:0.011;stroke-linecap:round;stroke-linejoin:miter;stroke:rgb(0%,0%,0%);stroke-opacity:1;stroke-miterlimit:10;" d="M 2.132152 2.33248 L 2.141989 2.322643 " transform="matrix(600,0,0,-600,-16.998,1415)"/>
<path style="fill:none;stroke-width:0.011;stroke-linecap:round;stroke-linejoin:miter;stroke:rgb(0%,0%,0%);stroke-opacity:1;stroke-miterlimit:10;" d="M 2.109762 2.302962 L 2.109762 2.293118 " transform="matrix(600,0,0,-600,-16.998,1415)"/>
<path style="fill:none;stroke-width:0.011;stroke-linecap:round;stroke-linejoin:miter;stroke:rgb(0%,0%,0%);stroke-opacity:1;stroke-miterlimit:10;" d="M 2.109762 2.293118 L 2.099919 2.293118 " transform="matrix(600,0,0,-600,-16.998,1415)"/>
<path style="fill:none;stroke-width:0.011;stroke-linecap:round;stroke-linejoin:miter;stroke:rgb(0%,0%,0%);stroke-opacity:1;stroke-miterlimit:10;" d="M 2.099919 2.293118 L 2.099919 2.302962 " transform="matrix(600,0,0,-600,-16.998,1415)"/>
<path style="fill:none;stroke-width:0.011;stroke-linecap:round;stroke-linejoin:miter;stroke:rgb(0%,0%,0%);stroke-opacity:1;stroke-miterlimit:10;" d="M 2.099919 2.302962 L 2.109762 2.302962 " transform="matrix(600,0,0,-600,-16.998,1415)"/>
<path style="fill:none;stroke-width:0.011;stroke-linecap:round;stroke-linejoin:miter;stroke:rgb(0%,0%,0%);stroke-opacity:1;stroke-miterlimit:10;" d="M 2.074827 2.293118 L 2.035472 2.293118 " transform="matrix(600,0,0,-600,-16.998,1415)"/>
<path style="fill:none;stroke-width:0.011;stroke-linecap:round;stroke-linejoin:miter;stroke:rgb(0%,0%,0%);stroke-opacity:1;stroke-miterlimit:10;" d="M 2.035472 2.293118 L 2.074827 2.33248 " transform="matrix(600,0,0,-600,-16.998,1415)"/>
<path style="fill:none;stroke-width:0.011;stroke-linecap:round;stroke-linejoin:miter;stroke:rgb(0%,0%,0%);stroke-opacity:1;stroke-miterlimit:10;" d="M 2.074827 2.33248 L 2.074827 2.342331 " transform="matrix(600,0,0,-600,-16.998,1415)"/>
<path style="fill:none;stroke-width:0.011;stroke-linecap:round;stroke-linejoin:miter;stroke:rgb(0%,0%,0%);stroke-opacity:1;stroke-miterlimit:10;" d="M 2.074827 2.342331 L 2.06499 2.352168 " transform="matrix(600,0,0,-600,-16.998,1415)"/>
<path style="fill:none;stroke-width:0.011;stroke-linecap:round;stroke-linejoin:miter;stroke:rgb(0%,0%,0%);stroke-opacity:1;stroke-miterlimit:10;" d="M 2.06499 2.352168 L 2.045309 2.352168 " transform="matrix(600,0,0,-600,-16.998,1415)"/>
<path style="fill:none;stroke-width:0.011;stroke-linecap:round;stroke-linejoin:miter;stroke:rgb(0%,0%,0%);stroke-opacity:1;stroke-miterlimit:10;" d="M 2.045309 2.352168 L 2.035472 2.342331 " transform="matrix(600,0,0,-600,-16.998,1415)"/>
<path style="fill:none;stroke-width:0.011;stroke-linecap:round;stroke-linejoin:miter;stroke:rgb(0%,0%,0%);stroke-opacity:1;stroke-miterlimit:10;" d="M 2.010381 2.342331 L 1.971012 2.302962 " transform="matrix(600,0,0,-600,-16.998,1415)"/>
<path style="fill:none;stroke-width:0.011;stroke-linecap:round;stroke-linejoin:miter;stroke:rgb(0%,0%,0%);stroke-opacity:1;stroke-miterlimit:10;" d="M 1.971012 2.302962 L 1.98085 2.293118 " transform="matrix(600,0,0,-600,-16.998,1415)"/>
<path style="fill:none;stroke-width:0.011;stroke-linecap:round;stroke-linejoin:miter;stroke:rgb(0%,0%,0%);stroke-opacity:1;stroke-miterlimit:10;" d="M 1.98085 2.293118 L 2.000537 2.293118 " transform="matrix(600,0,0,-600,-16.998,1415)"/>
<path style="fill:none;stroke-width:0.011;stroke-linecap:round;stroke-linejoin:miter;stroke:rgb(0%,0%,0%);stroke-opacity:1;stroke-miterlimit:10;" d="M 2.000537 2.293118 L 2.010381 2.302962 " transform="matrix(600,0,0,-600,-16.998,1415)"/>
<path style="fill:none;stroke-width:0.011;stroke-linecap:round;stroke-linejoin:miter;stroke:rgb(0%,0%,0%);stroke-opacity:1;stroke-miterlimit:10;" d="M 2.010381 2.302962 L 2.010381 2.342331 " transform="matrix(600,0,0,-600,-16.998,1415)"/>
<path style="fill:none;stroke-width:0.011;stroke-linecap:round;stroke-linejoin:miter;stroke:rgb(0%,0%,0%);stroke-opacity:1;stroke-miterlimit:10;" d="M 2.010381 2.342331 L 2.000537 2.352168 " transform="matrix(600,0,0,-600,-16.998,1415)"/>
<path style="fill:none;stroke-width:0.011;stroke-linecap:round;stroke-linejoin:miter;stroke:rgb(0%,0%,0%);stroke-opacity:1;stroke-miterlimit:10;" d="M 2.000537 2.352168 L 1.98085 2.352168 " transform="matrix(600,0,0,-600,-16.998,1415)"/>
<path style="fill:none;stroke-width:0.011;stroke-linecap:round;stroke-linejoin:miter;stroke:rgb(0%,0%,0%);stroke-opacity:1;stroke-miterlimit:10;" d="M 1.98085 2.352168 L 1.971012 2.342331 " transform="matrix(600,0,0,-600,-16.998,1415)"/>
<path style="fill:none;stroke-width:0.011;stroke-linecap:round;stroke-linejoin:miter;stroke:rgb(0%,0%,0%);stroke-opacity:1;stroke-miterlimit:10;" d="M 1.971012 2.342331 L 1.971012 2.302962 " transform="matrix(600,0,0,-600,-16.998,1415)"/>
<path style="fill:none;stroke-width:0.011;stroke-linecap:round;stroke-linejoin:miter;stroke:rgb(0%,0%,0%);stroke-opacity:1;stroke-miterlimit:10;" d="M 1.945921 2.293118 L 1.906559 2.293118 " transform="matrix(600,0,0,-600,-16.998,1415)"/>
<path style="fill:none;stroke-width:0.011;stroke-linecap:round;stroke-linejoin:miter;stroke:rgb(0%,0%,0%);stroke-opacity:1;stroke-miterlimit:10;" d="M 1.92624 2.293118 L 1.92624 2.352168 " transform="matrix(600,0,0,-600,-16.998,1415)"/>
<path style="fill:none;stroke-width:0.011;stroke-linecap:round;stroke-linejoin:miter;stroke:rgb(0%,0%,0%);stroke-opacity:1;stroke-miterlimit:10;" d="M 1.92624 2.352168 L 1.906559 2.33248 " transform="matrix(600,0,0,-600,-16.998,1415)"/>
<path style="fill:none;stroke-width:0.011;stroke-linecap:round;stroke-linejoin:miter;stroke:rgb(0%,0%,0%);stroke-opacity:1;stroke-miterlimit:10;" d="M 2.196598 2.352168 L 2.235973 2.352168 " transform="matrix(600,0,0,-600,-16.998,1415)"/>
<path style="fill:none;stroke-width:0.011;stroke-linecap:round;stroke-linejoin:miter;stroke:rgb(0%,0%,0%);stroke-opacity:1;stroke-miterlimit:10;" d="M 2.235973 2.352168 L 2.235973 2.342331 " transform="matrix(600,0,0,-600,-16.998,1415)"/>
<path style="fill:none;stroke-width:0.052;stroke-linecap:round;stroke-linejoin:miter;stroke:rgb(0%,0%,0%);stroke-opacity:1;stroke-miterlimit:10;" d="M 0.88333 0.738997 L 0.88333 0.791003 " transform="matrix(600,0,0,-600,-16.998,1415)"/>
<path style="fill:none;stroke-width:0.052;stroke-linecap:round;stroke-linejoin:miter;stroke:rgb(0%,0%,0%);stroke-opacity:1;stroke-miterlimit:10;" d="M 0.98333 0.791003 L 0.98333 0.738997 " transform="matrix(600,0,0,-600,-16.998,1415)"/>
<path style="fill:none;stroke-width:0.052;stroke-linecap:round;stroke-linejoin:miter;stroke:rgb(0%,0%,0%);stroke-opacity:1;stroke-miterlimit:10;" d="M 1.08333 0.738997 L 1.08333 0.791003 " transform="matrix(600,0,0,-600,-16.998,1415)"/>
<path style="fill:none;stroke-width:0.052;stroke-linecap:round;stroke-linejoin:miter;stroke:rgb(0%,0%,0%);stroke-opacity:1;stroke-miterlimit:10;" d="M 1.18333 0.791003 L 1.18333 0.738997 " transform="matrix(600,0,0,-600,-16.998,1415)"/>
<path style="fill:none;stroke-width:0.052;stroke-linecap:round;stroke-linejoin:miter;stroke:rgb(0%,0%,0%);stroke-opacity:1;stroke-miterlimit:10;" d="M 1.28333 0.738997 L 1.28333 0.791003 " transform="matrix(600,0,0,-600,-16.998,1415)"/>
<path style="fill:none;stroke-width:0.052;stroke-linecap:round;stroke-linejoin:miter;stroke:rgb(0%,0%,0%);stroke-opacity:1;stroke-miterlimit:10;" d="M 1.38333 0.791003 L 1.38333 0.738997 " transform="matrix(600,0,0,-600,-16.998,1415)"/>
<path style="fill:none;stroke-width:0.052;stroke-linecap:round;stroke-linejoin:miter;stroke:rgb(0%,0%,0%);stroke-opacity:1;stroke-miterlimit:10;" d="M 1.48333 0.738997 L 1.48333 0.791003 " transform="matrix(600,0,0,-600,-16.998,1415)"/>
<path style="fill:none;stroke-width:0.052;stroke-linecap:round;stroke-linejoin:miter;stroke:rgb(0%,0%,0%);stroke-opacity:1;stroke-miterlimit:10;" d="M 1.58333 0.791003 L 1.58333 0.738997 " transform="matrix(600,0,0,-600,-16.998,1415)"/>
<path style="fill:none;stroke-width:0.052;stroke-linecap:round;stroke-linejoin:miter;stroke:rgb(0%,0%,0%);stroke-opacity:1;stroke-miterlimit:10;" d="M 1.68333 0.738997 L 1.68333 0.791003 " transform="matrix(600,0,0,-600,-16.998,1415)"/>
<path style="fill:none;stroke-width:0.052;stroke-linecap:round;stroke-linejoin:miter;stroke:rgb(0%,0%,0%);stroke-opacity:1;stroke-miterlimit:10;" d="M 1.78333 0.791003 L 1.78333 0.738997 " transform="matrix(600,0,0,-600,-16.998,1415)"/>
<path style="fill:none;stroke-width:0.052;stroke-linecap:round;stroke-linejoin:miter;stroke:rgb(0%,0%,0%);stroke-opacity:1;stroke-miterlimit:10;" d="M 1.88333 0.738997 L 1.88333 0.791003 " transform="matrix(600,0,0,-600,-16.998,1415)"/>
<path style="fill:none;stroke-width:0.052;stroke-linecap:round;stroke-linejoin:miter;stroke:rgb(0%,0%,0%);stroke-opacity:1;stroke-miterlimit:10;" d="M 1.98333 0.791003 L 1.98333 0.738997 " transform="matrix(600,0,0,-600,-16.998,1415)"/>
<path style="fill:none;stroke-width:0.052;stroke-linecap:round;stroke-linejoin:miter;stroke:rgb(0%,0%,0%);stroke-opacity:1;stroke-miterlimit:10;" d="M 2.08333 0.738997 L 2.08333 0.791003 " transform="matrix(600,0,0,-600,-16.998,1415)"/>
<path style="fill:none;stroke-width:0.052;stroke-linecap:round;stroke-linejoin:miter;stroke:rgb(0%,0%,0%);stroke-opacity:1;stroke-miterlimit:10;" d="M 2.18333 0.791003 L 2.18333 0.738997 " transform="matrix(600,0,0,-600,-16.998,1415)"/>
<path style="fill:none;stroke-width:0.052;stroke-linecap:round;stroke-linejoin:miter;stroke:rgb(0%,0%,0%);stroke-opacity:1;stroke-miterlimit:10;" d="M 2.18333 1.038997 L 2.18333 1.091003 " transform="matrix(600,0,0,-600,-16.998,1415)"/>
<path style="fill:none;stroke-width:0.052;stroke-linecap:round;stroke-linejoin:miter;stroke:rgb(0%,0%,0%);stroke-opacity:1;stroke-miterlimit:10;" d="M 2.08333 1.091003 L 2.08333 1.038997 " transform="matrix(600,0,0,-600,-16.998,1415)"/>
<path style="fill:none;stroke-width:0.052;stroke-linecap:round;stroke-linejoin:miter;stroke:rgb(0%,0%,0%);stroke-opacity:1;stroke-miterlimit:10;" d="M 1.98333 1.038997 L 1.98333 1.091003 " transform="matrix(600,0,0,-600,-16.998,1415)"/>
<path style="fill:none;stroke-width:0.052;stroke-linecap:round;stroke-linejoin:miter;stroke:rgb(0%,0%,0%);stroke-opacity:1;stroke-miterlimit:10;" d="M 1.88333 1.091003 L 1.88333 1.038997 " transform="matrix(600,0,0,-600,-16.998,1415)"/>
<path style="fill:none;stroke-width:0.052;stroke-linecap:round;stroke-linejoin:miter;stroke:rgb(0%,0%,0%);stroke-opacity:1;stroke-miterlimit:10;" d="M 1.78333 1.038997 L 1.78333 1.091003 " transform="matrix(600,0,0,-600,-16.998,1415)"/>
<path style="fill:none;stroke-width:0.052;stroke-linecap:round;stroke-linejoin:miter;stroke:rgb(0%,0%,0%);stroke-opacity:1;stroke-miterlimit:10;" d="M 1.68333 1.091003 L 1.68333 1.038997 " transform="matrix(600,0,0,-600,-16.998,1415)"/>
<path style="fill:none;stroke-width:0.052;stroke-linecap:round;stroke-linejoin:miter;stroke:rgb(0%,0%,0%);stroke-opacity:1;stroke-miterlimit:10;" d="M 1.58333 1.038997 L 1.58333 1.091003 " transform="matrix(600,0,0,-600,-16.998,1415)"/>
<path style="fill:none;stroke-width:0.052;stroke-linecap:round;stroke-linejoin:miter;stroke:rgb(0%,0%,0%);stroke-opacity:1;stroke-miterlimit:10;" d="M 1.48333 1.091003 L 1.48333 1.038997 " transform="matrix(600,0,0,-600,-16.998,1415)"/>
<path style="fill:none;stroke-width:0.052;stroke-linecap:round;stroke-linejoin:miter;stroke:rgb(0%,0%,0%);stroke-opacity:1;stroke-miterlimit:10;" d="M 1.38333 1.038997 L 1.38333 1.091003 " transform="matrix(600,0,0,-600,-16.998,1415)"/>
<path style="fill:none;stroke-width:0.052;stroke-linecap:round;stroke-linejoin:miter;stroke:rgb(0%,0%,0%);stroke-opacity:1;stroke-miterlimit:10;" d="M 1.28333 1.091003 L 1.28333 1.038997 " transform="matrix(600,0,0,-600,-16.998,1415)"/>
<path style="fill:none;stroke-width:0.052;stroke-linecap:round;stroke-linejoin:miter;stroke:rgb(0%,0%,0%);stroke-opacity:1;stroke-miterlimit:10;" d="M 1.18333 1.038997 L 1.18333 1.091003 " transform="matrix(600,0,0,-600,-16.998,1415)"/>
<path style="fill:none;stroke-width:0.052;stroke-linecap:round;stroke-linejoin:miter;stroke:rgb(0%,0%,0%);stroke-opacity:1;stroke-miterlimit:10;" d="M 1.08333 1.091003 L 1.08333 1.038997 " transform="matrix(600,0,0,-600,-16.998,1415)"/>
<path style="fill:none;stroke-width:0.052;stroke-linecap:round;stroke-linejoin:miter;stroke:rgb(0%,0%,0%);stroke-opacity:1;stroke-miterlimit:10;" d="M 0.98333 1.038997 L 0.98333 1.091003 " transform="matrix(600,0,0,-600,-16.998,1415)"/>
<path style="fill:none;stroke-width:0.052;stroke-linecap:round;stroke-linejoin:miter;stroke:rgb(0%,0%,0%);stroke-opacity:1;stroke-miterlimit:10;" d="M 0.88333 1.091003 L 0.88333 1.038997 " transform="matrix(600,0,0,-600,-16.998,1415)"/>
<path style="fill:none;stroke-width:0.052;stroke-linecap:round;stroke-linejoin:miter;stroke:rgb(0%,0%,0%);stroke-opacity:1;stroke-miterlimit:10;" d="M 0.259333 1.415 L 0.207327 1.415 " transform="matrix(600,0,0,-600,-16.998,1415)"/>
<path style="fill:none;stroke-width:0.052;stroke-linecap:round;stroke-linejoin:miter;stroke:rgb(0%,0%,0%);stroke-opacity:1;stroke-miterlimit:10;" d="M 0.207327 1.515 L 0.259333 1.515 " transform="matrix(600,0,0,-600,-16.998,1415)"/>
<path style="fill:none;stroke-width:0.052;stroke-linecap:round;stroke-linejoin:miter;stroke:rgb(0%,0%,0%);stroke-opacity:1;stroke-miterlimit:10;" d="M 0.259333 1.615 L 0.207327 1.615 " transform="matrix(600,0,0,-600,-16.998,1415)"/>
<path style=" stroke:none;fill-rule:evenodd;fill:rgb(0%,0%,0%);fill-opacity:1;" d="M 424.894531 282.054688 L 469.292969 282.054688 L 469.292969 237.65625 L 424.894531 237.65625 Z M 424.894531 282.054688 "/>
<path style=" stroke:none;fill-rule:evenodd;fill:rgb(0%,0%,0%);fill-opacity:1;" d="M 529.296875 259.855469 C 529.296875 230.257812 484.894531 230.257812 484.894531 259.855469 C 484.894531 289.457031 529.296875 289.457031 529.296875 259.855469 "/>
<path style=" stroke:none;fill-rule:evenodd;fill:rgb(0%,0%,0%);fill-opacity:1;" d="M 589.296875 259.855469 C 589.296875 230.257812 544.894531 230.257812 544.894531 259.855469 C 544.894531 289.457031 589.296875 289.457031 589.296875 259.855469 "/>
<path style=" stroke:none;fill-rule:evenodd;fill:rgb(0%,0%,0%);fill-opacity:1;" d="M 649.296875 259.855469 C 649.296875 230.257812 604.894531 230.257812 604.894531 259.855469 C 604.894531 289.457031 649.296875 289.457031 649.296875 259.855469 "/>
<path style=" stroke:none;fill-rule:evenodd;fill:rgb(0%,0%,0%);fill-opacity:1;" d="M 709.296875 259.855469 C 709.296875 230.257812 664.894531 230.257812 664.894531 259.855469 C 664.894531 289.457031 709.296875 289.457031 709.296875 259.855469 "/>
<path style=" stroke:none;fill-rule:evenodd;fill:rgb(0%,0%,0%);fill-opacity:1;" d="M 769.296875 259.855469 C 769.296875 230.257812 724.894531 230.257812 724.894531 259.855469 C 724.894531 289.457031 769.296875 289.457031 769.296875 259.855469 "/>
<path style=" stroke:none;fill-rule:evenodd;fill:rgb(0%,0%,0%);fill-opacity:1;" d="M 829.296875 259.855469 C 829.296875 230.257812 784.894531 230.257812 784.894531 259.855469 C 784.894531 289.457031 829.296875 289.457031 829.296875 259.855469 "/>
<path style=" stroke:none;fill-rule:evenodd;fill:rgb(0%,0%,0%);fill-opacity:1;" d="M 889.296875 259.855469 C 889.296875 230.257812 844.894531 230.257812 844.894531 259.855469 C 844.894531 289.457031 889.296875 289.457031 889.296875 259.855469 "/>
<path style=" stroke:none;fill-rule:evenodd;fill:rgb(0%,0%,0%);fill-opacity:1;" d="M 949.296875 259.855469 C 949.296875 230.257812 904.894531 230.257812 904.894531 259.855469 C 904.894531 289.457031 949.296875 289.457031 949.296875 259.855469 "/>
<path style=" stroke:none;fill-rule:evenodd;fill:rgb(0%,0%,0%);fill-opacity:1;" d="M 1009.296875 259.855469 C 1009.296875 230.257812 964.894531 230.257812 964.894531 259.855469 C 964.894531 289.457031 1009.296875 289.457031 1009.296875 259.855469 "/>
<path style=" stroke:none;fill-rule:evenodd;fill:rgb(0%,0%,0%);fill-opacity:1;" d="M 1069.296875 259.855469 C 1069.296875 230.257812 1024.894531 230.257812 1024.894531 259.855469 C 1024.894531 289.457031 1069.296875 289.457031 1069.296875 259.855469 "/>
<path style=" stroke:none;fill-rule:evenodd;fill:rgb(0%,0%,0%);fill-opacity:1;" d="M 1129.296875 259.855469 C 1129.296875 230.257812 1084.894531 230.257812 1084.894531 259.855469 C 1084.894531 289.457031 1129.296875 289.457031 1129.296875 259.855469 "/>
<path style=" stroke:none;fill-rule:evenodd;fill:rgb(0%,0%,0%);fill-opacity:1;" d="M 1189.296875 259.855469 C 1189.296875 230.257812 1144.894531 230.257812 1144.894531 259.855469 C 1144.894531 289.457031 1189.296875 289.457031 1189.296875 259.855469 "/>
<path style=" stroke:none;fill-rule:evenodd;fill:rgb(0%,0%,0%);fill-opacity:1;" d="M 1249.296875 259.855469 C 1249.296875 230.257812 1204.894531 230.257812 1204.894531 259.855469 C 1204.894531 289.457031 1249.296875 289.457031 1249.296875 259.855469 "/>
<path style=" stroke:none;fill-rule:evenodd;fill:rgb(0%,0%,0%);fill-opacity:1;" d="M 1309.296875 259.855469 C 1309.296875 230.257812 1264.894531 230.257812 1264.894531 259.855469 C 1264.894531 289.457031 1309.296875 289.457031 1309.296875 259.855469 "/>
<path style=" stroke:none;fill-rule:evenodd;fill:rgb(0%,0%,0%);fill-opacity:1;" d="M 1369.296875 259.855469 C 1369.296875 230.257812 1324.894531 230.257812 1324.894531 259.855469 C 1324.894531 289.457031 1369.296875 289.457031 1369.296875 259.855469 "/>
<path style=" stroke:none;fill-rule:evenodd;fill:rgb(0%,0%,0%);fill-opacity:1;" d="M 1615.199219 266 C 1615.199219 236.398438 1570.800781 236.398438 1570.800781 266 C 1570.800781 295.601562 1615.199219 295.601562 1615.199219 266 "/>
<path style=" stroke:none;fill-rule:evenodd;fill:rgb(0%,0%,0%);fill-opacity:1;" d="M 1855.199219 266 C 1855.199219 236.398438 1810.800781 236.398438 1810.800781 266 C 1810.800781 295.601562 1855.199219 295.601562 1855.199219 266 "/>
<path style=" stroke:none;fill-rule:evenodd;fill:rgb(0%,0%,0%);fill-opacity:1;" d="M 1705.199219 476 C 1705.199219 446.398438 1660.800781 446.398438 1660.800781 476 C 1660.800781 505.601562 1705.199219 505.601562 1705.199219 476 "/>
<path style=" stroke:none;fill-rule:evenodd;fill:rgb(0%,0%,0%);fill-opacity:1;" d="M 1705.199219 716 C 1705.199219 686.398438 1660.800781 686.398438 1660.800781 716 C 1660.800781 745.601562 1705.199219 745.601562 1705.199219 716 "/>
<path style=" stroke:none;fill-rule:evenodd;fill:rgb(0%,0%,0%);fill-opacity:1;" d="M 2041.800781 1089.199219 C 2041.800781 1059.601562 1997.398438 1059.601562 1997.398438 1089.199219 C 1997.398438 1118.800781 2041.800781 1118.800781 2041.800781 1089.199219 "/>
<path style=" stroke:none;fill-rule:evenodd;fill:rgb(0%,0%,0%);fill-opacity:1;" d="M 2148.601562 1089.199219 C 2148.601562 1059.601562 2104.199219 1059.601562 2104.199219 1089.199219 C 2104.199219 1118.800781 2148.601562 1118.800781 2148.601562 1089.199219 "/>
<path style=" stroke:none;fill-rule:evenodd;fill:rgb(0%,0%,0%);fill-opacity:1;" d="M 2148.601562 1242.800781 C 2148.601562 1213.199219 2104.199219 1213.199219 2104.199219 1242.800781 C 2104.199219 1272.398438 2148.601562 1272.398438 2148.601562 1242.800781 "/>
<path style=" stroke:none;fill-rule:evenodd;fill:rgb(0%,0%,0%);fill-opacity:1;" d="M 2041.800781 1242.800781 C 2041.800781 1213.199219 1997.398438 1213.199219 1997.398438 1242.800781 C 1997.398438 1272.398438 2041.800781 1272.398438 2041.800781 1242.800781 "/>
<path style=" stroke:none;fill-rule:evenodd;fill:rgb(0%,0%,0%);fill-opacity:1;" d="M 1125.601562 1136 C 1125.601562 1115.199219 1094.398438 1115.199219 1094.398438 1136 C 1094.398438 1156.800781 1125.601562 1156.800781 1125.601562 1136 "/>
<path style=" stroke:none;fill-rule:evenodd;fill:rgb(0%,0%,0%);fill-opacity:1;" d="M 1011.601562 1136 C 1011.601562 1115.199219 980.398438 1115.199219 980.398438 1136 C 980.398438 1156.800781 1011.601562 1156.800781 1011.601562 1136 "/>
<path style=" stroke:none;fill-rule:evenodd;fill:rgb(0%,0%,0%);fill-opacity:1;" d="M 892.5 1136 C 892.5 1110 853.5 1110 853.5 1136 C 853.5 1162 892.5 1162 892.5 1136 "/>
<path style=" stroke:none;fill-rule:evenodd;fill:rgb(0%,0%,0%);fill-opacity:1;" d="M 832.5 1136 C 832.5 1110 793.5 1110 793.5 1136 C 793.5 1162 832.5 1162 832.5 1136 "/>
<path style=" stroke:none;fill-rule:evenodd;fill:rgb(0%,0%,0%);fill-opacity:1;" d="M 1252.5 1136 C 1252.5 1110 1213.5 1110 1213.5 1136 C 1213.5 1162 1252.5 1162 1252.5 1136 "/>
<path style=" stroke:none;fill-rule:evenodd;fill:rgb(0%,0%,0%);fill-opacity:1;" d="M 1312.5 1136 C 1312.5 1110 1273.5 1110 1273.5 1136 C 1273.5 1162 1312.5 1162 1312.5 1136 "/>
<path style=" stroke:none;fill-rule:evenodd;fill:rgb(0%,0%,0%);fill-opacity:1;" d="M 1012.5 656 C 1012.5 630 973.5 630 973.5 656 C 973.5 682 1012.5 682 1012.5 656 "/>
<path style=" stroke:none;fill-rule:evenodd;fill:rgb(0%,0%,0%);fill-opacity:1;" d="M 952.5 656 C 952.5 630 913.5 630 913.5 656 C 913.5 682 952.5 682 952.5 656 "/>
<path style=" stroke:none;fill-rule:evenodd;fill:rgb(0%,0%,0%);fill-opacity:1;" d="M 2275.199219 676.804688 L 2262.195312 663.800781 L 2243.804688 663.800781 L 2230.800781 676.804688 L 2230.800781 695.195312 L 2243.804688 708.199219 L 2262.195312 708.199219 L 2275.199219 695.195312 L 2275.199219 676.804688 "/>
<path style=" stroke:none;fill-rule:evenodd;fill:rgb(0%,0%,0%);fill-opacity:1;" d="M 2335.199219 676.804688 L 2322.195312 663.800781 L 2303.804688 663.800781 L 2290.800781 676.804688 L 2290.800781 695.195312 L 2303.804688 708.199219 L 2322.195312 708.199219 L 2335.199219 695.195312 L 2335.199219 676.804688 "/>
<path style=" stroke:none;fill-rule:evenodd;fill:rgb(0%,0%,0%);fill-opacity:1;" d="M 2335.199219 736.804688 L 2322.195312 723.800781 L 2303.804688 723.800781 L 2290.800781 736.804688 L 2290.800781 755.195312 L 2303.804688 768.199219 L 2322.195312 768.199219 L 2335.199219 755.195312 L 2335.199219 736.804688 "/>
<path style=" stroke:none;fill-rule:evenodd;fill:rgb(0%,0%,0%);fill-opacity:1;" d="M 2275.199219 736.804688 L 2262.195312 723.800781 L 2243.804688 723.800781 L 2230.800781 736.804688 L 2230.800781 755.195312 L 2243.804688 768.199219 L 2262.195312 768.199219 L 2275.199219 755.195312 L 2275.199219 736.804688 "/>
<path style=" stroke:none;fill-rule:evenodd;fill:rgb(0%,0%,0%);fill-opacity:1;" d="M 2275.199219 796.804688 L 2262.195312 783.800781 L 2243.804688 783.800781 L 2230.800781 796.804688 L 2230.800781 815.195312 L 2243.804688 828.199219 L 2262.195312 828.199219 L 2275.199219 815.195312 L 2275.199219 796.804688 "/>
<path style=" stroke:none;fill-rule:evenodd;fill:rgb(0%,0%,0%);fill-opacity:1;" d="M 2335.199219 796.804688 L 2322.195312 783.800781 L 2303.804688 783.800781 L 2290.800781 796.804688 L 2290.800781 815.195312 L 2303.804688 828.199219 L 2322.195312 828.199219 L 2335.199219 815.195312 L 2335.199219 796.804688 "/>
<path style=" stroke:none;fill-rule:evenodd;fill:rgb(0%,0%,0%);fill-opacity:1;" d="M 2335.199219 856.804688 L 2322.195312 843.800781 L 2303.804688 843.800781 L 2290.800781 856.804688 L 2290.800781 875.195312 L 2303.804688 888.199219 L 2322.195312 888.199219 L 2335.199219 875.195312 L 2335.199219 856.804688 "/>
<path style=" stroke:none;fill-rule:evenodd;fill:rgb(0%,0%,0%);fill-opacity:1;" d="M 2275.199219 856.804688 L 2262.195312 843.800781 L 2243.804688 843.800781 L 2230.800781 856.804688 L 2230.800781 875.195312 L 2243.804688 888.199219 L 2262.195312 888.199219 L 2275.199219 875.195312 L 2275.199219 856.804688 "/>
<path style=" stroke:none;fill-rule:evenodd;fill:rgb(0%,0%,0%);fill-opacity:1;" d="M 2275.199219 916.804688 L 2262.195312 903.800781 L 2243.804688 903.800781 L 2230.800781 916.804688 L 2230.800781 935.195312 L 2243.804688 948.199219 L 2262.195312 948.199219 L 2275.199219 935.195312 L 2275.199219 916.804688 "/>
<path style=" stroke:none;fill-rule:evenodd;fill:rgb(0%,0%,0%);fill-opacity:1;" d="M 2335.199219 916.804688 L 2322.195312 903.800781 L 2303.804688 903.800781 L 2290.800781 916.804688 L 2290.800781 935.195312 L 2303.804688 948.199219 L 2322.195312 948.199219 L 2335.199219 935.195312 L 2335.199219 916.804688 "/>
<path style="fill:none;stroke-width:0.06;stroke-linecap:round;stroke-linejoin:miter;stroke:rgb(0%,0%,0%);stroke-opacity:1;stroke-miterlimit:10;" d="M 0.43333 0.345 L 0.43333 0.285 " transform="matrix(600,0,0,-600,-16.998,1415)"/>
<path style="fill:none;stroke-width:0.06;stroke-linecap:round;stroke-linejoin:miter;stroke:rgb(0%,0%,0%);stroke-opacity:1;stroke-miterlimit:10;" d="M 0.53333 0.285 L 0.53333 0.345 " transform="matrix(600,0,0,-600,-16.998,1415)"/>
<path style="fill:none;stroke-width:0.06;stroke-linecap:round;stroke-linejoin:miter;stroke:rgb(0%,0%,0%);stroke-opacity:1;stroke-miterlimit:10;" d="M 0.63333 0.345 L 0.63333 0.285 " transform="matrix(600,0,0,-600,-16.998,1415)"/>
<path style="fill:none;stroke-width:0.06;stroke-linecap:round;stroke-linejoin:miter;stroke:rgb(0%,0%,0%);stroke-opacity:1;stroke-miterlimit:10;" d="M 0.73333 0.285 L 0.73333 0.345 " transform="matrix(600,0,0,-600,-16.998,1415)"/>
<path style="fill:none;stroke-width:0.06;stroke-linecap:round;stroke-linejoin:miter;stroke:rgb(0%,0%,0%);stroke-opacity:1;stroke-miterlimit:10;" d="M 0.98333 0.345 L 0.98333 0.285 " transform="matrix(600,0,0,-600,-16.998,1415)"/>
<path style="fill:none;stroke-width:0.06;stroke-linecap:round;stroke-linejoin:miter;stroke:rgb(0%,0%,0%);stroke-opacity:1;stroke-miterlimit:10;" d="M 1.08333 0.285 L 1.08333 0.345 " transform="matrix(600,0,0,-600,-16.998,1415)"/>
<path style="fill:none;stroke-width:0.06;stroke-linecap:round;stroke-linejoin:miter;stroke:rgb(0%,0%,0%);stroke-opacity:1;stroke-miterlimit:10;" d="M 1.18333 0.345 L 1.18333 0.285 " transform="matrix(600,0,0,-600,-16.998,1415)"/>
<path style="fill:none;stroke-width:0.06;stroke-linecap:round;stroke-linejoin:miter;stroke:rgb(0%,0%,0%);stroke-opacity:1;stroke-miterlimit:10;" d="M 1.28333 0.285 L 1.28333 0.345 " transform="matrix(600,0,0,-600,-16.998,1415)"/>
<path style="fill:none;stroke-width:0.06;stroke-linecap:round;stroke-linejoin:miter;stroke:rgb(0%,0%,0%);stroke-opacity:1;stroke-miterlimit:10;" d="M 0.31333 0.615 L 0.25333 0.615 " transform="matrix(600,0,0,-600,-16.998,1415)"/>
<path style="fill:none;stroke-width:0.06;stroke-linecap:round;stroke-linejoin:miter;stroke:rgb(0%,0%,0%);stroke-opacity:1;stroke-miterlimit:10;" d="M 0.25333 0.715 L 0.31333 0.715 " transform="matrix(600,0,0,-600,-16.998,1415)"/>
<path style="fill:none;stroke-width:0.06;stroke-linecap:round;stroke-linejoin:miter;stroke:rgb(0%,0%,0%);stroke-opacity:1;stroke-miterlimit:10;" d="M 0.31333 0.815 L 0.25333 0.815 " transform="matrix(600,0,0,-600,-16.998,1415)"/>
<path style="fill:none;stroke-width:0.06;stroke-linecap:round;stroke-linejoin:miter;stroke:rgb(0%,0%,0%);stroke-opacity:1;stroke-miterlimit:10;" d="M 2.33333 0.345 L 2.33333 0.285 " transform="matrix(600,0,0,-600,-16.998,1415)"/>
<path style="fill:none;stroke-width:0.06;stroke-linecap:round;stroke-linejoin:miter;stroke:rgb(0%,0%,0%);stroke-opacity:1;stroke-miterlimit:10;" d="M 2.43333 0.285 L 2.43333 0.345 " transform="matrix(600,0,0,-600,-16.998,1415)"/>
<path style="fill:none;stroke-width:0.06;stroke-linecap:round;stroke-linejoin:miter;stroke:rgb(0%,0%,0%);stroke-opacity:1;stroke-miterlimit:10;" d="M 2.53333 0.345 L 2.53333 0.285 " transform="matrix(600,0,0,-600,-16.998,1415)"/>
<path style="fill:none;stroke-width:0.06;stroke-linecap:round;stroke-linejoin:miter;stroke:rgb(0%,0%,0%);stroke-opacity:1;stroke-miterlimit:10;" d="M 2.63333 0.285 L 2.63333 0.345 " transform="matrix(600,0,0,-600,-16.998,1415)"/>
<path style="fill:none;stroke-width:0.06;stroke-linecap:round;stroke-linejoin:miter;stroke:rgb(0%,0%,0%);stroke-opacity:1;stroke-miterlimit:10;" d="M 2.73333 0.345 L 2.73333 0.285 " transform="matrix(600,0,0,-600,-16.998,1415)"/>
<path style="fill:none;stroke-width:0.06;stroke-linecap:round;stroke-linejoin:miter;stroke:rgb(0%,0%,0%);stroke-opacity:1;stroke-miterlimit:10;" d="M 2.83333 0.285 L 2.83333 0.345 " transform="matrix(600,0,0,-600,-16.998,1415)"/>
<path style="fill:none;stroke-width:0.06;stroke-linecap:round;stroke-linejoin:miter;stroke:rgb(0%,0%,0%);stroke-opacity:1;stroke-miterlimit:10;" d="M 3.08333 0.345 L 3.08333 0.285 " transform="matrix(600,0,0,-600,-16.998,1415)"/>
<path style="fill:none;stroke-width:0.06;stroke-linecap:round;stroke-linejoin:miter;stroke:rgb(0%,0%,0%);stroke-opacity:1;stroke-miterlimit:10;" d="M 3.18333 0.285 L 3.18333 0.345 " transform="matrix(600,0,0,-600,-16.998,1415)"/>
<path style=" stroke:none;fill-rule:evenodd;fill:rgb(0%,0%,0%);fill-opacity:1;" d="M 1794 1016 C 1794 988 1752 988 1752 1016 C 1752 1044 1794 1044 1794 1016 "/>
<path style=" stroke:none;fill-rule:evenodd;fill:rgb(0%,0%,0%);fill-opacity:1;" d="M 1404 956 C 1404 928 1362 928 1362 956 C 1362 984 1404 984 1404 956 "/>
<path style=" stroke:none;fill-rule:evenodd;fill:rgb(0%,0%,0%);fill-opacity:1;" d="M 1404 806 C 1404 778 1362 778 1362 806 C 1362 834 1404 834 1404 806 "/>
<path style=" stroke:none;fill-rule:evenodd;fill:rgb(0%,0%,0%);fill-opacity:1;" d="M 1554 656 C 1554 628 1512 628 1512 656 C 1512 684 1554 684 1554 656 "/>
<path style=" stroke:none;fill-rule:evenodd;fill:rgb(0%,0%,0%);fill-opacity:1;" d="M 1494 596 C 1494 568 1452 568 1452 596 C 1452 624 1494 624 1494 596 "/>
<path style=" stroke:none;fill-rule:evenodd;fill:rgb(0%,0%,0%);fill-opacity:1;" d="M 1494 536 C 1494 508 1452 508 1452 536 C 1452 564 1494 564 1494 536 "/>
<path style=" stroke:none;fill-rule:evenodd;fill:rgb(0%,0%,0%);fill-opacity:1;" d="M 1494 476 C 1494 448 1452 448 1452 476 C 1452 504 1494 504 1494 476 "/>
<path style=" stroke:none;fill-rule:evenodd;fill:rgb(0%,0%,0%);fill-opacity:1;" d="M 1404 416 C 1404 388 1362 388 1362 416 C 1362 444 1404 444 1404 416 "/>
<path style=" stroke:none;fill-rule:evenodd;fill:rgb(0%,0%,0%);fill-opacity:1;" d="M 1314 356 C 1314 328 1272 328 1272 356 C 1272 384 1314 384 1314 356 "/>
<path style=" stroke:none;fill-rule:evenodd;fill:rgb(0%,0%,0%);fill-opacity:1;" d="M 1314 206 C 1314 178 1272 178 1272 206 C 1272 234 1314 234 1314 206 "/>
<path style=" stroke:none;fill-rule:evenodd;fill:rgb(0%,0%,0%);fill-opacity:1;" d="M 1014 356 C 1014 328 972 328 972 356 C 972 384 1014 384 1014 356 "/>
<path style=" stroke:none;fill-rule:evenodd;fill:rgb(0%,0%,0%);fill-opacity:1;" d="M 1014 416 C 1014 388 972 388 972 416 C 972 444 1014 444 1014 416 "/>
<path style=" stroke:none;fill-rule:evenodd;fill:rgb(0%,0%,0%);fill-opacity:1;" d="M 1014 476 C 1014 448 972 448 972 476 C 972 504 1014 504 1014 476 "/>
<path style=" stroke:none;fill-rule:evenodd;fill:rgb(0%,0%,0%);fill-opacity:1;" d="M 1194 536 C 1194 508 1152 508 1152 536 C 1152 564 1194 564 1194 536 "/>
<path style=" stroke:none;fill-rule:evenodd;fill:rgb(0%,0%,0%);fill-opacity:1;" d="M 1074 596 C 1074 568 1032 568 1032 596 C 1032 624 1074 624 1074 596 "/>
<path style=" stroke:none;fill-rule:evenodd;fill:rgb(0%,0%,0%);fill-opacity:1;" d="M 1134 656 C 1134 628 1092 628 1092 656 C 1092 684 1134 684 1134 656 "/>
<path style=" stroke:none;fill-rule:evenodd;fill:rgb(0%,0%,0%);fill-opacity:1;" d="M 1014 866 C 1014 838 972 838 972 866 C 972 894 1014 894 1014 866 "/>
<path style=" stroke:none;fill-rule:evenodd;fill:rgb(0%,0%,0%);fill-opacity:1;" d="M 834 866 C 834 838 792 838 792 866 C 792 894 834 894 834 866 "/>
<path style=" stroke:none;fill-rule:evenodd;fill:rgb(0%,0%,0%);fill-opacity:1;" d="M 534 1016 C 534 988 492 988 492 1016 C 492 1044 534 1044 534 1016 "/>
<path style=" stroke:none;fill-rule:evenodd;fill:rgb(0%,0%,0%);fill-opacity:1;" d="M 444 866 C 444 838 402 838 402 866 C 402 894 444 894 444 866 "/>
<path style=" stroke:none;fill-rule:evenodd;fill:rgb(0%,0%,0%);fill-opacity:1;" d="M 534 206 C 534 178 492 178 492 206 C 492 234 534 234 534 206 "/>
<path style=" stroke:none;fill-rule:evenodd;fill:rgb(0%,0%,0%);fill-opacity:1;" d="M 1794 746 C 1794 718 1752 718 1752 746 C 1752 774 1794 774 1794 746 "/>
<path style=" stroke:none;fill-rule:evenodd;fill:rgb(0%,0%,0%);fill-opacity:1;" d="M 2034 746 C 2034 718 1992 718 1992 746 C 1992 774 2034 774 2034 746 "/>
<path style="fill:none;stroke-width:0.024;stroke-linecap:round;stroke-linejoin:miter;stroke:rgb(0%,0%,0%);stroke-opacity:1;stroke-miterlimit:10;" d="M 3.38333 1.115 L 2.98333 1.115 " transform="matrix(600,0,0,-600,-16.998,1415)"/>
<path style="fill:none;stroke-width:0.024;stroke-linecap:round;stroke-linejoin:miter;stroke:rgb(0%,0%,0%);stroke-opacity:1;stroke-miterlimit:10;" d="M 2.58333 1.265 L 1.88333 1.265 " transform="matrix(600,0,0,-600,-16.998,1415)"/>
<path style="fill:none;stroke-width:0.024;stroke-linecap:round;stroke-linejoin:miter;stroke:rgb(0%,0%,0%);stroke-opacity:1;stroke-miterlimit:10;" d="M 1.78333 1.365 L 2.48333 1.365 " transform="matrix(600,0,0,-600,-16.998,1415)"/>
<path style="fill:none;stroke-width:0.024;stroke-linecap:round;stroke-linejoin:miter;stroke:rgb(0%,0%,0%);stroke-opacity:1;stroke-miterlimit:10;" d="M 2.48333 1.465 L 1.98333 1.465 " transform="matrix(600,0,0,-600,-16.998,1415)"/>
<path style="fill:none;stroke-width:0.024;stroke-linecap:round;stroke-linejoin:miter;stroke:rgb(0%,0%,0%);stroke-opacity:1;stroke-miterlimit:10;" d="M 1.68333 1.565 L 2.48333 1.565 " transform="matrix(600,0,0,-600,-16.998,1415)"/>
<path style="fill:none;stroke-width:0.024;stroke-linecap:round;stroke-linejoin:miter;stroke:rgb(0%,0%,0%);stroke-opacity:1;stroke-miterlimit:10;" d="M 2.33333 1.665 L 1.68333 1.665 " transform="matrix(600,0,0,-600,-16.998,1415)"/>
<path style="fill:none;stroke-width:0.024;stroke-linecap:round;stroke-linejoin:miter;stroke:rgb(0%,0%,0%);stroke-opacity:1;stroke-miterlimit:10;" d="M 1.68333 1.765 L 2.18333 1.765 " transform="matrix(600,0,0,-600,-16.998,1415)"/>
<path style="fill:none;stroke-width:0.024;stroke-linecap:round;stroke-linejoin:miter;stroke:rgb(0%,0%,0%);stroke-opacity:1;stroke-miterlimit:10;" d="M 2.18333 2.015 L 0.88333 2.015 " transform="matrix(600,0,0,-600,-16.998,1415)"/>
<path style="fill:none;stroke-width:0.024;stroke-linecap:round;stroke-linejoin:miter;stroke:rgb(0%,0%,0%);stroke-opacity:1;stroke-miterlimit:10;" d="M 2.33333 1.015 L 2.33333 0.765 " transform="matrix(600,0,0,-600,-16.998,1415)"/>
<path style="fill:none;stroke-width:0.024;stroke-linecap:round;stroke-linejoin:miter;stroke:rgb(0%,0%,0%);stroke-opacity:1;stroke-miterlimit:10;" d="M 1.68333 0.915 L 1.38333 0.915 " transform="matrix(600,0,0,-600,-16.998,1415)"/>
<path style="fill:none;stroke-width:0.024;stroke-linecap:round;stroke-linejoin:miter;stroke:rgb(0%,0%,0%);stroke-opacity:1;stroke-miterlimit:10;" d="M 0.88333 0.665 L 2.98333 0.665 " transform="matrix(600,0,0,-600,-16.998,1415)"/>
<path style=" stroke:none;fill-rule:evenodd;fill:rgb(0%,0%,0%);fill-opacity:1;" d="M 408.601562 790.398438 L 437.402344 790.398438 L 437.402344 761.597656 L 408.601562 761.597656 Z M 408.601562 790.398438 "/>
<path style=" stroke:none;fill-rule:evenodd;fill:rgb(0%,0%,0%);fill-opacity:1;" d="M 228.601562 790.398438 L 257.402344 790.398438 L 257.402344 761.597656 L 228.601562 761.597656 Z M 228.601562 790.398438 "/>
<path style="fill:none;stroke-width:0.032;stroke-linecap:round;stroke-linejoin:miter;stroke:rgb(0%,0%,0%);stroke-opacity:1;stroke-miterlimit:10;" d="M 0.43333 1.065 L 0.73333 1.065 " transform="matrix(600,0,0,-600,-16.998,1415)"/>
<path style=" stroke:none;fill-rule:evenodd;fill:rgb(100%,100%,100%);fill-opacity:1;" d="M 817.78125 1136 C 817.78125 1129.601562 808.183594 1129.601562 808.183594 1136 C 808.183594 1142.398438 817.78125 1142.398438 817.78125 1136 "/>
<path style=" stroke:none;fill-rule:evenodd;fill:rgb(100%,100%,100%);fill-opacity:1;" d="M 877.78125 1136 C 877.78125 1129.601562 868.183594 1129.601562 868.183594 1136 C 868.183594 1142.398438 877.78125 1142.398438 877.78125 1136 "/>
<path style=" stroke:none;fill-rule:evenodd;fill:rgb(100%,100%,100%);fill-opacity:1;" d="M 1237.78125 1136 C 1237.78125 1129.601562 1228.183594 1129.601562 1228.183594 1136 C 1228.183594 1142.398438 1237.78125 1142.398438 1237.78125 1136 "/>
<path style=" stroke:none;fill-rule:evenodd;fill:rgb(100%,100%,100%);fill-opacity:1;" d="M 1297.78125 1136 C 1297.78125 1129.601562 1288.183594 1129.601562 1288.183594 1136 C 1288.183594 1142.398438 1297.78125 1142.398438 1297.78125 1136 "/>
<path style=" stroke:none;fill-rule:evenodd;fill:rgb(100%,100%,100%);fill-opacity:1;" d="M 997.78125 656 C 997.78125 649.601562 988.183594 649.601562 988.183594 656 C 988.183594 662.398438 997.78125 662.398438 997.78125 656 "/>
<path style=" stroke:none;fill-rule:evenodd;fill:rgb(100%,100%,100%);fill-opacity:1;" d="M 937.78125 656 C 937.78125 649.601562 928.183594 649.601562 928.183594 656 C 928.183594 662.398438 937.78125 662.398438 937.78125 656 "/>
<path style=" stroke:none;fill-rule:evenodd;fill:rgb(100%,100%,100%);fill-opacity:1;" d="M 1057.78125 596 C 1057.78125 589.601562 1048.183594 589.601562 1048.183594 596 C 1048.183594 602.398438 1057.78125 602.398438 1057.78125 596 "/>
<path style=" stroke:none;fill-rule:evenodd;fill:rgb(100%,100%,100%);fill-opacity:1;" d="M 1117.78125 656 C 1117.78125 649.601562 1108.183594 649.601562 1108.183594 656 C 1108.183594 662.398438 1117.78125 662.398438 1117.78125 656 "/>
<path style=" stroke:none;fill-rule:evenodd;fill:rgb(100%,100%,100%);fill-opacity:1;" d="M 1177.78125 536 C 1177.78125 529.601562 1168.183594 529.601562 1168.183594 536 C 1168.183594 542.398438 1177.78125 542.398438 1177.78125 536 "/>
<path style=" stroke:none;fill-rule:evenodd;fill:rgb(100%,100%,100%);fill-opacity:1;" d="M 997.78125 476 C 997.78125 469.601562 988.183594 469.601562 988.183594 476 C 988.183594 482.398438 997.78125 482.398438 997.78125 476 "/>
<path style=" stroke:none;fill-rule:evenodd;fill:rgb(100%,100%,100%);fill-opacity:1;" d="M 997.78125 416 C 997.78125 409.601562 988.183594 409.601562 988.183594 416 C 988.183594 422.398438 997.78125 422.398438 997.78125 416 "/>
<path style=" stroke:none;fill-rule:evenodd;fill:rgb(100%,100%,100%);fill-opacity:1;" d="M 997.78125 356 C 997.78125 349.601562 988.183594 349.601562 988.183594 356 C 988.183594 362.398438 997.78125 362.398438 997.78125 356 "/>
<path style=" stroke:none;fill-rule:evenodd;fill:rgb(100%,100%,100%);fill-opacity:1;" d="M 1297.78125 356 C 1297.78125 349.601562 1288.183594 349.601562 1288.183594 356 C 1288.183594 362.398438 1297.78125 362.398438 1297.78125 356 "/>
<path style=" stroke:none;fill-rule:evenodd;fill:rgb(100%,100%,100%);fill-opacity:1;" d="M 1387.78125 416 C 1387.78125 409.601562 1378.183594 409.601562 1378.183594 416 C 1378.183594 422.398438 1387.78125 422.398438 1387.78125 416 "/>
<path style=" stroke:none;fill-rule:evenodd;fill:rgb(100%,100%,100%);fill-opacity:1;" d="M 1477.78125 476 C 1477.78125 469.601562 1468.183594 469.601562 1468.183594 476 C 1468.183594 482.398438 1477.78125 482.398438 1477.78125 476 "/>
<path style=" stroke:none;fill-rule:evenodd;fill:rgb(100%,100%,100%);fill-opacity:1;" d="M 1477.78125 536 C 1477.78125 529.601562 1468.183594 529.601562 1468.183594 536 C 1468.183594 542.398438 1477.78125 542.398438 1477.78125 536 "/>
<path style=" stroke:none;fill-rule:evenodd;fill:rgb(100%,100%,100%);fill-opacity:1;" d="M 1477.78125 596 C 1477.78125 589.601562 1468.183594 589.601562 1468.183594 596 C 1468.183594 602.398438 1477.78125 602.398438 1477.78125 596 "/>
<path style=" stroke:none;fill-rule:evenodd;fill:rgb(100%,100%,100%);fill-opacity:1;" d="M 1537.78125 656 C 1537.78125 649.601562 1528.183594 649.601562 1528.183594 656 C 1528.183594 662.398438 1537.78125 662.398438 1537.78125 656 "/>
<path style=" stroke:none;fill-rule:evenodd;fill:rgb(100%,100%,100%);fill-opacity:1;" d="M 1777.78125 746 C 1777.78125 739.601562 1768.183594 739.601562 1768.183594 746 C 1768.183594 752.398438 1777.78125 752.398438 1777.78125 746 "/>
<path style=" stroke:none;fill-rule:evenodd;fill:rgb(100%,100%,100%);fill-opacity:1;" d="M 2017.78125 746 C 2017.78125 739.601562 2008.183594 739.601562 2008.183594 746 C 2008.183594 752.398438 2017.78125 752.398438 2017.78125 746 "/>
<path style=" stroke:none;fill-rule:evenodd;fill:rgb(100%,100%,100%);fill-opacity:1;" d="M 1777.78125 1016 C 1777.78125 1009.601562 1768.183594 1009.601562 1768.183594 1016 C 1768.183594 1022.398438 1777.78125 1022.398438 1777.78125 1016 "/>
<path style=" stroke:none;fill-rule:evenodd;fill:rgb(100%,100%,100%);fill-opacity:1;" d="M 1387.78125 956 C 1387.78125 949.601562 1378.183594 949.601562 1378.183594 956 C 1378.183594 962.398438 1387.78125 962.398438 1387.78125 956 "/>
<path style=" stroke:none;fill-rule:evenodd;fill:rgb(100%,100%,100%);fill-opacity:1;" d="M 1387.78125 806 C 1387.78125 799.601562 1378.183594 799.601562 1378.183594 806 C 1378.183594 812.398438 1387.78125 812.398438 1387.78125 806 "/>
<path style=" stroke:none;fill-rule:evenodd;fill:rgb(100%,100%,100%);fill-opacity:1;" d="M 997.78125 866 C 997.78125 859.601562 988.183594 859.601562 988.183594 866 C 988.183594 872.398438 997.78125 872.398438 997.78125 866 "/>
<path style=" stroke:none;fill-rule:evenodd;fill:rgb(100%,100%,100%);fill-opacity:1;" d="M 817.78125 866 C 817.78125 859.601562 808.183594 859.601562 808.183594 866 C 808.183594 872.398438 817.78125 872.398438 817.78125 866 "/>
<path style=" stroke:none;fill-rule:evenodd;fill:rgb(100%,100%,100%);fill-opacity:1;" d="M 517.78125 1016 C 517.78125 1009.601562 508.183594 1009.601562 508.183594 1016 C 508.183594 1022.398438 517.78125 1022.398438 517.78125 1016 "/>
<path style=" stroke:none;fill-rule:evenodd;fill:rgb(100%,100%,100%);fill-opacity:1;" d="M 427.78125 866 C 427.78125 859.601562 418.183594 859.601562 418.183594 866 C 418.183594 872.398438 427.78125 872.398438 427.78125 866 "/>
<path style=" stroke:none;fill-rule:evenodd;fill:rgb(100%,100%,100%);fill-opacity:1;" d="M 517.78125 206 C 517.78125 199.601562 508.183594 199.601562 508.183594 206 C 508.183594 212.398438 517.78125 212.398438 517.78125 206 "/>
<path style=" stroke:none;fill-rule:evenodd;fill:rgb(100%,100%,100%);fill-opacity:1;" d="M 1297.78125 206 C 1297.78125 199.601562 1288.183594 199.601562 1288.183594 206 C 1288.183594 212.398438 1297.78125 212.398438 1297.78125 206 "/>
<path style=" stroke:none;fill-rule:evenodd;fill:rgb(100%,100%,100%);fill-opacity:1;" d="M 1297.78125 776 C 1297.78125 769.601562 1288.183594 769.601562 1288.183594 776 C 1288.183594 782.398438 1297.78125 782.398438 1297.78125 776 "/>
<path style=" stroke:none;fill-rule:evenodd;fill:rgb(100%,100%,100%);fill-opacity:1;" d="M 1237.78125 776 C 1237.78125 769.601562 1228.183594 769.601562 1228.183594 776 C 1228.183594 782.398438 1237.78125 782.398438 1237.78125 776 "/>
<path style=" stroke:none;fill-rule:evenodd;fill:rgb(100%,100%,100%);fill-opacity:1;" d="M 1177.78125 776 C 1177.78125 769.601562 1168.183594 769.601562 1168.183594 776 C 1168.183594 782.398438 1177.78125 782.398438 1177.78125 776 "/>
<path style=" stroke:none;fill-rule:evenodd;fill:rgb(100%,100%,100%);fill-opacity:1;" d="M 1117.78125 776 C 1117.78125 769.601562 1108.183594 769.601562 1108.183594 776 C 1108.183594 782.398438 1117.78125 782.398438 1117.78125 776 "/>
<path style=" stroke:none;fill-rule:evenodd;fill:rgb(100%,100%,100%);fill-opacity:1;" d="M 1057.78125 776 C 1057.78125 769.601562 1048.183594 769.601562 1048.183594 776 C 1048.183594 782.398438 1057.78125 782.398438 1057.78125 776 "/>
<path style=" stroke:none;fill-rule:evenodd;fill:rgb(100%,100%,100%);fill-opacity:1;" d="M 997.78125 776 C 997.78125 769.601562 988.183594 769.601562 988.183594 776 C 988.183594 782.398438 997.78125 782.398438 997.78125 776 "/>
<path style=" stroke:none;fill-rule:evenodd;fill:rgb(100%,100%,100%);fill-opacity:1;" d="M 937.78125 776 C 937.78125 769.601562 928.183594 769.601562 928.183594 776 C 928.183594 782.398438 937.78125 782.398438 937.78125 776 "/>
<path style=" stroke:none;fill-rule:evenodd;fill:rgb(100%,100%,100%);fill-opacity:1;" d="M 877.78125 776 C 877.78125 769.601562 868.183594 769.601562 868.183594 776 C 868.183594 782.398438 877.78125 782.398438 877.78125 776 "/>
<path style=" stroke:none;fill-rule:evenodd;fill:rgb(100%,100%,100%);fill-opacity:1;" d="M 817.78125 776 C 817.78125 769.601562 808.183594 769.601562 808.183594 776 C 808.183594 782.398438 817.78125 782.398438 817.78125 776 "/>
<path style=" stroke:none;fill-rule:evenodd;fill:rgb(100%,100%,100%);fill-opacity:1;" d="M 757.78125 776 C 757.78125 769.601562 748.183594 769.601562 748.183594 776 C 748.183594 782.398438 757.78125 782.398438 757.78125 776 "/>
<path style=" stroke:none;fill-rule:evenodd;fill:rgb(100%,100%,100%);fill-opacity:1;" d="M 697.78125 776 C 697.78125 769.601562 688.183594 769.601562 688.183594 776 C 688.183594 782.398438 697.78125 782.398438 697.78125 776 "/>
<path style=" stroke:none;fill-rule:evenodd;fill:rgb(100%,100%,100%);fill-opacity:1;" d="M 637.78125 776 C 637.78125 769.601562 628.183594 769.601562 628.183594 776 C 628.183594 782.398438 637.78125 782.398438 637.78125 776 "/>
<path style=" stroke:none;fill-rule:evenodd;fill:rgb(100%,100%,100%);fill-opacity:1;" d="M 577.78125 776 C 577.78125 769.601562 568.183594 769.601562 568.183594 776 C 568.183594 782.398438 577.78125 782.398438 577.78125 776 "/>
<path style=" stroke:none;fill-rule:evenodd;fill:rgb(100%,100%,100%);fill-opacity:1;" d="M 517.78125 776 C 517.78125 769.601562 508.183594 769.601562 508.183594 776 C 508.183594 782.398438 517.78125 782.398438 517.78125 776 "/>
<path style=" stroke:none;fill-rule:evenodd;fill:rgb(100%,100%,100%);fill-opacity:1;" d="M 427.78125 776 C 427.78125 769.601562 418.183594 769.601562 418.183594 776 C 418.183594 782.398438 427.78125 782.398438 427.78125 776 "/>
<path style=" stroke:none;fill-rule:evenodd;fill:rgb(100%,100%,100%);fill-opacity:1;" d="M 247.78125 776 C 247.78125 769.601562 238.183594 769.601562 238.183594 776 C 238.183594 782.398438 247.78125 782.398438 247.78125 776 "/>
<path style=" stroke:none;fill-rule:evenodd;fill:rgb(100%,100%,100%);fill-opacity:1;" d="M 517.78125 956 C 517.78125 949.601562 508.183594 949.601562 508.183594 956 C 508.183594 962.398438 517.78125 962.398438 517.78125 956 "/>
<path style=" stroke:none;fill-rule:evenodd;fill:rgb(100%,100%,100%);fill-opacity:1;" d="M 577.78125 956 C 577.78125 949.601562 568.183594 949.601562 568.183594 956 C 568.183594 962.398438 577.78125 962.398438 577.78125 956 "/>
<path style=" stroke:none;fill-rule:evenodd;fill:rgb(100%,100%,100%);fill-opacity:1;" d="M 637.78125 956 C 637.78125 949.601562 628.183594 949.601562 628.183594 956 C 628.183594 962.398438 637.78125 962.398438 637.78125 956 "/>
<path style=" stroke:none;fill-rule:evenodd;fill:rgb(100%,100%,100%);fill-opacity:1;" d="M 697.78125 956 C 697.78125 949.601562 688.183594 949.601562 688.183594 956 C 688.183594 962.398438 697.78125 962.398438 697.78125 956 "/>
<path style=" stroke:none;fill-rule:evenodd;fill:rgb(100%,100%,100%);fill-opacity:1;" d="M 757.78125 956 C 757.78125 949.601562 748.183594 949.601562 748.183594 956 C 748.183594 962.398438 757.78125 962.398438 757.78125 956 "/>
<path style=" stroke:none;fill-rule:evenodd;fill:rgb(100%,100%,100%);fill-opacity:1;" d="M 817.78125 956 C 817.78125 949.601562 808.183594 949.601562 808.183594 956 C 808.183594 962.398438 817.78125 962.398438 817.78125 956 "/>
<path style=" stroke:none;fill-rule:evenodd;fill:rgb(100%,100%,100%);fill-opacity:1;" d="M 877.78125 956 C 877.78125 949.601562 868.183594 949.601562 868.183594 956 C 868.183594 962.398438 877.78125 962.398438 877.78125 956 "/>
<path style=" stroke:none;fill-rule:evenodd;fill:rgb(100%,100%,100%);fill-opacity:1;" d="M 937.78125 956 C 937.78125 949.601562 928.183594 949.601562 928.183594 956 C 928.183594 962.398438 937.78125 962.398438 937.78125 956 "/>
<path style=" stroke:none;fill-rule:evenodd;fill:rgb(100%,100%,100%);fill-opacity:1;" d="M 997.78125 956 C 997.78125 949.601562 988.183594 949.601562 988.183594 956 C 988.183594 962.398438 997.78125 962.398438 997.78125 956 "/>
<path style=" stroke:none;fill-rule:evenodd;fill:rgb(100%,100%,100%);fill-opacity:1;" d="M 1057.78125 956 C 1057.78125 949.601562 1048.183594 949.601562 1048.183594 956 C 1048.183594 962.398438 1057.78125 962.398438 1057.78125 956 "/>
<path style=" stroke:none;fill-rule:evenodd;fill:rgb(100%,100%,100%);fill-opacity:1;" d="M 1117.78125 956 C 1117.78125 949.601562 1108.183594 949.601562 1108.183594 956 C 1108.183594 962.398438 1117.78125 962.398438 1117.78125 956 "/>
<path style=" stroke:none;fill-rule:evenodd;fill:rgb(100%,100%,100%);fill-opacity:1;" d="M 1177.78125 956 C 1177.78125 949.601562 1168.183594 949.601562 1168.183594 956 C 1168.183594 962.398438 1177.78125 962.398438 1177.78125 956 "/>
<path style=" stroke:none;fill-rule:evenodd;fill:rgb(100%,100%,100%);fill-opacity:1;" d="M 1237.78125 956 C 1237.78125 949.601562 1228.183594 949.601562 1228.183594 956 C 1228.183594 962.398438 1237.78125 962.398438 1237.78125 956 "/>
<path style=" stroke:none;fill-rule:evenodd;fill:rgb(100%,100%,100%);fill-opacity:1;" d="M 1297.78125 956 C 1297.78125 949.601562 1288.183594 949.601562 1288.183594 956 C 1288.183594 962.398438 1297.78125 962.398438 1297.78125 956 "/>
<path style=" stroke:none;fill-rule:evenodd;fill:rgb(100%,100%,100%);fill-opacity:1;" d="M 1114.78125 1136 C 1114.78125 1129.601562 1105.183594 1129.601562 1105.183594 1136 C 1105.183594 1142.398438 1114.78125 1142.398438 1114.78125 1136 "/>
<path style=" stroke:none;fill-rule:evenodd;fill:rgb(100%,100%,100%);fill-opacity:1;" d="M 1000.78125 1136 C 1000.78125 1129.601562 991.183594 1129.601562 991.183594 1136 C 991.183594 1142.398438 1000.78125 1142.398438 1000.78125 1136 "/>
<path style=" stroke:none;fill-rule:evenodd;fill:rgb(100%,100%,100%);fill-opacity:1;" d="M 127.78125 566 C 127.78125 559.601562 118.183594 559.601562 118.183594 566 C 118.183594 572.398438 127.78125 572.398438 127.78125 566 "/>
<path style=" stroke:none;fill-rule:evenodd;fill:rgb(100%,100%,100%);fill-opacity:1;" d="M 127.78125 506 C 127.78125 499.601562 118.183594 499.601562 118.183594 506 C 118.183594 512.398438 127.78125 512.398438 127.78125 506 "/>
<path style=" stroke:none;fill-rule:evenodd;fill:rgb(100%,100%,100%);fill-opacity:1;" d="M 127.78125 446 C 127.78125 439.601562 118.183594 439.601562 118.183594 446 C 118.183594 452.398438 127.78125 452.398438 127.78125 446 "/>
<path style=" stroke:none;fill-rule:evenodd;fill:rgb(100%,100%,100%);fill-opacity:1;" d="M 1597.78125 266 C 1597.78125 259.601562 1588.183594 259.601562 1588.183594 266 C 1588.183594 272.398438 1597.78125 272.398438 1597.78125 266 "/>
<path style=" stroke:none;fill-rule:evenodd;fill:rgb(100%,100%,100%);fill-opacity:1;" d="M 1837.78125 266 C 1837.78125 259.601562 1828.183594 259.601562 1828.183594 266 C 1828.183594 272.398438 1837.78125 272.398438 1837.78125 266 "/>
<path style=" stroke:none;fill-rule:evenodd;fill:rgb(100%,100%,100%);fill-opacity:1;" d="M 1687.78125 476 C 1687.78125 469.601562 1678.183594 469.601562 1678.183594 476 C 1678.183594 482.398438 1687.78125 482.398438 1687.78125 476 "/>
<path style=" stroke:none;fill-rule:evenodd;fill:rgb(100%,100%,100%);fill-opacity:1;" d="M 1687.78125 716 C 1687.78125 709.601562 1678.183594 709.601562 1678.183594 716 C 1678.183594 722.398438 1687.78125 722.398438 1687.78125 716 "/>
<path style=" stroke:none;fill-rule:evenodd;fill:rgb(100%,100%,100%);fill-opacity:1;" d="M 2257.78125 746 C 2257.78125 739.601562 2248.183594 739.601562 2248.183594 746 C 2248.183594 752.398438 2257.78125 752.398438 2257.78125 746 "/>
<path style=" stroke:none;fill-rule:evenodd;fill:rgb(100%,100%,100%);fill-opacity:1;" d="M 2317.78125 746 C 2317.78125 739.601562 2308.183594 739.601562 2308.183594 746 C 2308.183594 752.398438 2317.78125 752.398438 2317.78125 746 "/>
<path style=" stroke:none;fill-rule:evenodd;fill:rgb(100%,100%,100%);fill-opacity:1;" d="M 2317.78125 806 C 2317.78125 799.601562 2308.183594 799.601562 2308.183594 806 C 2308.183594 812.398438 2317.78125 812.398438 2317.78125 806 "/>
<path style=" stroke:none;fill-rule:evenodd;fill:rgb(100%,100%,100%);fill-opacity:1;" d="M 2257.78125 806 C 2257.78125 799.601562 2248.183594 799.601562 2248.183594 806 C 2248.183594 812.398438 2257.78125 812.398438 2257.78125 806 "/>
<path style=" stroke:none;fill-rule:evenodd;fill:rgb(100%,100%,100%);fill-opacity:1;" d="M 2257.78125 866 C 2257.78125 859.601562 2248.183594 859.601562 2248.183594 866 C 2248.183594 872.398438 2257.78125 872.398438 2257.78125 866 "/>
<path style=" stroke:none;fill-rule:evenodd;fill:rgb(100%,100%,100%);fill-opacity:1;" d="M 2317.78125 866 C 2317.78125 859.601562 2308.183594 859.601562 2308.183594 866 C 2308.183594 872.398438 2317.78125 872.398438 2317.78125 866 "/>
<path style=" stroke:none;fill-rule:evenodd;fill:rgb(100%,100%,100%);fill-opacity:1;" d="M 2317.78125 926 C 2317.78125 919.601562 2308.183594 919.601562 2308.183594 926 C 2308.183594 932.398438 2317.78125 932.398438 2317.78125 926 "/>
<path style=" stroke:none;fill-rule:evenodd;fill:rgb(100%,100%,100%);fill-opacity:1;" d="M 2257.78125 926 C 2257.78125 919.601562 2248.183594 919.601562 2248.183594 926 C 2248.183594 932.398438 2257.78125 932.398438 2257.78125 926 "/>
<path style=" stroke:none;fill-rule:evenodd;fill:rgb(100%,100%,100%);fill-opacity:1;" d="M 2131.183594 1089.199219 C 2131.183594 1082.800781 2121.582031 1082.800781 2121.582031 1089.199219 C 2121.582031 1095.601562 2131.183594 1095.601562 2131.183594 1089.199219 "/>
<path style=" stroke:none;fill-rule:evenodd;fill:rgb(100%,100%,100%);fill-opacity:1;" d="M 2024.382812 1089.199219 C 2024.382812 1082.800781 2014.78125 1082.800781 2014.78125 1089.199219 C 2014.78125 1095.601562 2024.382812 1095.601562 2024.382812 1089.199219 "/>
<path style=" stroke:none;fill-rule:evenodd;fill:rgb(100%,100%,100%);fill-opacity:1;" d="M 1897.78125 1226 C 1897.78125 1219.601562 1888.183594 1219.601562 1888.183594 1226 C 1888.183594 1232.398438 1897.78125 1232.398438 1897.78125 1226 "/>
<path style=" stroke:none;fill-rule:evenodd;fill:rgb(100%,100%,100%);fill-opacity:1;" d="M 1837.78125 1226 C 1837.78125 1219.601562 1828.183594 1219.601562 1828.183594 1226 C 1828.183594 1232.398438 1837.78125 1232.398438 1837.78125 1226 "/>
<path style=" stroke:none;fill-rule:evenodd;fill:rgb(100%,100%,100%);fill-opacity:1;" d="M 1687.78125 1226 C 1687.78125 1219.601562 1678.183594 1219.601562 1678.183594 1226 C 1678.183594 1232.398438 1687.78125 1232.398438 1687.78125 1226 "/>
<path style=" stroke:none;fill-rule:evenodd;fill:rgb(100%,100%,100%);fill-opacity:1;" d="M 1627.78125 1226 C 1627.78125 1219.601562 1618.183594 1219.601562 1618.183594 1226 C 1618.183594 1232.398438 1627.78125 1232.398438 1627.78125 1226 "/>
<path style=" stroke:none;fill-rule:evenodd;fill:rgb(100%,100%,100%);fill-opacity:1;" d="M 1567.78125 1226 C 1567.78125 1219.601562 1558.183594 1219.601562 1558.183594 1226 C 1558.183594 1232.398438 1567.78125 1232.398438 1567.78125 1226 "/>
<path style=" stroke:none;fill-rule:evenodd;fill:rgb(100%,100%,100%);fill-opacity:1;" d="M 1507.78125 1226 C 1507.78125 1219.601562 1498.183594 1219.601562 1498.183594 1226 C 1498.183594 1232.398438 1507.78125 1232.398438 1507.78125 1226 "/>
<path style=" stroke:none;fill-rule:evenodd;fill:rgb(100%,100%,100%);fill-opacity:1;" d="M 1447.78125 1226 C 1447.78125 1219.601562 1438.183594 1219.601562 1438.183594 1226 C 1438.183594 1232.398438 1447.78125 1232.398438 1447.78125 1226 "/>
<path style=" stroke:none;fill-rule:evenodd;fill:rgb(100%,100%,100%);fill-opacity:1;" d="M 1387.78125 1226 C 1387.78125 1219.601562 1378.183594 1219.601562 1378.183594 1226 C 1378.183594 1232.398438 1387.78125 1232.398438 1387.78125 1226 "/>
<path style=" stroke:none;fill-rule:evenodd;fill:rgb(100%,100%,100%);fill-opacity:1;" d="M 757.78125 1226 C 757.78125 1219.601562 748.183594 1219.601562 748.183594 1226 C 748.183594 1232.398438 757.78125 1232.398438 757.78125 1226 "/>
<path style=" stroke:none;fill-rule:evenodd;fill:rgb(100%,100%,100%);fill-opacity:1;" d="M 697.78125 1226 C 697.78125 1219.601562 688.183594 1219.601562 688.183594 1226 C 688.183594 1232.398438 697.78125 1232.398438 697.78125 1226 "/>
<path style=" stroke:none;fill-rule:evenodd;fill:rgb(100%,100%,100%);fill-opacity:1;" d="M 637.78125 1226 C 637.78125 1219.601562 628.183594 1219.601562 628.183594 1226 C 628.183594 1232.398438 637.78125 1232.398438 637.78125 1226 "/>
<path style=" stroke:none;fill-rule:evenodd;fill:rgb(100%,100%,100%);fill-opacity:1;" d="M 577.78125 1226 C 577.78125 1219.601562 568.183594 1219.601562 568.183594 1226 C 568.183594 1232.398438 577.78125 1232.398438 577.78125 1226 "/>
<path style=" stroke:none;fill-rule:evenodd;fill:rgb(100%,100%,100%);fill-opacity:1;" d="M 427.78125 1226 C 427.78125 1219.601562 418.183594 1219.601562 418.183594 1226 C 418.183594 1232.398438 427.78125 1232.398438 427.78125 1226 "/>
<path style=" stroke:none;fill-rule:evenodd;fill:rgb(100%,100%,100%);fill-opacity:1;" d="M 367.78125 1226 C 367.78125 1219.601562 358.183594 1219.601562 358.183594 1226 C 358.183594 1232.398438 367.78125 1232.398438 367.78125 1226 "/>
<path style=" stroke:none;fill-rule:evenodd;fill:rgb(100%,100%,100%);fill-opacity:1;" d="M 307.78125 1226 C 307.78125 1219.601562 298.183594 1219.601562 298.183594 1226 C 298.183594 1232.398438 307.78125 1232.398438 307.78125 1226 "/>
<path style=" stroke:none;fill-rule:evenodd;fill:rgb(100%,100%,100%);fill-opacity:1;" d="M 247.78125 1226 C 247.78125 1219.601562 238.183594 1219.601562 238.183594 1226 C 238.183594 1232.398438 247.78125 1232.398438 247.78125 1226 "/>
<path style=" stroke:none;fill-rule:evenodd;fill:rgb(100%,100%,100%);fill-opacity:1;" d="M 157.78125 1046 C 157.78125 1039.601562 148.183594 1039.601562 148.183594 1046 C 148.183594 1052.398438 157.78125 1052.398438 157.78125 1046 "/>
<path style=" stroke:none;fill-rule:evenodd;fill:rgb(100%,100%,100%);fill-opacity:1;" d="M 157.78125 986 C 157.78125 979.601562 148.183594 979.601562 148.183594 986 C 148.183594 992.398438 157.78125 992.398438 157.78125 986 "/>
<path style=" stroke:none;fill-rule:evenodd;fill:rgb(100%,100%,100%);fill-opacity:1;" d="M 157.78125 926 C 157.78125 919.601562 148.183594 919.601562 148.183594 926 C 148.183594 932.398438 157.78125 932.398438 157.78125 926 "/>
<path style=" stroke:none;fill-rule:evenodd;fill:rgb(100%,100%,100%);fill-opacity:1;" d="M 451.902344 259.878906 C 451.902344 253.480469 442.300781 253.480469 442.300781 259.878906 C 442.300781 266.28125 451.902344 266.28125 451.902344 259.878906 "/>
<path style=" stroke:none;fill-rule:evenodd;fill:rgb(100%,100%,100%);fill-opacity:1;" d="M 511.902344 259.878906 C 511.902344 253.480469 502.300781 253.480469 502.300781 259.878906 C 502.300781 266.28125 511.902344 266.28125 511.902344 259.878906 "/>
<path style=" stroke:none;fill-rule:evenodd;fill:rgb(100%,100%,100%);fill-opacity:1;" d="M 571.902344 259.878906 C 571.902344 253.480469 562.300781 253.480469 562.300781 259.878906 C 562.300781 266.28125 571.902344 266.28125 571.902344 259.878906 "/>
<path style=" stroke:none;fill-rule:evenodd;fill:rgb(100%,100%,100%);fill-opacity:1;" d="M 631.902344 259.878906 C 631.902344 253.480469 622.300781 253.480469 622.300781 259.878906 C 622.300781 266.28125 631.902344 266.28125 631.902344 259.878906 "/>
<path style=" stroke:none;fill-rule:evenodd;fill:rgb(100%,100%,100%);fill-opacity:1;" d="M 691.902344 259.878906 C 691.902344 253.480469 682.300781 253.480469 682.300781 259.878906 C 682.300781 266.28125 691.902344 266.28125 691.902344 259.878906 "/>
<path style=" stroke:none;fill-rule:evenodd;fill:rgb(100%,100%,100%);fill-opacity:1;" d="M 751.902344 259.878906 C 751.902344 253.480469 742.300781 253.480469 742.300781 259.878906 C 742.300781 266.28125 751.902344 266.28125 751.902344 259.878906 "/>
<path style=" stroke:none;fill-rule:evenodd;fill:rgb(100%,100%,100%);fill-opacity:1;" d="M 811.902344 259.878906 C 811.902344 253.480469 802.300781 253.480469 802.300781 259.878906 C 802.300781 266.28125 811.902344 266.28125 811.902344 259.878906 "/>
<path style=" stroke:none;fill-rule:evenodd;fill:rgb(100%,100%,100%);fill-opacity:1;" d="M 871.902344 259.878906 C 871.902344 253.480469 862.300781 253.480469 862.300781 259.878906 C 862.300781 266.28125 871.902344 266.28125 871.902344 259.878906 "/>
<path style=" stroke:none;fill-rule:evenodd;fill:rgb(100%,100%,100%);fill-opacity:1;" d="M 931.902344 259.878906 C 931.902344 253.480469 922.300781 253.480469 922.300781 259.878906 C 922.300781 266.28125 931.902344 266.28125 931.902344 259.878906 "/>
<path style=" stroke:none;fill-rule:evenodd;fill:rgb(100%,100%,100%);fill-opacity:1;" d="M 991.902344 259.878906 C 991.902344 253.480469 982.300781 253.480469 982.300781 259.878906 C 982.300781 266.28125 991.902344 266.28125 991.902344 259.878906 "/>
<path style=" stroke:none;fill-rule:evenodd;fill:rgb(100%,100%,100%);fill-opacity:1;" d="M 1051.902344 259.878906 C 1051.902344 253.480469 1042.300781 253.480469 1042.300781 259.878906 C 1042.300781 266.28125 1051.902344 266.28125 1051.902344 259.878906 "/>
<path style=" stroke:none;fill-rule:evenodd;fill:rgb(100%,100%,100%);fill-opacity:1;" d="M 1111.902344 259.878906 C 1111.902344 253.480469 1102.300781 253.480469 1102.300781 259.878906 C 1102.300781 266.28125 1111.902344 266.28125 1111.902344 259.878906 "/>
<path style=" stroke:none;fill-rule:evenodd;fill:rgb(100%,100%,100%);fill-opacity:1;" d="M 1171.902344 259.878906 C 1171.902344 253.480469 1162.300781 253.480469 1162.300781 259.878906 C 1162.300781 266.28125 1171.902344 266.28125 1171.902344 259.878906 "/>
<path style=" stroke:none;fill-rule:evenodd;fill:rgb(100%,100%,100%);fill-opacity:1;" d="M 1231.902344 259.878906 C 1231.902344 253.480469 1222.300781 253.480469 1222.300781 259.878906 C 1222.300781 266.28125 1231.902344 266.28125 1231.902344 259.878906 "/>
<path style=" stroke:none;fill-rule:evenodd;fill:rgb(100%,100%,100%);fill-opacity:1;" d="M 1291.902344 259.878906 C 1291.902344 253.480469 1282.300781 253.480469 1282.300781 259.878906 C 1282.300781 266.28125 1291.902344 266.28125 1291.902344 259.878906 "/>
<path style=" stroke:none;fill-rule:evenodd;fill:rgb(100%,100%,100%);fill-opacity:1;" d="M 1351.902344 259.878906 C 1351.902344 253.480469 1342.300781 253.480469 1342.300781 259.878906 C 1342.300781 266.28125 1351.902344 266.28125 1351.902344 259.878906 "/>
<path style=" stroke:none;fill-rule:evenodd;fill:rgb(100%,100%,100%);fill-opacity:1;" d="M 2257.78125 686 C 2257.78125 679.601562 2248.183594 679.601562 2248.183594 686 C 2248.183594 692.398438 2257.78125 692.398438 2257.78125 686 "/>
<path style=" stroke:none;fill-rule:evenodd;fill:rgb(100%,100%,100%);fill-opacity:1;" d="M 2317.78125 686 C 2317.78125 679.601562 2308.183594 679.601562 2308.183594 686 C 2308.183594 692.398438 2317.78125 692.398438 2317.78125 686 "/>
<path style=" stroke:none;fill-rule:evenodd;fill:rgb(100%,100%,100%);fill-opacity:1;" d="M 2131.183594 1242.800781 C 2131.183594 1236.398438 2121.582031 1236.398438 2121.582031 1242.800781 C 2121.582031 1249.199219 2131.183594 1249.199219 2131.183594 1242.800781 "/>
<path style=" stroke:none;fill-rule:evenodd;fill:rgb(100%,100%,100%);fill-opacity:1;" d="M 2024.382812 1242.800781 C 2024.382812 1236.398438 2014.78125 1236.398438 2014.78125 1242.800781 C 2014.78125 1249.199219 2024.382812 1249.199219 2024.382812 1242.800781 "/>
<path style=" stroke:none;fill-rule:evenodd;fill:rgb(100%,100%,100%);fill-opacity:1;" d="M 2093.621094 992.121094 C 2093.621094 985.71875 2084.023438 985.71875 2084.023438 992.121094 C 2084.023438 998.519531 2093.621094 998.519531 2093.621094 992.121094 "/>
<path style=" stroke:none;fill-rule:evenodd;fill:rgb(100%,100%,100%);fill-opacity:1;" d="M 2093.621094 259.878906 C 2093.621094 253.480469 2084.023438 253.480469 2084.023438 259.878906 C 2084.023438 266.28125 2093.621094 266.28125 2093.621094 259.878906 "/>
<path style=" stroke:none;fill-rule:evenodd;fill:rgb(100%,100%,100%);fill-opacity:1;" d="M 322.003906 259.878906 C 322.003906 253.480469 312.402344 253.480469 312.402344 259.878906 C 312.402344 266.28125 322.003906 266.28125 322.003906 259.878906 "/>
<path style=" stroke:none;fill-rule:evenodd;fill:rgb(100%,100%,100%);fill-opacity:1;" d="M 322.003906 992.121094 C 322.003906 985.71875 312.402344 985.71875 312.402344 992.121094 C 312.402344 998.519531 322.003906 998.519531 322.003906 992.121094 "/>
<path style=" stroke:none;fill-rule:evenodd;fill:rgb(100%,100%,100%);fill-opacity:1;" d="M 127.78125 1286 C 127.78125 1279.601562 118.183594 1279.601562 118.183594 1286 C 118.183594 1292.398438 127.78125 1292.398438 127.78125 1286 "/>
<path style=" stroke:none;fill-rule:evenodd;fill:rgb(100%,100%,100%);fill-opacity:1;" d="M 127.78125 206 C 127.78125 199.601562 118.183594 199.601562 118.183594 206 C 118.183594 212.398438 127.78125 212.398438 127.78125 206 "/>
<path style=" stroke:none;fill-rule:evenodd;fill:rgb(100%,100%,100%);fill-opacity:1;" d="M 2317.78125 206 C 2317.78125 199.601562 2308.183594 199.601562 2308.183594 206 C 2308.183594 212.398438 2317.78125 212.398438 2317.78125 206 "/>
<path style=" stroke:none;fill-rule:evenodd;fill:rgb(100%,100%,100%);fill-opacity:1;" d="M 2317.78125 1286 C 2317.78125 1279.601562 2308.183594 1279.601562 2308.183594 1286 C 2308.183594 1292.398438 2317.78125 1292.398438 2317.78125 1286 "/>
</g>
</svg>
