<?xml version="1.0" encoding="UTF-8"?>
<svg xmlns="http://www.w3.org/2000/svg" xmlns:xlink="http://www.w3.org/1999/xlink" width="2435pt" height="1409pt" viewBox="0 0 2435 1409" version="1.1">
<g id="surface1">
<path style="fill:none;stroke-width:0.01;stroke-linecap:round;stroke-linejoin:miter;stroke:rgb(0%,0%,0%);stroke-opacity:1;stroke-miterlimit:10;" d="M 0.0333 0.015 L 0.0333 2.214603 " transform="matrix(600,0,0,-600,-16.98,1415)"/>
<path style="fill:none;stroke-width:0.01;stroke-linecap:round;stroke-linejoin:miter;stroke:rgb(0%,0%,0%);stroke-opacity:1;stroke-miterlimit:10;" d="M 0.0333 2.214603 L 4.070299 2.214603 " transform="matrix(600,0,0,-600,-16.98,1415)"/>
<path style="fill:none;stroke-width:0.01;stroke-linecap:round;stroke-linejoin:miter;stroke:rgb(0%,0%,0%);stroke-opacity:1;stroke-miterlimit:10;" d="M 4.070299 2.214603 L 4.070299 0.015 " transform="matrix(600,0,0,-600,-16.98,1415)"/>
<path style="fill:none;stroke-width:0.01;stroke-linecap:round;stroke-linejoin:miter;stroke:rgb(0%,0%,0%);stroke-opacity:1;stroke-miterlimit:10;" d="M 4.070299 0.015 L 0.0333 0.015 " transform="matrix(600,0,0,-600,-16.98,1415)"/>
<path style="fill:none;stroke-width:0.0051;stroke-linecap:round;stroke-linejoin:miter;stroke:rgb(0%,0%,0%);stroke-opacity:1;stroke-miterlimit:10;" d="M 0.0333 2.215 L 0.0333 2.341797 " transform="matrix(600,0,0,-600,-16.98,1415)"/>
<path style="fill:none;stroke-width:0.0051;stroke-linecap:round;stroke-linejoin:miter;stroke:rgb(0%,0%,0%);stroke-opacity:1;stroke-miterlimit:10;" d="M 0.0333 2.265 L 0.135702 2.254798 " transform="matrix(600,0,0,-600,-16.98,1415)"/>
<path style="fill:none;stroke-width:0.0051;stroke-linecap:round;stroke-linejoin:miter;stroke:rgb(0%,0%,0%);stroke-opacity:1;stroke-miterlimit:10;" d="M 0.135702 2.252402 L 0.0333 2.265 " transform="matrix(600,0,0,-600,-16.98,1415)"/>
<path style="fill:none;stroke-width:0.0051;stroke-linecap:round;stroke-linejoin:miter;stroke:rgb(0%,0%,0%);stroke-opacity:1;stroke-miterlimit:10;" d="M 0.0333 2.265 L 0.135702 2.275202 " transform="matrix(600,0,0,-600,-16.98,1415)"/>
<path style="fill:none;stroke-width:0.0051;stroke-linecap:round;stroke-linejoin:miter;stroke:rgb(0%,0%,0%);stroke-opacity:1;stroke-miterlimit:10;" d="M 0.135702 2.277598 L 0.135702 2.252402 " transform="matrix(600,0,0,-600,-16.98,1415)"/>
<path style="fill:none;stroke-width:0.0051;stroke-linecap:round;stroke-linejoin:miter;stroke:rgb(0%,0%,0%);stroke-opacity:1;stroke-miterlimit:10;" d="M 0.135702 2.259902 L 0.0333 2.265 " transform="matrix(600,0,0,-600,-16.98,1415)"/>
<path style="fill:none;stroke-width:0.0051;stroke-linecap:round;stroke-linejoin:miter;stroke:rgb(0%,0%,0%);stroke-opacity:1;stroke-miterlimit:10;" d="M 0.0333 2.265 L 0.135702 2.270098 " transform="matrix(600,0,0,-600,-16.98,1415)"/>
<path style="fill:none;stroke-width:0.0051;stroke-linecap:round;stroke-linejoin:miter;stroke:rgb(0%,0%,0%);stroke-opacity:1;stroke-miterlimit:10;" d="M 0.135702 2.277598 L 0.0333 2.265 " transform="matrix(600,0,0,-600,-16.98,1415)"/>
<path style="fill:none;stroke-width:0.0051;stroke-linecap:round;stroke-linejoin:miter;stroke:rgb(0%,0%,0%);stroke-opacity:1;stroke-miterlimit:10;" d="M 0.0333 2.265 L 4.0833 2.265 " transform="matrix(600,0,0,-600,-16.98,1415)"/>
<path style="fill:none;stroke-width:0.0051;stroke-linecap:round;stroke-linejoin:miter;stroke:rgb(0%,0%,0%);stroke-opacity:1;stroke-miterlimit:10;" d="M 4.0833 2.265 L 3.981002 2.254798 " transform="matrix(600,0,0,-600,-16.98,1415)"/>
<path style="fill:none;stroke-width:0.0051;stroke-linecap:round;stroke-linejoin:miter;stroke:rgb(0%,0%,0%);stroke-opacity:1;stroke-miterlimit:10;" d="M 3.981002 2.252402 L 4.0833 2.265 " transform="matrix(600,0,0,-600,-16.98,1415)"/>
<path style="fill:none;stroke-width:0.0051;stroke-linecap:round;stroke-linejoin:miter;stroke:rgb(0%,0%,0%);stroke-opacity:1;stroke-miterlimit:10;" d="M 4.0833 2.265 L 3.981002 2.275202 " transform="matrix(600,0,0,-600,-16.98,1415)"/>
<path style="fill:none;stroke-width:0.0051;stroke-linecap:round;stroke-linejoin:miter;stroke:rgb(0%,0%,0%);stroke-opacity:1;stroke-miterlimit:10;" d="M 3.981002 2.277598 L 3.981002 2.252402 " transform="matrix(600,0,0,-600,-16.98,1415)"/>
<path style="fill:none;stroke-width:0.0051;stroke-linecap:round;stroke-linejoin:miter;stroke:rgb(0%,0%,0%);stroke-opacity:1;stroke-miterlimit:10;" d="M 3.981002 2.259902 L 4.0833 2.265 " transform="matrix(600,0,0,-600,-16.98,1415)"/>
<path style="fill:none;stroke-width:0.0051;stroke-linecap:round;stroke-linejoin:miter;stroke:rgb(0%,0%,0%);stroke-opacity:1;stroke-miterlimit:10;" d="M 4.0833 2.265 L 3.981002 2.270098 " transform="matrix(600,0,0,-600,-16.98,1415)"/>
<path style="fill:none;stroke-width:0.0051;stroke-linecap:round;stroke-linejoin:miter;stroke:rgb(0%,0%,0%);stroke-opacity:1;stroke-miterlimit:10;" d="M 3.981002 2.277598 L 4.0833 2.265 " transform="matrix(600,0,0,-600,-16.98,1415)"/>
<path style="fill:none;stroke-width:0.0051;stroke-linecap:round;stroke-linejoin:miter;stroke:rgb(0%,0%,0%);stroke-opacity:1;stroke-miterlimit:10;" d="M 4.0833 2.215 L 4.0833 2.341797 " transform="matrix(600,0,0,-600,-16.98,1415)"/>
<path style="fill:none;stroke-width:0.011;stroke-linecap:round;stroke-linejoin:miter;stroke:rgb(0%,0%,0%);stroke-opacity:1;stroke-miterlimit:10;" d="M 2.216002 2.342298 L 2.176601 2.303001 " transform="matrix(600,0,0,-600,-16.98,1415)"/>
<path style="fill:none;stroke-width:0.011;stroke-linecap:round;stroke-linejoin:miter;stroke:rgb(0%,0%,0%);stroke-opacity:1;stroke-miterlimit:10;" d="M 2.176601 2.303001 L 2.176601 2.293099 " transform="matrix(600,0,0,-600,-16.98,1415)"/>
<path style="fill:none;stroke-width:0.011;stroke-linecap:round;stroke-linejoin:miter;stroke:rgb(0%,0%,0%);stroke-opacity:1;stroke-miterlimit:10;" d="M 2.151503 2.303001 L 2.141698 2.293099 " transform="matrix(600,0,0,-600,-16.98,1415)"/>
<path style="fill:none;stroke-width:0.011;stroke-linecap:round;stroke-linejoin:miter;stroke:rgb(0%,0%,0%);stroke-opacity:1;stroke-miterlimit:10;" d="M 2.141698 2.293099 L 2.121998 2.293099 " transform="matrix(600,0,0,-600,-16.98,1415)"/>
<path style="fill:none;stroke-width:0.011;stroke-linecap:round;stroke-linejoin:miter;stroke:rgb(0%,0%,0%);stroke-opacity:1;stroke-miterlimit:10;" d="M 2.121998 2.293099 L 2.1122 2.303001 " transform="matrix(600,0,0,-600,-16.98,1415)"/>
<path style="fill:none;stroke-width:0.011;stroke-linecap:round;stroke-linejoin:miter;stroke:rgb(0%,0%,0%);stroke-opacity:1;stroke-miterlimit:10;" d="M 2.1122 2.303001 L 2.1122 2.312799 " transform="matrix(600,0,0,-600,-16.98,1415)"/>
<path style="fill:none;stroke-width:0.011;stroke-linecap:round;stroke-linejoin:miter;stroke:rgb(0%,0%,0%);stroke-opacity:1;stroke-miterlimit:10;" d="M 2.1122 2.312799 L 2.121998 2.322598 " transform="matrix(600,0,0,-600,-16.98,1415)"/>
<path style="fill:none;stroke-width:0.011;stroke-linecap:round;stroke-linejoin:miter;stroke:rgb(0%,0%,0%);stroke-opacity:1;stroke-miterlimit:10;" d="M 2.121998 2.322598 L 2.141698 2.322598 " transform="matrix(600,0,0,-600,-16.98,1415)"/>
<path style="fill:none;stroke-width:0.011;stroke-linecap:round;stroke-linejoin:miter;stroke:rgb(0%,0%,0%);stroke-opacity:1;stroke-miterlimit:10;" d="M 2.141698 2.322598 L 2.151503 2.312799 " transform="matrix(600,0,0,-600,-16.98,1415)"/>
<path style="fill:none;stroke-width:0.011;stroke-linecap:round;stroke-linejoin:miter;stroke:rgb(0%,0%,0%);stroke-opacity:1;stroke-miterlimit:10;" d="M 2.151503 2.312799 L 2.151503 2.303001 " transform="matrix(600,0,0,-600,-16.98,1415)"/>
<path style="fill:none;stroke-width:0.011;stroke-linecap:round;stroke-linejoin:miter;stroke:rgb(0%,0%,0%);stroke-opacity:1;stroke-miterlimit:10;" d="M 2.141698 2.322598 L 2.151503 2.3325 " transform="matrix(600,0,0,-600,-16.98,1415)"/>
<path style="fill:none;stroke-width:0.011;stroke-linecap:round;stroke-linejoin:miter;stroke:rgb(0%,0%,0%);stroke-opacity:1;stroke-miterlimit:10;" d="M 2.151503 2.3325 L 2.151503 2.342298 " transform="matrix(600,0,0,-600,-16.98,1415)"/>
<path style="fill:none;stroke-width:0.011;stroke-linecap:round;stroke-linejoin:miter;stroke:rgb(0%,0%,0%);stroke-opacity:1;stroke-miterlimit:10;" d="M 2.151503 2.342298 L 2.141698 2.352201 " transform="matrix(600,0,0,-600,-16.98,1415)"/>
<path style="fill:none;stroke-width:0.011;stroke-linecap:round;stroke-linejoin:miter;stroke:rgb(0%,0%,0%);stroke-opacity:1;stroke-miterlimit:10;" d="M 2.141698 2.352201 L 2.121998 2.352201 " transform="matrix(600,0,0,-600,-16.98,1415)"/>
<path style="fill:none;stroke-width:0.011;stroke-linecap:round;stroke-linejoin:miter;stroke:rgb(0%,0%,0%);stroke-opacity:1;stroke-miterlimit:10;" d="M 2.121998 2.352201 L 2.1122 2.342298 " transform="matrix(600,0,0,-600,-16.98,1415)"/>
<path style="fill:none;stroke-width:0.011;stroke-linecap:round;stroke-linejoin:miter;stroke:rgb(0%,0%,0%);stroke-opacity:1;stroke-miterlimit:10;" d="M 2.1122 2.342298 L 2.1122 2.3325 " transform="matrix(600,0,0,-600,-16.98,1415)"/>
<path style="fill:none;stroke-width:0.011;stroke-linecap:round;stroke-linejoin:miter;stroke:rgb(0%,0%,0%);stroke-opacity:1;stroke-miterlimit:10;" d="M 2.1122 2.3325 L 2.121998 2.322598 " transform="matrix(600,0,0,-600,-16.98,1415)"/>
<path style="fill:none;stroke-width:0.011;stroke-linecap:round;stroke-linejoin:miter;stroke:rgb(0%,0%,0%);stroke-opacity:1;stroke-miterlimit:10;" d="M 2.089797 2.303001 L 2.089797 2.293099 " transform="matrix(600,0,0,-600,-16.98,1415)"/>
<path style="fill:none;stroke-width:0.011;stroke-linecap:round;stroke-linejoin:miter;stroke:rgb(0%,0%,0%);stroke-opacity:1;stroke-miterlimit:10;" d="M 2.089797 2.293099 L 2.079902 2.293099 " transform="matrix(600,0,0,-600,-16.98,1415)"/>
<path style="fill:none;stroke-width:0.011;stroke-linecap:round;stroke-linejoin:miter;stroke:rgb(0%,0%,0%);stroke-opacity:1;stroke-miterlimit:10;" d="M 2.079902 2.293099 L 2.079902 2.303001 " transform="matrix(600,0,0,-600,-16.98,1415)"/>
<path style="fill:none;stroke-width:0.011;stroke-linecap:round;stroke-linejoin:miter;stroke:rgb(0%,0%,0%);stroke-opacity:1;stroke-miterlimit:10;" d="M 2.079902 2.303001 L 2.089797 2.303001 " transform="matrix(600,0,0,-600,-16.98,1415)"/>
<path style="fill:none;stroke-width:0.011;stroke-linecap:round;stroke-linejoin:miter;stroke:rgb(0%,0%,0%);stroke-opacity:1;stroke-miterlimit:10;" d="M 2.054902 2.293099 L 2.015501 2.293099 " transform="matrix(600,0,0,-600,-16.98,1415)"/>
<path style="fill:none;stroke-width:0.011;stroke-linecap:round;stroke-linejoin:miter;stroke:rgb(0%,0%,0%);stroke-opacity:1;stroke-miterlimit:10;" d="M 2.015501 2.293099 L 2.054902 2.3325 " transform="matrix(600,0,0,-600,-16.98,1415)"/>
<path style="fill:none;stroke-width:0.011;stroke-linecap:round;stroke-linejoin:miter;stroke:rgb(0%,0%,0%);stroke-opacity:1;stroke-miterlimit:10;" d="M 2.054902 2.3325 L 2.054902 2.342298 " transform="matrix(600,0,0,-600,-16.98,1415)"/>
<path style="fill:none;stroke-width:0.011;stroke-linecap:round;stroke-linejoin:miter;stroke:rgb(0%,0%,0%);stroke-opacity:1;stroke-miterlimit:10;" d="M 2.054902 2.342298 L 2.044999 2.352201 " transform="matrix(600,0,0,-600,-16.98,1415)"/>
<path style="fill:none;stroke-width:0.011;stroke-linecap:round;stroke-linejoin:miter;stroke:rgb(0%,0%,0%);stroke-opacity:1;stroke-miterlimit:10;" d="M 2.044999 2.352201 L 2.025299 2.352201 " transform="matrix(600,0,0,-600,-16.98,1415)"/>
<path style="fill:none;stroke-width:0.011;stroke-linecap:round;stroke-linejoin:miter;stroke:rgb(0%,0%,0%);stroke-opacity:1;stroke-miterlimit:10;" d="M 2.025299 2.352201 L 2.015501 2.342298 " transform="matrix(600,0,0,-600,-16.98,1415)"/>
<path style="fill:none;stroke-width:0.011;stroke-linecap:round;stroke-linejoin:miter;stroke:rgb(0%,0%,0%);stroke-opacity:1;stroke-miterlimit:10;" d="M 1.990403 2.342298 L 1.951002 2.303001 " transform="matrix(600,0,0,-600,-16.98,1415)"/>
<path style="fill:none;stroke-width:0.011;stroke-linecap:round;stroke-linejoin:miter;stroke:rgb(0%,0%,0%);stroke-opacity:1;stroke-miterlimit:10;" d="M 1.951002 2.303001 L 1.960898 2.293099 " transform="matrix(600,0,0,-600,-16.98,1415)"/>
<path style="fill:none;stroke-width:0.011;stroke-linecap:round;stroke-linejoin:miter;stroke:rgb(0%,0%,0%);stroke-opacity:1;stroke-miterlimit:10;" d="M 1.960898 2.293099 L 1.980598 2.293099 " transform="matrix(600,0,0,-600,-16.98,1415)"/>
<path style="fill:none;stroke-width:0.011;stroke-linecap:round;stroke-linejoin:miter;stroke:rgb(0%,0%,0%);stroke-opacity:1;stroke-miterlimit:10;" d="M 1.980598 2.293099 L 1.990403 2.303001 " transform="matrix(600,0,0,-600,-16.98,1415)"/>
<path style="fill:none;stroke-width:0.011;stroke-linecap:round;stroke-linejoin:miter;stroke:rgb(0%,0%,0%);stroke-opacity:1;stroke-miterlimit:10;" d="M 1.990403 2.303001 L 1.990403 2.342298 " transform="matrix(600,0,0,-600,-16.98,1415)"/>
<path style="fill:none;stroke-width:0.011;stroke-linecap:round;stroke-linejoin:miter;stroke:rgb(0%,0%,0%);stroke-opacity:1;stroke-miterlimit:10;" d="M 1.990403 2.342298 L 1.980598 2.352201 " transform="matrix(600,0,0,-600,-16.98,1415)"/>
<path style="fill:none;stroke-width:0.011;stroke-linecap:round;stroke-linejoin:miter;stroke:rgb(0%,0%,0%);stroke-opacity:1;stroke-miterlimit:10;" d="M 1.980598 2.352201 L 1.960898 2.352201 " transform="matrix(600,0,0,-600,-16.98,1415)"/>
<path style="fill:none;stroke-width:0.011;stroke-linecap:round;stroke-linejoin:miter;stroke:rgb(0%,0%,0%);stroke-opacity:1;stroke-miterlimit:10;" d="M 1.960898 2.352201 L 1.951002 2.342298 " transform="matrix(600,0,0,-600,-16.98,1415)"/>
<path style="fill:none;stroke-width:0.011;stroke-linecap:round;stroke-linejoin:miter;stroke:rgb(0%,0%,0%);stroke-opacity:1;stroke-miterlimit:10;" d="M 1.951002 2.342298 L 1.951002 2.303001 " transform="matrix(600,0,0,-600,-16.98,1415)"/>
<path style="fill:none;stroke-width:0.011;stroke-linecap:round;stroke-linejoin:miter;stroke:rgb(0%,0%,0%);stroke-opacity:1;stroke-miterlimit:10;" d="M 1.925898 2.293099 L 1.886601 2.293099 " transform="matrix(600,0,0,-600,-16.98,1415)"/>
<path style="fill:none;stroke-width:0.011;stroke-linecap:round;stroke-linejoin:miter;stroke:rgb(0%,0%,0%);stroke-opacity:1;stroke-miterlimit:10;" d="M 1.906301 2.293099 L 1.906301 2.352201 " transform="matrix(600,0,0,-600,-16.98,1415)"/>
<path style="fill:none;stroke-width:0.011;stroke-linecap:round;stroke-linejoin:miter;stroke:rgb(0%,0%,0%);stroke-opacity:1;stroke-miterlimit:10;" d="M 1.906301 2.352201 L 1.886601 2.3325 " transform="matrix(600,0,0,-600,-16.98,1415)"/>
<path style="fill:none;stroke-width:0.011;stroke-linecap:round;stroke-linejoin:miter;stroke:rgb(0%,0%,0%);stroke-opacity:1;stroke-miterlimit:10;" d="M 2.176601 2.352201 L 2.216002 2.352201 " transform="matrix(600,0,0,-600,-16.98,1415)"/>
<path style="fill:none;stroke-width:0.011;stroke-linecap:round;stroke-linejoin:miter;stroke:rgb(0%,0%,0%);stroke-opacity:1;stroke-miterlimit:10;" d="M 2.216002 2.352201 L 2.216002 2.342298 " transform="matrix(600,0,0,-600,-16.98,1415)"/>
<path style="fill:none;stroke-width:0.052;stroke-linecap:round;stroke-linejoin:miter;stroke:rgb(0%,0%,0%);stroke-opacity:1;stroke-miterlimit:10;" d="M 0.8833 0.738997 L 0.8833 0.791003 " transform="matrix(600,0,0,-600,-16.98,1415)"/>
<path style="fill:none;stroke-width:0.052;stroke-linecap:round;stroke-linejoin:miter;stroke:rgb(0%,0%,0%);stroke-opacity:1;stroke-miterlimit:10;" d="M 0.9833 0.791003 L 0.9833 0.738997 " transform="matrix(600,0,0,-600,-16.98,1415)"/>
<path style="fill:none;stroke-width:0.052;stroke-linecap:round;stroke-linejoin:miter;stroke:rgb(0%,0%,0%);stroke-opacity:1;stroke-miterlimit:10;" d="M 1.0833 0.738997 L 1.0833 0.791003 " transform="matrix(600,0,0,-600,-16.98,1415)"/>
<path style="fill:none;stroke-width:0.052;stroke-linecap:round;stroke-linejoin:miter;stroke:rgb(0%,0%,0%);stroke-opacity:1;stroke-miterlimit:10;" d="M 1.1833 0.791003 L 1.1833 0.738997 " transform="matrix(600,0,0,-600,-16.98,1415)"/>
<path style="fill:none;stroke-width:0.052;stroke-linecap:round;stroke-linejoin:miter;stroke:rgb(0%,0%,0%);stroke-opacity:1;stroke-miterlimit:10;" d="M 1.2833 0.738997 L 1.2833 0.791003 " transform="matrix(600,0,0,-600,-16.98,1415)"/>
<path style="fill:none;stroke-width:0.052;stroke-linecap:round;stroke-linejoin:miter;stroke:rgb(0%,0%,0%);stroke-opacity:1;stroke-miterlimit:10;" d="M 1.3833 0.791003 L 1.3833 0.738997 " transform="matrix(600,0,0,-600,-16.98,1415)"/>
<path style="fill:none;stroke-width:0.052;stroke-linecap:round;stroke-linejoin:miter;stroke:rgb(0%,0%,0%);stroke-opacity:1;stroke-miterlimit:10;" d="M 1.4833 0.738997 L 1.4833 0.791003 " transform="matrix(600,0,0,-600,-16.98,1415)"/>
<path style="fill:none;stroke-width:0.052;stroke-linecap:round;stroke-linejoin:miter;stroke:rgb(0%,0%,0%);stroke-opacity:1;stroke-miterlimit:10;" d="M 1.5833 0.791003 L 1.5833 0.738997 " transform="matrix(600,0,0,-600,-16.98,1415)"/>
<path style="fill:none;stroke-width:0.052;stroke-linecap:round;stroke-linejoin:miter;stroke:rgb(0%,0%,0%);stroke-opacity:1;stroke-miterlimit:10;" d="M 1.6833 0.738997 L 1.6833 0.791003 " transform="matrix(600,0,0,-600,-16.98,1415)"/>
<path style="fill:none;stroke-width:0.052;stroke-linecap:round;stroke-linejoin:miter;stroke:rgb(0%,0%,0%);stroke-opacity:1;stroke-miterlimit:10;" d="M 1.7833 0.791003 L 1.7833 0.738997 " transform="matrix(600,0,0,-600,-16.98,1415)"/>
<path style="fill:none;stroke-width:0.052;stroke-linecap:round;stroke-linejoin:miter;stroke:rgb(0%,0%,0%);stroke-opacity:1;stroke-miterlimit:10;" d="M 1.8833 0.738997 L 1.8833 0.791003 " transform="matrix(600,0,0,-600,-16.98,1415)"/>
<path style="fill:none;stroke-width:0.052;stroke-linecap:round;stroke-linejoin:miter;stroke:rgb(0%,0%,0%);stroke-opacity:1;stroke-miterlimit:10;" d="M 1.9833 0.791003 L 1.9833 0.738997 " transform="matrix(600,0,0,-600,-16.98,1415)"/>
<path style="fill:none;stroke-width:0.052;stroke-linecap:round;stroke-linejoin:miter;stroke:rgb(0%,0%,0%);stroke-opacity:1;stroke-miterlimit:10;" d="M 2.0833 0.738997 L 2.0833 0.791003 " transform="matrix(600,0,0,-600,-16.98,1415)"/>
<path style="fill:none;stroke-width:0.052;stroke-linecap:round;stroke-linejoin:miter;stroke:rgb(0%,0%,0%);stroke-opacity:1;stroke-miterlimit:10;" d="M 2.1833 0.791003 L 2.1833 0.738997 " transform="matrix(600,0,0,-600,-16.98,1415)"/>
<path style="fill:none;stroke-width:0.052;stroke-linecap:round;stroke-linejoin:miter;stroke:rgb(0%,0%,0%);stroke-opacity:1;stroke-miterlimit:10;" d="M 2.1833 1.038997 L 2.1833 1.091003 " transform="matrix(600,0,0,-600,-16.98,1415)"/>
<path style="fill:none;stroke-width:0.052;stroke-linecap:round;stroke-linejoin:miter;stroke:rgb(0%,0%,0%);stroke-opacity:1;stroke-miterlimit:10;" d="M 2.0833 1.091003 L 2.0833 1.038997 " transform="matrix(600,0,0,-600,-16.98,1415)"/>
<path style="fill:none;stroke-width:0.052;stroke-linecap:round;stroke-linejoin:miter;stroke:rgb(0%,0%,0%);stroke-opacity:1;stroke-miterlimit:10;" d="M 1.9833 1.038997 L 1.9833 1.091003 " transform="matrix(600,0,0,-600,-16.98,1415)"/>
<path style="fill:none;stroke-width:0.052;stroke-linecap:round;stroke-linejoin:miter;stroke:rgb(0%,0%,0%);stroke-opacity:1;stroke-miterlimit:10;" d="M 1.8833 1.091003 L 1.8833 1.038997 " transform="matrix(600,0,0,-600,-16.98,1415)"/>
<path style="fill:none;stroke-width:0.052;stroke-linecap:round;stroke-linejoin:miter;stroke:rgb(0%,0%,0%);stroke-opacity:1;stroke-miterlimit:10;" d="M 1.7833 1.038997 L 1.7833 1.091003 " transform="matrix(600,0,0,-600,-16.98,1415)"/>
<path style="fill:none;stroke-width:0.052;stroke-linecap:round;stroke-linejoin:miter;stroke:rgb(0%,0%,0%);stroke-opacity:1;stroke-miterlimit:10;" d="M 1.6833 1.091003 L 1.6833 1.038997 " transform="matrix(600,0,0,-600,-16.98,1415)"/>
<path style="fill:none;stroke-width:0.052;stroke-linecap:round;stroke-linejoin:miter;stroke:rgb(0%,0%,0%);stroke-opacity:1;stroke-miterlimit:10;" d="M 1.5833 1.038997 L 1.5833 1.091003 " transform="matrix(600,0,0,-600,-16.98,1415)"/>
<path style="fill:none;stroke-width:0.052;stroke-linecap:round;stroke-linejoin:miter;stroke:rgb(0%,0%,0%);stroke-opacity:1;stroke-miterlimit:10;" d="M 1.4833 1.091003 L 1.4833 1.038997 " transform="matrix(600,0,0,-600,-16.98,1415)"/>
<path style="fill:none;stroke-width:0.052;stroke-linecap:round;stroke-linejoin:miter;stroke:rgb(0%,0%,0%);stroke-opacity:1;stroke-miterlimit:10;" d="M 1.3833 1.038997 L 1.3833 1.091003 " transform="matrix(600,0,0,-600,-16.98,1415)"/>
<path style="fill:none;stroke-width:0.052;stroke-linecap:round;stroke-linejoin:miter;stroke:rgb(0%,0%,0%);stroke-opacity:1;stroke-miterlimit:10;" d="M 1.2833 1.091003 L 1.2833 1.038997 " transform="matrix(600,0,0,-600,-16.98,1415)"/>
<path style="fill:none;stroke-width:0.052;stroke-linecap:round;stroke-linejoin:miter;stroke:rgb(0%,0%,0%);stroke-opacity:1;stroke-miterlimit:10;" d="M 1.1833 1.038997 L 1.1833 1.091003 " transform="matrix(600,0,0,-600,-16.98,1415)"/>
<path style="fill:none;stroke-width:0.052;stroke-linecap:round;stroke-linejoin:miter;stroke:rgb(0%,0%,0%);stroke-opacity:1;stroke-miterlimit:10;" d="M 1.0833 1.091003 L 1.0833 1.038997 " transform="matrix(600,0,0,-600,-16.98,1415)"/>
<path style="fill:none;stroke-width:0.052;stroke-linecap:round;stroke-linejoin:miter;stroke:rgb(0%,0%,0%);stroke-opacity:1;stroke-miterlimit:10;" d="M 0.9833 1.038997 L 0.9833 1.091003 " transform="matrix(600,0,0,-600,-16.98,1415)"/>
<path style="fill:none;stroke-width:0.052;stroke-linecap:round;stroke-linejoin:miter;stroke:rgb(0%,0%,0%);stroke-opacity:1;stroke-miterlimit:10;" d="M 0.8833 1.091003 L 0.8833 1.038997 " transform="matrix(600,0,0,-600,-16.98,1415)"/>
<path style="fill:none;stroke-width:0.052;stroke-linecap:round;stroke-linejoin:miter;stroke:rgb(0%,0%,0%);stroke-opacity:1;stroke-miterlimit:10;" d="M 0.259303 1.415 L 0.207297 1.415 " transform="matrix(600,0,0,-600,-16.98,1415)"/>
<path style="fill:none;stroke-width:0.052;stroke-linecap:round;stroke-linejoin:miter;stroke:rgb(0%,0%,0%);stroke-opacity:1;stroke-miterlimit:10;" d="M 0.207297 1.515 L 0.259303 1.515 " transform="matrix(600,0,0,-600,-16.98,1415)"/>
<path style="fill:none;stroke-width:0.052;stroke-linecap:round;stroke-linejoin:miter;stroke:rgb(0%,0%,0%);stroke-opacity:1;stroke-miterlimit:10;" d="M 0.259303 1.615 L 0.207297 1.615 " transform="matrix(600,0,0,-600,-16.98,1415)"/>
<path style=" stroke:none;fill-rule:evenodd;fill:rgb(0%,0%,0%);fill-opacity:1;" d="M 424.921875 282.078125 L 469.320312 282.078125 L 469.320312 237.679688 L 424.921875 237.679688 Z "/>
<path style=" stroke:none;fill-rule:evenodd;fill:rgb(0%,0%,0%);fill-opacity:1;" d="M 529.320312 259.878906 C 529.320312 230.28125 484.921875 230.28125 484.921875 259.878906 C 484.921875 289.480469 529.320312 289.480469 529.320312 259.878906 "/>
<path style=" stroke:none;fill-rule:evenodd;fill:rgb(0%,0%,0%);fill-opacity:1;" d="M 589.320312 259.878906 C 589.320312 230.28125 544.921875 230.28125 544.921875 259.878906 C 544.921875 289.480469 589.320312 289.480469 589.320312 259.878906 "/>
<path style=" stroke:none;fill-rule:evenodd;fill:rgb(0%,0%,0%);fill-opacity:1;" d="M 649.320312 259.878906 C 649.320312 230.28125 604.921875 230.28125 604.921875 259.878906 C 604.921875 289.480469 649.320312 289.480469 649.320312 259.878906 "/>
<path style=" stroke:none;fill-rule:evenodd;fill:rgb(0%,0%,0%);fill-opacity:1;" d="M 709.320312 259.878906 C 709.320312 230.28125 664.921875 230.28125 664.921875 259.878906 C 664.921875 289.480469 709.320312 289.480469 709.320312 259.878906 "/>
<path style=" stroke:none;fill-rule:evenodd;fill:rgb(0%,0%,0%);fill-opacity:1;" d="M 769.320312 259.878906 C 769.320312 230.28125 724.921875 230.28125 724.921875 259.878906 C 724.921875 289.480469 769.320312 289.480469 769.320312 259.878906 "/>
<path style=" stroke:none;fill-rule:evenodd;fill:rgb(0%,0%,0%);fill-opacity:1;" d="M 829.320312 259.878906 C 829.320312 230.28125 784.921875 230.28125 784.921875 259.878906 C 784.921875 289.480469 829.320312 289.480469 829.320312 259.878906 "/>
<path style=" stroke:none;fill-rule:evenodd;fill:rgb(0%,0%,0%);fill-opacity:1;" d="M 889.320312 259.878906 C 889.320312 230.28125 844.921875 230.28125 844.921875 259.878906 C 844.921875 289.480469 889.320312 289.480469 889.320312 259.878906 "/>
<path style=" stroke:none;fill-rule:evenodd;fill:rgb(0%,0%,0%);fill-opacity:1;" d="M 949.320312 259.878906 C 949.320312 230.28125 904.921875 230.28125 904.921875 259.878906 C 904.921875 289.480469 949.320312 289.480469 949.320312 259.878906 "/>
<path style=" stroke:none;fill-rule:evenodd;fill:rgb(0%,0%,0%);fill-opacity:1;" d="M 1009.320312 259.878906 C 1009.320312 230.28125 964.921875 230.28125 964.921875 259.878906 C 964.921875 289.480469 1009.320312 289.480469 1009.320312 259.878906 "/>
<path style=" stroke:none;fill-rule:evenodd;fill:rgb(0%,0%,0%);fill-opacity:1;" d="M 1069.320312 259.878906 C 1069.320312 230.28125 1024.921875 230.28125 1024.921875 259.878906 C 1024.921875 289.480469 1069.320312 289.480469 1069.320312 259.878906 "/>
<path style=" stroke:none;fill-rule:evenodd;fill:rgb(0%,0%,0%);fill-opacity:1;" d="M 1129.320312 259.878906 C 1129.320312 230.28125 1084.921875 230.28125 1084.921875 259.878906 C 1084.921875 289.480469 1129.320312 289.480469 1129.320312 259.878906 "/>
<path style=" stroke:none;fill-rule:evenodd;fill:rgb(0%,0%,0%);fill-opacity:1;" d="M 1189.320312 259.878906 C 1189.320312 230.28125 1144.921875 230.28125 1144.921875 259.878906 C 1144.921875 289.480469 1189.320312 289.480469 1189.320312 259.878906 "/>
<path style=" stroke:none;fill-rule:evenodd;fill:rgb(0%,0%,0%);fill-opacity:1;" d="M 1249.320312 259.878906 C 1249.320312 230.28125 1204.921875 230.28125 1204.921875 259.878906 C 1204.921875 289.480469 1249.320312 289.480469 1249.320312 259.878906 "/>
<path style=" stroke:none;fill-rule:evenodd;fill:rgb(0%,0%,0%);fill-opacity:1;" d="M 1309.320312 259.878906 C 1309.320312 230.28125 1264.921875 230.28125 1264.921875 259.878906 C 1264.921875 289.480469 1309.320312 289.480469 1309.320312 259.878906 "/>
<path style=" stroke:none;fill-rule:evenodd;fill:rgb(0%,0%,0%);fill-opacity:1;" d="M 1369.320312 259.878906 C 1369.320312 230.28125 1324.921875 230.28125 1324.921875 259.878906 C 1324.921875 289.480469 1369.320312 289.480469 1369.320312 259.878906 "/>
<path style=" stroke:none;fill-rule:evenodd;fill:rgb(0%,0%,0%);fill-opacity:1;" d="M 1615.199219 266 C 1615.199219 236.398438 1570.800781 236.398438 1570.800781 266 C 1570.800781 295.601562 1615.199219 295.601562 1615.199219 266 "/>
<path style=" stroke:none;fill-rule:evenodd;fill:rgb(0%,0%,0%);fill-opacity:1;" d="M 1855.199219 266 C 1855.199219 236.398438 1810.800781 236.398438 1810.800781 266 C 1810.800781 295.601562 1855.199219 295.601562 1855.199219 266 "/>
<path style=" stroke:none;fill-rule:evenodd;fill:rgb(0%,0%,0%);fill-opacity:1;" d="M 1705.199219 476 C 1705.199219 446.398438 1660.800781 446.398438 1660.800781 476 C 1660.800781 505.601562 1705.199219 505.601562 1705.199219 476 "/>
<path style=" stroke:none;fill-rule:evenodd;fill:rgb(0%,0%,0%);fill-opacity:1;" d="M 1705.199219 716 C 1705.199219 686.398438 1660.800781 686.398438 1660.800781 716 C 1660.800781 745.601562 1705.199219 745.601562 1705.199219 716 "/>
<path style=" stroke:none;fill-rule:evenodd;fill:rgb(0%,0%,0%);fill-opacity:1;" d="M 2041.800781 1089.199219 C 2041.800781 1059.601562 1997.398438 1059.601562 1997.398438 1089.199219 C 1997.398438 1118.800781 2041.800781 1118.800781 2041.800781 1089.199219 "/>
<path style=" stroke:none;fill-rule:evenodd;fill:rgb(0%,0%,0%);fill-opacity:1;" d="M 2148.601562 1089.199219 C 2148.601562 1059.601562 2104.199219 1059.601562 2104.199219 1089.199219 C 2104.199219 1118.800781 2148.601562 1118.800781 2148.601562 1089.199219 "/>
<path style=" stroke:none;fill-rule:evenodd;fill:rgb(0%,0%,0%);fill-opacity:1;" d="M 2148.601562 1242.800781 C 2148.601562 1213.199219 2104.199219 1213.199219 2104.199219 1242.800781 C 2104.199219 1272.398438 2148.601562 1272.398438 2148.601562 1242.800781 "/>
<path style=" stroke:none;fill-rule:evenodd;fill:rgb(0%,0%,0%);fill-opacity:1;" d="M 2041.800781 1242.800781 C 2041.800781 1213.199219 1997.398438 1213.199219 1997.398438 1242.800781 C 1997.398438 1272.398438 2041.800781 1272.398438 2041.800781 1242.800781 "/>
<path style=" stroke:none;fill-rule:evenodd;fill:rgb(0%,0%,0%);fill-opacity:1;" d="M 1125.601562 1136 C 1125.601562 1115.199219 1094.398438 1115.199219 1094.398438 1136 C 1094.398438 1156.800781 1125.601562 1156.800781 1125.601562 1136 "/>
<path style=" stroke:none;fill-rule:evenodd;fill:rgb(0%,0%,0%);fill-opacity:1;" d="M 1011.601562 1136 C 1011.601562 1115.199219 980.398438 1115.199219 980.398438 1136 C 980.398438 1156.800781 1011.601562 1156.800781 1011.601562 1136 "/>
<path style=" stroke:none;fill-rule:evenodd;fill:rgb(0%,0%,0%);fill-opacity:1;" d="M 892.5 1136 C 892.5 1110 853.5 1110 853.5 1136 C 853.5 1162 892.5 1162 892.5 1136 "/>
<path style=" stroke:none;fill-rule:evenodd;fill:rgb(0%,0%,0%);fill-opacity:1;" d="M 832.5 1136 C 832.5 1110 793.5 1110 793.5 1136 C 793.5 1162 832.5 1162 832.5 1136 "/>
<path style=" stroke:none;fill-rule:evenodd;fill:rgb(0%,0%,0%);fill-opacity:1;" d="M 1252.5 1136 C 1252.5 1110 1213.5 1110 1213.5 1136 C 1213.5 1162 1252.5 1162 1252.5 1136 "/>
<path style=" stroke:none;fill-rule:evenodd;fill:rgb(0%,0%,0%);fill-opacity:1;" d="M 1312.5 1136 C 1312.5 1110 1273.5 1110 1273.5 1136 C 1273.5 1162 1312.5 1162 1312.5 1136 "/>
<path style=" stroke:none;fill-rule:evenodd;fill:rgb(0%,0%,0%);fill-opacity:1;" d="M 1012.5 656 C 1012.5 630 973.5 630 973.5 656 C 973.5 682 1012.5 682 1012.5 656 "/>
<path style=" stroke:none;fill-rule:evenodd;fill:rgb(0%,0%,0%);fill-opacity:1;" d="M 952.5 656 C 952.5 630 913.5 630 913.5 656 C 913.5 682 952.5 682 952.5 656 "/>
<path style=" stroke:none;fill-rule:evenodd;fill:rgb(0%,0%,0%);fill-opacity:1;" d="M 2275.199219 676.804688 L 2262.195312 663.800781 L 2243.804688 663.800781 L 2230.800781 676.804688 L 2230.800781 695.195312 L 2243.804688 708.199219 L 2262.195312 708.199219 L 2275.199219 695.195312 L 2275.199219 676.804688 "/>
<path style=" stroke:none;fill-rule:evenodd;fill:rgb(0%,0%,0%);fill-opacity:1;" d="M 2335.199219 676.804688 L 2322.195312 663.800781 L 2303.804688 663.800781 L 2290.800781 676.804688 L 2290.800781 695.195312 L 2303.804688 708.199219 L 2322.195312 708.199219 L 2335.199219 695.195312 L 2335.199219 676.804688 "/>
<path style=" stroke:none;fill-rule:evenodd;fill:rgb(0%,0%,0%);fill-opacity:1;" d="M 2335.199219 736.804688 L 2322.195312 723.800781 L 2303.804688 723.800781 L 2290.800781 736.804688 L 2290.800781 755.195312 L 2303.804688 768.199219 L 2322.195312 768.199219 L 2335.199219 755.195312 L 2335.199219 736.804688 "/>
<path style=" stroke:none;fill-rule:evenodd;fill:rgb(0%,0%,0%);fill-opacity:1;" d="M 2275.199219 736.804688 L 2262.195312 723.800781 L 2243.804688 723.800781 L 2230.800781 736.804688 L 2230.800781 755.195312 L 2243.804688 768.199219 L 2262.195312 768.199219 L 2275.199219 755.195312 L 2275.199219 736.804688 "/>
<path style=" stroke:none;fill-rule:evenodd;fill:rgb(0%,0%,0%);fill-opacity:1;" d="M 2275.199219 796.804688 L 2262.195312 783.800781 L 2243.804688 783.800781 L 2230.800781 796.804688 L 2230.800781 815.195312 L 2243.804688 828.199219 L 2262.195312 828.199219 L 2275.199219 815.195312 L 2275.199219 796.804688 "/>
<path style=" stroke:none;fill-rule:evenodd;fill:rgb(0%,0%,0%);fill-opacity:1;" d="M 2335.199219 796.804688 L 2322.195312 783.800781 L 2303.804688 783.800781 L 2290.800781 796.804688 L 2290.800781 815.195312 L 2303.804688 828.199219 L 2322.195312 828.199219 L 2335.199219 815.195312 L 2335.199219 796.804688 "/>
<path style=" stroke:none;fill-rule:evenodd;fill:rgb(0%,0%,0%);fill-opacity:1;" d="M 2335.199219 856.804688 L 2322.195312 843.800781 L 2303.804688 843.800781 L 2290.800781 856.804688 L 2290.800781 875.195312 L 2303.804688 888.199219 L 2322.195312 888.199219 L 2335.199219 875.195312 L 2335.199219 856.804688 "/>
<path style=" stroke:none;fill-rule:evenodd;fill:rgb(0%,0%,0%);fill-opacity:1;" d="M 2275.199219 856.804688 L 2262.195312 843.800781 L 2243.804688 843.800781 L 2230.800781 856.804688 L 2230.800781 875.195312 L 2243.804688 888.199219 L 2262.195312 888.199219 L 2275.199219 875.195312 L 2275.199219 856.804688 "/>
<path style=" stroke:none;fill-rule:evenodd;fill:rgb(0%,0%,0%);fill-opacity:1;" d="M 2275.199219 916.804688 L 2262.195312 903.800781 L 2243.804688 903.800781 L 2230.800781 916.804688 L 2230.800781 935.195312 L 2243.804688 948.199219 L 2262.195312 948.199219 L 2275.199219 935.195312 L 2275.199219 916.804688 "/>
<path style=" stroke:none;fill-rule:evenodd;fill:rgb(0%,0%,0%);fill-opacity:1;" d="M 2335.199219 916.804688 L 2322.195312 903.800781 L 2303.804688 903.800781 L 2290.800781 916.804688 L 2290.800781 935.195312 L 2303.804688 948.199219 L 2322.195312 948.199219 L 2335.199219 935.195312 L 2335.199219 916.804688 "/>
<path style="fill:none;stroke-width:0.06;stroke-linecap:round;stroke-linejoin:miter;stroke:rgb(0%,0%,0%);stroke-opacity:1;stroke-miterlimit:10;" d="M 0.4333 0.345 L 0.4333 0.285 " transform="matrix(600,0,0,-600,-16.98,1415)"/>
<path style="fill:none;stroke-width:0.06;stroke-linecap:round;stroke-linejoin:miter;stroke:rgb(0%,0%,0%);stroke-opacity:1;stroke-miterlimit:10;" d="M 0.5333 0.285 L 0.5333 0.345 " transform="matrix(600,0,0,-600,-16.98,1415)"/>
<path style="fill:none;stroke-width:0.06;stroke-linecap:round;stroke-linejoin:miter;stroke:rgb(0%,0%,0%);stroke-opacity:1;stroke-miterlimit:10;" d="M 0.6333 0.345 L 0.6333 0.285 " transform="matrix(600,0,0,-600,-16.98,1415)"/>
<path style="fill:none;stroke-width:0.06;stroke-linecap:round;stroke-linejoin:miter;stroke:rgb(0%,0%,0%);stroke-opacity:1;stroke-miterlimit:10;" d="M 0.7333 0.285 L 0.7333 0.345 " transform="matrix(600,0,0,-600,-16.98,1415)"/>
<path style="fill:none;stroke-width:0.06;stroke-linecap:round;stroke-linejoin:miter;stroke:rgb(0%,0%,0%);stroke-opacity:1;stroke-miterlimit:10;" d="M 0.9833 0.345 L 0.9833 0.285 " transform="matrix(600,0,0,-600,-16.98,1415)"/>
<path style="fill:none;stroke-width:0.06;stroke-linecap:round;stroke-linejoin:miter;stroke:rgb(0%,0%,0%);stroke-opacity:1;stroke-miterlimit:10;" d="M 1.0833 0.285 L 1.0833 0.345 " transform="matrix(600,0,0,-600,-16.98,1415)"/>
<path style="fill:none;stroke-width:0.06;stroke-linecap:round;stroke-linejoin:miter;stroke:rgb(0%,0%,0%);stroke-opacity:1;stroke-miterlimit:10;" d="M 1.1833 0.345 L 1.1833 0.285 " transform="matrix(600,0,0,-600,-16.98,1415)"/>
<path style="fill:none;stroke-width:0.06;stroke-linecap:round;stroke-linejoin:miter;stroke:rgb(0%,0%,0%);stroke-opacity:1;stroke-miterlimit:10;" d="M 1.2833 0.285 L 1.2833 0.345 " transform="matrix(600,0,0,-600,-16.98,1415)"/>
<path style="fill:none;stroke-width:0.06;stroke-linecap:round;stroke-linejoin:miter;stroke:rgb(0%,0%,0%);stroke-opacity:1;stroke-miterlimit:10;" d="M 0.3133 0.615 L 0.2533 0.615 " transform="matrix(600,0,0,-600,-16.98,1415)"/>
<path style="fill:none;stroke-width:0.06;stroke-linecap:round;stroke-linejoin:miter;stroke:rgb(0%,0%,0%);stroke-opacity:1;stroke-miterlimit:10;" d="M 0.2533 0.715 L 0.3133 0.715 " transform="matrix(600,0,0,-600,-16.98,1415)"/>
<path style="fill:none;stroke-width:0.06;stroke-linecap:round;stroke-linejoin:miter;stroke:rgb(0%,0%,0%);stroke-opacity:1;stroke-miterlimit:10;" d="M 0.3133 0.815 L 0.2533 0.815 " transform="matrix(600,0,0,-600,-16.98,1415)"/>
<path style="fill:none;stroke-width:0.06;stroke-linecap:round;stroke-linejoin:miter;stroke:rgb(0%,0%,0%);stroke-opacity:1;stroke-miterlimit:10;" d="M 2.3333 0.345 L 2.3333 0.285 " transform="matrix(600,0,0,-600,-16.98,1415)"/>
<path style="fill:none;stroke-width:0.06;stroke-linecap:round;stroke-linejoin:miter;stroke:rgb(0%,0%,0%);stroke-opacity:1;stroke-miterlimit:10;" d="M 2.4333 0.285 L 2.4333 0.345 " transform="matrix(600,0,0,-600,-16.98,1415)"/>
<path style="fill:none;stroke-width:0.06;stroke-linecap:round;stroke-linejoin:miter;stroke:rgb(0%,0%,0%);stroke-opacity:1;stroke-miterlimit:10;" d="M 2.5333 0.345 L 2.5333 0.285 " transform="matrix(600,0,0,-600,-16.98,1415)"/>
<path style="fill:none;stroke-width:0.06;stroke-linecap:round;stroke-linejoin:miter;stroke:rgb(0%,0%,0%);stroke-opacity:1;stroke-miterlimit:10;" d="M 2.6333 0.285 L 2.6333 0.345 " transform="matrix(600,0,0,-600,-16.98,1415)"/>
<path style="fill:none;stroke-width:0.06;stroke-linecap:round;stroke-linejoin:miter;stroke:rgb(0%,0%,0%);stroke-opacity:1;stroke-miterlimit:10;" d="M 2.7333 0.345 L 2.7333 0.285 " transform="matrix(600,0,0,-600,-16.98,1415)"/>
<path style="fill:none;stroke-width:0.06;stroke-linecap:round;stroke-linejoin:miter;stroke:rgb(0%,0%,0%);stroke-opacity:1;stroke-miterlimit:10;" d="M 2.8333 0.285 L 2.8333 0.345 " transform="matrix(600,0,0,-600,-16.98,1415)"/>
<path style="fill:none;stroke-width:0.06;stroke-linecap:round;stroke-linejoin:miter;stroke:rgb(0%,0%,0%);stroke-opacity:1;stroke-miterlimit:10;" d="M 3.0833 0.345 L 3.0833 0.285 " transform="matrix(600,0,0,-600,-16.98,1415)"/>
<path style="fill:none;stroke-width:0.06;stroke-linecap:round;stroke-linejoin:miter;stroke:rgb(0%,0%,0%);stroke-opacity:1;stroke-miterlimit:10;" d="M 3.1833 0.285 L 3.1833 0.345 " transform="matrix(600,0,0,-600,-16.98,1415)"/>
<path style=" stroke:none;fill-rule:evenodd;fill:rgb(0%,0%,0%);fill-opacity:1;" d="M 1794 1016 C 1794 988 1752 988 1752 1016 C 1752 1044 1794 1044 1794 1016 "/>
<path style=" stroke:none;fill-rule:evenodd;fill:rgb(0%,0%,0%);fill-opacity:1;" d="M 1404 956 C 1404 928 1362 928 1362 956 C 1362 984 1404 984 1404 956 "/>
<path style=" stroke:none;fill-rule:evenodd;fill:rgb(0%,0%,0%);fill-opacity:1;" d="M 1404 806 C 1404 778 1362 778 1362 806 C 1362 834 1404 834 1404 806 "/>
<path style=" stroke:none;fill-rule:evenodd;fill:rgb(0%,0%,0%);fill-opacity:1;" d="M 1554 656 C 1554 628 1512 628 1512 656 C 1512 684 1554 684 1554 656 "/>
<path style=" stroke:none;fill-rule:evenodd;fill:rgb(0%,0%,0%);fill-opacity:1;" d="M 1494 596 C 1494 568 1452 568 1452 596 C 1452 624 1494 624 1494 596 "/>
<path style=" stroke:none;fill-rule:evenodd;fill:rgb(0%,0%,0%);fill-opacity:1;" d="M 1494 536 C 1494 508 1452 508 1452 536 C 1452 564 1494 564 1494 536 "/>
<path style=" stroke:none;fill-rule:evenodd;fill:rgb(0%,0%,0%);fill-opacity:1;" d="M 1494 476 C 1494 448 1452 448 1452 476 C 1452 504 1494 504 1494 476 "/>
<path style=" stroke:none;fill-rule:evenodd;fill:rgb(0%,0%,0%);fill-opacity:1;" d="M 1404 416 C 1404 388 1362 388 1362 416 C 1362 444 1404 444 1404 416 "/>
<path style=" stroke:none;fill-rule:evenodd;fill:rgb(0%,0%,0%);fill-opacity:1;" d="M 1314 356 C 1314 328 1272 328 1272 356 C 1272 384 1314 384 1314 356 "/>
<path style=" stroke:none;fill-rule:evenodd;fill:rgb(0%,0%,0%);fill-opacity:1;" d="M 1314 206 C 1314 178 1272 178 1272 206 C 1272 234 1314 234 1314 206 "/>
<path style=" stroke:none;fill-rule:evenodd;fill:rgb(0%,0%,0%);fill-opacity:1;" d="M 1014 356 C 1014 328 972 328 972 356 C 972 384 1014 384 1014 356 "/>
<path style=" stroke:none;fill-rule:evenodd;fill:rgb(0%,0%,0%);fill-opacity:1;" d="M 1014 416 C 1014 388 972 388 972 416 C 972 444 1014 444 1014 416 "/>
<path style=" stroke:none;fill-rule:evenodd;fill:rgb(0%,0%,0%);fill-opacity:1;" d="M 1014 476 C 1014 448 972 448 972 476 C 972 504 1014 504 1014 476 "/>
<path style=" stroke:none;fill-rule:evenodd;fill:rgb(0%,0%,0%);fill-opacity:1;" d="M 1074 596 C 1074 568 1032 568 1032 596 C 1032 624 1074 624 1074 596 "/>
<path style=" stroke:none;fill-rule:evenodd;fill:rgb(0%,0%,0%);fill-opacity:1;" d="M 1134 656 C 1134 628 1092 628 1092 656 C 1092 684 1134 684 1134 656 "/>
<path style=" stroke:none;fill-rule:evenodd;fill:rgb(0%,0%,0%);fill-opacity:1;" d="M 1194 536 C 1194 508 1152 508 1152 536 C 1152 564 1194 564 1194 536 "/>
<path style=" stroke:none;fill-rule:evenodd;fill:rgb(0%,0%,0%);fill-opacity:1;" d="M 1014 866 C 1014 838 972 838 972 866 C 972 894 1014 894 1014 866 "/>
<path style=" stroke:none;fill-rule:evenodd;fill:rgb(0%,0%,0%);fill-opacity:1;" d="M 834 866 C 834 838 792 838 792 866 C 792 894 834 894 834 866 "/>
<path style=" stroke:none;fill-rule:evenodd;fill:rgb(0%,0%,0%);fill-opacity:1;" d="M 534 1016 C 534 988 492 988 492 1016 C 492 1044 534 1044 534 1016 "/>
<path style=" stroke:none;fill-rule:evenodd;fill:rgb(0%,0%,0%);fill-opacity:1;" d="M 444 866 C 444 838 402 838 402 866 C 402 894 444 894 444 866 "/>
<path style=" stroke:none;fill-rule:evenodd;fill:rgb(0%,0%,0%);fill-opacity:1;" d="M 534 206 C 534 178 492 178 492 206 C 492 234 534 234 534 206 "/>
<path style=" stroke:none;fill-rule:evenodd;fill:rgb(0%,0%,0%);fill-opacity:1;" d="M 1794 746 C 1794 718 1752 718 1752 746 C 1752 774 1794 774 1794 746 "/>
<path style=" stroke:none;fill-rule:evenodd;fill:rgb(0%,0%,0%);fill-opacity:1;" d="M 2034 746 C 2034 718 1992 718 1992 746 C 1992 774 2034 774 2034 746 "/>
<path style="fill:none;stroke-width:0.024;stroke-linecap:round;stroke-linejoin:miter;stroke:rgb(0%,0%,0%);stroke-opacity:1;stroke-miterlimit:10;" d="M 3.3833 1.115 L 2.9833 1.115 " transform="matrix(600,0,0,-600,-16.98,1415)"/>
<path style="fill:none;stroke-width:0.024;stroke-linecap:round;stroke-linejoin:miter;stroke:rgb(0%,0%,0%);stroke-opacity:1;stroke-miterlimit:10;" d="M 2.5833 1.265 L 1.8833 1.265 " transform="matrix(600,0,0,-600,-16.98,1415)"/>
<path style="fill:none;stroke-width:0.024;stroke-linecap:round;stroke-linejoin:miter;stroke:rgb(0%,0%,0%);stroke-opacity:1;stroke-miterlimit:10;" d="M 1.7833 1.365 L 2.4833 1.365 " transform="matrix(600,0,0,-600,-16.98,1415)"/>
<path style="fill:none;stroke-width:0.024;stroke-linecap:round;stroke-linejoin:miter;stroke:rgb(0%,0%,0%);stroke-opacity:1;stroke-miterlimit:10;" d="M 2.4833 1.465 L 1.9833 1.465 " transform="matrix(600,0,0,-600,-16.98,1415)"/>
<path style="fill:none;stroke-width:0.024;stroke-linecap:round;stroke-linejoin:miter;stroke:rgb(0%,0%,0%);stroke-opacity:1;stroke-miterlimit:10;" d="M 1.6833 1.565 L 2.4833 1.565 " transform="matrix(600,0,0,-600,-16.98,1415)"/>
<path style="fill:none;stroke-width:0.024;stroke-linecap:round;stroke-linejoin:miter;stroke:rgb(0%,0%,0%);stroke-opacity:1;stroke-miterlimit:10;" d="M 2.3333 1.665 L 1.6833 1.665 " transform="matrix(600,0,0,-600,-16.98,1415)"/>
<path style="fill:none;stroke-width:0.024;stroke-linecap:round;stroke-linejoin:miter;stroke:rgb(0%,0%,0%);stroke-opacity:1;stroke-miterlimit:10;" d="M 1.6833 1.765 L 2.1833 1.765 " transform="matrix(600,0,0,-600,-16.98,1415)"/>
<path style="fill:none;stroke-width:0.024;stroke-linecap:round;stroke-linejoin:miter;stroke:rgb(0%,0%,0%);stroke-opacity:1;stroke-miterlimit:10;" d="M 2.1833 2.015 L 0.8833 2.015 " transform="matrix(600,0,0,-600,-16.98,1415)"/>
<path style="fill:none;stroke-width:0.024;stroke-linecap:round;stroke-linejoin:miter;stroke:rgb(0%,0%,0%);stroke-opacity:1;stroke-miterlimit:10;" d="M 2.3333 1.015 L 2.3333 0.765 " transform="matrix(600,0,0,-600,-16.98,1415)"/>
<path style="fill:none;stroke-width:0.024;stroke-linecap:round;stroke-linejoin:miter;stroke:rgb(0%,0%,0%);stroke-opacity:1;stroke-miterlimit:10;" d="M 2.9833 0.665 L 0.8833 0.665 " transform="matrix(600,0,0,-600,-16.98,1415)"/>
<path style="fill:none;stroke-width:0.024;stroke-linecap:round;stroke-linejoin:miter;stroke:rgb(0%,0%,0%);stroke-opacity:1;stroke-miterlimit:10;" d="M 1.3833 0.915 L 1.6833 0.915 " transform="matrix(600,0,0,-600,-16.98,1415)"/>
<path style=" stroke:none;fill-rule:evenodd;fill:rgb(0%,0%,0%);fill-opacity:1;" d="M 408.601562 790.398438 L 437.402344 790.398438 L 437.402344 761.597656 L 408.601562 761.597656 Z "/>
<path style=" stroke:none;fill-rule:evenodd;fill:rgb(0%,0%,0%);fill-opacity:1;" d="M 228.601562 790.398438 L 257.402344 790.398438 L 257.402344 761.597656 L 228.601562 761.597656 Z "/>
<path style="fill:none;stroke-width:0.032;stroke-linecap:round;stroke-linejoin:miter;stroke:rgb(0%,0%,0%);stroke-opacity:1;stroke-miterlimit:10;" d="M 0.4333 1.065 L 0.7333 1.065 " transform="matrix(600,0,0,-600,-16.98,1415)"/>
<path style=" stroke:none;fill-rule:evenodd;fill:rgb(100%,100%,100%);fill-opacity:1;" d="M 817.800781 1136 C 817.800781 1129.601562 808.199219 1129.601562 808.199219 1136 C 808.199219 1142.398438 817.800781 1142.398438 817.800781 1136 "/>
<path style=" stroke:none;fill-rule:evenodd;fill:rgb(100%,100%,100%);fill-opacity:1;" d="M 877.800781 1136 C 877.800781 1129.601562 868.199219 1129.601562 868.199219 1136 C 868.199219 1142.398438 877.800781 1142.398438 877.800781 1136 "/>
<path style=" stroke:none;fill-rule:evenodd;fill:rgb(100%,100%,100%);fill-opacity:1;" d="M 1237.800781 1136 C 1237.800781 1129.601562 1228.199219 1129.601562 1228.199219 1136 C 1228.199219 1142.398438 1237.800781 1142.398438 1237.800781 1136 "/>
<path style=" stroke:none;fill-rule:evenodd;fill:rgb(100%,100%,100%);fill-opacity:1;" d="M 1297.800781 1136 C 1297.800781 1129.601562 1288.199219 1129.601562 1288.199219 1136 C 1288.199219 1142.398438 1297.800781 1142.398438 1297.800781 1136 "/>
<path style=" stroke:none;fill-rule:evenodd;fill:rgb(100%,100%,100%);fill-opacity:1;" d="M 997.800781 656 C 997.800781 649.601562 988.199219 649.601562 988.199219 656 C 988.199219 662.398438 997.800781 662.398438 997.800781 656 "/>
<path style=" stroke:none;fill-rule:evenodd;fill:rgb(100%,100%,100%);fill-opacity:1;" d="M 937.800781 656 C 937.800781 649.601562 928.199219 649.601562 928.199219 656 C 928.199219 662.398438 937.800781 662.398438 937.800781 656 "/>
<path style=" stroke:none;fill-rule:evenodd;fill:rgb(100%,100%,100%);fill-opacity:1;" d="M 1057.800781 596 C 1057.800781 589.601562 1048.199219 589.601562 1048.199219 596 C 1048.199219 602.398438 1057.800781 602.398438 1057.800781 596 "/>
<path style=" stroke:none;fill-rule:evenodd;fill:rgb(100%,100%,100%);fill-opacity:1;" d="M 1117.800781 656 C 1117.800781 649.601562 1108.199219 649.601562 1108.199219 656 C 1108.199219 662.398438 1117.800781 662.398438 1117.800781 656 "/>
<path style=" stroke:none;fill-rule:evenodd;fill:rgb(100%,100%,100%);fill-opacity:1;" d="M 1177.800781 536 C 1177.800781 529.601562 1168.199219 529.601562 1168.199219 536 C 1168.199219 542.398438 1177.800781 542.398438 1177.800781 536 "/>
<path style=" stroke:none;fill-rule:evenodd;fill:rgb(100%,100%,100%);fill-opacity:1;" d="M 997.800781 476 C 997.800781 469.601562 988.199219 469.601562 988.199219 476 C 988.199219 482.398438 997.800781 482.398438 997.800781 476 "/>
<path style=" stroke:none;fill-rule:evenodd;fill:rgb(100%,100%,100%);fill-opacity:1;" d="M 997.800781 416 C 997.800781 409.601562 988.199219 409.601562 988.199219 416 C 988.199219 422.398438 997.800781 422.398438 997.800781 416 "/>
<path style=" stroke:none;fill-rule:evenodd;fill:rgb(100%,100%,100%);fill-opacity:1;" d="M 997.800781 356 C 997.800781 349.601562 988.199219 349.601562 988.199219 356 C 988.199219 362.398438 997.800781 362.398438 997.800781 356 "/>
<path style=" stroke:none;fill-rule:evenodd;fill:rgb(100%,100%,100%);fill-opacity:1;" d="M 1297.800781 356 C 1297.800781 349.601562 1288.199219 349.601562 1288.199219 356 C 1288.199219 362.398438 1297.800781 362.398438 1297.800781 356 "/>
<path style=" stroke:none;fill-rule:evenodd;fill:rgb(100%,100%,100%);fill-opacity:1;" d="M 1387.800781 416 C 1387.800781 409.601562 1378.199219 409.601562 1378.199219 416 C 1378.199219 422.398438 1387.800781 422.398438 1387.800781 416 "/>
<path style=" stroke:none;fill-rule:evenodd;fill:rgb(100%,100%,100%);fill-opacity:1;" d="M 1477.800781 476 C 1477.800781 469.601562 1468.199219 469.601562 1468.199219 476 C 1468.199219 482.398438 1477.800781 482.398438 1477.800781 476 "/>
<path style=" stroke:none;fill-rule:evenodd;fill:rgb(100%,100%,100%);fill-opacity:1;" d="M 1477.800781 536 C 1477.800781 529.601562 1468.199219 529.601562 1468.199219 536 C 1468.199219 542.398438 1477.800781 542.398438 1477.800781 536 "/>
<path style=" stroke:none;fill-rule:evenodd;fill:rgb(100%,100%,100%);fill-opacity:1;" d="M 1477.800781 596 C 1477.800781 589.601562 1468.199219 589.601562 1468.199219 596 C 1468.199219 602.398438 1477.800781 602.398438 1477.800781 596 "/>
<path style=" stroke:none;fill-rule:evenodd;fill:rgb(100%,100%,100%);fill-opacity:1;" d="M 1537.800781 656 C 1537.800781 649.601562 1528.199219 649.601562 1528.199219 656 C 1528.199219 662.398438 1537.800781 662.398438 1537.800781 656 "/>
<path style=" stroke:none;fill-rule:evenodd;fill:rgb(100%,100%,100%);fill-opacity:1;" d="M 1777.800781 746 C 1777.800781 739.601562 1768.199219 739.601562 1768.199219 746 C 1768.199219 752.398438 1777.800781 752.398438 1777.800781 746 "/>
<path style=" stroke:none;fill-rule:evenodd;fill:rgb(100%,100%,100%);fill-opacity:1;" d="M 2017.800781 746 C 2017.800781 739.601562 2008.199219 739.601562 2008.199219 746 C 2008.199219 752.398438 2017.800781 752.398438 2017.800781 746 "/>
<path style=" stroke:none;fill-rule:evenodd;fill:rgb(100%,100%,100%);fill-opacity:1;" d="M 1777.800781 1016 C 1777.800781 1009.601562 1768.199219 1009.601562 1768.199219 1016 C 1768.199219 1022.398438 1777.800781 1022.398438 1777.800781 1016 "/>
<path style=" stroke:none;fill-rule:evenodd;fill:rgb(100%,100%,100%);fill-opacity:1;" d="M 1387.800781 956 C 1387.800781 949.601562 1378.199219 949.601562 1378.199219 956 C 1378.199219 962.398438 1387.800781 962.398438 1387.800781 956 "/>
<path style=" stroke:none;fill-rule:evenodd;fill:rgb(100%,100%,100%);fill-opacity:1;" d="M 1387.800781 806 C 1387.800781 799.601562 1378.199219 799.601562 1378.199219 806 C 1378.199219 812.398438 1387.800781 812.398438 1387.800781 806 "/>
<path style=" stroke:none;fill-rule:evenodd;fill:rgb(100%,100%,100%);fill-opacity:1;" d="M 997.800781 866 C 997.800781 859.601562 988.199219 859.601562 988.199219 866 C 988.199219 872.398438 997.800781 872.398438 997.800781 866 "/>
<path style=" stroke:none;fill-rule:evenodd;fill:rgb(100%,100%,100%);fill-opacity:1;" d="M 817.800781 866 C 817.800781 859.601562 808.199219 859.601562 808.199219 866 C 808.199219 872.398438 817.800781 872.398438 817.800781 866 "/>
<path style=" stroke:none;fill-rule:evenodd;fill:rgb(100%,100%,100%);fill-opacity:1;" d="M 517.800781 1016 C 517.800781 1009.601562 508.199219 1009.601562 508.199219 1016 C 508.199219 1022.398438 517.800781 1022.398438 517.800781 1016 "/>
<path style=" stroke:none;fill-rule:evenodd;fill:rgb(100%,100%,100%);fill-opacity:1;" d="M 427.800781 866 C 427.800781 859.601562 418.199219 859.601562 418.199219 866 C 418.199219 872.398438 427.800781 872.398438 427.800781 866 "/>
<path style=" stroke:none;fill-rule:evenodd;fill:rgb(100%,100%,100%);fill-opacity:1;" d="M 517.800781 206 C 517.800781 199.601562 508.199219 199.601562 508.199219 206 C 508.199219 212.398438 517.800781 212.398438 517.800781 206 "/>
<path style=" stroke:none;fill-rule:evenodd;fill:rgb(100%,100%,100%);fill-opacity:1;" d="M 1297.800781 206 C 1297.800781 199.601562 1288.199219 199.601562 1288.199219 206 C 1288.199219 212.398438 1297.800781 212.398438 1297.800781 206 "/>
<path style=" stroke:none;fill-rule:evenodd;fill:rgb(100%,100%,100%);fill-opacity:1;" d="M 1297.800781 776 C 1297.800781 769.601562 1288.199219 769.601562 1288.199219 776 C 1288.199219 782.398438 1297.800781 782.398438 1297.800781 776 "/>
<path style=" stroke:none;fill-rule:evenodd;fill:rgb(100%,100%,100%);fill-opacity:1;" d="M 1237.800781 776 C 1237.800781 769.601562 1228.199219 769.601562 1228.199219 776 C 1228.199219 782.398438 1237.800781 782.398438 1237.800781 776 "/>
<path style=" stroke:none;fill-rule:evenodd;fill:rgb(100%,100%,100%);fill-opacity:1;" d="M 1177.800781 776 C 1177.800781 769.601562 1168.199219 769.601562 1168.199219 776 C 1168.199219 782.398438 1177.800781 782.398438 1177.800781 776 "/>
<path style=" stroke:none;fill-rule:evenodd;fill:rgb(100%,100%,100%);fill-opacity:1;" d="M 1117.800781 776 C 1117.800781 769.601562 1108.199219 769.601562 1108.199219 776 C 1108.199219 782.398438 1117.800781 782.398438 1117.800781 776 "/>
<path style=" stroke:none;fill-rule:evenodd;fill:rgb(100%,100%,100%);fill-opacity:1;" d="M 1057.800781 776 C 1057.800781 769.601562 1048.199219 769.601562 1048.199219 776 C 1048.199219 782.398438 1057.800781 782.398438 1057.800781 776 "/>
<path style=" stroke:none;fill-rule:evenodd;fill:rgb(100%,100%,100%);fill-opacity:1;" d="M 997.800781 776 C 997.800781 769.601562 988.199219 769.601562 988.199219 776 C 988.199219 782.398438 997.800781 782.398438 997.800781 776 "/>
<path style=" stroke:none;fill-rule:evenodd;fill:rgb(100%,100%,100%);fill-opacity:1;" d="M 937.800781 776 C 937.800781 769.601562 928.199219 769.601562 928.199219 776 C 928.199219 782.398438 937.800781 782.398438 937.800781 776 "/>
<path style=" stroke:none;fill-rule:evenodd;fill:rgb(100%,100%,100%);fill-opacity:1;" d="M 877.800781 776 C 877.800781 769.601562 868.199219 769.601562 868.199219 776 C 868.199219 782.398438 877.800781 782.398438 877.800781 776 "/>
<path style=" stroke:none;fill-rule:evenodd;fill:rgb(100%,100%,100%);fill-opacity:1;" d="M 817.800781 776 C 817.800781 769.601562 808.199219 769.601562 808.199219 776 C 808.199219 782.398438 817.800781 782.398438 817.800781 776 "/>
<path style=" stroke:none;fill-rule:evenodd;fill:rgb(100%,100%,100%);fill-opacity:1;" d="M 757.800781 776 C 757.800781 769.601562 748.199219 769.601562 748.199219 776 C 748.199219 782.398438 757.800781 782.398438 757.800781 776 "/>
<path style=" stroke:none;fill-rule:evenodd;fill:rgb(100%,100%,100%);fill-opacity:1;" d="M 697.800781 776 C 697.800781 769.601562 688.199219 769.601562 688.199219 776 C 688.199219 782.398438 697.800781 782.398438 697.800781 776 "/>
<path style=" stroke:none;fill-rule:evenodd;fill:rgb(100%,100%,100%);fill-opacity:1;" d="M 637.800781 776 C 637.800781 769.601562 628.199219 769.601562 628.199219 776 C 628.199219 782.398438 637.800781 782.398438 637.800781 776 "/>
<path style=" stroke:none;fill-rule:evenodd;fill:rgb(100%,100%,100%);fill-opacity:1;" d="M 577.800781 776 C 577.800781 769.601562 568.199219 769.601562 568.199219 776 C 568.199219 782.398438 577.800781 782.398438 577.800781 776 "/>
<path style=" stroke:none;fill-rule:evenodd;fill:rgb(100%,100%,100%);fill-opacity:1;" d="M 517.800781 776 C 517.800781 769.601562 508.199219 769.601562 508.199219 776 C 508.199219 782.398438 517.800781 782.398438 517.800781 776 "/>
<path style=" stroke:none;fill-rule:evenodd;fill:rgb(100%,100%,100%);fill-opacity:1;" d="M 427.800781 776 C 427.800781 769.601562 418.199219 769.601562 418.199219 776 C 418.199219 782.398438 427.800781 782.398438 427.800781 776 "/>
<path style=" stroke:none;fill-rule:evenodd;fill:rgb(100%,100%,100%);fill-opacity:1;" d="M 247.800781 776 C 247.800781 769.601562 238.199219 769.601562 238.199219 776 C 238.199219 782.398438 247.800781 782.398438 247.800781 776 "/>
<path style=" stroke:none;fill-rule:evenodd;fill:rgb(100%,100%,100%);fill-opacity:1;" d="M 517.800781 956 C 517.800781 949.601562 508.199219 949.601562 508.199219 956 C 508.199219 962.398438 517.800781 962.398438 517.800781 956 "/>
<path style=" stroke:none;fill-rule:evenodd;fill:rgb(100%,100%,100%);fill-opacity:1;" d="M 577.800781 956 C 577.800781 949.601562 568.199219 949.601562 568.199219 956 C 568.199219 962.398438 577.800781 962.398438 577.800781 956 "/>
<path style=" stroke:none;fill-rule:evenodd;fill:rgb(100%,100%,100%);fill-opacity:1;" d="M 637.800781 956 C 637.800781 949.601562 628.199219 949.601562 628.199219 956 C 628.199219 962.398438 637.800781 962.398438 637.800781 956 "/>
<path style=" stroke:none;fill-rule:evenodd;fill:rgb(100%,100%,100%);fill-opacity:1;" d="M 697.800781 956 C 697.800781 949.601562 688.199219 949.601562 688.199219 956 C 688.199219 962.398438 697.800781 962.398438 697.800781 956 "/>
<path style=" stroke:none;fill-rule:evenodd;fill:rgb(100%,100%,100%);fill-opacity:1;" d="M 757.800781 956 C 757.800781 949.601562 748.199219 949.601562 748.199219 956 C 748.199219 962.398438 757.800781 962.398438 757.800781 956 "/>
<path style=" stroke:none;fill-rule:evenodd;fill:rgb(100%,100%,100%);fill-opacity:1;" d="M 817.800781 956 C 817.800781 949.601562 808.199219 949.601562 808.199219 956 C 808.199219 962.398438 817.800781 962.398438 817.800781 956 "/>
<path style=" stroke:none;fill-rule:evenodd;fill:rgb(100%,100%,100%);fill-opacity:1;" d="M 877.800781 956 C 877.800781 949.601562 868.199219 949.601562 868.199219 956 C 868.199219 962.398438 877.800781 962.398438 877.800781 956 "/>
<path style=" stroke:none;fill-rule:evenodd;fill:rgb(100%,100%,100%);fill-opacity:1;" d="M 937.800781 956 C 937.800781 949.601562 928.199219 949.601562 928.199219 956 C 928.199219 962.398438 937.800781 962.398438 937.800781 956 "/>
<path style=" stroke:none;fill-rule:evenodd;fill:rgb(100%,100%,100%);fill-opacity:1;" d="M 997.800781 956 C 997.800781 949.601562 988.199219 949.601562 988.199219 956 C 988.199219 962.398438 997.800781 962.398438 997.800781 956 "/>
<path style=" stroke:none;fill-rule:evenodd;fill:rgb(100%,100%,100%);fill-opacity:1;" d="M 1057.800781 956 C 1057.800781 949.601562 1048.199219 949.601562 1048.199219 956 C 1048.199219 962.398438 1057.800781 962.398438 1057.800781 956 "/>
<path style=" stroke:none;fill-rule:evenodd;fill:rgb(100%,100%,100%);fill-opacity:1;" d="M 1117.800781 956 C 1117.800781 949.601562 1108.199219 949.601562 1108.199219 956 C 1108.199219 962.398438 1117.800781 962.398438 1117.800781 956 "/>
<path style=" stroke:none;fill-rule:evenodd;fill:rgb(100%,100%,100%);fill-opacity:1;" d="M 1177.800781 956 C 1177.800781 949.601562 1168.199219 949.601562 1168.199219 956 C 1168.199219 962.398438 1177.800781 962.398438 1177.800781 956 "/>
<path style=" stroke:none;fill-rule:evenodd;fill:rgb(100%,100%,100%);fill-opacity:1;" d="M 1237.800781 956 C 1237.800781 949.601562 1228.199219 949.601562 1228.199219 956 C 1228.199219 962.398438 1237.800781 962.398438 1237.800781 956 "/>
<path style=" stroke:none;fill-rule:evenodd;fill:rgb(100%,100%,100%);fill-opacity:1;" d="M 1297.800781 956 C 1297.800781 949.601562 1288.199219 949.601562 1288.199219 956 C 1288.199219 962.398438 1297.800781 962.398438 1297.800781 956 "/>
<path style=" stroke:none;fill-rule:evenodd;fill:rgb(100%,100%,100%);fill-opacity:1;" d="M 1114.800781 1136 C 1114.800781 1129.601562 1105.199219 1129.601562 1105.199219 1136 C 1105.199219 1142.398438 1114.800781 1142.398438 1114.800781 1136 "/>
<path style=" stroke:none;fill-rule:evenodd;fill:rgb(100%,100%,100%);fill-opacity:1;" d="M 1000.800781 1136 C 1000.800781 1129.601562 991.199219 1129.601562 991.199219 1136 C 991.199219 1142.398438 1000.800781 1142.398438 1000.800781 1136 "/>
<path style=" stroke:none;fill-rule:evenodd;fill:rgb(100%,100%,100%);fill-opacity:1;" d="M 127.800781 566 C 127.800781 559.601562 118.199219 559.601562 118.199219 566 C 118.199219 572.398438 127.800781 572.398438 127.800781 566 "/>
<path style=" stroke:none;fill-rule:evenodd;fill:rgb(100%,100%,100%);fill-opacity:1;" d="M 127.800781 506 C 127.800781 499.601562 118.199219 499.601562 118.199219 506 C 118.199219 512.398438 127.800781 512.398438 127.800781 506 "/>
<path style=" stroke:none;fill-rule:evenodd;fill:rgb(100%,100%,100%);fill-opacity:1;" d="M 127.800781 446 C 127.800781 439.601562 118.199219 439.601562 118.199219 446 C 118.199219 452.398438 127.800781 452.398438 127.800781 446 "/>
<path style=" stroke:none;fill-rule:evenodd;fill:rgb(100%,100%,100%);fill-opacity:1;" d="M 1597.800781 266 C 1597.800781 259.601562 1588.199219 259.601562 1588.199219 266 C 1588.199219 272.398438 1597.800781 272.398438 1597.800781 266 "/>
<path style=" stroke:none;fill-rule:evenodd;fill:rgb(100%,100%,100%);fill-opacity:1;" d="M 1837.800781 266 C 1837.800781 259.601562 1828.199219 259.601562 1828.199219 266 C 1828.199219 272.398438 1837.800781 272.398438 1837.800781 266 "/>
<path style=" stroke:none;fill-rule:evenodd;fill:rgb(100%,100%,100%);fill-opacity:1;" d="M 1687.800781 476 C 1687.800781 469.601562 1678.199219 469.601562 1678.199219 476 C 1678.199219 482.398438 1687.800781 482.398438 1687.800781 476 "/>
<path style=" stroke:none;fill-rule:evenodd;fill:rgb(100%,100%,100%);fill-opacity:1;" d="M 1687.800781 716 C 1687.800781 709.601562 1678.199219 709.601562 1678.199219 716 C 1678.199219 722.398438 1687.800781 722.398438 1687.800781 716 "/>
<path style=" stroke:none;fill-rule:evenodd;fill:rgb(100%,100%,100%);fill-opacity:1;" d="M 2257.800781 746 C 2257.800781 739.601562 2248.199219 739.601562 2248.199219 746 C 2248.199219 752.398438 2257.800781 752.398438 2257.800781 746 "/>
<path style=" stroke:none;fill-rule:evenodd;fill:rgb(100%,100%,100%);fill-opacity:1;" d="M 2317.800781 746 C 2317.800781 739.601562 2308.199219 739.601562 2308.199219 746 C 2308.199219 752.398438 2317.800781 752.398438 2317.800781 746 "/>
<path style=" stroke:none;fill-rule:evenodd;fill:rgb(100%,100%,100%);fill-opacity:1;" d="M 2317.800781 806 C 2317.800781 799.601562 2308.199219 799.601562 2308.199219 806 C 2308.199219 812.398438 2317.800781 812.398438 2317.800781 806 "/>
<path style=" stroke:none;fill-rule:evenodd;fill:rgb(100%,100%,100%);fill-opacity:1;" d="M 2257.800781 806 C 2257.800781 799.601562 2248.199219 799.601562 2248.199219 806 C 2248.199219 812.398438 2257.800781 812.398438 2257.800781 806 "/>
<path style=" stroke:none;fill-rule:evenodd;fill:rgb(100%,100%,100%);fill-opacity:1;" d="M 2257.800781 866 C 2257.800781 859.601562 2248.199219 859.601562 2248.199219 866 C 2248.199219 872.398438 2257.800781 872.398438 2257.800781 866 "/>
<path style=" stroke:none;fill-rule:evenodd;fill:rgb(100%,100%,100%);fill-opacity:1;" d="M 2317.800781 866 C 2317.800781 859.601562 2308.199219 859.601562 2308.199219 866 C 2308.199219 872.398438 2317.800781 872.398438 2317.800781 866 "/>
<path style=" stroke:none;fill-rule:evenodd;fill:rgb(100%,100%,100%);fill-opacity:1;" d="M 2317.800781 926 C 2317.800781 919.601562 2308.199219 919.601562 2308.199219 926 C 2308.199219 932.398438 2317.800781 932.398438 2317.800781 926 "/>
<path style=" stroke:none;fill-rule:evenodd;fill:rgb(100%,100%,100%);fill-opacity:1;" d="M 2257.800781 926 C 2257.800781 919.601562 2248.199219 919.601562 2248.199219 926 C 2248.199219 932.398438 2257.800781 932.398438 2257.800781 926 "/>
<path style=" stroke:none;fill-rule:evenodd;fill:rgb(100%,100%,100%);fill-opacity:1;" d="M 2131.199219 1089.199219 C 2131.199219 1082.800781 2121.601562 1082.800781 2121.601562 1089.199219 C 2121.601562 1095.601562 2131.199219 1095.601562 2131.199219 1089.199219 "/>
<path style=" stroke:none;fill-rule:evenodd;fill:rgb(100%,100%,100%);fill-opacity:1;" d="M 2024.398438 1089.199219 C 2024.398438 1082.800781 2014.800781 1082.800781 2014.800781 1089.199219 C 2014.800781 1095.601562 2024.398438 1095.601562 2024.398438 1089.199219 "/>
<path style=" stroke:none;fill-rule:evenodd;fill:rgb(100%,100%,100%);fill-opacity:1;" d="M 1897.800781 1226 C 1897.800781 1219.601562 1888.199219 1219.601562 1888.199219 1226 C 1888.199219 1232.398438 1897.800781 1232.398438 1897.800781 1226 "/>
<path style=" stroke:none;fill-rule:evenodd;fill:rgb(100%,100%,100%);fill-opacity:1;" d="M 1837.800781 1226 C 1837.800781 1219.601562 1828.199219 1219.601562 1828.199219 1226 C 1828.199219 1232.398438 1837.800781 1232.398438 1837.800781 1226 "/>
<path style=" stroke:none;fill-rule:evenodd;fill:rgb(100%,100%,100%);fill-opacity:1;" d="M 1687.800781 1226 C 1687.800781 1219.601562 1678.199219 1219.601562 1678.199219 1226 C 1678.199219 1232.398438 1687.800781 1232.398438 1687.800781 1226 "/>
<path style=" stroke:none;fill-rule:evenodd;fill:rgb(100%,100%,100%);fill-opacity:1;" d="M 1627.800781 1226 C 1627.800781 1219.601562 1618.199219 1219.601562 1618.199219 1226 C 1618.199219 1232.398438 1627.800781 1232.398438 1627.800781 1226 "/>
<path style=" stroke:none;fill-rule:evenodd;fill:rgb(100%,100%,100%);fill-opacity:1;" d="M 1567.800781 1226 C 1567.800781 1219.601562 1558.199219 1219.601562 1558.199219 1226 C 1558.199219 1232.398438 1567.800781 1232.398438 1567.800781 1226 "/>
<path style=" stroke:none;fill-rule:evenodd;fill:rgb(100%,100%,100%);fill-opacity:1;" d="M 1507.800781 1226 C 1507.800781 1219.601562 1498.199219 1219.601562 1498.199219 1226 C 1498.199219 1232.398438 1507.800781 1232.398438 1507.800781 1226 "/>
<path style=" stroke:none;fill-rule:evenodd;fill:rgb(100%,100%,100%);fill-opacity:1;" d="M 1447.800781 1226 C 1447.800781 1219.601562 1438.199219 1219.601562 1438.199219 1226 C 1438.199219 1232.398438 1447.800781 1232.398438 1447.800781 1226 "/>
<path style=" stroke:none;fill-rule:evenodd;fill:rgb(100%,100%,100%);fill-opacity:1;" d="M 1387.800781 1226 C 1387.800781 1219.601562 1378.199219 1219.601562 1378.199219 1226 C 1378.199219 1232.398438 1387.800781 1232.398438 1387.800781 1226 "/>
<path style=" stroke:none;fill-rule:evenodd;fill:rgb(100%,100%,100%);fill-opacity:1;" d="M 2024.398438 1242.800781 C 2024.398438 1236.398438 2014.800781 1236.398438 2014.800781 1242.800781 C 2014.800781 1249.199219 2024.398438 1249.199219 2024.398438 1242.800781 "/>
<path style=" stroke:none;fill-rule:evenodd;fill:rgb(100%,100%,100%);fill-opacity:1;" d="M 2131.199219 1242.800781 C 2131.199219 1236.398438 2121.601562 1236.398438 2121.601562 1242.800781 C 2121.601562 1249.199219 2131.199219 1249.199219 2131.199219 1242.800781 "/>
<path style=" stroke:none;fill-rule:evenodd;fill:rgb(100%,100%,100%);fill-opacity:1;" d="M 2257.800781 686 C 2257.800781 679.601562 2248.199219 679.601562 2248.199219 686 C 2248.199219 692.398438 2257.800781 692.398438 2257.800781 686 "/>
<path style=" stroke:none;fill-rule:evenodd;fill:rgb(100%,100%,100%);fill-opacity:1;" d="M 2317.800781 686 C 2317.800781 679.601562 2308.199219 679.601562 2308.199219 686 C 2308.199219 692.398438 2317.800781 692.398438 2317.800781 686 "/>
<path style=" stroke:none;fill-rule:evenodd;fill:rgb(100%,100%,100%);fill-opacity:1;" d="M 1351.921875 259.878906 C 1351.921875 253.480469 1342.320312 253.480469 1342.320312 259.878906 C 1342.320312 266.28125 1351.921875 266.28125 1351.921875 259.878906 "/>
<path style=" stroke:none;fill-rule:evenodd;fill:rgb(100%,100%,100%);fill-opacity:1;" d="M 1291.921875 259.878906 C 1291.921875 253.480469 1282.320312 253.480469 1282.320312 259.878906 C 1282.320312 266.28125 1291.921875 266.28125 1291.921875 259.878906 "/>
<path style=" stroke:none;fill-rule:evenodd;fill:rgb(100%,100%,100%);fill-opacity:1;" d="M 1231.921875 259.878906 C 1231.921875 253.480469 1222.320312 253.480469 1222.320312 259.878906 C 1222.320312 266.28125 1231.921875 266.28125 1231.921875 259.878906 "/>
<path style=" stroke:none;fill-rule:evenodd;fill:rgb(100%,100%,100%);fill-opacity:1;" d="M 1171.921875 259.878906 C 1171.921875 253.480469 1162.320312 253.480469 1162.320312 259.878906 C 1162.320312 266.28125 1171.921875 266.28125 1171.921875 259.878906 "/>
<path style=" stroke:none;fill-rule:evenodd;fill:rgb(100%,100%,100%);fill-opacity:1;" d="M 1111.921875 259.878906 C 1111.921875 253.480469 1102.320312 253.480469 1102.320312 259.878906 C 1102.320312 266.28125 1111.921875 266.28125 1111.921875 259.878906 "/>
<path style=" stroke:none;fill-rule:evenodd;fill:rgb(100%,100%,100%);fill-opacity:1;" d="M 1051.921875 259.878906 C 1051.921875 253.480469 1042.320312 253.480469 1042.320312 259.878906 C 1042.320312 266.28125 1051.921875 266.28125 1051.921875 259.878906 "/>
<path style=" stroke:none;fill-rule:evenodd;fill:rgb(100%,100%,100%);fill-opacity:1;" d="M 991.921875 259.878906 C 991.921875 253.480469 982.320312 253.480469 982.320312 259.878906 C 982.320312 266.28125 991.921875 266.28125 991.921875 259.878906 "/>
<path style=" stroke:none;fill-rule:evenodd;fill:rgb(100%,100%,100%);fill-opacity:1;" d="M 931.921875 259.878906 C 931.921875 253.480469 922.320312 253.480469 922.320312 259.878906 C 922.320312 266.28125 931.921875 266.28125 931.921875 259.878906 "/>
<path style=" stroke:none;fill-rule:evenodd;fill:rgb(100%,100%,100%);fill-opacity:1;" d="M 871.921875 259.878906 C 871.921875 253.480469 862.320312 253.480469 862.320312 259.878906 C 862.320312 266.28125 871.921875 266.28125 871.921875 259.878906 "/>
<path style=" stroke:none;fill-rule:evenodd;fill:rgb(100%,100%,100%);fill-opacity:1;" d="M 811.921875 259.878906 C 811.921875 253.480469 802.320312 253.480469 802.320312 259.878906 C 802.320312 266.28125 811.921875 266.28125 811.921875 259.878906 "/>
<path style=" stroke:none;fill-rule:evenodd;fill:rgb(100%,100%,100%);fill-opacity:1;" d="M 751.921875 259.878906 C 751.921875 253.480469 742.320312 253.480469 742.320312 259.878906 C 742.320312 266.28125 751.921875 266.28125 751.921875 259.878906 "/>
<path style=" stroke:none;fill-rule:evenodd;fill:rgb(100%,100%,100%);fill-opacity:1;" d="M 691.921875 259.878906 C 691.921875 253.480469 682.320312 253.480469 682.320312 259.878906 C 682.320312 266.28125 691.921875 266.28125 691.921875 259.878906 "/>
<path style=" stroke:none;fill-rule:evenodd;fill:rgb(100%,100%,100%);fill-opacity:1;" d="M 631.921875 259.878906 C 631.921875 253.480469 622.320312 253.480469 622.320312 259.878906 C 622.320312 266.28125 631.921875 266.28125 631.921875 259.878906 "/>
<path style=" stroke:none;fill-rule:evenodd;fill:rgb(100%,100%,100%);fill-opacity:1;" d="M 571.921875 259.878906 C 571.921875 253.480469 562.320312 253.480469 562.320312 259.878906 C 562.320312 266.28125 571.921875 266.28125 571.921875 259.878906 "/>
<path style=" stroke:none;fill-rule:evenodd;fill:rgb(100%,100%,100%);fill-opacity:1;" d="M 511.921875 259.878906 C 511.921875 253.480469 502.320312 253.480469 502.320312 259.878906 C 502.320312 266.28125 511.921875 266.28125 511.921875 259.878906 "/>
<path style=" stroke:none;fill-rule:evenodd;fill:rgb(100%,100%,100%);fill-opacity:1;" d="M 451.921875 259.878906 C 451.921875 253.480469 442.320312 253.480469 442.320312 259.878906 C 442.320312 266.28125 451.921875 266.28125 451.921875 259.878906 "/>
<path style=" stroke:none;fill-rule:evenodd;fill:rgb(100%,100%,100%);fill-opacity:1;" d="M 157.800781 926 C 157.800781 919.601562 148.199219 919.601562 148.199219 926 C 148.199219 932.398438 157.800781 932.398438 157.800781 926 "/>
<path style=" stroke:none;fill-rule:evenodd;fill:rgb(100%,100%,100%);fill-opacity:1;" d="M 157.800781 986 C 157.800781 979.601562 148.199219 979.601562 148.199219 986 C 148.199219 992.398438 157.800781 992.398438 157.800781 986 "/>
<path style=" stroke:none;fill-rule:evenodd;fill:rgb(100%,100%,100%);fill-opacity:1;" d="M 157.800781 1046 C 157.800781 1039.601562 148.199219 1039.601562 148.199219 1046 C 148.199219 1052.398438 157.800781 1052.398438 157.800781 1046 "/>
<path style=" stroke:none;fill-rule:evenodd;fill:rgb(100%,100%,100%);fill-opacity:1;" d="M 247.800781 1226 C 247.800781 1219.601562 238.199219 1219.601562 238.199219 1226 C 238.199219 1232.398438 247.800781 1232.398438 247.800781 1226 "/>
<path style=" stroke:none;fill-rule:evenodd;fill:rgb(100%,100%,100%);fill-opacity:1;" d="M 307.800781 1226 C 307.800781 1219.601562 298.199219 1219.601562 298.199219 1226 C 298.199219 1232.398438 307.800781 1232.398438 307.800781 1226 "/>
<path style=" stroke:none;fill-rule:evenodd;fill:rgb(100%,100%,100%);fill-opacity:1;" d="M 367.800781 1226 C 367.800781 1219.601562 358.199219 1219.601562 358.199219 1226 C 358.199219 1232.398438 367.800781 1232.398438 367.800781 1226 "/>
<path style=" stroke:none;fill-rule:evenodd;fill:rgb(100%,100%,100%);fill-opacity:1;" d="M 427.800781 1226 C 427.800781 1219.601562 418.199219 1219.601562 418.199219 1226 C 418.199219 1232.398438 427.800781 1232.398438 427.800781 1226 "/>
<path style=" stroke:none;fill-rule:evenodd;fill:rgb(100%,100%,100%);fill-opacity:1;" d="M 577.800781 1226 C 577.800781 1219.601562 568.199219 1219.601562 568.199219 1226 C 568.199219 1232.398438 577.800781 1232.398438 577.800781 1226 "/>
<path style=" stroke:none;fill-rule:evenodd;fill:rgb(100%,100%,100%);fill-opacity:1;" d="M 637.800781 1226 C 637.800781 1219.601562 628.199219 1219.601562 628.199219 1226 C 628.199219 1232.398438 637.800781 1232.398438 637.800781 1226 "/>
<path style=" stroke:none;fill-rule:evenodd;fill:rgb(100%,100%,100%);fill-opacity:1;" d="M 697.800781 1226 C 697.800781 1219.601562 688.199219 1219.601562 688.199219 1226 C 688.199219 1232.398438 697.800781 1232.398438 697.800781 1226 "/>
<path style=" stroke:none;fill-rule:evenodd;fill:rgb(100%,100%,100%);fill-opacity:1;" d="M 757.800781 1226 C 757.800781 1219.601562 748.199219 1219.601562 748.199219 1226 C 748.199219 1232.398438 757.800781 1232.398438 757.800781 1226 "/>
<path style=" stroke:none;fill-rule:evenodd;fill:rgb(100%,100%,100%);fill-opacity:1;" d="M 322.019531 992.121094 C 322.019531 985.71875 312.421875 985.71875 312.421875 992.121094 C 312.421875 998.519531 322.019531 998.519531 322.019531 992.121094 "/>
<path style=" stroke:none;fill-rule:evenodd;fill:rgb(100%,100%,100%);fill-opacity:1;" d="M 322.019531 259.878906 C 322.019531 253.480469 312.421875 253.480469 312.421875 259.878906 C 312.421875 266.28125 322.019531 266.28125 322.019531 259.878906 "/>
<path style=" stroke:none;fill-rule:evenodd;fill:rgb(100%,100%,100%);fill-opacity:1;" d="M 2093.640625 259.878906 C 2093.640625 253.480469 2084.039062 253.480469 2084.039062 259.878906 C 2084.039062 266.28125 2093.640625 266.28125 2093.640625 259.878906 "/>
<path style=" stroke:none;fill-rule:evenodd;fill:rgb(100%,100%,100%);fill-opacity:1;" d="M 2093.640625 992.121094 C 2093.640625 985.71875 2084.039062 985.71875 2084.039062 992.121094 C 2084.039062 998.519531 2093.640625 998.519531 2093.640625 992.121094 "/>
<path style=" stroke:none;fill-rule:evenodd;fill:rgb(100%,100%,100%);fill-opacity:1;" d="M 127.800781 1286 C 127.800781 1279.601562 118.199219 1279.601562 118.199219 1286 C 118.199219 1292.398438 127.800781 1292.398438 127.800781 1286 "/>
<path style=" stroke:none;fill-rule:evenodd;fill:rgb(100%,100%,100%);fill-opacity:1;" d="M 127.800781 206 C 127.800781 199.601562 118.199219 199.601562 118.199219 206 C 118.199219 212.398438 127.800781 212.398438 127.800781 206 "/>
<path style=" stroke:none;fill-rule:evenodd;fill:rgb(100%,100%,100%);fill-opacity:1;" d="M 2317.800781 206 C 2317.800781 199.601562 2308.199219 199.601562 2308.199219 206 C 2308.199219 212.398438 2317.800781 212.398438 2317.800781 206 "/>
<path style=" stroke:none;fill-rule:evenodd;fill:rgb(100%,100%,100%);fill-opacity:1;" d="M 2317.800781 1286 C 2317.800781 1279.601562 2308.199219 1279.601562 2308.199219 1286 C 2308.199219 1292.398438 2317.800781 1292.398438 2317.800781 1286 "/>
</g>
</svg>
