<?xml version="1.0" encoding="UTF-8"?>
<svg xmlns="http://www.w3.org/2000/svg" xmlns:xlink="http://www.w3.org/1999/xlink" width="1371pt" height="929pt" viewBox="0 0 1371 929" version="1.1">
<g id="surface1">
<path style="fill:none;stroke-width:0.01;stroke-linecap:round;stroke-linejoin:miter;stroke:rgb(0%,0%,0%);stroke-opacity:1;stroke-miterlimit:10;" d="M 0.176002 0.015 L 0.176002 1.414603 " transform="matrix(600,0,0,-600,-19.980001,935)"/>
<path style="fill:none;stroke-width:0.01;stroke-linecap:round;stroke-linejoin:miter;stroke:rgb(0%,0%,0%);stroke-opacity:1;stroke-miterlimit:10;" d="M 0.176002 1.414603 L 2.313001 1.414603 " transform="matrix(600,0,0,-600,-19.980001,935)"/>
<path style="fill:none;stroke-width:0.01;stroke-linecap:round;stroke-linejoin:miter;stroke:rgb(0%,0%,0%);stroke-opacity:1;stroke-miterlimit:10;" d="M 2.313001 1.414603 L 2.313001 0.015 " transform="matrix(600,0,0,-600,-19.980001,935)"/>
<path style="fill:none;stroke-width:0.01;stroke-linecap:round;stroke-linejoin:miter;stroke:rgb(0%,0%,0%);stroke-opacity:1;stroke-miterlimit:10;" d="M 2.313001 0.015 L 0.176002 0.015 " transform="matrix(600,0,0,-600,-19.980001,935)"/>
<path style="fill:none;stroke-width:0.0051;stroke-linecap:round;stroke-linejoin:miter;stroke:rgb(0%,0%,0%);stroke-opacity:1;stroke-miterlimit:10;" d="M 0.176002 0.015 L 0.0491984 0.015 " transform="matrix(600,0,0,-600,-19.980001,935)"/>
<path style="fill:none;stroke-width:0.0051;stroke-linecap:round;stroke-linejoin:miter;stroke:rgb(0%,0%,0%);stroke-opacity:1;stroke-miterlimit:10;" d="M 0.126002 0.015 L 0.136197 0.117402 " transform="matrix(600,0,0,-600,-19.980001,935)"/>
<path style="fill:none;stroke-width:0.0051;stroke-linecap:round;stroke-linejoin:miter;stroke:rgb(0%,0%,0%);stroke-opacity:1;stroke-miterlimit:10;" d="M 0.138502 0.117402 L 0.126002 0.015 " transform="matrix(600,0,0,-600,-19.980001,935)"/>
<path style="fill:none;stroke-width:0.0051;stroke-linecap:round;stroke-linejoin:miter;stroke:rgb(0%,0%,0%);stroke-opacity:1;stroke-miterlimit:10;" d="M 0.126002 0.015 L 0.115702 0.117402 " transform="matrix(600,0,0,-600,-19.980001,935)"/>
<path style="fill:none;stroke-width:0.0051;stroke-linecap:round;stroke-linejoin:miter;stroke:rgb(0%,0%,0%);stroke-opacity:1;stroke-miterlimit:10;" d="M 0.113398 0.117402 L 0.138502 0.117402 " transform="matrix(600,0,0,-600,-19.980001,935)"/>
<path style="fill:none;stroke-width:0.0051;stroke-linecap:round;stroke-linejoin:miter;stroke:rgb(0%,0%,0%);stroke-opacity:1;stroke-miterlimit:10;" d="M 0.131099 0.117402 L 0.126002 0.015 " transform="matrix(600,0,0,-600,-19.980001,935)"/>
<path style="fill:none;stroke-width:0.0051;stroke-linecap:round;stroke-linejoin:miter;stroke:rgb(0%,0%,0%);stroke-opacity:1;stroke-miterlimit:10;" d="M 0.126002 0.015 L 0.1208 0.117402 " transform="matrix(600,0,0,-600,-19.980001,935)"/>
<path style="fill:none;stroke-width:0.0051;stroke-linecap:round;stroke-linejoin:miter;stroke:rgb(0%,0%,0%);stroke-opacity:1;stroke-miterlimit:10;" d="M 0.113398 0.117402 L 0.126002 0.015 " transform="matrix(600,0,0,-600,-19.980001,935)"/>
<path style="fill:none;stroke-width:0.0051;stroke-linecap:round;stroke-linejoin:miter;stroke:rgb(0%,0%,0%);stroke-opacity:1;stroke-miterlimit:10;" d="M 0.126002 0.015 L 0.126002 1.415 " transform="matrix(600,0,0,-600,-19.980001,935)"/>
<path style="fill:none;stroke-width:0.0051;stroke-linecap:round;stroke-linejoin:miter;stroke:rgb(0%,0%,0%);stroke-opacity:1;stroke-miterlimit:10;" d="M 0.126002 1.415 L 0.136197 1.312598 " transform="matrix(600,0,0,-600,-19.980001,935)"/>
<path style="fill:none;stroke-width:0.0051;stroke-linecap:round;stroke-linejoin:miter;stroke:rgb(0%,0%,0%);stroke-opacity:1;stroke-miterlimit:10;" d="M 0.138502 1.312598 L 0.126002 1.415 " transform="matrix(600,0,0,-600,-19.980001,935)"/>
<path style="fill:none;stroke-width:0.0051;stroke-linecap:round;stroke-linejoin:miter;stroke:rgb(0%,0%,0%);stroke-opacity:1;stroke-miterlimit:10;" d="M 0.126002 1.415 L 0.115702 1.312598 " transform="matrix(600,0,0,-600,-19.980001,935)"/>
<path style="fill:none;stroke-width:0.0051;stroke-linecap:round;stroke-linejoin:miter;stroke:rgb(0%,0%,0%);stroke-opacity:1;stroke-miterlimit:10;" d="M 0.113398 1.312598 L 0.138502 1.312598 " transform="matrix(600,0,0,-600,-19.980001,935)"/>
<path style="fill:none;stroke-width:0.0051;stroke-linecap:round;stroke-linejoin:miter;stroke:rgb(0%,0%,0%);stroke-opacity:1;stroke-miterlimit:10;" d="M 0.131099 1.312598 L 0.126002 1.415 " transform="matrix(600,0,0,-600,-19.980001,935)"/>
<path style="fill:none;stroke-width:0.0051;stroke-linecap:round;stroke-linejoin:miter;stroke:rgb(0%,0%,0%);stroke-opacity:1;stroke-miterlimit:10;" d="M 0.126002 1.415 L 0.1208 1.312598 " transform="matrix(600,0,0,-600,-19.980001,935)"/>
<path style="fill:none;stroke-width:0.0051;stroke-linecap:round;stroke-linejoin:miter;stroke:rgb(0%,0%,0%);stroke-opacity:1;stroke-miterlimit:10;" d="M 0.113398 1.312598 L 0.126002 1.415 " transform="matrix(600,0,0,-600,-19.980001,935)"/>
<path style="fill:none;stroke-width:0.0051;stroke-linecap:round;stroke-linejoin:miter;stroke:rgb(0%,0%,0%);stroke-opacity:1;stroke-miterlimit:10;" d="M 0.176002 1.415 L 0.0491984 1.415 " transform="matrix(600,0,0,-600,-19.980001,935)"/>
<path style="fill:none;stroke-width:0.0051;stroke-linecap:round;stroke-linejoin:miter;stroke:rgb(0%,0%,0%);stroke-opacity:1;stroke-miterlimit:10;" d="M 0.176002 1.414603 L 0.176002 1.541797 " transform="matrix(600,0,0,-600,-19.980001,935)"/>
<path style="fill:none;stroke-width:0.0051;stroke-linecap:round;stroke-linejoin:miter;stroke:rgb(0%,0%,0%);stroke-opacity:1;stroke-miterlimit:10;" d="M 0.176002 1.465 L 0.2783 1.454798 " transform="matrix(600,0,0,-600,-19.980001,935)"/>
<path style="fill:none;stroke-width:0.0051;stroke-linecap:round;stroke-linejoin:miter;stroke:rgb(0%,0%,0%);stroke-opacity:1;stroke-miterlimit:10;" d="M 0.2783 1.452402 L 0.176002 1.465 " transform="matrix(600,0,0,-600,-19.980001,935)"/>
<path style="fill:none;stroke-width:0.0051;stroke-linecap:round;stroke-linejoin:miter;stroke:rgb(0%,0%,0%);stroke-opacity:1;stroke-miterlimit:10;" d="M 0.176002 1.465 L 0.2783 1.475202 " transform="matrix(600,0,0,-600,-19.980001,935)"/>
<path style="fill:none;stroke-width:0.0051;stroke-linecap:round;stroke-linejoin:miter;stroke:rgb(0%,0%,0%);stroke-opacity:1;stroke-miterlimit:10;" d="M 0.2783 1.477598 L 0.2783 1.452402 " transform="matrix(600,0,0,-600,-19.980001,935)"/>
<path style="fill:none;stroke-width:0.0051;stroke-linecap:round;stroke-linejoin:miter;stroke:rgb(0%,0%,0%);stroke-opacity:1;stroke-miterlimit:10;" d="M 0.2783 1.459902 L 0.176002 1.465 " transform="matrix(600,0,0,-600,-19.980001,935)"/>
<path style="fill:none;stroke-width:0.0051;stroke-linecap:round;stroke-linejoin:miter;stroke:rgb(0%,0%,0%);stroke-opacity:1;stroke-miterlimit:10;" d="M 0.176002 1.465 L 0.2783 1.470098 " transform="matrix(600,0,0,-600,-19.980001,935)"/>
<path style="fill:none;stroke-width:0.0051;stroke-linecap:round;stroke-linejoin:miter;stroke:rgb(0%,0%,0%);stroke-opacity:1;stroke-miterlimit:10;" d="M 0.2783 1.477598 L 0.176002 1.465 " transform="matrix(600,0,0,-600,-19.980001,935)"/>
<path style="fill:none;stroke-width:0.0051;stroke-linecap:round;stroke-linejoin:miter;stroke:rgb(0%,0%,0%);stroke-opacity:1;stroke-miterlimit:10;" d="M 0.176002 1.465 L 2.313001 1.465 " transform="matrix(600,0,0,-600,-19.980001,935)"/>
<path style="fill:none;stroke-width:0.0051;stroke-linecap:round;stroke-linejoin:miter;stroke:rgb(0%,0%,0%);stroke-opacity:1;stroke-miterlimit:10;" d="M 2.313001 1.465 L 2.210598 1.454798 " transform="matrix(600,0,0,-600,-19.980001,935)"/>
<path style="fill:none;stroke-width:0.0051;stroke-linecap:round;stroke-linejoin:miter;stroke:rgb(0%,0%,0%);stroke-opacity:1;stroke-miterlimit:10;" d="M 2.210598 1.452402 L 2.313001 1.465 " transform="matrix(600,0,0,-600,-19.980001,935)"/>
<path style="fill:none;stroke-width:0.0051;stroke-linecap:round;stroke-linejoin:miter;stroke:rgb(0%,0%,0%);stroke-opacity:1;stroke-miterlimit:10;" d="M 2.313001 1.465 L 2.210598 1.475202 " transform="matrix(600,0,0,-600,-19.980001,935)"/>
<path style="fill:none;stroke-width:0.0051;stroke-linecap:round;stroke-linejoin:miter;stroke:rgb(0%,0%,0%);stroke-opacity:1;stroke-miterlimit:10;" d="M 2.210598 1.477598 L 2.210598 1.452402 " transform="matrix(600,0,0,-600,-19.980001,935)"/>
<path style="fill:none;stroke-width:0.0051;stroke-linecap:round;stroke-linejoin:miter;stroke:rgb(0%,0%,0%);stroke-opacity:1;stroke-miterlimit:10;" d="M 2.210598 1.459902 L 2.313001 1.465 " transform="matrix(600,0,0,-600,-19.980001,935)"/>
<path style="fill:none;stroke-width:0.0051;stroke-linecap:round;stroke-linejoin:miter;stroke:rgb(0%,0%,0%);stroke-opacity:1;stroke-miterlimit:10;" d="M 2.313001 1.465 L 2.210598 1.470098 " transform="matrix(600,0,0,-600,-19.980001,935)"/>
<path style="fill:none;stroke-width:0.0051;stroke-linecap:round;stroke-linejoin:miter;stroke:rgb(0%,0%,0%);stroke-opacity:1;stroke-miterlimit:10;" d="M 2.210598 1.477598 L 2.313001 1.465 " transform="matrix(600,0,0,-600,-19.980001,935)"/>
<path style="fill:none;stroke-width:0.0051;stroke-linecap:round;stroke-linejoin:miter;stroke:rgb(0%,0%,0%);stroke-opacity:1;stroke-miterlimit:10;" d="M 2.313001 1.414603 L 2.313001 1.541797 " transform="matrix(600,0,0,-600,-19.980001,935)"/>
<path style="fill:none;stroke-width:0.011;stroke-linecap:round;stroke-linejoin:miter;stroke:rgb(0%,0%,0%);stroke-opacity:1;stroke-miterlimit:10;" d="M 1.369902 1.542298 L 1.369902 1.5325 " transform="matrix(600,0,0,-600,-19.980001,935)"/>
<path style="fill:none;stroke-width:0.011;stroke-linecap:round;stroke-linejoin:miter;stroke:rgb(0%,0%,0%);stroke-opacity:1;stroke-miterlimit:10;" d="M 1.369902 1.5325 L 1.359999 1.522598 " transform="matrix(600,0,0,-600,-19.980001,935)"/>
<path style="fill:none;stroke-width:0.011;stroke-linecap:round;stroke-linejoin:miter;stroke:rgb(0%,0%,0%);stroke-opacity:1;stroke-miterlimit:10;" d="M 1.359999 1.522598 L 1.340403 1.522598 " transform="matrix(600,0,0,-600,-19.980001,935)"/>
<path style="fill:none;stroke-width:0.011;stroke-linecap:round;stroke-linejoin:miter;stroke:rgb(0%,0%,0%);stroke-opacity:1;stroke-miterlimit:10;" d="M 1.340403 1.522598 L 1.330501 1.5325 " transform="matrix(600,0,0,-600,-19.980001,935)"/>
<path style="fill:none;stroke-width:0.011;stroke-linecap:round;stroke-linejoin:miter;stroke:rgb(0%,0%,0%);stroke-opacity:1;stroke-miterlimit:10;" d="M 1.330501 1.5325 L 1.330501 1.542298 " transform="matrix(600,0,0,-600,-19.980001,935)"/>
<path style="fill:none;stroke-width:0.011;stroke-linecap:round;stroke-linejoin:miter;stroke:rgb(0%,0%,0%);stroke-opacity:1;stroke-miterlimit:10;" d="M 1.330501 1.542298 L 1.340403 1.552201 " transform="matrix(600,0,0,-600,-19.980001,935)"/>
<path style="fill:none;stroke-width:0.011;stroke-linecap:round;stroke-linejoin:miter;stroke:rgb(0%,0%,0%);stroke-opacity:1;stroke-miterlimit:10;" d="M 1.340403 1.552201 L 1.359999 1.552201 " transform="matrix(600,0,0,-600,-19.980001,935)"/>
<path style="fill:none;stroke-width:0.011;stroke-linecap:round;stroke-linejoin:miter;stroke:rgb(0%,0%,0%);stroke-opacity:1;stroke-miterlimit:10;" d="M 1.359999 1.552201 L 1.369902 1.542298 " transform="matrix(600,0,0,-600,-19.980001,935)"/>
<path style="fill:none;stroke-width:0.011;stroke-linecap:round;stroke-linejoin:miter;stroke:rgb(0%,0%,0%);stroke-opacity:1;stroke-miterlimit:10;" d="M 1.359999 1.522598 L 1.369902 1.512799 " transform="matrix(600,0,0,-600,-19.980001,935)"/>
<path style="fill:none;stroke-width:0.011;stroke-linecap:round;stroke-linejoin:miter;stroke:rgb(0%,0%,0%);stroke-opacity:1;stroke-miterlimit:10;" d="M 1.369902 1.512799 L 1.369902 1.503001 " transform="matrix(600,0,0,-600,-19.980001,935)"/>
<path style="fill:none;stroke-width:0.011;stroke-linecap:round;stroke-linejoin:miter;stroke:rgb(0%,0%,0%);stroke-opacity:1;stroke-miterlimit:10;" d="M 1.369902 1.503001 L 1.359999 1.493099 " transform="matrix(600,0,0,-600,-19.980001,935)"/>
<path style="fill:none;stroke-width:0.011;stroke-linecap:round;stroke-linejoin:miter;stroke:rgb(0%,0%,0%);stroke-opacity:1;stroke-miterlimit:10;" d="M 1.359999 1.493099 L 1.340403 1.493099 " transform="matrix(600,0,0,-600,-19.980001,935)"/>
<path style="fill:none;stroke-width:0.011;stroke-linecap:round;stroke-linejoin:miter;stroke:rgb(0%,0%,0%);stroke-opacity:1;stroke-miterlimit:10;" d="M 1.340403 1.493099 L 1.330501 1.503001 " transform="matrix(600,0,0,-600,-19.980001,935)"/>
<path style="fill:none;stroke-width:0.011;stroke-linecap:round;stroke-linejoin:miter;stroke:rgb(0%,0%,0%);stroke-opacity:1;stroke-miterlimit:10;" d="M 1.330501 1.503001 L 1.330501 1.512799 " transform="matrix(600,0,0,-600,-19.980001,935)"/>
<path style="fill:none;stroke-width:0.011;stroke-linecap:round;stroke-linejoin:miter;stroke:rgb(0%,0%,0%);stroke-opacity:1;stroke-miterlimit:10;" d="M 1.330501 1.512799 L 1.340403 1.522598 " transform="matrix(600,0,0,-600,-19.980001,935)"/>
<path style="fill:none;stroke-width:0.011;stroke-linecap:round;stroke-linejoin:miter;stroke:rgb(0%,0%,0%);stroke-opacity:1;stroke-miterlimit:10;" d="M 1.305403 1.5325 L 1.305403 1.542298 " transform="matrix(600,0,0,-600,-19.980001,935)"/>
<path style="fill:none;stroke-width:0.011;stroke-linecap:round;stroke-linejoin:miter;stroke:rgb(0%,0%,0%);stroke-opacity:1;stroke-miterlimit:10;" d="M 1.305403 1.542298 L 1.295598 1.552201 " transform="matrix(600,0,0,-600,-19.980001,935)"/>
<path style="fill:none;stroke-width:0.011;stroke-linecap:round;stroke-linejoin:miter;stroke:rgb(0%,0%,0%);stroke-opacity:1;stroke-miterlimit:10;" d="M 1.295598 1.552201 L 1.275898 1.552201 " transform="matrix(600,0,0,-600,-19.980001,935)"/>
<path style="fill:none;stroke-width:0.011;stroke-linecap:round;stroke-linejoin:miter;stroke:rgb(0%,0%,0%);stroke-opacity:1;stroke-miterlimit:10;" d="M 1.275898 1.552201 L 1.266099 1.542298 " transform="matrix(600,0,0,-600,-19.980001,935)"/>
<path style="fill:none;stroke-width:0.011;stroke-linecap:round;stroke-linejoin:miter;stroke:rgb(0%,0%,0%);stroke-opacity:1;stroke-miterlimit:10;" d="M 1.305403 1.5325 L 1.266099 1.493099 " transform="matrix(600,0,0,-600,-19.980001,935)"/>
<path style="fill:none;stroke-width:0.011;stroke-linecap:round;stroke-linejoin:miter;stroke:rgb(0%,0%,0%);stroke-opacity:1;stroke-miterlimit:10;" d="M 1.266099 1.493099 L 1.305403 1.493099 " transform="matrix(600,0,0,-600,-19.980001,935)"/>
<path style="fill:none;stroke-width:0.011;stroke-linecap:round;stroke-linejoin:miter;stroke:rgb(0%,0%,0%);stroke-opacity:1;stroke-miterlimit:10;" d="M 1.243697 1.493099 L 1.233801 1.493099 " transform="matrix(600,0,0,-600,-19.980001,935)"/>
<path style="fill:none;stroke-width:0.011;stroke-linecap:round;stroke-linejoin:miter;stroke:rgb(0%,0%,0%);stroke-opacity:1;stroke-miterlimit:10;" d="M 1.233801 1.493099 L 1.233801 1.503001 " transform="matrix(600,0,0,-600,-19.980001,935)"/>
<path style="fill:none;stroke-width:0.011;stroke-linecap:round;stroke-linejoin:miter;stroke:rgb(0%,0%,0%);stroke-opacity:1;stroke-miterlimit:10;" d="M 1.233801 1.503001 L 1.243697 1.503001 " transform="matrix(600,0,0,-600,-19.980001,935)"/>
<path style="fill:none;stroke-width:0.011;stroke-linecap:round;stroke-linejoin:miter;stroke:rgb(0%,0%,0%);stroke-opacity:1;stroke-miterlimit:10;" d="M 1.243697 1.503001 L 1.243697 1.493099 " transform="matrix(600,0,0,-600,-19.980001,935)"/>
<path style="fill:none;stroke-width:0.011;stroke-linecap:round;stroke-linejoin:miter;stroke:rgb(0%,0%,0%);stroke-opacity:1;stroke-miterlimit:10;" d="M 1.198899 1.493099 L 1.198899 1.552201 " transform="matrix(600,0,0,-600,-19.980001,935)"/>
<path style="fill:none;stroke-width:0.011;stroke-linecap:round;stroke-linejoin:miter;stroke:rgb(0%,0%,0%);stroke-opacity:1;stroke-miterlimit:10;" d="M 1.198899 1.552201 L 1.1694 1.522598 " transform="matrix(600,0,0,-600,-19.980001,935)"/>
<path style="fill:none;stroke-width:0.011;stroke-linecap:round;stroke-linejoin:miter;stroke:rgb(0%,0%,0%);stroke-opacity:1;stroke-miterlimit:10;" d="M 1.1694 1.522598 L 1.208801 1.522598 " transform="matrix(600,0,0,-600,-19.980001,935)"/>
<path style="fill:none;stroke-width:0.011;stroke-linecap:round;stroke-linejoin:miter;stroke:rgb(0%,0%,0%);stroke-opacity:1;stroke-miterlimit:10;" d="M 1.144303 1.522598 L 1.144303 1.503001 " transform="matrix(600,0,0,-600,-19.980001,935)"/>
<path style="fill:none;stroke-width:0.011;stroke-linecap:round;stroke-linejoin:miter;stroke:rgb(0%,0%,0%);stroke-opacity:1;stroke-miterlimit:10;" d="M 1.144303 1.503001 L 1.134498 1.493099 " transform="matrix(600,0,0,-600,-19.980001,935)"/>
<path style="fill:none;stroke-width:0.011;stroke-linecap:round;stroke-linejoin:miter;stroke:rgb(0%,0%,0%);stroke-opacity:1;stroke-miterlimit:10;" d="M 1.134498 1.493099 L 1.114797 1.493099 " transform="matrix(600,0,0,-600,-19.980001,935)"/>
<path style="fill:none;stroke-width:0.011;stroke-linecap:round;stroke-linejoin:miter;stroke:rgb(0%,0%,0%);stroke-opacity:1;stroke-miterlimit:10;" d="M 1.114797 1.493099 L 1.104902 1.503001 " transform="matrix(600,0,0,-600,-19.980001,935)"/>
<path style="fill:none;stroke-width:0.011;stroke-linecap:round;stroke-linejoin:miter;stroke:rgb(0%,0%,0%);stroke-opacity:1;stroke-miterlimit:10;" d="M 1.104902 1.522598 L 1.124602 1.5325 " transform="matrix(600,0,0,-600,-19.980001,935)"/>
<path style="fill:none;stroke-width:0.011;stroke-linecap:round;stroke-linejoin:miter;stroke:rgb(0%,0%,0%);stroke-opacity:1;stroke-miterlimit:10;" d="M 1.124602 1.5325 L 1.134498 1.5325 " transform="matrix(600,0,0,-600,-19.980001,935)"/>
<path style="fill:none;stroke-width:0.011;stroke-linecap:round;stroke-linejoin:miter;stroke:rgb(0%,0%,0%);stroke-opacity:1;stroke-miterlimit:10;" d="M 1.134498 1.5325 L 1.144303 1.522598 " transform="matrix(600,0,0,-600,-19.980001,935)"/>
<path style="fill:none;stroke-width:0.011;stroke-linecap:round;stroke-linejoin:miter;stroke:rgb(0%,0%,0%);stroke-opacity:1;stroke-miterlimit:10;" d="M 1.104902 1.522598 L 1.104902 1.552201 " transform="matrix(600,0,0,-600,-19.980001,935)"/>
<path style="fill:none;stroke-width:0.011;stroke-linecap:round;stroke-linejoin:miter;stroke:rgb(0%,0%,0%);stroke-opacity:1;stroke-miterlimit:10;" d="M 1.104902 1.552201 L 1.144303 1.552201 " transform="matrix(600,0,0,-600,-19.980001,935)"/>
<path style="fill:none;stroke-width:0.011;stroke-linecap:round;stroke-linejoin:miter;stroke:rgb(0%,0%,0%);stroke-opacity:1;stroke-miterlimit:10;" d="M 0.0977987 0.830599 L 0.0880005 0.840397 " transform="matrix(600,0,0,-600,-19.980001,935)"/>
<path style="fill:none;stroke-width:0.011;stroke-linecap:round;stroke-linejoin:miter;stroke:rgb(0%,0%,0%);stroke-opacity:1;stroke-miterlimit:10;" d="M 0.0880005 0.840397 L 0.0780982 0.840397 " transform="matrix(600,0,0,-600,-19.980001,935)"/>
<path style="fill:none;stroke-width:0.011;stroke-linecap:round;stroke-linejoin:miter;stroke:rgb(0%,0%,0%);stroke-opacity:1;stroke-miterlimit:10;" d="M 0.0780982 0.840397 L 0.0683 0.830599 " transform="matrix(600,0,0,-600,-19.980001,935)"/>
<path style="fill:none;stroke-width:0.011;stroke-linecap:round;stroke-linejoin:miter;stroke:rgb(0%,0%,0%);stroke-opacity:1;stroke-miterlimit:10;" d="M 0.0683 0.830599 L 0.0683 0.8011 " transform="matrix(600,0,0,-600,-19.980001,935)"/>
<path style="fill:none;stroke-width:0.011;stroke-linecap:round;stroke-linejoin:miter;stroke:rgb(0%,0%,0%);stroke-opacity:1;stroke-miterlimit:10;" d="M 0.0683 0.8011 L 0.0880005 0.8011 " transform="matrix(600,0,0,-600,-19.980001,935)"/>
<path style="fill:none;stroke-width:0.011;stroke-linecap:round;stroke-linejoin:miter;stroke:rgb(0%,0%,0%);stroke-opacity:1;stroke-miterlimit:10;" d="M 0.0880005 0.8011 L 0.0977987 0.810898 " transform="matrix(600,0,0,-600,-19.980001,935)"/>
<path style="fill:none;stroke-width:0.011;stroke-linecap:round;stroke-linejoin:miter;stroke:rgb(0%,0%,0%);stroke-opacity:1;stroke-miterlimit:10;" d="M 0.0977987 0.810898 L 0.0977987 0.830599 " transform="matrix(600,0,0,-600,-19.980001,935)"/>
<path style="fill:none;stroke-width:0.011;stroke-linecap:round;stroke-linejoin:miter;stroke:rgb(0%,0%,0%);stroke-opacity:1;stroke-miterlimit:10;" d="M 0.0683 0.8011 L 0.0485995 0.820801 " transform="matrix(600,0,0,-600,-19.980001,935)"/>
<path style="fill:none;stroke-width:0.011;stroke-linecap:round;stroke-linejoin:miter;stroke:rgb(0%,0%,0%);stroke-opacity:1;stroke-miterlimit:10;" d="M 0.0485995 0.820801 L 0.0388013 0.840397 " transform="matrix(600,0,0,-600,-19.980001,935)"/>
<path style="fill:none;stroke-width:0.011;stroke-linecap:round;stroke-linejoin:miter;stroke:rgb(0%,0%,0%);stroke-opacity:1;stroke-miterlimit:10;" d="M 0.0388013 0.776003 L 0.0388013 0.736602 " transform="matrix(600,0,0,-600,-19.980001,935)"/>
<path style="fill:none;stroke-width:0.011;stroke-linecap:round;stroke-linejoin:miter;stroke:rgb(0%,0%,0%);stroke-opacity:1;stroke-miterlimit:10;" d="M 0.0388013 0.736602 L 0.0683 0.736602 " transform="matrix(600,0,0,-600,-19.980001,935)"/>
<path style="fill:none;stroke-width:0.011;stroke-linecap:round;stroke-linejoin:miter;stroke:rgb(0%,0%,0%);stroke-opacity:1;stroke-miterlimit:10;" d="M 0.0683 0.736602 L 0.0585018 0.756302 " transform="matrix(600,0,0,-600,-19.980001,935)"/>
<path style="fill:none;stroke-width:0.011;stroke-linecap:round;stroke-linejoin:miter;stroke:rgb(0%,0%,0%);stroke-opacity:1;stroke-miterlimit:10;" d="M 0.0585018 0.756302 L 0.0585018 0.7661 " transform="matrix(600,0,0,-600,-19.980001,935)"/>
<path style="fill:none;stroke-width:0.011;stroke-linecap:round;stroke-linejoin:miter;stroke:rgb(0%,0%,0%);stroke-opacity:1;stroke-miterlimit:10;" d="M 0.0585018 0.7661 L 0.0683 0.776003 " transform="matrix(600,0,0,-600,-19.980001,935)"/>
<path style="fill:none;stroke-width:0.011;stroke-linecap:round;stroke-linejoin:miter;stroke:rgb(0%,0%,0%);stroke-opacity:1;stroke-miterlimit:10;" d="M 0.0683 0.776003 L 0.0880005 0.776003 " transform="matrix(600,0,0,-600,-19.980001,935)"/>
<path style="fill:none;stroke-width:0.011;stroke-linecap:round;stroke-linejoin:miter;stroke:rgb(0%,0%,0%);stroke-opacity:1;stroke-miterlimit:10;" d="M 0.0880005 0.776003 L 0.0977987 0.7661 " transform="matrix(600,0,0,-600,-19.980001,935)"/>
<path style="fill:none;stroke-width:0.011;stroke-linecap:round;stroke-linejoin:miter;stroke:rgb(0%,0%,0%);stroke-opacity:1;stroke-miterlimit:10;" d="M 0.0977987 0.7661 L 0.0977987 0.746497 " transform="matrix(600,0,0,-600,-19.980001,935)"/>
<path style="fill:none;stroke-width:0.011;stroke-linecap:round;stroke-linejoin:miter;stroke:rgb(0%,0%,0%);stroke-opacity:1;stroke-miterlimit:10;" d="M 0.0977987 0.746497 L 0.0880005 0.736602 " transform="matrix(600,0,0,-600,-19.980001,935)"/>
<path style="fill:none;stroke-width:0.011;stroke-linecap:round;stroke-linejoin:miter;stroke:rgb(0%,0%,0%);stroke-opacity:1;stroke-miterlimit:10;" d="M 0.0880005 0.714199 L 0.0977987 0.714199 " transform="matrix(600,0,0,-600,-19.980001,935)"/>
<path style="fill:none;stroke-width:0.011;stroke-linecap:round;stroke-linejoin:miter;stroke:rgb(0%,0%,0%);stroke-opacity:1;stroke-miterlimit:10;" d="M 0.0977987 0.714199 L 0.0977987 0.704401 " transform="matrix(600,0,0,-600,-19.980001,935)"/>
<path style="fill:none;stroke-width:0.011;stroke-linecap:round;stroke-linejoin:miter;stroke:rgb(0%,0%,0%);stroke-opacity:1;stroke-miterlimit:10;" d="M 0.0977987 0.704401 L 0.0880005 0.704401 " transform="matrix(600,0,0,-600,-19.980001,935)"/>
<path style="fill:none;stroke-width:0.011;stroke-linecap:round;stroke-linejoin:miter;stroke:rgb(0%,0%,0%);stroke-opacity:1;stroke-miterlimit:10;" d="M 0.0880005 0.704401 L 0.0880005 0.714199 " transform="matrix(600,0,0,-600,-19.980001,935)"/>
<path style="fill:none;stroke-width:0.011;stroke-linecap:round;stroke-linejoin:miter;stroke:rgb(0%,0%,0%);stroke-opacity:1;stroke-miterlimit:10;" d="M 0.0880005 0.679297 L 0.0683 0.679297 " transform="matrix(600,0,0,-600,-19.980001,935)"/>
<path style="fill:none;stroke-width:0.011;stroke-linecap:round;stroke-linejoin:miter;stroke:rgb(0%,0%,0%);stroke-opacity:1;stroke-miterlimit:10;" d="M 0.0683 0.679297 L 0.0585018 0.669499 " transform="matrix(600,0,0,-600,-19.980001,935)"/>
<path style="fill:none;stroke-width:0.011;stroke-linecap:round;stroke-linejoin:miter;stroke:rgb(0%,0%,0%);stroke-opacity:1;stroke-miterlimit:10;" d="M 0.0585018 0.669499 L 0.0585018 0.659603 " transform="matrix(600,0,0,-600,-19.980001,935)"/>
<path style="fill:none;stroke-width:0.011;stroke-linecap:round;stroke-linejoin:miter;stroke:rgb(0%,0%,0%);stroke-opacity:1;stroke-miterlimit:10;" d="M 0.0585018 0.659603 L 0.0683 0.639902 " transform="matrix(600,0,0,-600,-19.980001,935)"/>
<path style="fill:none;stroke-width:0.011;stroke-linecap:round;stroke-linejoin:miter;stroke:rgb(0%,0%,0%);stroke-opacity:1;stroke-miterlimit:10;" d="M 0.0683 0.639902 L 0.0388013 0.639902 " transform="matrix(600,0,0,-600,-19.980001,935)"/>
<path style="fill:none;stroke-width:0.011;stroke-linecap:round;stroke-linejoin:miter;stroke:rgb(0%,0%,0%);stroke-opacity:1;stroke-miterlimit:10;" d="M 0.0388013 0.639902 L 0.0388013 0.679297 " transform="matrix(600,0,0,-600,-19.980001,935)"/>
<path style="fill:none;stroke-width:0.011;stroke-linecap:round;stroke-linejoin:miter;stroke:rgb(0%,0%,0%);stroke-opacity:1;stroke-miterlimit:10;" d="M 0.0880005 0.679297 L 0.0977987 0.669499 " transform="matrix(600,0,0,-600,-19.980001,935)"/>
<path style="fill:none;stroke-width:0.011;stroke-linecap:round;stroke-linejoin:miter;stroke:rgb(0%,0%,0%);stroke-opacity:1;stroke-miterlimit:10;" d="M 0.0977987 0.669499 L 0.0977987 0.649798 " transform="matrix(600,0,0,-600,-19.980001,935)"/>
<path style="fill:none;stroke-width:0.011;stroke-linecap:round;stroke-linejoin:miter;stroke:rgb(0%,0%,0%);stroke-opacity:1;stroke-miterlimit:10;" d="M 0.0977987 0.649798 L 0.0880005 0.639902 " transform="matrix(600,0,0,-600,-19.980001,935)"/>
<path style="fill:none;stroke-width:0.011;stroke-linecap:round;stroke-linejoin:miter;stroke:rgb(0%,0%,0%);stroke-opacity:1;stroke-miterlimit:10;" d="M 0.0880005 0.614798 L 0.0977987 0.605 " transform="matrix(600,0,0,-600,-19.980001,935)"/>
<path style="fill:none;stroke-width:0.011;stroke-linecap:round;stroke-linejoin:miter;stroke:rgb(0%,0%,0%);stroke-opacity:1;stroke-miterlimit:10;" d="M 0.0977987 0.605 L 0.0977987 0.585299 " transform="matrix(600,0,0,-600,-19.980001,935)"/>
<path style="fill:none;stroke-width:0.011;stroke-linecap:round;stroke-linejoin:miter;stroke:rgb(0%,0%,0%);stroke-opacity:1;stroke-miterlimit:10;" d="M 0.0977987 0.585299 L 0.0880005 0.575501 " transform="matrix(600,0,0,-600,-19.980001,935)"/>
<path style="fill:none;stroke-width:0.011;stroke-linecap:round;stroke-linejoin:miter;stroke:rgb(0%,0%,0%);stroke-opacity:1;stroke-miterlimit:10;" d="M 0.0683 0.595202 L 0.0683 0.605 " transform="matrix(600,0,0,-600,-19.980001,935)"/>
<path style="fill:none;stroke-width:0.011;stroke-linecap:round;stroke-linejoin:miter;stroke:rgb(0%,0%,0%);stroke-opacity:1;stroke-miterlimit:10;" d="M 0.0683 0.605 L 0.0780982 0.614798 " transform="matrix(600,0,0,-600,-19.980001,935)"/>
<path style="fill:none;stroke-width:0.011;stroke-linecap:round;stroke-linejoin:miter;stroke:rgb(0%,0%,0%);stroke-opacity:1;stroke-miterlimit:10;" d="M 0.0780982 0.614798 L 0.0880005 0.614798 " transform="matrix(600,0,0,-600,-19.980001,935)"/>
<path style="fill:none;stroke-width:0.011;stroke-linecap:round;stroke-linejoin:miter;stroke:rgb(0%,0%,0%);stroke-opacity:1;stroke-miterlimit:10;" d="M 0.0683 0.605 L 0.0585018 0.614798 " transform="matrix(600,0,0,-600,-19.980001,935)"/>
<path style="fill:none;stroke-width:0.011;stroke-linecap:round;stroke-linejoin:miter;stroke:rgb(0%,0%,0%);stroke-opacity:1;stroke-miterlimit:10;" d="M 0.0585018 0.614798 L 0.0485995 0.614798 " transform="matrix(600,0,0,-600,-19.980001,935)"/>
<path style="fill:none;stroke-width:0.011;stroke-linecap:round;stroke-linejoin:miter;stroke:rgb(0%,0%,0%);stroke-opacity:1;stroke-miterlimit:10;" d="M 0.0485995 0.614798 L 0.0388013 0.605 " transform="matrix(600,0,0,-600,-19.980001,935)"/>
<path style="fill:none;stroke-width:0.011;stroke-linecap:round;stroke-linejoin:miter;stroke:rgb(0%,0%,0%);stroke-opacity:1;stroke-miterlimit:10;" d="M 0.0388013 0.605 L 0.0388013 0.585299 " transform="matrix(600,0,0,-600,-19.980001,935)"/>
<path style="fill:none;stroke-width:0.011;stroke-linecap:round;stroke-linejoin:miter;stroke:rgb(0%,0%,0%);stroke-opacity:1;stroke-miterlimit:10;" d="M 0.0388013 0.585299 L 0.0485995 0.575501 " transform="matrix(600,0,0,-600,-19.980001,935)"/>
<path style="fill:none;stroke-width:0.052;stroke-linecap:round;stroke-linejoin:miter;stroke:rgb(0%,0%,0%);stroke-opacity:1;stroke-miterlimit:10;" d="M 1.049999 0.115 L 1.101998 0.115 " transform="matrix(600,0,0,-600,-19.980001,935)"/>
<path style="fill:none;stroke-width:0.052;stroke-linecap:round;stroke-linejoin:miter;stroke:rgb(0%,0%,0%);stroke-opacity:1;stroke-miterlimit:10;" d="M 1.101998 0.215 L 1.049999 0.215 " transform="matrix(600,0,0,-600,-19.980001,935)"/>
<path style="fill:none;stroke-width:0.052;stroke-linecap:round;stroke-linejoin:miter;stroke:rgb(0%,0%,0%);stroke-opacity:1;stroke-miterlimit:10;" d="M 1.049999 0.315 L 1.101998 0.315 " transform="matrix(600,0,0,-600,-19.980001,935)"/>
<path style="fill:none;stroke-width:0.052;stroke-linecap:round;stroke-linejoin:miter;stroke:rgb(0%,0%,0%);stroke-opacity:1;stroke-miterlimit:10;" d="M 1.101998 0.765 L 1.049999 0.765 " transform="matrix(600,0,0,-600,-19.980001,935)"/>
<path style="fill:none;stroke-width:0.052;stroke-linecap:round;stroke-linejoin:miter;stroke:rgb(0%,0%,0%);stroke-opacity:1;stroke-miterlimit:10;" d="M 1.049999 0.865 L 1.101998 0.865 " transform="matrix(600,0,0,-600,-19.980001,935)"/>
<path style="fill:none;stroke-width:0.052;stroke-linecap:round;stroke-linejoin:miter;stroke:rgb(0%,0%,0%);stroke-opacity:1;stroke-miterlimit:10;" d="M 1.101998 0.965 L 1.049999 0.965 " transform="matrix(600,0,0,-600,-19.980001,935)"/>
<path style=" stroke:none;fill-rule:evenodd;fill:rgb(0%,0%,0%);fill-opacity:1;" d="M 944.519531 408.171875 L 933.449219 397.101562 L 917.792969 397.101562 L 906.71875 408.171875 L 906.71875 423.828125 L 917.792969 434.898438 L 933.449219 434.898438 L 944.519531 423.828125 L 944.519531 408.171875 "/>
<path style=" stroke:none;fill-rule:evenodd;fill:rgb(0%,0%,0%);fill-opacity:1;" d="M 1196.519531 378.171875 L 1185.449219 367.101562 L 1169.792969 367.101562 L 1158.71875 378.171875 L 1158.71875 393.828125 L 1169.792969 404.898438 L 1185.449219 404.898438 L 1196.519531 393.828125 L 1196.519531 378.171875 "/>
<path style=" stroke:none;fill-rule:evenodd;fill:rgb(0%,0%,0%);fill-opacity:1;" d="M 944.519531 828.171875 L 933.449219 817.101562 L 917.792969 817.101562 L 906.71875 828.171875 L 906.71875 843.828125 L 917.792969 854.898438 L 933.449219 854.898438 L 944.519531 843.828125 L 944.519531 828.171875 "/>
<path style=" stroke:none;fill-rule:evenodd;fill:rgb(0%,0%,0%);fill-opacity:1;" d="M 344.519531 798.171875 L 333.449219 787.101562 L 317.792969 787.101562 L 306.71875 798.171875 L 306.71875 813.828125 L 317.792969 824.898438 L 333.449219 824.898438 L 344.519531 813.828125 L 344.519531 798.171875 "/>
<path style=" stroke:none;fill-rule:evenodd;fill:rgb(0%,0%,0%);fill-opacity:1;" d="M 284.519531 348.171875 L 273.449219 337.101562 L 257.792969 337.101562 L 246.71875 348.171875 L 246.71875 363.828125 L 257.792969 374.898438 L 273.449219 374.898438 L 284.519531 363.828125 L 284.519531 348.171875 "/>
<path style=" stroke:none;fill-rule:evenodd;fill:rgb(0%,0%,0%);fill-opacity:1;" d="M 344.519531 356 C 344.519531 330.800781 306.71875 330.800781 306.71875 356 C 306.71875 381.199219 344.519531 381.199219 344.519531 356 "/>
<path style=" stroke:none;fill-rule:evenodd;fill:rgb(0%,0%,0%);fill-opacity:1;" d="M 884.519531 416 C 884.519531 390.800781 846.71875 390.800781 846.71875 416 C 846.71875 441.199219 884.519531 441.199219 884.519531 416 "/>
<path style=" stroke:none;fill-rule:evenodd;fill:rgb(0%,0%,0%);fill-opacity:1;" d="M 1112.519531 386 C 1112.519531 360.800781 1074.71875 360.800781 1074.71875 386 C 1074.71875 411.199219 1112.519531 411.199219 1112.519531 386 "/>
<path style=" stroke:none;fill-rule:evenodd;fill:rgb(0%,0%,0%);fill-opacity:1;" d="M 884.519531 836 C 884.519531 810.800781 846.71875 810.800781 846.71875 836 C 846.71875 861.199219 884.519531 861.199219 884.519531 836 "/>
<path style=" stroke:none;fill-rule:evenodd;fill:rgb(0%,0%,0%);fill-opacity:1;" d="M 404.519531 806 C 404.519531 780.800781 366.71875 780.800781 366.71875 806 C 366.71875 831.199219 404.519531 831.199219 404.519531 806 "/>
<path style=" stroke:none;fill-rule:evenodd;fill:rgb(0%,0%,0%);fill-opacity:1;" d="M 461.21875 709.539062 L 452.082031 700.398438 L 439.160156 700.398438 L 430.019531 709.539062 L 430.019531 722.460938 L 439.160156 731.601562 L 452.082031 731.601562 L 461.21875 722.460938 L 461.21875 709.539062 "/>
<path style=" stroke:none;fill-rule:evenodd;fill:rgb(0%,0%,0%);fill-opacity:1;" d="M 551.21875 709.539062 L 542.082031 700.398438 L 529.160156 700.398438 L 520.019531 709.539062 L 520.019531 722.460938 L 529.160156 731.601562 L 542.082031 731.601562 L 551.21875 722.460938 L 551.21875 709.539062 "/>
<path style=" stroke:none;fill-rule:evenodd;fill:rgb(0%,0%,0%);fill-opacity:1;" d="M 761.21875 679.539062 L 752.082031 670.398438 L 739.160156 670.398438 L 730.019531 679.539062 L 730.019531 692.460938 L 739.160156 701.601562 L 752.082031 701.601562 L 761.21875 692.460938 L 761.21875 679.539062 "/>
<path style=" stroke:none;fill-rule:evenodd;fill:rgb(0%,0%,0%);fill-opacity:1;" d="M 761.21875 589.539062 L 752.082031 580.398438 L 739.160156 580.398438 L 730.019531 589.539062 L 730.019531 602.460938 L 739.160156 611.601562 L 752.082031 611.601562 L 761.21875 602.460938 L 761.21875 589.539062 "/>
<path style=" stroke:none;fill-rule:evenodd;fill:rgb(0%,0%,0%);fill-opacity:1;" d="M 941.21875 559.539062 L 932.082031 550.398438 L 919.160156 550.398438 L 910.019531 559.539062 L 910.019531 572.460938 L 919.160156 581.601562 L 932.082031 581.601562 L 941.21875 572.460938 L 941.21875 559.539062 "/>
<path style=" stroke:none;fill-rule:evenodd;fill:rgb(0%,0%,0%);fill-opacity:1;" d="M 1061.21875 649.539062 L 1052.082031 640.398438 L 1039.160156 640.398438 L 1030.019531 649.539062 L 1030.019531 662.460938 L 1039.160156 671.601562 L 1052.082031 671.601562 L 1061.21875 662.460938 L 1061.21875 649.539062 "/>
<path style=" stroke:none;fill-rule:evenodd;fill:rgb(0%,0%,0%);fill-opacity:1;" d="M 1121.21875 559.539062 L 1112.082031 550.398438 L 1099.160156 550.398438 L 1090.019531 559.539062 L 1090.019531 572.460938 L 1099.160156 581.601562 L 1112.082031 581.601562 L 1121.21875 572.460938 L 1121.21875 559.539062 "/>
<path style=" stroke:none;fill-rule:evenodd;fill:rgb(0%,0%,0%);fill-opacity:1;" d="M 761.21875 409.539062 L 752.082031 400.398438 L 739.160156 400.398438 L 730.019531 409.539062 L 730.019531 422.460938 L 739.160156 431.601562 L 752.082031 431.601562 L 761.21875 422.460938 L 761.21875 409.539062 "/>
<path style=" stroke:none;fill-rule:evenodd;fill:rgb(0%,0%,0%);fill-opacity:1;" d="M 551.21875 529.539062 L 542.082031 520.398438 L 529.160156 520.398438 L 520.019531 529.539062 L 520.019531 542.460938 L 529.160156 551.601562 L 542.082031 551.601562 L 551.21875 542.460938 L 551.21875 529.539062 "/>
<path style=" stroke:none;fill-rule:evenodd;fill:rgb(0%,0%,0%);fill-opacity:1;" d="M 461.21875 529.539062 L 452.082031 520.398438 L 439.160156 520.398438 L 430.019531 529.539062 L 430.019531 542.460938 L 439.160156 551.601562 L 452.082031 551.601562 L 461.21875 542.460938 L 461.21875 529.539062 "/>
<path style=" stroke:none;fill-rule:evenodd;fill:rgb(0%,0%,0%);fill-opacity:1;" d="M 461.21875 349.539062 L 452.082031 340.398438 L 439.160156 340.398438 L 430.019531 349.539062 L 430.019531 362.460938 L 439.160156 371.601562 L 452.082031 371.601562 L 461.21875 362.460938 L 461.21875 349.539062 "/>
<path style=" stroke:none;fill-rule:evenodd;fill:rgb(0%,0%,0%);fill-opacity:1;" d="M 401.21875 349.539062 L 392.082031 340.398438 L 379.160156 340.398438 L 370.019531 349.539062 L 370.019531 362.460938 L 379.160156 371.601562 L 392.082031 371.601562 L 401.21875 362.460938 L 401.21875 349.539062 "/>
<path style=" stroke:none;fill-rule:evenodd;fill:rgb(0%,0%,0%);fill-opacity:1;" d="M 401.21875 169.539062 L 392.082031 160.398438 L 379.160156 160.398438 L 370.019531 169.539062 L 370.019531 182.460938 L 379.160156 191.601562 L 392.082031 191.601562 L 401.21875 182.460938 L 401.21875 169.539062 "/>
<path style=" stroke:none;fill-rule:evenodd;fill:rgb(0%,0%,0%);fill-opacity:1;" d="M 461.21875 169.539062 L 452.082031 160.398438 L 439.160156 160.398438 L 430.019531 169.539062 L 430.019531 182.460938 L 439.160156 191.601562 L 452.082031 191.601562 L 461.21875 182.460938 L 461.21875 169.539062 "/>
<path style=" stroke:none;fill-rule:evenodd;fill:rgb(0%,0%,0%);fill-opacity:1;" d="M 611.21875 169.539062 L 602.082031 160.398438 L 589.160156 160.398438 L 580.019531 169.539062 L 580.019531 182.460938 L 589.160156 191.601562 L 602.082031 191.601562 L 611.21875 182.460938 L 611.21875 169.539062 "/>
<path style=" stroke:none;fill-rule:evenodd;fill:rgb(0%,0%,0%);fill-opacity:1;" d="M 791.21875 169.539062 L 782.082031 160.398438 L 769.160156 160.398438 L 760.019531 169.539062 L 760.019531 182.460938 L 769.160156 191.601562 L 782.082031 191.601562 L 791.21875 182.460938 L 791.21875 169.539062 "/>
<path style=" stroke:none;fill-rule:evenodd;fill:rgb(0%,0%,0%);fill-opacity:1;" d="M 1061.21875 229.539062 L 1052.082031 220.398438 L 1039.160156 220.398438 L 1030.019531 229.539062 L 1030.019531 242.460938 L 1039.160156 251.601562 L 1052.082031 251.601562 L 1061.21875 242.460938 L 1061.21875 229.539062 "/>
<path style=" stroke:none;fill-rule:evenodd;fill:rgb(0%,0%,0%);fill-opacity:1;" d="M 1181.21875 229.539062 L 1172.082031 220.398438 L 1159.160156 220.398438 L 1150.019531 229.539062 L 1150.019531 242.460938 L 1159.160156 251.601562 L 1172.082031 251.601562 L 1181.21875 242.460938 L 1181.21875 229.539062 "/>
<path style=" stroke:none;fill-rule:evenodd;fill:rgb(0%,0%,0%);fill-opacity:1;" d="M 1061.21875 829.539062 L 1052.082031 820.398438 L 1039.160156 820.398438 L 1030.019531 829.539062 L 1030.019531 842.460938 L 1039.160156 851.601562 L 1052.082031 851.601562 L 1061.21875 842.460938 L 1061.21875 829.539062 "/>
<path style=" stroke:none;fill-rule:evenodd;fill:rgb(0%,0%,0%);fill-opacity:1;" d="M 761.21875 859.539062 L 752.082031 850.398438 L 739.160156 850.398438 L 730.019531 859.539062 L 730.019531 872.460938 L 739.160156 881.601562 L 752.082031 881.601562 L 761.21875 872.460938 L 761.21875 859.539062 "/>
<path style="fill:none;stroke-width:0.06;stroke-linecap:round;stroke-linejoin:miter;stroke:rgb(0%,0%,0%);stroke-opacity:1;stroke-miterlimit:10;" d="M 1.996002 0.365 L 2.056002 0.365 " transform="matrix(600,0,0,-600,-19.980001,935)"/>
<path style="fill:none;stroke-width:0.06;stroke-linecap:round;stroke-linejoin:miter;stroke:rgb(0%,0%,0%);stroke-opacity:1;stroke-miterlimit:10;" d="M 2.056002 0.465 L 1.996002 0.465 " transform="matrix(600,0,0,-600,-19.980001,935)"/>
<path style="fill:none;stroke-width:0.06;stroke-linecap:round;stroke-linejoin:miter;stroke:rgb(0%,0%,0%);stroke-opacity:1;stroke-miterlimit:10;" d="M 1.576002 1.235 L 1.576002 1.295 " transform="matrix(600,0,0,-600,-19.980001,935)"/>
<path style="fill:none;stroke-width:0.06;stroke-linecap:round;stroke-linejoin:miter;stroke:rgb(0%,0%,0%);stroke-opacity:1;stroke-miterlimit:10;" d="M 1.476002 1.295 L 1.476002 1.235 " transform="matrix(600,0,0,-600,-19.980001,935)"/>
<path style="fill:none;stroke-width:0.06;stroke-linecap:round;stroke-linejoin:miter;stroke:rgb(0%,0%,0%);stroke-opacity:1;stroke-miterlimit:10;" d="M 0.506002 0.665 L 0.446002 0.665 " transform="matrix(600,0,0,-600,-19.980001,935)"/>
<path style="fill:none;stroke-width:0.06;stroke-linecap:round;stroke-linejoin:miter;stroke:rgb(0%,0%,0%);stroke-opacity:1;stroke-miterlimit:10;" d="M 0.446002 0.565 L 0.506002 0.565 " transform="matrix(600,0,0,-600,-19.980001,935)"/>
<path style="fill:none;stroke-width:0.06;stroke-linecap:round;stroke-linejoin:miter;stroke:rgb(0%,0%,0%);stroke-opacity:1;stroke-miterlimit:10;" d="M 0.506002 0.465 L 0.446002 0.465 " transform="matrix(600,0,0,-600,-19.980001,935)"/>
<path style=" stroke:none;fill-rule:evenodd;fill:rgb(0%,0%,0%);fill-opacity:1;" d="M 238.621094 836 C 238.621094 801.207031 210.414062 773 175.621094 773 C 140.824219 773 112.621094 801.207031 112.621094 836 C 112.621094 870.792969 140.824219 899 175.621094 899 C 210.414062 899 238.621094 870.792969 238.621094 836 "/>
<path style=" stroke:none;fill-rule:evenodd;fill:rgb(0%,0%,0%);fill-opacity:1;" d="M 238.621094 176 C 238.621094 141.207031 210.414062 113 175.621094 113 C 140.824219 113 112.621094 141.207031 112.621094 176 C 112.621094 210.792969 140.824219 239 175.621094 239 C 210.414062 239 238.621094 210.792969 238.621094 176 "/>
<path style=" stroke:none;fill-rule:evenodd;fill:rgb(0%,0%,0%);fill-opacity:1;" d="M 1348.621094 176 C 1348.621094 141.207031 1320.414062 113 1285.621094 113 C 1250.824219 113 1222.621094 141.207031 1222.621094 176 C 1222.621094 210.792969 1250.824219 239 1285.621094 239 C 1320.414062 239 1348.621094 210.792969 1348.621094 176 "/>
<path style=" stroke:none;fill-rule:evenodd;fill:rgb(0%,0%,0%);fill-opacity:1;" d="M 1348.621094 836 C 1348.621094 801.207031 1320.414062 773 1285.621094 773 C 1250.824219 773 1222.621094 801.207031 1222.621094 836 C 1222.621094 870.792969 1250.824219 899 1285.621094 899 C 1320.414062 899 1348.621094 870.792969 1348.621094 836 "/>
<path style="fill:none;stroke-width:0.032;stroke-linecap:round;stroke-linejoin:miter;stroke:rgb(0%,0%,0%);stroke-opacity:1;stroke-miterlimit:10;" d="M 2.026002 0.365 L 1.876002 0.365 " transform="matrix(600,0,0,-600,-19.980001,935)"/>
<path style="fill:none;stroke-width:0.032;stroke-linecap:round;stroke-linejoin:miter;stroke:rgb(0%,0%,0%);stroke-opacity:1;stroke-miterlimit:10;" d="M 1.876002 0.365 L 1.876002 0.515 " transform="matrix(600,0,0,-600,-19.980001,935)"/>
<path style="fill:none;stroke-width:0.032;stroke-linecap:round;stroke-linejoin:miter;stroke:rgb(0%,0%,0%);stroke-opacity:1;stroke-miterlimit:10;" d="M 1.876002 0.515 L 1.876002 0.615 " transform="matrix(600,0,0,-600,-19.980001,935)"/>
<path style="fill:none;stroke-width:0.032;stroke-linecap:round;stroke-linejoin:miter;stroke:rgb(0%,0%,0%);stroke-opacity:1;stroke-miterlimit:10;" d="M 1.876002 0.515 L 1.826002 0.465 " transform="matrix(600,0,0,-600,-19.980001,935)"/>
<path style="fill:none;stroke-width:0.032;stroke-linecap:round;stroke-linejoin:miter;stroke:rgb(0%,0%,0%);stroke-opacity:1;stroke-miterlimit:10;" d="M 1.826002 0.465 L 1.776002 0.465 " transform="matrix(600,0,0,-600,-19.980001,935)"/>
<path style="fill:none;stroke-width:0.032;stroke-linecap:round;stroke-linejoin:miter;stroke:rgb(0%,0%,0%);stroke-opacity:1;stroke-miterlimit:10;" d="M 1.676002 0.515 L 1.726002 0.565 " transform="matrix(600,0,0,-600,-19.980001,935)"/>
<path style="fill:none;stroke-width:0.032;stroke-linecap:round;stroke-linejoin:miter;stroke:rgb(0%,0%,0%);stroke-opacity:1;stroke-miterlimit:10;" d="M 1.726002 0.565 L 1.726002 0.715 " transform="matrix(600,0,0,-600,-19.980001,935)"/>
<path style="fill:none;stroke-width:0.032;stroke-linecap:round;stroke-linejoin:miter;stroke:rgb(0%,0%,0%);stroke-opacity:1;stroke-miterlimit:10;" d="M 1.726002 0.715 L 1.776002 0.765 " transform="matrix(600,0,0,-600,-19.980001,935)"/>
<path style="fill:none;stroke-width:0.032;stroke-linecap:round;stroke-linejoin:miter;stroke:rgb(0%,0%,0%);stroke-opacity:1;stroke-miterlimit:10;" d="M 1.776002 0.765 L 2.026002 0.765 " transform="matrix(600,0,0,-600,-19.980001,935)"/>
<path style="fill:none;stroke-width:0.032;stroke-linecap:round;stroke-linejoin:miter;stroke:rgb(0%,0%,0%);stroke-opacity:1;stroke-miterlimit:10;" d="M 2.026002 0.765 L 2.026002 0.465 " transform="matrix(600,0,0,-600,-19.980001,935)"/>
<path style="fill:none;stroke-width:0.032;stroke-linecap:round;stroke-linejoin:miter;stroke:rgb(0%,0%,0%);stroke-opacity:1;stroke-miterlimit:10;" d="M 1.676002 0.515 L 1.276002 0.515 " transform="matrix(600,0,0,-600,-19.980001,935)"/>
<path style="fill:none;stroke-width:0.032;stroke-linecap:round;stroke-linejoin:miter;stroke:rgb(0%,0%,0%);stroke-opacity:1;stroke-miterlimit:10;" d="M 1.276002 0.515 L 1.276002 0.565 " transform="matrix(600,0,0,-600,-19.980001,935)"/>
<path style="fill:none;stroke-width:0.032;stroke-linecap:round;stroke-linejoin:miter;stroke:rgb(0%,0%,0%);stroke-opacity:1;stroke-miterlimit:10;" d="M 1.276002 0.515 L 1.276002 0.415 " transform="matrix(600,0,0,-600,-19.980001,935)"/>
<path style="fill:none;stroke-width:0.032;stroke-linecap:round;stroke-linejoin:miter;stroke:rgb(0%,0%,0%);stroke-opacity:1;stroke-miterlimit:10;" d="M 1.276002 0.515 L 0.626002 0.515 " transform="matrix(600,0,0,-600,-19.980001,935)"/>
<path style="fill:none;stroke-width:0.032;stroke-linecap:round;stroke-linejoin:miter;stroke:rgb(0%,0%,0%);stroke-opacity:1;stroke-miterlimit:10;" d="M 0.626002 0.515 L 0.576002 0.565 " transform="matrix(600,0,0,-600,-19.980001,935)"/>
<path style="fill:none;stroke-width:0.032;stroke-linecap:round;stroke-linejoin:miter;stroke:rgb(0%,0%,0%);stroke-opacity:1;stroke-miterlimit:10;" d="M 0.576002 0.565 L 0.476002 0.565 " transform="matrix(600,0,0,-600,-19.980001,935)"/>
<path style="fill:none;stroke-width:0.032;stroke-linecap:round;stroke-linejoin:miter;stroke:rgb(0%,0%,0%);stroke-opacity:1;stroke-miterlimit:10;" d="M 0.476002 0.465 L 0.576002 0.215 " transform="matrix(600,0,0,-600,-19.980001,935)"/>
<path style="fill:none;stroke-width:0.032;stroke-linecap:round;stroke-linejoin:miter;stroke:rgb(0%,0%,0%);stroke-opacity:1;stroke-miterlimit:10;" d="M 0.676002 0.215 L 0.776002 0.215 " transform="matrix(600,0,0,-600,-19.980001,935)"/>
<path style="fill:none;stroke-width:0.032;stroke-linecap:round;stroke-linejoin:miter;stroke:rgb(0%,0%,0%);stroke-opacity:1;stroke-miterlimit:10;" d="M 0.776002 0.215 L 1.076002 0.215 " transform="matrix(600,0,0,-600,-19.980001,935)"/>
<path style="fill:none;stroke-width:0.032;stroke-linecap:round;stroke-linejoin:miter;stroke:rgb(0%,0%,0%);stroke-opacity:1;stroke-miterlimit:10;" d="M 1.076002 0.115 L 1.276002 0.115 " transform="matrix(600,0,0,-600,-19.980001,935)"/>
<path style="fill:none;stroke-width:0.032;stroke-linecap:round;stroke-linejoin:miter;stroke:rgb(0%,0%,0%);stroke-opacity:1;stroke-miterlimit:10;" d="M 1.276002 0.115 L 1.276002 0.165 " transform="matrix(600,0,0,-600,-19.980001,935)"/>
<path style="fill:none;stroke-width:0.032;stroke-linecap:round;stroke-linejoin:miter;stroke:rgb(0%,0%,0%);stroke-opacity:1;stroke-miterlimit:10;" d="M 1.276002 0.165 L 1.476002 0.165 " transform="matrix(600,0,0,-600,-19.980001,935)"/>
<path style="fill:none;stroke-width:0.032;stroke-linecap:round;stroke-linejoin:miter;stroke:rgb(0%,0%,0%);stroke-opacity:1;stroke-miterlimit:10;" d="M 1.576002 0.165 L 1.776002 0.165 " transform="matrix(600,0,0,-600,-19.980001,935)"/>
<path style="fill:none;stroke-width:0.032;stroke-linecap:round;stroke-linejoin:miter;stroke:rgb(0%,0%,0%);stroke-opacity:1;stroke-miterlimit:10;" d="M 1.576002 0.615 L 1.576002 0.865 " transform="matrix(600,0,0,-600,-19.980001,935)"/>
<path style="fill:none;stroke-width:0.032;stroke-linecap:round;stroke-linejoin:miter;stroke:rgb(0%,0%,0%);stroke-opacity:1;stroke-miterlimit:10;" d="M 1.476002 0.865 L 1.276002 0.865 " transform="matrix(600,0,0,-600,-19.980001,935)"/>
<path style="fill:none;stroke-width:0.032;stroke-linecap:round;stroke-linejoin:miter;stroke:rgb(0%,0%,0%);stroke-opacity:1;stroke-miterlimit:10;" d="M 1.276002 0.865 L 1.226002 0.865 " transform="matrix(600,0,0,-600,-19.980001,935)"/>
<path style="fill:none;stroke-width:0.032;stroke-linecap:round;stroke-linejoin:miter;stroke:rgb(0%,0%,0%);stroke-opacity:1;stroke-miterlimit:10;" d="M 1.226002 0.865 L 1.126002 0.765 " transform="matrix(600,0,0,-600,-19.980001,935)"/>
<path style="fill:none;stroke-width:0.032;stroke-linecap:round;stroke-linejoin:miter;stroke:rgb(0%,0%,0%);stroke-opacity:1;stroke-miterlimit:10;" d="M 1.126002 0.765 L 1.076002 0.765 " transform="matrix(600,0,0,-600,-19.980001,935)"/>
<path style="fill:none;stroke-width:0.032;stroke-linecap:round;stroke-linejoin:miter;stroke:rgb(0%,0%,0%);stroke-opacity:1;stroke-miterlimit:10;" d="M 1.076002 0.865 L 0.776002 0.865 " transform="matrix(600,0,0,-600,-19.980001,935)"/>
<path style="fill:none;stroke-width:0.032;stroke-linecap:round;stroke-linejoin:miter;stroke:rgb(0%,0%,0%);stroke-opacity:1;stroke-miterlimit:10;" d="M 0.776002 0.865 L 0.676002 0.965 " transform="matrix(600,0,0,-600,-19.980001,935)"/>
<path style="fill:none;stroke-width:0.032;stroke-linecap:round;stroke-linejoin:miter;stroke:rgb(0%,0%,0%);stroke-opacity:1;stroke-miterlimit:10;" d="M 0.676002 0.965 L 0.576002 0.965 " transform="matrix(600,0,0,-600,-19.980001,935)"/>
<path style="fill:none;stroke-width:0.032;stroke-linecap:round;stroke-linejoin:miter;stroke:rgb(0%,0%,0%);stroke-opacity:1;stroke-miterlimit:10;" d="M 0.476002 0.965 L 0.476002 0.665 " transform="matrix(600,0,0,-600,-19.980001,935)"/>
<path style="fill:none;stroke-width:0.032;stroke-linecap:round;stroke-linejoin:miter;stroke:rgb(0%,0%,0%);stroke-opacity:1;stroke-miterlimit:10;" d="M 0.776002 0.665 L 0.926002 0.665 " transform="matrix(600,0,0,-600,-19.980001,935)"/>
<path style="fill:none;stroke-width:0.032;stroke-linecap:round;stroke-linejoin:miter;stroke:rgb(0%,0%,0%);stroke-opacity:1;stroke-miterlimit:10;" d="M 0.926002 0.665 L 0.926002 0.765 " transform="matrix(600,0,0,-600,-19.980001,935)"/>
<path style="fill:none;stroke-width:0.032;stroke-linecap:round;stroke-linejoin:miter;stroke:rgb(0%,0%,0%);stroke-opacity:1;stroke-miterlimit:10;" d="M 0.776002 0.965 L 1.076002 0.965 " transform="matrix(600,0,0,-600,-19.980001,935)"/>
<path style="fill:none;stroke-width:0.032;stroke-linecap:round;stroke-linejoin:miter;stroke:rgb(0%,0%,0%);stroke-opacity:1;stroke-miterlimit:10;" d="M 0.926002 1.065 L 0.926002 1.265 " transform="matrix(600,0,0,-600,-19.980001,935)"/>
<path style="fill:none;stroke-width:0.032;stroke-linecap:round;stroke-linejoin:miter;stroke:rgb(0%,0%,0%);stroke-opacity:1;stroke-miterlimit:10;" d="M 0.926002 1.265 L 1.026002 1.265 " transform="matrix(600,0,0,-600,-19.980001,935)"/>
<path style="fill:none;stroke-width:0.032;stroke-linecap:round;stroke-linejoin:miter;stroke:rgb(0%,0%,0%);stroke-opacity:1;stroke-miterlimit:10;" d="M 0.926002 1.265 L 0.776002 1.265 " transform="matrix(600,0,0,-600,-19.980001,935)"/>
<path style="fill:none;stroke-width:0.032;stroke-linecap:round;stroke-linejoin:miter;stroke:rgb(0%,0%,0%);stroke-opacity:1;stroke-miterlimit:10;" d="M 0.776002 1.265 L 0.676002 1.265 " transform="matrix(600,0,0,-600,-19.980001,935)"/>
<path style="fill:none;stroke-width:0.032;stroke-linecap:round;stroke-linejoin:miter;stroke:rgb(0%,0%,0%);stroke-opacity:1;stroke-miterlimit:10;" d="M 1.326002 1.265 L 1.476002 1.265 " transform="matrix(600,0,0,-600,-19.980001,935)"/>
<path style="fill:none;stroke-width:0.032;stroke-linecap:round;stroke-linejoin:miter;stroke:rgb(0%,0%,0%);stroke-opacity:1;stroke-miterlimit:10;" d="M 1.476002 1.265 L 1.476002 1.165 " transform="matrix(600,0,0,-600,-19.980001,935)"/>
<path style="fill:none;stroke-width:0.032;stroke-linecap:round;stroke-linejoin:miter;stroke:rgb(0%,0%,0%);stroke-opacity:1;stroke-miterlimit:10;" d="M 1.476002 1.165 L 1.776002 1.165 " transform="matrix(600,0,0,-600,-19.980001,935)"/>
<path style="fill:none;stroke-width:0.032;stroke-linecap:round;stroke-linejoin:miter;stroke:rgb(0%,0%,0%);stroke-opacity:1;stroke-miterlimit:10;" d="M 1.776002 1.165 L 1.776002 0.995 " transform="matrix(600,0,0,-600,-19.980001,935)"/>
<path style="fill:none;stroke-width:0.032;stroke-linecap:round;stroke-linejoin:miter;stroke:rgb(0%,0%,0%);stroke-opacity:1;stroke-miterlimit:10;" d="M 1.776002 0.995 L 1.856002 0.915 " transform="matrix(600,0,0,-600,-19.980001,935)"/>
<path style="fill:none;stroke-width:0.032;stroke-linecap:round;stroke-linejoin:miter;stroke:rgb(0%,0%,0%);stroke-opacity:1;stroke-miterlimit:10;" d="M 1.976002 0.935 L 1.996002 0.915 " transform="matrix(600,0,0,-600,-19.980001,935)"/>
<path style="fill:none;stroke-width:0.032;stroke-linecap:round;stroke-linejoin:miter;stroke:rgb(0%,0%,0%);stroke-opacity:1;stroke-miterlimit:10;" d="M 1.996002 0.915 L 2.026002 0.915 " transform="matrix(600,0,0,-600,-19.980001,935)"/>
<path style="fill:none;stroke-width:0.032;stroke-linecap:round;stroke-linejoin:miter;stroke:rgb(0%,0%,0%);stroke-opacity:1;stroke-miterlimit:10;" d="M 2.026002 0.915 L 2.026002 0.765 " transform="matrix(600,0,0,-600,-19.980001,935)"/>
<path style="fill:none;stroke-width:0.032;stroke-linecap:round;stroke-linejoin:miter;stroke:rgb(0%,0%,0%);stroke-opacity:1;stroke-miterlimit:10;" d="M 1.976002 0.935 L 1.976002 1.165 " transform="matrix(600,0,0,-600,-19.980001,935)"/>
<path style="fill:none;stroke-width:0.032;stroke-linecap:round;stroke-linejoin:miter;stroke:rgb(0%,0%,0%);stroke-opacity:1;stroke-miterlimit:10;" d="M 1.976002 1.165 L 1.976002 1.215 " transform="matrix(600,0,0,-600,-19.980001,935)"/>
<path style="fill:none;stroke-width:0.032;stroke-linecap:round;stroke-linejoin:miter;stroke:rgb(0%,0%,0%);stroke-opacity:1;stroke-miterlimit:10;" d="M 1.976002 1.215 L 1.926002 1.265 " transform="matrix(600,0,0,-600,-19.980001,935)"/>
<path style="fill:none;stroke-width:0.032;stroke-linecap:round;stroke-linejoin:miter;stroke:rgb(0%,0%,0%);stroke-opacity:1;stroke-miterlimit:10;" d="M 1.926002 1.265 L 1.576002 1.265 " transform="matrix(600,0,0,-600,-19.980001,935)"/>
<path style="fill:none;stroke-width:0.032;stroke-linecap:round;stroke-linejoin:miter;stroke:rgb(0%,0%,0%);stroke-opacity:1;stroke-miterlimit:10;" d="M 1.076002 0.315 L 0.976002 0.365 " transform="matrix(600,0,0,-600,-19.980001,935)"/>
<path style="fill:none;stroke-width:0.032;stroke-linecap:round;stroke-linejoin:miter;stroke:rgb(0%,0%,0%);stroke-opacity:1;stroke-miterlimit:10;" d="M 0.976002 0.365 L 0.926002 0.365 " transform="matrix(600,0,0,-600,-19.980001,935)"/>
<path style="fill:none;stroke-width:0.032;stroke-linecap:round;stroke-linejoin:miter;stroke:rgb(0%,0%,0%);stroke-opacity:1;stroke-miterlimit:10;" d="M 0.776002 0.365 L 0.776002 0.215 " transform="matrix(600,0,0,-600,-19.980001,935)"/>
<path style=" stroke:none;fill-rule:evenodd;fill:rgb(0%,0%,0%);fill-opacity:1;" d="M 550.621094 476 C 550.621094 456 520.621094 456 520.621094 476 C 520.621094 496 550.621094 496 550.621094 476 "/>
<path style=" stroke:none;fill-rule:evenodd;fill:rgb(0%,0%,0%);fill-opacity:1;" d="M 550.621094 296 C 550.621094 276 520.621094 276 520.621094 296 C 520.621094 316 550.621094 316 550.621094 296 "/>
<path style=" stroke:none;fill-rule:evenodd;fill:rgb(100%,100%,100%);fill-opacity:1;" d="M 540.421875 476 C 540.421875 469.601562 530.820312 469.601562 530.820312 476 C 530.820312 482.398438 540.421875 482.398438 540.421875 476 "/>
<path style=" stroke:none;fill-rule:evenodd;fill:rgb(100%,100%,100%);fill-opacity:1;" d="M 540.421875 296 C 540.421875 289.601562 530.820312 289.601562 530.820312 296 C 530.820312 302.398438 540.421875 302.398438 540.421875 296 "/>
<path style=" stroke:none;fill-rule:evenodd;fill:rgb(100%,100%,100%);fill-opacity:1;" d="M 630.421875 356 C 630.421875 349.601562 620.820312 349.601562 620.820312 356 C 620.820312 362.398438 630.421875 362.398438 630.421875 356 "/>
<path style=" stroke:none;fill-rule:evenodd;fill:rgb(100%,100%,100%);fill-opacity:1;" d="M 630.421875 416 C 630.421875 409.601562 620.820312 409.601562 620.820312 416 C 620.820312 422.398438 630.421875 422.398438 630.421875 416 "/>
<path style=" stroke:none;fill-rule:evenodd;fill:rgb(100%,100%,100%);fill-opacity:1;" d="M 630.421875 476 C 630.421875 469.601562 620.820312 469.601562 620.820312 476 C 620.820312 482.398438 630.421875 482.398438 630.421875 476 "/>
<path style=" stroke:none;fill-rule:evenodd;fill:rgb(100%,100%,100%);fill-opacity:1;" d="M 540.421875 536 C 540.421875 529.601562 530.820312 529.601562 530.820312 536 C 530.820312 542.398438 540.421875 542.398438 540.421875 536 "/>
<path style=" stroke:none;fill-rule:evenodd;fill:rgb(100%,100%,100%);fill-opacity:1;" d="M 450.421875 536 C 450.421875 529.601562 440.820312 529.601562 440.820312 536 C 440.820312 542.398438 450.421875 542.398438 450.421875 536 "/>
<path style=" stroke:none;fill-rule:evenodd;fill:rgb(100%,100%,100%);fill-opacity:1;" d="M 450.421875 716 C 450.421875 709.601562 440.820312 709.601562 440.820312 716 C 440.820312 722.398438 450.421875 722.398438 450.421875 716 "/>
<path style=" stroke:none;fill-rule:evenodd;fill:rgb(100%,100%,100%);fill-opacity:1;" d="M 540.421875 716 C 540.421875 709.601562 530.820312 709.601562 530.820312 716 C 530.820312 722.398438 540.421875 722.398438 540.421875 716 "/>
<path style=" stroke:none;fill-rule:evenodd;fill:rgb(100%,100%,100%);fill-opacity:1;" d="M 630.421875 746 C 630.421875 739.601562 620.820312 739.601562 620.820312 746 C 620.820312 752.398438 630.421875 752.398438 630.421875 746 "/>
<path style=" stroke:none;fill-rule:evenodd;fill:rgb(100%,100%,100%);fill-opacity:1;" d="M 630.421875 806 C 630.421875 799.601562 620.820312 799.601562 620.820312 806 C 620.820312 812.398438 630.421875 812.398438 630.421875 806 "/>
<path style=" stroke:none;fill-rule:evenodd;fill:rgb(100%,100%,100%);fill-opacity:1;" d="M 630.421875 866 C 630.421875 859.601562 620.820312 859.601562 620.820312 866 C 620.820312 872.398438 630.421875 872.398438 630.421875 866 "/>
<path style=" stroke:none;fill-rule:evenodd;fill:rgb(100%,100%,100%);fill-opacity:1;" d="M 750.421875 866 C 750.421875 859.601562 740.820312 859.601562 740.820312 866 C 740.820312 872.398438 750.421875 872.398438 750.421875 866 "/>
<path style=" stroke:none;fill-rule:evenodd;fill:rgb(100%,100%,100%);fill-opacity:1;" d="M 870.421875 836 C 870.421875 829.601562 860.820312 829.601562 860.820312 836 C 860.820312 842.398438 870.421875 842.398438 870.421875 836 "/>
<path style=" stroke:none;fill-rule:evenodd;fill:rgb(100%,100%,100%);fill-opacity:1;" d="M 930.421875 836 C 930.421875 829.601562 920.820312 829.601562 920.820312 836 C 920.820312 842.398438 930.421875 842.398438 930.421875 836 "/>
<path style=" stroke:none;fill-rule:evenodd;fill:rgb(100%,100%,100%);fill-opacity:1;" d="M 1050.421875 836 C 1050.421875 829.601562 1040.820312 829.601562 1040.820312 836 C 1040.820312 842.398438 1050.421875 842.398438 1050.421875 836 "/>
<path style=" stroke:none;fill-rule:evenodd;fill:rgb(100%,100%,100%);fill-opacity:1;" d="M 1050.421875 656 C 1050.421875 649.601562 1040.820312 649.601562 1040.820312 656 C 1040.820312 662.398438 1050.421875 662.398438 1050.421875 656 "/>
<path style=" stroke:none;fill-rule:evenodd;fill:rgb(100%,100%,100%);fill-opacity:1;" d="M 1110.421875 566 C 1110.421875 559.601562 1100.820312 559.601562 1100.820312 566 C 1100.820312 572.398438 1110.421875 572.398438 1110.421875 566 "/>
<path style=" stroke:none;fill-rule:evenodd;fill:rgb(100%,100%,100%);fill-opacity:1;" d="M 930.421875 566 C 930.421875 559.601562 920.820312 559.601562 920.820312 566 C 920.820312 572.398438 930.421875 572.398438 930.421875 566 "/>
<path style=" stroke:none;fill-rule:evenodd;fill:rgb(100%,100%,100%);fill-opacity:1;" d="M 750.421875 596 C 750.421875 589.601562 740.820312 589.601562 740.820312 596 C 740.820312 602.398438 750.421875 602.398438 750.421875 596 "/>
<path style=" stroke:none;fill-rule:evenodd;fill:rgb(100%,100%,100%);fill-opacity:1;" d="M 750.421875 686 C 750.421875 679.601562 740.820312 679.601562 740.820312 686 C 740.820312 692.398438 750.421875 692.398438 750.421875 686 "/>
<path style=" stroke:none;fill-rule:evenodd;fill:rgb(100%,100%,100%);fill-opacity:1;" d="M 390.421875 806 C 390.421875 799.601562 380.820312 799.601562 380.820312 806 C 380.820312 812.398438 390.421875 812.398438 390.421875 806 "/>
<path style=" stroke:none;fill-rule:evenodd;fill:rgb(100%,100%,100%);fill-opacity:1;" d="M 330.421875 806 C 330.421875 799.601562 320.820312 799.601562 320.820312 806 C 320.820312 812.398438 330.421875 812.398438 330.421875 806 "/>
<path style=" stroke:none;fill-rule:evenodd;fill:rgb(100%,100%,100%);fill-opacity:1;" d="M 750.421875 416 C 750.421875 409.601562 740.820312 409.601562 740.820312 416 C 740.820312 422.398438 750.421875 422.398438 750.421875 416 "/>
<path style=" stroke:none;fill-rule:evenodd;fill:rgb(100%,100%,100%);fill-opacity:1;" d="M 870.421875 416 C 870.421875 409.601562 860.820312 409.601562 860.820312 416 C 860.820312 422.398438 870.421875 422.398438 870.421875 416 "/>
<path style=" stroke:none;fill-rule:evenodd;fill:rgb(100%,100%,100%);fill-opacity:1;" d="M 930.421875 416 C 930.421875 409.601562 920.820312 409.601562 920.820312 416 C 920.820312 422.398438 930.421875 422.398438 930.421875 416 "/>
<path style=" stroke:none;fill-rule:evenodd;fill:rgb(100%,100%,100%);fill-opacity:1;" d="M 1098.421875 386 C 1098.421875 379.601562 1088.820312 379.601562 1088.820312 386 C 1088.820312 392.398438 1098.421875 392.398438 1098.421875 386 "/>
<path style=" stroke:none;fill-rule:evenodd;fill:rgb(100%,100%,100%);fill-opacity:1;" d="M 1182.421875 386 C 1182.421875 379.601562 1172.820312 379.601562 1172.820312 386 C 1172.820312 392.398438 1182.421875 392.398438 1182.421875 386 "/>
<path style=" stroke:none;fill-rule:evenodd;fill:rgb(100%,100%,100%);fill-opacity:1;" d="M 1170.421875 236 C 1170.421875 229.601562 1160.820312 229.601562 1160.820312 236 C 1160.820312 242.398438 1170.421875 242.398438 1170.421875 236 "/>
<path style=" stroke:none;fill-rule:evenodd;fill:rgb(100%,100%,100%);fill-opacity:1;" d="M 1050.421875 236 C 1050.421875 229.601562 1040.820312 229.601562 1040.820312 236 C 1040.820312 242.398438 1050.421875 242.398438 1050.421875 236 "/>
<path style=" stroke:none;fill-rule:evenodd;fill:rgb(100%,100%,100%);fill-opacity:1;" d="M 780.421875 176 C 780.421875 169.601562 770.820312 169.601562 770.820312 176 C 770.820312 182.398438 780.421875 182.398438 780.421875 176 "/>
<path style=" stroke:none;fill-rule:evenodd;fill:rgb(100%,100%,100%);fill-opacity:1;" d="M 600.421875 176 C 600.421875 169.601562 590.820312 169.601562 590.820312 176 C 590.820312 182.398438 600.421875 182.398438 600.421875 176 "/>
<path style=" stroke:none;fill-rule:evenodd;fill:rgb(100%,100%,100%);fill-opacity:1;" d="M 450.421875 176 C 450.421875 169.601562 440.820312 169.601562 440.820312 176 C 440.820312 182.398438 450.421875 182.398438 450.421875 176 "/>
<path style=" stroke:none;fill-rule:evenodd;fill:rgb(100%,100%,100%);fill-opacity:1;" d="M 390.421875 176 C 390.421875 169.601562 380.820312 169.601562 380.820312 176 C 380.820312 182.398438 390.421875 182.398438 390.421875 176 "/>
<path style=" stroke:none;fill-rule:evenodd;fill:rgb(100%,100%,100%);fill-opacity:1;" d="M 390.421875 356 C 390.421875 349.601562 380.820312 349.601562 380.820312 356 C 380.820312 362.398438 390.421875 362.398438 390.421875 356 "/>
<path style=" stroke:none;fill-rule:evenodd;fill:rgb(100%,100%,100%);fill-opacity:1;" d="M 330.421875 356 C 330.421875 349.601562 320.820312 349.601562 320.820312 356 C 320.820312 362.398438 330.421875 362.398438 330.421875 356 "/>
<path style=" stroke:none;fill-rule:evenodd;fill:rgb(100%,100%,100%);fill-opacity:1;" d="M 270.421875 356 C 270.421875 349.601562 260.820312 349.601562 260.820312 356 C 260.820312 362.398438 270.421875 362.398438 270.421875 356 "/>
<path style=" stroke:none;fill-rule:evenodd;fill:rgb(100%,100%,100%);fill-opacity:1;" d="M 450.421875 356 C 450.421875 349.601562 440.820312 349.601562 440.820312 356 C 440.820312 362.398438 450.421875 362.398438 450.421875 356 "/>
<path style=" stroke:none;fill-rule:evenodd;fill:rgb(100%,100%,100%);fill-opacity:1;" d="M 270.421875 536 C 270.421875 529.601562 260.820312 529.601562 260.820312 536 C 260.820312 542.398438 270.421875 542.398438 270.421875 536 "/>
<path style=" stroke:none;fill-rule:evenodd;fill:rgb(100%,100%,100%);fill-opacity:1;" d="M 270.421875 596 C 270.421875 589.601562 260.820312 589.601562 260.820312 596 C 260.820312 602.398438 270.421875 602.398438 270.421875 596 "/>
<path style=" stroke:none;fill-rule:evenodd;fill:rgb(100%,100%,100%);fill-opacity:1;" d="M 270.421875 656 C 270.421875 649.601562 260.820312 649.601562 260.820312 656 C 260.820312 662.398438 270.421875 662.398438 270.421875 656 "/>
<path style=" stroke:none;fill-rule:evenodd;fill:rgb(100%,100%,100%);fill-opacity:1;" d="M 870.421875 176 C 870.421875 169.601562 860.820312 169.601562 860.820312 176 C 860.820312 182.398438 870.421875 182.398438 870.421875 176 "/>
<path style=" stroke:none;fill-rule:evenodd;fill:rgb(100%,100%,100%);fill-opacity:1;" d="M 930.421875 176 C 930.421875 169.601562 920.820312 169.601562 920.820312 176 C 920.820312 182.398438 930.421875 182.398438 930.421875 176 "/>
<path style=" stroke:none;fill-rule:evenodd;fill:rgb(100%,100%,100%);fill-opacity:1;" d="M 1200.421875 656 C 1200.421875 649.601562 1190.820312 649.601562 1190.820312 656 C 1190.820312 662.398438 1200.421875 662.398438 1200.421875 656 "/>
<path style=" stroke:none;fill-rule:evenodd;fill:rgb(100%,100%,100%);fill-opacity:1;" d="M 1200.421875 716 C 1200.421875 709.601562 1190.820312 709.601562 1190.820312 716 C 1190.820312 722.398438 1200.421875 722.398438 1200.421875 716 "/>
<path style=" stroke:none;fill-rule:evenodd;fill:rgb(100%,100%,100%);fill-opacity:1;" d="M 180.421875 836 C 180.421875 829.601562 170.820312 829.601562 170.820312 836 C 170.820312 842.398438 180.421875 842.398438 180.421875 836 "/>
<path style=" stroke:none;fill-rule:evenodd;fill:rgb(100%,100%,100%);fill-opacity:1;" d="M 180.421875 176 C 180.421875 169.601562 170.820312 169.601562 170.820312 176 C 170.820312 182.398438 180.421875 182.398438 180.421875 176 "/>
<path style=" stroke:none;fill-rule:evenodd;fill:rgb(100%,100%,100%);fill-opacity:1;" d="M 1290.421875 176 C 1290.421875 169.601562 1280.820312 169.601562 1280.820312 176 C 1280.820312 182.398438 1290.421875 182.398438 1290.421875 176 "/>
<path style=" stroke:none;fill-rule:evenodd;fill:rgb(100%,100%,100%);fill-opacity:1;" d="M 1290.421875 836 C 1290.421875 829.601562 1280.820312 829.601562 1280.820312 836 C 1280.820312 842.398438 1290.421875 842.398438 1290.421875 836 "/>
</g>
</svg>
