<?xml version="1.0" encoding="UTF-8"?>
<svg xmlns="http://www.w3.org/2000/svg" xmlns:xlink="http://www.w3.org/1999/xlink" width="1221pt" height="1139pt" viewBox="0 0 1221 1139" version="1.1">
<g id="surface1">
<path style="fill:none;stroke-width:0.01;stroke-linecap:round;stroke-linejoin:miter;stroke:rgb(0%,0%,0%);stroke-opacity:1;stroke-miterlimit:10;" d="M 0.175949 0.015 L 0.175949 1.764609 " transform="matrix(600,0,0,-600,-19.968,1145)"/>
<path style="fill:none;stroke-width:0.01;stroke-linecap:round;stroke-linejoin:miter;stroke:rgb(0%,0%,0%);stroke-opacity:1;stroke-miterlimit:10;" d="M 0.175949 1.764609 L 2.062961 1.764609 " transform="matrix(600,0,0,-600,-19.968,1145)"/>
<path style="fill:none;stroke-width:0.01;stroke-linecap:round;stroke-linejoin:miter;stroke:rgb(0%,0%,0%);stroke-opacity:1;stroke-miterlimit:10;" d="M 2.062961 1.764609 L 2.062961 0.015 " transform="matrix(600,0,0,-600,-19.968,1145)"/>
<path style="fill:none;stroke-width:0.01;stroke-linecap:round;stroke-linejoin:miter;stroke:rgb(0%,0%,0%);stroke-opacity:1;stroke-miterlimit:10;" d="M 2.062961 0.015 L 0.175949 0.015 " transform="matrix(600,0,0,-600,-19.968,1145)"/>
<path style="fill:none;stroke-width:0.00512;stroke-linecap:round;stroke-linejoin:miter;stroke:rgb(0%,0%,0%);stroke-opacity:1;stroke-miterlimit:10;" d="M 0.175949 0.015 L 0.0491784 0.015 " transform="matrix(600,0,0,-600,-19.968,1145)"/>
<path style="fill:none;stroke-width:0.00512;stroke-linecap:round;stroke-linejoin:miter;stroke:rgb(0%,0%,0%);stroke-opacity:1;stroke-miterlimit:10;" d="M 0.125949 0.0175586 L 0.13619 0.117357 " transform="matrix(600,0,0,-600,-19.968,1145)"/>
<path style="fill:none;stroke-width:0.00512;stroke-linecap:round;stroke-linejoin:miter;stroke:rgb(0%,0%,0%);stroke-opacity:1;stroke-miterlimit:10;" d="M 0.138521 0.117357 L 0.125949 0.0175586 " transform="matrix(600,0,0,-600,-19.968,1145)"/>
<path style="fill:none;stroke-width:0.00512;stroke-linecap:round;stroke-linejoin:miter;stroke:rgb(0%,0%,0%);stroke-opacity:1;stroke-miterlimit:10;" d="M 0.125949 0.0175586 L 0.115721 0.117357 " transform="matrix(600,0,0,-600,-19.968,1145)"/>
<path style="fill:none;stroke-width:0.00512;stroke-linecap:round;stroke-linejoin:miter;stroke:rgb(0%,0%,0%);stroke-opacity:1;stroke-miterlimit:10;" d="M 0.113378 0.117357 L 0.138521 0.117357 " transform="matrix(600,0,0,-600,-19.968,1145)"/>
<path style="fill:none;stroke-width:0.00512;stroke-linecap:round;stroke-linejoin:miter;stroke:rgb(0%,0%,0%);stroke-opacity:1;stroke-miterlimit:10;" d="M 0.131073 0.117357 L 0.125949 0.0175586 " transform="matrix(600,0,0,-600,-19.968,1145)"/>
<path style="fill:none;stroke-width:0.00512;stroke-linecap:round;stroke-linejoin:miter;stroke:rgb(0%,0%,0%);stroke-opacity:1;stroke-miterlimit:10;" d="M 0.125949 0.0175586 L 0.120832 0.117357 " transform="matrix(600,0,0,-600,-19.968,1145)"/>
<path style="fill:none;stroke-width:0.00512;stroke-linecap:round;stroke-linejoin:miter;stroke:rgb(0%,0%,0%);stroke-opacity:1;stroke-miterlimit:10;" d="M 0.113378 0.117357 L 0.125949 0.0175586 " transform="matrix(600,0,0,-600,-19.968,1145)"/>
<path style="fill:none;stroke-width:0.00512;stroke-linecap:round;stroke-linejoin:miter;stroke:rgb(0%,0%,0%);stroke-opacity:1;stroke-miterlimit:10;" d="M 0.125949 0.0175586 L 0.125949 1.762441 " transform="matrix(600,0,0,-600,-19.968,1145)"/>
<path style="fill:none;stroke-width:0.00512;stroke-linecap:round;stroke-linejoin:miter;stroke:rgb(0%,0%,0%);stroke-opacity:1;stroke-miterlimit:10;" d="M 0.125949 1.762441 L 0.13619 1.662643 " transform="matrix(600,0,0,-600,-19.968,1145)"/>
<path style="fill:none;stroke-width:0.00512;stroke-linecap:round;stroke-linejoin:miter;stroke:rgb(0%,0%,0%);stroke-opacity:1;stroke-miterlimit:10;" d="M 0.138521 1.662643 L 0.125949 1.762441 " transform="matrix(600,0,0,-600,-19.968,1145)"/>
<path style="fill:none;stroke-width:0.00512;stroke-linecap:round;stroke-linejoin:miter;stroke:rgb(0%,0%,0%);stroke-opacity:1;stroke-miterlimit:10;" d="M 0.125949 1.762441 L 0.115721 1.662643 " transform="matrix(600,0,0,-600,-19.968,1145)"/>
<path style="fill:none;stroke-width:0.00512;stroke-linecap:round;stroke-linejoin:miter;stroke:rgb(0%,0%,0%);stroke-opacity:1;stroke-miterlimit:10;" d="M 0.113378 1.662643 L 0.138521 1.662643 " transform="matrix(600,0,0,-600,-19.968,1145)"/>
<path style="fill:none;stroke-width:0.00512;stroke-linecap:round;stroke-linejoin:miter;stroke:rgb(0%,0%,0%);stroke-opacity:1;stroke-miterlimit:10;" d="M 0.131073 1.662643 L 0.125949 1.762441 " transform="matrix(600,0,0,-600,-19.968,1145)"/>
<path style="fill:none;stroke-width:0.00512;stroke-linecap:round;stroke-linejoin:miter;stroke:rgb(0%,0%,0%);stroke-opacity:1;stroke-miterlimit:10;" d="M 0.125949 1.762441 L 0.120832 1.662643 " transform="matrix(600,0,0,-600,-19.968,1145)"/>
<path style="fill:none;stroke-width:0.00512;stroke-linecap:round;stroke-linejoin:miter;stroke:rgb(0%,0%,0%);stroke-opacity:1;stroke-miterlimit:10;" d="M 0.113378 1.662643 L 0.125949 1.762441 " transform="matrix(600,0,0,-600,-19.968,1145)"/>
<path style="fill:none;stroke-width:0.00512;stroke-linecap:round;stroke-linejoin:miter;stroke:rgb(0%,0%,0%);stroke-opacity:1;stroke-miterlimit:10;" d="M 0.175949 1.764609 L 0.175949 1.891771 " transform="matrix(600,0,0,-600,-19.968,1145)"/>
<path style="fill:none;stroke-width:0.00512;stroke-linecap:round;stroke-linejoin:miter;stroke:rgb(0%,0%,0%);stroke-opacity:1;stroke-miterlimit:10;" d="M 0.178508 1.815 L 0.278313 1.804759 " transform="matrix(600,0,0,-600,-19.968,1145)"/>
<path style="fill:none;stroke-width:0.00512;stroke-linecap:round;stroke-linejoin:miter;stroke:rgb(0%,0%,0%);stroke-opacity:1;stroke-miterlimit:10;" d="M 0.278313 1.802428 L 0.178508 1.815 " transform="matrix(600,0,0,-600,-19.968,1145)"/>
<path style="fill:none;stroke-width:0.00512;stroke-linecap:round;stroke-linejoin:miter;stroke:rgb(0%,0%,0%);stroke-opacity:1;stroke-miterlimit:10;" d="M 0.178508 1.815 L 0.278313 1.825241 " transform="matrix(600,0,0,-600,-19.968,1145)"/>
<path style="fill:none;stroke-width:0.00512;stroke-linecap:round;stroke-linejoin:miter;stroke:rgb(0%,0%,0%);stroke-opacity:1;stroke-miterlimit:10;" d="M 0.278313 1.827572 L 0.278313 1.802428 " transform="matrix(600,0,0,-600,-19.968,1145)"/>
<path style="fill:none;stroke-width:0.00512;stroke-linecap:round;stroke-linejoin:miter;stroke:rgb(0%,0%,0%);stroke-opacity:1;stroke-miterlimit:10;" d="M 0.278313 1.809883 L 0.178508 1.815 " transform="matrix(600,0,0,-600,-19.968,1145)"/>
<path style="fill:none;stroke-width:0.00512;stroke-linecap:round;stroke-linejoin:miter;stroke:rgb(0%,0%,0%);stroke-opacity:1;stroke-miterlimit:10;" d="M 0.178508 1.815 L 0.278313 1.820117 " transform="matrix(600,0,0,-600,-19.968,1145)"/>
<path style="fill:none;stroke-width:0.00512;stroke-linecap:round;stroke-linejoin:miter;stroke:rgb(0%,0%,0%);stroke-opacity:1;stroke-miterlimit:10;" d="M 0.278313 1.827572 L 0.178508 1.815 " transform="matrix(600,0,0,-600,-19.968,1145)"/>
<path style="fill:none;stroke-width:0.00512;stroke-linecap:round;stroke-linejoin:miter;stroke:rgb(0%,0%,0%);stroke-opacity:1;stroke-miterlimit:10;" d="M 0.178508 1.815 L 2.060402 1.815 " transform="matrix(600,0,0,-600,-19.968,1145)"/>
<path style="fill:none;stroke-width:0.00512;stroke-linecap:round;stroke-linejoin:miter;stroke:rgb(0%,0%,0%);stroke-opacity:1;stroke-miterlimit:10;" d="M 2.060402 1.815 L 1.960598 1.804759 " transform="matrix(600,0,0,-600,-19.968,1145)"/>
<path style="fill:none;stroke-width:0.00512;stroke-linecap:round;stroke-linejoin:miter;stroke:rgb(0%,0%,0%);stroke-opacity:1;stroke-miterlimit:10;" d="M 1.960598 1.802428 L 2.060402 1.815 " transform="matrix(600,0,0,-600,-19.968,1145)"/>
<path style="fill:none;stroke-width:0.00512;stroke-linecap:round;stroke-linejoin:miter;stroke:rgb(0%,0%,0%);stroke-opacity:1;stroke-miterlimit:10;" d="M 2.060402 1.815 L 1.960598 1.825241 " transform="matrix(600,0,0,-600,-19.968,1145)"/>
<path style="fill:none;stroke-width:0.00512;stroke-linecap:round;stroke-linejoin:miter;stroke:rgb(0%,0%,0%);stroke-opacity:1;stroke-miterlimit:10;" d="M 1.960598 1.827572 L 1.960598 1.802428 " transform="matrix(600,0,0,-600,-19.968,1145)"/>
<path style="fill:none;stroke-width:0.00512;stroke-linecap:round;stroke-linejoin:miter;stroke:rgb(0%,0%,0%);stroke-opacity:1;stroke-miterlimit:10;" d="M 1.960598 1.809883 L 2.060402 1.815 " transform="matrix(600,0,0,-600,-19.968,1145)"/>
<path style="fill:none;stroke-width:0.00512;stroke-linecap:round;stroke-linejoin:miter;stroke:rgb(0%,0%,0%);stroke-opacity:1;stroke-miterlimit:10;" d="M 2.060402 1.815 L 1.960598 1.820117 " transform="matrix(600,0,0,-600,-19.968,1145)"/>
<path style="fill:none;stroke-width:0.00512;stroke-linecap:round;stroke-linejoin:miter;stroke:rgb(0%,0%,0%);stroke-opacity:1;stroke-miterlimit:10;" d="M 1.960598 1.827572 L 2.060402 1.815 " transform="matrix(600,0,0,-600,-19.968,1145)"/>
<path style="fill:none;stroke-width:0.00512;stroke-linecap:round;stroke-linejoin:miter;stroke:rgb(0%,0%,0%);stroke-opacity:1;stroke-miterlimit:10;" d="M 2.062961 1.764609 L 2.062961 1.891771 " transform="matrix(600,0,0,-600,-19.968,1145)"/>
<path style="fill:none;stroke-width:0.00512;stroke-linecap:round;stroke-linejoin:miter;stroke:rgb(0%,0%,0%);stroke-opacity:1;stroke-miterlimit:10;" d="M 0.175949 1.765 L 0.0491784 1.765 " transform="matrix(600,0,0,-600,-19.968,1145)"/>
<path style="fill:none;stroke-width:0.011;stroke-linecap:round;stroke-linejoin:miter;stroke:rgb(0%,0%,0%);stroke-opacity:1;stroke-miterlimit:10;" d="M 0.0387813 1.033952 L 0.0387813 0.99459 " transform="matrix(600,0,0,-600,-19.968,1145)"/>
<path style="fill:none;stroke-width:0.011;stroke-linecap:round;stroke-linejoin:miter;stroke:rgb(0%,0%,0%);stroke-opacity:1;stroke-miterlimit:10;" d="M 0.0387813 0.99459 L 0.0683126 0.99459 " transform="matrix(600,0,0,-600,-19.968,1145)"/>
<path style="fill:none;stroke-width:0.011;stroke-linecap:round;stroke-linejoin:miter;stroke:rgb(0%,0%,0%);stroke-opacity:1;stroke-miterlimit:10;" d="M 0.0683126 0.99459 L 0.0584688 1.014271 " transform="matrix(600,0,0,-600,-19.968,1145)"/>
<path style="fill:none;stroke-width:0.011;stroke-linecap:round;stroke-linejoin:miter;stroke:rgb(0%,0%,0%);stroke-opacity:1;stroke-miterlimit:10;" d="M 0.0584688 1.014271 L 0.0584688 1.024108 " transform="matrix(600,0,0,-600,-19.968,1145)"/>
<path style="fill:none;stroke-width:0.011;stroke-linecap:round;stroke-linejoin:miter;stroke:rgb(0%,0%,0%);stroke-opacity:1;stroke-miterlimit:10;" d="M 0.0584688 1.024108 L 0.0683126 1.033952 " transform="matrix(600,0,0,-600,-19.968,1145)"/>
<path style="fill:none;stroke-width:0.011;stroke-linecap:round;stroke-linejoin:miter;stroke:rgb(0%,0%,0%);stroke-opacity:1;stroke-miterlimit:10;" d="M 0.0683126 1.033952 L 0.087987 1.033952 " transform="matrix(600,0,0,-600,-19.968,1145)"/>
<path style="fill:none;stroke-width:0.011;stroke-linecap:round;stroke-linejoin:miter;stroke:rgb(0%,0%,0%);stroke-opacity:1;stroke-miterlimit:10;" d="M 0.087987 1.033952 L 0.0978308 1.024108 " transform="matrix(600,0,0,-600,-19.968,1145)"/>
<path style="fill:none;stroke-width:0.011;stroke-linecap:round;stroke-linejoin:miter;stroke:rgb(0%,0%,0%);stroke-opacity:1;stroke-miterlimit:10;" d="M 0.0978308 1.024108 L 0.0978308 1.004427 " transform="matrix(600,0,0,-600,-19.968,1145)"/>
<path style="fill:none;stroke-width:0.011;stroke-linecap:round;stroke-linejoin:miter;stroke:rgb(0%,0%,0%);stroke-opacity:1;stroke-miterlimit:10;" d="M 0.0978308 1.004427 L 0.087987 0.99459 " transform="matrix(600,0,0,-600,-19.968,1145)"/>
<path style="fill:none;stroke-width:0.011;stroke-linecap:round;stroke-linejoin:miter;stroke:rgb(0%,0%,0%);stroke-opacity:1;stroke-miterlimit:10;" d="M 0.0683126 0.969499 L 0.0683126 0.93013 " transform="matrix(600,0,0,-600,-19.968,1145)"/>
<path style="fill:none;stroke-width:0.011;stroke-linecap:round;stroke-linejoin:miter;stroke:rgb(0%,0%,0%);stroke-opacity:1;stroke-miterlimit:10;" d="M 0.0683126 0.93013 L 0.0387813 0.959661 " transform="matrix(600,0,0,-600,-19.968,1145)"/>
<path style="fill:none;stroke-width:0.011;stroke-linecap:round;stroke-linejoin:miter;stroke:rgb(0%,0%,0%);stroke-opacity:1;stroke-miterlimit:10;" d="M 0.0387813 0.959661 L 0.0978308 0.959661 " transform="matrix(600,0,0,-600,-19.968,1145)"/>
<path style="fill:none;stroke-width:0.011;stroke-linecap:round;stroke-linejoin:miter;stroke:rgb(0%,0%,0%);stroke-opacity:1;stroke-miterlimit:10;" d="M 0.0978308 0.907741 L 0.0978308 0.897897 " transform="matrix(600,0,0,-600,-19.968,1145)"/>
<path style="fill:none;stroke-width:0.011;stroke-linecap:round;stroke-linejoin:miter;stroke:rgb(0%,0%,0%);stroke-opacity:1;stroke-miterlimit:10;" d="M 0.0978308 0.897897 L 0.087987 0.897897 " transform="matrix(600,0,0,-600,-19.968,1145)"/>
<path style="fill:none;stroke-width:0.011;stroke-linecap:round;stroke-linejoin:miter;stroke:rgb(0%,0%,0%);stroke-opacity:1;stroke-miterlimit:10;" d="M 0.087987 0.897897 L 0.087987 0.907741 " transform="matrix(600,0,0,-600,-19.968,1145)"/>
<path style="fill:none;stroke-width:0.011;stroke-linecap:round;stroke-linejoin:miter;stroke:rgb(0%,0%,0%);stroke-opacity:1;stroke-miterlimit:10;" d="M 0.087987 0.907741 L 0.0978308 0.907741 " transform="matrix(600,0,0,-600,-19.968,1145)"/>
<path style="fill:none;stroke-width:0.011;stroke-linecap:round;stroke-linejoin:miter;stroke:rgb(0%,0%,0%);stroke-opacity:1;stroke-miterlimit:10;" d="M 0.0978308 0.862969 L 0.0387813 0.862969 " transform="matrix(600,0,0,-600,-19.968,1145)"/>
<path style="fill:none;stroke-width:0.011;stroke-linecap:round;stroke-linejoin:miter;stroke:rgb(0%,0%,0%);stroke-opacity:1;stroke-miterlimit:10;" d="M 0.0387813 0.862969 L 0.0683126 0.833451 " transform="matrix(600,0,0,-600,-19.968,1145)"/>
<path style="fill:none;stroke-width:0.011;stroke-linecap:round;stroke-linejoin:miter;stroke:rgb(0%,0%,0%);stroke-opacity:1;stroke-miterlimit:10;" d="M 0.0683126 0.833451 L 0.0683126 0.872812 " transform="matrix(600,0,0,-600,-19.968,1145)"/>
<path style="fill:none;stroke-width:0.011;stroke-linecap:round;stroke-linejoin:miter;stroke:rgb(0%,0%,0%);stroke-opacity:1;stroke-miterlimit:10;" d="M 0.0683126 0.808359 L 0.0683126 0.768991 " transform="matrix(600,0,0,-600,-19.968,1145)"/>
<path style="fill:none;stroke-width:0.011;stroke-linecap:round;stroke-linejoin:miter;stroke:rgb(0%,0%,0%);stroke-opacity:1;stroke-miterlimit:10;" d="M 0.0683126 0.768991 L 0.0387813 0.798522 " transform="matrix(600,0,0,-600,-19.968,1145)"/>
<path style="fill:none;stroke-width:0.011;stroke-linecap:round;stroke-linejoin:miter;stroke:rgb(0%,0%,0%);stroke-opacity:1;stroke-miterlimit:10;" d="M 0.0387813 0.798522 L 0.0978308 0.798522 " transform="matrix(600,0,0,-600,-19.968,1145)"/>
<path style="fill:none;stroke-width:0.011;stroke-linecap:round;stroke-linejoin:miter;stroke:rgb(0%,0%,0%);stroke-opacity:1;stroke-miterlimit:10;" d="M 1.027968 1.843118 L 1.027968 1.902168 " transform="matrix(600,0,0,-600,-19.968,1145)"/>
<path style="fill:none;stroke-width:0.011;stroke-linecap:round;stroke-linejoin:miter;stroke:rgb(0%,0%,0%);stroke-opacity:1;stroke-miterlimit:10;" d="M 1.027968 1.902168 L 0.998449 1.872643 " transform="matrix(600,0,0,-600,-19.968,1145)"/>
<path style="fill:none;stroke-width:0.011;stroke-linecap:round;stroke-linejoin:miter;stroke:rgb(0%,0%,0%);stroke-opacity:1;stroke-miterlimit:10;" d="M 0.998449 1.872643 L 1.037818 1.872643 " transform="matrix(600,0,0,-600,-19.968,1145)"/>
<path style="fill:none;stroke-width:0.011;stroke-linecap:round;stroke-linejoin:miter;stroke:rgb(0%,0%,0%);stroke-opacity:1;stroke-miterlimit:10;" d="M 1.062902 1.852962 L 1.062902 1.843118 " transform="matrix(600,0,0,-600,-19.968,1145)"/>
<path style="fill:none;stroke-width:0.011;stroke-linecap:round;stroke-linejoin:miter;stroke:rgb(0%,0%,0%);stroke-opacity:1;stroke-miterlimit:10;" d="M 1.062902 1.852962 L 1.102271 1.892331 " transform="matrix(600,0,0,-600,-19.968,1145)"/>
<path style="fill:none;stroke-width:0.011;stroke-linecap:round;stroke-linejoin:miter;stroke:rgb(0%,0%,0%);stroke-opacity:1;stroke-miterlimit:10;" d="M 1.102271 1.892331 L 1.102271 1.902168 " transform="matrix(600,0,0,-600,-19.968,1145)"/>
<path style="fill:none;stroke-width:0.011;stroke-linecap:round;stroke-linejoin:miter;stroke:rgb(0%,0%,0%);stroke-opacity:1;stroke-miterlimit:10;" d="M 1.102271 1.902168 L 1.062902 1.902168 " transform="matrix(600,0,0,-600,-19.968,1145)"/>
<path style="fill:none;stroke-width:0.011;stroke-linecap:round;stroke-linejoin:miter;stroke:rgb(0%,0%,0%);stroke-opacity:1;stroke-miterlimit:10;" d="M 1.127362 1.852962 L 1.137199 1.852962 " transform="matrix(600,0,0,-600,-19.968,1145)"/>
<path style="fill:none;stroke-width:0.011;stroke-linecap:round;stroke-linejoin:miter;stroke:rgb(0%,0%,0%);stroke-opacity:1;stroke-miterlimit:10;" d="M 1.137199 1.852962 L 1.137199 1.843118 " transform="matrix(600,0,0,-600,-19.968,1145)"/>
<path style="fill:none;stroke-width:0.011;stroke-linecap:round;stroke-linejoin:miter;stroke:rgb(0%,0%,0%);stroke-opacity:1;stroke-miterlimit:10;" d="M 1.137199 1.843118 L 1.127362 1.843118 " transform="matrix(600,0,0,-600,-19.968,1145)"/>
<path style="fill:none;stroke-width:0.011;stroke-linecap:round;stroke-linejoin:miter;stroke:rgb(0%,0%,0%);stroke-opacity:1;stroke-miterlimit:10;" d="M 1.127362 1.843118 L 1.127362 1.852962 " transform="matrix(600,0,0,-600,-19.968,1145)"/>
<path style="fill:none;stroke-width:0.011;stroke-linecap:round;stroke-linejoin:miter;stroke:rgb(0%,0%,0%);stroke-opacity:1;stroke-miterlimit:10;" d="M 1.159589 1.852962 L 1.169432 1.843118 " transform="matrix(600,0,0,-600,-19.968,1145)"/>
<path style="fill:none;stroke-width:0.011;stroke-linecap:round;stroke-linejoin:miter;stroke:rgb(0%,0%,0%);stroke-opacity:1;stroke-miterlimit:10;" d="M 1.169432 1.843118 L 1.189107 1.843118 " transform="matrix(600,0,0,-600,-19.968,1145)"/>
<path style="fill:none;stroke-width:0.011;stroke-linecap:round;stroke-linejoin:miter;stroke:rgb(0%,0%,0%);stroke-opacity:1;stroke-miterlimit:10;" d="M 1.189107 1.843118 L 1.198951 1.852962 " transform="matrix(600,0,0,-600,-19.968,1145)"/>
<path style="fill:none;stroke-width:0.011;stroke-linecap:round;stroke-linejoin:miter;stroke:rgb(0%,0%,0%);stroke-opacity:1;stroke-miterlimit:10;" d="M 1.198951 1.852962 L 1.198951 1.892331 " transform="matrix(600,0,0,-600,-19.968,1145)"/>
<path style="fill:none;stroke-width:0.011;stroke-linecap:round;stroke-linejoin:miter;stroke:rgb(0%,0%,0%);stroke-opacity:1;stroke-miterlimit:10;" d="M 1.198951 1.892331 L 1.189107 1.902168 " transform="matrix(600,0,0,-600,-19.968,1145)"/>
<path style="fill:none;stroke-width:0.011;stroke-linecap:round;stroke-linejoin:miter;stroke:rgb(0%,0%,0%);stroke-opacity:1;stroke-miterlimit:10;" d="M 1.189107 1.902168 L 1.169432 1.902168 " transform="matrix(600,0,0,-600,-19.968,1145)"/>
<path style="fill:none;stroke-width:0.011;stroke-linecap:round;stroke-linejoin:miter;stroke:rgb(0%,0%,0%);stroke-opacity:1;stroke-miterlimit:10;" d="M 1.169432 1.902168 L 1.159589 1.892331 " transform="matrix(600,0,0,-600,-19.968,1145)"/>
<path style="fill:none;stroke-width:0.011;stroke-linecap:round;stroke-linejoin:miter;stroke:rgb(0%,0%,0%);stroke-opacity:1;stroke-miterlimit:10;" d="M 1.159589 1.892331 L 1.159589 1.88248 " transform="matrix(600,0,0,-600,-19.968,1145)"/>
<path style="fill:none;stroke-width:0.011;stroke-linecap:round;stroke-linejoin:miter;stroke:rgb(0%,0%,0%);stroke-opacity:1;stroke-miterlimit:10;" d="M 1.159589 1.88248 L 1.169432 1.872643 " transform="matrix(600,0,0,-600,-19.968,1145)"/>
<path style="fill:none;stroke-width:0.011;stroke-linecap:round;stroke-linejoin:miter;stroke:rgb(0%,0%,0%);stroke-opacity:1;stroke-miterlimit:10;" d="M 1.169432 1.872643 L 1.198951 1.872643 " transform="matrix(600,0,0,-600,-19.968,1145)"/>
<path style="fill:none;stroke-width:0.011;stroke-linecap:round;stroke-linejoin:miter;stroke:rgb(0%,0%,0%);stroke-opacity:1;stroke-miterlimit:10;" d="M 1.224042 1.852962 L 1.233879 1.843118 " transform="matrix(600,0,0,-600,-19.968,1145)"/>
<path style="fill:none;stroke-width:0.011;stroke-linecap:round;stroke-linejoin:miter;stroke:rgb(0%,0%,0%);stroke-opacity:1;stroke-miterlimit:10;" d="M 1.233879 1.843118 L 1.253573 1.843118 " transform="matrix(600,0,0,-600,-19.968,1145)"/>
<path style="fill:none;stroke-width:0.011;stroke-linecap:round;stroke-linejoin:miter;stroke:rgb(0%,0%,0%);stroke-opacity:1;stroke-miterlimit:10;" d="M 1.253573 1.843118 L 1.26341 1.852962 " transform="matrix(600,0,0,-600,-19.968,1145)"/>
<path style="fill:none;stroke-width:0.011;stroke-linecap:round;stroke-linejoin:miter;stroke:rgb(0%,0%,0%);stroke-opacity:1;stroke-miterlimit:10;" d="M 1.26341 1.852962 L 1.26341 1.862799 " transform="matrix(600,0,0,-600,-19.968,1145)"/>
<path style="fill:none;stroke-width:0.011;stroke-linecap:round;stroke-linejoin:miter;stroke:rgb(0%,0%,0%);stroke-opacity:1;stroke-miterlimit:10;" d="M 1.26341 1.862799 L 1.253573 1.872643 " transform="matrix(600,0,0,-600,-19.968,1145)"/>
<path style="fill:none;stroke-width:0.011;stroke-linecap:round;stroke-linejoin:miter;stroke:rgb(0%,0%,0%);stroke-opacity:1;stroke-miterlimit:10;" d="M 1.253573 1.872643 L 1.243723 1.872643 " transform="matrix(600,0,0,-600,-19.968,1145)"/>
<path style="fill:none;stroke-width:0.011;stroke-linecap:round;stroke-linejoin:miter;stroke:rgb(0%,0%,0%);stroke-opacity:1;stroke-miterlimit:10;" d="M 1.253573 1.872643 L 1.26341 1.88248 " transform="matrix(600,0,0,-600,-19.968,1145)"/>
<path style="fill:none;stroke-width:0.011;stroke-linecap:round;stroke-linejoin:miter;stroke:rgb(0%,0%,0%);stroke-opacity:1;stroke-miterlimit:10;" d="M 1.26341 1.88248 L 1.26341 1.892331 " transform="matrix(600,0,0,-600,-19.968,1145)"/>
<path style="fill:none;stroke-width:0.011;stroke-linecap:round;stroke-linejoin:miter;stroke:rgb(0%,0%,0%);stroke-opacity:1;stroke-miterlimit:10;" d="M 1.26341 1.892331 L 1.253573 1.902168 " transform="matrix(600,0,0,-600,-19.968,1145)"/>
<path style="fill:none;stroke-width:0.011;stroke-linecap:round;stroke-linejoin:miter;stroke:rgb(0%,0%,0%);stroke-opacity:1;stroke-miterlimit:10;" d="M 1.253573 1.902168 L 1.233879 1.902168 " transform="matrix(600,0,0,-600,-19.968,1145)"/>
<path style="fill:none;stroke-width:0.011;stroke-linecap:round;stroke-linejoin:miter;stroke:rgb(0%,0%,0%);stroke-opacity:1;stroke-miterlimit:10;" d="M 1.233879 1.902168 L 1.224042 1.892331 " transform="matrix(600,0,0,-600,-19.968,1145)"/>
<path style="fill:none;stroke-width:0.052;stroke-linecap:round;stroke-linejoin:miter;stroke:rgb(0%,0%,0%);stroke-opacity:1;stroke-miterlimit:10;" d="M 0.475949 0.838997 L 0.475949 0.891003 " transform="matrix(600,0,0,-600,-19.968,1145)"/>
<path style="fill:none;stroke-width:0.052;stroke-linecap:round;stroke-linejoin:miter;stroke:rgb(0%,0%,0%);stroke-opacity:1;stroke-miterlimit:10;" d="M 0.575949 0.891003 L 0.575949 0.838997 " transform="matrix(600,0,0,-600,-19.968,1145)"/>
<path style="fill:none;stroke-width:0.052;stroke-linecap:round;stroke-linejoin:miter;stroke:rgb(0%,0%,0%);stroke-opacity:1;stroke-miterlimit:10;" d="M 0.675949 0.838997 L 0.675949 0.891003 " transform="matrix(600,0,0,-600,-19.968,1145)"/>
<path style="fill:none;stroke-width:0.052;stroke-linecap:round;stroke-linejoin:miter;stroke:rgb(0%,0%,0%);stroke-opacity:1;stroke-miterlimit:10;" d="M 0.775949 0.891003 L 0.775949 0.838997 " transform="matrix(600,0,0,-600,-19.968,1145)"/>
<path style="fill:none;stroke-width:0.052;stroke-linecap:round;stroke-linejoin:miter;stroke:rgb(0%,0%,0%);stroke-opacity:1;stroke-miterlimit:10;" d="M 0.775949 1.138997 L 0.775949 1.191003 " transform="matrix(600,0,0,-600,-19.968,1145)"/>
<path style="fill:none;stroke-width:0.052;stroke-linecap:round;stroke-linejoin:miter;stroke:rgb(0%,0%,0%);stroke-opacity:1;stroke-miterlimit:10;" d="M 0.675949 1.191003 L 0.675949 1.138997 " transform="matrix(600,0,0,-600,-19.968,1145)"/>
<path style="fill:none;stroke-width:0.052;stroke-linecap:round;stroke-linejoin:miter;stroke:rgb(0%,0%,0%);stroke-opacity:1;stroke-miterlimit:10;" d="M 0.575949 1.138997 L 0.575949 1.191003 " transform="matrix(600,0,0,-600,-19.968,1145)"/>
<path style="fill:none;stroke-width:0.052;stroke-linecap:round;stroke-linejoin:miter;stroke:rgb(0%,0%,0%);stroke-opacity:1;stroke-miterlimit:10;" d="M 0.475949 1.191003 L 0.475949 1.138997 " transform="matrix(600,0,0,-600,-19.968,1145)"/>
<path style="fill:none;stroke-width:0.052;stroke-linecap:round;stroke-linejoin:miter;stroke:rgb(0%,0%,0%);stroke-opacity:1;stroke-miterlimit:10;" d="M 1.475949 1.138997 L 1.475949 1.191003 " transform="matrix(600,0,0,-600,-19.968,1145)"/>
<path style="fill:none;stroke-width:0.052;stroke-linecap:round;stroke-linejoin:miter;stroke:rgb(0%,0%,0%);stroke-opacity:1;stroke-miterlimit:10;" d="M 1.575949 1.191003 L 1.575949 1.138997 " transform="matrix(600,0,0,-600,-19.968,1145)"/>
<path style="fill:none;stroke-width:0.052;stroke-linecap:round;stroke-linejoin:miter;stroke:rgb(0%,0%,0%);stroke-opacity:1;stroke-miterlimit:10;" d="M 1.675949 1.138997 L 1.675949 1.191003 " transform="matrix(600,0,0,-600,-19.968,1145)"/>
<path style="fill:none;stroke-width:0.052;stroke-linecap:round;stroke-linejoin:miter;stroke:rgb(0%,0%,0%);stroke-opacity:1;stroke-miterlimit:10;" d="M 1.775949 1.191003 L 1.775949 1.138997 " transform="matrix(600,0,0,-600,-19.968,1145)"/>
<path style="fill:none;stroke-width:0.052;stroke-linecap:round;stroke-linejoin:miter;stroke:rgb(0%,0%,0%);stroke-opacity:1;stroke-miterlimit:10;" d="M 1.775949 0.891003 L 1.775949 0.838997 " transform="matrix(600,0,0,-600,-19.968,1145)"/>
<path style="fill:none;stroke-width:0.052;stroke-linecap:round;stroke-linejoin:miter;stroke:rgb(0%,0%,0%);stroke-opacity:1;stroke-miterlimit:10;" d="M 1.675949 0.838997 L 1.675949 0.891003 " transform="matrix(600,0,0,-600,-19.968,1145)"/>
<path style="fill:none;stroke-width:0.052;stroke-linecap:round;stroke-linejoin:miter;stroke:rgb(0%,0%,0%);stroke-opacity:1;stroke-miterlimit:10;" d="M 1.575949 0.891003 L 1.575949 0.838997 " transform="matrix(600,0,0,-600,-19.968,1145)"/>
<path style="fill:none;stroke-width:0.052;stroke-linecap:round;stroke-linejoin:miter;stroke:rgb(0%,0%,0%);stroke-opacity:1;stroke-miterlimit:10;" d="M 1.475949 0.838997 L 1.475949 0.891003 " transform="matrix(600,0,0,-600,-19.968,1145)"/>
<path style="fill:none;stroke-width:0.06;stroke-linecap:round;stroke-linejoin:miter;stroke:rgb(0%,0%,0%);stroke-opacity:1;stroke-miterlimit:10;" d="M 1.275949 0.395 L 1.275949 0.335 " transform="matrix(600,0,0,-600,-19.968,1145)"/>
<path style="fill:none;stroke-width:0.06;stroke-linecap:round;stroke-linejoin:miter;stroke:rgb(0%,0%,0%);stroke-opacity:1;stroke-miterlimit:10;" d="M 1.175949 0.335 L 1.175949 0.395 " transform="matrix(600,0,0,-600,-19.968,1145)"/>
<path style="fill:none;stroke-width:0.06;stroke-linecap:round;stroke-linejoin:miter;stroke:rgb(0%,0%,0%);stroke-opacity:1;stroke-miterlimit:10;" d="M 1.075949 0.395 L 1.075949 0.335 " transform="matrix(600,0,0,-600,-19.968,1145)"/>
<path style="fill:none;stroke-width:0.06;stroke-linecap:round;stroke-linejoin:miter;stroke:rgb(0%,0%,0%);stroke-opacity:1;stroke-miterlimit:10;" d="M 0.975949 0.335 L 0.975949 0.395 " transform="matrix(600,0,0,-600,-19.968,1145)"/>
<path style="fill:none;stroke-width:0.06;stroke-linecap:round;stroke-linejoin:miter;stroke:rgb(0%,0%,0%);stroke-opacity:1;stroke-miterlimit:10;" d="M 0.875949 0.395 L 0.875949 0.335 " transform="matrix(600,0,0,-600,-19.968,1145)"/>
<path style="fill:none;stroke-width:0.06;stroke-linecap:round;stroke-linejoin:miter;stroke:rgb(0%,0%,0%);stroke-opacity:1;stroke-miterlimit:10;" d="M 0.775949 0.335 L 0.775949 0.395 " transform="matrix(600,0,0,-600,-19.968,1145)"/>
<path style="fill:none;stroke-width:0.06;stroke-linecap:round;stroke-linejoin:miter;stroke:rgb(0%,0%,0%);stroke-opacity:1;stroke-miterlimit:10;" d="M 1.075949 1.385 L 1.075949 1.445 " transform="matrix(600,0,0,-600,-19.968,1145)"/>
<path style="fill:none;stroke-width:0.06;stroke-linecap:round;stroke-linejoin:miter;stroke:rgb(0%,0%,0%);stroke-opacity:1;stroke-miterlimit:10;" d="M 1.175949 1.445 L 1.175949 1.385 " transform="matrix(600,0,0,-600,-19.968,1145)"/>
<path style="fill:none;stroke-width:0.06;stroke-linecap:round;stroke-linejoin:miter;stroke:rgb(0%,0%,0%);stroke-opacity:1;stroke-miterlimit:10;" d="M 1.275949 1.385 L 1.275949 1.445 " transform="matrix(600,0,0,-600,-19.968,1145)"/>
<path style=" stroke:none;fill-rule:evenodd;fill:rgb(0%,0%,0%);fill-opacity:1;" d="M 881.203125 289.539062 L 872.0625 280.398438 L 859.140625 280.398438 L 850.003906 289.539062 L 850.003906 302.460938 L 859.140625 311.601562 L 872.0625 311.601562 L 881.203125 302.460938 L 881.203125 289.539062 "/>
<path style=" stroke:none;fill-rule:evenodd;fill:rgb(0%,0%,0%);fill-opacity:1;" d="M 881.203125 349.539062 L 872.0625 340.398438 L 859.140625 340.398438 L 850.003906 349.539062 L 850.003906 362.460938 L 859.140625 371.601562 L 872.0625 371.601562 L 881.203125 362.460938 L 881.203125 349.539062 "/>
<path style=" stroke:none;fill-rule:evenodd;fill:rgb(0%,0%,0%);fill-opacity:1;" d="M 791.203125 439.539062 L 782.0625 430.398438 L 769.140625 430.398438 L 760.003906 439.539062 L 760.003906 452.460938 L 769.140625 461.601562 L 782.0625 461.601562 L 791.203125 452.460938 L 791.203125 439.539062 "/>
<path style=" stroke:none;fill-rule:evenodd;fill:rgb(0%,0%,0%);fill-opacity:1;" d="M 791.203125 619.539062 L 782.0625 610.398438 L 769.140625 610.398438 L 760.003906 619.539062 L 760.003906 632.460938 L 769.140625 641.601562 L 782.0625 641.601562 L 791.203125 632.460938 L 791.203125 619.539062 "/>
<path style=" stroke:none;fill-rule:evenodd;fill:rgb(0%,0%,0%);fill-opacity:1;" d="M 881.203125 709.539062 L 872.0625 700.398438 L 859.140625 700.398438 L 850.003906 709.539062 L 850.003906 722.460938 L 859.140625 731.601562 L 872.0625 731.601562 L 881.203125 722.460938 L 881.203125 709.539062 "/>
<path style=" stroke:none;fill-rule:evenodd;fill:rgb(0%,0%,0%);fill-opacity:1;" d="M 941.203125 709.539062 L 932.0625 700.398438 L 919.140625 700.398438 L 910.003906 709.539062 L 910.003906 722.460938 L 919.140625 731.601562 L 932.0625 731.601562 L 941.203125 722.460938 L 941.203125 709.539062 "/>
<path style=" stroke:none;fill-rule:evenodd;fill:rgb(0%,0%,0%);fill-opacity:1;" d="M 1001.203125 349.539062 L 992.0625 340.398438 L 979.140625 340.398438 L 970.003906 349.539062 L 970.003906 362.460938 L 979.140625 371.601562 L 992.0625 371.601562 L 1001.203125 362.460938 L 1001.203125 349.539062 "/>
<path style=" stroke:none;fill-rule:evenodd;fill:rgb(0%,0%,0%);fill-opacity:1;" d="M 1001.203125 289.539062 L 992.0625 280.398438 L 979.140625 280.398438 L 970.003906 289.539062 L 970.003906 302.460938 L 979.140625 311.601562 L 992.0625 311.601562 L 1001.203125 302.460938 L 1001.203125 289.539062 "/>
<path style=" stroke:none;fill-rule:evenodd;fill:rgb(0%,0%,0%);fill-opacity:1;" d="M 1091.203125 289.539062 L 1082.0625 280.398438 L 1069.140625 280.398438 L 1060.003906 289.539062 L 1060.003906 302.460938 L 1069.140625 311.601562 L 1082.0625 311.601562 L 1091.203125 302.460938 L 1091.203125 289.539062 "/>
<path style=" stroke:none;fill-rule:evenodd;fill:rgb(0%,0%,0%);fill-opacity:1;" d="M 1091.203125 349.539062 L 1082.0625 340.398438 L 1069.140625 340.398438 L 1060.003906 349.539062 L 1060.003906 362.460938 L 1069.140625 371.601562 L 1082.0625 371.601562 L 1091.203125 362.460938 L 1091.203125 349.539062 "/>
<path style=" stroke:none;fill-rule:evenodd;fill:rgb(0%,0%,0%);fill-opacity:1;" d="M 491.203125 349.539062 L 482.0625 340.398438 L 469.140625 340.398438 L 460.003906 349.539062 L 460.003906 362.460938 L 469.140625 371.601562 L 482.0625 371.601562 L 491.203125 362.460938 L 491.203125 349.539062 "/>
<path style=" stroke:none;fill-rule:evenodd;fill:rgb(0%,0%,0%);fill-opacity:1;" d="M 491.203125 289.539062 L 482.0625 280.398438 L 469.140625 280.398438 L 460.003906 289.539062 L 460.003906 302.460938 L 469.140625 311.601562 L 482.0625 311.601562 L 491.203125 302.460938 L 491.203125 289.539062 "/>
<path style=" stroke:none;fill-rule:evenodd;fill:rgb(0%,0%,0%);fill-opacity:1;" d="M 401.203125 289.539062 L 392.0625 280.398438 L 379.140625 280.398438 L 370.003906 289.539062 L 370.003906 302.460938 L 379.140625 311.601562 L 392.0625 311.601562 L 401.203125 302.460938 L 401.203125 289.539062 "/>
<path style=" stroke:none;fill-rule:evenodd;fill:rgb(0%,0%,0%);fill-opacity:1;" d="M 401.203125 349.539062 L 392.0625 340.398438 L 379.140625 340.398438 L 370.003906 349.539062 L 370.003906 362.460938 L 379.140625 371.601562 L 392.0625 371.601562 L 401.203125 362.460938 L 401.203125 349.539062 "/>
<path style=" stroke:none;fill-rule:evenodd;fill:rgb(0%,0%,0%);fill-opacity:1;" d="M 281.203125 349.539062 L 272.0625 340.398438 L 259.140625 340.398438 L 250.003906 349.539062 L 250.003906 362.460938 L 259.140625 371.601562 L 272.0625 371.601562 L 281.203125 362.460938 L 281.203125 349.539062 "/>
<path style=" stroke:none;fill-rule:evenodd;fill:rgb(0%,0%,0%);fill-opacity:1;" d="M 281.203125 289.539062 L 272.0625 280.398438 L 259.140625 280.398438 L 250.003906 289.539062 L 250.003906 302.460938 L 259.140625 311.601562 L 272.0625 311.601562 L 281.203125 302.460938 L 281.203125 289.539062 "/>
<path style=" stroke:none;fill-rule:evenodd;fill:rgb(0%,0%,0%);fill-opacity:1;" d="M 191.203125 439.539062 L 182.0625 430.398438 L 169.140625 430.398438 L 160.003906 439.539062 L 160.003906 452.460938 L 169.140625 461.601562 L 182.0625 461.601562 L 191.203125 452.460938 L 191.203125 439.539062 "/>
<path style=" stroke:none;fill-rule:evenodd;fill:rgb(0%,0%,0%);fill-opacity:1;" d="M 191.203125 619.539062 L 182.0625 610.398438 L 169.140625 610.398438 L 160.003906 619.539062 L 160.003906 632.460938 L 169.140625 641.601562 L 182.0625 641.601562 L 191.203125 632.460938 L 191.203125 619.539062 "/>
<path style=" stroke:none;fill-rule:evenodd;fill:rgb(0%,0%,0%);fill-opacity:1;" d="M 281.203125 709.539062 L 272.0625 700.398438 L 259.140625 700.398438 L 250.003906 709.539062 L 250.003906 722.460938 L 259.140625 731.601562 L 272.0625 731.601562 L 281.203125 722.460938 L 281.203125 709.539062 "/>
<path style=" stroke:none;fill-rule:evenodd;fill:rgb(0%,0%,0%);fill-opacity:1;" d="M 341.203125 709.539062 L 332.0625 700.398438 L 319.140625 700.398438 L 310.003906 709.539062 L 310.003906 722.460938 L 319.140625 731.601562 L 332.0625 731.601562 L 341.203125 722.460938 L 341.203125 709.539062 "/>
<path style=" stroke:none;fill-rule:evenodd;fill:rgb(0%,0%,0%);fill-opacity:1;" d="M 238.601562 1046 C 238.601562 1011.207031 210.394531 983 175.601562 983 C 140.808594 983 112.601562 1011.207031 112.601562 1046 C 112.601562 1080.792969 140.808594 1109 175.601562 1109 C 210.394531 1109 238.601562 1080.792969 238.601562 1046 "/>
<path style=" stroke:none;fill-rule:evenodd;fill:rgb(0%,0%,0%);fill-opacity:1;" d="M 238.601562 176 C 238.601562 141.207031 210.394531 113 175.601562 113 C 140.808594 113 112.601562 141.207031 112.601562 176 C 112.601562 210.792969 140.808594 239 175.601562 239 C 210.394531 239 238.601562 210.792969 238.601562 176 "/>
<path style=" stroke:none;fill-rule:evenodd;fill:rgb(0%,0%,0%);fill-opacity:1;" d="M 1198.601562 176 C 1198.601562 141.207031 1170.394531 113 1135.601562 113 C 1100.808594 113 1072.601562 141.207031 1072.601562 176 C 1072.601562 210.792969 1100.808594 239 1135.601562 239 C 1170.394531 239 1198.601562 210.792969 1198.601562 176 "/>
<path style=" stroke:none;fill-rule:evenodd;fill:rgb(0%,0%,0%);fill-opacity:1;" d="M 1198.601562 1046 C 1198.601562 1011.207031 1170.394531 983 1135.601562 983 C 1100.808594 983 1072.601562 1011.207031 1072.601562 1046 C 1072.601562 1080.792969 1100.808594 1109 1135.601562 1109 C 1170.394531 1109 1198.601562 1080.792969 1198.601562 1046 "/>
<path style="fill:none;stroke-width:0.04;stroke-linecap:round;stroke-linejoin:miter;stroke:rgb(0%,0%,0%);stroke-opacity:1;stroke-miterlimit:10;" d="M 1.775949 0.415 L 1.425949 0.115 " transform="matrix(600,0,0,-600,-19.968,1145)"/>
<path style="fill:none;stroke-width:0.04;stroke-linecap:round;stroke-linejoin:miter;stroke:rgb(0%,0%,0%);stroke-opacity:1;stroke-miterlimit:10;" d="M 1.425949 0.115 L 0.875949 0.115 " transform="matrix(600,0,0,-600,-19.968,1145)"/>
<path style="fill:none;stroke-width:0.04;stroke-linecap:round;stroke-linejoin:miter;stroke:rgb(0%,0%,0%);stroke-opacity:1;stroke-miterlimit:10;" d="M 0.875949 0.115 L 0.875949 0.365 " transform="matrix(600,0,0,-600,-19.968,1145)"/>
<path style="fill:none;stroke-width:0.04;stroke-linecap:round;stroke-linejoin:miter;stroke:rgb(0%,0%,0%);stroke-opacity:1;stroke-miterlimit:10;" d="M 0.875949 0.365 L 0.875949 0.615 " transform="matrix(600,0,0,-600,-19.968,1145)"/>
<path style="fill:none;stroke-width:0.04;stroke-linecap:round;stroke-linejoin:miter;stroke:rgb(0%,0%,0%);stroke-opacity:1;stroke-miterlimit:10;" d="M 0.975949 0.615 L 0.975949 0.365 " transform="matrix(600,0,0,-600,-19.968,1145)"/>
<path style="fill:none;stroke-width:0.04;stroke-linecap:round;stroke-linejoin:miter;stroke:rgb(0%,0%,0%);stroke-opacity:1;stroke-miterlimit:10;" d="M 1.075949 0.365 L 1.075949 0.715 " transform="matrix(600,0,0,-600,-19.968,1145)"/>
<path style="fill:none;stroke-width:0.04;stroke-linecap:round;stroke-linejoin:miter;stroke:rgb(0%,0%,0%);stroke-opacity:1;stroke-miterlimit:10;" d="M 1.075949 0.715 L 0.675949 0.715 " transform="matrix(600,0,0,-600,-19.968,1145)"/>
<path style="fill:none;stroke-width:0.04;stroke-linecap:round;stroke-linejoin:miter;stroke:rgb(0%,0%,0%);stroke-opacity:1;stroke-miterlimit:10;" d="M 0.675949 0.715 L 0.675949 0.865 " transform="matrix(600,0,0,-600,-19.968,1145)"/>
<path style="fill:none;stroke-width:0.04;stroke-linecap:round;stroke-linejoin:miter;stroke:rgb(0%,0%,0%);stroke-opacity:1;stroke-miterlimit:10;" d="M 0.575949 0.865 L 0.575949 0.965 " transform="matrix(600,0,0,-600,-19.968,1145)"/>
<path style="fill:none;stroke-width:0.04;stroke-linecap:round;stroke-linejoin:miter;stroke:rgb(0%,0%,0%);stroke-opacity:1;stroke-miterlimit:10;" d="M 0.575949 0.965 L 1.125949 0.965 " transform="matrix(600,0,0,-600,-19.968,1145)"/>
<path style="fill:none;stroke-width:0.04;stroke-linecap:round;stroke-linejoin:miter;stroke:rgb(0%,0%,0%);stroke-opacity:1;stroke-miterlimit:10;" d="M 1.125949 0.965 L 1.125949 1.265 " transform="matrix(600,0,0,-600,-19.968,1145)"/>
<path style="fill:none;stroke-width:0.04;stroke-linecap:round;stroke-linejoin:miter;stroke:rgb(0%,0%,0%);stroke-opacity:1;stroke-miterlimit:10;" d="M 1.125949 1.265 L 1.175949 1.265 " transform="matrix(600,0,0,-600,-19.968,1145)"/>
<path style="fill:none;stroke-width:0.04;stroke-linecap:round;stroke-linejoin:miter;stroke:rgb(0%,0%,0%);stroke-opacity:1;stroke-miterlimit:10;" d="M 1.175949 1.265 L 1.375949 1.265 " transform="matrix(600,0,0,-600,-19.968,1145)"/>
<path style="fill:none;stroke-width:0.04;stroke-linecap:round;stroke-linejoin:miter;stroke:rgb(0%,0%,0%);stroke-opacity:1;stroke-miterlimit:10;" d="M 1.375949 1.265 L 1.375949 1.415 " transform="matrix(600,0,0,-600,-19.968,1145)"/>
<path style="fill:none;stroke-width:0.04;stroke-linecap:round;stroke-linejoin:miter;stroke:rgb(0%,0%,0%);stroke-opacity:1;stroke-miterlimit:10;" d="M 1.375949 1.415 L 1.475949 1.415 " transform="matrix(600,0,0,-600,-19.968,1145)"/>
<path style="fill:none;stroke-width:0.04;stroke-linecap:round;stroke-linejoin:miter;stroke:rgb(0%,0%,0%);stroke-opacity:1;stroke-miterlimit:10;" d="M 1.475949 1.415 L 1.675949 1.415 " transform="matrix(600,0,0,-600,-19.968,1145)"/>
<path style="fill:none;stroke-width:0.04;stroke-linecap:round;stroke-linejoin:miter;stroke:rgb(0%,0%,0%);stroke-opacity:1;stroke-miterlimit:10;" d="M 1.675949 1.315 L 1.675949 1.165 " transform="matrix(600,0,0,-600,-19.968,1145)"/>
<path style="fill:none;stroke-width:0.04;stroke-linecap:round;stroke-linejoin:miter;stroke:rgb(0%,0%,0%);stroke-opacity:1;stroke-miterlimit:10;" d="M 1.575949 1.165 L 1.575949 1.065 " transform="matrix(600,0,0,-600,-19.968,1145)"/>
<path style="fill:none;stroke-width:0.04;stroke-linecap:round;stroke-linejoin:miter;stroke:rgb(0%,0%,0%);stroke-opacity:1;stroke-miterlimit:10;" d="M 1.575949 1.065 L 1.225949 1.065 " transform="matrix(600,0,0,-600,-19.968,1145)"/>
<path style="fill:none;stroke-width:0.04;stroke-linecap:round;stroke-linejoin:miter;stroke:rgb(0%,0%,0%);stroke-opacity:1;stroke-miterlimit:10;" d="M 1.225949 1.065 L 1.225949 1.165 " transform="matrix(600,0,0,-600,-19.968,1145)"/>
<path style="fill:none;stroke-width:0.04;stroke-linecap:round;stroke-linejoin:miter;stroke:rgb(0%,0%,0%);stroke-opacity:1;stroke-miterlimit:10;" d="M 1.325949 1.165 L 1.475949 1.165 " transform="matrix(600,0,0,-600,-19.968,1145)"/>
<path style="fill:none;stroke-width:0.04;stroke-linecap:round;stroke-linejoin:miter;stroke:rgb(0%,0%,0%);stroke-opacity:1;stroke-miterlimit:10;" d="M 1.475949 1.165 L 1.475949 1.315 " transform="matrix(600,0,0,-600,-19.968,1145)"/>
<path style="fill:none;stroke-width:0.04;stroke-linecap:round;stroke-linejoin:miter;stroke:rgb(0%,0%,0%);stroke-opacity:1;stroke-miterlimit:10;" d="M 1.275949 1.415 L 1.275949 1.565 " transform="matrix(600,0,0,-600,-19.968,1145)"/>
<path style="fill:none;stroke-width:0.04;stroke-linecap:round;stroke-linejoin:miter;stroke:rgb(0%,0%,0%);stroke-opacity:1;stroke-miterlimit:10;" d="M 1.275949 1.565 L 1.675949 1.565 " transform="matrix(600,0,0,-600,-19.968,1145)"/>
<path style="fill:none;stroke-width:0.04;stroke-linecap:round;stroke-linejoin:miter;stroke:rgb(0%,0%,0%);stroke-opacity:1;stroke-miterlimit:10;" d="M 1.675949 1.565 L 1.825949 1.415 " transform="matrix(600,0,0,-600,-19.968,1145)"/>
<path style="fill:none;stroke-width:0.04;stroke-linecap:round;stroke-linejoin:miter;stroke:rgb(0%,0%,0%);stroke-opacity:1;stroke-miterlimit:10;" d="M 1.825949 1.315 L 1.825949 1.215 " transform="matrix(600,0,0,-600,-19.968,1145)"/>
<path style="fill:none;stroke-width:0.04;stroke-linecap:round;stroke-linejoin:miter;stroke:rgb(0%,0%,0%);stroke-opacity:1;stroke-miterlimit:10;" d="M 1.825949 1.215 L 1.775949 1.165 " transform="matrix(600,0,0,-600,-19.968,1145)"/>
<path style="fill:none;stroke-width:0.04;stroke-linecap:round;stroke-linejoin:miter;stroke:rgb(0%,0%,0%);stroke-opacity:1;stroke-miterlimit:10;" d="M 1.575949 0.965 L 1.125949 0.965 " transform="matrix(600,0,0,-600,-19.968,1145)"/>
<path style="fill:none;stroke-width:0.04;stroke-linecap:round;stroke-linejoin:miter;stroke:rgb(0%,0%,0%);stroke-opacity:1;stroke-miterlimit:10;" d="M 0.975949 1.065 L 0.975949 1.165 " transform="matrix(600,0,0,-600,-19.968,1145)"/>
<path style="fill:none;stroke-width:0.04;stroke-linecap:round;stroke-linejoin:miter;stroke:rgb(0%,0%,0%);stroke-opacity:1;stroke-miterlimit:10;" d="M 0.975949 1.065 L 0.575949 1.065 " transform="matrix(600,0,0,-600,-19.968,1145)"/>
<path style="fill:none;stroke-width:0.04;stroke-linecap:round;stroke-linejoin:miter;stroke:rgb(0%,0%,0%);stroke-opacity:1;stroke-miterlimit:10;" d="M 0.575949 1.065 L 0.575949 1.165 " transform="matrix(600,0,0,-600,-19.968,1145)"/>
<path style="fill:none;stroke-width:0.04;stroke-linecap:round;stroke-linejoin:miter;stroke:rgb(0%,0%,0%);stroke-opacity:1;stroke-miterlimit:10;" d="M 0.475949 1.165 L 0.325949 1.165 " transform="matrix(600,0,0,-600,-19.968,1145)"/>
<path style="fill:none;stroke-width:0.04;stroke-linecap:round;stroke-linejoin:miter;stroke:rgb(0%,0%,0%);stroke-opacity:1;stroke-miterlimit:10;" d="M 0.475949 1.165 L 0.475949 1.315 " transform="matrix(600,0,0,-600,-19.968,1145)"/>
<path style="fill:none;stroke-width:0.04;stroke-linecap:round;stroke-linejoin:miter;stroke:rgb(0%,0%,0%);stroke-opacity:1;stroke-miterlimit:10;" d="M 0.475949 1.415 L 0.675949 1.415 " transform="matrix(600,0,0,-600,-19.968,1145)"/>
<path style="fill:none;stroke-width:0.04;stroke-linecap:round;stroke-linejoin:miter;stroke:rgb(0%,0%,0%);stroke-opacity:1;stroke-miterlimit:10;" d="M 0.675949 1.415 L 0.675949 1.565 " transform="matrix(600,0,0,-600,-19.968,1145)"/>
<path style="fill:none;stroke-width:0.04;stroke-linecap:round;stroke-linejoin:miter;stroke:rgb(0%,0%,0%);stroke-opacity:1;stroke-miterlimit:10;" d="M 0.675949 1.565 L 1.175949 1.565 " transform="matrix(600,0,0,-600,-19.968,1145)"/>
<path style="fill:none;stroke-width:0.04;stroke-linecap:round;stroke-linejoin:miter;stroke:rgb(0%,0%,0%);stroke-opacity:1;stroke-miterlimit:10;" d="M 1.175949 1.565 L 1.175949 1.415 " transform="matrix(600,0,0,-600,-19.968,1145)"/>
<path style="fill:none;stroke-width:0.04;stroke-linecap:round;stroke-linejoin:miter;stroke:rgb(0%,0%,0%);stroke-opacity:1;stroke-miterlimit:10;" d="M 1.175949 1.415 L 1.175949 1.265 " transform="matrix(600,0,0,-600,-19.968,1145)"/>
<path style="fill:none;stroke-width:0.04;stroke-linecap:round;stroke-linejoin:miter;stroke:rgb(0%,0%,0%);stroke-opacity:1;stroke-miterlimit:10;" d="M 1.075949 1.415 L 0.825949 1.415 " transform="matrix(600,0,0,-600,-19.968,1145)"/>
<path style="fill:none;stroke-width:0.04;stroke-linecap:round;stroke-linejoin:miter;stroke:rgb(0%,0%,0%);stroke-opacity:1;stroke-miterlimit:10;" d="M 0.825949 1.315 L 0.825949 1.165 " transform="matrix(600,0,0,-600,-19.968,1145)"/>
<path style="fill:none;stroke-width:0.04;stroke-linecap:round;stroke-linejoin:miter;stroke:rgb(0%,0%,0%);stroke-opacity:1;stroke-miterlimit:10;" d="M 0.825949 1.165 L 0.775949 1.165 " transform="matrix(600,0,0,-600,-19.968,1145)"/>
<path style="fill:none;stroke-width:0.04;stroke-linecap:round;stroke-linejoin:miter;stroke:rgb(0%,0%,0%);stroke-opacity:1;stroke-miterlimit:10;" d="M 0.675949 1.165 L 0.675949 1.315 " transform="matrix(600,0,0,-600,-19.968,1145)"/>
<path style="fill:none;stroke-width:0.04;stroke-linecap:round;stroke-linejoin:miter;stroke:rgb(0%,0%,0%);stroke-opacity:1;stroke-miterlimit:10;" d="M 0.575949 0.865 L 0.575949 0.715 " transform="matrix(600,0,0,-600,-19.968,1145)"/>
<path style="fill:none;stroke-width:0.04;stroke-linecap:round;stroke-linejoin:miter;stroke:rgb(0%,0%,0%);stroke-opacity:1;stroke-miterlimit:10;" d="M 0.475949 0.715 L 0.475949 0.515 " transform="matrix(600,0,0,-600,-19.968,1145)"/>
<path style="fill:none;stroke-width:0.04;stroke-linecap:round;stroke-linejoin:miter;stroke:rgb(0%,0%,0%);stroke-opacity:1;stroke-miterlimit:10;" d="M 0.475949 0.515 L 0.775949 0.515 " transform="matrix(600,0,0,-600,-19.968,1145)"/>
<path style="fill:none;stroke-width:0.04;stroke-linecap:round;stroke-linejoin:miter;stroke:rgb(0%,0%,0%);stroke-opacity:1;stroke-miterlimit:10;" d="M 0.775949 0.515 L 0.775949 0.365 " transform="matrix(600,0,0,-600,-19.968,1145)"/>
<path style="fill:none;stroke-width:0.04;stroke-linecap:round;stroke-linejoin:miter;stroke:rgb(0%,0%,0%);stroke-opacity:1;stroke-miterlimit:10;" d="M 0.475949 0.715 L 0.475949 0.865 " transform="matrix(600,0,0,-600,-19.968,1145)"/>
<path style="fill:none;stroke-width:0.04;stroke-linecap:round;stroke-linejoin:miter;stroke:rgb(0%,0%,0%);stroke-opacity:1;stroke-miterlimit:10;" d="M 0.475949 0.865 L 0.325949 0.865 " transform="matrix(600,0,0,-600,-19.968,1145)"/>
<path style="fill:none;stroke-width:0.04;stroke-linecap:round;stroke-linejoin:miter;stroke:rgb(0%,0%,0%);stroke-opacity:1;stroke-miterlimit:10;" d="M 0.775949 0.865 L 0.875949 0.865 " transform="matrix(600,0,0,-600,-19.968,1145)"/>
<path style="fill:none;stroke-width:0.04;stroke-linecap:round;stroke-linejoin:miter;stroke:rgb(0%,0%,0%);stroke-opacity:1;stroke-miterlimit:10;" d="M 0.875949 0.865 L 0.875949 0.815 " transform="matrix(600,0,0,-600,-19.968,1145)"/>
<path style="fill:none;stroke-width:0.04;stroke-linecap:round;stroke-linejoin:miter;stroke:rgb(0%,0%,0%);stroke-opacity:1;stroke-miterlimit:10;" d="M 1.175949 0.515 L 1.325949 0.665 " transform="matrix(600,0,0,-600,-19.968,1145)"/>
<path style="fill:none;stroke-width:0.04;stroke-linecap:round;stroke-linejoin:miter;stroke:rgb(0%,0%,0%);stroke-opacity:1;stroke-miterlimit:10;" d="M 1.325949 0.665 L 1.325949 0.865 " transform="matrix(600,0,0,-600,-19.968,1145)"/>
<path style="fill:none;stroke-width:0.04;stroke-linecap:round;stroke-linejoin:miter;stroke:rgb(0%,0%,0%);stroke-opacity:1;stroke-miterlimit:10;" d="M 1.325949 0.865 L 1.475949 0.865 " transform="matrix(600,0,0,-600,-19.968,1145)"/>
<path style="fill:none;stroke-width:0.04;stroke-linecap:round;stroke-linejoin:miter;stroke:rgb(0%,0%,0%);stroke-opacity:1;stroke-miterlimit:10;" d="M 1.475949 0.865 L 1.475949 0.715 " transform="matrix(600,0,0,-600,-19.968,1145)"/>
<path style="fill:none;stroke-width:0.04;stroke-linecap:round;stroke-linejoin:miter;stroke:rgb(0%,0%,0%);stroke-opacity:1;stroke-miterlimit:10;" d="M 1.575949 0.715 L 1.575949 0.565 " transform="matrix(600,0,0,-600,-19.968,1145)"/>
<path style="fill:none;stroke-width:0.04;stroke-linecap:round;stroke-linejoin:miter;stroke:rgb(0%,0%,0%);stroke-opacity:1;stroke-miterlimit:10;" d="M 1.575949 0.565 L 1.525949 0.515 " transform="matrix(600,0,0,-600,-19.968,1145)"/>
<path style="fill:none;stroke-width:0.04;stroke-linecap:round;stroke-linejoin:miter;stroke:rgb(0%,0%,0%);stroke-opacity:1;stroke-miterlimit:10;" d="M 1.525949 0.515 L 1.325949 0.515 " transform="matrix(600,0,0,-600,-19.968,1145)"/>
<path style="fill:none;stroke-width:0.04;stroke-linecap:round;stroke-linejoin:miter;stroke:rgb(0%,0%,0%);stroke-opacity:1;stroke-miterlimit:10;" d="M 1.325949 0.515 L 1.275949 0.465 " transform="matrix(600,0,0,-600,-19.968,1145)"/>
<path style="fill:none;stroke-width:0.04;stroke-linecap:round;stroke-linejoin:miter;stroke:rgb(0%,0%,0%);stroke-opacity:1;stroke-miterlimit:10;" d="M 1.275949 0.465 L 1.275949 0.365 " transform="matrix(600,0,0,-600,-19.968,1145)"/>
<path style="fill:none;stroke-width:0.04;stroke-linecap:round;stroke-linejoin:miter;stroke:rgb(0%,0%,0%);stroke-opacity:1;stroke-miterlimit:10;" d="M 1.175949 0.365 L 1.175949 0.215 " transform="matrix(600,0,0,-600,-19.968,1145)"/>
<path style="fill:none;stroke-width:0.04;stroke-linecap:round;stroke-linejoin:miter;stroke:rgb(0%,0%,0%);stroke-opacity:1;stroke-miterlimit:10;" d="M 1.175949 0.215 L 1.375949 0.215 " transform="matrix(600,0,0,-600,-19.968,1145)"/>
<path style="fill:none;stroke-width:0.04;stroke-linecap:round;stroke-linejoin:miter;stroke:rgb(0%,0%,0%);stroke-opacity:1;stroke-miterlimit:10;" d="M 1.375949 0.215 L 1.675949 0.465 " transform="matrix(600,0,0,-600,-19.968,1145)"/>
<path style="fill:none;stroke-width:0.04;stroke-linecap:round;stroke-linejoin:miter;stroke:rgb(0%,0%,0%);stroke-opacity:1;stroke-miterlimit:10;" d="M 1.675949 0.465 L 1.675949 0.865 " transform="matrix(600,0,0,-600,-19.968,1145)"/>
<path style="fill:none;stroke-width:0.04;stroke-linecap:round;stroke-linejoin:miter;stroke:rgb(0%,0%,0%);stroke-opacity:1;stroke-miterlimit:10;" d="M 1.575949 0.865 L 1.575949 0.965 " transform="matrix(600,0,0,-600,-19.968,1145)"/>
<path style="fill:none;stroke-width:0.04;stroke-linecap:round;stroke-linejoin:miter;stroke:rgb(0%,0%,0%);stroke-opacity:1;stroke-miterlimit:10;" d="M 1.575949 0.865 L 1.575949 0.715 " transform="matrix(600,0,0,-600,-19.968,1145)"/>
<path style="fill:none;stroke-width:0.04;stroke-linecap:round;stroke-linejoin:miter;stroke:rgb(0%,0%,0%);stroke-opacity:1;stroke-miterlimit:10;" d="M 1.775949 0.865 L 1.775949 0.415 " transform="matrix(600,0,0,-600,-19.968,1145)"/>
<path style=" stroke:none;fill-rule:evenodd;fill:rgb(0%,0%,0%);fill-opacity:1;" d="M 705.402344 836 C 705.402344 809.601562 665.800781 809.601562 665.800781 836 C 665.800781 862.398438 705.402344 862.398438 705.402344 836 "/>
<path style=" stroke:none;fill-rule:evenodd;fill:rgb(0%,0%,0%);fill-opacity:1;" d="M 585.402344 776 C 585.402344 749.601562 545.800781 749.601562 545.800781 776 C 545.800781 802.398438 585.402344 802.398438 585.402344 776 "/>
<path style=" stroke:none;fill-rule:evenodd;fill:rgb(0%,0%,0%);fill-opacity:1;" d="M 525.402344 776 C 525.402344 749.601562 485.800781 749.601562 485.800781 776 C 485.800781 802.398438 525.402344 802.398438 525.402344 776 "/>
<path style=" stroke:none;fill-rule:evenodd;fill:rgb(0%,0%,0%);fill-opacity:1;" d="M 465.402344 836 C 465.402344 809.601562 425.800781 809.601562 425.800781 836 C 425.800781 862.398438 465.402344 862.398438 465.402344 836 "/>
<path style=" stroke:none;fill-rule:evenodd;fill:rgb(0%,0%,0%);fill-opacity:1;" d="M 525.402344 656 C 525.402344 629.601562 485.800781 629.601562 485.800781 656 C 485.800781 682.398438 525.402344 682.398438 525.402344 656 "/>
<path style=" stroke:none;fill-rule:evenodd;fill:rgb(0%,0%,0%);fill-opacity:1;" d="M 585.402344 506 C 585.402344 479.601562 545.800781 479.601562 545.800781 506 C 545.800781 532.398438 585.402344 532.398438 585.402344 506 "/>
<path style=" stroke:none;fill-rule:evenodd;fill:rgb(0%,0%,0%);fill-opacity:1;" d="M 585.402344 446 C 585.402344 419.601562 545.800781 419.601562 545.800781 446 C 545.800781 472.398438 585.402344 472.398438 585.402344 446 "/>
<path style=" stroke:none;fill-rule:evenodd;fill:rgb(0%,0%,0%);fill-opacity:1;" d="M 735.402344 446 C 735.402344 419.601562 695.800781 419.601562 695.800781 446 C 695.800781 472.398438 735.402344 472.398438 735.402344 446 "/>
<path style=" stroke:none;fill-rule:evenodd;fill:rgb(100%,100%,100%);fill-opacity:1;" d="M 270.433594 716 C 270.433594 709.601562 260.832031 709.601562 260.832031 716 C 260.832031 722.398438 270.433594 722.398438 270.433594 716 "/>
<path style=" stroke:none;fill-rule:evenodd;fill:rgb(100%,100%,100%);fill-opacity:1;" d="M 330.433594 716 C 330.433594 709.601562 320.832031 709.601562 320.832031 716 C 320.832031 722.398438 330.433594 722.398438 330.433594 716 "/>
<path style=" stroke:none;fill-rule:evenodd;fill:rgb(100%,100%,100%);fill-opacity:1;" d="M 330.433594 626 C 330.433594 619.601562 320.832031 619.601562 320.832031 626 C 320.832031 632.398438 330.433594 632.398438 330.433594 626 "/>
<path style=" stroke:none;fill-rule:evenodd;fill:rgb(100%,100%,100%);fill-opacity:1;" d="M 390.433594 626 C 390.433594 619.601562 380.832031 619.601562 380.832031 626 C 380.832031 632.398438 390.433594 632.398438 390.433594 626 "/>
<path style=" stroke:none;fill-rule:evenodd;fill:rgb(100%,100%,100%);fill-opacity:1;" d="M 450.433594 626 C 450.433594 619.601562 440.832031 619.601562 440.832031 626 C 440.832031 632.398438 450.433594 632.398438 450.433594 626 "/>
<path style=" stroke:none;fill-rule:evenodd;fill:rgb(100%,100%,100%);fill-opacity:1;" d="M 510.433594 656 C 510.433594 649.601562 500.832031 649.601562 500.832031 656 C 500.832031 662.398438 510.433594 662.398438 510.433594 656 "/>
<path style=" stroke:none;fill-rule:evenodd;fill:rgb(100%,100%,100%);fill-opacity:1;" d="M 510.433594 776 C 510.433594 769.601562 500.832031 769.601562 500.832031 776 C 500.832031 782.398438 510.433594 782.398438 510.433594 776 "/>
<path style=" stroke:none;fill-rule:evenodd;fill:rgb(100%,100%,100%);fill-opacity:1;" d="M 570.433594 776 C 570.433594 769.601562 560.832031 769.601562 560.832031 776 C 560.832031 782.398438 570.433594 782.398438 570.433594 776 "/>
<path style=" stroke:none;fill-rule:evenodd;fill:rgb(100%,100%,100%);fill-opacity:1;" d="M 450.433594 836 C 450.433594 829.601562 440.832031 829.601562 440.832031 836 C 440.832031 842.398438 450.433594 842.398438 450.433594 836 "/>
<path style=" stroke:none;fill-rule:evenodd;fill:rgb(100%,100%,100%);fill-opacity:1;" d="M 270.433594 626 C 270.433594 619.601562 260.832031 619.601562 260.832031 626 C 260.832031 632.398438 270.433594 632.398438 270.433594 626 "/>
<path style=" stroke:none;fill-rule:evenodd;fill:rgb(100%,100%,100%);fill-opacity:1;" d="M 180.433594 626 C 180.433594 619.601562 170.832031 619.601562 170.832031 626 C 170.832031 632.398438 180.433594 632.398438 180.433594 626 "/>
<path style=" stroke:none;fill-rule:evenodd;fill:rgb(100%,100%,100%);fill-opacity:1;" d="M 180.433594 446 C 180.433594 439.601562 170.832031 439.601562 170.832031 446 C 170.832031 452.398438 180.433594 452.398438 180.433594 446 "/>
<path style=" stroke:none;fill-rule:evenodd;fill:rgb(100%,100%,100%);fill-opacity:1;" d="M 270.433594 446 C 270.433594 439.601562 260.832031 439.601562 260.832031 446 C 260.832031 452.398438 270.433594 452.398438 270.433594 446 "/>
<path style=" stroke:none;fill-rule:evenodd;fill:rgb(100%,100%,100%);fill-opacity:1;" d="M 330.433594 446 C 330.433594 439.601562 320.832031 439.601562 320.832031 446 C 320.832031 452.398438 330.433594 452.398438 330.433594 446 "/>
<path style=" stroke:none;fill-rule:evenodd;fill:rgb(100%,100%,100%);fill-opacity:1;" d="M 390.433594 446 C 390.433594 439.601562 380.832031 439.601562 380.832031 446 C 380.832031 452.398438 390.433594 452.398438 390.433594 446 "/>
<path style=" stroke:none;fill-rule:evenodd;fill:rgb(100%,100%,100%);fill-opacity:1;" d="M 450.433594 446 C 450.433594 439.601562 440.832031 439.601562 440.832031 446 C 440.832031 452.398438 450.433594 452.398438 450.433594 446 "/>
<path style=" stroke:none;fill-rule:evenodd;fill:rgb(100%,100%,100%);fill-opacity:1;" d="M 480.433594 356 C 480.433594 349.601562 470.832031 349.601562 470.832031 356 C 470.832031 362.398438 480.433594 362.398438 480.433594 356 "/>
<path style=" stroke:none;fill-rule:evenodd;fill:rgb(100%,100%,100%);fill-opacity:1;" d="M 480.433594 296 C 480.433594 289.601562 470.832031 289.601562 470.832031 296 C 470.832031 302.398438 480.433594 302.398438 480.433594 296 "/>
<path style=" stroke:none;fill-rule:evenodd;fill:rgb(100%,100%,100%);fill-opacity:1;" d="M 390.433594 296 C 390.433594 289.601562 380.832031 289.601562 380.832031 296 C 380.832031 302.398438 390.433594 302.398438 390.433594 296 "/>
<path style=" stroke:none;fill-rule:evenodd;fill:rgb(100%,100%,100%);fill-opacity:1;" d="M 390.433594 356 C 390.433594 349.601562 380.832031 349.601562 380.832031 356 C 380.832031 362.398438 390.433594 362.398438 390.433594 356 "/>
<path style=" stroke:none;fill-rule:evenodd;fill:rgb(100%,100%,100%);fill-opacity:1;" d="M 270.433594 356 C 270.433594 349.601562 260.832031 349.601562 260.832031 356 C 260.832031 362.398438 270.433594 362.398438 270.433594 356 "/>
<path style=" stroke:none;fill-rule:evenodd;fill:rgb(100%,100%,100%);fill-opacity:1;" d="M 270.433594 296 C 270.433594 289.601562 260.832031 289.601562 260.832031 296 C 260.832031 302.398438 270.433594 302.398438 270.433594 296 "/>
<path style=" stroke:none;fill-rule:evenodd;fill:rgb(100%,100%,100%);fill-opacity:1;" d="M 570.433594 446 C 570.433594 439.601562 560.832031 439.601562 560.832031 446 C 560.832031 452.398438 570.433594 452.398438 570.433594 446 "/>
<path style=" stroke:none;fill-rule:evenodd;fill:rgb(100%,100%,100%);fill-opacity:1;" d="M 570.433594 506 C 570.433594 499.601562 560.832031 499.601562 560.832031 506 C 560.832031 512.398438 570.433594 512.398438 570.433594 506 "/>
<path style=" stroke:none;fill-rule:evenodd;fill:rgb(100%,100%,100%);fill-opacity:1;" d="M 720.433594 446 C 720.433594 439.601562 710.832031 439.601562 710.832031 446 C 710.832031 452.398438 720.433594 452.398438 720.433594 446 "/>
<path style=" stroke:none;fill-rule:evenodd;fill:rgb(100%,100%,100%);fill-opacity:1;" d="M 780.433594 446 C 780.433594 439.601562 770.832031 439.601562 770.832031 446 C 770.832031 452.398438 780.433594 452.398438 780.433594 446 "/>
<path style=" stroke:none;fill-rule:evenodd;fill:rgb(100%,100%,100%);fill-opacity:1;" d="M 870.433594 446 C 870.433594 439.601562 860.832031 439.601562 860.832031 446 C 860.832031 452.398438 870.433594 452.398438 870.433594 446 "/>
<path style=" stroke:none;fill-rule:evenodd;fill:rgb(100%,100%,100%);fill-opacity:1;" d="M 930.433594 446 C 930.433594 439.601562 920.832031 439.601562 920.832031 446 C 920.832031 452.398438 930.433594 452.398438 930.433594 446 "/>
<path style=" stroke:none;fill-rule:evenodd;fill:rgb(100%,100%,100%);fill-opacity:1;" d="M 990.433594 446 C 990.433594 439.601562 980.832031 439.601562 980.832031 446 C 980.832031 452.398438 990.433594 452.398438 990.433594 446 "/>
<path style=" stroke:none;fill-rule:evenodd;fill:rgb(100%,100%,100%);fill-opacity:1;" d="M 1050.433594 446 C 1050.433594 439.601562 1040.832031 439.601562 1040.832031 446 C 1040.832031 452.398438 1050.433594 452.398438 1050.433594 446 "/>
<path style=" stroke:none;fill-rule:evenodd;fill:rgb(100%,100%,100%);fill-opacity:1;" d="M 1080.433594 356 C 1080.433594 349.601562 1070.832031 349.601562 1070.832031 356 C 1070.832031 362.398438 1080.433594 362.398438 1080.433594 356 "/>
<path style=" stroke:none;fill-rule:evenodd;fill:rgb(100%,100%,100%);fill-opacity:1;" d="M 1080.433594 296 C 1080.433594 289.601562 1070.832031 289.601562 1070.832031 296 C 1070.832031 302.398438 1080.433594 302.398438 1080.433594 296 "/>
<path style=" stroke:none;fill-rule:evenodd;fill:rgb(100%,100%,100%);fill-opacity:1;" d="M 990.433594 296 C 990.433594 289.601562 980.832031 289.601562 980.832031 296 C 980.832031 302.398438 990.433594 302.398438 990.433594 296 "/>
<path style=" stroke:none;fill-rule:evenodd;fill:rgb(100%,100%,100%);fill-opacity:1;" d="M 990.433594 356 C 990.433594 349.601562 980.832031 349.601562 980.832031 356 C 980.832031 362.398438 990.433594 362.398438 990.433594 356 "/>
<path style=" stroke:none;fill-rule:evenodd;fill:rgb(100%,100%,100%);fill-opacity:1;" d="M 870.433594 356 C 870.433594 349.601562 860.832031 349.601562 860.832031 356 C 860.832031 362.398438 870.433594 362.398438 870.433594 356 "/>
<path style=" stroke:none;fill-rule:evenodd;fill:rgb(100%,100%,100%);fill-opacity:1;" d="M 870.433594 296 C 870.433594 289.601562 860.832031 289.601562 860.832031 296 C 860.832031 302.398438 870.433594 302.398438 870.433594 296 "/>
<path style=" stroke:none;fill-rule:evenodd;fill:rgb(100%,100%,100%);fill-opacity:1;" d="M 870.433594 626 C 870.433594 619.601562 860.832031 619.601562 860.832031 626 C 860.832031 632.398438 870.433594 632.398438 870.433594 626 "/>
<path style=" stroke:none;fill-rule:evenodd;fill:rgb(100%,100%,100%);fill-opacity:1;" d="M 930.433594 626 C 930.433594 619.601562 920.832031 619.601562 920.832031 626 C 920.832031 632.398438 930.433594 632.398438 930.433594 626 "/>
<path style=" stroke:none;fill-rule:evenodd;fill:rgb(100%,100%,100%);fill-opacity:1;" d="M 990.433594 626 C 990.433594 619.601562 980.832031 619.601562 980.832031 626 C 980.832031 632.398438 990.433594 632.398438 990.433594 626 "/>
<path style=" stroke:none;fill-rule:evenodd;fill:rgb(100%,100%,100%);fill-opacity:1;" d="M 1050.433594 626 C 1050.433594 619.601562 1040.832031 619.601562 1040.832031 626 C 1040.832031 632.398438 1050.433594 632.398438 1050.433594 626 "/>
<path style=" stroke:none;fill-rule:evenodd;fill:rgb(100%,100%,100%);fill-opacity:1;" d="M 930.433594 716 C 930.433594 709.601562 920.832031 709.601562 920.832031 716 C 920.832031 722.398438 930.433594 722.398438 930.433594 716 "/>
<path style=" stroke:none;fill-rule:evenodd;fill:rgb(100%,100%,100%);fill-opacity:1;" d="M 870.433594 716 C 870.433594 709.601562 860.832031 709.601562 860.832031 716 C 860.832031 722.398438 870.433594 722.398438 870.433594 716 "/>
<path style=" stroke:none;fill-rule:evenodd;fill:rgb(100%,100%,100%);fill-opacity:1;" d="M 780.433594 626 C 780.433594 619.601562 770.832031 619.601562 770.832031 626 C 770.832031 632.398438 780.433594 632.398438 780.433594 626 "/>
<path style=" stroke:none;fill-rule:evenodd;fill:rgb(100%,100%,100%);fill-opacity:1;" d="M 690.433594 836 C 690.433594 829.601562 680.832031 829.601562 680.832031 836 C 680.832031 842.398438 690.433594 842.398438 690.433594 836 "/>
<path style=" stroke:none;fill-rule:evenodd;fill:rgb(100%,100%,100%);fill-opacity:1;" d="M 690.433594 926 C 690.433594 919.601562 680.832031 919.601562 680.832031 926 C 680.832031 932.398438 690.433594 932.398438 690.433594 926 "/>
<path style=" stroke:none;fill-rule:evenodd;fill:rgb(100%,100%,100%);fill-opacity:1;" d="M 750.433594 926 C 750.433594 919.601562 740.832031 919.601562 740.832031 926 C 740.832031 932.398438 750.433594 932.398438 750.433594 926 "/>
<path style=" stroke:none;fill-rule:evenodd;fill:rgb(100%,100%,100%);fill-opacity:1;" d="M 630.433594 926 C 630.433594 919.601562 620.832031 919.601562 620.832031 926 C 620.832031 932.398438 630.433594 932.398438 630.433594 926 "/>
<path style=" stroke:none;fill-rule:evenodd;fill:rgb(100%,100%,100%);fill-opacity:1;" d="M 570.433594 926 C 570.433594 919.601562 560.832031 919.601562 560.832031 926 C 560.832031 932.398438 570.433594 932.398438 570.433594 926 "/>
<path style=" stroke:none;fill-rule:evenodd;fill:rgb(100%,100%,100%);fill-opacity:1;" d="M 510.433594 926 C 510.433594 919.601562 500.832031 919.601562 500.832031 926 C 500.832031 932.398438 510.433594 932.398438 510.433594 926 "/>
<path style=" stroke:none;fill-rule:evenodd;fill:rgb(100%,100%,100%);fill-opacity:1;" d="M 450.433594 926 C 450.433594 919.601562 440.832031 919.601562 440.832031 926 C 440.832031 932.398438 450.433594 932.398438 450.433594 926 "/>
<path style=" stroke:none;fill-rule:evenodd;fill:rgb(100%,100%,100%);fill-opacity:1;" d="M 630.433594 296 C 630.433594 289.601562 620.832031 289.601562 620.832031 296 C 620.832031 302.398438 630.433594 302.398438 630.433594 296 "/>
<path style=" stroke:none;fill-rule:evenodd;fill:rgb(100%,100%,100%);fill-opacity:1;" d="M 690.433594 296 C 690.433594 289.601562 680.832031 289.601562 680.832031 296 C 680.832031 302.398438 690.433594 302.398438 690.433594 296 "/>
<path style=" stroke:none;fill-rule:evenodd;fill:rgb(100%,100%,100%);fill-opacity:1;" d="M 750.433594 296 C 750.433594 289.601562 740.832031 289.601562 740.832031 296 C 740.832031 302.398438 750.433594 302.398438 750.433594 296 "/>
<path style=" stroke:none;fill-rule:evenodd;fill:rgb(100%,100%,100%);fill-opacity:1;" d="M 180.433594 1046 C 180.433594 1039.601562 170.832031 1039.601562 170.832031 1046 C 170.832031 1052.398438 180.433594 1052.398438 180.433594 1046 "/>
<path style=" stroke:none;fill-rule:evenodd;fill:rgb(100%,100%,100%);fill-opacity:1;" d="M 180.433594 176 C 180.433594 169.601562 170.832031 169.601562 170.832031 176 C 170.832031 182.398438 180.433594 182.398438 180.433594 176 "/>
<path style=" stroke:none;fill-rule:evenodd;fill:rgb(100%,100%,100%);fill-opacity:1;" d="M 1140.433594 176 C 1140.433594 169.601562 1130.832031 169.601562 1130.832031 176 C 1130.832031 182.398438 1140.433594 182.398438 1140.433594 176 "/>
<path style=" stroke:none;fill-rule:evenodd;fill:rgb(100%,100%,100%);fill-opacity:1;" d="M 1140.433594 1046 C 1140.433594 1039.601562 1130.832031 1039.601562 1130.832031 1046 C 1130.832031 1052.398438 1140.433594 1052.398438 1140.433594 1046 "/>
</g>
</svg>
