<?xml version="1.0" encoding="UTF-8"?>
<svg xmlns="http://www.w3.org/2000/svg" xmlns:xlink="http://www.w3.org/1999/xlink" width="1221pt" height="1139pt" viewBox="0 0 1221 1139" version="1.1">
<g id="surface1">
<path style="fill:none;stroke-width:0.01;stroke-linecap:round;stroke-linejoin:miter;stroke:rgb(0%,0%,0%);stroke-opacity:1;stroke-miterlimit:10;" d="M 0.176002 0.015 L 0.176002 1.764603 " transform="matrix(600,0,0,-600,-19.980001,1145)"/>
<path style="fill:none;stroke-width:0.01;stroke-linecap:round;stroke-linejoin:miter;stroke:rgb(0%,0%,0%);stroke-opacity:1;stroke-miterlimit:10;" d="M 0.176002 1.764603 L 2.063001 1.764603 " transform="matrix(600,0,0,-600,-19.980001,1145)"/>
<path style="fill:none;stroke-width:0.01;stroke-linecap:round;stroke-linejoin:miter;stroke:rgb(0%,0%,0%);stroke-opacity:1;stroke-miterlimit:10;" d="M 2.063001 1.764603 L 2.063001 0.015 " transform="matrix(600,0,0,-600,-19.980001,1145)"/>
<path style="fill:none;stroke-width:0.01;stroke-linecap:round;stroke-linejoin:miter;stroke:rgb(0%,0%,0%);stroke-opacity:1;stroke-miterlimit:10;" d="M 2.063001 0.015 L 0.176002 0.015 " transform="matrix(600,0,0,-600,-19.980001,1145)"/>
<path style="fill:none;stroke-width:0.0051;stroke-linecap:round;stroke-linejoin:miter;stroke:rgb(0%,0%,0%);stroke-opacity:1;stroke-miterlimit:10;" d="M 0.176002 0.015 L 0.0491984 0.015 " transform="matrix(600,0,0,-600,-19.980001,1145)"/>
<path style="fill:none;stroke-width:0.0051;stroke-linecap:round;stroke-linejoin:miter;stroke:rgb(0%,0%,0%);stroke-opacity:1;stroke-miterlimit:10;" d="M 0.126002 0.015 L 0.136197 0.117402 " transform="matrix(600,0,0,-600,-19.980001,1145)"/>
<path style="fill:none;stroke-width:0.0051;stroke-linecap:round;stroke-linejoin:miter;stroke:rgb(0%,0%,0%);stroke-opacity:1;stroke-miterlimit:10;" d="M 0.138502 0.117402 L 0.126002 0.015 " transform="matrix(600,0,0,-600,-19.980001,1145)"/>
<path style="fill:none;stroke-width:0.0051;stroke-linecap:round;stroke-linejoin:miter;stroke:rgb(0%,0%,0%);stroke-opacity:1;stroke-miterlimit:10;" d="M 0.126002 0.015 L 0.115702 0.117402 " transform="matrix(600,0,0,-600,-19.980001,1145)"/>
<path style="fill:none;stroke-width:0.0051;stroke-linecap:round;stroke-linejoin:miter;stroke:rgb(0%,0%,0%);stroke-opacity:1;stroke-miterlimit:10;" d="M 0.113398 0.117402 L 0.138502 0.117402 " transform="matrix(600,0,0,-600,-19.980001,1145)"/>
<path style="fill:none;stroke-width:0.0051;stroke-linecap:round;stroke-linejoin:miter;stroke:rgb(0%,0%,0%);stroke-opacity:1;stroke-miterlimit:10;" d="M 0.131099 0.117402 L 0.126002 0.015 " transform="matrix(600,0,0,-600,-19.980001,1145)"/>
<path style="fill:none;stroke-width:0.0051;stroke-linecap:round;stroke-linejoin:miter;stroke:rgb(0%,0%,0%);stroke-opacity:1;stroke-miterlimit:10;" d="M 0.126002 0.015 L 0.1208 0.117402 " transform="matrix(600,0,0,-600,-19.980001,1145)"/>
<path style="fill:none;stroke-width:0.0051;stroke-linecap:round;stroke-linejoin:miter;stroke:rgb(0%,0%,0%);stroke-opacity:1;stroke-miterlimit:10;" d="M 0.113398 0.117402 L 0.126002 0.015 " transform="matrix(600,0,0,-600,-19.980001,1145)"/>
<path style="fill:none;stroke-width:0.0051;stroke-linecap:round;stroke-linejoin:miter;stroke:rgb(0%,0%,0%);stroke-opacity:1;stroke-miterlimit:10;" d="M 0.126002 0.015 L 0.126002 1.765 " transform="matrix(600,0,0,-600,-19.980001,1145)"/>
<path style="fill:none;stroke-width:0.0051;stroke-linecap:round;stroke-linejoin:miter;stroke:rgb(0%,0%,0%);stroke-opacity:1;stroke-miterlimit:10;" d="M 0.126002 1.765 L 0.136197 1.662598 " transform="matrix(600,0,0,-600,-19.980001,1145)"/>
<path style="fill:none;stroke-width:0.0051;stroke-linecap:round;stroke-linejoin:miter;stroke:rgb(0%,0%,0%);stroke-opacity:1;stroke-miterlimit:10;" d="M 0.138502 1.662598 L 0.126002 1.765 " transform="matrix(600,0,0,-600,-19.980001,1145)"/>
<path style="fill:none;stroke-width:0.0051;stroke-linecap:round;stroke-linejoin:miter;stroke:rgb(0%,0%,0%);stroke-opacity:1;stroke-miterlimit:10;" d="M 0.126002 1.765 L 0.115702 1.662598 " transform="matrix(600,0,0,-600,-19.980001,1145)"/>
<path style="fill:none;stroke-width:0.0051;stroke-linecap:round;stroke-linejoin:miter;stroke:rgb(0%,0%,0%);stroke-opacity:1;stroke-miterlimit:10;" d="M 0.113398 1.662598 L 0.138502 1.662598 " transform="matrix(600,0,0,-600,-19.980001,1145)"/>
<path style="fill:none;stroke-width:0.0051;stroke-linecap:round;stroke-linejoin:miter;stroke:rgb(0%,0%,0%);stroke-opacity:1;stroke-miterlimit:10;" d="M 0.131099 1.662598 L 0.126002 1.765 " transform="matrix(600,0,0,-600,-19.980001,1145)"/>
<path style="fill:none;stroke-width:0.0051;stroke-linecap:round;stroke-linejoin:miter;stroke:rgb(0%,0%,0%);stroke-opacity:1;stroke-miterlimit:10;" d="M 0.126002 1.765 L 0.1208 1.662598 " transform="matrix(600,0,0,-600,-19.980001,1145)"/>
<path style="fill:none;stroke-width:0.0051;stroke-linecap:round;stroke-linejoin:miter;stroke:rgb(0%,0%,0%);stroke-opacity:1;stroke-miterlimit:10;" d="M 0.113398 1.662598 L 0.126002 1.765 " transform="matrix(600,0,0,-600,-19.980001,1145)"/>
<path style="fill:none;stroke-width:0.0051;stroke-linecap:round;stroke-linejoin:miter;stroke:rgb(0%,0%,0%);stroke-opacity:1;stroke-miterlimit:10;" d="M 0.176002 1.765 L 0.0491984 1.765 " transform="matrix(600,0,0,-600,-19.980001,1145)"/>
<path style="fill:none;stroke-width:0.0051;stroke-linecap:round;stroke-linejoin:miter;stroke:rgb(0%,0%,0%);stroke-opacity:1;stroke-miterlimit:10;" d="M 0.176002 1.764603 L 0.176002 1.891797 " transform="matrix(600,0,0,-600,-19.980001,1145)"/>
<path style="fill:none;stroke-width:0.0051;stroke-linecap:round;stroke-linejoin:miter;stroke:rgb(0%,0%,0%);stroke-opacity:1;stroke-miterlimit:10;" d="M 0.176002 1.815 L 0.2783 1.804798 " transform="matrix(600,0,0,-600,-19.980001,1145)"/>
<path style="fill:none;stroke-width:0.0051;stroke-linecap:round;stroke-linejoin:miter;stroke:rgb(0%,0%,0%);stroke-opacity:1;stroke-miterlimit:10;" d="M 0.2783 1.802402 L 0.176002 1.815 " transform="matrix(600,0,0,-600,-19.980001,1145)"/>
<path style="fill:none;stroke-width:0.0051;stroke-linecap:round;stroke-linejoin:miter;stroke:rgb(0%,0%,0%);stroke-opacity:1;stroke-miterlimit:10;" d="M 0.176002 1.815 L 0.2783 1.825202 " transform="matrix(600,0,0,-600,-19.980001,1145)"/>
<path style="fill:none;stroke-width:0.0051;stroke-linecap:round;stroke-linejoin:miter;stroke:rgb(0%,0%,0%);stroke-opacity:1;stroke-miterlimit:10;" d="M 0.2783 1.827598 L 0.2783 1.802402 " transform="matrix(600,0,0,-600,-19.980001,1145)"/>
<path style="fill:none;stroke-width:0.0051;stroke-linecap:round;stroke-linejoin:miter;stroke:rgb(0%,0%,0%);stroke-opacity:1;stroke-miterlimit:10;" d="M 0.2783 1.809902 L 0.176002 1.815 " transform="matrix(600,0,0,-600,-19.980001,1145)"/>
<path style="fill:none;stroke-width:0.0051;stroke-linecap:round;stroke-linejoin:miter;stroke:rgb(0%,0%,0%);stroke-opacity:1;stroke-miterlimit:10;" d="M 0.176002 1.815 L 0.2783 1.820098 " transform="matrix(600,0,0,-600,-19.980001,1145)"/>
<path style="fill:none;stroke-width:0.0051;stroke-linecap:round;stroke-linejoin:miter;stroke:rgb(0%,0%,0%);stroke-opacity:1;stroke-miterlimit:10;" d="M 0.2783 1.827598 L 0.176002 1.815 " transform="matrix(600,0,0,-600,-19.980001,1145)"/>
<path style="fill:none;stroke-width:0.0051;stroke-linecap:round;stroke-linejoin:miter;stroke:rgb(0%,0%,0%);stroke-opacity:1;stroke-miterlimit:10;" d="M 0.176002 1.815 L 2.063001 1.815 " transform="matrix(600,0,0,-600,-19.980001,1145)"/>
<path style="fill:none;stroke-width:0.0051;stroke-linecap:round;stroke-linejoin:miter;stroke:rgb(0%,0%,0%);stroke-opacity:1;stroke-miterlimit:10;" d="M 2.063001 1.815 L 1.960598 1.804798 " transform="matrix(600,0,0,-600,-19.980001,1145)"/>
<path style="fill:none;stroke-width:0.0051;stroke-linecap:round;stroke-linejoin:miter;stroke:rgb(0%,0%,0%);stroke-opacity:1;stroke-miterlimit:10;" d="M 1.960598 1.802402 L 2.063001 1.815 " transform="matrix(600,0,0,-600,-19.980001,1145)"/>
<path style="fill:none;stroke-width:0.0051;stroke-linecap:round;stroke-linejoin:miter;stroke:rgb(0%,0%,0%);stroke-opacity:1;stroke-miterlimit:10;" d="M 2.063001 1.815 L 1.960598 1.825202 " transform="matrix(600,0,0,-600,-19.980001,1145)"/>
<path style="fill:none;stroke-width:0.0051;stroke-linecap:round;stroke-linejoin:miter;stroke:rgb(0%,0%,0%);stroke-opacity:1;stroke-miterlimit:10;" d="M 1.960598 1.827598 L 1.960598 1.802402 " transform="matrix(600,0,0,-600,-19.980001,1145)"/>
<path style="fill:none;stroke-width:0.0051;stroke-linecap:round;stroke-linejoin:miter;stroke:rgb(0%,0%,0%);stroke-opacity:1;stroke-miterlimit:10;" d="M 1.960598 1.809902 L 2.063001 1.815 " transform="matrix(600,0,0,-600,-19.980001,1145)"/>
<path style="fill:none;stroke-width:0.0051;stroke-linecap:round;stroke-linejoin:miter;stroke:rgb(0%,0%,0%);stroke-opacity:1;stroke-miterlimit:10;" d="M 2.063001 1.815 L 1.960598 1.820098 " transform="matrix(600,0,0,-600,-19.980001,1145)"/>
<path style="fill:none;stroke-width:0.0051;stroke-linecap:round;stroke-linejoin:miter;stroke:rgb(0%,0%,0%);stroke-opacity:1;stroke-miterlimit:10;" d="M 1.960598 1.827598 L 2.063001 1.815 " transform="matrix(600,0,0,-600,-19.980001,1145)"/>
<path style="fill:none;stroke-width:0.0051;stroke-linecap:round;stroke-linejoin:miter;stroke:rgb(0%,0%,0%);stroke-opacity:1;stroke-miterlimit:10;" d="M 2.063001 1.764603 L 2.063001 1.891797 " transform="matrix(600,0,0,-600,-19.980001,1145)"/>
<path style="fill:none;stroke-width:0.011;stroke-linecap:round;stroke-linejoin:miter;stroke:rgb(0%,0%,0%);stroke-opacity:1;stroke-miterlimit:10;" d="M 1.244902 1.892298 L 1.244902 1.8825 " transform="matrix(600,0,0,-600,-19.980001,1145)"/>
<path style="fill:none;stroke-width:0.011;stroke-linecap:round;stroke-linejoin:miter;stroke:rgb(0%,0%,0%);stroke-opacity:1;stroke-miterlimit:10;" d="M 1.244902 1.8825 L 1.234999 1.872598 " transform="matrix(600,0,0,-600,-19.980001,1145)"/>
<path style="fill:none;stroke-width:0.011;stroke-linecap:round;stroke-linejoin:miter;stroke:rgb(0%,0%,0%);stroke-opacity:1;stroke-miterlimit:10;" d="M 1.234999 1.872598 L 1.244902 1.862799 " transform="matrix(600,0,0,-600,-19.980001,1145)"/>
<path style="fill:none;stroke-width:0.011;stroke-linecap:round;stroke-linejoin:miter;stroke:rgb(0%,0%,0%);stroke-opacity:1;stroke-miterlimit:10;" d="M 1.244902 1.862799 L 1.244902 1.853001 " transform="matrix(600,0,0,-600,-19.980001,1145)"/>
<path style="fill:none;stroke-width:0.011;stroke-linecap:round;stroke-linejoin:miter;stroke:rgb(0%,0%,0%);stroke-opacity:1;stroke-miterlimit:10;" d="M 1.244902 1.853001 L 1.234999 1.843099 " transform="matrix(600,0,0,-600,-19.980001,1145)"/>
<path style="fill:none;stroke-width:0.011;stroke-linecap:round;stroke-linejoin:miter;stroke:rgb(0%,0%,0%);stroke-opacity:1;stroke-miterlimit:10;" d="M 1.234999 1.843099 L 1.215403 1.843099 " transform="matrix(600,0,0,-600,-19.980001,1145)"/>
<path style="fill:none;stroke-width:0.011;stroke-linecap:round;stroke-linejoin:miter;stroke:rgb(0%,0%,0%);stroke-opacity:1;stroke-miterlimit:10;" d="M 1.215403 1.843099 L 1.205501 1.853001 " transform="matrix(600,0,0,-600,-19.980001,1145)"/>
<path style="fill:none;stroke-width:0.011;stroke-linecap:round;stroke-linejoin:miter;stroke:rgb(0%,0%,0%);stroke-opacity:1;stroke-miterlimit:10;" d="M 1.225201 1.872598 L 1.234999 1.872598 " transform="matrix(600,0,0,-600,-19.980001,1145)"/>
<path style="fill:none;stroke-width:0.011;stroke-linecap:round;stroke-linejoin:miter;stroke:rgb(0%,0%,0%);stroke-opacity:1;stroke-miterlimit:10;" d="M 1.244902 1.892298 L 1.234999 1.902201 " transform="matrix(600,0,0,-600,-19.980001,1145)"/>
<path style="fill:none;stroke-width:0.011;stroke-linecap:round;stroke-linejoin:miter;stroke:rgb(0%,0%,0%);stroke-opacity:1;stroke-miterlimit:10;" d="M 1.234999 1.902201 L 1.215403 1.902201 " transform="matrix(600,0,0,-600,-19.980001,1145)"/>
<path style="fill:none;stroke-width:0.011;stroke-linecap:round;stroke-linejoin:miter;stroke:rgb(0%,0%,0%);stroke-opacity:1;stroke-miterlimit:10;" d="M 1.215403 1.902201 L 1.205501 1.892298 " transform="matrix(600,0,0,-600,-19.980001,1145)"/>
<path style="fill:none;stroke-width:0.011;stroke-linecap:round;stroke-linejoin:miter;stroke:rgb(0%,0%,0%);stroke-opacity:1;stroke-miterlimit:10;" d="M 1.180403 1.892298 L 1.180403 1.853001 " transform="matrix(600,0,0,-600,-19.980001,1145)"/>
<path style="fill:none;stroke-width:0.011;stroke-linecap:round;stroke-linejoin:miter;stroke:rgb(0%,0%,0%);stroke-opacity:1;stroke-miterlimit:10;" d="M 1.180403 1.853001 L 1.170598 1.843099 " transform="matrix(600,0,0,-600,-19.980001,1145)"/>
<path style="fill:none;stroke-width:0.011;stroke-linecap:round;stroke-linejoin:miter;stroke:rgb(0%,0%,0%);stroke-opacity:1;stroke-miterlimit:10;" d="M 1.170598 1.843099 L 1.150898 1.843099 " transform="matrix(600,0,0,-600,-19.980001,1145)"/>
<path style="fill:none;stroke-width:0.011;stroke-linecap:round;stroke-linejoin:miter;stroke:rgb(0%,0%,0%);stroke-opacity:1;stroke-miterlimit:10;" d="M 1.150898 1.843099 L 1.141099 1.853001 " transform="matrix(600,0,0,-600,-19.980001,1145)"/>
<path style="fill:none;stroke-width:0.011;stroke-linecap:round;stroke-linejoin:miter;stroke:rgb(0%,0%,0%);stroke-opacity:1;stroke-miterlimit:10;" d="M 1.150898 1.872598 L 1.141099 1.8825 " transform="matrix(600,0,0,-600,-19.980001,1145)"/>
<path style="fill:none;stroke-width:0.011;stroke-linecap:round;stroke-linejoin:miter;stroke:rgb(0%,0%,0%);stroke-opacity:1;stroke-miterlimit:10;" d="M 1.141099 1.8825 L 1.141099 1.892298 " transform="matrix(600,0,0,-600,-19.980001,1145)"/>
<path style="fill:none;stroke-width:0.011;stroke-linecap:round;stroke-linejoin:miter;stroke:rgb(0%,0%,0%);stroke-opacity:1;stroke-miterlimit:10;" d="M 1.141099 1.892298 L 1.150898 1.902201 " transform="matrix(600,0,0,-600,-19.980001,1145)"/>
<path style="fill:none;stroke-width:0.011;stroke-linecap:round;stroke-linejoin:miter;stroke:rgb(0%,0%,0%);stroke-opacity:1;stroke-miterlimit:10;" d="M 1.150898 1.902201 L 1.170598 1.902201 " transform="matrix(600,0,0,-600,-19.980001,1145)"/>
<path style="fill:none;stroke-width:0.011;stroke-linecap:round;stroke-linejoin:miter;stroke:rgb(0%,0%,0%);stroke-opacity:1;stroke-miterlimit:10;" d="M 1.170598 1.902201 L 1.180403 1.892298 " transform="matrix(600,0,0,-600,-19.980001,1145)"/>
<path style="fill:none;stroke-width:0.011;stroke-linecap:round;stroke-linejoin:miter;stroke:rgb(0%,0%,0%);stroke-opacity:1;stroke-miterlimit:10;" d="M 1.180403 1.872598 L 1.150898 1.872598 " transform="matrix(600,0,0,-600,-19.980001,1145)"/>
<path style="fill:none;stroke-width:0.011;stroke-linecap:round;stroke-linejoin:miter;stroke:rgb(0%,0%,0%);stroke-opacity:1;stroke-miterlimit:10;" d="M 1.118697 1.853001 L 1.118697 1.843099 " transform="matrix(600,0,0,-600,-19.980001,1145)"/>
<path style="fill:none;stroke-width:0.011;stroke-linecap:round;stroke-linejoin:miter;stroke:rgb(0%,0%,0%);stroke-opacity:1;stroke-miterlimit:10;" d="M 1.118697 1.843099 L 1.108801 1.843099 " transform="matrix(600,0,0,-600,-19.980001,1145)"/>
<path style="fill:none;stroke-width:0.011;stroke-linecap:round;stroke-linejoin:miter;stroke:rgb(0%,0%,0%);stroke-opacity:1;stroke-miterlimit:10;" d="M 1.108801 1.843099 L 1.108801 1.853001 " transform="matrix(600,0,0,-600,-19.980001,1145)"/>
<path style="fill:none;stroke-width:0.011;stroke-linecap:round;stroke-linejoin:miter;stroke:rgb(0%,0%,0%);stroke-opacity:1;stroke-miterlimit:10;" d="M 1.108801 1.853001 L 1.118697 1.853001 " transform="matrix(600,0,0,-600,-19.980001,1145)"/>
<path style="fill:none;stroke-width:0.011;stroke-linecap:round;stroke-linejoin:miter;stroke:rgb(0%,0%,0%);stroke-opacity:1;stroke-miterlimit:10;" d="M 1.083801 1.892298 L 1.0444 1.853001 " transform="matrix(600,0,0,-600,-19.980001,1145)"/>
<path style="fill:none;stroke-width:0.011;stroke-linecap:round;stroke-linejoin:miter;stroke:rgb(0%,0%,0%);stroke-opacity:1;stroke-miterlimit:10;" d="M 1.0444 1.853001 L 1.0444 1.843099 " transform="matrix(600,0,0,-600,-19.980001,1145)"/>
<path style="fill:none;stroke-width:0.011;stroke-linecap:round;stroke-linejoin:miter;stroke:rgb(0%,0%,0%);stroke-opacity:1;stroke-miterlimit:10;" d="M 1.009498 1.843099 L 1.009498 1.902201 " transform="matrix(600,0,0,-600,-19.980001,1145)"/>
<path style="fill:none;stroke-width:0.011;stroke-linecap:round;stroke-linejoin:miter;stroke:rgb(0%,0%,0%);stroke-opacity:1;stroke-miterlimit:10;" d="M 1.009498 1.902201 L 0.979902 1.872598 " transform="matrix(600,0,0,-600,-19.980001,1145)"/>
<path style="fill:none;stroke-width:0.011;stroke-linecap:round;stroke-linejoin:miter;stroke:rgb(0%,0%,0%);stroke-opacity:1;stroke-miterlimit:10;" d="M 0.979902 1.872598 L 1.019303 1.872598 " transform="matrix(600,0,0,-600,-19.980001,1145)"/>
<path style="fill:none;stroke-width:0.011;stroke-linecap:round;stroke-linejoin:miter;stroke:rgb(0%,0%,0%);stroke-opacity:1;stroke-miterlimit:10;" d="M 1.0444 1.902201 L 1.083801 1.902201 " transform="matrix(600,0,0,-600,-19.980001,1145)"/>
<path style="fill:none;stroke-width:0.011;stroke-linecap:round;stroke-linejoin:miter;stroke:rgb(0%,0%,0%);stroke-opacity:1;stroke-miterlimit:10;" d="M 1.083801 1.902201 L 1.083801 1.892298 " transform="matrix(600,0,0,-600,-19.980001,1145)"/>
<path style="fill:none;stroke-width:0.011;stroke-linecap:round;stroke-linejoin:miter;stroke:rgb(0%,0%,0%);stroke-opacity:1;stroke-miterlimit:10;" d="M 0.0977987 1.005599 L 0.0977987 0.985898 " transform="matrix(600,0,0,-600,-19.980001,1145)"/>
<path style="fill:none;stroke-width:0.011;stroke-linecap:round;stroke-linejoin:miter;stroke:rgb(0%,0%,0%);stroke-opacity:1;stroke-miterlimit:10;" d="M 0.0977987 0.985898 L 0.0880005 0.9761 " transform="matrix(600,0,0,-600,-19.980001,1145)"/>
<path style="fill:none;stroke-width:0.011;stroke-linecap:round;stroke-linejoin:miter;stroke:rgb(0%,0%,0%);stroke-opacity:1;stroke-miterlimit:10;" d="M 0.0683 0.9761 L 0.0585018 0.995801 " transform="matrix(600,0,0,-600,-19.980001,1145)"/>
<path style="fill:none;stroke-width:0.011;stroke-linecap:round;stroke-linejoin:miter;stroke:rgb(0%,0%,0%);stroke-opacity:1;stroke-miterlimit:10;" d="M 0.0585018 0.995801 L 0.0585018 1.005599 " transform="matrix(600,0,0,-600,-19.980001,1145)"/>
<path style="fill:none;stroke-width:0.011;stroke-linecap:round;stroke-linejoin:miter;stroke:rgb(0%,0%,0%);stroke-opacity:1;stroke-miterlimit:10;" d="M 0.0585018 1.005599 L 0.0683 1.015397 " transform="matrix(600,0,0,-600,-19.980001,1145)"/>
<path style="fill:none;stroke-width:0.011;stroke-linecap:round;stroke-linejoin:miter;stroke:rgb(0%,0%,0%);stroke-opacity:1;stroke-miterlimit:10;" d="M 0.0683 1.015397 L 0.0880005 1.015397 " transform="matrix(600,0,0,-600,-19.980001,1145)"/>
<path style="fill:none;stroke-width:0.011;stroke-linecap:round;stroke-linejoin:miter;stroke:rgb(0%,0%,0%);stroke-opacity:1;stroke-miterlimit:10;" d="M 0.0880005 1.015397 L 0.0977987 1.005599 " transform="matrix(600,0,0,-600,-19.980001,1145)"/>
<path style="fill:none;stroke-width:0.011;stroke-linecap:round;stroke-linejoin:miter;stroke:rgb(0%,0%,0%);stroke-opacity:1;stroke-miterlimit:10;" d="M 0.0683 0.9761 L 0.0388013 0.9761 " transform="matrix(600,0,0,-600,-19.980001,1145)"/>
<path style="fill:none;stroke-width:0.011;stroke-linecap:round;stroke-linejoin:miter;stroke:rgb(0%,0%,0%);stroke-opacity:1;stroke-miterlimit:10;" d="M 0.0388013 0.9761 L 0.0388013 1.015397 " transform="matrix(600,0,0,-600,-19.980001,1145)"/>
<path style="fill:none;stroke-width:0.011;stroke-linecap:round;stroke-linejoin:miter;stroke:rgb(0%,0%,0%);stroke-opacity:1;stroke-miterlimit:10;" d="M 0.0683 0.951003 L 0.0683 0.911602 " transform="matrix(600,0,0,-600,-19.980001,1145)"/>
<path style="fill:none;stroke-width:0.011;stroke-linecap:round;stroke-linejoin:miter;stroke:rgb(0%,0%,0%);stroke-opacity:1;stroke-miterlimit:10;" d="M 0.0683 0.911602 L 0.0388013 0.9411 " transform="matrix(600,0,0,-600,-19.980001,1145)"/>
<path style="fill:none;stroke-width:0.011;stroke-linecap:round;stroke-linejoin:miter;stroke:rgb(0%,0%,0%);stroke-opacity:1;stroke-miterlimit:10;" d="M 0.0388013 0.9411 L 0.0977987 0.9411 " transform="matrix(600,0,0,-600,-19.980001,1145)"/>
<path style="fill:none;stroke-width:0.011;stroke-linecap:round;stroke-linejoin:miter;stroke:rgb(0%,0%,0%);stroke-opacity:1;stroke-miterlimit:10;" d="M 0.0977987 0.889199 L 0.0977987 0.879401 " transform="matrix(600,0,0,-600,-19.980001,1145)"/>
<path style="fill:none;stroke-width:0.011;stroke-linecap:round;stroke-linejoin:miter;stroke:rgb(0%,0%,0%);stroke-opacity:1;stroke-miterlimit:10;" d="M 0.0977987 0.879401 L 0.0880005 0.879401 " transform="matrix(600,0,0,-600,-19.980001,1145)"/>
<path style="fill:none;stroke-width:0.011;stroke-linecap:round;stroke-linejoin:miter;stroke:rgb(0%,0%,0%);stroke-opacity:1;stroke-miterlimit:10;" d="M 0.0880005 0.879401 L 0.0880005 0.889199 " transform="matrix(600,0,0,-600,-19.980001,1145)"/>
<path style="fill:none;stroke-width:0.011;stroke-linecap:round;stroke-linejoin:miter;stroke:rgb(0%,0%,0%);stroke-opacity:1;stroke-miterlimit:10;" d="M 0.0880005 0.889199 L 0.0977987 0.889199 " transform="matrix(600,0,0,-600,-19.980001,1145)"/>
<path style="fill:none;stroke-width:0.011;stroke-linecap:round;stroke-linejoin:miter;stroke:rgb(0%,0%,0%);stroke-opacity:1;stroke-miterlimit:10;" d="M 0.0683 0.854297 L 0.0683 0.814902 " transform="matrix(600,0,0,-600,-19.980001,1145)"/>
<path style="fill:none;stroke-width:0.011;stroke-linecap:round;stroke-linejoin:miter;stroke:rgb(0%,0%,0%);stroke-opacity:1;stroke-miterlimit:10;" d="M 0.0683 0.814902 L 0.0388013 0.844499 " transform="matrix(600,0,0,-600,-19.980001,1145)"/>
<path style="fill:none;stroke-width:0.011;stroke-linecap:round;stroke-linejoin:miter;stroke:rgb(0%,0%,0%);stroke-opacity:1;stroke-miterlimit:10;" d="M 0.0388013 0.844499 L 0.0977987 0.844499 " transform="matrix(600,0,0,-600,-19.980001,1145)"/>
<path style="fill:none;stroke-width:0.011;stroke-linecap:round;stroke-linejoin:miter;stroke:rgb(0%,0%,0%);stroke-opacity:1;stroke-miterlimit:10;" d="M 0.0683 0.789798 L 0.0683 0.750501 " transform="matrix(600,0,0,-600,-19.980001,1145)"/>
<path style="fill:none;stroke-width:0.011;stroke-linecap:round;stroke-linejoin:miter;stroke:rgb(0%,0%,0%);stroke-opacity:1;stroke-miterlimit:10;" d="M 0.0683 0.750501 L 0.0388013 0.78 " transform="matrix(600,0,0,-600,-19.980001,1145)"/>
<path style="fill:none;stroke-width:0.011;stroke-linecap:round;stroke-linejoin:miter;stroke:rgb(0%,0%,0%);stroke-opacity:1;stroke-miterlimit:10;" d="M 0.0388013 0.78 L 0.0977987 0.78 " transform="matrix(600,0,0,-600,-19.980001,1145)"/>
<path style="fill:none;stroke-width:0.052;stroke-linecap:round;stroke-linejoin:miter;stroke:rgb(0%,0%,0%);stroke-opacity:1;stroke-miterlimit:10;" d="M 0.476002 0.838997 L 0.476002 0.891003 " transform="matrix(600,0,0,-600,-19.980001,1145)"/>
<path style="fill:none;stroke-width:0.052;stroke-linecap:round;stroke-linejoin:miter;stroke:rgb(0%,0%,0%);stroke-opacity:1;stroke-miterlimit:10;" d="M 0.576002 0.891003 L 0.576002 0.838997 " transform="matrix(600,0,0,-600,-19.980001,1145)"/>
<path style="fill:none;stroke-width:0.052;stroke-linecap:round;stroke-linejoin:miter;stroke:rgb(0%,0%,0%);stroke-opacity:1;stroke-miterlimit:10;" d="M 0.676002 0.838997 L 0.676002 0.891003 " transform="matrix(600,0,0,-600,-19.980001,1145)"/>
<path style="fill:none;stroke-width:0.052;stroke-linecap:round;stroke-linejoin:miter;stroke:rgb(0%,0%,0%);stroke-opacity:1;stroke-miterlimit:10;" d="M 0.776002 0.891003 L 0.776002 0.838997 " transform="matrix(600,0,0,-600,-19.980001,1145)"/>
<path style="fill:none;stroke-width:0.052;stroke-linecap:round;stroke-linejoin:miter;stroke:rgb(0%,0%,0%);stroke-opacity:1;stroke-miterlimit:10;" d="M 0.776002 1.138997 L 0.776002 1.191003 " transform="matrix(600,0,0,-600,-19.980001,1145)"/>
<path style="fill:none;stroke-width:0.052;stroke-linecap:round;stroke-linejoin:miter;stroke:rgb(0%,0%,0%);stroke-opacity:1;stroke-miterlimit:10;" d="M 0.676002 1.191003 L 0.676002 1.138997 " transform="matrix(600,0,0,-600,-19.980001,1145)"/>
<path style="fill:none;stroke-width:0.052;stroke-linecap:round;stroke-linejoin:miter;stroke:rgb(0%,0%,0%);stroke-opacity:1;stroke-miterlimit:10;" d="M 0.576002 1.138997 L 0.576002 1.191003 " transform="matrix(600,0,0,-600,-19.980001,1145)"/>
<path style="fill:none;stroke-width:0.052;stroke-linecap:round;stroke-linejoin:miter;stroke:rgb(0%,0%,0%);stroke-opacity:1;stroke-miterlimit:10;" d="M 0.476002 1.191003 L 0.476002 1.138997 " transform="matrix(600,0,0,-600,-19.980001,1145)"/>
<path style="fill:none;stroke-width:0.052;stroke-linecap:round;stroke-linejoin:miter;stroke:rgb(0%,0%,0%);stroke-opacity:1;stroke-miterlimit:10;" d="M 1.476002 1.138997 L 1.476002 1.191003 " transform="matrix(600,0,0,-600,-19.980001,1145)"/>
<path style="fill:none;stroke-width:0.052;stroke-linecap:round;stroke-linejoin:miter;stroke:rgb(0%,0%,0%);stroke-opacity:1;stroke-miterlimit:10;" d="M 1.576002 1.191003 L 1.576002 1.138997 " transform="matrix(600,0,0,-600,-19.980001,1145)"/>
<path style="fill:none;stroke-width:0.052;stroke-linecap:round;stroke-linejoin:miter;stroke:rgb(0%,0%,0%);stroke-opacity:1;stroke-miterlimit:10;" d="M 1.676002 1.138997 L 1.676002 1.191003 " transform="matrix(600,0,0,-600,-19.980001,1145)"/>
<path style="fill:none;stroke-width:0.052;stroke-linecap:round;stroke-linejoin:miter;stroke:rgb(0%,0%,0%);stroke-opacity:1;stroke-miterlimit:10;" d="M 1.776002 1.191003 L 1.776002 1.138997 " transform="matrix(600,0,0,-600,-19.980001,1145)"/>
<path style="fill:none;stroke-width:0.052;stroke-linecap:round;stroke-linejoin:miter;stroke:rgb(0%,0%,0%);stroke-opacity:1;stroke-miterlimit:10;" d="M 1.776002 0.891003 L 1.776002 0.838997 " transform="matrix(600,0,0,-600,-19.980001,1145)"/>
<path style="fill:none;stroke-width:0.052;stroke-linecap:round;stroke-linejoin:miter;stroke:rgb(0%,0%,0%);stroke-opacity:1;stroke-miterlimit:10;" d="M 1.676002 0.838997 L 1.676002 0.891003 " transform="matrix(600,0,0,-600,-19.980001,1145)"/>
<path style="fill:none;stroke-width:0.052;stroke-linecap:round;stroke-linejoin:miter;stroke:rgb(0%,0%,0%);stroke-opacity:1;stroke-miterlimit:10;" d="M 1.576002 0.891003 L 1.576002 0.838997 " transform="matrix(600,0,0,-600,-19.980001,1145)"/>
<path style="fill:none;stroke-width:0.052;stroke-linecap:round;stroke-linejoin:miter;stroke:rgb(0%,0%,0%);stroke-opacity:1;stroke-miterlimit:10;" d="M 1.476002 0.838997 L 1.476002 0.891003 " transform="matrix(600,0,0,-600,-19.980001,1145)"/>
<path style="fill:none;stroke-width:0.06;stroke-linecap:round;stroke-linejoin:miter;stroke:rgb(0%,0%,0%);stroke-opacity:1;stroke-miterlimit:10;" d="M 1.276002 0.395 L 1.276002 0.335 " transform="matrix(600,0,0,-600,-19.980001,1145)"/>
<path style="fill:none;stroke-width:0.06;stroke-linecap:round;stroke-linejoin:miter;stroke:rgb(0%,0%,0%);stroke-opacity:1;stroke-miterlimit:10;" d="M 1.176002 0.335 L 1.176002 0.395 " transform="matrix(600,0,0,-600,-19.980001,1145)"/>
<path style="fill:none;stroke-width:0.06;stroke-linecap:round;stroke-linejoin:miter;stroke:rgb(0%,0%,0%);stroke-opacity:1;stroke-miterlimit:10;" d="M 1.076002 0.395 L 1.076002 0.335 " transform="matrix(600,0,0,-600,-19.980001,1145)"/>
<path style="fill:none;stroke-width:0.06;stroke-linecap:round;stroke-linejoin:miter;stroke:rgb(0%,0%,0%);stroke-opacity:1;stroke-miterlimit:10;" d="M 0.976002 0.335 L 0.976002 0.395 " transform="matrix(600,0,0,-600,-19.980001,1145)"/>
<path style="fill:none;stroke-width:0.06;stroke-linecap:round;stroke-linejoin:miter;stroke:rgb(0%,0%,0%);stroke-opacity:1;stroke-miterlimit:10;" d="M 0.876002 0.395 L 0.876002 0.335 " transform="matrix(600,0,0,-600,-19.980001,1145)"/>
<path style="fill:none;stroke-width:0.06;stroke-linecap:round;stroke-linejoin:miter;stroke:rgb(0%,0%,0%);stroke-opacity:1;stroke-miterlimit:10;" d="M 0.776002 0.335 L 0.776002 0.395 " transform="matrix(600,0,0,-600,-19.980001,1145)"/>
<path style="fill:none;stroke-width:0.06;stroke-linecap:round;stroke-linejoin:miter;stroke:rgb(0%,0%,0%);stroke-opacity:1;stroke-miterlimit:10;" d="M 1.076002 1.385 L 1.076002 1.445 " transform="matrix(600,0,0,-600,-19.980001,1145)"/>
<path style="fill:none;stroke-width:0.06;stroke-linecap:round;stroke-linejoin:miter;stroke:rgb(0%,0%,0%);stroke-opacity:1;stroke-miterlimit:10;" d="M 1.176002 1.445 L 1.176002 1.385 " transform="matrix(600,0,0,-600,-19.980001,1145)"/>
<path style="fill:none;stroke-width:0.06;stroke-linecap:round;stroke-linejoin:miter;stroke:rgb(0%,0%,0%);stroke-opacity:1;stroke-miterlimit:10;" d="M 1.276002 1.385 L 1.276002 1.445 " transform="matrix(600,0,0,-600,-19.980001,1145)"/>
<path style=" stroke:none;fill-rule:evenodd;fill:rgb(0%,0%,0%);fill-opacity:1;" d="M 881.21875 289.539062 L 872.082031 280.398438 L 859.160156 280.398438 L 850.019531 289.539062 L 850.019531 302.460938 L 859.160156 311.601562 L 872.082031 311.601562 L 881.21875 302.460938 L 881.21875 289.539062 "/>
<path style=" stroke:none;fill-rule:evenodd;fill:rgb(0%,0%,0%);fill-opacity:1;" d="M 881.21875 349.539062 L 872.082031 340.398438 L 859.160156 340.398438 L 850.019531 349.539062 L 850.019531 362.460938 L 859.160156 371.601562 L 872.082031 371.601562 L 881.21875 362.460938 L 881.21875 349.539062 "/>
<path style=" stroke:none;fill-rule:evenodd;fill:rgb(0%,0%,0%);fill-opacity:1;" d="M 791.21875 439.539062 L 782.082031 430.398438 L 769.160156 430.398438 L 760.019531 439.539062 L 760.019531 452.460938 L 769.160156 461.601562 L 782.082031 461.601562 L 791.21875 452.460938 L 791.21875 439.539062 "/>
<path style=" stroke:none;fill-rule:evenodd;fill:rgb(0%,0%,0%);fill-opacity:1;" d="M 791.21875 619.539062 L 782.082031 610.398438 L 769.160156 610.398438 L 760.019531 619.539062 L 760.019531 632.460938 L 769.160156 641.601562 L 782.082031 641.601562 L 791.21875 632.460938 L 791.21875 619.539062 "/>
<path style=" stroke:none;fill-rule:evenodd;fill:rgb(0%,0%,0%);fill-opacity:1;" d="M 881.21875 709.539062 L 872.082031 700.398438 L 859.160156 700.398438 L 850.019531 709.539062 L 850.019531 722.460938 L 859.160156 731.601562 L 872.082031 731.601562 L 881.21875 722.460938 L 881.21875 709.539062 "/>
<path style=" stroke:none;fill-rule:evenodd;fill:rgb(0%,0%,0%);fill-opacity:1;" d="M 941.21875 709.539062 L 932.082031 700.398438 L 919.160156 700.398438 L 910.019531 709.539062 L 910.019531 722.460938 L 919.160156 731.601562 L 932.082031 731.601562 L 941.21875 722.460938 L 941.21875 709.539062 "/>
<path style=" stroke:none;fill-rule:evenodd;fill:rgb(0%,0%,0%);fill-opacity:1;" d="M 1001.21875 349.539062 L 992.082031 340.398438 L 979.160156 340.398438 L 970.019531 349.539062 L 970.019531 362.460938 L 979.160156 371.601562 L 992.082031 371.601562 L 1001.21875 362.460938 L 1001.21875 349.539062 "/>
<path style=" stroke:none;fill-rule:evenodd;fill:rgb(0%,0%,0%);fill-opacity:1;" d="M 1001.21875 289.539062 L 992.082031 280.398438 L 979.160156 280.398438 L 970.019531 289.539062 L 970.019531 302.460938 L 979.160156 311.601562 L 992.082031 311.601562 L 1001.21875 302.460938 L 1001.21875 289.539062 "/>
<path style=" stroke:none;fill-rule:evenodd;fill:rgb(0%,0%,0%);fill-opacity:1;" d="M 1091.21875 289.539062 L 1082.082031 280.398438 L 1069.160156 280.398438 L 1060.019531 289.539062 L 1060.019531 302.460938 L 1069.160156 311.601562 L 1082.082031 311.601562 L 1091.21875 302.460938 L 1091.21875 289.539062 "/>
<path style=" stroke:none;fill-rule:evenodd;fill:rgb(0%,0%,0%);fill-opacity:1;" d="M 1091.21875 349.539062 L 1082.082031 340.398438 L 1069.160156 340.398438 L 1060.019531 349.539062 L 1060.019531 362.460938 L 1069.160156 371.601562 L 1082.082031 371.601562 L 1091.21875 362.460938 L 1091.21875 349.539062 "/>
<path style=" stroke:none;fill-rule:evenodd;fill:rgb(0%,0%,0%);fill-opacity:1;" d="M 491.21875 349.539062 L 482.082031 340.398438 L 469.160156 340.398438 L 460.019531 349.539062 L 460.019531 362.460938 L 469.160156 371.601562 L 482.082031 371.601562 L 491.21875 362.460938 L 491.21875 349.539062 "/>
<path style=" stroke:none;fill-rule:evenodd;fill:rgb(0%,0%,0%);fill-opacity:1;" d="M 491.21875 289.539062 L 482.082031 280.398438 L 469.160156 280.398438 L 460.019531 289.539062 L 460.019531 302.460938 L 469.160156 311.601562 L 482.082031 311.601562 L 491.21875 302.460938 L 491.21875 289.539062 "/>
<path style=" stroke:none;fill-rule:evenodd;fill:rgb(0%,0%,0%);fill-opacity:1;" d="M 401.21875 289.539062 L 392.082031 280.398438 L 379.160156 280.398438 L 370.019531 289.539062 L 370.019531 302.460938 L 379.160156 311.601562 L 392.082031 311.601562 L 401.21875 302.460938 L 401.21875 289.539062 "/>
<path style=" stroke:none;fill-rule:evenodd;fill:rgb(0%,0%,0%);fill-opacity:1;" d="M 401.21875 349.539062 L 392.082031 340.398438 L 379.160156 340.398438 L 370.019531 349.539062 L 370.019531 362.460938 L 379.160156 371.601562 L 392.082031 371.601562 L 401.21875 362.460938 L 401.21875 349.539062 "/>
<path style=" stroke:none;fill-rule:evenodd;fill:rgb(0%,0%,0%);fill-opacity:1;" d="M 281.21875 349.539062 L 272.082031 340.398438 L 259.160156 340.398438 L 250.019531 349.539062 L 250.019531 362.460938 L 259.160156 371.601562 L 272.082031 371.601562 L 281.21875 362.460938 L 281.21875 349.539062 "/>
<path style=" stroke:none;fill-rule:evenodd;fill:rgb(0%,0%,0%);fill-opacity:1;" d="M 281.21875 289.539062 L 272.082031 280.398438 L 259.160156 280.398438 L 250.019531 289.539062 L 250.019531 302.460938 L 259.160156 311.601562 L 272.082031 311.601562 L 281.21875 302.460938 L 281.21875 289.539062 "/>
<path style=" stroke:none;fill-rule:evenodd;fill:rgb(0%,0%,0%);fill-opacity:1;" d="M 191.21875 439.539062 L 182.082031 430.398438 L 169.160156 430.398438 L 160.019531 439.539062 L 160.019531 452.460938 L 169.160156 461.601562 L 182.082031 461.601562 L 191.21875 452.460938 L 191.21875 439.539062 "/>
<path style=" stroke:none;fill-rule:evenodd;fill:rgb(0%,0%,0%);fill-opacity:1;" d="M 191.21875 619.539062 L 182.082031 610.398438 L 169.160156 610.398438 L 160.019531 619.539062 L 160.019531 632.460938 L 169.160156 641.601562 L 182.082031 641.601562 L 191.21875 632.460938 L 191.21875 619.539062 "/>
<path style=" stroke:none;fill-rule:evenodd;fill:rgb(0%,0%,0%);fill-opacity:1;" d="M 281.21875 709.539062 L 272.082031 700.398438 L 259.160156 700.398438 L 250.019531 709.539062 L 250.019531 722.460938 L 259.160156 731.601562 L 272.082031 731.601562 L 281.21875 722.460938 L 281.21875 709.539062 "/>
<path style=" stroke:none;fill-rule:evenodd;fill:rgb(0%,0%,0%);fill-opacity:1;" d="M 341.21875 709.539062 L 332.082031 700.398438 L 319.160156 700.398438 L 310.019531 709.539062 L 310.019531 722.460938 L 319.160156 731.601562 L 332.082031 731.601562 L 341.21875 722.460938 L 341.21875 709.539062 "/>
<path style=" stroke:none;fill-rule:evenodd;fill:rgb(0%,0%,0%);fill-opacity:1;" d="M 238.621094 1046 C 238.621094 1011.207031 210.414062 983 175.621094 983 C 140.824219 983 112.621094 1011.207031 112.621094 1046 C 112.621094 1080.792969 140.824219 1109 175.621094 1109 C 210.414062 1109 238.621094 1080.792969 238.621094 1046 "/>
<path style=" stroke:none;fill-rule:evenodd;fill:rgb(0%,0%,0%);fill-opacity:1;" d="M 238.621094 176 C 238.621094 141.207031 210.414062 113 175.621094 113 C 140.824219 113 112.621094 141.207031 112.621094 176 C 112.621094 210.792969 140.824219 239 175.621094 239 C 210.414062 239 238.621094 210.792969 238.621094 176 "/>
<path style=" stroke:none;fill-rule:evenodd;fill:rgb(0%,0%,0%);fill-opacity:1;" d="M 1198.621094 176 C 1198.621094 141.207031 1170.414062 113 1135.621094 113 C 1100.824219 113 1072.621094 141.207031 1072.621094 176 C 1072.621094 210.792969 1100.824219 239 1135.621094 239 C 1170.414062 239 1198.621094 210.792969 1198.621094 176 "/>
<path style=" stroke:none;fill-rule:evenodd;fill:rgb(0%,0%,0%);fill-opacity:1;" d="M 1198.621094 1046 C 1198.621094 1011.207031 1170.414062 983 1135.621094 983 C 1100.824219 983 1072.621094 1011.207031 1072.621094 1046 C 1072.621094 1080.792969 1100.824219 1109 1135.621094 1109 C 1170.414062 1109 1198.621094 1080.792969 1198.621094 1046 "/>
<path style="fill:none;stroke-width:0.04;stroke-linecap:round;stroke-linejoin:miter;stroke:rgb(0%,0%,0%);stroke-opacity:1;stroke-miterlimit:10;" d="M 1.776002 0.415 L 1.426002 0.115 " transform="matrix(600,0,0,-600,-19.980001,1145)"/>
<path style="fill:none;stroke-width:0.04;stroke-linecap:round;stroke-linejoin:miter;stroke:rgb(0%,0%,0%);stroke-opacity:1;stroke-miterlimit:10;" d="M 1.426002 0.115 L 0.876002 0.115 " transform="matrix(600,0,0,-600,-19.980001,1145)"/>
<path style="fill:none;stroke-width:0.04;stroke-linecap:round;stroke-linejoin:miter;stroke:rgb(0%,0%,0%);stroke-opacity:1;stroke-miterlimit:10;" d="M 0.876002 0.115 L 0.876002 0.365 " transform="matrix(600,0,0,-600,-19.980001,1145)"/>
<path style="fill:none;stroke-width:0.04;stroke-linecap:round;stroke-linejoin:miter;stroke:rgb(0%,0%,0%);stroke-opacity:1;stroke-miterlimit:10;" d="M 0.876002 0.365 L 0.876002 0.615 " transform="matrix(600,0,0,-600,-19.980001,1145)"/>
<path style="fill:none;stroke-width:0.04;stroke-linecap:round;stroke-linejoin:miter;stroke:rgb(0%,0%,0%);stroke-opacity:1;stroke-miterlimit:10;" d="M 0.976002 0.615 L 0.976002 0.365 " transform="matrix(600,0,0,-600,-19.980001,1145)"/>
<path style="fill:none;stroke-width:0.04;stroke-linecap:round;stroke-linejoin:miter;stroke:rgb(0%,0%,0%);stroke-opacity:1;stroke-miterlimit:10;" d="M 1.076002 0.365 L 1.076002 0.715 " transform="matrix(600,0,0,-600,-19.980001,1145)"/>
<path style="fill:none;stroke-width:0.04;stroke-linecap:round;stroke-linejoin:miter;stroke:rgb(0%,0%,0%);stroke-opacity:1;stroke-miterlimit:10;" d="M 1.076002 0.715 L 0.676002 0.715 " transform="matrix(600,0,0,-600,-19.980001,1145)"/>
<path style="fill:none;stroke-width:0.04;stroke-linecap:round;stroke-linejoin:miter;stroke:rgb(0%,0%,0%);stroke-opacity:1;stroke-miterlimit:10;" d="M 0.676002 0.715 L 0.676002 0.865 " transform="matrix(600,0,0,-600,-19.980001,1145)"/>
<path style="fill:none;stroke-width:0.04;stroke-linecap:round;stroke-linejoin:miter;stroke:rgb(0%,0%,0%);stroke-opacity:1;stroke-miterlimit:10;" d="M 0.776002 0.865 L 0.876002 0.865 " transform="matrix(600,0,0,-600,-19.980001,1145)"/>
<path style="fill:none;stroke-width:0.04;stroke-linecap:round;stroke-linejoin:miter;stroke:rgb(0%,0%,0%);stroke-opacity:1;stroke-miterlimit:10;" d="M 0.876002 0.865 L 0.876002 0.815 " transform="matrix(600,0,0,-600,-19.980001,1145)"/>
<path style="fill:none;stroke-width:0.04;stroke-linecap:round;stroke-linejoin:miter;stroke:rgb(0%,0%,0%);stroke-opacity:1;stroke-miterlimit:10;" d="M 1.126002 0.965 L 0.576002 0.965 " transform="matrix(600,0,0,-600,-19.980001,1145)"/>
<path style="fill:none;stroke-width:0.04;stroke-linecap:round;stroke-linejoin:miter;stroke:rgb(0%,0%,0%);stroke-opacity:1;stroke-miterlimit:10;" d="M 0.576002 0.965 L 0.576002 0.865 " transform="matrix(600,0,0,-600,-19.980001,1145)"/>
<path style="fill:none;stroke-width:0.04;stroke-linecap:round;stroke-linejoin:miter;stroke:rgb(0%,0%,0%);stroke-opacity:1;stroke-miterlimit:10;" d="M 0.576002 0.865 L 0.576002 0.715 " transform="matrix(600,0,0,-600,-19.980001,1145)"/>
<path style="fill:none;stroke-width:0.04;stroke-linecap:round;stroke-linejoin:miter;stroke:rgb(0%,0%,0%);stroke-opacity:1;stroke-miterlimit:10;" d="M 0.476002 0.715 L 0.476002 0.515 " transform="matrix(600,0,0,-600,-19.980001,1145)"/>
<path style="fill:none;stroke-width:0.04;stroke-linecap:round;stroke-linejoin:miter;stroke:rgb(0%,0%,0%);stroke-opacity:1;stroke-miterlimit:10;" d="M 0.476002 0.515 L 0.776002 0.515 " transform="matrix(600,0,0,-600,-19.980001,1145)"/>
<path style="fill:none;stroke-width:0.04;stroke-linecap:round;stroke-linejoin:miter;stroke:rgb(0%,0%,0%);stroke-opacity:1;stroke-miterlimit:10;" d="M 0.776002 0.515 L 0.776002 0.365 " transform="matrix(600,0,0,-600,-19.980001,1145)"/>
<path style="fill:none;stroke-width:0.04;stroke-linecap:round;stroke-linejoin:miter;stroke:rgb(0%,0%,0%);stroke-opacity:1;stroke-miterlimit:10;" d="M 0.476002 0.715 L 0.476002 0.865 " transform="matrix(600,0,0,-600,-19.980001,1145)"/>
<path style="fill:none;stroke-width:0.04;stroke-linecap:round;stroke-linejoin:miter;stroke:rgb(0%,0%,0%);stroke-opacity:1;stroke-miterlimit:10;" d="M 0.476002 0.865 L 0.326002 0.865 " transform="matrix(600,0,0,-600,-19.980001,1145)"/>
<path style="fill:none;stroke-width:0.04;stroke-linecap:round;stroke-linejoin:miter;stroke:rgb(0%,0%,0%);stroke-opacity:1;stroke-miterlimit:10;" d="M 0.576002 1.065 L 0.976002 1.065 " transform="matrix(600,0,0,-600,-19.980001,1145)"/>
<path style="fill:none;stroke-width:0.04;stroke-linecap:round;stroke-linejoin:miter;stroke:rgb(0%,0%,0%);stroke-opacity:1;stroke-miterlimit:10;" d="M 0.976002 1.065 L 0.976002 1.165 " transform="matrix(600,0,0,-600,-19.980001,1145)"/>
<path style="fill:none;stroke-width:0.04;stroke-linecap:round;stroke-linejoin:miter;stroke:rgb(0%,0%,0%);stroke-opacity:1;stroke-miterlimit:10;" d="M 0.826002 1.165 L 0.826002 1.315 " transform="matrix(600,0,0,-600,-19.980001,1145)"/>
<path style="fill:none;stroke-width:0.04;stroke-linecap:round;stroke-linejoin:miter;stroke:rgb(0%,0%,0%);stroke-opacity:1;stroke-miterlimit:10;" d="M 0.826002 1.415 L 1.076002 1.415 " transform="matrix(600,0,0,-600,-19.980001,1145)"/>
<path style="fill:none;stroke-width:0.04;stroke-linecap:round;stroke-linejoin:miter;stroke:rgb(0%,0%,0%);stroke-opacity:1;stroke-miterlimit:10;" d="M 1.176002 1.415 L 1.176002 1.565 " transform="matrix(600,0,0,-600,-19.980001,1145)"/>
<path style="fill:none;stroke-width:0.04;stroke-linecap:round;stroke-linejoin:miter;stroke:rgb(0%,0%,0%);stroke-opacity:1;stroke-miterlimit:10;" d="M 1.176002 1.565 L 0.676002 1.565 " transform="matrix(600,0,0,-600,-19.980001,1145)"/>
<path style="fill:none;stroke-width:0.04;stroke-linecap:round;stroke-linejoin:miter;stroke:rgb(0%,0%,0%);stroke-opacity:1;stroke-miterlimit:10;" d="M 0.676002 1.565 L 0.676002 1.415 " transform="matrix(600,0,0,-600,-19.980001,1145)"/>
<path style="fill:none;stroke-width:0.04;stroke-linecap:round;stroke-linejoin:miter;stroke:rgb(0%,0%,0%);stroke-opacity:1;stroke-miterlimit:10;" d="M 0.676002 1.415 L 0.476002 1.415 " transform="matrix(600,0,0,-600,-19.980001,1145)"/>
<path style="fill:none;stroke-width:0.04;stroke-linecap:round;stroke-linejoin:miter;stroke:rgb(0%,0%,0%);stroke-opacity:1;stroke-miterlimit:10;" d="M 0.476002 1.315 L 0.476002 1.165 " transform="matrix(600,0,0,-600,-19.980001,1145)"/>
<path style="fill:none;stroke-width:0.04;stroke-linecap:round;stroke-linejoin:miter;stroke:rgb(0%,0%,0%);stroke-opacity:1;stroke-miterlimit:10;" d="M 0.476002 1.165 L 0.326002 1.165 " transform="matrix(600,0,0,-600,-19.980001,1145)"/>
<path style="fill:none;stroke-width:0.04;stroke-linecap:round;stroke-linejoin:miter;stroke:rgb(0%,0%,0%);stroke-opacity:1;stroke-miterlimit:10;" d="M 0.576002 1.165 L 0.576002 1.065 " transform="matrix(600,0,0,-600,-19.980001,1145)"/>
<path style="fill:none;stroke-width:0.04;stroke-linecap:round;stroke-linejoin:miter;stroke:rgb(0%,0%,0%);stroke-opacity:1;stroke-miterlimit:10;" d="M 0.676002 1.165 L 0.676002 1.315 " transform="matrix(600,0,0,-600,-19.980001,1145)"/>
<path style="fill:none;stroke-width:0.04;stroke-linecap:round;stroke-linejoin:miter;stroke:rgb(0%,0%,0%);stroke-opacity:1;stroke-miterlimit:10;" d="M 0.776002 1.165 L 0.826002 1.165 " transform="matrix(600,0,0,-600,-19.980001,1145)"/>
<path style="fill:none;stroke-width:0.04;stroke-linecap:round;stroke-linejoin:miter;stroke:rgb(0%,0%,0%);stroke-opacity:1;stroke-miterlimit:10;" d="M 1.126002 1.265 L 1.126002 0.965 " transform="matrix(600,0,0,-600,-19.980001,1145)"/>
<path style="fill:none;stroke-width:0.04;stroke-linecap:round;stroke-linejoin:miter;stroke:rgb(0%,0%,0%);stroke-opacity:1;stroke-miterlimit:10;" d="M 1.126002 0.965 L 1.576002 0.965 " transform="matrix(600,0,0,-600,-19.980001,1145)"/>
<path style="fill:none;stroke-width:0.04;stroke-linecap:round;stroke-linejoin:miter;stroke:rgb(0%,0%,0%);stroke-opacity:1;stroke-miterlimit:10;" d="M 1.576002 0.965 L 1.576002 0.865 " transform="matrix(600,0,0,-600,-19.980001,1145)"/>
<path style="fill:none;stroke-width:0.04;stroke-linecap:round;stroke-linejoin:miter;stroke:rgb(0%,0%,0%);stroke-opacity:1;stroke-miterlimit:10;" d="M 1.576002 0.865 L 1.576002 0.715 " transform="matrix(600,0,0,-600,-19.980001,1145)"/>
<path style="fill:none;stroke-width:0.04;stroke-linecap:round;stroke-linejoin:miter;stroke:rgb(0%,0%,0%);stroke-opacity:1;stroke-miterlimit:10;" d="M 1.576002 0.715 L 1.576002 0.565 " transform="matrix(600,0,0,-600,-19.980001,1145)"/>
<path style="fill:none;stroke-width:0.04;stroke-linecap:round;stroke-linejoin:miter;stroke:rgb(0%,0%,0%);stroke-opacity:1;stroke-miterlimit:10;" d="M 1.576002 0.565 L 1.526002 0.515 " transform="matrix(600,0,0,-600,-19.980001,1145)"/>
<path style="fill:none;stroke-width:0.04;stroke-linecap:round;stroke-linejoin:miter;stroke:rgb(0%,0%,0%);stroke-opacity:1;stroke-miterlimit:10;" d="M 1.526002 0.515 L 1.326002 0.515 " transform="matrix(600,0,0,-600,-19.980001,1145)"/>
<path style="fill:none;stroke-width:0.04;stroke-linecap:round;stroke-linejoin:miter;stroke:rgb(0%,0%,0%);stroke-opacity:1;stroke-miterlimit:10;" d="M 1.326002 0.515 L 1.276002 0.465 " transform="matrix(600,0,0,-600,-19.980001,1145)"/>
<path style="fill:none;stroke-width:0.04;stroke-linecap:round;stroke-linejoin:miter;stroke:rgb(0%,0%,0%);stroke-opacity:1;stroke-miterlimit:10;" d="M 1.276002 0.465 L 1.276002 0.365 " transform="matrix(600,0,0,-600,-19.980001,1145)"/>
<path style="fill:none;stroke-width:0.04;stroke-linecap:round;stroke-linejoin:miter;stroke:rgb(0%,0%,0%);stroke-opacity:1;stroke-miterlimit:10;" d="M 1.176002 0.365 L 1.176002 0.215 " transform="matrix(600,0,0,-600,-19.980001,1145)"/>
<path style="fill:none;stroke-width:0.04;stroke-linecap:round;stroke-linejoin:miter;stroke:rgb(0%,0%,0%);stroke-opacity:1;stroke-miterlimit:10;" d="M 1.176002 0.215 L 1.376002 0.215 " transform="matrix(600,0,0,-600,-19.980001,1145)"/>
<path style="fill:none;stroke-width:0.04;stroke-linecap:round;stroke-linejoin:miter;stroke:rgb(0%,0%,0%);stroke-opacity:1;stroke-miterlimit:10;" d="M 1.376002 0.215 L 1.676002 0.465 " transform="matrix(600,0,0,-600,-19.980001,1145)"/>
<path style="fill:none;stroke-width:0.04;stroke-linecap:round;stroke-linejoin:miter;stroke:rgb(0%,0%,0%);stroke-opacity:1;stroke-miterlimit:10;" d="M 1.676002 0.465 L 1.676002 0.865 " transform="matrix(600,0,0,-600,-19.980001,1145)"/>
<path style="fill:none;stroke-width:0.04;stroke-linecap:round;stroke-linejoin:miter;stroke:rgb(0%,0%,0%);stroke-opacity:1;stroke-miterlimit:10;" d="M 1.776002 0.865 L 1.776002 0.415 " transform="matrix(600,0,0,-600,-19.980001,1145)"/>
<path style="fill:none;stroke-width:0.04;stroke-linecap:round;stroke-linejoin:miter;stroke:rgb(0%,0%,0%);stroke-opacity:1;stroke-miterlimit:10;" d="M 1.476002 0.715 L 1.476002 0.865 " transform="matrix(600,0,0,-600,-19.980001,1145)"/>
<path style="fill:none;stroke-width:0.04;stroke-linecap:round;stroke-linejoin:miter;stroke:rgb(0%,0%,0%);stroke-opacity:1;stroke-miterlimit:10;" d="M 1.476002 0.865 L 1.326002 0.865 " transform="matrix(600,0,0,-600,-19.980001,1145)"/>
<path style="fill:none;stroke-width:0.04;stroke-linecap:round;stroke-linejoin:miter;stroke:rgb(0%,0%,0%);stroke-opacity:1;stroke-miterlimit:10;" d="M 1.326002 0.865 L 1.326002 0.665 " transform="matrix(600,0,0,-600,-19.980001,1145)"/>
<path style="fill:none;stroke-width:0.04;stroke-linecap:round;stroke-linejoin:miter;stroke:rgb(0%,0%,0%);stroke-opacity:1;stroke-miterlimit:10;" d="M 1.326002 0.665 L 1.176002 0.515 " transform="matrix(600,0,0,-600,-19.980001,1145)"/>
<path style="fill:none;stroke-width:0.04;stroke-linecap:round;stroke-linejoin:miter;stroke:rgb(0%,0%,0%);stroke-opacity:1;stroke-miterlimit:10;" d="M 1.226002 1.065 L 1.576002 1.065 " transform="matrix(600,0,0,-600,-19.980001,1145)"/>
<path style="fill:none;stroke-width:0.04;stroke-linecap:round;stroke-linejoin:miter;stroke:rgb(0%,0%,0%);stroke-opacity:1;stroke-miterlimit:10;" d="M 1.576002 1.065 L 1.576002 1.165 " transform="matrix(600,0,0,-600,-19.980001,1145)"/>
<path style="fill:none;stroke-width:0.04;stroke-linecap:round;stroke-linejoin:miter;stroke:rgb(0%,0%,0%);stroke-opacity:1;stroke-miterlimit:10;" d="M 1.476002 1.165 L 1.326002 1.165 " transform="matrix(600,0,0,-600,-19.980001,1145)"/>
<path style="fill:none;stroke-width:0.04;stroke-linecap:round;stroke-linejoin:miter;stroke:rgb(0%,0%,0%);stroke-opacity:1;stroke-miterlimit:10;" d="M 1.226002 1.165 L 1.226002 1.065 " transform="matrix(600,0,0,-600,-19.980001,1145)"/>
<path style="fill:none;stroke-width:0.04;stroke-linecap:round;stroke-linejoin:miter;stroke:rgb(0%,0%,0%);stroke-opacity:1;stroke-miterlimit:10;" d="M 1.176002 1.265 L 1.126002 1.265 " transform="matrix(600,0,0,-600,-19.980001,1145)"/>
<path style="fill:none;stroke-width:0.04;stroke-linecap:round;stroke-linejoin:miter;stroke:rgb(0%,0%,0%);stroke-opacity:1;stroke-miterlimit:10;" d="M 1.176002 1.265 L 1.376002 1.265 " transform="matrix(600,0,0,-600,-19.980001,1145)"/>
<path style="fill:none;stroke-width:0.04;stroke-linecap:round;stroke-linejoin:miter;stroke:rgb(0%,0%,0%);stroke-opacity:1;stroke-miterlimit:10;" d="M 1.376002 1.265 L 1.376002 1.415 " transform="matrix(600,0,0,-600,-19.980001,1145)"/>
<path style="fill:none;stroke-width:0.04;stroke-linecap:round;stroke-linejoin:miter;stroke:rgb(0%,0%,0%);stroke-opacity:1;stroke-miterlimit:10;" d="M 1.376002 1.415 L 1.476002 1.415 " transform="matrix(600,0,0,-600,-19.980001,1145)"/>
<path style="fill:none;stroke-width:0.04;stroke-linecap:round;stroke-linejoin:miter;stroke:rgb(0%,0%,0%);stroke-opacity:1;stroke-miterlimit:10;" d="M 1.476002 1.415 L 1.676002 1.415 " transform="matrix(600,0,0,-600,-19.980001,1145)"/>
<path style="fill:none;stroke-width:0.04;stroke-linecap:round;stroke-linejoin:miter;stroke:rgb(0%,0%,0%);stroke-opacity:1;stroke-miterlimit:10;" d="M 1.676002 1.315 L 1.676002 1.165 " transform="matrix(600,0,0,-600,-19.980001,1145)"/>
<path style="fill:none;stroke-width:0.04;stroke-linecap:round;stroke-linejoin:miter;stroke:rgb(0%,0%,0%);stroke-opacity:1;stroke-miterlimit:10;" d="M 1.776002 1.165 L 1.826002 1.215 " transform="matrix(600,0,0,-600,-19.980001,1145)"/>
<path style="fill:none;stroke-width:0.04;stroke-linecap:round;stroke-linejoin:miter;stroke:rgb(0%,0%,0%);stroke-opacity:1;stroke-miterlimit:10;" d="M 1.826002 1.215 L 1.826002 1.315 " transform="matrix(600,0,0,-600,-19.980001,1145)"/>
<path style="fill:none;stroke-width:0.04;stroke-linecap:round;stroke-linejoin:miter;stroke:rgb(0%,0%,0%);stroke-opacity:1;stroke-miterlimit:10;" d="M 1.826002 1.415 L 1.676002 1.565 " transform="matrix(600,0,0,-600,-19.980001,1145)"/>
<path style="fill:none;stroke-width:0.04;stroke-linecap:round;stroke-linejoin:miter;stroke:rgb(0%,0%,0%);stroke-opacity:1;stroke-miterlimit:10;" d="M 1.676002 1.565 L 1.276002 1.565 " transform="matrix(600,0,0,-600,-19.980001,1145)"/>
<path style="fill:none;stroke-width:0.04;stroke-linecap:round;stroke-linejoin:miter;stroke:rgb(0%,0%,0%);stroke-opacity:1;stroke-miterlimit:10;" d="M 1.276002 1.565 L 1.276002 1.415 " transform="matrix(600,0,0,-600,-19.980001,1145)"/>
<path style="fill:none;stroke-width:0.04;stroke-linecap:round;stroke-linejoin:miter;stroke:rgb(0%,0%,0%);stroke-opacity:1;stroke-miterlimit:10;" d="M 1.176002 1.415 L 1.176002 1.265 " transform="matrix(600,0,0,-600,-19.980001,1145)"/>
<path style="fill:none;stroke-width:0.04;stroke-linecap:round;stroke-linejoin:miter;stroke:rgb(0%,0%,0%);stroke-opacity:1;stroke-miterlimit:10;" d="M 1.476002 1.315 L 1.476002 1.165 " transform="matrix(600,0,0,-600,-19.980001,1145)"/>
<path style=" stroke:none;fill-rule:evenodd;fill:rgb(0%,0%,0%);fill-opacity:1;" d="M 735.421875 446 C 735.421875 419.601562 695.820312 419.601562 695.820312 446 C 695.820312 472.398438 735.421875 472.398438 735.421875 446 "/>
<path style=" stroke:none;fill-rule:evenodd;fill:rgb(0%,0%,0%);fill-opacity:1;" d="M 585.421875 446 C 585.421875 419.601562 545.820312 419.601562 545.820312 446 C 545.820312 472.398438 585.421875 472.398438 585.421875 446 "/>
<path style=" stroke:none;fill-rule:evenodd;fill:rgb(0%,0%,0%);fill-opacity:1;" d="M 585.421875 506 C 585.421875 479.601562 545.820312 479.601562 545.820312 506 C 545.820312 532.398438 585.421875 532.398438 585.421875 506 "/>
<path style=" stroke:none;fill-rule:evenodd;fill:rgb(0%,0%,0%);fill-opacity:1;" d="M 525.421875 656 C 525.421875 629.601562 485.820312 629.601562 485.820312 656 C 485.820312 682.398438 525.421875 682.398438 525.421875 656 "/>
<path style=" stroke:none;fill-rule:evenodd;fill:rgb(0%,0%,0%);fill-opacity:1;" d="M 525.421875 776 C 525.421875 749.601562 485.820312 749.601562 485.820312 776 C 485.820312 802.398438 525.421875 802.398438 525.421875 776 "/>
<path style=" stroke:none;fill-rule:evenodd;fill:rgb(0%,0%,0%);fill-opacity:1;" d="M 585.421875 776 C 585.421875 749.601562 545.820312 749.601562 545.820312 776 C 545.820312 802.398438 585.421875 802.398438 585.421875 776 "/>
<path style=" stroke:none;fill-rule:evenodd;fill:rgb(0%,0%,0%);fill-opacity:1;" d="M 465.421875 836 C 465.421875 809.601562 425.820312 809.601562 425.820312 836 C 425.820312 862.398438 465.421875 862.398438 465.421875 836 "/>
<path style=" stroke:none;fill-rule:evenodd;fill:rgb(0%,0%,0%);fill-opacity:1;" d="M 705.421875 836 C 705.421875 809.601562 665.820312 809.601562 665.820312 836 C 665.820312 862.398438 705.421875 862.398438 705.421875 836 "/>
<path style=" stroke:none;fill-rule:evenodd;fill:rgb(100%,100%,100%);fill-opacity:1;" d="M 270.421875 716 C 270.421875 709.601562 260.820312 709.601562 260.820312 716 C 260.820312 722.398438 270.421875 722.398438 270.421875 716 "/>
<path style=" stroke:none;fill-rule:evenodd;fill:rgb(100%,100%,100%);fill-opacity:1;" d="M 330.421875 716 C 330.421875 709.601562 320.820312 709.601562 320.820312 716 C 320.820312 722.398438 330.421875 722.398438 330.421875 716 "/>
<path style=" stroke:none;fill-rule:evenodd;fill:rgb(100%,100%,100%);fill-opacity:1;" d="M 330.421875 626 C 330.421875 619.601562 320.820312 619.601562 320.820312 626 C 320.820312 632.398438 330.421875 632.398438 330.421875 626 "/>
<path style=" stroke:none;fill-rule:evenodd;fill:rgb(100%,100%,100%);fill-opacity:1;" d="M 390.421875 626 C 390.421875 619.601562 380.820312 619.601562 380.820312 626 C 380.820312 632.398438 390.421875 632.398438 390.421875 626 "/>
<path style=" stroke:none;fill-rule:evenodd;fill:rgb(100%,100%,100%);fill-opacity:1;" d="M 450.421875 626 C 450.421875 619.601562 440.820312 619.601562 440.820312 626 C 440.820312 632.398438 450.421875 632.398438 450.421875 626 "/>
<path style=" stroke:none;fill-rule:evenodd;fill:rgb(100%,100%,100%);fill-opacity:1;" d="M 510.421875 656 C 510.421875 649.601562 500.820312 649.601562 500.820312 656 C 500.820312 662.398438 510.421875 662.398438 510.421875 656 "/>
<path style=" stroke:none;fill-rule:evenodd;fill:rgb(100%,100%,100%);fill-opacity:1;" d="M 510.421875 776 C 510.421875 769.601562 500.820312 769.601562 500.820312 776 C 500.820312 782.398438 510.421875 782.398438 510.421875 776 "/>
<path style=" stroke:none;fill-rule:evenodd;fill:rgb(100%,100%,100%);fill-opacity:1;" d="M 570.421875 776 C 570.421875 769.601562 560.820312 769.601562 560.820312 776 C 560.820312 782.398438 570.421875 782.398438 570.421875 776 "/>
<path style=" stroke:none;fill-rule:evenodd;fill:rgb(100%,100%,100%);fill-opacity:1;" d="M 450.421875 836 C 450.421875 829.601562 440.820312 829.601562 440.820312 836 C 440.820312 842.398438 450.421875 842.398438 450.421875 836 "/>
<path style=" stroke:none;fill-rule:evenodd;fill:rgb(100%,100%,100%);fill-opacity:1;" d="M 270.421875 626 C 270.421875 619.601562 260.820312 619.601562 260.820312 626 C 260.820312 632.398438 270.421875 632.398438 270.421875 626 "/>
<path style=" stroke:none;fill-rule:evenodd;fill:rgb(100%,100%,100%);fill-opacity:1;" d="M 180.421875 626 C 180.421875 619.601562 170.820312 619.601562 170.820312 626 C 170.820312 632.398438 180.421875 632.398438 180.421875 626 "/>
<path style=" stroke:none;fill-rule:evenodd;fill:rgb(100%,100%,100%);fill-opacity:1;" d="M 180.421875 446 C 180.421875 439.601562 170.820312 439.601562 170.820312 446 C 170.820312 452.398438 180.421875 452.398438 180.421875 446 "/>
<path style=" stroke:none;fill-rule:evenodd;fill:rgb(100%,100%,100%);fill-opacity:1;" d="M 270.421875 446 C 270.421875 439.601562 260.820312 439.601562 260.820312 446 C 260.820312 452.398438 270.421875 452.398438 270.421875 446 "/>
<path style=" stroke:none;fill-rule:evenodd;fill:rgb(100%,100%,100%);fill-opacity:1;" d="M 330.421875 446 C 330.421875 439.601562 320.820312 439.601562 320.820312 446 C 320.820312 452.398438 330.421875 452.398438 330.421875 446 "/>
<path style=" stroke:none;fill-rule:evenodd;fill:rgb(100%,100%,100%);fill-opacity:1;" d="M 390.421875 446 C 390.421875 439.601562 380.820312 439.601562 380.820312 446 C 380.820312 452.398438 390.421875 452.398438 390.421875 446 "/>
<path style=" stroke:none;fill-rule:evenodd;fill:rgb(100%,100%,100%);fill-opacity:1;" d="M 450.421875 446 C 450.421875 439.601562 440.820312 439.601562 440.820312 446 C 440.820312 452.398438 450.421875 452.398438 450.421875 446 "/>
<path style=" stroke:none;fill-rule:evenodd;fill:rgb(100%,100%,100%);fill-opacity:1;" d="M 480.421875 356 C 480.421875 349.601562 470.820312 349.601562 470.820312 356 C 470.820312 362.398438 480.421875 362.398438 480.421875 356 "/>
<path style=" stroke:none;fill-rule:evenodd;fill:rgb(100%,100%,100%);fill-opacity:1;" d="M 480.421875 296 C 480.421875 289.601562 470.820312 289.601562 470.820312 296 C 470.820312 302.398438 480.421875 302.398438 480.421875 296 "/>
<path style=" stroke:none;fill-rule:evenodd;fill:rgb(100%,100%,100%);fill-opacity:1;" d="M 390.421875 296 C 390.421875 289.601562 380.820312 289.601562 380.820312 296 C 380.820312 302.398438 390.421875 302.398438 390.421875 296 "/>
<path style=" stroke:none;fill-rule:evenodd;fill:rgb(100%,100%,100%);fill-opacity:1;" d="M 390.421875 356 C 390.421875 349.601562 380.820312 349.601562 380.820312 356 C 380.820312 362.398438 390.421875 362.398438 390.421875 356 "/>
<path style=" stroke:none;fill-rule:evenodd;fill:rgb(100%,100%,100%);fill-opacity:1;" d="M 270.421875 356 C 270.421875 349.601562 260.820312 349.601562 260.820312 356 C 260.820312 362.398438 270.421875 362.398438 270.421875 356 "/>
<path style=" stroke:none;fill-rule:evenodd;fill:rgb(100%,100%,100%);fill-opacity:1;" d="M 270.421875 296 C 270.421875 289.601562 260.820312 289.601562 260.820312 296 C 260.820312 302.398438 270.421875 302.398438 270.421875 296 "/>
<path style=" stroke:none;fill-rule:evenodd;fill:rgb(100%,100%,100%);fill-opacity:1;" d="M 570.421875 446 C 570.421875 439.601562 560.820312 439.601562 560.820312 446 C 560.820312 452.398438 570.421875 452.398438 570.421875 446 "/>
<path style=" stroke:none;fill-rule:evenodd;fill:rgb(100%,100%,100%);fill-opacity:1;" d="M 570.421875 506 C 570.421875 499.601562 560.820312 499.601562 560.820312 506 C 560.820312 512.398438 570.421875 512.398438 570.421875 506 "/>
<path style=" stroke:none;fill-rule:evenodd;fill:rgb(100%,100%,100%);fill-opacity:1;" d="M 720.421875 446 C 720.421875 439.601562 710.820312 439.601562 710.820312 446 C 710.820312 452.398438 720.421875 452.398438 720.421875 446 "/>
<path style=" stroke:none;fill-rule:evenodd;fill:rgb(100%,100%,100%);fill-opacity:1;" d="M 780.421875 446 C 780.421875 439.601562 770.820312 439.601562 770.820312 446 C 770.820312 452.398438 780.421875 452.398438 780.421875 446 "/>
<path style=" stroke:none;fill-rule:evenodd;fill:rgb(100%,100%,100%);fill-opacity:1;" d="M 870.421875 446 C 870.421875 439.601562 860.820312 439.601562 860.820312 446 C 860.820312 452.398438 870.421875 452.398438 870.421875 446 "/>
<path style=" stroke:none;fill-rule:evenodd;fill:rgb(100%,100%,100%);fill-opacity:1;" d="M 930.421875 446 C 930.421875 439.601562 920.820312 439.601562 920.820312 446 C 920.820312 452.398438 930.421875 452.398438 930.421875 446 "/>
<path style=" stroke:none;fill-rule:evenodd;fill:rgb(100%,100%,100%);fill-opacity:1;" d="M 990.421875 446 C 990.421875 439.601562 980.820312 439.601562 980.820312 446 C 980.820312 452.398438 990.421875 452.398438 990.421875 446 "/>
<path style=" stroke:none;fill-rule:evenodd;fill:rgb(100%,100%,100%);fill-opacity:1;" d="M 1050.421875 446 C 1050.421875 439.601562 1040.820312 439.601562 1040.820312 446 C 1040.820312 452.398438 1050.421875 452.398438 1050.421875 446 "/>
<path style=" stroke:none;fill-rule:evenodd;fill:rgb(100%,100%,100%);fill-opacity:1;" d="M 1080.421875 356 C 1080.421875 349.601562 1070.820312 349.601562 1070.820312 356 C 1070.820312 362.398438 1080.421875 362.398438 1080.421875 356 "/>
<path style=" stroke:none;fill-rule:evenodd;fill:rgb(100%,100%,100%);fill-opacity:1;" d="M 1080.421875 296 C 1080.421875 289.601562 1070.820312 289.601562 1070.820312 296 C 1070.820312 302.398438 1080.421875 302.398438 1080.421875 296 "/>
<path style=" stroke:none;fill-rule:evenodd;fill:rgb(100%,100%,100%);fill-opacity:1;" d="M 990.421875 296 C 990.421875 289.601562 980.820312 289.601562 980.820312 296 C 980.820312 302.398438 990.421875 302.398438 990.421875 296 "/>
<path style=" stroke:none;fill-rule:evenodd;fill:rgb(100%,100%,100%);fill-opacity:1;" d="M 990.421875 356 C 990.421875 349.601562 980.820312 349.601562 980.820312 356 C 980.820312 362.398438 990.421875 362.398438 990.421875 356 "/>
<path style=" stroke:none;fill-rule:evenodd;fill:rgb(100%,100%,100%);fill-opacity:1;" d="M 870.421875 356 C 870.421875 349.601562 860.820312 349.601562 860.820312 356 C 860.820312 362.398438 870.421875 362.398438 870.421875 356 "/>
<path style=" stroke:none;fill-rule:evenodd;fill:rgb(100%,100%,100%);fill-opacity:1;" d="M 870.421875 296 C 870.421875 289.601562 860.820312 289.601562 860.820312 296 C 860.820312 302.398438 870.421875 302.398438 870.421875 296 "/>
<path style=" stroke:none;fill-rule:evenodd;fill:rgb(100%,100%,100%);fill-opacity:1;" d="M 870.421875 626 C 870.421875 619.601562 860.820312 619.601562 860.820312 626 C 860.820312 632.398438 870.421875 632.398438 870.421875 626 "/>
<path style=" stroke:none;fill-rule:evenodd;fill:rgb(100%,100%,100%);fill-opacity:1;" d="M 930.421875 626 C 930.421875 619.601562 920.820312 619.601562 920.820312 626 C 920.820312 632.398438 930.421875 632.398438 930.421875 626 "/>
<path style=" stroke:none;fill-rule:evenodd;fill:rgb(100%,100%,100%);fill-opacity:1;" d="M 990.421875 626 C 990.421875 619.601562 980.820312 619.601562 980.820312 626 C 980.820312 632.398438 990.421875 632.398438 990.421875 626 "/>
<path style=" stroke:none;fill-rule:evenodd;fill:rgb(100%,100%,100%);fill-opacity:1;" d="M 1050.421875 626 C 1050.421875 619.601562 1040.820312 619.601562 1040.820312 626 C 1040.820312 632.398438 1050.421875 632.398438 1050.421875 626 "/>
<path style=" stroke:none;fill-rule:evenodd;fill:rgb(100%,100%,100%);fill-opacity:1;" d="M 930.421875 716 C 930.421875 709.601562 920.820312 709.601562 920.820312 716 C 920.820312 722.398438 930.421875 722.398438 930.421875 716 "/>
<path style=" stroke:none;fill-rule:evenodd;fill:rgb(100%,100%,100%);fill-opacity:1;" d="M 870.421875 716 C 870.421875 709.601562 860.820312 709.601562 860.820312 716 C 860.820312 722.398438 870.421875 722.398438 870.421875 716 "/>
<path style=" stroke:none;fill-rule:evenodd;fill:rgb(100%,100%,100%);fill-opacity:1;" d="M 780.421875 626 C 780.421875 619.601562 770.820312 619.601562 770.820312 626 C 770.820312 632.398438 780.421875 632.398438 780.421875 626 "/>
<path style=" stroke:none;fill-rule:evenodd;fill:rgb(100%,100%,100%);fill-opacity:1;" d="M 690.421875 836 C 690.421875 829.601562 680.820312 829.601562 680.820312 836 C 680.820312 842.398438 690.421875 842.398438 690.421875 836 "/>
<path style=" stroke:none;fill-rule:evenodd;fill:rgb(100%,100%,100%);fill-opacity:1;" d="M 690.421875 926 C 690.421875 919.601562 680.820312 919.601562 680.820312 926 C 680.820312 932.398438 690.421875 932.398438 690.421875 926 "/>
<path style=" stroke:none;fill-rule:evenodd;fill:rgb(100%,100%,100%);fill-opacity:1;" d="M 750.421875 926 C 750.421875 919.601562 740.820312 919.601562 740.820312 926 C 740.820312 932.398438 750.421875 932.398438 750.421875 926 "/>
<path style=" stroke:none;fill-rule:evenodd;fill:rgb(100%,100%,100%);fill-opacity:1;" d="M 630.421875 926 C 630.421875 919.601562 620.820312 919.601562 620.820312 926 C 620.820312 932.398438 630.421875 932.398438 630.421875 926 "/>
<path style=" stroke:none;fill-rule:evenodd;fill:rgb(100%,100%,100%);fill-opacity:1;" d="M 570.421875 926 C 570.421875 919.601562 560.820312 919.601562 560.820312 926 C 560.820312 932.398438 570.421875 932.398438 570.421875 926 "/>
<path style=" stroke:none;fill-rule:evenodd;fill:rgb(100%,100%,100%);fill-opacity:1;" d="M 510.421875 926 C 510.421875 919.601562 500.820312 919.601562 500.820312 926 C 500.820312 932.398438 510.421875 932.398438 510.421875 926 "/>
<path style=" stroke:none;fill-rule:evenodd;fill:rgb(100%,100%,100%);fill-opacity:1;" d="M 450.421875 926 C 450.421875 919.601562 440.820312 919.601562 440.820312 926 C 440.820312 932.398438 450.421875 932.398438 450.421875 926 "/>
<path style=" stroke:none;fill-rule:evenodd;fill:rgb(100%,100%,100%);fill-opacity:1;" d="M 630.421875 296 C 630.421875 289.601562 620.820312 289.601562 620.820312 296 C 620.820312 302.398438 630.421875 302.398438 630.421875 296 "/>
<path style=" stroke:none;fill-rule:evenodd;fill:rgb(100%,100%,100%);fill-opacity:1;" d="M 690.421875 296 C 690.421875 289.601562 680.820312 289.601562 680.820312 296 C 680.820312 302.398438 690.421875 302.398438 690.421875 296 "/>
<path style=" stroke:none;fill-rule:evenodd;fill:rgb(100%,100%,100%);fill-opacity:1;" d="M 750.421875 296 C 750.421875 289.601562 740.820312 289.601562 740.820312 296 C 740.820312 302.398438 750.421875 302.398438 750.421875 296 "/>
<path style=" stroke:none;fill-rule:evenodd;fill:rgb(100%,100%,100%);fill-opacity:1;" d="M 180.421875 1046 C 180.421875 1039.601562 170.820312 1039.601562 170.820312 1046 C 170.820312 1052.398438 180.421875 1052.398438 180.421875 1046 "/>
<path style=" stroke:none;fill-rule:evenodd;fill:rgb(100%,100%,100%);fill-opacity:1;" d="M 180.421875 176 C 180.421875 169.601562 170.820312 169.601562 170.820312 176 C 170.820312 182.398438 180.421875 182.398438 180.421875 176 "/>
<path style=" stroke:none;fill-rule:evenodd;fill:rgb(100%,100%,100%);fill-opacity:1;" d="M 1140.421875 176 C 1140.421875 169.601562 1130.820312 169.601562 1130.820312 176 C 1130.820312 182.398438 1140.421875 182.398438 1140.421875 176 "/>
<path style=" stroke:none;fill-rule:evenodd;fill:rgb(100%,100%,100%);fill-opacity:1;" d="M 1140.421875 1046 C 1140.421875 1039.601562 1130.820312 1039.601562 1130.820312 1046 C 1130.820312 1052.398438 1140.421875 1052.398438 1140.421875 1046 "/>
</g>
</svg>
