<?xml version="1.0" encoding="UTF-8"?>
<svg xmlns="http://www.w3.org/2000/svg" xmlns:xlink="http://www.w3.org/1999/xlink" width="1198pt" height="1206pt" viewBox="0 0 1198 1206" version="1.1">
<g id="surface1">
<path style="fill:none;stroke-width:0.01;stroke-linecap:round;stroke-linejoin:miter;stroke:rgb(0%,0%,0%);stroke-opacity:1;stroke-miterlimit:10;" d="M 0.1446 0.015 L 0.1446 2.014603 " transform="matrix(600,0,0,-600,-83.759996,1212)"/>
<path style="fill:none;stroke-width:0.01;stroke-linecap:round;stroke-linejoin:miter;stroke:rgb(0%,0%,0%);stroke-opacity:1;stroke-miterlimit:10;" d="M 0.1446 2.014603 L 2.131599 2.014603 " transform="matrix(600,0,0,-600,-83.759996,1212)"/>
<path style="fill:none;stroke-width:0.01;stroke-linecap:round;stroke-linejoin:miter;stroke:rgb(0%,0%,0%);stroke-opacity:1;stroke-miterlimit:10;" d="M 2.131599 2.014603 L 2.131599 0.015 " transform="matrix(600,0,0,-600,-83.759996,1212)"/>
<path style="fill:none;stroke-width:0.01;stroke-linecap:round;stroke-linejoin:miter;stroke:rgb(0%,0%,0%);stroke-opacity:1;stroke-miterlimit:10;" d="M 2.131599 0.015 L 0.1446 0.015 " transform="matrix(600,0,0,-600,-83.759996,1212)"/>
<path style=" stroke:none;fill-rule:evenodd;fill:rgb(0%,0%,0%);fill-opacity:1;" d="M 168.601562 956.539062 L 159.460938 947.398438 L 146.539062 947.398438 L 137.398438 956.539062 L 137.398438 969.460938 L 146.539062 978.601562 L 159.460938 978.601562 L 168.601562 969.460938 L 168.601562 956.539062 "/>
<path style=" stroke:none;fill-rule:evenodd;fill:rgb(0%,0%,0%);fill-opacity:1;" d="M 258.601562 896.539062 L 249.460938 887.398438 L 236.539062 887.398438 L 227.398438 896.539062 L 227.398438 909.460938 L 236.539062 918.601562 L 249.460938 918.601562 L 258.601562 909.460938 L 258.601562 896.539062 "/>
<path style=" stroke:none;fill-rule:evenodd;fill:rgb(0%,0%,0%);fill-opacity:1;" d="M 318.601562 896.539062 L 309.460938 887.398438 L 296.539062 887.398438 L 287.398438 896.539062 L 287.398438 909.460938 L 296.539062 918.601562 L 309.460938 918.601562 L 318.601562 909.460938 L 318.601562 896.539062 "/>
<path style=" stroke:none;fill-rule:evenodd;fill:rgb(0%,0%,0%);fill-opacity:1;" d="M 318.601562 806.539062 L 309.460938 797.398438 L 296.539062 797.398438 L 287.398438 806.539062 L 287.398438 819.460938 L 296.539062 828.601562 L 309.460938 828.601562 L 318.601562 819.460938 L 318.601562 806.539062 "/>
<path style=" stroke:none;fill-rule:evenodd;fill:rgb(0%,0%,0%);fill-opacity:1;" d="M 258.601562 806.539062 L 249.460938 797.398438 L 236.539062 797.398438 L 227.398438 806.539062 L 227.398438 819.460938 L 236.539062 828.601562 L 249.460938 828.601562 L 258.601562 819.460938 L 258.601562 806.539062 "/>
<path style=" stroke:none;fill-rule:evenodd;fill:rgb(0%,0%,0%);fill-opacity:1;" d="M 258.601562 716.539062 L 249.460938 707.398438 L 236.539062 707.398438 L 227.398438 716.539062 L 227.398438 729.460938 L 236.539062 738.601562 L 249.460938 738.601562 L 258.601562 729.460938 L 258.601562 716.539062 "/>
<path style=" stroke:none;fill-rule:evenodd;fill:rgb(0%,0%,0%);fill-opacity:1;" d="M 318.601562 716.539062 L 309.460938 707.398438 L 296.539062 707.398438 L 287.398438 716.539062 L 287.398438 729.460938 L 296.539062 738.601562 L 309.460938 738.601562 L 318.601562 729.460938 L 318.601562 716.539062 "/>
<path style=" stroke:none;fill-rule:evenodd;fill:rgb(0%,0%,0%);fill-opacity:1;" d="M 318.601562 626.539062 L 309.460938 617.398438 L 296.539062 617.398438 L 287.398438 626.539062 L 287.398438 639.460938 L 296.539062 648.601562 L 309.460938 648.601562 L 318.601562 639.460938 L 318.601562 626.539062 "/>
<path style=" stroke:none;fill-rule:evenodd;fill:rgb(0%,0%,0%);fill-opacity:1;" d="M 258.601562 626.539062 L 249.460938 617.398438 L 236.539062 617.398438 L 227.398438 626.539062 L 227.398438 639.460938 L 236.539062 648.601562 L 249.460938 648.601562 L 258.601562 639.460938 L 258.601562 626.539062 "/>
<path style=" stroke:none;fill-rule:evenodd;fill:rgb(0%,0%,0%);fill-opacity:1;" d="M 168.601562 626.539062 L 159.460938 617.398438 L 146.539062 617.398438 L 137.398438 626.539062 L 137.398438 639.460938 L 146.539062 648.601562 L 159.460938 648.601562 L 168.601562 639.460938 L 168.601562 626.539062 "/>
<path style=" stroke:none;fill-rule:evenodd;fill:rgb(0%,0%,0%);fill-opacity:1;" d="M 168.601562 716.539062 L 159.460938 707.398438 L 146.539062 707.398438 L 137.398438 716.539062 L 137.398438 729.460938 L 146.539062 738.601562 L 159.460938 738.601562 L 168.601562 729.460938 L 168.601562 716.539062 "/>
<path style=" stroke:none;fill-rule:evenodd;fill:rgb(0%,0%,0%);fill-opacity:1;" d="M 258.601562 536.539062 L 249.460938 527.398438 L 236.539062 527.398438 L 227.398438 536.539062 L 227.398438 549.460938 L 236.539062 558.601562 L 249.460938 558.601562 L 258.601562 549.460938 L 258.601562 536.539062 "/>
<path style=" stroke:none;fill-rule:evenodd;fill:rgb(0%,0%,0%);fill-opacity:1;" d="M 318.601562 536.539062 L 309.460938 527.398438 L 296.539062 527.398438 L 287.398438 536.539062 L 287.398438 549.460938 L 296.539062 558.601562 L 309.460938 558.601562 L 318.601562 549.460938 L 318.601562 536.539062 "/>
<path style=" stroke:none;fill-rule:evenodd;fill:rgb(0%,0%,0%);fill-opacity:1;" d="M 168.601562 386.539062 L 159.460938 377.398438 L 146.539062 377.398438 L 137.398438 386.539062 L 137.398438 399.460938 L 146.539062 408.601562 L 159.460938 408.601562 L 168.601562 399.460938 L 168.601562 386.539062 "/>
<path style=" stroke:none;fill-rule:evenodd;fill:rgb(0%,0%,0%);fill-opacity:1;" d="M 588.601562 392.539062 L 579.460938 383.398438 L 566.539062 383.398438 L 557.398438 392.539062 L 557.398438 405.460938 L 566.539062 414.601562 L 579.460938 414.601562 L 588.601562 405.460938 L 588.601562 392.539062 "/>
<path style=" stroke:none;fill-rule:evenodd;fill:rgb(0%,0%,0%);fill-opacity:1;" d="M 708.601562 266.539062 L 699.460938 257.398438 L 686.539062 257.398438 L 677.398438 266.539062 L 677.398438 279.460938 L 686.539062 288.601562 L 699.460938 288.601562 L 708.601562 279.460938 L 708.601562 266.539062 "/>
<path style=" stroke:none;fill-rule:evenodd;fill:rgb(0%,0%,0%);fill-opacity:1;" d="M 768.601562 392.539062 L 759.460938 383.398438 L 746.539062 383.398438 L 737.398438 392.539062 L 737.398438 405.460938 L 746.539062 414.601562 L 759.460938 414.601562 L 768.601562 405.460938 L 768.601562 392.539062 "/>
<path style=" stroke:none;fill-rule:evenodd;fill:rgb(0%,0%,0%);fill-opacity:1;" d="M 888.601562 356.539062 L 879.460938 347.398438 L 866.539062 347.398438 L 857.398438 356.539062 L 857.398438 369.460938 L 866.539062 378.601562 L 879.460938 378.601562 L 888.601562 369.460938 L 888.601562 356.539062 "/>
<path style=" stroke:none;fill-rule:evenodd;fill:rgb(0%,0%,0%);fill-opacity:1;" d="M 888.601562 446.539062 L 879.460938 437.398438 L 866.539062 437.398438 L 857.398438 446.539062 L 857.398438 459.460938 L 866.539062 468.601562 L 879.460938 468.601562 L 888.601562 459.460938 L 888.601562 446.539062 "/>
<path style=" stroke:none;fill-rule:evenodd;fill:rgb(0%,0%,0%);fill-opacity:1;" d="M 918.601562 536.539062 L 909.460938 527.398438 L 896.539062 527.398438 L 887.398438 536.539062 L 887.398438 549.460938 L 896.539062 558.601562 L 909.460938 558.601562 L 918.601562 549.460938 L 918.601562 536.539062 "/>
<path style=" stroke:none;fill-rule:evenodd;fill:rgb(0%,0%,0%);fill-opacity:1;" d="M 978.601562 536.539062 L 969.460938 527.398438 L 956.539062 527.398438 L 947.398438 536.539062 L 947.398438 549.460938 L 956.539062 558.601562 L 969.460938 558.601562 L 978.601562 549.460938 L 978.601562 536.539062 "/>
<path style=" stroke:none;fill-rule:evenodd;fill:rgb(0%,0%,0%);fill-opacity:1;" d="M 978.601562 626.539062 L 969.460938 617.398438 L 956.539062 617.398438 L 947.398438 626.539062 L 947.398438 639.460938 L 956.539062 648.601562 L 969.460938 648.601562 L 978.601562 639.460938 L 978.601562 626.539062 "/>
<path style=" stroke:none;fill-rule:evenodd;fill:rgb(0%,0%,0%);fill-opacity:1;" d="M 918.601562 626.539062 L 909.460938 617.398438 L 896.539062 617.398438 L 887.398438 626.539062 L 887.398438 639.460938 L 896.539062 648.601562 L 909.460938 648.601562 L 918.601562 639.460938 L 918.601562 626.539062 "/>
<path style=" stroke:none;fill-rule:evenodd;fill:rgb(0%,0%,0%);fill-opacity:1;" d="M 918.601562 716.539062 L 909.460938 707.398438 L 896.539062 707.398438 L 887.398438 716.539062 L 887.398438 729.460938 L 896.539062 738.601562 L 909.460938 738.601562 L 918.601562 729.460938 L 918.601562 716.539062 "/>
<path style=" stroke:none;fill-rule:evenodd;fill:rgb(0%,0%,0%);fill-opacity:1;" d="M 978.601562 716.539062 L 969.460938 707.398438 L 956.539062 707.398438 L 947.398438 716.539062 L 947.398438 729.460938 L 956.539062 738.601562 L 969.460938 738.601562 L 978.601562 729.460938 L 978.601562 716.539062 "/>
<path style=" stroke:none;fill-rule:evenodd;fill:rgb(0%,0%,0%);fill-opacity:1;" d="M 978.601562 806.539062 L 969.460938 797.398438 L 956.539062 797.398438 L 947.398438 806.539062 L 947.398438 819.460938 L 956.539062 828.601562 L 969.460938 828.601562 L 978.601562 819.460938 L 978.601562 806.539062 "/>
<path style=" stroke:none;fill-rule:evenodd;fill:rgb(0%,0%,0%);fill-opacity:1;" d="M 918.601562 806.539062 L 909.460938 797.398438 L 896.539062 797.398438 L 887.398438 806.539062 L 887.398438 819.460938 L 896.539062 828.601562 L 909.460938 828.601562 L 918.601562 819.460938 L 918.601562 806.539062 "/>
<path style=" stroke:none;fill-rule:evenodd;fill:rgb(0%,0%,0%);fill-opacity:1;" d="M 918.601562 896.539062 L 909.460938 887.398438 L 896.539062 887.398438 L 887.398438 896.539062 L 887.398438 909.460938 L 896.539062 918.601562 L 909.460938 918.601562 L 918.601562 909.460938 L 918.601562 896.539062 "/>
<path style=" stroke:none;fill-rule:evenodd;fill:rgb(0%,0%,0%);fill-opacity:1;" d="M 978.601562 896.539062 L 969.460938 887.398438 L 956.539062 887.398438 L 947.398438 896.539062 L 947.398438 909.460938 L 956.539062 918.601562 L 969.460938 918.601562 L 978.601562 909.460938 L 978.601562 896.539062 "/>
<path style=" stroke:none;fill-rule:evenodd;fill:rgb(0%,0%,0%);fill-opacity:1;" d="M 1068.601562 806.539062 L 1059.460938 797.398438 L 1046.539062 797.398438 L 1037.398438 806.539062 L 1037.398438 819.460938 L 1046.539062 828.601562 L 1059.460938 828.601562 L 1068.601562 819.460938 L 1068.601562 806.539062 "/>
<path style=" stroke:none;fill-rule:evenodd;fill:rgb(0%,0%,0%);fill-opacity:1;" d="M 978.601562 1046.539062 L 969.460938 1037.398438 L 956.539062 1037.398438 L 947.398438 1046.539062 L 947.398438 1059.460938 L 956.539062 1068.601562 L 969.460938 1068.601562 L 978.601562 1059.460938 L 978.601562 1046.539062 "/>
<path style=" stroke:none;fill-rule:evenodd;fill:rgb(0%,0%,0%);fill-opacity:1;" d="M 738.601562 1046.539062 L 729.460938 1037.398438 L 716.539062 1037.398438 L 707.398438 1046.539062 L 707.398438 1059.460938 L 716.539062 1068.601562 L 729.460938 1068.601562 L 738.601562 1059.460938 L 738.601562 1046.539062 "/>
<path style=" stroke:none;fill-rule:evenodd;fill:rgb(0%,0%,0%);fill-opacity:1;" d="M 738.601562 950.539062 L 729.460938 941.398438 L 716.539062 941.398438 L 707.398438 950.539062 L 707.398438 963.460938 L 716.539062 972.601562 L 729.460938 972.601562 L 738.601562 963.460938 L 738.601562 950.539062 "/>
<path style=" stroke:none;fill-rule:evenodd;fill:rgb(0%,0%,0%);fill-opacity:1;" d="M 612.601562 926.539062 L 603.460938 917.398438 L 590.539062 917.398438 L 581.398438 926.539062 L 581.398438 939.460938 L 590.539062 948.601562 L 603.460938 948.601562 L 612.601562 939.460938 L 612.601562 926.539062 "/>
<path style=" stroke:none;fill-rule:evenodd;fill:rgb(0%,0%,0%);fill-opacity:1;" d="M 498.601562 1046.539062 L 489.460938 1037.398438 L 476.539062 1037.398438 L 467.398438 1046.539062 L 467.398438 1059.460938 L 476.539062 1068.601562 L 489.460938 1068.601562 L 498.601562 1059.460938 L 498.601562 1046.539062 "/>
<path style=" stroke:none;fill-rule:evenodd;fill:rgb(0%,0%,0%);fill-opacity:1;" d="M 438.601562 950.539062 L 429.460938 941.398438 L 416.539062 941.398438 L 407.398438 950.539062 L 407.398438 963.460938 L 416.539062 972.601562 L 429.460938 972.601562 L 438.601562 963.460938 L 438.601562 950.539062 "/>
<path style=" stroke:none;fill-rule:evenodd;fill:rgb(0%,0%,0%);fill-opacity:1;" d="M 258.601562 1046.539062 L 249.460938 1037.398438 L 236.539062 1037.398438 L 227.398438 1046.539062 L 227.398438 1059.460938 L 236.539062 1068.601562 L 249.460938 1068.601562 L 258.601562 1059.460938 L 258.601562 1046.539062 "/>
<path style=" stroke:none;fill-rule:evenodd;fill:rgb(0%,0%,0%);fill-opacity:1;" d="M 948.601562 266.539062 L 939.460938 257.398438 L 926.539062 257.398438 L 917.398438 266.539062 L 917.398438 279.460938 L 926.539062 288.601562 L 939.460938 288.601562 L 948.601562 279.460938 L 948.601562 266.539062 "/>
<path style=" stroke:none;fill-rule:evenodd;fill:rgb(0%,0%,0%);fill-opacity:1;" d="M 1128.601562 356.539062 L 1119.460938 347.398438 L 1106.539062 347.398438 L 1097.398438 356.539062 L 1097.398438 369.460938 L 1106.539062 378.601562 L 1119.460938 378.601562 L 1128.601562 369.460938 L 1128.601562 356.539062 "/>
<path style=" stroke:none;fill-rule:evenodd;fill:rgb(0%,0%,0%);fill-opacity:1;" d="M 1128.601562 446.539062 L 1119.460938 437.398438 L 1106.539062 437.398438 L 1097.398438 446.539062 L 1097.398438 459.460938 L 1106.539062 468.601562 L 1119.460938 468.601562 L 1128.601562 459.460938 L 1128.601562 446.539062 "/>
<path style=" stroke:none;fill-rule:evenodd;fill:rgb(0%,0%,0%);fill-opacity:1;" d="M 1068.601562 566.539062 L 1059.460938 557.398438 L 1046.539062 557.398438 L 1037.398438 566.539062 L 1037.398438 579.460938 L 1046.539062 588.601562 L 1059.460938 588.601562 L 1068.601562 579.460938 L 1068.601562 566.539062 "/>
<path style=" stroke:none;fill-rule:evenodd;fill:rgb(0%,0%,0%);fill-opacity:1;" d="M 768.601562 447 C 768.601562 426.199219 737.398438 426.199219 737.398438 447 C 737.398438 467.800781 768.601562 467.800781 768.601562 447 "/>
<path style=" stroke:none;fill-rule:evenodd;fill:rgb(0%,0%,0%);fill-opacity:1;" d="M 588.601562 447 C 588.601562 426.199219 557.398438 426.199219 557.398438 447 C 557.398438 467.800781 588.601562 467.800781 588.601562 447 "/>
<path style=" stroke:none;fill-rule:evenodd;fill:rgb(0%,0%,0%);fill-opacity:1;" d="M 438.601562 909 C 438.601562 888.199219 407.398438 888.199219 407.398438 909 C 407.398438 929.800781 438.601562 929.800781 438.601562 909 "/>
<path style=" stroke:none;fill-rule:evenodd;fill:rgb(0%,0%,0%);fill-opacity:1;" d="M 564.601562 933 C 564.601562 912.199219 533.398438 912.199219 533.398438 933 C 533.398438 953.800781 564.601562 953.800781 564.601562 933 "/>
<path style=" stroke:none;fill-rule:evenodd;fill:rgb(0%,0%,0%);fill-opacity:1;" d="M 738.601562 909 C 738.601562 888.199219 707.398438 888.199219 707.398438 909 C 707.398438 929.800781 738.601562 929.800781 738.601562 909 "/>
<path style=" stroke:none;fill-rule:evenodd;fill:rgb(0%,0%,0%);fill-opacity:1;" d="M 471.898438 295.171875 L 460.828125 284.101562 L 445.171875 284.101562 L 434.101562 295.171875 L 434.101562 310.828125 L 445.171875 321.898438 L 460.828125 321.898438 L 471.898438 310.828125 L 471.898438 295.171875 "/>
<path style=" stroke:none;fill-rule:evenodd;fill:rgb(0%,0%,0%);fill-opacity:1;" d="M 531.898438 303 C 531.898438 277.800781 494.101562 277.800781 494.101562 303 C 494.101562 328.199219 531.898438 328.199219 531.898438 303 "/>
<path style="fill:none;stroke-width:0.06;stroke-linecap:round;stroke-linejoin:miter;stroke:rgb(0%,0%,0%);stroke-opacity:1;stroke-miterlimit:10;" d="M 0.9446 1.735 L 0.9446 1.795 " transform="matrix(600,0,0,-600,-83.759996,1212)"/>
<path style="fill:none;stroke-width:0.06;stroke-linecap:round;stroke-linejoin:miter;stroke:rgb(0%,0%,0%);stroke-opacity:1;stroke-miterlimit:10;" d="M 1.0446 1.795 L 1.0446 1.735 " transform="matrix(600,0,0,-600,-83.759996,1212)"/>
<path style="fill:none;stroke-width:0.06;stroke-linecap:round;stroke-linejoin:miter;stroke:rgb(0%,0%,0%);stroke-opacity:1;stroke-miterlimit:10;" d="M 1.2946 1.735 L 1.2946 1.795 " transform="matrix(600,0,0,-600,-83.759996,1212)"/>
<path style="fill:none;stroke-width:0.06;stroke-linecap:round;stroke-linejoin:miter;stroke:rgb(0%,0%,0%);stroke-opacity:1;stroke-miterlimit:10;" d="M 1.3946 1.795 L 1.3946 1.735 " transform="matrix(600,0,0,-600,-83.759996,1212)"/>
<path style="fill:none;stroke-width:0.06;stroke-linecap:round;stroke-linejoin:miter;stroke:rgb(0%,0%,0%);stroke-opacity:1;stroke-miterlimit:10;" d="M 1.4946 1.735 L 1.4946 1.795 " transform="matrix(600,0,0,-600,-83.759996,1212)"/>
<path style="fill:none;stroke-width:0.06;stroke-linecap:round;stroke-linejoin:miter;stroke:rgb(0%,0%,0%);stroke-opacity:1;stroke-miterlimit:10;" d="M 0.7446 1.795 L 0.7446 1.735 " transform="matrix(600,0,0,-600,-83.759996,1212)"/>
<path style="fill:none;stroke-width:0.06;stroke-linecap:round;stroke-linejoin:miter;stroke:rgb(0%,0%,0%);stroke-opacity:1;stroke-miterlimit:10;" d="M 0.6446 1.735 L 0.6446 1.795 " transform="matrix(600,0,0,-600,-83.759996,1212)"/>
<path style="fill:none;stroke-width:0.06;stroke-linecap:round;stroke-linejoin:miter;stroke:rgb(0%,0%,0%);stroke-opacity:1;stroke-miterlimit:10;" d="M 0.5446 1.795 L 0.5446 1.735 " transform="matrix(600,0,0,-600,-83.759996,1212)"/>
<path style="fill:none;stroke-width:0.06;stroke-linecap:round;stroke-linejoin:miter;stroke:rgb(0%,0%,0%);stroke-opacity:1;stroke-miterlimit:10;" d="M 1.0446 0.245 L 1.0446 0.185 " transform="matrix(600,0,0,-600,-83.759996,1212)"/>
<path style="fill:none;stroke-width:0.06;stroke-linecap:round;stroke-linejoin:miter;stroke:rgb(0%,0%,0%);stroke-opacity:1;stroke-miterlimit:10;" d="M 1.1446 0.185 L 1.1446 0.245 " transform="matrix(600,0,0,-600,-83.759996,1212)"/>
<path style="fill:none;stroke-width:0.06;stroke-linecap:round;stroke-linejoin:miter;stroke:rgb(0%,0%,0%);stroke-opacity:1;stroke-miterlimit:10;" d="M 1.2446 0.245 L 1.2446 0.185 " transform="matrix(600,0,0,-600,-83.759996,1212)"/>
<path style=" stroke:none;fill-rule:evenodd;fill:rgb(0%,0%,0%);fill-opacity:1;" d="M 156 1113 C 156 1078.207031 127.792969 1050 93 1050 C 58.207031 1050 30 1078.207031 30 1113 C 30 1147.792969 58.207031 1176 93 1176 C 127.792969 1176 156 1147.792969 156 1113 "/>
<path style=" stroke:none;fill-rule:evenodd;fill:rgb(0%,0%,0%);fill-opacity:1;" d="M 156 93 C 156 58.207031 127.792969 30 93 30 C 58.207031 30 30 58.207031 30 93 C 30 127.792969 58.207031 156 93 156 C 127.792969 156 156 127.792969 156 93 "/>
<path style=" stroke:none;fill-rule:evenodd;fill:rgb(0%,0%,0%);fill-opacity:1;" d="M 1176 93 C 1176 58.207031 1147.792969 30 1113 30 C 1078.207031 30 1050 58.207031 1050 93 C 1050 127.792969 1078.207031 156 1113 156 C 1147.792969 156 1176 127.792969 1176 93 "/>
<path style=" stroke:none;fill-rule:evenodd;fill:rgb(0%,0%,0%);fill-opacity:1;" d="M 1176 1113 C 1176 1078.207031 1147.792969 1050 1113 1050 C 1078.207031 1050 1050 1078.207031 1050 1113 C 1050 1147.792969 1078.207031 1176 1113 1176 C 1147.792969 1176 1176 1147.792969 1176 1113 "/>
<path style="fill:none;stroke-width:0.024;stroke-linecap:round;stroke-linejoin:miter;stroke:rgb(0%,0%,0%);stroke-opacity:1;stroke-miterlimit:10;" d="M 1.2446 1.215 L 1.2446 1.415 " transform="matrix(600,0,0,-600,-83.759996,1212)"/>
<path style="fill:none;stroke-width:0.024;stroke-linecap:round;stroke-linejoin:miter;stroke:rgb(0%,0%,0%);stroke-opacity:1;stroke-miterlimit:10;" d="M 1.2446 1.415 L 1.1946 1.465 " transform="matrix(600,0,0,-600,-83.759996,1212)"/>
<path style=" stroke:none;fill-rule:evenodd;fill:rgb(0%,0%,0%);fill-opacity:1;" d="M 652.800781 333 C 652.800781 306.601562 613.199219 306.601562 613.199219 333 C 613.199219 359.398438 652.800781 359.398438 652.800781 333 "/>
<path style=" stroke:none;fill-rule:evenodd;fill:rgb(0%,0%,0%);fill-opacity:1;" d="M 682.800781 483 C 682.800781 456.601562 643.199219 456.601562 643.199219 483 C 643.199219 509.398438 682.800781 509.398438 682.800781 483 "/>
<path style=" stroke:none;fill-rule:evenodd;fill:rgb(100%,100%,100%);fill-opacity:1;" d="M 157.800781 963 C 157.800781 956.601562 148.199219 956.601562 148.199219 963 C 148.199219 969.398438 157.800781 969.398438 157.800781 963 "/>
<path style=" stroke:none;fill-rule:evenodd;fill:rgb(100%,100%,100%);fill-opacity:1;" d="M 247.800781 903 C 247.800781 896.601562 238.199219 896.601562 238.199219 903 C 238.199219 909.398438 247.800781 909.398438 247.800781 903 "/>
<path style=" stroke:none;fill-rule:evenodd;fill:rgb(100%,100%,100%);fill-opacity:1;" d="M 307.800781 903 C 307.800781 896.601562 298.199219 896.601562 298.199219 903 C 298.199219 909.398438 307.800781 909.398438 307.800781 903 "/>
<path style=" stroke:none;fill-rule:evenodd;fill:rgb(100%,100%,100%);fill-opacity:1;" d="M 307.800781 813 C 307.800781 806.601562 298.199219 806.601562 298.199219 813 C 298.199219 819.398438 307.800781 819.398438 307.800781 813 "/>
<path style=" stroke:none;fill-rule:evenodd;fill:rgb(100%,100%,100%);fill-opacity:1;" d="M 247.800781 813 C 247.800781 806.601562 238.199219 806.601562 238.199219 813 C 238.199219 819.398438 247.800781 819.398438 247.800781 813 "/>
<path style=" stroke:none;fill-rule:evenodd;fill:rgb(100%,100%,100%);fill-opacity:1;" d="M 247.800781 723 C 247.800781 716.601562 238.199219 716.601562 238.199219 723 C 238.199219 729.398438 247.800781 729.398438 247.800781 723 "/>
<path style=" stroke:none;fill-rule:evenodd;fill:rgb(100%,100%,100%);fill-opacity:1;" d="M 307.800781 723 C 307.800781 716.601562 298.199219 716.601562 298.199219 723 C 298.199219 729.398438 307.800781 729.398438 307.800781 723 "/>
<path style=" stroke:none;fill-rule:evenodd;fill:rgb(100%,100%,100%);fill-opacity:1;" d="M 307.800781 633 C 307.800781 626.601562 298.199219 626.601562 298.199219 633 C 298.199219 639.398438 307.800781 639.398438 307.800781 633 "/>
<path style=" stroke:none;fill-rule:evenodd;fill:rgb(100%,100%,100%);fill-opacity:1;" d="M 247.800781 633 C 247.800781 626.601562 238.199219 626.601562 238.199219 633 C 238.199219 639.398438 247.800781 639.398438 247.800781 633 "/>
<path style=" stroke:none;fill-rule:evenodd;fill:rgb(100%,100%,100%);fill-opacity:1;" d="M 157.800781 633 C 157.800781 626.601562 148.199219 626.601562 148.199219 633 C 148.199219 639.398438 157.800781 639.398438 157.800781 633 "/>
<path style=" stroke:none;fill-rule:evenodd;fill:rgb(100%,100%,100%);fill-opacity:1;" d="M 157.800781 723 C 157.800781 716.601562 148.199219 716.601562 148.199219 723 C 148.199219 729.398438 157.800781 729.398438 157.800781 723 "/>
<path style=" stroke:none;fill-rule:evenodd;fill:rgb(100%,100%,100%);fill-opacity:1;" d="M 247.800781 543 C 247.800781 536.601562 238.199219 536.601562 238.199219 543 C 238.199219 549.398438 247.800781 549.398438 247.800781 543 "/>
<path style=" stroke:none;fill-rule:evenodd;fill:rgb(100%,100%,100%);fill-opacity:1;" d="M 307.800781 543 C 307.800781 536.601562 298.199219 536.601562 298.199219 543 C 298.199219 549.398438 307.800781 549.398438 307.800781 543 "/>
<path style=" stroke:none;fill-rule:evenodd;fill:rgb(100%,100%,100%);fill-opacity:1;" d="M 157.800781 393 C 157.800781 386.601562 148.199219 386.601562 148.199219 393 C 148.199219 399.398438 157.800781 399.398438 157.800781 393 "/>
<path style=" stroke:none;fill-rule:evenodd;fill:rgb(100%,100%,100%);fill-opacity:1;" d="M 457.800781 303 C 457.800781 296.601562 448.199219 296.601562 448.199219 303 C 448.199219 309.398438 457.800781 309.398438 457.800781 303 "/>
<path style=" stroke:none;fill-rule:evenodd;fill:rgb(100%,100%,100%);fill-opacity:1;" d="M 517.800781 303 C 517.800781 296.601562 508.199219 296.601562 508.199219 303 C 508.199219 309.398438 517.800781 309.398438 517.800781 303 "/>
<path style=" stroke:none;fill-rule:evenodd;fill:rgb(100%,100%,100%);fill-opacity:1;" d="M 577.800781 399 C 577.800781 392.601562 568.199219 392.601562 568.199219 399 C 568.199219 405.398438 577.800781 405.398438 577.800781 399 "/>
<path style=" stroke:none;fill-rule:evenodd;fill:rgb(100%,100%,100%);fill-opacity:1;" d="M 577.800781 447 C 577.800781 440.601562 568.199219 440.601562 568.199219 447 C 568.199219 453.398438 577.800781 453.398438 577.800781 447 "/>
<path style=" stroke:none;fill-rule:evenodd;fill:rgb(100%,100%,100%);fill-opacity:1;" d="M 667.800781 483 C 667.800781 476.601562 658.199219 476.601562 658.199219 483 C 658.199219 489.398438 667.800781 489.398438 667.800781 483 "/>
<path style=" stroke:none;fill-rule:evenodd;fill:rgb(100%,100%,100%);fill-opacity:1;" d="M 757.800781 447 C 757.800781 440.601562 748.199219 440.601562 748.199219 447 C 748.199219 453.398438 757.800781 453.398438 757.800781 447 "/>
<path style=" stroke:none;fill-rule:evenodd;fill:rgb(100%,100%,100%);fill-opacity:1;" d="M 757.800781 399 C 757.800781 392.601562 748.199219 392.601562 748.199219 399 C 748.199219 405.398438 757.800781 405.398438 757.800781 399 "/>
<path style=" stroke:none;fill-rule:evenodd;fill:rgb(100%,100%,100%);fill-opacity:1;" d="M 877.800781 363 C 877.800781 356.601562 868.199219 356.601562 868.199219 363 C 868.199219 369.398438 877.800781 369.398438 877.800781 363 "/>
<path style=" stroke:none;fill-rule:evenodd;fill:rgb(100%,100%,100%);fill-opacity:1;" d="M 877.800781 453 C 877.800781 446.601562 868.199219 446.601562 868.199219 453 C 868.199219 459.398438 877.800781 459.398438 877.800781 453 "/>
<path style=" stroke:none;fill-rule:evenodd;fill:rgb(100%,100%,100%);fill-opacity:1;" d="M 907.800781 543 C 907.800781 536.601562 898.199219 536.601562 898.199219 543 C 898.199219 549.398438 907.800781 549.398438 907.800781 543 "/>
<path style=" stroke:none;fill-rule:evenodd;fill:rgb(100%,100%,100%);fill-opacity:1;" d="M 967.800781 543 C 967.800781 536.601562 958.199219 536.601562 958.199219 543 C 958.199219 549.398438 967.800781 549.398438 967.800781 543 "/>
<path style=" stroke:none;fill-rule:evenodd;fill:rgb(100%,100%,100%);fill-opacity:1;" d="M 967.800781 633 C 967.800781 626.601562 958.199219 626.601562 958.199219 633 C 958.199219 639.398438 967.800781 639.398438 967.800781 633 "/>
<path style=" stroke:none;fill-rule:evenodd;fill:rgb(100%,100%,100%);fill-opacity:1;" d="M 907.800781 633 C 907.800781 626.601562 898.199219 626.601562 898.199219 633 C 898.199219 639.398438 907.800781 639.398438 907.800781 633 "/>
<path style=" stroke:none;fill-rule:evenodd;fill:rgb(100%,100%,100%);fill-opacity:1;" d="M 907.800781 723 C 907.800781 716.601562 898.199219 716.601562 898.199219 723 C 898.199219 729.398438 907.800781 729.398438 907.800781 723 "/>
<path style=" stroke:none;fill-rule:evenodd;fill:rgb(100%,100%,100%);fill-opacity:1;" d="M 967.800781 723 C 967.800781 716.601562 958.199219 716.601562 958.199219 723 C 958.199219 729.398438 967.800781 729.398438 967.800781 723 "/>
<path style=" stroke:none;fill-rule:evenodd;fill:rgb(100%,100%,100%);fill-opacity:1;" d="M 967.800781 813 C 967.800781 806.601562 958.199219 806.601562 958.199219 813 C 958.199219 819.398438 967.800781 819.398438 967.800781 813 "/>
<path style=" stroke:none;fill-rule:evenodd;fill:rgb(100%,100%,100%);fill-opacity:1;" d="M 907.800781 813 C 907.800781 806.601562 898.199219 806.601562 898.199219 813 C 898.199219 819.398438 907.800781 819.398438 907.800781 813 "/>
<path style=" stroke:none;fill-rule:evenodd;fill:rgb(100%,100%,100%);fill-opacity:1;" d="M 907.800781 903 C 907.800781 896.601562 898.199219 896.601562 898.199219 903 C 898.199219 909.398438 907.800781 909.398438 907.800781 903 "/>
<path style=" stroke:none;fill-rule:evenodd;fill:rgb(100%,100%,100%);fill-opacity:1;" d="M 967.800781 903 C 967.800781 896.601562 958.199219 896.601562 958.199219 903 C 958.199219 909.398438 967.800781 909.398438 967.800781 903 "/>
<path style=" stroke:none;fill-rule:evenodd;fill:rgb(100%,100%,100%);fill-opacity:1;" d="M 1057.800781 813 C 1057.800781 806.601562 1048.199219 806.601562 1048.199219 813 C 1048.199219 819.398438 1057.800781 819.398438 1057.800781 813 "/>
<path style=" stroke:none;fill-rule:evenodd;fill:rgb(100%,100%,100%);fill-opacity:1;" d="M 967.800781 1053 C 967.800781 1046.601562 958.199219 1046.601562 958.199219 1053 C 958.199219 1059.398438 967.800781 1059.398438 967.800781 1053 "/>
<path style=" stroke:none;fill-rule:evenodd;fill:rgb(100%,100%,100%);fill-opacity:1;" d="M 727.800781 1053 C 727.800781 1046.601562 718.199219 1046.601562 718.199219 1053 C 718.199219 1059.398438 727.800781 1059.398438 727.800781 1053 "/>
<path style=" stroke:none;fill-rule:evenodd;fill:rgb(100%,100%,100%);fill-opacity:1;" d="M 727.800781 957 C 727.800781 950.601562 718.199219 950.601562 718.199219 957 C 718.199219 963.398438 727.800781 963.398438 727.800781 957 "/>
<path style=" stroke:none;fill-rule:evenodd;fill:rgb(100%,100%,100%);fill-opacity:1;" d="M 727.800781 909 C 727.800781 902.601562 718.199219 902.601562 718.199219 909 C 718.199219 915.398438 727.800781 915.398438 727.800781 909 "/>
<path style=" stroke:none;fill-rule:evenodd;fill:rgb(100%,100%,100%);fill-opacity:1;" d="M 601.800781 933 C 601.800781 926.601562 592.199219 926.601562 592.199219 933 C 592.199219 939.398438 601.800781 939.398438 601.800781 933 "/>
<path style=" stroke:none;fill-rule:evenodd;fill:rgb(100%,100%,100%);fill-opacity:1;" d="M 553.800781 933 C 553.800781 926.601562 544.199219 926.601562 544.199219 933 C 544.199219 939.398438 553.800781 939.398438 553.800781 933 "/>
<path style=" stroke:none;fill-rule:evenodd;fill:rgb(100%,100%,100%);fill-opacity:1;" d="M 427.800781 957 C 427.800781 950.601562 418.199219 950.601562 418.199219 957 C 418.199219 963.398438 427.800781 963.398438 427.800781 957 "/>
<path style=" stroke:none;fill-rule:evenodd;fill:rgb(100%,100%,100%);fill-opacity:1;" d="M 427.800781 909 C 427.800781 902.601562 418.199219 902.601562 418.199219 909 C 418.199219 915.398438 427.800781 915.398438 427.800781 909 "/>
<path style=" stroke:none;fill-rule:evenodd;fill:rgb(100%,100%,100%);fill-opacity:1;" d="M 487.800781 1053 C 487.800781 1046.601562 478.199219 1046.601562 478.199219 1053 C 478.199219 1059.398438 487.800781 1059.398438 487.800781 1053 "/>
<path style=" stroke:none;fill-rule:evenodd;fill:rgb(100%,100%,100%);fill-opacity:1;" d="M 247.800781 1053 C 247.800781 1046.601562 238.199219 1046.601562 238.199219 1053 C 238.199219 1059.398438 247.800781 1059.398438 247.800781 1053 "/>
<path style=" stroke:none;fill-rule:evenodd;fill:rgb(100%,100%,100%);fill-opacity:1;" d="M 637.800781 333 C 637.800781 326.601562 628.199219 326.601562 628.199219 333 C 628.199219 339.398438 637.800781 339.398438 637.800781 333 "/>
<path style=" stroke:none;fill-rule:evenodd;fill:rgb(100%,100%,100%);fill-opacity:1;" d="M 697.800781 273 C 697.800781 266.601562 688.199219 266.601562 688.199219 273 C 688.199219 279.398438 697.800781 279.398438 697.800781 273 "/>
<path style=" stroke:none;fill-rule:evenodd;fill:rgb(100%,100%,100%);fill-opacity:1;" d="M 937.800781 273 C 937.800781 266.601562 928.199219 266.601562 928.199219 273 C 928.199219 279.398438 937.800781 279.398438 937.800781 273 "/>
<path style=" stroke:none;fill-rule:evenodd;fill:rgb(100%,100%,100%);fill-opacity:1;" d="M 1117.800781 363 C 1117.800781 356.601562 1108.199219 356.601562 1108.199219 363 C 1108.199219 369.398438 1117.800781 369.398438 1117.800781 363 "/>
<path style=" stroke:none;fill-rule:evenodd;fill:rgb(100%,100%,100%);fill-opacity:1;" d="M 1117.800781 453 C 1117.800781 446.601562 1108.199219 446.601562 1108.199219 453 C 1108.199219 459.398438 1117.800781 459.398438 1117.800781 453 "/>
<path style=" stroke:none;fill-rule:evenodd;fill:rgb(100%,100%,100%);fill-opacity:1;" d="M 1057.800781 573 C 1057.800781 566.601562 1048.199219 566.601562 1048.199219 573 C 1048.199219 579.398438 1057.800781 579.398438 1057.800781 573 "/>
<path style=" stroke:none;fill-rule:evenodd;fill:rgb(100%,100%,100%);fill-opacity:1;" d="M 817.800781 153 C 817.800781 146.601562 808.199219 146.601562 808.199219 153 C 808.199219 159.398438 817.800781 159.398438 817.800781 153 "/>
<path style=" stroke:none;fill-rule:evenodd;fill:rgb(100%,100%,100%);fill-opacity:1;" d="M 757.800781 153 C 757.800781 146.601562 748.199219 146.601562 748.199219 153 C 748.199219 159.398438 757.800781 159.398438 757.800781 153 "/>
<path style=" stroke:none;fill-rule:evenodd;fill:rgb(100%,100%,100%);fill-opacity:1;" d="M 697.800781 153 C 697.800781 146.601562 688.199219 146.601562 688.199219 153 C 688.199219 159.398438 697.800781 159.398438 697.800781 153 "/>
<path style=" stroke:none;fill-rule:evenodd;fill:rgb(100%,100%,100%);fill-opacity:1;" d="M 547.800781 153 C 547.800781 146.601562 538.199219 146.601562 538.199219 153 C 538.199219 159.398438 547.800781 159.398438 547.800781 153 "/>
<path style=" stroke:none;fill-rule:evenodd;fill:rgb(100%,100%,100%);fill-opacity:1;" d="M 487.800781 153 C 487.800781 146.601562 478.199219 146.601562 478.199219 153 C 478.199219 159.398438 487.800781 159.398438 487.800781 153 "/>
<path style=" stroke:none;fill-rule:evenodd;fill:rgb(100%,100%,100%);fill-opacity:1;" d="M 367.800781 153 C 367.800781 146.601562 358.199219 146.601562 358.199219 153 C 358.199219 159.398438 367.800781 159.398438 367.800781 153 "/>
<path style=" stroke:none;fill-rule:evenodd;fill:rgb(100%,100%,100%);fill-opacity:1;" d="M 307.800781 153 C 307.800781 146.601562 298.199219 146.601562 298.199219 153 C 298.199219 159.398438 307.800781 159.398438 307.800781 153 "/>
<path style=" stroke:none;fill-rule:evenodd;fill:rgb(100%,100%,100%);fill-opacity:1;" d="M 247.800781 153 C 247.800781 146.601562 238.199219 146.601562 238.199219 153 C 238.199219 159.398438 247.800781 159.398438 247.800781 153 "/>
<path style=" stroke:none;fill-rule:evenodd;fill:rgb(100%,100%,100%);fill-opacity:1;" d="M 547.800781 1083 C 547.800781 1076.601562 538.199219 1076.601562 538.199219 1083 C 538.199219 1089.398438 547.800781 1089.398438 547.800781 1083 "/>
<path style=" stroke:none;fill-rule:evenodd;fill:rgb(100%,100%,100%);fill-opacity:1;" d="M 607.800781 1083 C 607.800781 1076.601562 598.199219 1076.601562 598.199219 1083 C 598.199219 1089.398438 607.800781 1089.398438 607.800781 1083 "/>
<path style=" stroke:none;fill-rule:evenodd;fill:rgb(100%,100%,100%);fill-opacity:1;" d="M 667.800781 1083 C 667.800781 1076.601562 658.199219 1076.601562 658.199219 1083 C 658.199219 1089.398438 667.800781 1089.398438 667.800781 1083 "/>
<path style=" stroke:none;fill-rule:evenodd;fill:rgb(100%,100%,100%);fill-opacity:1;" d="M 97.800781 1113 C 97.800781 1106.601562 88.199219 1106.601562 88.199219 1113 C 88.199219 1119.398438 97.800781 1119.398438 97.800781 1113 "/>
<path style=" stroke:none;fill-rule:evenodd;fill:rgb(100%,100%,100%);fill-opacity:1;" d="M 97.800781 93 C 97.800781 86.601562 88.199219 86.601562 88.199219 93 C 88.199219 99.398438 97.800781 99.398438 97.800781 93 "/>
<path style=" stroke:none;fill-rule:evenodd;fill:rgb(100%,100%,100%);fill-opacity:1;" d="M 1117.800781 93 C 1117.800781 86.601562 1108.199219 86.601562 1108.199219 93 C 1108.199219 99.398438 1117.800781 99.398438 1117.800781 93 "/>
<path style=" stroke:none;fill-rule:evenodd;fill:rgb(100%,100%,100%);fill-opacity:1;" d="M 1117.800781 1113 C 1117.800781 1106.601562 1108.199219 1106.601562 1108.199219 1113 C 1108.199219 1119.398438 1117.800781 1119.398438 1117.800781 1113 "/>
</g>
</svg>
