<?xml version="1.0" encoding="UTF-8"?>
<svg xmlns="http://www.w3.org/2000/svg" xmlns:xlink="http://www.w3.org/1999/xlink" width="1198pt" height="1206pt" viewBox="0 0 1198 1206" version="1.1">
<g id="surface1">
<path style="fill:none;stroke-width:0.01;stroke-linecap:round;stroke-linejoin:miter;stroke:rgb(0%,0%,0%);stroke-opacity:1;stroke-miterlimit:10;" d="M 0.14462 0.022 L 0.14462 2.021609 " transform="matrix(600,0,0,-600,-83.772004,1216.200001)"/>
<path style="fill:none;stroke-width:0.01;stroke-linecap:round;stroke-linejoin:miter;stroke:rgb(0%,0%,0%);stroke-opacity:1;stroke-miterlimit:10;" d="M 0.14462 2.021609 L 2.131632 2.021609 " transform="matrix(600,0,0,-600,-83.772004,1216.200001)"/>
<path style="fill:none;stroke-width:0.01;stroke-linecap:round;stroke-linejoin:miter;stroke:rgb(0%,0%,0%);stroke-opacity:1;stroke-miterlimit:10;" d="M 2.131632 2.021609 L 2.131632 0.022 " transform="matrix(600,0,0,-600,-83.772004,1216.200001)"/>
<path style="fill:none;stroke-width:0.01;stroke-linecap:round;stroke-linejoin:miter;stroke:rgb(0%,0%,0%);stroke-opacity:1;stroke-miterlimit:10;" d="M 2.131632 0.022 L 0.14462 0.022 " transform="matrix(600,0,0,-600,-83.772004,1216.200001)"/>
<path style="fill:none;stroke-width:0.06;stroke-linecap:round;stroke-linejoin:miter;stroke:rgb(0%,0%,0%);stroke-opacity:1;stroke-miterlimit:10;" d="M 1.04462 0.192 L 1.04462 0.252 " transform="matrix(600,0,0,-600,-83.772004,1216.200001)"/>
<path style="fill:none;stroke-width:0.06;stroke-linecap:round;stroke-linejoin:miter;stroke:rgb(0%,0%,0%);stroke-opacity:1;stroke-miterlimit:10;" d="M 1.14462 0.252 L 1.14462 0.192 " transform="matrix(600,0,0,-600,-83.772004,1216.200001)"/>
<path style="fill:none;stroke-width:0.06;stroke-linecap:round;stroke-linejoin:miter;stroke:rgb(0%,0%,0%);stroke-opacity:1;stroke-miterlimit:10;" d="M 1.24462 0.192 L 1.24462 0.252 " transform="matrix(600,0,0,-600,-83.772004,1216.200001)"/>
<path style="fill:none;stroke-width:0.06;stroke-linecap:round;stroke-linejoin:miter;stroke:rgb(0%,0%,0%);stroke-opacity:1;stroke-miterlimit:10;" d="M 1.29462 1.742 L 1.29462 1.802 " transform="matrix(600,0,0,-600,-83.772004,1216.200001)"/>
<path style="fill:none;stroke-width:0.06;stroke-linecap:round;stroke-linejoin:miter;stroke:rgb(0%,0%,0%);stroke-opacity:1;stroke-miterlimit:10;" d="M 1.39462 1.802 L 1.39462 1.742 " transform="matrix(600,0,0,-600,-83.772004,1216.200001)"/>
<path style="fill:none;stroke-width:0.06;stroke-linecap:round;stroke-linejoin:miter;stroke:rgb(0%,0%,0%);stroke-opacity:1;stroke-miterlimit:10;" d="M 1.49462 1.742 L 1.49462 1.802 " transform="matrix(600,0,0,-600,-83.772004,1216.200001)"/>
<path style="fill:none;stroke-width:0.06;stroke-linecap:round;stroke-linejoin:miter;stroke:rgb(0%,0%,0%);stroke-opacity:1;stroke-miterlimit:10;" d="M 1.04462 1.802 L 1.04462 1.742 " transform="matrix(600,0,0,-600,-83.772004,1216.200001)"/>
<path style="fill:none;stroke-width:0.06;stroke-linecap:round;stroke-linejoin:miter;stroke:rgb(0%,0%,0%);stroke-opacity:1;stroke-miterlimit:10;" d="M 0.94462 1.742 L 0.94462 1.802 " transform="matrix(600,0,0,-600,-83.772004,1216.200001)"/>
<path style="fill:none;stroke-width:0.06;stroke-linecap:round;stroke-linejoin:miter;stroke:rgb(0%,0%,0%);stroke-opacity:1;stroke-miterlimit:10;" d="M 0.74462 1.802 L 0.74462 1.742 " transform="matrix(600,0,0,-600,-83.772004,1216.200001)"/>
<path style="fill:none;stroke-width:0.06;stroke-linecap:round;stroke-linejoin:miter;stroke:rgb(0%,0%,0%);stroke-opacity:1;stroke-miterlimit:10;" d="M 0.64462 1.742 L 0.64462 1.802 " transform="matrix(600,0,0,-600,-83.772004,1216.200001)"/>
<path style="fill:none;stroke-width:0.06;stroke-linecap:round;stroke-linejoin:miter;stroke:rgb(0%,0%,0%);stroke-opacity:1;stroke-miterlimit:10;" d="M 0.54462 1.802 L 0.54462 1.742 " transform="matrix(600,0,0,-600,-83.772004,1216.200001)"/>
<path style=" stroke:none;fill-rule:evenodd;fill:rgb(0%,0%,0%);fill-opacity:1;" d="M 156 1113 C 156 1078.207031 127.792969 1050 93 1050 C 58.207031 1050 30 1078.207031 30 1113 C 30 1147.792969 58.207031 1176 93 1176 C 127.792969 1176 156 1147.792969 156 1113 "/>
<path style=" stroke:none;fill-rule:evenodd;fill:rgb(0%,0%,0%);fill-opacity:1;" d="M 1176 1113 C 1176 1078.207031 1147.792969 1050 1113 1050 C 1078.207031 1050 1050 1078.207031 1050 1113 C 1050 1147.792969 1078.207031 1176 1113 1176 C 1147.792969 1176 1176 1147.792969 1176 1113 "/>
<path style=" stroke:none;fill-rule:evenodd;fill:rgb(0%,0%,0%);fill-opacity:1;" d="M 1176 93 C 1176 58.207031 1147.792969 30 1113 30 C 1078.207031 30 1050 58.207031 1050 93 C 1050 127.792969 1078.207031 156 1113 156 C 1147.792969 156 1176 127.792969 1176 93 "/>
<path style=" stroke:none;fill-rule:evenodd;fill:rgb(0%,0%,0%);fill-opacity:1;" d="M 156 93 C 156 58.207031 127.792969 30 93 30 C 58.207031 30 30 58.207031 30 93 C 30 127.792969 58.207031 156 93 156 C 127.792969 156 156 127.792969 156 93 "/>
<path style=" stroke:none;fill-rule:evenodd;fill:rgb(0%,0%,0%);fill-opacity:1;" d="M 577.800781 363 C 577.800781 336.601562 538.199219 336.601562 538.199219 363 C 538.199219 389.398438 577.800781 389.398438 577.800781 363 "/>
<path style=" stroke:none;fill-rule:evenodd;fill:rgb(0%,0%,0%);fill-opacity:1;" d="M 667.800781 498 C 667.800781 471.601562 628.199219 471.601562 628.199219 498 C 628.199219 524.398438 667.800781 524.398438 667.800781 498 "/>
<path style="fill:none;stroke-width:0.024;stroke-linecap:round;stroke-linejoin:miter;stroke:rgb(0%,0%,0%);stroke-opacity:1;stroke-miterlimit:10;" d="M 1.21962 1.197 L 1.06962 1.347 " transform="matrix(600,0,0,-600,-83.772004,1216.200001)"/>
<path style="fill:none;stroke-width:0.024;stroke-linecap:round;stroke-linejoin:miter;stroke:rgb(0%,0%,0%);stroke-opacity:1;stroke-miterlimit:10;" d="M 1.06962 1.347 L 1.06962 1.422 " transform="matrix(600,0,0,-600,-83.772004,1216.200001)"/>
<path style=" stroke:none;fill-rule:evenodd;fill:rgb(100%,100%,100%);fill-opacity:1;" d="M 652.789062 498 C 652.789062 491.601562 643.1875 491.601562 643.1875 498 C 643.1875 504.398438 652.789062 504.398438 652.789062 498 "/>
<path style=" stroke:none;fill-rule:evenodd;fill:rgb(100%,100%,100%);fill-opacity:1;" d="M 562.789062 363 C 562.789062 356.601562 553.1875 356.601562 553.1875 363 C 553.1875 369.398438 562.789062 369.398438 562.789062 363 "/>
<path style=" stroke:none;fill-rule:evenodd;fill:rgb(100%,100%,100%);fill-opacity:1;" d="M 547.789062 153 C 547.789062 146.601562 538.1875 146.601562 538.1875 153 C 538.1875 159.398438 547.789062 159.398438 547.789062 153 "/>
<path style=" stroke:none;fill-rule:evenodd;fill:rgb(100%,100%,100%);fill-opacity:1;" d="M 487.789062 153 C 487.789062 146.601562 478.1875 146.601562 478.1875 153 C 478.1875 159.398438 487.789062 159.398438 487.789062 153 "/>
<path style=" stroke:none;fill-rule:evenodd;fill:rgb(100%,100%,100%);fill-opacity:1;" d="M 367.789062 153 C 367.789062 146.601562 358.1875 146.601562 358.1875 153 C 358.1875 159.398438 367.789062 159.398438 367.789062 153 "/>
<path style=" stroke:none;fill-rule:evenodd;fill:rgb(100%,100%,100%);fill-opacity:1;" d="M 307.789062 153 C 307.789062 146.601562 298.1875 146.601562 298.1875 153 C 298.1875 159.398438 307.789062 159.398438 307.789062 153 "/>
<path style=" stroke:none;fill-rule:evenodd;fill:rgb(100%,100%,100%);fill-opacity:1;" d="M 247.789062 153 C 247.789062 146.601562 238.1875 146.601562 238.1875 153 C 238.1875 159.398438 247.789062 159.398438 247.789062 153 "/>
<path style=" stroke:none;fill-rule:evenodd;fill:rgb(100%,100%,100%);fill-opacity:1;" d="M 697.789062 153 C 697.789062 146.601562 688.1875 146.601562 688.1875 153 C 688.1875 159.398438 697.789062 159.398438 697.789062 153 "/>
<path style=" stroke:none;fill-rule:evenodd;fill:rgb(100%,100%,100%);fill-opacity:1;" d="M 757.789062 153 C 757.789062 146.601562 748.1875 146.601562 748.1875 153 C 748.1875 159.398438 757.789062 159.398438 757.789062 153 "/>
<path style=" stroke:none;fill-rule:evenodd;fill:rgb(100%,100%,100%);fill-opacity:1;" d="M 817.789062 153 C 817.789062 146.601562 808.1875 146.601562 808.1875 153 C 808.1875 159.398438 817.789062 159.398438 817.789062 153 "/>
<path style=" stroke:none;fill-rule:evenodd;fill:rgb(100%,100%,100%);fill-opacity:1;" d="M 667.789062 1083 C 667.789062 1076.601562 658.1875 1076.601562 658.1875 1083 C 658.1875 1089.398438 667.789062 1089.398438 667.789062 1083 "/>
<path style=" stroke:none;fill-rule:evenodd;fill:rgb(100%,100%,100%);fill-opacity:1;" d="M 607.789062 1083 C 607.789062 1076.601562 598.1875 1076.601562 598.1875 1083 C 598.1875 1089.398438 607.789062 1089.398438 607.789062 1083 "/>
<path style=" stroke:none;fill-rule:evenodd;fill:rgb(100%,100%,100%);fill-opacity:1;" d="M 547.789062 1083 C 547.789062 1076.601562 538.1875 1076.601562 538.1875 1083 C 538.1875 1089.398438 547.789062 1089.398438 547.789062 1083 "/>
<path style=" stroke:none;fill-rule:evenodd;fill:rgb(100%,100%,100%);fill-opacity:1;" d="M 97.789062 1113 C 97.789062 1106.601562 88.1875 1106.601562 88.1875 1113 C 88.1875 1119.398438 97.789062 1119.398438 97.789062 1113 "/>
<path style=" stroke:none;fill-rule:evenodd;fill:rgb(100%,100%,100%);fill-opacity:1;" d="M 97.789062 93 C 97.789062 86.601562 88.1875 86.601562 88.1875 93 C 88.1875 99.398438 97.789062 99.398438 97.789062 93 "/>
<path style=" stroke:none;fill-rule:evenodd;fill:rgb(100%,100%,100%);fill-opacity:1;" d="M 1117.789062 93 C 1117.789062 86.601562 1108.1875 86.601562 1108.1875 93 C 1108.1875 99.398438 1117.789062 99.398438 1117.789062 93 "/>
<path style=" stroke:none;fill-rule:evenodd;fill:rgb(100%,100%,100%);fill-opacity:1;" d="M 1117.789062 1113 C 1117.789062 1106.601562 1108.1875 1106.601562 1108.1875 1113 C 1108.1875 1119.398438 1117.789062 1119.398438 1117.789062 1113 "/>
</g>
</svg>
