<?xml version="1.0" encoding="UTF-8"?>
<svg xmlns="http://www.w3.org/2000/svg" xmlns:xlink="http://www.w3.org/1999/xlink" width="1235pt" height="1379pt" viewBox="0 0 1235 1379" version="1.1">
<g id="surface1">
<path style="fill:none;stroke-width:0.01;stroke-linecap:round;stroke-linejoin:miter;stroke:rgb(0%,0%,0%);stroke-opacity:1;stroke-miterlimit:10;" d="M 0.8333 0.015 L 0.8333 2.164603 " transform="matrix(600,0,0,-600,-496.98,1385)"/>
<path style="fill:none;stroke-width:0.01;stroke-linecap:round;stroke-linejoin:miter;stroke:rgb(0%,0%,0%);stroke-opacity:1;stroke-miterlimit:10;" d="M 0.8333 2.164603 L 2.870299 2.164603 " transform="matrix(600,0,0,-600,-496.98,1385)"/>
<path style="fill:none;stroke-width:0.01;stroke-linecap:round;stroke-linejoin:miter;stroke:rgb(0%,0%,0%);stroke-opacity:1;stroke-miterlimit:10;" d="M 2.870299 2.164603 L 2.870299 0.015 " transform="matrix(600,0,0,-600,-496.98,1385)"/>
<path style="fill:none;stroke-width:0.01;stroke-linecap:round;stroke-linejoin:miter;stroke:rgb(0%,0%,0%);stroke-opacity:1;stroke-miterlimit:10;" d="M 2.870299 0.015 L 0.8333 0.015 " transform="matrix(600,0,0,-600,-496.98,1385)"/>
<path style="fill:none;stroke-width:0.0051;stroke-linecap:round;stroke-linejoin:miter;stroke:rgb(0%,0%,0%);stroke-opacity:1;stroke-miterlimit:10;" d="M 0.8333 2.165 L 0.8333 2.291797 " transform="matrix(600,0,0,-600,-496.98,1385)"/>
<path style="fill:none;stroke-width:0.0051;stroke-linecap:round;stroke-linejoin:miter;stroke:rgb(0%,0%,0%);stroke-opacity:1;stroke-miterlimit:10;" d="M 0.8333 2.215 L 0.935702 2.225202 " transform="matrix(600,0,0,-600,-496.98,1385)"/>
<path style="fill:none;stroke-width:0.0051;stroke-linecap:round;stroke-linejoin:miter;stroke:rgb(0%,0%,0%);stroke-opacity:1;stroke-miterlimit:10;" d="M 0.935702 2.227598 L 0.935702 2.202402 " transform="matrix(600,0,0,-600,-496.98,1385)"/>
<path style="fill:none;stroke-width:0.0051;stroke-linecap:round;stroke-linejoin:miter;stroke:rgb(0%,0%,0%);stroke-opacity:1;stroke-miterlimit:10;" d="M 0.935702 2.202402 L 0.8333 2.215 " transform="matrix(600,0,0,-600,-496.98,1385)"/>
<path style="fill:none;stroke-width:0.0051;stroke-linecap:round;stroke-linejoin:miter;stroke:rgb(0%,0%,0%);stroke-opacity:1;stroke-miterlimit:10;" d="M 0.8333 2.215 L 0.935702 2.204798 " transform="matrix(600,0,0,-600,-496.98,1385)"/>
<path style="fill:none;stroke-width:0.0051;stroke-linecap:round;stroke-linejoin:miter;stroke:rgb(0%,0%,0%);stroke-opacity:1;stroke-miterlimit:10;" d="M 0.935702 2.209902 L 0.8333 2.215 " transform="matrix(600,0,0,-600,-496.98,1385)"/>
<path style="fill:none;stroke-width:0.0051;stroke-linecap:round;stroke-linejoin:miter;stroke:rgb(0%,0%,0%);stroke-opacity:1;stroke-miterlimit:10;" d="M 0.8333 2.215 L 0.935702 2.220098 " transform="matrix(600,0,0,-600,-496.98,1385)"/>
<path style="fill:none;stroke-width:0.0051;stroke-linecap:round;stroke-linejoin:miter;stroke:rgb(0%,0%,0%);stroke-opacity:1;stroke-miterlimit:10;" d="M 0.935702 2.227598 L 0.8333 2.215 " transform="matrix(600,0,0,-600,-496.98,1385)"/>
<path style="fill:none;stroke-width:0.0051;stroke-linecap:round;stroke-linejoin:miter;stroke:rgb(0%,0%,0%);stroke-opacity:1;stroke-miterlimit:10;" d="M 0.8333 2.215 L 2.8833 2.215 " transform="matrix(600,0,0,-600,-496.98,1385)"/>
<path style="fill:none;stroke-width:0.0051;stroke-linecap:round;stroke-linejoin:miter;stroke:rgb(0%,0%,0%);stroke-opacity:1;stroke-miterlimit:10;" d="M 2.8833 2.215 L 2.781002 2.204798 " transform="matrix(600,0,0,-600,-496.98,1385)"/>
<path style="fill:none;stroke-width:0.0051;stroke-linecap:round;stroke-linejoin:miter;stroke:rgb(0%,0%,0%);stroke-opacity:1;stroke-miterlimit:10;" d="M 2.781002 2.202402 L 2.8833 2.215 " transform="matrix(600,0,0,-600,-496.98,1385)"/>
<path style="fill:none;stroke-width:0.0051;stroke-linecap:round;stroke-linejoin:miter;stroke:rgb(0%,0%,0%);stroke-opacity:1;stroke-miterlimit:10;" d="M 2.8833 2.215 L 2.781002 2.225202 " transform="matrix(600,0,0,-600,-496.98,1385)"/>
<path style="fill:none;stroke-width:0.0051;stroke-linecap:round;stroke-linejoin:miter;stroke:rgb(0%,0%,0%);stroke-opacity:1;stroke-miterlimit:10;" d="M 2.781002 2.227598 L 2.781002 2.202402 " transform="matrix(600,0,0,-600,-496.98,1385)"/>
<path style="fill:none;stroke-width:0.0051;stroke-linecap:round;stroke-linejoin:miter;stroke:rgb(0%,0%,0%);stroke-opacity:1;stroke-miterlimit:10;" d="M 2.781002 2.209902 L 2.8833 2.215 " transform="matrix(600,0,0,-600,-496.98,1385)"/>
<path style="fill:none;stroke-width:0.0051;stroke-linecap:round;stroke-linejoin:miter;stroke:rgb(0%,0%,0%);stroke-opacity:1;stroke-miterlimit:10;" d="M 2.8833 2.215 L 2.781002 2.220098 " transform="matrix(600,0,0,-600,-496.98,1385)"/>
<path style="fill:none;stroke-width:0.0051;stroke-linecap:round;stroke-linejoin:miter;stroke:rgb(0%,0%,0%);stroke-opacity:1;stroke-miterlimit:10;" d="M 2.781002 2.227598 L 2.8833 2.215 " transform="matrix(600,0,0,-600,-496.98,1385)"/>
<path style="fill:none;stroke-width:0.0051;stroke-linecap:round;stroke-linejoin:miter;stroke:rgb(0%,0%,0%);stroke-opacity:1;stroke-miterlimit:10;" d="M 2.8833 2.165 L 2.8833 2.291797 " transform="matrix(600,0,0,-600,-496.98,1385)"/>
<path style="fill:none;stroke-width:0.011;stroke-linecap:round;stroke-linejoin:miter;stroke:rgb(0%,0%,0%);stroke-opacity:1;stroke-miterlimit:10;" d="M 1.983801 2.292298 L 1.9444 2.253001 " transform="matrix(600,0,0,-600,-496.98,1385)"/>
<path style="fill:none;stroke-width:0.011;stroke-linecap:round;stroke-linejoin:miter;stroke:rgb(0%,0%,0%);stroke-opacity:1;stroke-miterlimit:10;" d="M 1.9444 2.253001 L 1.9444 2.243099 " transform="matrix(600,0,0,-600,-496.98,1385)"/>
<path style="fill:none;stroke-width:0.011;stroke-linecap:round;stroke-linejoin:miter;stroke:rgb(0%,0%,0%);stroke-opacity:1;stroke-miterlimit:10;" d="M 1.919303 2.253001 L 1.909498 2.243099 " transform="matrix(600,0,0,-600,-496.98,1385)"/>
<path style="fill:none;stroke-width:0.011;stroke-linecap:round;stroke-linejoin:miter;stroke:rgb(0%,0%,0%);stroke-opacity:1;stroke-miterlimit:10;" d="M 1.909498 2.243099 L 1.889797 2.243099 " transform="matrix(600,0,0,-600,-496.98,1385)"/>
<path style="fill:none;stroke-width:0.011;stroke-linecap:round;stroke-linejoin:miter;stroke:rgb(0%,0%,0%);stroke-opacity:1;stroke-miterlimit:10;" d="M 1.889797 2.243099 L 1.879902 2.253001 " transform="matrix(600,0,0,-600,-496.98,1385)"/>
<path style="fill:none;stroke-width:0.011;stroke-linecap:round;stroke-linejoin:miter;stroke:rgb(0%,0%,0%);stroke-opacity:1;stroke-miterlimit:10;" d="M 1.879902 2.253001 L 1.919303 2.292298 " transform="matrix(600,0,0,-600,-496.98,1385)"/>
<path style="fill:none;stroke-width:0.011;stroke-linecap:round;stroke-linejoin:miter;stroke:rgb(0%,0%,0%);stroke-opacity:1;stroke-miterlimit:10;" d="M 1.919303 2.292298 L 1.919303 2.253001 " transform="matrix(600,0,0,-600,-496.98,1385)"/>
<path style="fill:none;stroke-width:0.011;stroke-linecap:round;stroke-linejoin:miter;stroke:rgb(0%,0%,0%);stroke-opacity:1;stroke-miterlimit:10;" d="M 1.919303 2.292298 L 1.909498 2.302201 " transform="matrix(600,0,0,-600,-496.98,1385)"/>
<path style="fill:none;stroke-width:0.011;stroke-linecap:round;stroke-linejoin:miter;stroke:rgb(0%,0%,0%);stroke-opacity:1;stroke-miterlimit:10;" d="M 1.909498 2.302201 L 1.889797 2.302201 " transform="matrix(600,0,0,-600,-496.98,1385)"/>
<path style="fill:none;stroke-width:0.011;stroke-linecap:round;stroke-linejoin:miter;stroke:rgb(0%,0%,0%);stroke-opacity:1;stroke-miterlimit:10;" d="M 1.889797 2.302201 L 1.879902 2.292298 " transform="matrix(600,0,0,-600,-496.98,1385)"/>
<path style="fill:none;stroke-width:0.011;stroke-linecap:round;stroke-linejoin:miter;stroke:rgb(0%,0%,0%);stroke-opacity:1;stroke-miterlimit:10;" d="M 1.879902 2.292298 L 1.879902 2.253001 " transform="matrix(600,0,0,-600,-496.98,1385)"/>
<path style="fill:none;stroke-width:0.011;stroke-linecap:round;stroke-linejoin:miter;stroke:rgb(0%,0%,0%);stroke-opacity:1;stroke-miterlimit:10;" d="M 1.857597 2.253001 L 1.857597 2.243099 " transform="matrix(600,0,0,-600,-496.98,1385)"/>
<path style="fill:none;stroke-width:0.011;stroke-linecap:round;stroke-linejoin:miter;stroke:rgb(0%,0%,0%);stroke-opacity:1;stroke-miterlimit:10;" d="M 1.857597 2.243099 L 1.847701 2.243099 " transform="matrix(600,0,0,-600,-496.98,1385)"/>
<path style="fill:none;stroke-width:0.011;stroke-linecap:round;stroke-linejoin:miter;stroke:rgb(0%,0%,0%);stroke-opacity:1;stroke-miterlimit:10;" d="M 1.847701 2.243099 L 1.847701 2.253001 " transform="matrix(600,0,0,-600,-496.98,1385)"/>
<path style="fill:none;stroke-width:0.011;stroke-linecap:round;stroke-linejoin:miter;stroke:rgb(0%,0%,0%);stroke-opacity:1;stroke-miterlimit:10;" d="M 1.847701 2.253001 L 1.857597 2.253001 " transform="matrix(600,0,0,-600,-496.98,1385)"/>
<path style="fill:none;stroke-width:0.011;stroke-linecap:round;stroke-linejoin:miter;stroke:rgb(0%,0%,0%);stroke-opacity:1;stroke-miterlimit:10;" d="M 1.822597 2.243099 L 1.7833 2.243099 " transform="matrix(600,0,0,-600,-496.98,1385)"/>
<path style="fill:none;stroke-width:0.011;stroke-linecap:round;stroke-linejoin:miter;stroke:rgb(0%,0%,0%);stroke-opacity:1;stroke-miterlimit:10;" d="M 1.7833 2.243099 L 1.822597 2.2825 " transform="matrix(600,0,0,-600,-496.98,1385)"/>
<path style="fill:none;stroke-width:0.011;stroke-linecap:round;stroke-linejoin:miter;stroke:rgb(0%,0%,0%);stroke-opacity:1;stroke-miterlimit:10;" d="M 1.822597 2.2825 L 1.822597 2.292298 " transform="matrix(600,0,0,-600,-496.98,1385)"/>
<path style="fill:none;stroke-width:0.011;stroke-linecap:round;stroke-linejoin:miter;stroke:rgb(0%,0%,0%);stroke-opacity:1;stroke-miterlimit:10;" d="M 1.822597 2.292298 L 1.812799 2.302201 " transform="matrix(600,0,0,-600,-496.98,1385)"/>
<path style="fill:none;stroke-width:0.011;stroke-linecap:round;stroke-linejoin:miter;stroke:rgb(0%,0%,0%);stroke-opacity:1;stroke-miterlimit:10;" d="M 1.812799 2.302201 L 1.793098 2.302201 " transform="matrix(600,0,0,-600,-496.98,1385)"/>
<path style="fill:none;stroke-width:0.011;stroke-linecap:round;stroke-linejoin:miter;stroke:rgb(0%,0%,0%);stroke-opacity:1;stroke-miterlimit:10;" d="M 1.793098 2.302201 L 1.7833 2.292298 " transform="matrix(600,0,0,-600,-496.98,1385)"/>
<path style="fill:none;stroke-width:0.011;stroke-linecap:round;stroke-linejoin:miter;stroke:rgb(0%,0%,0%);stroke-opacity:1;stroke-miterlimit:10;" d="M 1.758202 2.302201 L 1.718801 2.302201 " transform="matrix(600,0,0,-600,-496.98,1385)"/>
<path style="fill:none;stroke-width:0.011;stroke-linecap:round;stroke-linejoin:miter;stroke:rgb(0%,0%,0%);stroke-opacity:1;stroke-miterlimit:10;" d="M 1.718801 2.302201 L 1.718801 2.272598 " transform="matrix(600,0,0,-600,-496.98,1385)"/>
<path style="fill:none;stroke-width:0.011;stroke-linecap:round;stroke-linejoin:miter;stroke:rgb(0%,0%,0%);stroke-opacity:1;stroke-miterlimit:10;" d="M 1.718801 2.272598 L 1.738502 2.2825 " transform="matrix(600,0,0,-600,-496.98,1385)"/>
<path style="fill:none;stroke-width:0.011;stroke-linecap:round;stroke-linejoin:miter;stroke:rgb(0%,0%,0%);stroke-opacity:1;stroke-miterlimit:10;" d="M 1.738502 2.2825 L 1.7483 2.2825 " transform="matrix(600,0,0,-600,-496.98,1385)"/>
<path style="fill:none;stroke-width:0.011;stroke-linecap:round;stroke-linejoin:miter;stroke:rgb(0%,0%,0%);stroke-opacity:1;stroke-miterlimit:10;" d="M 1.7483 2.2825 L 1.758202 2.272598 " transform="matrix(600,0,0,-600,-496.98,1385)"/>
<path style="fill:none;stroke-width:0.011;stroke-linecap:round;stroke-linejoin:miter;stroke:rgb(0%,0%,0%);stroke-opacity:1;stroke-miterlimit:10;" d="M 1.758202 2.272598 L 1.758202 2.253001 " transform="matrix(600,0,0,-600,-496.98,1385)"/>
<path style="fill:none;stroke-width:0.011;stroke-linecap:round;stroke-linejoin:miter;stroke:rgb(0%,0%,0%);stroke-opacity:1;stroke-miterlimit:10;" d="M 1.758202 2.253001 L 1.7483 2.243099 " transform="matrix(600,0,0,-600,-496.98,1385)"/>
<path style="fill:none;stroke-width:0.011;stroke-linecap:round;stroke-linejoin:miter;stroke:rgb(0%,0%,0%);stroke-opacity:1;stroke-miterlimit:10;" d="M 1.7483 2.243099 L 1.728697 2.243099 " transform="matrix(600,0,0,-600,-496.98,1385)"/>
<path style="fill:none;stroke-width:0.011;stroke-linecap:round;stroke-linejoin:miter;stroke:rgb(0%,0%,0%);stroke-opacity:1;stroke-miterlimit:10;" d="M 1.728697 2.243099 L 1.718801 2.253001 " transform="matrix(600,0,0,-600,-496.98,1385)"/>
<path style="fill:none;stroke-width:0.011;stroke-linecap:round;stroke-linejoin:miter;stroke:rgb(0%,0%,0%);stroke-opacity:1;stroke-miterlimit:10;" d="M 1.9444 2.302201 L 1.983801 2.302201 " transform="matrix(600,0,0,-600,-496.98,1385)"/>
<path style="fill:none;stroke-width:0.011;stroke-linecap:round;stroke-linejoin:miter;stroke:rgb(0%,0%,0%);stroke-opacity:1;stroke-miterlimit:10;" d="M 1.983801 2.302201 L 1.983801 2.292298 " transform="matrix(600,0,0,-600,-496.98,1385)"/>
<path style="fill:none;stroke-width:0.052;stroke-linecap:round;stroke-linejoin:miter;stroke:rgb(0%,0%,0%);stroke-opacity:1;stroke-miterlimit:10;" d="M 1.7333 0.888997 L 1.7333 0.941003 " transform="matrix(600,0,0,-600,-496.98,1385)"/>
<path style="fill:none;stroke-width:0.052;stroke-linecap:round;stroke-linejoin:miter;stroke:rgb(0%,0%,0%);stroke-opacity:1;stroke-miterlimit:10;" d="M 1.8333 0.941003 L 1.8333 0.888997 " transform="matrix(600,0,0,-600,-496.98,1385)"/>
<path style="fill:none;stroke-width:0.052;stroke-linecap:round;stroke-linejoin:miter;stroke:rgb(0%,0%,0%);stroke-opacity:1;stroke-miterlimit:10;" d="M 1.9333 0.888997 L 1.9333 0.941003 " transform="matrix(600,0,0,-600,-496.98,1385)"/>
<path style="fill:none;stroke-width:0.052;stroke-linecap:round;stroke-linejoin:miter;stroke:rgb(0%,0%,0%);stroke-opacity:1;stroke-miterlimit:10;" d="M 2.0333 0.941003 L 2.0333 0.888997 " transform="matrix(600,0,0,-600,-496.98,1385)"/>
<path style="fill:none;stroke-width:0.052;stroke-linecap:round;stroke-linejoin:miter;stroke:rgb(0%,0%,0%);stroke-opacity:1;stroke-miterlimit:10;" d="M 2.0333 1.188997 L 2.0333 1.241003 " transform="matrix(600,0,0,-600,-496.98,1385)"/>
<path style="fill:none;stroke-width:0.052;stroke-linecap:round;stroke-linejoin:miter;stroke:rgb(0%,0%,0%);stroke-opacity:1;stroke-miterlimit:10;" d="M 1.9333 1.241003 L 1.9333 1.188997 " transform="matrix(600,0,0,-600,-496.98,1385)"/>
<path style="fill:none;stroke-width:0.052;stroke-linecap:round;stroke-linejoin:miter;stroke:rgb(0%,0%,0%);stroke-opacity:1;stroke-miterlimit:10;" d="M 1.8333 1.188997 L 1.8333 1.241003 " transform="matrix(600,0,0,-600,-496.98,1385)"/>
<path style="fill:none;stroke-width:0.052;stroke-linecap:round;stroke-linejoin:miter;stroke:rgb(0%,0%,0%);stroke-opacity:1;stroke-miterlimit:10;" d="M 1.7333 1.241003 L 1.7333 1.188997 " transform="matrix(600,0,0,-600,-496.98,1385)"/>
<path style="fill:none;stroke-width:0.06;stroke-linecap:round;stroke-linejoin:miter;stroke:rgb(0%,0%,0%);stroke-opacity:1;stroke-miterlimit:10;" d="M 1.1133 1.165 L 1.0533 1.165 " transform="matrix(600,0,0,-600,-496.98,1385)"/>
<path style="fill:none;stroke-width:0.06;stroke-linecap:round;stroke-linejoin:miter;stroke:rgb(0%,0%,0%);stroke-opacity:1;stroke-miterlimit:10;" d="M 1.0533 1.065 L 1.1133 1.065 " transform="matrix(600,0,0,-600,-496.98,1385)"/>
<path style="fill:none;stroke-width:0.06;stroke-linecap:round;stroke-linejoin:miter;stroke:rgb(0%,0%,0%);stroke-opacity:1;stroke-miterlimit:10;" d="M 1.1133 0.965 L 1.0533 0.965 " transform="matrix(600,0,0,-600,-496.98,1385)"/>
<path style="fill:none;stroke-width:0.06;stroke-linecap:round;stroke-linejoin:miter;stroke:rgb(0%,0%,0%);stroke-opacity:1;stroke-miterlimit:10;" d="M 2.6033 0.715 L 2.6633 0.715 " transform="matrix(600,0,0,-600,-496.98,1385)"/>
<path style="fill:none;stroke-width:0.06;stroke-linecap:round;stroke-linejoin:miter;stroke:rgb(0%,0%,0%);stroke-opacity:1;stroke-miterlimit:10;" d="M 2.6633 0.615 L 2.6033 0.615 " transform="matrix(600,0,0,-600,-496.98,1385)"/>
<path style="fill:none;stroke-width:0.06;stroke-linecap:round;stroke-linejoin:miter;stroke:rgb(0%,0%,0%);stroke-opacity:1;stroke-miterlimit:10;" d="M 2.6033 1.215 L 2.6633 1.215 " transform="matrix(600,0,0,-600,-496.98,1385)"/>
<path style="fill:none;stroke-width:0.06;stroke-linecap:round;stroke-linejoin:miter;stroke:rgb(0%,0%,0%);stroke-opacity:1;stroke-miterlimit:10;" d="M 2.6633 1.315 L 2.6033 1.315 " transform="matrix(600,0,0,-600,-496.98,1385)"/>
<path style="fill:none;stroke-width:0.06;stroke-linecap:round;stroke-linejoin:miter;stroke:rgb(0%,0%,0%);stroke-opacity:1;stroke-miterlimit:10;" d="M 2.6033 1.415 L 2.6633 1.415 " transform="matrix(600,0,0,-600,-496.98,1385)"/>
<path style=" stroke:none;fill-rule:evenodd;fill:rgb(0%,0%,0%);fill-opacity:1;" d="M 172.5 1045.039062 C 172.5 1019.039062 133.5 1019.039062 133.5 1045.039062 C 133.5 1071.039062 172.5 1071.039062 172.5 1045.039062 "/>
<path style=" stroke:none;fill-rule:evenodd;fill:rgb(0%,0%,0%);fill-opacity:1;" d="M 172.5 926.960938 C 172.5 900.960938 133.5 900.960938 133.5 926.960938 C 133.5 952.960938 172.5 952.960938 172.5 926.960938 "/>
<path style=" stroke:none;fill-rule:evenodd;fill:rgb(0%,0%,0%);fill-opacity:1;" d="M 503.460938 1136 C 503.460938 1110 464.460938 1110 464.460938 1136 C 464.460938 1162 503.460938 1162 503.460938 1136 "/>
<path style=" stroke:none;fill-rule:evenodd;fill:rgb(0%,0%,0%);fill-opacity:1;" d="M 621.601562 1136 C 621.601562 1110 582.601562 1110 582.601562 1136 C 582.601562 1162 621.601562 1162 621.601562 1136 "/>
<path style=" stroke:none;fill-rule:evenodd;fill:rgb(0%,0%,0%);fill-opacity:1;" d="M 982.5 806 C 982.5 780 943.5 780 943.5 806 C 943.5 832 982.5 832 982.5 806 "/>
<path style=" stroke:none;fill-rule:evenodd;fill:rgb(0%,0%,0%);fill-opacity:1;" d="M 982.5 386 C 982.5 360 943.5 360 943.5 386 C 943.5 412 982.5 412 982.5 386 "/>
<path style=" stroke:none;fill-rule:evenodd;fill:rgb(0%,0%,0%);fill-opacity:1;" d="M 681.601562 326 C 681.601562 300 642.601562 300 642.601562 326 C 642.601562 352 681.601562 352 681.601562 326 "/>
<path style=" stroke:none;fill-rule:evenodd;fill:rgb(0%,0%,0%);fill-opacity:1;" d="M 563.460938 326 C 563.460938 300 524.460938 300 524.460938 326 C 524.460938 352 563.460938 352 563.460938 326 "/>
<path style=" stroke:none;fill-rule:evenodd;fill:rgb(0%,0%,0%);fill-opacity:1;" d="M 172.5 446.960938 C 172.5 420.960938 133.5 420.960938 133.5 446.960938 C 133.5 472.960938 172.5 472.960938 172.5 446.960938 "/>
<path style=" stroke:none;fill-rule:evenodd;fill:rgb(0%,0%,0%);fill-opacity:1;" d="M 172.5 565.039062 C 172.5 539.039062 133.5 539.039062 133.5 565.039062 C 133.5 591.039062 172.5 591.039062 172.5 565.039062 "/>
<path style=" stroke:none;fill-rule:evenodd;fill:rgb(0%,0%,0%);fill-opacity:1;" d="M 295.199219 446 C 295.199219 416.398438 250.800781 416.398438 250.800781 446 C 250.800781 475.601562 295.199219 475.601562 295.199219 446 "/>
<path style=" stroke:none;fill-rule:evenodd;fill:rgb(0%,0%,0%);fill-opacity:1;" d="M 445.199219 416 C 445.199219 386.398438 400.800781 386.398438 400.800781 416 C 400.800781 445.601562 445.199219 445.601562 445.199219 416 "/>
<path style=" stroke:none;fill-rule:evenodd;fill:rgb(0%,0%,0%);fill-opacity:1;" d="M 445.199219 536 C 445.199219 506.398438 400.800781 506.398438 400.800781 536 C 400.800781 565.601562 445.199219 565.601562 445.199219 536 "/>
<path style=" stroke:none;fill-rule:evenodd;fill:rgb(0%,0%,0%);fill-opacity:1;" d="M 685.199219 536 C 685.199219 506.398438 640.800781 506.398438 640.800781 536 C 640.800781 565.601562 685.199219 565.601562 685.199219 536 "/>
<path style=" stroke:none;fill-rule:evenodd;fill:rgb(0%,0%,0%);fill-opacity:1;" d="M 685.199219 416 C 685.199219 386.398438 640.800781 386.398438 640.800781 416 C 640.800781 445.601562 685.199219 445.601562 685.199219 416 "/>
<path style=" stroke:none;fill-rule:evenodd;fill:rgb(0%,0%,0%);fill-opacity:1;" d="M 835.199219 656 C 835.199219 626.398438 790.800781 626.398438 790.800781 656 C 790.800781 685.601562 835.199219 685.601562 835.199219 656 "/>
<path style=" stroke:none;fill-rule:evenodd;fill:rgb(0%,0%,0%);fill-opacity:1;" d="M 835.199219 896 C 835.199219 866.398438 790.800781 866.398438 790.800781 896 C 790.800781 925.601562 835.199219 925.601562 835.199219 896 "/>
<path style=" stroke:none;fill-rule:evenodd;fill:rgb(0%,0%,0%);fill-opacity:1;" d="M 835.199219 956 C 835.199219 926.398438 790.800781 926.398438 790.800781 956 C 790.800781 985.601562 835.199219 985.601562 835.199219 956 "/>
<path style=" stroke:none;fill-rule:evenodd;fill:rgb(0%,0%,0%);fill-opacity:1;" d="M 625.199219 926 C 625.199219 896.398438 580.800781 896.398438 580.800781 926 C 580.800781 955.601562 625.199219 955.601562 625.199219 926 "/>
<path style=" stroke:none;fill-rule:evenodd;fill:rgb(0%,0%,0%);fill-opacity:1;" d="M 625.199219 1046 C 625.199219 1016.398438 580.800781 1016.398438 580.800781 1046 C 580.800781 1075.601562 625.199219 1075.601562 625.199219 1046 "/>
<path style=" stroke:none;fill-rule:evenodd;fill:rgb(0%,0%,0%);fill-opacity:1;" d="M 385.199219 1046 C 385.199219 1016.398438 340.800781 1016.398438 340.800781 1046 C 340.800781 1075.601562 385.199219 1075.601562 385.199219 1046 "/>
<path style=" stroke:none;fill-rule:evenodd;fill:rgb(0%,0%,0%);fill-opacity:1;" d="M 295.199219 1046 C 295.199219 1016.398438 250.800781 1016.398438 250.800781 1046 C 250.800781 1075.601562 295.199219 1075.601562 295.199219 1046 "/>
<path style=" stroke:none;fill-rule:evenodd;fill:rgb(0%,0%,0%);fill-opacity:1;" d="M 385.199219 926 C 385.199219 896.398438 340.800781 896.398438 340.800781 926 C 340.800781 955.601562 385.199219 955.601562 385.199219 926 "/>
<path style=" stroke:none;fill-rule:evenodd;fill:rgb(0%,0%,0%);fill-opacity:1;" d="M 295.199219 806 C 295.199219 776.398438 250.800781 776.398438 250.800781 806 C 250.800781 835.601562 295.199219 835.601562 295.199219 806 "/>
<path style=" stroke:none;fill-rule:evenodd;fill:rgb(0%,0%,0%);fill-opacity:1;" d="M 295.199219 686 C 295.199219 656.398438 250.800781 656.398438 250.800781 686 C 250.800781 715.601562 295.199219 715.601562 295.199219 686 "/>
<path style=" stroke:none;fill-rule:evenodd;fill:rgb(0%,0%,0%);fill-opacity:1;" d="M 835.199219 1196 C 835.199219 1166.398438 790.800781 1166.398438 790.800781 1196 C 790.800781 1225.601562 835.199219 1225.601562 835.199219 1196 "/>
<path style=" stroke:none;fill-rule:evenodd;fill:rgb(0%,0%,0%);fill-opacity:1;" d="M 943.5 765.5 L 982.5 765.5 L 982.5 726.5 L 943.5 726.5 Z "/>
<path style=" stroke:none;fill-rule:evenodd;fill:rgb(0%,0%,0%);fill-opacity:1;" d="M 943.5 465.5 L 982.5 465.5 L 982.5 426.5 L 943.5 426.5 Z "/>
<path style=" stroke:none;fill-rule:evenodd;fill:rgb(0%,0%,0%);fill-opacity:1;" d="M 894 596 C 894 568 852 568 852 596 C 852 624 894 624 894 596 "/>
<path style=" stroke:none;fill-rule:evenodd;fill:rgb(0%,0%,0%);fill-opacity:1;" d="M 564 596 C 564 568 522 568 522 596 C 522 624 564 624 564 596 "/>
<path style="fill:none;stroke-width:0.04;stroke-linecap:round;stroke-linejoin:miter;stroke:rgb(0%,0%,0%);stroke-opacity:1;stroke-miterlimit:10;" d="M 1.7333 1.315 L 2.2833 1.315 " transform="matrix(600,0,0,-600,-496.98,1385)"/>
<path style=" stroke:none;fill-rule:evenodd;fill:rgb(100%,100%,100%);fill-opacity:1;" d="M 157.800781 1045.039062 C 157.800781 1038.640625 148.199219 1038.640625 148.199219 1045.039062 C 148.199219 1051.441406 157.800781 1051.441406 157.800781 1045.039062 "/>
<path style=" stroke:none;fill-rule:evenodd;fill:rgb(100%,100%,100%);fill-opacity:1;" d="M 157.800781 926.960938 C 157.800781 920.558594 148.199219 920.558594 148.199219 926.960938 C 148.199219 933.359375 157.800781 933.359375 157.800781 926.960938 "/>
<path style=" stroke:none;fill-rule:evenodd;fill:rgb(100%,100%,100%);fill-opacity:1;" d="M 488.761719 1136 C 488.761719 1129.601562 479.160156 1129.601562 479.160156 1136 C 479.160156 1142.398438 488.761719 1142.398438 488.761719 1136 "/>
<path style=" stroke:none;fill-rule:evenodd;fill:rgb(100%,100%,100%);fill-opacity:1;" d="M 606.898438 1136 C 606.898438 1129.601562 597.300781 1129.601562 597.300781 1136 C 597.300781 1142.398438 606.898438 1142.398438 606.898438 1136 "/>
<path style=" stroke:none;fill-rule:evenodd;fill:rgb(100%,100%,100%);fill-opacity:1;" d="M 967.800781 806 C 967.800781 799.601562 958.199219 799.601562 958.199219 806 C 958.199219 812.398438 967.800781 812.398438 967.800781 806 "/>
<path style=" stroke:none;fill-rule:evenodd;fill:rgb(100%,100%,100%);fill-opacity:1;" d="M 967.800781 746 C 967.800781 739.601562 958.199219 739.601562 958.199219 746 C 958.199219 752.398438 967.800781 752.398438 967.800781 746 "/>
<path style=" stroke:none;fill-rule:evenodd;fill:rgb(100%,100%,100%);fill-opacity:1;" d="M 967.800781 446 C 967.800781 439.601562 958.199219 439.601562 958.199219 446 C 958.199219 452.398438 967.800781 452.398438 967.800781 446 "/>
<path style=" stroke:none;fill-rule:evenodd;fill:rgb(100%,100%,100%);fill-opacity:1;" d="M 967.800781 386 C 967.800781 379.601562 958.199219 379.601562 958.199219 386 C 958.199219 392.398438 967.800781 392.398438 967.800781 386 "/>
<path style=" stroke:none;fill-rule:evenodd;fill:rgb(100%,100%,100%);fill-opacity:1;" d="M 666.898438 326 C 666.898438 319.601562 657.300781 319.601562 657.300781 326 C 657.300781 332.398438 666.898438 332.398438 666.898438 326 "/>
<path style=" stroke:none;fill-rule:evenodd;fill:rgb(100%,100%,100%);fill-opacity:1;" d="M 548.761719 326 C 548.761719 319.601562 539.160156 319.601562 539.160156 326 C 539.160156 332.398438 548.761719 332.398438 548.761719 326 "/>
<path style=" stroke:none;fill-rule:evenodd;fill:rgb(100%,100%,100%);fill-opacity:1;" d="M 157.800781 446.960938 C 157.800781 440.558594 148.199219 440.558594 148.199219 446.960938 C 148.199219 453.359375 157.800781 453.359375 157.800781 446.960938 "/>
<path style=" stroke:none;fill-rule:evenodd;fill:rgb(100%,100%,100%);fill-opacity:1;" d="M 157.800781 565.039062 C 157.800781 558.640625 148.199219 558.640625 148.199219 565.039062 C 148.199219 571.441406 157.800781 571.441406 157.800781 565.039062 "/>
<path style=" stroke:none;fill-rule:evenodd;fill:rgb(100%,100%,100%);fill-opacity:1;" d="M 547.800781 596 C 547.800781 589.601562 538.199219 589.601562 538.199219 596 C 538.199219 602.398438 547.800781 602.398438 547.800781 596 "/>
<path style=" stroke:none;fill-rule:evenodd;fill:rgb(100%,100%,100%);fill-opacity:1;" d="M 877.800781 596 C 877.800781 589.601562 868.199219 589.601562 868.199219 596 C 868.199219 602.398438 877.800781 602.398438 877.800781 596 "/>
<path style=" stroke:none;fill-rule:evenodd;fill:rgb(100%,100%,100%);fill-opacity:1;" d="M 727.800781 656 C 727.800781 649.601562 718.199219 649.601562 718.199219 656 C 718.199219 662.398438 727.800781 662.398438 727.800781 656 "/>
<path style=" stroke:none;fill-rule:evenodd;fill:rgb(100%,100%,100%);fill-opacity:1;" d="M 667.800781 656 C 667.800781 649.601562 658.199219 649.601562 658.199219 656 C 658.199219 662.398438 667.800781 662.398438 667.800781 656 "/>
<path style=" stroke:none;fill-rule:evenodd;fill:rgb(100%,100%,100%);fill-opacity:1;" d="M 607.800781 656 C 607.800781 649.601562 598.199219 649.601562 598.199219 656 C 598.199219 662.398438 607.800781 662.398438 607.800781 656 "/>
<path style=" stroke:none;fill-rule:evenodd;fill:rgb(100%,100%,100%);fill-opacity:1;" d="M 547.800781 656 C 547.800781 649.601562 538.199219 649.601562 538.199219 656 C 538.199219 662.398438 547.800781 662.398438 547.800781 656 "/>
<path style=" stroke:none;fill-rule:evenodd;fill:rgb(100%,100%,100%);fill-opacity:1;" d="M 547.800781 836 C 547.800781 829.601562 538.199219 829.601562 538.199219 836 C 538.199219 842.398438 547.800781 842.398438 547.800781 836 "/>
<path style=" stroke:none;fill-rule:evenodd;fill:rgb(100%,100%,100%);fill-opacity:1;" d="M 607.800781 836 C 607.800781 829.601562 598.199219 829.601562 598.199219 836 C 598.199219 842.398438 607.800781 842.398438 607.800781 836 "/>
<path style=" stroke:none;fill-rule:evenodd;fill:rgb(100%,100%,100%);fill-opacity:1;" d="M 667.800781 836 C 667.800781 829.601562 658.199219 829.601562 658.199219 836 C 658.199219 842.398438 667.800781 842.398438 667.800781 836 "/>
<path style=" stroke:none;fill-rule:evenodd;fill:rgb(100%,100%,100%);fill-opacity:1;" d="M 727.800781 836 C 727.800781 829.601562 718.199219 829.601562 718.199219 836 C 718.199219 842.398438 727.800781 842.398438 727.800781 836 "/>
<path style=" stroke:none;fill-rule:evenodd;fill:rgb(100%,100%,100%);fill-opacity:1;" d="M 817.800781 896 C 817.800781 889.601562 808.199219 889.601562 808.199219 896 C 808.199219 902.398438 817.800781 902.398438 817.800781 896 "/>
<path style=" stroke:none;fill-rule:evenodd;fill:rgb(100%,100%,100%);fill-opacity:1;" d="M 817.800781 956 C 817.800781 949.601562 808.199219 949.601562 808.199219 956 C 808.199219 962.398438 817.800781 962.398438 817.800781 956 "/>
<path style=" stroke:none;fill-rule:evenodd;fill:rgb(100%,100%,100%);fill-opacity:1;" d="M 607.800781 926 C 607.800781 919.601562 598.199219 919.601562 598.199219 926 C 598.199219 932.398438 607.800781 932.398438 607.800781 926 "/>
<path style=" stroke:none;fill-rule:evenodd;fill:rgb(100%,100%,100%);fill-opacity:1;" d="M 607.800781 1046 C 607.800781 1039.601562 598.199219 1039.601562 598.199219 1046 C 598.199219 1052.398438 607.800781 1052.398438 607.800781 1046 "/>
<path style=" stroke:none;fill-rule:evenodd;fill:rgb(100%,100%,100%);fill-opacity:1;" d="M 367.800781 1046 C 367.800781 1039.601562 358.199219 1039.601562 358.199219 1046 C 358.199219 1052.398438 367.800781 1052.398438 367.800781 1046 "/>
<path style=" stroke:none;fill-rule:evenodd;fill:rgb(100%,100%,100%);fill-opacity:1;" d="M 277.800781 1046 C 277.800781 1039.601562 268.199219 1039.601562 268.199219 1046 C 268.199219 1052.398438 277.800781 1052.398438 277.800781 1046 "/>
<path style=" stroke:none;fill-rule:evenodd;fill:rgb(100%,100%,100%);fill-opacity:1;" d="M 367.800781 926 C 367.800781 919.601562 358.199219 919.601562 358.199219 926 C 358.199219 932.398438 367.800781 932.398438 367.800781 926 "/>
<path style=" stroke:none;fill-rule:evenodd;fill:rgb(100%,100%,100%);fill-opacity:1;" d="M 277.800781 806 C 277.800781 799.601562 268.199219 799.601562 268.199219 806 C 268.199219 812.398438 277.800781 812.398438 277.800781 806 "/>
<path style=" stroke:none;fill-rule:evenodd;fill:rgb(100%,100%,100%);fill-opacity:1;" d="M 277.800781 686 C 277.800781 679.601562 268.199219 679.601562 268.199219 686 C 268.199219 692.398438 277.800781 692.398438 277.800781 686 "/>
<path style=" stroke:none;fill-rule:evenodd;fill:rgb(100%,100%,100%);fill-opacity:1;" d="M 427.800781 536 C 427.800781 529.601562 418.199219 529.601562 418.199219 536 C 418.199219 542.398438 427.800781 542.398438 427.800781 536 "/>
<path style=" stroke:none;fill-rule:evenodd;fill:rgb(100%,100%,100%);fill-opacity:1;" d="M 277.800781 446 C 277.800781 439.601562 268.199219 439.601562 268.199219 446 C 268.199219 452.398438 277.800781 452.398438 277.800781 446 "/>
<path style=" stroke:none;fill-rule:evenodd;fill:rgb(100%,100%,100%);fill-opacity:1;" d="M 427.800781 416 C 427.800781 409.601562 418.199219 409.601562 418.199219 416 C 418.199219 422.398438 427.800781 422.398438 427.800781 416 "/>
<path style=" stroke:none;fill-rule:evenodd;fill:rgb(100%,100%,100%);fill-opacity:1;" d="M 667.800781 416 C 667.800781 409.601562 658.199219 409.601562 658.199219 416 C 658.199219 422.398438 667.800781 422.398438 667.800781 416 "/>
<path style=" stroke:none;fill-rule:evenodd;fill:rgb(100%,100%,100%);fill-opacity:1;" d="M 667.800781 536 C 667.800781 529.601562 658.199219 529.601562 658.199219 536 C 658.199219 542.398438 667.800781 542.398438 667.800781 536 "/>
<path style=" stroke:none;fill-rule:evenodd;fill:rgb(100%,100%,100%);fill-opacity:1;" d="M 817.800781 656 C 817.800781 649.601562 808.199219 649.601562 808.199219 656 C 808.199219 662.398438 817.800781 662.398438 817.800781 656 "/>
<path style=" stroke:none;fill-rule:evenodd;fill:rgb(100%,100%,100%);fill-opacity:1;" d="M 817.800781 1196 C 817.800781 1189.601562 808.199219 1189.601562 808.199219 1196 C 808.199219 1202.398438 817.800781 1202.398438 817.800781 1196 "/>
<path style=" stroke:none;fill-rule:evenodd;fill:rgb(100%,100%,100%);fill-opacity:1;" d="M 1087.800781 1016 C 1087.800781 1009.601562 1078.199219 1009.601562 1078.199219 1016 C 1078.199219 1022.398438 1087.800781 1022.398438 1087.800781 1016 "/>
<path style=" stroke:none;fill-rule:evenodd;fill:rgb(100%,100%,100%);fill-opacity:1;" d="M 1087.800781 956 C 1087.800781 949.601562 1078.199219 949.601562 1078.199219 956 C 1078.199219 962.398438 1087.800781 962.398438 1087.800781 956 "/>
<path style=" stroke:none;fill-rule:evenodd;fill:rgb(100%,100%,100%);fill-opacity:1;" d="M 1087.800781 656 C 1087.800781 649.601562 1078.199219 649.601562 1078.199219 656 C 1078.199219 662.398438 1087.800781 662.398438 1087.800781 656 "/>
<path style=" stroke:none;fill-rule:evenodd;fill:rgb(100%,100%,100%);fill-opacity:1;" d="M 1087.800781 596 C 1087.800781 589.601562 1078.199219 589.601562 1078.199219 596 C 1078.199219 602.398438 1087.800781 602.398438 1087.800781 596 "/>
<path style=" stroke:none;fill-rule:evenodd;fill:rgb(100%,100%,100%);fill-opacity:1;" d="M 1087.800781 536 C 1087.800781 529.601562 1078.199219 529.601562 1078.199219 536 C 1078.199219 542.398438 1087.800781 542.398438 1087.800781 536 "/>
<path style=" stroke:none;fill-rule:evenodd;fill:rgb(100%,100%,100%);fill-opacity:1;" d="M 157.800781 686 C 157.800781 679.601562 148.199219 679.601562 148.199219 686 C 148.199219 692.398438 157.800781 692.398438 157.800781 686 "/>
<path style=" stroke:none;fill-rule:evenodd;fill:rgb(100%,100%,100%);fill-opacity:1;" d="M 157.800781 746 C 157.800781 739.601562 148.199219 739.601562 148.199219 746 C 148.199219 752.398438 157.800781 752.398438 157.800781 746 "/>
<path style=" stroke:none;fill-rule:evenodd;fill:rgb(100%,100%,100%);fill-opacity:1;" d="M 157.800781 806 C 157.800781 799.601562 148.199219 799.601562 148.199219 806 C 148.199219 812.398438 157.800781 812.398438 157.800781 806 "/>
<path style=" stroke:none;fill-rule:evenodd;fill:rgb(100%,100%,100%);fill-opacity:1;" d="M 157.800781 1226 C 157.800781 1219.601562 148.199219 1219.601562 148.199219 1226 C 148.199219 1232.398438 157.800781 1232.398438 157.800781 1226 "/>
<path style=" stroke:none;fill-rule:evenodd;fill:rgb(100%,100%,100%);fill-opacity:1;" d="M 1087.800781 1226 C 1087.800781 1219.601562 1078.199219 1219.601562 1078.199219 1226 C 1078.199219 1232.398438 1087.800781 1232.398438 1087.800781 1226 "/>
<path style=" stroke:none;fill-rule:evenodd;fill:rgb(100%,100%,100%);fill-opacity:1;" d="M 1087.800781 236 C 1087.800781 229.601562 1078.199219 229.601562 1078.199219 236 C 1078.199219 242.398438 1087.800781 242.398438 1087.800781 236 "/>
<path style=" stroke:none;fill-rule:evenodd;fill:rgb(100%,100%,100%);fill-opacity:1;" d="M 157.800781 236 C 157.800781 229.601562 148.199219 229.601562 148.199219 236 C 148.199219 242.398438 157.800781 242.398438 157.800781 236 "/>
</g>
</svg>
