<?xml version="1.0" encoding="UTF-8"?>
<svg xmlns="http://www.w3.org/2000/svg" xmlns:xlink="http://www.w3.org/1999/xlink" width="988pt" height="1409pt" viewBox="0 0 988 1409" version="1.1">
<g id="surface1">
<path style="fill:none;stroke-width:0.01;stroke-linecap:round;stroke-linejoin:miter;stroke:rgb(0%,0%,0%);stroke-opacity:1;stroke-miterlimit:10;" d="M 0.8333 0.015 L 0.8333 2.214603 " transform="matrix(600,0,0,-600,-496.98,1415)"/>
<path style="fill:none;stroke-width:0.01;stroke-linecap:round;stroke-linejoin:miter;stroke:rgb(0%,0%,0%);stroke-opacity:1;stroke-miterlimit:10;" d="M 0.8333 2.214603 L 2.470299 2.214603 " transform="matrix(600,0,0,-600,-496.98,1415)"/>
<path style="fill:none;stroke-width:0.01;stroke-linecap:round;stroke-linejoin:miter;stroke:rgb(0%,0%,0%);stroke-opacity:1;stroke-miterlimit:10;" d="M 2.470299 2.214603 L 2.470299 0.015 " transform="matrix(600,0,0,-600,-496.98,1415)"/>
<path style="fill:none;stroke-width:0.01;stroke-linecap:round;stroke-linejoin:miter;stroke:rgb(0%,0%,0%);stroke-opacity:1;stroke-miterlimit:10;" d="M 2.470299 0.015 L 0.8333 0.015 " transform="matrix(600,0,0,-600,-496.98,1415)"/>
<path style="fill:none;stroke-width:0.0051;stroke-linecap:round;stroke-linejoin:miter;stroke:rgb(0%,0%,0%);stroke-opacity:1;stroke-miterlimit:10;" d="M 0.8333 2.214603 L 0.8333 2.341797 " transform="matrix(600,0,0,-600,-496.98,1415)"/>
<path style="fill:none;stroke-width:0.0051;stroke-linecap:round;stroke-linejoin:miter;stroke:rgb(0%,0%,0%);stroke-opacity:1;stroke-miterlimit:10;" d="M 0.8333 2.265 L 0.935702 2.254798 " transform="matrix(600,0,0,-600,-496.98,1415)"/>
<path style="fill:none;stroke-width:0.0051;stroke-linecap:round;stroke-linejoin:miter;stroke:rgb(0%,0%,0%);stroke-opacity:1;stroke-miterlimit:10;" d="M 0.935702 2.252402 L 0.8333 2.265 " transform="matrix(600,0,0,-600,-496.98,1415)"/>
<path style="fill:none;stroke-width:0.0051;stroke-linecap:round;stroke-linejoin:miter;stroke:rgb(0%,0%,0%);stroke-opacity:1;stroke-miterlimit:10;" d="M 0.8333 2.265 L 0.935702 2.275202 " transform="matrix(600,0,0,-600,-496.98,1415)"/>
<path style="fill:none;stroke-width:0.0051;stroke-linecap:round;stroke-linejoin:miter;stroke:rgb(0%,0%,0%);stroke-opacity:1;stroke-miterlimit:10;" d="M 0.935702 2.277598 L 0.935702 2.252402 " transform="matrix(600,0,0,-600,-496.98,1415)"/>
<path style="fill:none;stroke-width:0.0051;stroke-linecap:round;stroke-linejoin:miter;stroke:rgb(0%,0%,0%);stroke-opacity:1;stroke-miterlimit:10;" d="M 0.935702 2.259902 L 0.8333 2.265 " transform="matrix(600,0,0,-600,-496.98,1415)"/>
<path style="fill:none;stroke-width:0.0051;stroke-linecap:round;stroke-linejoin:miter;stroke:rgb(0%,0%,0%);stroke-opacity:1;stroke-miterlimit:10;" d="M 0.8333 2.265 L 0.935702 2.270098 " transform="matrix(600,0,0,-600,-496.98,1415)"/>
<path style="fill:none;stroke-width:0.0051;stroke-linecap:round;stroke-linejoin:miter;stroke:rgb(0%,0%,0%);stroke-opacity:1;stroke-miterlimit:10;" d="M 0.935702 2.277598 L 0.8333 2.265 " transform="matrix(600,0,0,-600,-496.98,1415)"/>
<path style="fill:none;stroke-width:0.0051;stroke-linecap:round;stroke-linejoin:miter;stroke:rgb(0%,0%,0%);stroke-opacity:1;stroke-miterlimit:10;" d="M 0.8333 2.265 L 2.470299 2.265 " transform="matrix(600,0,0,-600,-496.98,1415)"/>
<path style="fill:none;stroke-width:0.0051;stroke-linecap:round;stroke-linejoin:miter;stroke:rgb(0%,0%,0%);stroke-opacity:1;stroke-miterlimit:10;" d="M 2.470299 2.265 L 2.368001 2.254798 " transform="matrix(600,0,0,-600,-496.98,1415)"/>
<path style="fill:none;stroke-width:0.0051;stroke-linecap:round;stroke-linejoin:miter;stroke:rgb(0%,0%,0%);stroke-opacity:1;stroke-miterlimit:10;" d="M 2.368001 2.252402 L 2.470299 2.265 " transform="matrix(600,0,0,-600,-496.98,1415)"/>
<path style="fill:none;stroke-width:0.0051;stroke-linecap:round;stroke-linejoin:miter;stroke:rgb(0%,0%,0%);stroke-opacity:1;stroke-miterlimit:10;" d="M 2.470299 2.265 L 2.368001 2.275202 " transform="matrix(600,0,0,-600,-496.98,1415)"/>
<path style="fill:none;stroke-width:0.0051;stroke-linecap:round;stroke-linejoin:miter;stroke:rgb(0%,0%,0%);stroke-opacity:1;stroke-miterlimit:10;" d="M 2.368001 2.277598 L 2.368001 2.252402 " transform="matrix(600,0,0,-600,-496.98,1415)"/>
<path style="fill:none;stroke-width:0.0051;stroke-linecap:round;stroke-linejoin:miter;stroke:rgb(0%,0%,0%);stroke-opacity:1;stroke-miterlimit:10;" d="M 2.368001 2.259902 L 2.470299 2.265 " transform="matrix(600,0,0,-600,-496.98,1415)"/>
<path style="fill:none;stroke-width:0.0051;stroke-linecap:round;stroke-linejoin:miter;stroke:rgb(0%,0%,0%);stroke-opacity:1;stroke-miterlimit:10;" d="M 2.470299 2.265 L 2.368001 2.270098 " transform="matrix(600,0,0,-600,-496.98,1415)"/>
<path style="fill:none;stroke-width:0.0051;stroke-linecap:round;stroke-linejoin:miter;stroke:rgb(0%,0%,0%);stroke-opacity:1;stroke-miterlimit:10;" d="M 2.368001 2.277598 L 2.470299 2.265 " transform="matrix(600,0,0,-600,-496.98,1415)"/>
<path style="fill:none;stroke-width:0.0051;stroke-linecap:round;stroke-linejoin:miter;stroke:rgb(0%,0%,0%);stroke-opacity:1;stroke-miterlimit:10;" d="M 2.470299 2.214603 L 2.470299 2.341797 " transform="matrix(600,0,0,-600,-496.98,1415)"/>
<path style="fill:none;stroke-width:0.011;stroke-linecap:round;stroke-linejoin:miter;stroke:rgb(0%,0%,0%);stroke-opacity:1;stroke-miterlimit:10;" d="M 1.777297 2.342298 L 1.777297 2.3325 " transform="matrix(600,0,0,-600,-496.98,1415)"/>
<path style="fill:none;stroke-width:0.011;stroke-linecap:round;stroke-linejoin:miter;stroke:rgb(0%,0%,0%);stroke-opacity:1;stroke-miterlimit:10;" d="M 1.777297 2.3325 L 1.767402 2.322598 " transform="matrix(600,0,0,-600,-496.98,1415)"/>
<path style="fill:none;stroke-width:0.011;stroke-linecap:round;stroke-linejoin:miter;stroke:rgb(0%,0%,0%);stroke-opacity:1;stroke-miterlimit:10;" d="M 1.767402 2.322598 L 1.747701 2.322598 " transform="matrix(600,0,0,-600,-496.98,1415)"/>
<path style="fill:none;stroke-width:0.011;stroke-linecap:round;stroke-linejoin:miter;stroke:rgb(0%,0%,0%);stroke-opacity:1;stroke-miterlimit:10;" d="M 1.747701 2.322598 L 1.737903 2.3325 " transform="matrix(600,0,0,-600,-496.98,1415)"/>
<path style="fill:none;stroke-width:0.011;stroke-linecap:round;stroke-linejoin:miter;stroke:rgb(0%,0%,0%);stroke-opacity:1;stroke-miterlimit:10;" d="M 1.737903 2.3325 L 1.737903 2.342298 " transform="matrix(600,0,0,-600,-496.98,1415)"/>
<path style="fill:none;stroke-width:0.011;stroke-linecap:round;stroke-linejoin:miter;stroke:rgb(0%,0%,0%);stroke-opacity:1;stroke-miterlimit:10;" d="M 1.737903 2.342298 L 1.747701 2.352201 " transform="matrix(600,0,0,-600,-496.98,1415)"/>
<path style="fill:none;stroke-width:0.011;stroke-linecap:round;stroke-linejoin:miter;stroke:rgb(0%,0%,0%);stroke-opacity:1;stroke-miterlimit:10;" d="M 1.747701 2.352201 L 1.767402 2.352201 " transform="matrix(600,0,0,-600,-496.98,1415)"/>
<path style="fill:none;stroke-width:0.011;stroke-linecap:round;stroke-linejoin:miter;stroke:rgb(0%,0%,0%);stroke-opacity:1;stroke-miterlimit:10;" d="M 1.767402 2.352201 L 1.777297 2.342298 " transform="matrix(600,0,0,-600,-496.98,1415)"/>
<path style="fill:none;stroke-width:0.011;stroke-linecap:round;stroke-linejoin:miter;stroke:rgb(0%,0%,0%);stroke-opacity:1;stroke-miterlimit:10;" d="M 1.767402 2.322598 L 1.777297 2.312799 " transform="matrix(600,0,0,-600,-496.98,1415)"/>
<path style="fill:none;stroke-width:0.011;stroke-linecap:round;stroke-linejoin:miter;stroke:rgb(0%,0%,0%);stroke-opacity:1;stroke-miterlimit:10;" d="M 1.777297 2.312799 L 1.777297 2.303001 " transform="matrix(600,0,0,-600,-496.98,1415)"/>
<path style="fill:none;stroke-width:0.011;stroke-linecap:round;stroke-linejoin:miter;stroke:rgb(0%,0%,0%);stroke-opacity:1;stroke-miterlimit:10;" d="M 1.777297 2.303001 L 1.767402 2.293099 " transform="matrix(600,0,0,-600,-496.98,1415)"/>
<path style="fill:none;stroke-width:0.011;stroke-linecap:round;stroke-linejoin:miter;stroke:rgb(0%,0%,0%);stroke-opacity:1;stroke-miterlimit:10;" d="M 1.767402 2.293099 L 1.747701 2.293099 " transform="matrix(600,0,0,-600,-496.98,1415)"/>
<path style="fill:none;stroke-width:0.011;stroke-linecap:round;stroke-linejoin:miter;stroke:rgb(0%,0%,0%);stroke-opacity:1;stroke-miterlimit:10;" d="M 1.747701 2.293099 L 1.737903 2.303001 " transform="matrix(600,0,0,-600,-496.98,1415)"/>
<path style="fill:none;stroke-width:0.011;stroke-linecap:round;stroke-linejoin:miter;stroke:rgb(0%,0%,0%);stroke-opacity:1;stroke-miterlimit:10;" d="M 1.737903 2.303001 L 1.737903 2.312799 " transform="matrix(600,0,0,-600,-496.98,1415)"/>
<path style="fill:none;stroke-width:0.011;stroke-linecap:round;stroke-linejoin:miter;stroke:rgb(0%,0%,0%);stroke-opacity:1;stroke-miterlimit:10;" d="M 1.737903 2.312799 L 1.747701 2.322598 " transform="matrix(600,0,0,-600,-496.98,1415)"/>
<path style="fill:none;stroke-width:0.011;stroke-linecap:round;stroke-linejoin:miter;stroke:rgb(0%,0%,0%);stroke-opacity:1;stroke-miterlimit:10;" d="M 1.712799 2.322598 L 1.712799 2.303001 " transform="matrix(600,0,0,-600,-496.98,1415)"/>
<path style="fill:none;stroke-width:0.011;stroke-linecap:round;stroke-linejoin:miter;stroke:rgb(0%,0%,0%);stroke-opacity:1;stroke-miterlimit:10;" d="M 1.712799 2.303001 L 1.703001 2.293099 " transform="matrix(600,0,0,-600,-496.98,1415)"/>
<path style="fill:none;stroke-width:0.011;stroke-linecap:round;stroke-linejoin:miter;stroke:rgb(0%,0%,0%);stroke-opacity:1;stroke-miterlimit:10;" d="M 1.703001 2.293099 L 1.6833 2.293099 " transform="matrix(600,0,0,-600,-496.98,1415)"/>
<path style="fill:none;stroke-width:0.011;stroke-linecap:round;stroke-linejoin:miter;stroke:rgb(0%,0%,0%);stroke-opacity:1;stroke-miterlimit:10;" d="M 1.6833 2.293099 L 1.673502 2.303001 " transform="matrix(600,0,0,-600,-496.98,1415)"/>
<path style="fill:none;stroke-width:0.011;stroke-linecap:round;stroke-linejoin:miter;stroke:rgb(0%,0%,0%);stroke-opacity:1;stroke-miterlimit:10;" d="M 1.673502 2.322598 L 1.693098 2.3325 " transform="matrix(600,0,0,-600,-496.98,1415)"/>
<path style="fill:none;stroke-width:0.011;stroke-linecap:round;stroke-linejoin:miter;stroke:rgb(0%,0%,0%);stroke-opacity:1;stroke-miterlimit:10;" d="M 1.693098 2.3325 L 1.703001 2.3325 " transform="matrix(600,0,0,-600,-496.98,1415)"/>
<path style="fill:none;stroke-width:0.011;stroke-linecap:round;stroke-linejoin:miter;stroke:rgb(0%,0%,0%);stroke-opacity:1;stroke-miterlimit:10;" d="M 1.703001 2.3325 L 1.712799 2.322598 " transform="matrix(600,0,0,-600,-496.98,1415)"/>
<path style="fill:none;stroke-width:0.011;stroke-linecap:round;stroke-linejoin:miter;stroke:rgb(0%,0%,0%);stroke-opacity:1;stroke-miterlimit:10;" d="M 1.712799 2.352201 L 1.673502 2.352201 " transform="matrix(600,0,0,-600,-496.98,1415)"/>
<path style="fill:none;stroke-width:0.011;stroke-linecap:round;stroke-linejoin:miter;stroke:rgb(0%,0%,0%);stroke-opacity:1;stroke-miterlimit:10;" d="M 1.673502 2.352201 L 1.673502 2.322598 " transform="matrix(600,0,0,-600,-496.98,1415)"/>
<path style="fill:none;stroke-width:0.011;stroke-linecap:round;stroke-linejoin:miter;stroke:rgb(0%,0%,0%);stroke-opacity:1;stroke-miterlimit:10;" d="M 1.651099 2.303001 L 1.651099 2.293099 " transform="matrix(600,0,0,-600,-496.98,1415)"/>
<path style="fill:none;stroke-width:0.011;stroke-linecap:round;stroke-linejoin:miter;stroke:rgb(0%,0%,0%);stroke-opacity:1;stroke-miterlimit:10;" d="M 1.651099 2.293099 L 1.641197 2.293099 " transform="matrix(600,0,0,-600,-496.98,1415)"/>
<path style="fill:none;stroke-width:0.011;stroke-linecap:round;stroke-linejoin:miter;stroke:rgb(0%,0%,0%);stroke-opacity:1;stroke-miterlimit:10;" d="M 1.641197 2.293099 L 1.641197 2.303001 " transform="matrix(600,0,0,-600,-496.98,1415)"/>
<path style="fill:none;stroke-width:0.011;stroke-linecap:round;stroke-linejoin:miter;stroke:rgb(0%,0%,0%);stroke-opacity:1;stroke-miterlimit:10;" d="M 1.641197 2.303001 L 1.651099 2.303001 " transform="matrix(600,0,0,-600,-496.98,1415)"/>
<path style="fill:none;stroke-width:0.011;stroke-linecap:round;stroke-linejoin:miter;stroke:rgb(0%,0%,0%);stroke-opacity:1;stroke-miterlimit:10;" d="M 1.616099 2.293099 L 1.576803 2.293099 " transform="matrix(600,0,0,-600,-496.98,1415)"/>
<path style="fill:none;stroke-width:0.011;stroke-linecap:round;stroke-linejoin:miter;stroke:rgb(0%,0%,0%);stroke-opacity:1;stroke-miterlimit:10;" d="M 1.596503 2.293099 L 1.596503 2.352201 " transform="matrix(600,0,0,-600,-496.98,1415)"/>
<path style="fill:none;stroke-width:0.011;stroke-linecap:round;stroke-linejoin:miter;stroke:rgb(0%,0%,0%);stroke-opacity:1;stroke-miterlimit:10;" d="M 1.596503 2.352201 L 1.576803 2.3325 " transform="matrix(600,0,0,-600,-496.98,1415)"/>
<path style="fill:none;stroke-width:0.011;stroke-linecap:round;stroke-linejoin:miter;stroke:rgb(0%,0%,0%);stroke-opacity:1;stroke-miterlimit:10;" d="M 1.551698 2.322598 L 1.512297 2.322598 " transform="matrix(600,0,0,-600,-496.98,1415)"/>
<path style="fill:none;stroke-width:0.011;stroke-linecap:round;stroke-linejoin:miter;stroke:rgb(0%,0%,0%);stroke-opacity:1;stroke-miterlimit:10;" d="M 1.512297 2.322598 L 1.541803 2.352201 " transform="matrix(600,0,0,-600,-496.98,1415)"/>
<path style="fill:none;stroke-width:0.011;stroke-linecap:round;stroke-linejoin:miter;stroke:rgb(0%,0%,0%);stroke-opacity:1;stroke-miterlimit:10;" d="M 1.541803 2.352201 L 1.541803 2.293099 " transform="matrix(600,0,0,-600,-496.98,1415)"/>
<path style="fill:none;stroke-width:0.0594;stroke-linecap:round;stroke-linejoin:miter;stroke:rgb(0%,0%,0%);stroke-opacity:1;stroke-miterlimit:10;" d="M 1.281803 1.635299 L 1.281803 1.694701 " transform="matrix(600,0,0,-600,-496.98,1415)"/>
<path style="fill:none;stroke-width:0.0594;stroke-linecap:round;stroke-linejoin:miter;stroke:rgb(0%,0%,0%);stroke-opacity:1;stroke-miterlimit:10;" d="M 1.415598 1.694701 L 1.415598 1.635299 " transform="matrix(600,0,0,-600,-496.98,1415)"/>
<path style="fill:none;stroke-width:0.0594;stroke-linecap:round;stroke-linejoin:miter;stroke:rgb(0%,0%,0%);stroke-opacity:1;stroke-miterlimit:10;" d="M 1.549498 1.635299 L 1.549498 1.694701 " transform="matrix(600,0,0,-600,-496.98,1415)"/>
<path style="fill:none;stroke-width:0.0594;stroke-linecap:round;stroke-linejoin:miter;stroke:rgb(0%,0%,0%);stroke-opacity:1;stroke-miterlimit:10;" d="M 1.6833 1.694701 L 1.6833 1.635299 " transform="matrix(600,0,0,-600,-496.98,1415)"/>
<path style="fill:none;stroke-width:0.0594;stroke-linecap:round;stroke-linejoin:miter;stroke:rgb(0%,0%,0%);stroke-opacity:1;stroke-miterlimit:10;" d="M 1.8172 1.635299 L 1.8172 1.694701 " transform="matrix(600,0,0,-600,-496.98,1415)"/>
<path style="fill:none;stroke-width:0.0594;stroke-linecap:round;stroke-linejoin:miter;stroke:rgb(0%,0%,0%);stroke-opacity:1;stroke-miterlimit:10;" d="M 1.951002 1.694701 L 1.951002 1.635299 " transform="matrix(600,0,0,-600,-496.98,1415)"/>
<path style="fill:none;stroke-width:0.0594;stroke-linecap:round;stroke-linejoin:miter;stroke:rgb(0%,0%,0%);stroke-opacity:1;stroke-miterlimit:10;" d="M 2.084902 1.635299 L 2.084902 1.694701 " transform="matrix(600,0,0,-600,-496.98,1415)"/>
<path style="fill:none;stroke-width:0.0594;stroke-linecap:round;stroke-linejoin:miter;stroke:rgb(0%,0%,0%);stroke-opacity:1;stroke-miterlimit:10;" d="M 2.018001 1.835299 L 2.018001 1.894701 " transform="matrix(600,0,0,-600,-496.98,1415)"/>
<path style="fill:none;stroke-width:0.0594;stroke-linecap:round;stroke-linejoin:miter;stroke:rgb(0%,0%,0%);stroke-opacity:1;stroke-miterlimit:10;" d="M 1.884101 1.894701 L 1.884101 1.835299 " transform="matrix(600,0,0,-600,-496.98,1415)"/>
<path style="fill:none;stroke-width:0.0594;stroke-linecap:round;stroke-linejoin:miter;stroke:rgb(0%,0%,0%);stroke-opacity:1;stroke-miterlimit:10;" d="M 1.750299 1.835299 L 1.750299 1.894701 " transform="matrix(600,0,0,-600,-496.98,1415)"/>
<path style="fill:none;stroke-width:0.0594;stroke-linecap:round;stroke-linejoin:miter;stroke:rgb(0%,0%,0%);stroke-opacity:1;stroke-miterlimit:10;" d="M 1.616399 1.894701 L 1.616399 1.835299 " transform="matrix(600,0,0,-600,-496.98,1415)"/>
<path style="fill:none;stroke-width:0.0594;stroke-linecap:round;stroke-linejoin:miter;stroke:rgb(0%,0%,0%);stroke-opacity:1;stroke-miterlimit:10;" d="M 1.482499 1.835299 L 1.482499 1.894701 " transform="matrix(600,0,0,-600,-496.98,1415)"/>
<path style="fill:none;stroke-width:0.0594;stroke-linecap:round;stroke-linejoin:miter;stroke:rgb(0%,0%,0%);stroke-opacity:1;stroke-miterlimit:10;" d="M 1.348697 1.894701 L 1.348697 1.835299 " transform="matrix(600,0,0,-600,-496.98,1415)"/>
<path style=" stroke:none;fill-rule:evenodd;fill:rgb(0%,0%,0%);fill-opacity:1;" d="M 775.5 615.5 C 775.5 585.5 730.5 585.5 730.5 615.5 C 730.5 645.5 775.5 645.5 775.5 615.5 "/>
<path style=" stroke:none;fill-rule:evenodd;fill:rgb(0%,0%,0%);fill-opacity:1;" d="M 775.5 837.5 C 775.5 807.5 730.5 807.5 730.5 837.5 C 730.5 867.5 775.5 867.5 775.5 837.5 "/>
<path style=" stroke:none;fill-rule:evenodd;fill:rgb(0%,0%,0%);fill-opacity:1;" d="M 700.5 923 C 700.5 893 655.5 893 655.5 923 C 655.5 953 700.5 953 700.5 923 "/>
<path style=" stroke:none;fill-rule:evenodd;fill:rgb(0%,0%,0%);fill-opacity:1;" d="M 583.5 1106 C 583.5 1076 538.5 1076 538.5 1106 C 538.5 1136 583.5 1136 583.5 1106 "/>
<path style=" stroke:none;fill-rule:evenodd;fill:rgb(0%,0%,0%);fill-opacity:1;" d="M 700.5 1145 C 700.5 1115 655.5 1115 655.5 1145 C 655.5 1175 700.5 1175 700.5 1145 "/>
<path style=" stroke:none;fill-rule:evenodd;fill:rgb(0%,0%,0%);fill-opacity:1;" d="M 361.5 1106 C 361.5 1076 316.5 1076 316.5 1106 C 316.5 1136 361.5 1136 361.5 1106 "/>
<path style=" stroke:none;fill-rule:evenodd;fill:rgb(0%,0%,0%);fill-opacity:1;" d="M 532.800781 836 C 532.800781 809.601562 493.199219 809.601562 493.199219 836 C 493.199219 862.398438 532.800781 862.398438 532.800781 836 "/>
<path style=" stroke:none;fill-rule:evenodd;fill:rgb(0%,0%,0%);fill-opacity:1;" d="M 313.5 855.5 L 352.5 855.5 L 352.5 816.5 L 313.5 816.5 Z "/>
<path style="fill:none;stroke-width:0.06;stroke-linecap:round;stroke-linejoin:miter;stroke:rgb(0%,0%,0%);stroke-opacity:1;stroke-miterlimit:10;" d="M 1.2958 0.295 L 1.2958 0.235 " transform="matrix(600,0,0,-600,-496.98,1415)"/>
<path style="fill:none;stroke-width:0.06;stroke-linecap:round;stroke-linejoin:miter;stroke:rgb(0%,0%,0%);stroke-opacity:1;stroke-miterlimit:10;" d="M 1.3958 0.235 L 1.3958 0.295 " transform="matrix(600,0,0,-600,-496.98,1415)"/>
<path style="fill:none;stroke-width:0.06;stroke-linecap:round;stroke-linejoin:miter;stroke:rgb(0%,0%,0%);stroke-opacity:1;stroke-miterlimit:10;" d="M 1.8833 0.295 L 1.8833 0.235 " transform="matrix(600,0,0,-600,-496.98,1415)"/>
<path style="fill:none;stroke-width:0.06;stroke-linecap:round;stroke-linejoin:miter;stroke:rgb(0%,0%,0%);stroke-opacity:1;stroke-miterlimit:10;" d="M 1.9833 0.235 L 1.9833 0.295 " transform="matrix(600,0,0,-600,-496.98,1415)"/>
<path style="fill:none;stroke-width:0.06;stroke-linecap:round;stroke-linejoin:miter;stroke:rgb(0%,0%,0%);stroke-opacity:1;stroke-miterlimit:10;" d="M 2.0833 0.295 L 2.0833 0.235 " transform="matrix(600,0,0,-600,-496.98,1415)"/>
<path style="fill:none;stroke-width:0.06;stroke-linecap:round;stroke-linejoin:miter;stroke:rgb(0%,0%,0%);stroke-opacity:1;stroke-miterlimit:10;" d="M 2.2783 1.065 L 2.3383 1.065 " transform="matrix(600,0,0,-600,-496.98,1415)"/>
<path style="fill:none;stroke-width:0.06;stroke-linecap:round;stroke-linejoin:miter;stroke:rgb(0%,0%,0%);stroke-opacity:1;stroke-miterlimit:10;" d="M 2.3383 1.165 L 2.2783 1.165 " transform="matrix(600,0,0,-600,-496.98,1415)"/>
<path style="fill:none;stroke-width:0.06;stroke-linecap:round;stroke-linejoin:miter;stroke:rgb(0%,0%,0%);stroke-opacity:1;stroke-miterlimit:10;" d="M 1.0383 1.165 L 0.9783 1.165 " transform="matrix(600,0,0,-600,-496.98,1415)"/>
<path style="fill:none;stroke-width:0.06;stroke-linecap:round;stroke-linejoin:miter;stroke:rgb(0%,0%,0%);stroke-opacity:1;stroke-miterlimit:10;" d="M 0.9783 1.065 L 1.0383 1.065 " transform="matrix(600,0,0,-600,-496.98,1415)"/>
<path style="fill:none;stroke-width:0.04;stroke-linecap:round;stroke-linejoin:miter;stroke:rgb(0%,0%,0%);stroke-opacity:1;stroke-miterlimit:10;" d="M 1.0083 1.065 L 1.0833 1.065 " transform="matrix(600,0,0,-600,-496.98,1415)"/>
<path style="fill:none;stroke-width:0.04;stroke-linecap:round;stroke-linejoin:miter;stroke:rgb(0%,0%,0%);stroke-opacity:1;stroke-miterlimit:10;" d="M 1.0833 1.065 L 1.1333 1.115 " transform="matrix(600,0,0,-600,-496.98,1415)"/>
<path style="fill:none;stroke-width:0.04;stroke-linecap:round;stroke-linejoin:miter;stroke:rgb(0%,0%,0%);stroke-opacity:1;stroke-miterlimit:10;" d="M 1.1333 1.115 L 1.1333 2.015 " transform="matrix(600,0,0,-600,-496.98,1415)"/>
<path style="fill:none;stroke-width:0.04;stroke-linecap:round;stroke-linejoin:miter;stroke:rgb(0%,0%,0%);stroke-opacity:1;stroke-miterlimit:10;" d="M 1.1333 2.015 L 1.3833 2.015 " transform="matrix(600,0,0,-600,-496.98,1415)"/>
<path style="fill:none;stroke-width:0.04;stroke-linecap:round;stroke-linejoin:miter;stroke:rgb(0%,0%,0%);stroke-opacity:1;stroke-miterlimit:10;" d="M 1.3833 2.015 L 1.482499 2.014199 " transform="matrix(600,0,0,-600,-496.98,1415)"/>
<path style="fill:none;stroke-width:0.04;stroke-linecap:round;stroke-linejoin:miter;stroke:rgb(0%,0%,0%);stroke-opacity:1;stroke-miterlimit:10;" d="M 1.482499 2.014199 L 1.482499 1.865 " transform="matrix(600,0,0,-600,-496.98,1415)"/>
<path style="fill:none;stroke-width:0.04;stroke-linecap:round;stroke-linejoin:miter;stroke:rgb(0%,0%,0%);stroke-opacity:1;stroke-miterlimit:10;" d="M 1.616399 1.865 L 1.616399 2.098099 " transform="matrix(600,0,0,-600,-496.98,1415)"/>
<path style="fill:none;stroke-width:0.04;stroke-linecap:round;stroke-linejoin:miter;stroke:rgb(0%,0%,0%);stroke-opacity:1;stroke-miterlimit:10;" d="M 1.616399 2.098099 L 1.5833 2.115 " transform="matrix(600,0,0,-600,-496.98,1415)"/>
<path style="fill:none;stroke-width:0.04;stroke-linecap:round;stroke-linejoin:miter;stroke:rgb(0%,0%,0%);stroke-opacity:1;stroke-miterlimit:10;" d="M 1.5833 2.115 L 1.0333 2.115 " transform="matrix(600,0,0,-600,-496.98,1415)"/>
<path style="fill:none;stroke-width:0.04;stroke-linecap:round;stroke-linejoin:miter;stroke:rgb(0%,0%,0%);stroke-opacity:1;stroke-miterlimit:10;" d="M 1.0333 2.115 L 1.0333 1.19 " transform="matrix(600,0,0,-600,-496.98,1415)"/>
<path style="fill:none;stroke-width:0.04;stroke-linecap:round;stroke-linejoin:miter;stroke:rgb(0%,0%,0%);stroke-opacity:1;stroke-miterlimit:10;" d="M 1.0333 1.19 L 1.0083 1.165 " transform="matrix(600,0,0,-600,-496.98,1415)"/>
<path style="fill:none;stroke-width:0.04;stroke-linecap:round;stroke-linejoin:miter;stroke:rgb(0%,0%,0%);stroke-opacity:1;stroke-miterlimit:10;" d="M 1.3833 0.965 L 1.415598 0.997298 " transform="matrix(600,0,0,-600,-496.98,1415)"/>
<path style="fill:none;stroke-width:0.04;stroke-linecap:round;stroke-linejoin:miter;stroke:rgb(0%,0%,0%);stroke-opacity:1;stroke-miterlimit:10;" d="M 1.415598 0.997298 L 1.415598 1.665 " transform="matrix(600,0,0,-600,-496.98,1415)"/>
<path style="fill:none;stroke-width:0.04;stroke-linecap:round;stroke-linejoin:miter;stroke:rgb(0%,0%,0%);stroke-opacity:1;stroke-miterlimit:10;" d="M 1.2833 1.663398 L 1.2833 1.415 " transform="matrix(600,0,0,-600,-496.98,1415)"/>
<path style="fill:none;stroke-width:0.04;stroke-linecap:round;stroke-linejoin:miter;stroke:rgb(0%,0%,0%);stroke-opacity:1;stroke-miterlimit:10;" d="M 1.549498 1.665 L 1.549498 1.0989 " transform="matrix(600,0,0,-600,-496.98,1415)"/>
<path style="fill:none;stroke-width:0.04;stroke-linecap:round;stroke-linejoin:miter;stroke:rgb(0%,0%,0%);stroke-opacity:1;stroke-miterlimit:10;" d="M 1.549498 1.0989 L 1.6833 0.965 " transform="matrix(600,0,0,-600,-496.98,1415)"/>
<path style="fill:none;stroke-width:0.04;stroke-linecap:round;stroke-linejoin:miter;stroke:rgb(0%,0%,0%);stroke-opacity:1;stroke-miterlimit:10;" d="M 1.6833 0.965 L 1.7633 0.885 " transform="matrix(600,0,0,-600,-496.98,1415)"/>
<path style="fill:none;stroke-width:0.04;stroke-linecap:round;stroke-linejoin:miter;stroke:rgb(0%,0%,0%);stroke-opacity:1;stroke-miterlimit:10;" d="M 1.7633 0.885 L 1.7633 0.515 " transform="matrix(600,0,0,-600,-496.98,1415)"/>
<path style="fill:none;stroke-width:0.04;stroke-linecap:round;stroke-linejoin:miter;stroke:rgb(0%,0%,0%);stroke-opacity:1;stroke-miterlimit:10;" d="M 1.7633 0.515 L 1.7333 0.515 " transform="matrix(600,0,0,-600,-496.98,1415)"/>
<path style="fill:none;stroke-width:0.04;stroke-linecap:round;stroke-linejoin:miter;stroke:rgb(0%,0%,0%);stroke-opacity:1;stroke-miterlimit:10;" d="M 1.7333 0.515 L 1.7333 0.265 " transform="matrix(600,0,0,-600,-496.98,1415)"/>
<path style="fill:none;stroke-width:0.04;stroke-linecap:round;stroke-linejoin:miter;stroke:rgb(0%,0%,0%);stroke-opacity:1;stroke-miterlimit:10;" d="M 1.7333 0.265 L 1.7333 0.115 " transform="matrix(600,0,0,-600,-496.98,1415)"/>
<path style="fill:none;stroke-width:0.04;stroke-linecap:round;stroke-linejoin:miter;stroke:rgb(0%,0%,0%);stroke-opacity:1;stroke-miterlimit:10;" d="M 1.7333 0.115 L 1.9833 0.115 " transform="matrix(600,0,0,-600,-496.98,1415)"/>
<path style="fill:none;stroke-width:0.04;stroke-linecap:round;stroke-linejoin:miter;stroke:rgb(0%,0%,0%);stroke-opacity:1;stroke-miterlimit:10;" d="M 1.9833 0.115 L 1.9833 0.265 " transform="matrix(600,0,0,-600,-496.98,1415)"/>
<path style="fill:none;stroke-width:0.04;stroke-linecap:round;stroke-linejoin:miter;stroke:rgb(0%,0%,0%);stroke-opacity:1;stroke-miterlimit:10;" d="M 2.0833 0.265 L 2.0833 0.9625 " transform="matrix(600,0,0,-600,-496.98,1415)"/>
<path style="fill:none;stroke-width:0.04;stroke-linecap:round;stroke-linejoin:miter;stroke:rgb(0%,0%,0%);stroke-opacity:1;stroke-miterlimit:10;" d="M 2.0333 1.065 L 2.3083 1.065 " transform="matrix(600,0,0,-600,-496.98,1415)"/>
<path style="fill:none;stroke-width:0.04;stroke-linecap:round;stroke-linejoin:miter;stroke:rgb(0%,0%,0%);stroke-opacity:1;stroke-miterlimit:10;" d="M 2.3083 1.165 L 2.0833 1.165 " transform="matrix(600,0,0,-600,-496.98,1415)"/>
<path style="fill:none;stroke-width:0.04;stroke-linecap:round;stroke-linejoin:miter;stroke:rgb(0%,0%,0%);stroke-opacity:1;stroke-miterlimit:10;" d="M 2.0833 1.165 L 1.9833 1.265 " transform="matrix(600,0,0,-600,-496.98,1415)"/>
<path style="fill:none;stroke-width:0.04;stroke-linecap:round;stroke-linejoin:miter;stroke:rgb(0%,0%,0%);stroke-opacity:1;stroke-miterlimit:10;" d="M 1.9833 1.265 L 1.9833 1.4989 " transform="matrix(600,0,0,-600,-496.98,1415)"/>
<path style="fill:none;stroke-width:0.04;stroke-linecap:round;stroke-linejoin:miter;stroke:rgb(0%,0%,0%);stroke-opacity:1;stroke-miterlimit:10;" d="M 1.9833 1.4989 L 1.8172 1.665 " transform="matrix(600,0,0,-600,-496.98,1415)"/>
<path style="fill:none;stroke-width:0.04;stroke-linecap:round;stroke-linejoin:miter;stroke:rgb(0%,0%,0%);stroke-opacity:1;stroke-miterlimit:10;" d="M 1.6833 1.665 L 1.8833 1.465 " transform="matrix(600,0,0,-600,-496.98,1415)"/>
<path style="fill:none;stroke-width:0.04;stroke-linecap:round;stroke-linejoin:miter;stroke:rgb(0%,0%,0%);stroke-opacity:1;stroke-miterlimit:10;" d="M 1.8833 1.465 L 1.8833 1.215 " transform="matrix(600,0,0,-600,-496.98,1415)"/>
<path style="fill:none;stroke-width:0.04;stroke-linecap:round;stroke-linejoin:miter;stroke:rgb(0%,0%,0%);stroke-opacity:1;stroke-miterlimit:10;" d="M 1.8833 1.215 L 2.0333 1.065 " transform="matrix(600,0,0,-600,-496.98,1415)"/>
<path style="fill:none;stroke-width:0.04;stroke-linecap:round;stroke-linejoin:miter;stroke:rgb(0%,0%,0%);stroke-opacity:1;stroke-miterlimit:10;" d="M 1.9583 0.82 L 1.7533 1.0825 " transform="matrix(600,0,0,-600,-496.98,1415)"/>
<path style="fill:none;stroke-width:0.04;stroke-linecap:round;stroke-linejoin:miter;stroke:rgb(0%,0%,0%);stroke-opacity:1;stroke-miterlimit:10;" d="M 1.3933 0.955 L 1.3833 0.965 " transform="matrix(600,0,0,-600,-496.98,1415)"/>
<path style="fill:none;stroke-width:0.04;stroke-linecap:round;stroke-linejoin:miter;stroke:rgb(0%,0%,0%);stroke-opacity:1;stroke-miterlimit:10;" d="M 1.3933 0.955 L 1.3933 0.515 " transform="matrix(600,0,0,-600,-496.98,1415)"/>
<path style="fill:none;stroke-width:0.04;stroke-linecap:round;stroke-linejoin:miter;stroke:rgb(0%,0%,0%);stroke-opacity:1;stroke-miterlimit:10;" d="M 1.3933 0.515 L 1.3933 0.455 " transform="matrix(600,0,0,-600,-496.98,1415)"/>
<path style="fill:none;stroke-width:0.04;stroke-linecap:round;stroke-linejoin:miter;stroke:rgb(0%,0%,0%);stroke-opacity:1;stroke-miterlimit:10;" d="M 1.3933 0.455 L 1.2958 0.39 " transform="matrix(600,0,0,-600,-496.98,1415)"/>
<path style="fill:none;stroke-width:0.04;stroke-linecap:round;stroke-linejoin:miter;stroke:rgb(0%,0%,0%);stroke-opacity:1;stroke-miterlimit:10;" d="M 1.2958 0.39 L 1.2958 0.265 " transform="matrix(600,0,0,-600,-496.98,1415)"/>
<path style="fill:none;stroke-width:0.04;stroke-linecap:round;stroke-linejoin:miter;stroke:rgb(0%,0%,0%);stroke-opacity:1;stroke-miterlimit:10;" d="M 1.3958 0.265 L 1.7333 0.265 " transform="matrix(600,0,0,-600,-496.98,1415)"/>
<path style="fill:none;stroke-width:0.04;stroke-linecap:round;stroke-linejoin:miter;stroke:rgb(0%,0%,0%);stroke-opacity:1;stroke-miterlimit:10;" d="M 1.8833 0.265 L 1.8833 0.4525 " transform="matrix(600,0,0,-600,-496.98,1415)"/>
<path style="fill:none;stroke-width:0.04;stroke-linecap:round;stroke-linejoin:miter;stroke:rgb(0%,0%,0%);stroke-opacity:1;stroke-miterlimit:10;" d="M 1.8833 0.4525 L 1.9583 0.45 " transform="matrix(600,0,0,-600,-496.98,1415)"/>
<path style="fill:none;stroke-width:0.04;stroke-linecap:round;stroke-linejoin:miter;stroke:rgb(0%,0%,0%);stroke-opacity:1;stroke-miterlimit:10;" d="M 2.0833 1.3325 L 2.084902 1.459102 " transform="matrix(600,0,0,-600,-496.98,1415)"/>
<path style="fill:none;stroke-width:0.04;stroke-linecap:round;stroke-linejoin:miter;stroke:rgb(0%,0%,0%);stroke-opacity:1;stroke-miterlimit:10;" d="M 2.084902 1.459102 L 2.084902 1.665 " transform="matrix(600,0,0,-600,-496.98,1415)"/>
<path style="fill:none;stroke-width:0.04;stroke-linecap:round;stroke-linejoin:miter;stroke:rgb(0%,0%,0%);stroke-opacity:1;stroke-miterlimit:10;" d="M 2.2333 1.49 L 2.2333 2.065 " transform="matrix(600,0,0,-600,-496.98,1415)"/>
<path style="fill:none;stroke-width:0.04;stroke-linecap:round;stroke-linejoin:miter;stroke:rgb(0%,0%,0%);stroke-opacity:1;stroke-miterlimit:10;" d="M 2.2333 2.065 L 1.8833 2.065 " transform="matrix(600,0,0,-600,-496.98,1415)"/>
<path style="fill:none;stroke-width:0.04;stroke-linecap:round;stroke-linejoin:miter;stroke:rgb(0%,0%,0%);stroke-opacity:1;stroke-miterlimit:10;" d="M 1.8833 2.065 L 1.884101 2.015801 " transform="matrix(600,0,0,-600,-496.98,1415)"/>
<path style="fill:none;stroke-width:0.04;stroke-linecap:round;stroke-linejoin:miter;stroke:rgb(0%,0%,0%);stroke-opacity:1;stroke-miterlimit:10;" d="M 1.884101 2.015801 L 1.884101 1.865 " transform="matrix(600,0,0,-600,-496.98,1415)"/>
<path style="fill:none;stroke-width:0.04;stroke-linecap:round;stroke-linejoin:miter;stroke:rgb(0%,0%,0%);stroke-opacity:1;stroke-miterlimit:10;" d="M 1.7458 1.415 L 1.743202 1.304102 " transform="matrix(600,0,0,-600,-496.98,1415)"/>
<path style="fill:none;stroke-width:0.04;stroke-linecap:round;stroke-linejoin:miter;stroke:rgb(0%,0%,0%);stroke-opacity:1;stroke-miterlimit:10;" d="M 1.743202 1.304102 L 1.745702 1.193203 " transform="matrix(600,0,0,-600,-496.98,1415)"/>
<path style="fill:none;stroke-width:0.04;stroke-linecap:round;stroke-linejoin:miter;stroke:rgb(0%,0%,0%);stroke-opacity:1;stroke-miterlimit:10;" d="M 1.745702 1.193203 L 1.7533 1.0825 " transform="matrix(600,0,0,-600,-496.98,1415)"/>
<path style="fill:none;stroke-width:0.032;stroke-linecap:round;stroke-linejoin:miter;stroke:rgb(0%,0%,0%);stroke-opacity:1;stroke-miterlimit:10;" d="M 1.549498 1.665 L 1.5458 1.6686 " transform="matrix(600,0,0,-600,-496.98,1415)"/>
<path style="fill:none;stroke-width:0.032;stroke-linecap:round;stroke-linejoin:miter;stroke:rgb(0%,0%,0%);stroke-opacity:1;stroke-miterlimit:10;" d="M 1.5458 1.6686 L 1.5458 1.7275 " transform="matrix(600,0,0,-600,-496.98,1415)"/>
<path style="fill:none;stroke-width:0.032;stroke-linecap:round;stroke-linejoin:miter;stroke:rgb(0%,0%,0%);stroke-opacity:1;stroke-miterlimit:10;" d="M 1.5458 1.7275 L 1.5333 1.765 " transform="matrix(600,0,0,-600,-496.98,1415)"/>
<path style="fill:none;stroke-width:0.032;stroke-linecap:round;stroke-linejoin:miter;stroke:rgb(0%,0%,0%);stroke-opacity:1;stroke-miterlimit:10;" d="M 1.5333 1.765 L 1.5708 1.765 " transform="matrix(600,0,0,-600,-496.98,1415)"/>
<path style="fill:none;stroke-width:0.032;stroke-linecap:round;stroke-linejoin:miter;stroke:rgb(0%,0%,0%);stroke-opacity:1;stroke-miterlimit:10;" d="M 1.5708 1.765 L 1.7083 1.765 " transform="matrix(600,0,0,-600,-496.98,1415)"/>
<path style="fill:none;stroke-width:0.032;stroke-linecap:round;stroke-linejoin:miter;stroke:rgb(0%,0%,0%);stroke-opacity:1;stroke-miterlimit:10;" d="M 1.7083 1.765 L 1.750299 1.806901 " transform="matrix(600,0,0,-600,-496.98,1415)"/>
<path style="fill:none;stroke-width:0.032;stroke-linecap:round;stroke-linejoin:miter;stroke:rgb(0%,0%,0%);stroke-opacity:1;stroke-miterlimit:10;" d="M 1.750299 1.806901 L 1.750299 1.865 " transform="matrix(600,0,0,-600,-496.98,1415)"/>
<path style="fill:none;stroke-width:0.032;stroke-linecap:round;stroke-linejoin:miter;stroke:rgb(0%,0%,0%);stroke-opacity:1;stroke-miterlimit:10;" d="M 1.5708 1.765 L 1.5458 1.74 " transform="matrix(600,0,0,-600,-496.98,1415)"/>
<path style="fill:none;stroke-width:0.032;stroke-linecap:round;stroke-linejoin:miter;stroke:rgb(0%,0%,0%);stroke-opacity:1;stroke-miterlimit:10;" d="M 1.5458 1.74 L 1.5458 1.7275 " transform="matrix(600,0,0,-600,-496.98,1415)"/>
<path style="fill:none;stroke-width:0.032;stroke-linecap:round;stroke-linejoin:miter;stroke:rgb(0%,0%,0%);stroke-opacity:1;stroke-miterlimit:10;" d="M 1.5333 1.765 L 1.3833 1.765 " transform="matrix(600,0,0,-600,-496.98,1415)"/>
<path style="fill:none;stroke-width:0.032;stroke-linecap:round;stroke-linejoin:miter;stroke:rgb(0%,0%,0%);stroke-opacity:1;stroke-miterlimit:10;" d="M 1.3833 1.765 L 1.348697 1.799603 " transform="matrix(600,0,0,-600,-496.98,1415)"/>
<path style="fill:none;stroke-width:0.032;stroke-linecap:round;stroke-linejoin:miter;stroke:rgb(0%,0%,0%);stroke-opacity:1;stroke-miterlimit:10;" d="M 1.348697 1.799603 L 1.348697 1.865 " transform="matrix(600,0,0,-600,-496.98,1415)"/>
<path style="fill:none;stroke-width:0.032;stroke-linecap:round;stroke-linejoin:miter;stroke:rgb(0%,0%,0%);stroke-opacity:1;stroke-miterlimit:10;" d="M 1.281803 1.665 L 1.2833 1.663398 " transform="matrix(600,0,0,-600,-496.98,1415)"/>
<path style=" stroke:none;fill-rule:evenodd;fill:rgb(0%,0%,0%);fill-opacity:1;" d="M 332.699219 543.800781 L 378.300781 543.800781 L 378.300781 498.199219 L 332.699219 498.199219 Z "/>
<path style=" stroke:none;fill-rule:evenodd;fill:rgb(0%,0%,0%);fill-opacity:1;" d="M 250.199219 588.800781 L 295.800781 588.800781 L 295.800781 543.199219 L 250.199219 543.199219 Z "/>
<path style=" stroke:none;fill-rule:evenodd;fill:rgb(0%,0%,0%);fill-opacity:1;" d="M 527.699219 588.800781 L 573.300781 588.800781 L 573.300781 543.199219 L 527.699219 543.199219 Z "/>
<path style=" stroke:none;fill-rule:evenodd;fill:rgb(0%,0%,0%);fill-opacity:1;" d="M 820.199219 543.800781 L 865.800781 543.800781 L 865.800781 498.199219 L 820.199219 498.199219 Z "/>
<path style=" stroke:none;fill-rule:evenodd;fill:rgb(100%,100%,100%);fill-opacity:1;" d="M 343.800781 1106 C 343.800781 1099.601562 334.199219 1099.601562 334.199219 1106 C 334.199219 1112.398438 343.800781 1112.398438 343.800781 1106 "/>
<path style=" stroke:none;fill-rule:evenodd;fill:rgb(100%,100%,100%);fill-opacity:1;" d="M 565.800781 1106 C 565.800781 1099.601562 556.199219 1099.601562 556.199219 1106 C 556.199219 1112.398438 565.800781 1112.398438 565.800781 1106 "/>
<path style=" stroke:none;fill-rule:evenodd;fill:rgb(100%,100%,100%);fill-opacity:1;" d="M 682.800781 1145 C 682.800781 1138.601562 673.199219 1138.601562 673.199219 1145 C 673.199219 1151.398438 682.800781 1151.398438 682.800781 1145 "/>
<path style=" stroke:none;fill-rule:evenodd;fill:rgb(100%,100%,100%);fill-opacity:1;" d="M 682.800781 923 C 682.800781 916.601562 673.199219 916.601562 673.199219 923 C 673.199219 929.398438 682.800781 929.398438 682.800781 923 "/>
<path style=" stroke:none;fill-rule:evenodd;fill:rgb(100%,100%,100%);fill-opacity:1;" d="M 757.800781 837.5 C 757.800781 831.101562 748.199219 831.101562 748.199219 837.5 C 748.199219 843.898438 757.800781 843.898438 757.800781 837.5 "/>
<path style=" stroke:none;fill-rule:evenodd;fill:rgb(100%,100%,100%);fill-opacity:1;" d="M 757.800781 615.5 C 757.800781 609.101562 748.199219 609.101562 748.199219 615.5 C 748.199219 621.898438 757.800781 621.898438 757.800781 615.5 "/>
<path style=" stroke:none;fill-rule:evenodd;fill:rgb(100%,100%,100%);fill-opacity:1;" d="M 758.761719 416 C 758.761719 409.601562 749.160156 409.601562 749.160156 416 C 749.160156 422.398438 758.761719 422.398438 758.761719 416 "/>
<path style=" stroke:none;fill-rule:evenodd;fill:rgb(100%,100%,100%);fill-opacity:1;" d="M 678.421875 416 C 678.421875 409.601562 668.820312 409.601562 668.820312 416 C 668.820312 422.398438 678.421875 422.398438 678.421875 416 "/>
<path style=" stroke:none;fill-rule:evenodd;fill:rgb(100%,100%,100%);fill-opacity:1;" d="M 598.140625 416 C 598.140625 409.601562 588.539062 409.601562 588.539062 416 C 588.539062 422.398438 598.140625 422.398438 598.140625 416 "/>
<path style=" stroke:none;fill-rule:evenodd;fill:rgb(100%,100%,100%);fill-opacity:1;" d="M 517.800781 416 C 517.800781 409.601562 508.199219 409.601562 508.199219 416 C 508.199219 422.398438 517.800781 422.398438 517.800781 416 "/>
<path style=" stroke:none;fill-rule:evenodd;fill:rgb(100%,100%,100%);fill-opacity:1;" d="M 437.519531 416 C 437.519531 409.601562 427.921875 409.601562 427.921875 416 C 427.921875 422.398438 437.519531 422.398438 437.519531 416 "/>
<path style=" stroke:none;fill-rule:evenodd;fill:rgb(100%,100%,100%);fill-opacity:1;" d="M 357.179688 416 C 357.179688 409.601562 347.578125 409.601562 347.578125 416 C 347.578125 422.398438 357.179688 422.398438 357.179688 416 "/>
<path style=" stroke:none;fill-rule:evenodd;fill:rgb(100%,100%,100%);fill-opacity:1;" d="M 276.898438 416 C 276.898438 409.601562 267.300781 409.601562 267.300781 416 C 267.300781 422.398438 276.898438 422.398438 276.898438 416 "/>
<path style=" stroke:none;fill-rule:evenodd;fill:rgb(100%,100%,100%);fill-opacity:1;" d="M 317.039062 296 C 317.039062 289.601562 307.441406 289.601562 307.441406 296 C 307.441406 302.398438 317.039062 302.398438 317.039062 296 "/>
<path style=" stroke:none;fill-rule:evenodd;fill:rgb(100%,100%,100%);fill-opacity:1;" d="M 397.320312 296 C 397.320312 289.601562 387.71875 289.601562 387.71875 296 C 387.71875 302.398438 397.320312 302.398438 397.320312 296 "/>
<path style=" stroke:none;fill-rule:evenodd;fill:rgb(100%,100%,100%);fill-opacity:1;" d="M 477.660156 296 C 477.660156 289.601562 468.058594 289.601562 468.058594 296 C 468.058594 302.398438 477.660156 302.398438 477.660156 296 "/>
<path style=" stroke:none;fill-rule:evenodd;fill:rgb(100%,100%,100%);fill-opacity:1;" d="M 558 296 C 558 289.601562 548.398438 289.601562 548.398438 296 C 548.398438 302.398438 558 302.398438 558 296 "/>
<path style=" stroke:none;fill-rule:evenodd;fill:rgb(100%,100%,100%);fill-opacity:1;" d="M 638.28125 296 C 638.28125 289.601562 628.679688 289.601562 628.679688 296 C 628.679688 302.398438 638.28125 302.398438 638.28125 296 "/>
<path style=" stroke:none;fill-rule:evenodd;fill:rgb(100%,100%,100%);fill-opacity:1;" d="M 718.621094 296 C 718.621094 289.601562 709.019531 289.601562 709.019531 296 C 709.019531 302.398438 718.621094 302.398438 718.621094 296 "/>
<path style=" stroke:none;fill-rule:evenodd;fill:rgb(100%,100%,100%);fill-opacity:1;" d="M 285.300781 1256 C 285.300781 1249.601562 275.699219 1249.601562 275.699219 1256 C 275.699219 1262.398438 285.300781 1262.398438 285.300781 1256 "/>
<path style=" stroke:none;fill-rule:evenodd;fill:rgb(100%,100%,100%);fill-opacity:1;" d="M 345.300781 1256 C 345.300781 1249.601562 335.699219 1249.601562 335.699219 1256 C 335.699219 1262.398438 345.300781 1262.398438 345.300781 1256 "/>
<path style=" stroke:none;fill-rule:evenodd;fill:rgb(100%,100%,100%);fill-opacity:1;" d="M 637.800781 1256 C 637.800781 1249.601562 628.199219 1249.601562 628.199219 1256 C 628.199219 1262.398438 637.800781 1262.398438 637.800781 1256 "/>
<path style=" stroke:none;fill-rule:evenodd;fill:rgb(100%,100%,100%);fill-opacity:1;" d="M 697.800781 1256 C 697.800781 1249.601562 688.199219 1249.601562 688.199219 1256 C 688.199219 1262.398438 697.800781 1262.398438 697.800781 1256 "/>
<path style=" stroke:none;fill-rule:evenodd;fill:rgb(100%,100%,100%);fill-opacity:1;" d="M 757.800781 1256 C 757.800781 1249.601562 748.199219 1249.601562 748.199219 1256 C 748.199219 1262.398438 757.800781 1262.398438 757.800781 1256 "/>
<path style=" stroke:none;fill-rule:evenodd;fill:rgb(100%,100%,100%);fill-opacity:1;" d="M 517.800781 836 C 517.800781 829.601562 508.199219 829.601562 508.199219 836 C 508.199219 842.398438 517.800781 842.398438 517.800781 836 "/>
<path style=" stroke:none;fill-rule:evenodd;fill:rgb(100%,100%,100%);fill-opacity:1;" d="M 337.800781 836 C 337.800781 829.601562 328.199219 829.601562 328.199219 836 C 328.199219 842.398438 337.800781 842.398438 337.800781 836 "/>
<path style=" stroke:none;fill-rule:evenodd;fill:rgb(100%,100%,100%);fill-opacity:1;" d="M 112.800781 776 C 112.800781 769.601562 103.199219 769.601562 103.199219 776 C 103.199219 782.398438 112.800781 782.398438 112.800781 776 "/>
<path style=" stroke:none;fill-rule:evenodd;fill:rgb(100%,100%,100%);fill-opacity:1;" d="M 112.800781 716 C 112.800781 709.601562 103.199219 709.601562 103.199219 716 C 103.199219 722.398438 112.800781 722.398438 112.800781 716 "/>
<path style=" stroke:none;fill-rule:evenodd;fill:rgb(100%,100%,100%);fill-opacity:1;" d="M 277.800781 566 C 277.800781 559.601562 268.199219 559.601562 268.199219 566 C 268.199219 572.398438 277.800781 572.398438 277.800781 566 "/>
<path style=" stroke:none;fill-rule:evenodd;fill:rgb(100%,100%,100%);fill-opacity:1;" d="M 360.300781 521 C 360.300781 514.601562 350.699219 514.601562 350.699219 521 C 350.699219 527.398438 360.300781 527.398438 360.300781 521 "/>
<path style=" stroke:none;fill-rule:evenodd;fill:rgb(100%,100%,100%);fill-opacity:1;" d="M 555.300781 566 C 555.300781 559.601562 545.699219 559.601562 545.699219 566 C 545.699219 572.398438 555.300781 572.398438 555.300781 566 "/>
<path style=" stroke:none;fill-rule:evenodd;fill:rgb(100%,100%,100%);fill-opacity:1;" d="M 847.800781 521 C 847.800781 514.601562 838.199219 514.601562 838.199219 521 C 838.199219 527.398438 847.800781 527.398438 847.800781 521 "/>
<path style=" stroke:none;fill-rule:evenodd;fill:rgb(100%,100%,100%);fill-opacity:1;" d="M 892.800781 716 C 892.800781 709.601562 883.199219 709.601562 883.199219 716 C 883.199219 722.398438 892.800781 722.398438 892.800781 716 "/>
<path style=" stroke:none;fill-rule:evenodd;fill:rgb(100%,100%,100%);fill-opacity:1;" d="M 892.800781 776 C 892.800781 769.601562 883.199219 769.601562 883.199219 776 C 883.199219 782.398438 892.800781 782.398438 892.800781 776 "/>
</g>
</svg>
