<?xml version="1.0" encoding="UTF-8"?>
<svg xmlns="http://www.w3.org/2000/svg" xmlns:xlink="http://www.w3.org/1999/xlink" width="988pt" height="1409pt" viewBox="0 0 988 1409" version="1.1">
<g id="surface1">
<path style="fill:none;stroke-width:0.01;stroke-linecap:round;stroke-linejoin:miter;stroke:rgb(0%,0%,0%);stroke-opacity:1;stroke-miterlimit:10;" d="M 0.83333 0.015 L 0.83333 2.214609 " transform="matrix(600,0,0,-600,-496.997988,1415)"/>
<path style="fill:none;stroke-width:0.01;stroke-linecap:round;stroke-linejoin:miter;stroke:rgb(0%,0%,0%);stroke-opacity:1;stroke-miterlimit:10;" d="M 0.83333 2.214609 L 2.470342 2.214609 " transform="matrix(600,0,0,-600,-496.997988,1415)"/>
<path style="fill:none;stroke-width:0.01;stroke-linecap:round;stroke-linejoin:miter;stroke:rgb(0%,0%,0%);stroke-opacity:1;stroke-miterlimit:10;" d="M 2.470342 2.214609 L 2.470342 0.015 " transform="matrix(600,0,0,-600,-496.997988,1415)"/>
<path style="fill:none;stroke-width:0.01;stroke-linecap:round;stroke-linejoin:miter;stroke:rgb(0%,0%,0%);stroke-opacity:1;stroke-miterlimit:10;" d="M 2.470342 0.015 L 0.83333 0.015 " transform="matrix(600,0,0,-600,-496.997988,1415)"/>
<path style="fill:none;stroke-width:0.00512;stroke-linecap:round;stroke-linejoin:miter;stroke:rgb(0%,0%,0%);stroke-opacity:1;stroke-miterlimit:10;" d="M 0.83333 2.214609 L 0.83333 2.341771 " transform="matrix(600,0,0,-600,-496.997988,1415)"/>
<path style="fill:none;stroke-width:0.00512;stroke-linecap:round;stroke-linejoin:miter;stroke:rgb(0%,0%,0%);stroke-opacity:1;stroke-miterlimit:10;" d="M 0.835889 2.265 L 0.9357 2.254759 " transform="matrix(600,0,0,-600,-496.997988,1415)"/>
<path style="fill:none;stroke-width:0.00512;stroke-linecap:round;stroke-linejoin:miter;stroke:rgb(0%,0%,0%);stroke-opacity:1;stroke-miterlimit:10;" d="M 0.9357 2.252428 L 0.835889 2.265 " transform="matrix(600,0,0,-600,-496.997988,1415)"/>
<path style="fill:none;stroke-width:0.00512;stroke-linecap:round;stroke-linejoin:miter;stroke:rgb(0%,0%,0%);stroke-opacity:1;stroke-miterlimit:10;" d="M 0.835889 2.265 L 0.9357 2.275241 " transform="matrix(600,0,0,-600,-496.997988,1415)"/>
<path style="fill:none;stroke-width:0.00512;stroke-linecap:round;stroke-linejoin:miter;stroke:rgb(0%,0%,0%);stroke-opacity:1;stroke-miterlimit:10;" d="M 0.9357 2.277572 L 0.9357 2.252428 " transform="matrix(600,0,0,-600,-496.997988,1415)"/>
<path style="fill:none;stroke-width:0.00512;stroke-linecap:round;stroke-linejoin:miter;stroke:rgb(0%,0%,0%);stroke-opacity:1;stroke-miterlimit:10;" d="M 0.9357 2.259883 L 0.835889 2.265 " transform="matrix(600,0,0,-600,-496.997988,1415)"/>
<path style="fill:none;stroke-width:0.00512;stroke-linecap:round;stroke-linejoin:miter;stroke:rgb(0%,0%,0%);stroke-opacity:1;stroke-miterlimit:10;" d="M 0.835889 2.265 L 0.9357 2.270117 " transform="matrix(600,0,0,-600,-496.997988,1415)"/>
<path style="fill:none;stroke-width:0.00512;stroke-linecap:round;stroke-linejoin:miter;stroke:rgb(0%,0%,0%);stroke-opacity:1;stroke-miterlimit:10;" d="M 0.9357 2.277572 L 0.835889 2.265 " transform="matrix(600,0,0,-600,-496.997988,1415)"/>
<path style="fill:none;stroke-width:0.00512;stroke-linecap:round;stroke-linejoin:miter;stroke:rgb(0%,0%,0%);stroke-opacity:1;stroke-miterlimit:10;" d="M 0.835889 2.265 L 2.467783 2.265 " transform="matrix(600,0,0,-600,-496.997988,1415)"/>
<path style="fill:none;stroke-width:0.00512;stroke-linecap:round;stroke-linejoin:miter;stroke:rgb(0%,0%,0%);stroke-opacity:1;stroke-miterlimit:10;" d="M 2.467783 2.265 L 2.367978 2.254759 " transform="matrix(600,0,0,-600,-496.997988,1415)"/>
<path style="fill:none;stroke-width:0.00512;stroke-linecap:round;stroke-linejoin:miter;stroke:rgb(0%,0%,0%);stroke-opacity:1;stroke-miterlimit:10;" d="M 2.367978 2.252428 L 2.467783 2.265 " transform="matrix(600,0,0,-600,-496.997988,1415)"/>
<path style="fill:none;stroke-width:0.00512;stroke-linecap:round;stroke-linejoin:miter;stroke:rgb(0%,0%,0%);stroke-opacity:1;stroke-miterlimit:10;" d="M 2.467783 2.265 L 2.367978 2.275241 " transform="matrix(600,0,0,-600,-496.997988,1415)"/>
<path style="fill:none;stroke-width:0.00512;stroke-linecap:round;stroke-linejoin:miter;stroke:rgb(0%,0%,0%);stroke-opacity:1;stroke-miterlimit:10;" d="M 2.367978 2.277572 L 2.367978 2.252428 " transform="matrix(600,0,0,-600,-496.997988,1415)"/>
<path style="fill:none;stroke-width:0.00512;stroke-linecap:round;stroke-linejoin:miter;stroke:rgb(0%,0%,0%);stroke-opacity:1;stroke-miterlimit:10;" d="M 2.367978 2.259883 L 2.467783 2.265 " transform="matrix(600,0,0,-600,-496.997988,1415)"/>
<path style="fill:none;stroke-width:0.00512;stroke-linecap:round;stroke-linejoin:miter;stroke:rgb(0%,0%,0%);stroke-opacity:1;stroke-miterlimit:10;" d="M 2.467783 2.265 L 2.367978 2.270117 " transform="matrix(600,0,0,-600,-496.997988,1415)"/>
<path style="fill:none;stroke-width:0.00512;stroke-linecap:round;stroke-linejoin:miter;stroke:rgb(0%,0%,0%);stroke-opacity:1;stroke-miterlimit:10;" d="M 2.367978 2.277572 L 2.467783 2.265 " transform="matrix(600,0,0,-600,-496.997988,1415)"/>
<path style="fill:none;stroke-width:0.00512;stroke-linecap:round;stroke-linejoin:miter;stroke:rgb(0%,0%,0%);stroke-opacity:1;stroke-miterlimit:10;" d="M 2.470342 2.214609 L 2.470342 2.341771 " transform="matrix(600,0,0,-600,-496.997988,1415)"/>
<path style="fill:none;stroke-width:0.011;stroke-linecap:round;stroke-linejoin:miter;stroke:rgb(0%,0%,0%);stroke-opacity:1;stroke-miterlimit:10;" d="M 1.795791 2.342331 L 1.795791 2.33248 " transform="matrix(600,0,0,-600,-496.997988,1415)"/>
<path style="fill:none;stroke-width:0.011;stroke-linecap:round;stroke-linejoin:miter;stroke:rgb(0%,0%,0%);stroke-opacity:1;stroke-miterlimit:10;" d="M 1.795791 2.33248 L 1.785947 2.322643 " transform="matrix(600,0,0,-600,-496.997988,1415)"/>
<path style="fill:none;stroke-width:0.011;stroke-linecap:round;stroke-linejoin:miter;stroke:rgb(0%,0%,0%);stroke-opacity:1;stroke-miterlimit:10;" d="M 1.785947 2.322643 L 1.76626 2.322643 " transform="matrix(600,0,0,-600,-496.997988,1415)"/>
<path style="fill:none;stroke-width:0.011;stroke-linecap:round;stroke-linejoin:miter;stroke:rgb(0%,0%,0%);stroke-opacity:1;stroke-miterlimit:10;" d="M 1.76626 2.322643 L 1.756422 2.33248 " transform="matrix(600,0,0,-600,-496.997988,1415)"/>
<path style="fill:none;stroke-width:0.011;stroke-linecap:round;stroke-linejoin:miter;stroke:rgb(0%,0%,0%);stroke-opacity:1;stroke-miterlimit:10;" d="M 1.756422 2.33248 L 1.756422 2.342331 " transform="matrix(600,0,0,-600,-496.997988,1415)"/>
<path style="fill:none;stroke-width:0.011;stroke-linecap:round;stroke-linejoin:miter;stroke:rgb(0%,0%,0%);stroke-opacity:1;stroke-miterlimit:10;" d="M 1.756422 2.342331 L 1.76626 2.352168 " transform="matrix(600,0,0,-600,-496.997988,1415)"/>
<path style="fill:none;stroke-width:0.011;stroke-linecap:round;stroke-linejoin:miter;stroke:rgb(0%,0%,0%);stroke-opacity:1;stroke-miterlimit:10;" d="M 1.76626 2.352168 L 1.785947 2.352168 " transform="matrix(600,0,0,-600,-496.997988,1415)"/>
<path style="fill:none;stroke-width:0.011;stroke-linecap:round;stroke-linejoin:miter;stroke:rgb(0%,0%,0%);stroke-opacity:1;stroke-miterlimit:10;" d="M 1.785947 2.352168 L 1.795791 2.342331 " transform="matrix(600,0,0,-600,-496.997988,1415)"/>
<path style="fill:none;stroke-width:0.011;stroke-linecap:round;stroke-linejoin:miter;stroke:rgb(0%,0%,0%);stroke-opacity:1;stroke-miterlimit:10;" d="M 1.785947 2.322643 L 1.795791 2.312799 " transform="matrix(600,0,0,-600,-496.997988,1415)"/>
<path style="fill:none;stroke-width:0.011;stroke-linecap:round;stroke-linejoin:miter;stroke:rgb(0%,0%,0%);stroke-opacity:1;stroke-miterlimit:10;" d="M 1.795791 2.312799 L 1.795791 2.302962 " transform="matrix(600,0,0,-600,-496.997988,1415)"/>
<path style="fill:none;stroke-width:0.011;stroke-linecap:round;stroke-linejoin:miter;stroke:rgb(0%,0%,0%);stroke-opacity:1;stroke-miterlimit:10;" d="M 1.795791 2.302962 L 1.785947 2.293118 " transform="matrix(600,0,0,-600,-496.997988,1415)"/>
<path style="fill:none;stroke-width:0.011;stroke-linecap:round;stroke-linejoin:miter;stroke:rgb(0%,0%,0%);stroke-opacity:1;stroke-miterlimit:10;" d="M 1.785947 2.293118 L 1.76626 2.293118 " transform="matrix(600,0,0,-600,-496.997988,1415)"/>
<path style="fill:none;stroke-width:0.011;stroke-linecap:round;stroke-linejoin:miter;stroke:rgb(0%,0%,0%);stroke-opacity:1;stroke-miterlimit:10;" d="M 1.76626 2.293118 L 1.756422 2.302962 " transform="matrix(600,0,0,-600,-496.997988,1415)"/>
<path style="fill:none;stroke-width:0.011;stroke-linecap:round;stroke-linejoin:miter;stroke:rgb(0%,0%,0%);stroke-opacity:1;stroke-miterlimit:10;" d="M 1.756422 2.302962 L 1.756422 2.312799 " transform="matrix(600,0,0,-600,-496.997988,1415)"/>
<path style="fill:none;stroke-width:0.011;stroke-linecap:round;stroke-linejoin:miter;stroke:rgb(0%,0%,0%);stroke-opacity:1;stroke-miterlimit:10;" d="M 1.756422 2.312799 L 1.76626 2.322643 " transform="matrix(600,0,0,-600,-496.997988,1415)"/>
<path style="fill:none;stroke-width:0.011;stroke-linecap:round;stroke-linejoin:miter;stroke:rgb(0%,0%,0%);stroke-opacity:1;stroke-miterlimit:10;" d="M 1.731331 2.322643 L 1.731331 2.302962 " transform="matrix(600,0,0,-600,-496.997988,1415)"/>
<path style="fill:none;stroke-width:0.011;stroke-linecap:round;stroke-linejoin:miter;stroke:rgb(0%,0%,0%);stroke-opacity:1;stroke-miterlimit:10;" d="M 1.731331 2.302962 L 1.721488 2.293118 " transform="matrix(600,0,0,-600,-496.997988,1415)"/>
<path style="fill:none;stroke-width:0.011;stroke-linecap:round;stroke-linejoin:miter;stroke:rgb(0%,0%,0%);stroke-opacity:1;stroke-miterlimit:10;" d="M 1.721488 2.293118 L 1.701813 2.293118 " transform="matrix(600,0,0,-600,-496.997988,1415)"/>
<path style="fill:none;stroke-width:0.011;stroke-linecap:round;stroke-linejoin:miter;stroke:rgb(0%,0%,0%);stroke-opacity:1;stroke-miterlimit:10;" d="M 1.701813 2.293118 L 1.691969 2.302962 " transform="matrix(600,0,0,-600,-496.997988,1415)"/>
<path style="fill:none;stroke-width:0.011;stroke-linecap:round;stroke-linejoin:miter;stroke:rgb(0%,0%,0%);stroke-opacity:1;stroke-miterlimit:10;" d="M 1.691969 2.322643 L 1.71165 2.33248 " transform="matrix(600,0,0,-600,-496.997988,1415)"/>
<path style="fill:none;stroke-width:0.011;stroke-linecap:round;stroke-linejoin:miter;stroke:rgb(0%,0%,0%);stroke-opacity:1;stroke-miterlimit:10;" d="M 1.71165 2.33248 L 1.721488 2.33248 " transform="matrix(600,0,0,-600,-496.997988,1415)"/>
<path style="fill:none;stroke-width:0.011;stroke-linecap:round;stroke-linejoin:miter;stroke:rgb(0%,0%,0%);stroke-opacity:1;stroke-miterlimit:10;" d="M 1.721488 2.33248 L 1.731331 2.322643 " transform="matrix(600,0,0,-600,-496.997988,1415)"/>
<path style="fill:none;stroke-width:0.011;stroke-linecap:round;stroke-linejoin:miter;stroke:rgb(0%,0%,0%);stroke-opacity:1;stroke-miterlimit:10;" d="M 1.731331 2.352168 L 1.691969 2.352168 " transform="matrix(600,0,0,-600,-496.997988,1415)"/>
<path style="fill:none;stroke-width:0.011;stroke-linecap:round;stroke-linejoin:miter;stroke:rgb(0%,0%,0%);stroke-opacity:1;stroke-miterlimit:10;" d="M 1.691969 2.352168 L 1.691969 2.322643 " transform="matrix(600,0,0,-600,-496.997988,1415)"/>
<path style="fill:none;stroke-width:0.011;stroke-linecap:round;stroke-linejoin:miter;stroke:rgb(0%,0%,0%);stroke-opacity:1;stroke-miterlimit:10;" d="M 1.66958 2.302962 L 1.659743 2.302962 " transform="matrix(600,0,0,-600,-496.997988,1415)"/>
<path style="fill:none;stroke-width:0.011;stroke-linecap:round;stroke-linejoin:miter;stroke:rgb(0%,0%,0%);stroke-opacity:1;stroke-miterlimit:10;" d="M 1.659743 2.302962 L 1.659743 2.293118 " transform="matrix(600,0,0,-600,-496.997988,1415)"/>
<path style="fill:none;stroke-width:0.011;stroke-linecap:round;stroke-linejoin:miter;stroke:rgb(0%,0%,0%);stroke-opacity:1;stroke-miterlimit:10;" d="M 1.659743 2.293118 L 1.66958 2.293118 " transform="matrix(600,0,0,-600,-496.997988,1415)"/>
<path style="fill:none;stroke-width:0.011;stroke-linecap:round;stroke-linejoin:miter;stroke:rgb(0%,0%,0%);stroke-opacity:1;stroke-miterlimit:10;" d="M 1.66958 2.293118 L 1.66958 2.302962 " transform="matrix(600,0,0,-600,-496.997988,1415)"/>
<path style="fill:none;stroke-width:0.011;stroke-linecap:round;stroke-linejoin:miter;stroke:rgb(0%,0%,0%);stroke-opacity:1;stroke-miterlimit:10;" d="M 1.634652 2.293118 L 1.59529 2.293118 " transform="matrix(600,0,0,-600,-496.997988,1415)"/>
<path style="fill:none;stroke-width:0.011;stroke-linecap:round;stroke-linejoin:miter;stroke:rgb(0%,0%,0%);stroke-opacity:1;stroke-miterlimit:10;" d="M 1.614971 2.293118 L 1.614971 2.352168 " transform="matrix(600,0,0,-600,-496.997988,1415)"/>
<path style="fill:none;stroke-width:0.011;stroke-linecap:round;stroke-linejoin:miter;stroke:rgb(0%,0%,0%);stroke-opacity:1;stroke-miterlimit:10;" d="M 1.614971 2.352168 L 1.59529 2.33248 " transform="matrix(600,0,0,-600,-496.997988,1415)"/>
<path style="fill:none;stroke-width:0.011;stroke-linecap:round;stroke-linejoin:miter;stroke:rgb(0%,0%,0%);stroke-opacity:1;stroke-miterlimit:10;" d="M 1.570198 2.322643 L 1.53083 2.322643 " transform="matrix(600,0,0,-600,-496.997988,1415)"/>
<path style="fill:none;stroke-width:0.011;stroke-linecap:round;stroke-linejoin:miter;stroke:rgb(0%,0%,0%);stroke-opacity:1;stroke-miterlimit:10;" d="M 1.53083 2.322643 L 1.560361 2.352168 " transform="matrix(600,0,0,-600,-496.997988,1415)"/>
<path style="fill:none;stroke-width:0.011;stroke-linecap:round;stroke-linejoin:miter;stroke:rgb(0%,0%,0%);stroke-opacity:1;stroke-miterlimit:10;" d="M 1.560361 2.352168 L 1.560361 2.293118 " transform="matrix(600,0,0,-600,-496.997988,1415)"/>
<path style="fill:none;stroke-width:0.05937;stroke-linecap:round;stroke-linejoin:miter;stroke:rgb(0%,0%,0%);stroke-opacity:1;stroke-miterlimit:10;" d="M 1.281761 1.635312 L 1.281761 1.694687 " transform="matrix(600,0,0,-600,-496.997988,1415)"/>
<path style="fill:none;stroke-width:0.05937;stroke-linecap:round;stroke-linejoin:miter;stroke:rgb(0%,0%,0%);stroke-opacity:1;stroke-miterlimit:10;" d="M 1.415622 1.694687 L 1.415622 1.635312 " transform="matrix(600,0,0,-600,-496.997988,1415)"/>
<path style="fill:none;stroke-width:0.05937;stroke-linecap:round;stroke-linejoin:miter;stroke:rgb(0%,0%,0%);stroke-opacity:1;stroke-miterlimit:10;" d="M 1.549482 1.635312 L 1.549482 1.694687 " transform="matrix(600,0,0,-600,-496.997988,1415)"/>
<path style="fill:none;stroke-width:0.05937;stroke-linecap:round;stroke-linejoin:miter;stroke:rgb(0%,0%,0%);stroke-opacity:1;stroke-miterlimit:10;" d="M 1.68333 1.694687 L 1.68333 1.635312 " transform="matrix(600,0,0,-600,-496.997988,1415)"/>
<path style="fill:none;stroke-width:0.05937;stroke-linecap:round;stroke-linejoin:miter;stroke:rgb(0%,0%,0%);stroke-opacity:1;stroke-miterlimit:10;" d="M 1.817191 1.635312 L 1.817191 1.694687 " transform="matrix(600,0,0,-600,-496.997988,1415)"/>
<path style="fill:none;stroke-width:0.05937;stroke-linecap:round;stroke-linejoin:miter;stroke:rgb(0%,0%,0%);stroke-opacity:1;stroke-miterlimit:10;" d="M 1.951051 1.694687 L 1.951051 1.635312 " transform="matrix(600,0,0,-600,-496.997988,1415)"/>
<path style="fill:none;stroke-width:0.05937;stroke-linecap:round;stroke-linejoin:miter;stroke:rgb(0%,0%,0%);stroke-opacity:1;stroke-miterlimit:10;" d="M 2.084912 1.635312 L 2.084912 1.694687 " transform="matrix(600,0,0,-600,-496.997988,1415)"/>
<path style="fill:none;stroke-width:0.05937;stroke-linecap:round;stroke-linejoin:miter;stroke:rgb(0%,0%,0%);stroke-opacity:1;stroke-miterlimit:10;" d="M 2.017978 1.835312 L 2.017978 1.894687 " transform="matrix(600,0,0,-600,-496.997988,1415)"/>
<path style="fill:none;stroke-width:0.05937;stroke-linecap:round;stroke-linejoin:miter;stroke:rgb(0%,0%,0%);stroke-opacity:1;stroke-miterlimit:10;" d="M 1.884118 1.894687 L 1.884118 1.835312 " transform="matrix(600,0,0,-600,-496.997988,1415)"/>
<path style="fill:none;stroke-width:0.05937;stroke-linecap:round;stroke-linejoin:miter;stroke:rgb(0%,0%,0%);stroke-opacity:1;stroke-miterlimit:10;" d="M 1.750257 1.835312 L 1.750257 1.894687 " transform="matrix(600,0,0,-600,-496.997988,1415)"/>
<path style="fill:none;stroke-width:0.05937;stroke-linecap:round;stroke-linejoin:miter;stroke:rgb(0%,0%,0%);stroke-opacity:1;stroke-miterlimit:10;" d="M 1.616403 1.894687 L 1.616403 1.835312 " transform="matrix(600,0,0,-600,-496.997988,1415)"/>
<path style="fill:none;stroke-width:0.05937;stroke-linecap:round;stroke-linejoin:miter;stroke:rgb(0%,0%,0%);stroke-opacity:1;stroke-miterlimit:10;" d="M 1.482549 1.835312 L 1.482549 1.894687 " transform="matrix(600,0,0,-600,-496.997988,1415)"/>
<path style="fill:none;stroke-width:0.05937;stroke-linecap:round;stroke-linejoin:miter;stroke:rgb(0%,0%,0%);stroke-opacity:1;stroke-miterlimit:10;" d="M 1.348688 1.894687 L 1.348688 1.835312 " transform="matrix(600,0,0,-600,-496.997988,1415)"/>
<path style=" stroke:none;fill-rule:evenodd;fill:rgb(0%,0%,0%);fill-opacity:1;" d="M 775.5 615.5 C 775.5 585.5 730.5 585.5 730.5 615.5 C 730.5 645.5 775.5 645.5 775.5 615.5 "/>
<path style=" stroke:none;fill-rule:evenodd;fill:rgb(0%,0%,0%);fill-opacity:1;" d="M 775.5 837.5 C 775.5 807.5 730.5 807.5 730.5 837.5 C 730.5 867.5 775.5 867.5 775.5 837.5 "/>
<path style=" stroke:none;fill-rule:evenodd;fill:rgb(0%,0%,0%);fill-opacity:1;" d="M 700.5 923 C 700.5 893 655.5 893 655.5 923 C 655.5 953 700.5 953 700.5 923 "/>
<path style=" stroke:none;fill-rule:evenodd;fill:rgb(0%,0%,0%);fill-opacity:1;" d="M 583.5 1106 C 583.5 1076 538.5 1076 538.5 1106 C 538.5 1136 583.5 1136 583.5 1106 "/>
<path style=" stroke:none;fill-rule:evenodd;fill:rgb(0%,0%,0%);fill-opacity:1;" d="M 700.5 1145 C 700.5 1115 655.5 1115 655.5 1145 C 655.5 1175 700.5 1175 700.5 1145 "/>
<path style=" stroke:none;fill-rule:evenodd;fill:rgb(0%,0%,0%);fill-opacity:1;" d="M 361.5 1106 C 361.5 1076 316.5 1076 316.5 1106 C 316.5 1136 361.5 1136 361.5 1106 "/>
<path style=" stroke:none;fill-rule:evenodd;fill:rgb(0%,0%,0%);fill-opacity:1;" d="M 532.800781 836 C 532.800781 809.601562 493.199219 809.601562 493.199219 836 C 493.199219 862.398438 532.800781 862.398438 532.800781 836 "/>
<path style=" stroke:none;fill-rule:evenodd;fill:rgb(0%,0%,0%);fill-opacity:1;" d="M 313.5 855.5 L 352.5 855.5 L 352.5 816.5 L 313.5 816.5 Z M 313.5 855.5 "/>
<path style="fill:none;stroke-width:0.06;stroke-linecap:round;stroke-linejoin:miter;stroke:rgb(0%,0%,0%);stroke-opacity:1;stroke-miterlimit:10;" d="M 1.29583 0.295 L 1.29583 0.235 " transform="matrix(600,0,0,-600,-496.997988,1415)"/>
<path style="fill:none;stroke-width:0.06;stroke-linecap:round;stroke-linejoin:miter;stroke:rgb(0%,0%,0%);stroke-opacity:1;stroke-miterlimit:10;" d="M 1.39583 0.235 L 1.39583 0.295 " transform="matrix(600,0,0,-600,-496.997988,1415)"/>
<path style="fill:none;stroke-width:0.06;stroke-linecap:round;stroke-linejoin:miter;stroke:rgb(0%,0%,0%);stroke-opacity:1;stroke-miterlimit:10;" d="M 1.88333 0.295 L 1.88333 0.235 " transform="matrix(600,0,0,-600,-496.997988,1415)"/>
<path style="fill:none;stroke-width:0.06;stroke-linecap:round;stroke-linejoin:miter;stroke:rgb(0%,0%,0%);stroke-opacity:1;stroke-miterlimit:10;" d="M 1.98333 0.235 L 1.98333 0.295 " transform="matrix(600,0,0,-600,-496.997988,1415)"/>
<path style="fill:none;stroke-width:0.06;stroke-linecap:round;stroke-linejoin:miter;stroke:rgb(0%,0%,0%);stroke-opacity:1;stroke-miterlimit:10;" d="M 2.08333 0.295 L 2.08333 0.235 " transform="matrix(600,0,0,-600,-496.997988,1415)"/>
<path style="fill:none;stroke-width:0.06;stroke-linecap:round;stroke-linejoin:miter;stroke:rgb(0%,0%,0%);stroke-opacity:1;stroke-miterlimit:10;" d="M 2.27833 1.065 L 2.33833 1.065 " transform="matrix(600,0,0,-600,-496.997988,1415)"/>
<path style="fill:none;stroke-width:0.06;stroke-linecap:round;stroke-linejoin:miter;stroke:rgb(0%,0%,0%);stroke-opacity:1;stroke-miterlimit:10;" d="M 2.33833 1.165 L 2.27833 1.165 " transform="matrix(600,0,0,-600,-496.997988,1415)"/>
<path style="fill:none;stroke-width:0.06;stroke-linecap:round;stroke-linejoin:miter;stroke:rgb(0%,0%,0%);stroke-opacity:1;stroke-miterlimit:10;" d="M 1.03833 1.165 L 0.97833 1.165 " transform="matrix(600,0,0,-600,-496.997988,1415)"/>
<path style="fill:none;stroke-width:0.06;stroke-linecap:round;stroke-linejoin:miter;stroke:rgb(0%,0%,0%);stroke-opacity:1;stroke-miterlimit:10;" d="M 0.97833 1.065 L 1.03833 1.065 " transform="matrix(600,0,0,-600,-496.997988,1415)"/>
<path style="fill:none;stroke-width:0.032;stroke-linecap:round;stroke-linejoin:miter;stroke:rgb(0%,0%,0%);stroke-opacity:1;stroke-miterlimit:10;" d="M 1.28333 1.415 L 1.74583 1.415 " transform="matrix(600,0,0,-600,-496.997988,1415)"/>
<path style=" stroke:none;fill-rule:evenodd;fill:rgb(0%,0%,0%);fill-opacity:1;" d="M 527.699219 588.800781 L 573.300781 588.800781 L 573.300781 543.199219 L 527.699219 543.199219 Z M 527.699219 588.800781 "/>
<path style=" stroke:none;fill-rule:evenodd;fill:rgb(0%,0%,0%);fill-opacity:1;" d="M 332.699219 543.800781 L 378.300781 543.800781 L 378.300781 498.199219 L 332.699219 498.199219 Z M 332.699219 543.800781 "/>
<path style=" stroke:none;fill-rule:evenodd;fill:rgb(0%,0%,0%);fill-opacity:1;" d="M 250.199219 588.800781 L 295.800781 588.800781 L 295.800781 543.199219 L 250.199219 543.199219 Z M 250.199219 588.800781 "/>
<path style=" stroke:none;fill-rule:evenodd;fill:rgb(0%,0%,0%);fill-opacity:1;" d="M 820.199219 543.800781 L 865.800781 543.800781 L 865.800781 498.199219 L 820.199219 498.199219 Z M 820.199219 543.800781 "/>
<path style="fill:none;stroke-width:0.04;stroke-linecap:round;stroke-linejoin:miter;stroke:rgb(0%,0%,0%);stroke-opacity:1;stroke-miterlimit:10;" d="M 2.23333 1.49 L 1.42083 1.49 " transform="matrix(600,0,0,-600,-496.997988,1415)"/>
<path style=" stroke:none;fill-rule:evenodd;fill:rgb(100%,100%,100%);fill-opacity:1;" d="M 343.78125 1106 C 343.78125 1099.601562 334.183594 1099.601562 334.183594 1106 C 334.183594 1112.398438 343.78125 1112.398438 343.78125 1106 "/>
<path style=" stroke:none;fill-rule:evenodd;fill:rgb(100%,100%,100%);fill-opacity:1;" d="M 565.78125 1106 C 565.78125 1099.601562 556.183594 1099.601562 556.183594 1106 C 556.183594 1112.398438 565.78125 1112.398438 565.78125 1106 "/>
<path style=" stroke:none;fill-rule:evenodd;fill:rgb(100%,100%,100%);fill-opacity:1;" d="M 682.78125 1145 C 682.78125 1138.601562 673.183594 1138.601562 673.183594 1145 C 673.183594 1151.398438 682.78125 1151.398438 682.78125 1145 "/>
<path style=" stroke:none;fill-rule:evenodd;fill:rgb(100%,100%,100%);fill-opacity:1;" d="M 682.78125 923 C 682.78125 916.601562 673.183594 916.601562 673.183594 923 C 673.183594 929.398438 682.78125 929.398438 682.78125 923 "/>
<path style=" stroke:none;fill-rule:evenodd;fill:rgb(100%,100%,100%);fill-opacity:1;" d="M 757.78125 837.5 C 757.78125 831.101562 748.183594 831.101562 748.183594 837.5 C 748.183594 843.898438 757.78125 843.898438 757.78125 837.5 "/>
<path style=" stroke:none;fill-rule:evenodd;fill:rgb(100%,100%,100%);fill-opacity:1;" d="M 757.78125 615.5 C 757.78125 609.101562 748.183594 609.101562 748.183594 615.5 C 748.183594 621.898438 757.78125 621.898438 757.78125 615.5 "/>
<path style=" stroke:none;fill-rule:evenodd;fill:rgb(100%,100%,100%);fill-opacity:1;" d="M 758.742188 416 C 758.742188 409.601562 749.140625 409.601562 749.140625 416 C 749.140625 422.398438 758.742188 422.398438 758.742188 416 "/>
<path style=" stroke:none;fill-rule:evenodd;fill:rgb(100%,100%,100%);fill-opacity:1;" d="M 678.402344 416 C 678.402344 409.601562 668.800781 409.601562 668.800781 416 C 668.800781 422.398438 678.402344 422.398438 678.402344 416 "/>
<path style=" stroke:none;fill-rule:evenodd;fill:rgb(100%,100%,100%);fill-opacity:1;" d="M 598.121094 416 C 598.121094 409.601562 588.523438 409.601562 588.523438 416 C 588.523438 422.398438 598.121094 422.398438 598.121094 416 "/>
<path style=" stroke:none;fill-rule:evenodd;fill:rgb(100%,100%,100%);fill-opacity:1;" d="M 517.78125 416 C 517.78125 409.601562 508.183594 409.601562 508.183594 416 C 508.183594 422.398438 517.78125 422.398438 517.78125 416 "/>
<path style=" stroke:none;fill-rule:evenodd;fill:rgb(100%,100%,100%);fill-opacity:1;" d="M 437.503906 416 C 437.503906 409.601562 427.902344 409.601562 427.902344 416 C 427.902344 422.398438 437.503906 422.398438 437.503906 416 "/>
<path style=" stroke:none;fill-rule:evenodd;fill:rgb(100%,100%,100%);fill-opacity:1;" d="M 357.160156 416 C 357.160156 409.601562 347.5625 409.601562 347.5625 416 C 347.5625 422.398438 357.160156 422.398438 357.160156 416 "/>
<path style=" stroke:none;fill-rule:evenodd;fill:rgb(100%,100%,100%);fill-opacity:1;" d="M 276.882812 416 C 276.882812 409.601562 267.28125 409.601562 267.28125 416 C 267.28125 422.398438 276.882812 422.398438 276.882812 416 "/>
<path style=" stroke:none;fill-rule:evenodd;fill:rgb(100%,100%,100%);fill-opacity:1;" d="M 317.023438 296 C 317.023438 289.601562 307.421875 289.601562 307.421875 296 C 307.421875 302.398438 317.023438 302.398438 317.023438 296 "/>
<path style=" stroke:none;fill-rule:evenodd;fill:rgb(100%,100%,100%);fill-opacity:1;" d="M 397.300781 296 C 397.300781 289.601562 387.703125 289.601562 387.703125 296 C 387.703125 302.398438 397.300781 302.398438 397.300781 296 "/>
<path style=" stroke:none;fill-rule:evenodd;fill:rgb(100%,100%,100%);fill-opacity:1;" d="M 477.640625 296 C 477.640625 289.601562 468.042969 289.601562 468.042969 296 C 468.042969 302.398438 477.640625 302.398438 477.640625 296 "/>
<path style=" stroke:none;fill-rule:evenodd;fill:rgb(100%,100%,100%);fill-opacity:1;" d="M 557.980469 296 C 557.980469 289.601562 548.382812 289.601562 548.382812 296 C 548.382812 302.398438 557.980469 302.398438 557.980469 296 "/>
<path style=" stroke:none;fill-rule:evenodd;fill:rgb(100%,100%,100%);fill-opacity:1;" d="M 638.261719 296 C 638.261719 289.601562 628.660156 289.601562 628.660156 296 C 628.660156 302.398438 638.261719 302.398438 638.261719 296 "/>
<path style=" stroke:none;fill-rule:evenodd;fill:rgb(100%,100%,100%);fill-opacity:1;" d="M 718.601562 296 C 718.601562 289.601562 709.003906 289.601562 709.003906 296 C 709.003906 302.398438 718.601562 302.398438 718.601562 296 "/>
<path style=" stroke:none;fill-rule:evenodd;fill:rgb(100%,100%,100%);fill-opacity:1;" d="M 285.28125 1256 C 285.28125 1249.601562 275.683594 1249.601562 275.683594 1256 C 275.683594 1262.398438 285.28125 1262.398438 285.28125 1256 "/>
<path style=" stroke:none;fill-rule:evenodd;fill:rgb(100%,100%,100%);fill-opacity:1;" d="M 345.28125 1256 C 345.28125 1249.601562 335.683594 1249.601562 335.683594 1256 C 335.683594 1262.398438 345.28125 1262.398438 345.28125 1256 "/>
<path style=" stroke:none;fill-rule:evenodd;fill:rgb(100%,100%,100%);fill-opacity:1;" d="M 637.78125 1256 C 637.78125 1249.601562 628.183594 1249.601562 628.183594 1256 C 628.183594 1262.398438 637.78125 1262.398438 637.78125 1256 "/>
<path style=" stroke:none;fill-rule:evenodd;fill:rgb(100%,100%,100%);fill-opacity:1;" d="M 697.78125 1256 C 697.78125 1249.601562 688.183594 1249.601562 688.183594 1256 C 688.183594 1262.398438 697.78125 1262.398438 697.78125 1256 "/>
<path style=" stroke:none;fill-rule:evenodd;fill:rgb(100%,100%,100%);fill-opacity:1;" d="M 757.78125 1256 C 757.78125 1249.601562 748.183594 1249.601562 748.183594 1256 C 748.183594 1262.398438 757.78125 1262.398438 757.78125 1256 "/>
<path style=" stroke:none;fill-rule:evenodd;fill:rgb(100%,100%,100%);fill-opacity:1;" d="M 517.78125 836 C 517.78125 829.601562 508.183594 829.601562 508.183594 836 C 508.183594 842.398438 517.78125 842.398438 517.78125 836 "/>
<path style=" stroke:none;fill-rule:evenodd;fill:rgb(100%,100%,100%);fill-opacity:1;" d="M 337.78125 836 C 337.78125 829.601562 328.183594 829.601562 328.183594 836 C 328.183594 842.398438 337.78125 842.398438 337.78125 836 "/>
<path style=" stroke:none;fill-rule:evenodd;fill:rgb(100%,100%,100%);fill-opacity:1;" d="M 112.78125 776 C 112.78125 769.601562 103.183594 769.601562 103.183594 776 C 103.183594 782.398438 112.78125 782.398438 112.78125 776 "/>
<path style=" stroke:none;fill-rule:evenodd;fill:rgb(100%,100%,100%);fill-opacity:1;" d="M 112.78125 716 C 112.78125 709.601562 103.183594 709.601562 103.183594 716 C 103.183594 722.398438 112.78125 722.398438 112.78125 716 "/>
<path style=" stroke:none;fill-rule:evenodd;fill:rgb(100%,100%,100%);fill-opacity:1;" d="M 277.78125 566 C 277.78125 559.601562 268.183594 559.601562 268.183594 566 C 268.183594 572.398438 277.78125 572.398438 277.78125 566 "/>
<path style=" stroke:none;fill-rule:evenodd;fill:rgb(100%,100%,100%);fill-opacity:1;" d="M 360.28125 521 C 360.28125 514.601562 350.683594 514.601562 350.683594 521 C 350.683594 527.398438 360.28125 527.398438 360.28125 521 "/>
<path style=" stroke:none;fill-rule:evenodd;fill:rgb(100%,100%,100%);fill-opacity:1;" d="M 555.28125 566 C 555.28125 559.601562 545.683594 559.601562 545.683594 566 C 545.683594 572.398438 555.28125 572.398438 555.28125 566 "/>
<path style=" stroke:none;fill-rule:evenodd;fill:rgb(100%,100%,100%);fill-opacity:1;" d="M 847.78125 521 C 847.78125 514.601562 838.183594 514.601562 838.183594 521 C 838.183594 527.398438 847.78125 527.398438 847.78125 521 "/>
<path style=" stroke:none;fill-rule:evenodd;fill:rgb(100%,100%,100%);fill-opacity:1;" d="M 892.78125 716 C 892.78125 709.601562 883.183594 709.601562 883.183594 716 C 883.183594 722.398438 892.78125 722.398438 892.78125 716 "/>
<path style=" stroke:none;fill-rule:evenodd;fill:rgb(100%,100%,100%);fill-opacity:1;" d="M 892.78125 776 C 892.78125 769.601562 883.183594 769.601562 883.183594 776 C 883.183594 782.398438 892.78125 782.398438 892.78125 776 "/>
</g>
</svg>
