<?xml version="1.0" encoding="UTF-8"?>
<svg xmlns="http://www.w3.org/2000/svg" xmlns:xlink="http://www.w3.org/1999/xlink" width="1558pt" height="1191pt" viewBox="0 0 1558 1191" version="1.1">
<g id="surface1">
<path style="fill:none;stroke-width:0.01;stroke-linecap:round;stroke-linejoin:miter;stroke:rgb(0%,0%,0%);stroke-opacity:1;stroke-miterlimit:10;" d="M 0.78333 0.015 L 0.78333 1.864609 " transform="matrix(600,0,0,-600,-466.998017,1197)"/>
<path style="fill:none;stroke-width:0.01;stroke-linecap:round;stroke-linejoin:miter;stroke:rgb(0%,0%,0%);stroke-opacity:1;stroke-miterlimit:10;" d="M 0.78333 1.864609 L 3.370342 1.864609 " transform="matrix(600,0,0,-600,-466.998017,1197)"/>
<path style="fill:none;stroke-width:0.01;stroke-linecap:round;stroke-linejoin:miter;stroke:rgb(0%,0%,0%);stroke-opacity:1;stroke-miterlimit:10;" d="M 3.370342 1.864609 L 3.370342 0.015 " transform="matrix(600,0,0,-600,-466.998017,1197)"/>
<path style="fill:none;stroke-width:0.01;stroke-linecap:round;stroke-linejoin:miter;stroke:rgb(0%,0%,0%);stroke-opacity:1;stroke-miterlimit:10;" d="M 3.370342 0.015 L 0.78333 0.015 " transform="matrix(600,0,0,-600,-466.998017,1197)"/>
<path style="fill:none;stroke-width:0.00512;stroke-linecap:round;stroke-linejoin:miter;stroke:rgb(0%,0%,0%);stroke-opacity:1;stroke-miterlimit:10;" d="M 0.78333 1.864609 L 0.78333 1.991771 " transform="matrix(600,0,0,-600,-466.998017,1197)"/>
<path style="fill:none;stroke-width:0.00512;stroke-linecap:round;stroke-linejoin:miter;stroke:rgb(0%,0%,0%);stroke-opacity:1;stroke-miterlimit:10;" d="M 0.785889 1.915 L 0.8857 1.904759 " transform="matrix(600,0,0,-600,-466.998017,1197)"/>
<path style="fill:none;stroke-width:0.00512;stroke-linecap:round;stroke-linejoin:miter;stroke:rgb(0%,0%,0%);stroke-opacity:1;stroke-miterlimit:10;" d="M 0.8857 1.902428 L 0.785889 1.915 " transform="matrix(600,0,0,-600,-466.998017,1197)"/>
<path style="fill:none;stroke-width:0.00512;stroke-linecap:round;stroke-linejoin:miter;stroke:rgb(0%,0%,0%);stroke-opacity:1;stroke-miterlimit:10;" d="M 0.785889 1.915 L 0.8857 1.925241 " transform="matrix(600,0,0,-600,-466.998017,1197)"/>
<path style="fill:none;stroke-width:0.00512;stroke-linecap:round;stroke-linejoin:miter;stroke:rgb(0%,0%,0%);stroke-opacity:1;stroke-miterlimit:10;" d="M 0.8857 1.927572 L 0.8857 1.902428 " transform="matrix(600,0,0,-600,-466.998017,1197)"/>
<path style="fill:none;stroke-width:0.00512;stroke-linecap:round;stroke-linejoin:miter;stroke:rgb(0%,0%,0%);stroke-opacity:1;stroke-miterlimit:10;" d="M 0.8857 1.909883 L 0.785889 1.915 " transform="matrix(600,0,0,-600,-466.998017,1197)"/>
<path style="fill:none;stroke-width:0.00512;stroke-linecap:round;stroke-linejoin:miter;stroke:rgb(0%,0%,0%);stroke-opacity:1;stroke-miterlimit:10;" d="M 0.785889 1.915 L 0.8857 1.920117 " transform="matrix(600,0,0,-600,-466.998017,1197)"/>
<path style="fill:none;stroke-width:0.00512;stroke-linecap:round;stroke-linejoin:miter;stroke:rgb(0%,0%,0%);stroke-opacity:1;stroke-miterlimit:10;" d="M 0.8857 1.927572 L 0.785889 1.915 " transform="matrix(600,0,0,-600,-466.998017,1197)"/>
<path style="fill:none;stroke-width:0.00512;stroke-linecap:round;stroke-linejoin:miter;stroke:rgb(0%,0%,0%);stroke-opacity:1;stroke-miterlimit:10;" d="M 0.785889 1.915 L 3.367783 1.915 " transform="matrix(600,0,0,-600,-466.998017,1197)"/>
<path style="fill:none;stroke-width:0.00512;stroke-linecap:round;stroke-linejoin:miter;stroke:rgb(0%,0%,0%);stroke-opacity:1;stroke-miterlimit:10;" d="M 3.367783 1.915 L 3.267978 1.904759 " transform="matrix(600,0,0,-600,-466.998017,1197)"/>
<path style="fill:none;stroke-width:0.00512;stroke-linecap:round;stroke-linejoin:miter;stroke:rgb(0%,0%,0%);stroke-opacity:1;stroke-miterlimit:10;" d="M 3.267978 1.902428 L 3.367783 1.915 " transform="matrix(600,0,0,-600,-466.998017,1197)"/>
<path style="fill:none;stroke-width:0.00512;stroke-linecap:round;stroke-linejoin:miter;stroke:rgb(0%,0%,0%);stroke-opacity:1;stroke-miterlimit:10;" d="M 3.367783 1.915 L 3.267978 1.925241 " transform="matrix(600,0,0,-600,-466.998017,1197)"/>
<path style="fill:none;stroke-width:0.00512;stroke-linecap:round;stroke-linejoin:miter;stroke:rgb(0%,0%,0%);stroke-opacity:1;stroke-miterlimit:10;" d="M 3.267978 1.927572 L 3.267978 1.902428 " transform="matrix(600,0,0,-600,-466.998017,1197)"/>
<path style="fill:none;stroke-width:0.00512;stroke-linecap:round;stroke-linejoin:miter;stroke:rgb(0%,0%,0%);stroke-opacity:1;stroke-miterlimit:10;" d="M 3.267978 1.909883 L 3.367783 1.915 " transform="matrix(600,0,0,-600,-466.998017,1197)"/>
<path style="fill:none;stroke-width:0.00512;stroke-linecap:round;stroke-linejoin:miter;stroke:rgb(0%,0%,0%);stroke-opacity:1;stroke-miterlimit:10;" d="M 3.367783 1.915 L 3.267978 1.920117 " transform="matrix(600,0,0,-600,-466.998017,1197)"/>
<path style="fill:none;stroke-width:0.00512;stroke-linecap:round;stroke-linejoin:miter;stroke:rgb(0%,0%,0%);stroke-opacity:1;stroke-miterlimit:10;" d="M 3.267978 1.927572 L 3.367783 1.915 " transform="matrix(600,0,0,-600,-466.998017,1197)"/>
<path style="fill:none;stroke-width:0.00512;stroke-linecap:round;stroke-linejoin:miter;stroke:rgb(0%,0%,0%);stroke-opacity:1;stroke-miterlimit:10;" d="M 3.370342 1.864609 L 3.370342 1.991771 " transform="matrix(600,0,0,-600,-466.998017,1197)"/>
<path style="fill:none;stroke-width:0.008;stroke-linecap:round;stroke-linejoin:miter;stroke:rgb(0%,0%,0%);stroke-opacity:1;stroke-miterlimit:10;" d="M 2.177829 1.936621 L 2.149808 1.936621 " transform="matrix(600,0,0,-600,-466.998017,1197)"/>
<path style="fill:none;stroke-width:0.008;stroke-linecap:round;stroke-linejoin:miter;stroke:rgb(0%,0%,0%);stroke-opacity:1;stroke-miterlimit:10;" d="M 2.163818 1.936621 L 2.163818 1.978652 " transform="matrix(600,0,0,-600,-466.998017,1197)"/>
<path style="fill:none;stroke-width:0.008;stroke-linecap:round;stroke-linejoin:miter;stroke:rgb(0%,0%,0%);stroke-opacity:1;stroke-miterlimit:10;" d="M 2.163818 1.978652 L 2.149808 1.964642 " transform="matrix(600,0,0,-600,-466.998017,1197)"/>
<path style="fill:none;stroke-width:0.008;stroke-linecap:round;stroke-linejoin:miter;stroke:rgb(0%,0%,0%);stroke-opacity:1;stroke-miterlimit:10;" d="M 2.131787 1.971647 L 2.103773 1.94362 " transform="matrix(600,0,0,-600,-466.998017,1197)"/>
<path style="fill:none;stroke-width:0.008;stroke-linecap:round;stroke-linejoin:miter;stroke:rgb(0%,0%,0%);stroke-opacity:1;stroke-miterlimit:10;" d="M 2.103773 1.94362 L 2.103773 1.936621 " transform="matrix(600,0,0,-600,-466.998017,1197)"/>
<path style="fill:none;stroke-width:0.008;stroke-linecap:round;stroke-linejoin:miter;stroke:rgb(0%,0%,0%);stroke-opacity:1;stroke-miterlimit:10;" d="M 2.087757 1.936621 L 2.080752 1.936621 " transform="matrix(600,0,0,-600,-466.998017,1197)"/>
<path style="fill:none;stroke-width:0.008;stroke-linecap:round;stroke-linejoin:miter;stroke:rgb(0%,0%,0%);stroke-opacity:1;stroke-miterlimit:10;" d="M 2.080752 1.936621 L 2.080752 1.94362 " transform="matrix(600,0,0,-600,-466.998017,1197)"/>
<path style="fill:none;stroke-width:0.008;stroke-linecap:round;stroke-linejoin:miter;stroke:rgb(0%,0%,0%);stroke-opacity:1;stroke-miterlimit:10;" d="M 2.080752 1.94362 L 2.087757 1.94362 " transform="matrix(600,0,0,-600,-466.998017,1197)"/>
<path style="fill:none;stroke-width:0.008;stroke-linecap:round;stroke-linejoin:miter;stroke:rgb(0%,0%,0%);stroke-opacity:1;stroke-miterlimit:10;" d="M 2.087757 1.94362 L 2.087757 1.936621 " transform="matrix(600,0,0,-600,-466.998017,1197)"/>
<path style="fill:none;stroke-width:0.008;stroke-linecap:round;stroke-linejoin:miter;stroke:rgb(0%,0%,0%);stroke-opacity:1;stroke-miterlimit:10;" d="M 2.062731 1.94362 L 2.062731 1.957643 " transform="matrix(600,0,0,-600,-466.998017,1197)"/>
<path style="fill:none;stroke-width:0.008;stroke-linecap:round;stroke-linejoin:miter;stroke:rgb(0%,0%,0%);stroke-opacity:1;stroke-miterlimit:10;" d="M 2.062731 1.957643 L 2.055732 1.964642 " transform="matrix(600,0,0,-600,-466.998017,1197)"/>
<path style="fill:none;stroke-width:0.008;stroke-linecap:round;stroke-linejoin:miter;stroke:rgb(0%,0%,0%);stroke-opacity:1;stroke-miterlimit:10;" d="M 2.055732 1.964642 L 2.048721 1.964642 " transform="matrix(600,0,0,-600,-466.998017,1197)"/>
<path style="fill:none;stroke-width:0.008;stroke-linecap:round;stroke-linejoin:miter;stroke:rgb(0%,0%,0%);stroke-opacity:1;stroke-miterlimit:10;" d="M 2.048721 1.964642 L 2.03471 1.957643 " transform="matrix(600,0,0,-600,-466.998017,1197)"/>
<path style="fill:none;stroke-width:0.008;stroke-linecap:round;stroke-linejoin:miter;stroke:rgb(0%,0%,0%);stroke-opacity:1;stroke-miterlimit:10;" d="M 2.03471 1.957643 L 2.03471 1.978652 " transform="matrix(600,0,0,-600,-466.998017,1197)"/>
<path style="fill:none;stroke-width:0.008;stroke-linecap:round;stroke-linejoin:miter;stroke:rgb(0%,0%,0%);stroke-opacity:1;stroke-miterlimit:10;" d="M 2.03471 1.978652 L 2.062731 1.978652 " transform="matrix(600,0,0,-600,-466.998017,1197)"/>
<path style="fill:none;stroke-width:0.008;stroke-linecap:round;stroke-linejoin:miter;stroke:rgb(0%,0%,0%);stroke-opacity:1;stroke-miterlimit:10;" d="M 2.103773 1.978652 L 2.131787 1.978652 " transform="matrix(600,0,0,-600,-466.998017,1197)"/>
<path style="fill:none;stroke-width:0.008;stroke-linecap:round;stroke-linejoin:miter;stroke:rgb(0%,0%,0%);stroke-opacity:1;stroke-miterlimit:10;" d="M 2.131787 1.978652 L 2.131787 1.971647 " transform="matrix(600,0,0,-600,-466.998017,1197)"/>
<path style="fill:none;stroke-width:0.008;stroke-linecap:round;stroke-linejoin:miter;stroke:rgb(0%,0%,0%);stroke-opacity:1;stroke-miterlimit:10;" d="M 2.062731 1.94362 L 2.055732 1.936621 " transform="matrix(600,0,0,-600,-466.998017,1197)"/>
<path style="fill:none;stroke-width:0.008;stroke-linecap:round;stroke-linejoin:miter;stroke:rgb(0%,0%,0%);stroke-opacity:1;stroke-miterlimit:10;" d="M 2.055732 1.936621 L 2.041722 1.936621 " transform="matrix(600,0,0,-600,-466.998017,1197)"/>
<path style="fill:none;stroke-width:0.008;stroke-linecap:round;stroke-linejoin:miter;stroke:rgb(0%,0%,0%);stroke-opacity:1;stroke-miterlimit:10;" d="M 2.041722 1.936621 L 2.03471 1.94362 " transform="matrix(600,0,0,-600,-466.998017,1197)"/>
<path style="fill:none;stroke-width:0.008;stroke-linecap:round;stroke-linejoin:miter;stroke:rgb(0%,0%,0%);stroke-opacity:1;stroke-miterlimit:10;" d="M 2.016689 1.94362 L 2.016689 1.950632 " transform="matrix(600,0,0,-600,-466.998017,1197)"/>
<path style="fill:none;stroke-width:0.008;stroke-linecap:round;stroke-linejoin:miter;stroke:rgb(0%,0%,0%);stroke-opacity:1;stroke-miterlimit:10;" d="M 2.016689 1.950632 L 2.009691 1.957643 " transform="matrix(600,0,0,-600,-466.998017,1197)"/>
<path style="fill:none;stroke-width:0.008;stroke-linecap:round;stroke-linejoin:miter;stroke:rgb(0%,0%,0%);stroke-opacity:1;stroke-miterlimit:10;" d="M 2.009691 1.957643 L 1.988669 1.957643 " transform="matrix(600,0,0,-600,-466.998017,1197)"/>
<path style="fill:none;stroke-width:0.008;stroke-linecap:round;stroke-linejoin:miter;stroke:rgb(0%,0%,0%);stroke-opacity:1;stroke-miterlimit:10;" d="M 1.988669 1.957643 L 1.988669 1.94362 " transform="matrix(600,0,0,-600,-466.998017,1197)"/>
<path style="fill:none;stroke-width:0.008;stroke-linecap:round;stroke-linejoin:miter;stroke:rgb(0%,0%,0%);stroke-opacity:1;stroke-miterlimit:10;" d="M 1.988669 1.94362 L 1.99568 1.936621 " transform="matrix(600,0,0,-600,-466.998017,1197)"/>
<path style="fill:none;stroke-width:0.008;stroke-linecap:round;stroke-linejoin:miter;stroke:rgb(0%,0%,0%);stroke-opacity:1;stroke-miterlimit:10;" d="M 1.99568 1.936621 L 2.009691 1.936621 " transform="matrix(600,0,0,-600,-466.998017,1197)"/>
<path style="fill:none;stroke-width:0.008;stroke-linecap:round;stroke-linejoin:miter;stroke:rgb(0%,0%,0%);stroke-opacity:1;stroke-miterlimit:10;" d="M 2.009691 1.936621 L 2.016689 1.94362 " transform="matrix(600,0,0,-600,-466.998017,1197)"/>
<path style="fill:none;stroke-width:0.008;stroke-linecap:round;stroke-linejoin:miter;stroke:rgb(0%,0%,0%);stroke-opacity:1;stroke-miterlimit:10;" d="M 2.002679 1.971647 L 1.988669 1.957643 " transform="matrix(600,0,0,-600,-466.998017,1197)"/>
<path style="fill:none;stroke-width:0.008;stroke-linecap:round;stroke-linejoin:miter;stroke:rgb(0%,0%,0%);stroke-opacity:1;stroke-miterlimit:10;" d="M 2.002679 1.971647 L 2.016689 1.978652 " transform="matrix(600,0,0,-600,-466.998017,1197)"/>
<path style="fill:none;stroke-width:0.06;stroke-linecap:round;stroke-linejoin:miter;stroke:rgb(0%,0%,0%);stroke-opacity:1;stroke-miterlimit:10;" d="M 1.00333 0.765 L 1.06333 0.765 " transform="matrix(600,0,0,-600,-466.998017,1197)"/>
<path style="fill:none;stroke-width:0.06;stroke-linecap:round;stroke-linejoin:miter;stroke:rgb(0%,0%,0%);stroke-opacity:1;stroke-miterlimit:10;" d="M 1.06333 0.865 L 1.00333 0.865 " transform="matrix(600,0,0,-600,-466.998017,1197)"/>
<path style="fill:none;stroke-width:0.06;stroke-linecap:round;stroke-linejoin:miter;stroke:rgb(0%,0%,0%);stroke-opacity:1;stroke-miterlimit:10;" d="M 1.58333 1.46 L 1.58333 1.52 " transform="matrix(600,0,0,-600,-466.998017,1197)"/>
<path style="fill:none;stroke-width:0.06;stroke-linecap:round;stroke-linejoin:miter;stroke:rgb(0%,0%,0%);stroke-opacity:1;stroke-miterlimit:10;" d="M 1.65833 1.61 L 1.65833 1.67 " transform="matrix(600,0,0,-600,-466.998017,1197)"/>
<path style="fill:none;stroke-width:0.06;stroke-linecap:round;stroke-linejoin:miter;stroke:rgb(0%,0%,0%);stroke-opacity:1;stroke-miterlimit:10;" d="M 1.80833 1.67 L 1.80833 1.61 " transform="matrix(600,0,0,-600,-466.998017,1197)"/>
<path style="fill:none;stroke-width:0.06;stroke-linecap:round;stroke-linejoin:miter;stroke:rgb(0%,0%,0%);stroke-opacity:1;stroke-miterlimit:10;" d="M 1.73333 1.52 L 1.73333 1.46 " transform="matrix(600,0,0,-600,-466.998017,1197)"/>
<path style="fill:none;stroke-width:0.06;stroke-linecap:round;stroke-linejoin:miter;stroke:rgb(0%,0%,0%);stroke-opacity:1;stroke-miterlimit:10;" d="M 1.88333 1.46 L 1.88333 1.52 " transform="matrix(600,0,0,-600,-466.998017,1197)"/>
<path style="fill:none;stroke-width:0.06;stroke-linecap:round;stroke-linejoin:miter;stroke:rgb(0%,0%,0%);stroke-opacity:1;stroke-miterlimit:10;" d="M 2.70333 0.915 L 2.76333 0.915 " transform="matrix(600,0,0,-600,-466.998017,1197)"/>
<path style="fill:none;stroke-width:0.06;stroke-linecap:round;stroke-linejoin:miter;stroke:rgb(0%,0%,0%);stroke-opacity:1;stroke-miterlimit:10;" d="M 2.76333 0.815 L 2.70333 0.815 " transform="matrix(600,0,0,-600,-466.998017,1197)"/>
<path style="fill:none;stroke-width:0.06;stroke-linecap:round;stroke-linejoin:miter;stroke:rgb(0%,0%,0%);stroke-opacity:1;stroke-miterlimit:10;" d="M 1.88333 0.295 L 1.88333 0.235 " transform="matrix(600,0,0,-600,-466.998017,1197)"/>
<path style="fill:none;stroke-width:0.06;stroke-linecap:round;stroke-linejoin:miter;stroke:rgb(0%,0%,0%);stroke-opacity:1;stroke-miterlimit:10;" d="M 1.78333 0.235 L 1.78333 0.295 " transform="matrix(600,0,0,-600,-466.998017,1197)"/>
<path style="fill:none;stroke-width:0.06;stroke-linecap:round;stroke-linejoin:miter;stroke:rgb(0%,0%,0%);stroke-opacity:1;stroke-miterlimit:10;" d="M 1.68333 0.295 L 1.68333 0.235 " transform="matrix(600,0,0,-600,-466.998017,1197)"/>
<path style=" stroke:none;fill-rule:evenodd;fill:rgb(0%,0%,0%);fill-opacity:1;" d="M 955.5 882 C 955.5 852 910.5 852 910.5 882 C 910.5 912 955.5 912 955.5 882 "/>
<path style=" stroke:none;fill-rule:evenodd;fill:rgb(0%,0%,0%);fill-opacity:1;" d="M 955.5 660 C 955.5 630 910.5 630 910.5 660 C 910.5 690 955.5 690 955.5 660 "/>
<path style=" stroke:none;fill-rule:evenodd;fill:rgb(0%,0%,0%);fill-opacity:1;" d="M 403.5 468 C 403.5 438 358.5 438 358.5 468 C 358.5 498 403.5 498 403.5 468 "/>
<path style=" stroke:none;fill-rule:evenodd;fill:rgb(0%,0%,0%);fill-opacity:1;" d="M 181.5 468 C 181.5 438 136.5 438 136.5 468 C 136.5 498 181.5 498 181.5 468 "/>
<path style=" stroke:none;fill-rule:evenodd;fill:rgb(0%,0%,0%);fill-opacity:1;" d="M 443.449219 678 C 443.449219 652 404.449219 652 404.449219 678 C 404.449219 704 443.449219 704 443.449219 678 "/>
<path style=" stroke:none;fill-rule:evenodd;fill:rgb(0%,0%,0%);fill-opacity:1;" d="M 561.558594 678 C 561.558594 652 522.558594 652 522.558594 678 C 522.558594 704 561.558594 704 561.558594 678 "/>
<path style=" stroke:none;fill-rule:evenodd;fill:rgb(0%,0%,0%);fill-opacity:1;" d="M 713.449219 678 C 713.449219 652 674.449219 652 674.449219 678 C 674.449219 704 713.449219 704 713.449219 678 "/>
<path style=" stroke:none;fill-rule:evenodd;fill:rgb(0%,0%,0%);fill-opacity:1;" d="M 831.558594 678 C 831.558594 652 792.558594 652 792.558594 678 C 792.558594 704 831.558594 704 831.558594 678 "/>
<path style=" stroke:none;fill-rule:evenodd;fill:rgb(0%,0%,0%);fill-opacity:1;" d="M 802.5 828 C 802.5 802 763.5 802 763.5 828 C 763.5 854 802.5 854 802.5 828 "/>
<path style=" stroke:none;fill-rule:evenodd;fill:rgb(0%,0%,0%);fill-opacity:1;" d="M 532.5 828 C 532.5 802 493.5 802 493.5 828 C 493.5 854 532.5 854 532.5 828 "/>
<path style=" stroke:none;fill-rule:evenodd;fill:rgb(0%,0%,0%);fill-opacity:1;" d="M 1282.5 438 C 1282.5 412 1243.5 412 1243.5 438 C 1243.5 464 1282.5 464 1282.5 438 "/>
<path style=" stroke:none;fill-rule:evenodd;fill:rgb(0%,0%,0%);fill-opacity:1;" d="M 1243.5 397.5 L 1282.5 397.5 L 1282.5 358.5 L 1243.5 358.5 Z M 1243.5 397.5 "/>
<path style=" stroke:none;fill-rule:evenodd;fill:rgb(0%,0%,0%);fill-opacity:1;" d="M 703.5 847.5 L 742.5 847.5 L 742.5 808.5 L 703.5 808.5 Z M 703.5 847.5 "/>
<path style=" stroke:none;fill-rule:evenodd;fill:rgb(0%,0%,0%);fill-opacity:1;" d="M 433.5 847.5 L 472.5 847.5 L 472.5 808.5 L 433.5 808.5 Z M 433.5 847.5 "/>
<path style=" stroke:none;fill-rule:evenodd;fill:rgb(0%,0%,0%);fill-opacity:1;" d="M 805.800781 498 C 805.800781 467.601562 760.199219 467.601562 760.199219 498 C 760.199219 528.398438 805.800781 528.398438 805.800781 498 "/>
<path style=" stroke:none;fill-rule:evenodd;fill:rgb(0%,0%,0%);fill-opacity:1;" d="M 895.800781 498 C 895.800781 467.601562 850.199219 467.601562 850.199219 498 C 850.199219 528.398438 895.800781 528.398438 895.800781 498 "/>
<path style=" stroke:none;fill-rule:evenodd;fill:rgb(0%,0%,0%);fill-opacity:1;" d="M 895.800781 258 C 895.800781 227.601562 850.199219 227.601562 850.199219 258 C 850.199219 288.398438 895.800781 288.398438 895.800781 258 "/>
<path style=" stroke:none;fill-rule:evenodd;fill:rgb(0%,0%,0%);fill-opacity:1;" d="M 805.800781 258 C 805.800781 227.601562 760.199219 227.601562 760.199219 258 C 760.199219 288.398438 805.800781 288.398438 805.800781 258 "/>
<path style=" stroke:none;fill-rule:evenodd;fill:rgb(0%,0%,0%);fill-opacity:1;" d="M 805.199219 168 C 805.199219 138.398438 760.800781 138.398438 760.800781 168 C 760.800781 197.601562 805.199219 197.601562 805.199219 168 "/>
<path style=" stroke:none;fill-rule:evenodd;fill:rgb(0%,0%,0%);fill-opacity:1;" d="M 1045.199219 168 C 1045.199219 138.398438 1000.800781 138.398438 1000.800781 168 C 1000.800781 197.601562 1045.199219 197.601562 1045.199219 168 "/>
<path style=" stroke:none;fill-rule:evenodd;fill:rgb(0%,0%,0%);fill-opacity:1;" d="M 1135.199219 168 C 1135.199219 138.398438 1090.800781 138.398438 1090.800781 168 C 1090.800781 197.601562 1135.199219 197.601562 1135.199219 168 "/>
<path style=" stroke:none;fill-rule:evenodd;fill:rgb(0%,0%,0%);fill-opacity:1;" d="M 1135.199219 408 C 1135.199219 378.398438 1090.800781 378.398438 1090.800781 408 C 1090.800781 437.601562 1135.199219 437.601562 1135.199219 408 "/>
<path style=" stroke:none;fill-rule:evenodd;fill:rgb(0%,0%,0%);fill-opacity:1;" d="M 1075.199219 648 C 1075.199219 618.398438 1030.800781 618.398438 1030.800781 648 C 1030.800781 677.601562 1075.199219 677.601562 1075.199219 648 "/>
<path style=" stroke:none;fill-rule:evenodd;fill:rgb(0%,0%,0%);fill-opacity:1;" d="M 1075.199219 888 C 1075.199219 858.398438 1030.800781 858.398438 1030.800781 888 C 1030.800781 917.601562 1075.199219 917.601562 1075.199219 888 "/>
<path style=" stroke:none;fill-rule:evenodd;fill:rgb(0%,0%,0%);fill-opacity:1;" d="M 325.199219 828 C 325.199219 798.398438 280.800781 798.398438 280.800781 828 C 280.800781 857.601562 325.199219 857.601562 325.199219 828 "/>
<path style=" stroke:none;fill-rule:evenodd;fill:rgb(0%,0%,0%);fill-opacity:1;" d="M 325.199219 588 C 325.199219 558.398438 280.800781 558.398438 280.800781 588 C 280.800781 617.601562 325.199219 617.601562 325.199219 588 "/>
<path style=" stroke:none;fill-rule:evenodd;fill:rgb(100%,100%,100%);fill-opacity:1;" d="M 428.742188 678 C 428.742188 671.601562 419.140625 671.601562 419.140625 678 C 419.140625 684.398438 428.742188 684.398438 428.742188 678 "/>
<path style=" stroke:none;fill-rule:evenodd;fill:rgb(100%,100%,100%);fill-opacity:1;" d="M 546.882812 678 C 546.882812 671.601562 537.28125 671.601562 537.28125 678 C 537.28125 684.398438 546.882812 684.398438 546.882812 678 "/>
<path style=" stroke:none;fill-rule:evenodd;fill:rgb(100%,100%,100%);fill-opacity:1;" d="M 698.742188 678 C 698.742188 671.601562 689.140625 671.601562 689.140625 678 C 689.140625 684.398438 698.742188 684.398438 698.742188 678 "/>
<path style=" stroke:none;fill-rule:evenodd;fill:rgb(100%,100%,100%);fill-opacity:1;" d="M 816.882812 678 C 816.882812 671.601562 807.28125 671.601562 807.28125 678 C 807.28125 684.398438 816.882812 684.398438 816.882812 678 "/>
<path style=" stroke:none;fill-rule:evenodd;fill:rgb(100%,100%,100%);fill-opacity:1;" d="M 787.78125 828 C 787.78125 821.601562 778.183594 821.601562 778.183594 828 C 778.183594 834.398438 787.78125 834.398438 787.78125 828 "/>
<path style=" stroke:none;fill-rule:evenodd;fill:rgb(100%,100%,100%);fill-opacity:1;" d="M 727.78125 828 C 727.78125 821.601562 718.183594 821.601562 718.183594 828 C 718.183594 834.398438 727.78125 834.398438 727.78125 828 "/>
<path style=" stroke:none;fill-rule:evenodd;fill:rgb(100%,100%,100%);fill-opacity:1;" d="M 517.78125 828 C 517.78125 821.601562 508.183594 821.601562 508.183594 828 C 508.183594 834.398438 517.78125 834.398438 517.78125 828 "/>
<path style=" stroke:none;fill-rule:evenodd;fill:rgb(100%,100%,100%);fill-opacity:1;" d="M 457.78125 828 C 457.78125 821.601562 448.183594 821.601562 448.183594 828 C 448.183594 834.398438 457.78125 834.398438 457.78125 828 "/>
<path style=" stroke:none;fill-rule:evenodd;fill:rgb(100%,100%,100%);fill-opacity:1;" d="M 1267.78125 438 C 1267.78125 431.601562 1258.183594 431.601562 1258.183594 438 C 1258.183594 444.398438 1267.78125 444.398438 1267.78125 438 "/>
<path style=" stroke:none;fill-rule:evenodd;fill:rgb(100%,100%,100%);fill-opacity:1;" d="M 1267.78125 378 C 1267.78125 371.601562 1258.183594 371.601562 1258.183594 378 C 1258.183594 384.398438 1267.78125 384.398438 1267.78125 378 "/>
<path style=" stroke:none;fill-rule:evenodd;fill:rgb(100%,100%,100%);fill-opacity:1;" d="M 1117.78125 408 C 1117.78125 401.601562 1108.183594 401.601562 1108.183594 408 C 1108.183594 414.398438 1117.78125 414.398438 1117.78125 408 "/>
<path style=" stroke:none;fill-rule:evenodd;fill:rgb(100%,100%,100%);fill-opacity:1;" d="M 1117.78125 168 C 1117.78125 161.601562 1108.183594 161.601562 1108.183594 168 C 1108.183594 174.398438 1117.78125 174.398438 1117.78125 168 "/>
<path style=" stroke:none;fill-rule:evenodd;fill:rgb(100%,100%,100%);fill-opacity:1;" d="M 1027.78125 168 C 1027.78125 161.601562 1018.183594 161.601562 1018.183594 168 C 1018.183594 174.398438 1027.78125 174.398438 1027.78125 168 "/>
<path style=" stroke:none;fill-rule:evenodd;fill:rgb(100%,100%,100%);fill-opacity:1;" d="M 787.78125 168 C 787.78125 161.601562 778.183594 161.601562 778.183594 168 C 778.183594 174.398438 787.78125 174.398438 787.78125 168 "/>
<path style=" stroke:none;fill-rule:evenodd;fill:rgb(100%,100%,100%);fill-opacity:1;" d="M 385.78125 468 C 385.78125 461.601562 376.183594 461.601562 376.183594 468 C 376.183594 474.398438 385.78125 474.398438 385.78125 468 "/>
<path style=" stroke:none;fill-rule:evenodd;fill:rgb(100%,100%,100%);fill-opacity:1;" d="M 307.78125 588 C 307.78125 581.601562 298.183594 581.601562 298.183594 588 C 298.183594 594.398438 307.78125 594.398438 307.78125 588 "/>
<path style=" stroke:none;fill-rule:evenodd;fill:rgb(100%,100%,100%);fill-opacity:1;" d="M 163.78125 468 C 163.78125 461.601562 154.183594 461.601562 154.183594 468 C 154.183594 474.398438 163.78125 474.398438 163.78125 468 "/>
<path style=" stroke:none;fill-rule:evenodd;fill:rgb(100%,100%,100%);fill-opacity:1;" d="M 307.78125 828 C 307.78125 821.601562 298.183594 821.601562 298.183594 828 C 298.183594 834.398438 307.78125 834.398438 307.78125 828 "/>
<path style=" stroke:none;fill-rule:evenodd;fill:rgb(100%,100%,100%);fill-opacity:1;" d="M 937.78125 882 C 937.78125 875.601562 928.183594 875.601562 928.183594 882 C 928.183594 888.398438 937.78125 888.398438 937.78125 882 "/>
<path style=" stroke:none;fill-rule:evenodd;fill:rgb(100%,100%,100%);fill-opacity:1;" d="M 1057.78125 888 C 1057.78125 881.601562 1048.183594 881.601562 1048.183594 888 C 1048.183594 894.398438 1057.78125 894.398438 1057.78125 888 "/>
<path style=" stroke:none;fill-rule:evenodd;fill:rgb(100%,100%,100%);fill-opacity:1;" d="M 937.78125 660 C 937.78125 653.601562 928.183594 653.601562 928.183594 660 C 928.183594 666.398438 937.78125 666.398438 937.78125 660 "/>
<path style=" stroke:none;fill-rule:evenodd;fill:rgb(100%,100%,100%);fill-opacity:1;" d="M 1057.78125 648 C 1057.78125 641.601562 1048.183594 641.601562 1048.183594 648 C 1048.183594 654.398438 1057.78125 654.398438 1057.78125 648 "/>
<path style=" stroke:none;fill-rule:evenodd;fill:rgb(100%,100%,100%);fill-opacity:1;" d="M 1177.78125 648 C 1177.78125 641.601562 1168.183594 641.601562 1168.183594 648 C 1168.183594 654.398438 1177.78125 654.398438 1177.78125 648 "/>
<path style=" stroke:none;fill-rule:evenodd;fill:rgb(100%,100%,100%);fill-opacity:1;" d="M 1177.78125 708 C 1177.78125 701.601562 1168.183594 701.601562 1168.183594 708 C 1168.183594 714.398438 1177.78125 714.398438 1177.78125 708 "/>
<path style=" stroke:none;fill-rule:evenodd;fill:rgb(100%,100%,100%);fill-opacity:1;" d="M 667.78125 1038 C 667.78125 1031.601562 658.183594 1031.601562 658.183594 1038 C 658.183594 1044.398438 667.78125 1044.398438 667.78125 1038 "/>
<path style=" stroke:none;fill-rule:evenodd;fill:rgb(100%,100%,100%);fill-opacity:1;" d="M 607.78125 1038 C 607.78125 1031.601562 598.183594 1031.601562 598.183594 1038 C 598.183594 1044.398438 607.78125 1044.398438 607.78125 1038 "/>
<path style=" stroke:none;fill-rule:evenodd;fill:rgb(100%,100%,100%);fill-opacity:1;" d="M 547.78125 1038 C 547.78125 1031.601562 538.183594 1031.601562 538.183594 1038 C 538.183594 1044.398438 547.78125 1044.398438 547.78125 1038 "/>
<path style=" stroke:none;fill-rule:evenodd;fill:rgb(100%,100%,100%);fill-opacity:1;" d="M 157.78125 738 C 157.78125 731.601562 148.183594 731.601562 148.183594 738 C 148.183594 744.398438 157.78125 744.398438 157.78125 738 "/>
<path style=" stroke:none;fill-rule:evenodd;fill:rgb(100%,100%,100%);fill-opacity:1;" d="M 157.78125 678 C 157.78125 671.601562 148.183594 671.601562 148.183594 678 C 148.183594 684.398438 157.78125 684.398438 157.78125 678 "/>
<path style=" stroke:none;fill-rule:evenodd;fill:rgb(100%,100%,100%);fill-opacity:1;" d="M 487.78125 303 C 487.78125 296.601562 478.183594 296.601562 478.183594 303 C 478.183594 309.398438 487.78125 309.398438 487.78125 303 "/>
<path style=" stroke:none;fill-rule:evenodd;fill:rgb(100%,100%,100%);fill-opacity:1;" d="M 577.78125 303 C 577.78125 296.601562 568.183594 296.601562 568.183594 303 C 568.183594 309.398438 577.78125 309.398438 577.78125 303 "/>
<path style=" stroke:none;fill-rule:evenodd;fill:rgb(100%,100%,100%);fill-opacity:1;" d="M 667.78125 303 C 667.78125 296.601562 658.183594 296.601562 658.183594 303 C 658.183594 309.398438 667.78125 309.398438 667.78125 303 "/>
<path style=" stroke:none;fill-rule:evenodd;fill:rgb(100%,100%,100%);fill-opacity:1;" d="M 622.78125 213 C 622.78125 206.601562 613.183594 206.601562 613.183594 213 C 613.183594 219.398438 622.78125 219.398438 622.78125 213 "/>
<path style=" stroke:none;fill-rule:evenodd;fill:rgb(100%,100%,100%);fill-opacity:1;" d="M 532.78125 213 C 532.78125 206.601562 523.183594 206.601562 523.183594 213 C 523.183594 219.398438 532.78125 219.398438 532.78125 213 "/>
<path style=" stroke:none;fill-rule:evenodd;fill:rgb(100%,100%,100%);fill-opacity:1;" d="M 787.78125 258 C 787.78125 251.601562 778.183594 251.601562 778.183594 258 C 778.183594 264.398438 787.78125 264.398438 787.78125 258 "/>
<path style=" stroke:none;fill-rule:evenodd;fill:rgb(100%,100%,100%);fill-opacity:1;" d="M 877.78125 258 C 877.78125 251.601562 868.183594 251.601562 868.183594 258 C 868.183594 264.398438 877.78125 264.398438 877.78125 258 "/>
<path style=" stroke:none;fill-rule:evenodd;fill:rgb(100%,100%,100%);fill-opacity:1;" d="M 877.78125 498 C 877.78125 491.601562 868.183594 491.601562 868.183594 498 C 868.183594 504.398438 877.78125 504.398438 877.78125 498 "/>
<path style=" stroke:none;fill-rule:evenodd;fill:rgb(100%,100%,100%);fill-opacity:1;" d="M 787.78125 498 C 787.78125 491.601562 778.183594 491.601562 778.183594 498 C 778.183594 504.398438 787.78125 504.398438 787.78125 498 "/>
<path style=" stroke:none;fill-rule:evenodd;fill:rgb(100%,100%,100%);fill-opacity:1;" d="M 157.78125 1008 C 157.78125 1001.601562 148.183594 1001.601562 148.183594 1008 C 148.183594 1014.398438 157.78125 1014.398438 157.78125 1008 "/>
<path style=" stroke:none;fill-rule:evenodd;fill:rgb(100%,100%,100%);fill-opacity:1;" d="M 157.78125 258 C 157.78125 251.601562 148.183594 251.601562 148.183594 258 C 148.183594 264.398438 157.78125 264.398438 157.78125 258 "/>
<path style=" stroke:none;fill-rule:evenodd;fill:rgb(100%,100%,100%);fill-opacity:1;" d="M 1417.78125 258 C 1417.78125 251.601562 1408.183594 251.601562 1408.183594 258 C 1408.183594 264.398438 1417.78125 264.398438 1417.78125 258 "/>
<path style=" stroke:none;fill-rule:evenodd;fill:rgb(100%,100%,100%);fill-opacity:1;" d="M 1417.78125 1008 C 1417.78125 1001.601562 1408.183594 1001.601562 1408.183594 1008 C 1408.183594 1014.398438 1417.78125 1014.398438 1417.78125 1008 "/>
</g>
</svg>
