<?xml version="1.0" encoding="UTF-8"?>
<svg xmlns="http://www.w3.org/2000/svg" xmlns:xlink="http://www.w3.org/1999/xlink" width="1558pt" height="1191pt" viewBox="0 0 1558 1191" version="1.1">
<g id="surface1">
<path style="fill:none;stroke-width:0.01;stroke-linecap:round;stroke-linejoin:miter;stroke:rgb(0%,0%,0%);stroke-opacity:1;stroke-miterlimit:10;" d="M 0.7833 0.015 L 0.7833 1.864603 " transform="matrix(600,0,0,-600,-466.979992,1197)"/>
<path style="fill:none;stroke-width:0.01;stroke-linecap:round;stroke-linejoin:miter;stroke:rgb(0%,0%,0%);stroke-opacity:1;stroke-miterlimit:10;" d="M 0.7833 1.864603 L 3.370299 1.864603 " transform="matrix(600,0,0,-600,-466.979992,1197)"/>
<path style="fill:none;stroke-width:0.01;stroke-linecap:round;stroke-linejoin:miter;stroke:rgb(0%,0%,0%);stroke-opacity:1;stroke-miterlimit:10;" d="M 3.370299 1.864603 L 3.370299 0.015 " transform="matrix(600,0,0,-600,-466.979992,1197)"/>
<path style="fill:none;stroke-width:0.01;stroke-linecap:round;stroke-linejoin:miter;stroke:rgb(0%,0%,0%);stroke-opacity:1;stroke-miterlimit:10;" d="M 3.370299 0.015 L 0.7833 0.015 " transform="matrix(600,0,0,-600,-466.979992,1197)"/>
<path style="fill:none;stroke-width:0.0051;stroke-linecap:round;stroke-linejoin:miter;stroke:rgb(0%,0%,0%);stroke-opacity:1;stroke-miterlimit:10;" d="M 0.7833 1.864603 L 0.7833 1.991797 " transform="matrix(600,0,0,-600,-466.979992,1197)"/>
<path style="fill:none;stroke-width:0.0051;stroke-linecap:round;stroke-linejoin:miter;stroke:rgb(0%,0%,0%);stroke-opacity:1;stroke-miterlimit:10;" d="M 0.7833 1.915 L 0.885702 1.925202 " transform="matrix(600,0,0,-600,-466.979992,1197)"/>
<path style="fill:none;stroke-width:0.0051;stroke-linecap:round;stroke-linejoin:miter;stroke:rgb(0%,0%,0%);stroke-opacity:1;stroke-miterlimit:10;" d="M 0.885702 1.927598 L 0.885702 1.902402 " transform="matrix(600,0,0,-600,-466.979992,1197)"/>
<path style="fill:none;stroke-width:0.0051;stroke-linecap:round;stroke-linejoin:miter;stroke:rgb(0%,0%,0%);stroke-opacity:1;stroke-miterlimit:10;" d="M 0.885702 1.902402 L 0.7833 1.915 " transform="matrix(600,0,0,-600,-466.979992,1197)"/>
<path style="fill:none;stroke-width:0.0051;stroke-linecap:round;stroke-linejoin:miter;stroke:rgb(0%,0%,0%);stroke-opacity:1;stroke-miterlimit:10;" d="M 0.7833 1.915 L 0.885702 1.904798 " transform="matrix(600,0,0,-600,-466.979992,1197)"/>
<path style="fill:none;stroke-width:0.0051;stroke-linecap:round;stroke-linejoin:miter;stroke:rgb(0%,0%,0%);stroke-opacity:1;stroke-miterlimit:10;" d="M 0.885702 1.909902 L 0.7833 1.915 " transform="matrix(600,0,0,-600,-466.979992,1197)"/>
<path style="fill:none;stroke-width:0.0051;stroke-linecap:round;stroke-linejoin:miter;stroke:rgb(0%,0%,0%);stroke-opacity:1;stroke-miterlimit:10;" d="M 0.7833 1.915 L 0.885702 1.920098 " transform="matrix(600,0,0,-600,-466.979992,1197)"/>
<path style="fill:none;stroke-width:0.0051;stroke-linecap:round;stroke-linejoin:miter;stroke:rgb(0%,0%,0%);stroke-opacity:1;stroke-miterlimit:10;" d="M 0.885702 1.927598 L 0.7833 1.915 " transform="matrix(600,0,0,-600,-466.979992,1197)"/>
<path style="fill:none;stroke-width:0.0051;stroke-linecap:round;stroke-linejoin:miter;stroke:rgb(0%,0%,0%);stroke-opacity:1;stroke-miterlimit:10;" d="M 0.7833 1.915 L 3.370299 1.915 " transform="matrix(600,0,0,-600,-466.979992,1197)"/>
<path style="fill:none;stroke-width:0.0051;stroke-linecap:round;stroke-linejoin:miter;stroke:rgb(0%,0%,0%);stroke-opacity:1;stroke-miterlimit:10;" d="M 3.370299 1.915 L 3.268001 1.904798 " transform="matrix(600,0,0,-600,-466.979992,1197)"/>
<path style="fill:none;stroke-width:0.0051;stroke-linecap:round;stroke-linejoin:miter;stroke:rgb(0%,0%,0%);stroke-opacity:1;stroke-miterlimit:10;" d="M 3.268001 1.902402 L 3.370299 1.915 " transform="matrix(600,0,0,-600,-466.979992,1197)"/>
<path style="fill:none;stroke-width:0.0051;stroke-linecap:round;stroke-linejoin:miter;stroke:rgb(0%,0%,0%);stroke-opacity:1;stroke-miterlimit:10;" d="M 3.370299 1.915 L 3.268001 1.925202 " transform="matrix(600,0,0,-600,-466.979992,1197)"/>
<path style="fill:none;stroke-width:0.0051;stroke-linecap:round;stroke-linejoin:miter;stroke:rgb(0%,0%,0%);stroke-opacity:1;stroke-miterlimit:10;" d="M 3.268001 1.927598 L 3.268001 1.902402 " transform="matrix(600,0,0,-600,-466.979992,1197)"/>
<path style="fill:none;stroke-width:0.0051;stroke-linecap:round;stroke-linejoin:miter;stroke:rgb(0%,0%,0%);stroke-opacity:1;stroke-miterlimit:10;" d="M 3.268001 1.909902 L 3.370299 1.915 " transform="matrix(600,0,0,-600,-466.979992,1197)"/>
<path style="fill:none;stroke-width:0.0051;stroke-linecap:round;stroke-linejoin:miter;stroke:rgb(0%,0%,0%);stroke-opacity:1;stroke-miterlimit:10;" d="M 3.370299 1.915 L 3.268001 1.920098 " transform="matrix(600,0,0,-600,-466.979992,1197)"/>
<path style="fill:none;stroke-width:0.0051;stroke-linecap:round;stroke-linejoin:miter;stroke:rgb(0%,0%,0%);stroke-opacity:1;stroke-miterlimit:10;" d="M 3.268001 1.927598 L 3.370299 1.915 " transform="matrix(600,0,0,-600,-466.979992,1197)"/>
<path style="fill:none;stroke-width:0.0051;stroke-linecap:round;stroke-linejoin:miter;stroke:rgb(0%,0%,0%);stroke-opacity:1;stroke-miterlimit:10;" d="M 3.370299 1.864603 L 3.370299 1.991797 " transform="matrix(600,0,0,-600,-466.979992,1197)"/>
<path style="fill:none;stroke-width:0.008;stroke-linecap:round;stroke-linejoin:miter;stroke:rgb(0%,0%,0%);stroke-opacity:1;stroke-miterlimit:10;" d="M 2.166399 1.936602 L 2.138398 1.936602 " transform="matrix(600,0,0,-600,-466.979992,1197)"/>
<path style="fill:none;stroke-width:0.008;stroke-linecap:round;stroke-linejoin:miter;stroke:rgb(0%,0%,0%);stroke-opacity:1;stroke-miterlimit:10;" d="M 2.152402 1.936602 L 2.152402 1.978698 " transform="matrix(600,0,0,-600,-466.979992,1197)"/>
<path style="fill:none;stroke-width:0.008;stroke-linecap:round;stroke-linejoin:miter;stroke:rgb(0%,0%,0%);stroke-opacity:1;stroke-miterlimit:10;" d="M 2.152402 1.978698 L 2.138398 1.964603 " transform="matrix(600,0,0,-600,-466.979992,1197)"/>
<path style="fill:none;stroke-width:0.008;stroke-linecap:round;stroke-linejoin:miter;stroke:rgb(0%,0%,0%);stroke-opacity:1;stroke-miterlimit:10;" d="M 2.120403 1.971602 L 2.092297 1.9436 " transform="matrix(600,0,0,-600,-466.979992,1197)"/>
<path style="fill:none;stroke-width:0.008;stroke-linecap:round;stroke-linejoin:miter;stroke:rgb(0%,0%,0%);stroke-opacity:1;stroke-miterlimit:10;" d="M 2.092297 1.9436 L 2.092297 1.936602 " transform="matrix(600,0,0,-600,-466.979992,1197)"/>
<path style="fill:none;stroke-width:0.008;stroke-linecap:round;stroke-linejoin:miter;stroke:rgb(0%,0%,0%);stroke-opacity:1;stroke-miterlimit:10;" d="M 2.076301 1.936602 L 2.069303 1.936602 " transform="matrix(600,0,0,-600,-466.979992,1197)"/>
<path style="fill:none;stroke-width:0.008;stroke-linecap:round;stroke-linejoin:miter;stroke:rgb(0%,0%,0%);stroke-opacity:1;stroke-miterlimit:10;" d="M 2.069303 1.936602 L 2.069303 1.9436 " transform="matrix(600,0,0,-600,-466.979992,1197)"/>
<path style="fill:none;stroke-width:0.008;stroke-linecap:round;stroke-linejoin:miter;stroke:rgb(0%,0%,0%);stroke-opacity:1;stroke-miterlimit:10;" d="M 2.069303 1.9436 L 2.076301 1.9436 " transform="matrix(600,0,0,-600,-466.979992,1197)"/>
<path style="fill:none;stroke-width:0.008;stroke-linecap:round;stroke-linejoin:miter;stroke:rgb(0%,0%,0%);stroke-opacity:1;stroke-miterlimit:10;" d="M 2.076301 1.9436 L 2.076301 1.936602 " transform="matrix(600,0,0,-600,-466.979992,1197)"/>
<path style="fill:none;stroke-width:0.008;stroke-linecap:round;stroke-linejoin:miter;stroke:rgb(0%,0%,0%);stroke-opacity:1;stroke-miterlimit:10;" d="M 2.051301 1.9436 L 2.051301 1.957598 " transform="matrix(600,0,0,-600,-466.979992,1197)"/>
<path style="fill:none;stroke-width:0.008;stroke-linecap:round;stroke-linejoin:miter;stroke:rgb(0%,0%,0%);stroke-opacity:1;stroke-miterlimit:10;" d="M 2.051301 1.957598 L 2.044303 1.964603 " transform="matrix(600,0,0,-600,-466.979992,1197)"/>
<path style="fill:none;stroke-width:0.008;stroke-linecap:round;stroke-linejoin:miter;stroke:rgb(0%,0%,0%);stroke-opacity:1;stroke-miterlimit:10;" d="M 2.044303 1.964603 L 2.037297 1.964603 " transform="matrix(600,0,0,-600,-466.979992,1197)"/>
<path style="fill:none;stroke-width:0.008;stroke-linecap:round;stroke-linejoin:miter;stroke:rgb(0%,0%,0%);stroke-opacity:1;stroke-miterlimit:10;" d="M 2.037297 1.964603 L 2.0233 1.957598 " transform="matrix(600,0,0,-600,-466.979992,1197)"/>
<path style="fill:none;stroke-width:0.008;stroke-linecap:round;stroke-linejoin:miter;stroke:rgb(0%,0%,0%);stroke-opacity:1;stroke-miterlimit:10;" d="M 2.0233 1.957598 L 2.0233 1.978698 " transform="matrix(600,0,0,-600,-466.979992,1197)"/>
<path style="fill:none;stroke-width:0.008;stroke-linecap:round;stroke-linejoin:miter;stroke:rgb(0%,0%,0%);stroke-opacity:1;stroke-miterlimit:10;" d="M 2.0233 1.978698 L 2.051301 1.978698 " transform="matrix(600,0,0,-600,-466.979992,1197)"/>
<path style="fill:none;stroke-width:0.008;stroke-linecap:round;stroke-linejoin:miter;stroke:rgb(0%,0%,0%);stroke-opacity:1;stroke-miterlimit:10;" d="M 2.092297 1.978698 L 2.120403 1.978698 " transform="matrix(600,0,0,-600,-466.979992,1197)"/>
<path style="fill:none;stroke-width:0.008;stroke-linecap:round;stroke-linejoin:miter;stroke:rgb(0%,0%,0%);stroke-opacity:1;stroke-miterlimit:10;" d="M 2.120403 1.978698 L 2.120403 1.971602 " transform="matrix(600,0,0,-600,-466.979992,1197)"/>
<path style="fill:none;stroke-width:0.008;stroke-linecap:round;stroke-linejoin:miter;stroke:rgb(0%,0%,0%);stroke-opacity:1;stroke-miterlimit:10;" d="M 2.051301 1.9436 L 2.044303 1.936602 " transform="matrix(600,0,0,-600,-466.979992,1197)"/>
<path style="fill:none;stroke-width:0.008;stroke-linecap:round;stroke-linejoin:miter;stroke:rgb(0%,0%,0%);stroke-opacity:1;stroke-miterlimit:10;" d="M 2.044303 1.936602 L 2.030299 1.936602 " transform="matrix(600,0,0,-600,-466.979992,1197)"/>
<path style="fill:none;stroke-width:0.008;stroke-linecap:round;stroke-linejoin:miter;stroke:rgb(0%,0%,0%);stroke-opacity:1;stroke-miterlimit:10;" d="M 2.030299 1.936602 L 2.0233 1.9436 " transform="matrix(600,0,0,-600,-466.979992,1197)"/>
<path style="fill:none;stroke-width:0.008;stroke-linecap:round;stroke-linejoin:miter;stroke:rgb(0%,0%,0%);stroke-opacity:1;stroke-miterlimit:10;" d="M 2.005299 1.9436 L 2.005299 1.950599 " transform="matrix(600,0,0,-600,-466.979992,1197)"/>
<path style="fill:none;stroke-width:0.008;stroke-linecap:round;stroke-linejoin:miter;stroke:rgb(0%,0%,0%);stroke-opacity:1;stroke-miterlimit:10;" d="M 2.005299 1.950599 L 1.9983 1.957598 " transform="matrix(600,0,0,-600,-466.979992,1197)"/>
<path style="fill:none;stroke-width:0.008;stroke-linecap:round;stroke-linejoin:miter;stroke:rgb(0%,0%,0%);stroke-opacity:1;stroke-miterlimit:10;" d="M 1.9983 1.957598 L 1.9772 1.957598 " transform="matrix(600,0,0,-600,-466.979992,1197)"/>
<path style="fill:none;stroke-width:0.008;stroke-linecap:round;stroke-linejoin:miter;stroke:rgb(0%,0%,0%);stroke-opacity:1;stroke-miterlimit:10;" d="M 1.9772 1.957598 L 1.9772 1.9436 " transform="matrix(600,0,0,-600,-466.979992,1197)"/>
<path style="fill:none;stroke-width:0.008;stroke-linecap:round;stroke-linejoin:miter;stroke:rgb(0%,0%,0%);stroke-opacity:1;stroke-miterlimit:10;" d="M 1.9772 1.9436 L 1.984303 1.936602 " transform="matrix(600,0,0,-600,-466.979992,1197)"/>
<path style="fill:none;stroke-width:0.008;stroke-linecap:round;stroke-linejoin:miter;stroke:rgb(0%,0%,0%);stroke-opacity:1;stroke-miterlimit:10;" d="M 1.984303 1.936602 L 1.9983 1.936602 " transform="matrix(600,0,0,-600,-466.979992,1197)"/>
<path style="fill:none;stroke-width:0.008;stroke-linecap:round;stroke-linejoin:miter;stroke:rgb(0%,0%,0%);stroke-opacity:1;stroke-miterlimit:10;" d="M 1.9983 1.936602 L 2.005299 1.9436 " transform="matrix(600,0,0,-600,-466.979992,1197)"/>
<path style="fill:none;stroke-width:0.008;stroke-linecap:round;stroke-linejoin:miter;stroke:rgb(0%,0%,0%);stroke-opacity:1;stroke-miterlimit:10;" d="M 1.991301 1.971602 L 1.9772 1.957598 " transform="matrix(600,0,0,-600,-466.979992,1197)"/>
<path style="fill:none;stroke-width:0.008;stroke-linecap:round;stroke-linejoin:miter;stroke:rgb(0%,0%,0%);stroke-opacity:1;stroke-miterlimit:10;" d="M 1.991301 1.971602 L 2.005299 1.978698 " transform="matrix(600,0,0,-600,-466.979992,1197)"/>
<path style="fill:none;stroke-width:0.06;stroke-linecap:round;stroke-linejoin:miter;stroke:rgb(0%,0%,0%);stroke-opacity:1;stroke-miterlimit:10;" d="M 1.0033 0.765 L 1.0633 0.765 " transform="matrix(600,0,0,-600,-466.979992,1197)"/>
<path style="fill:none;stroke-width:0.06;stroke-linecap:round;stroke-linejoin:miter;stroke:rgb(0%,0%,0%);stroke-opacity:1;stroke-miterlimit:10;" d="M 1.0633 0.865 L 1.0033 0.865 " transform="matrix(600,0,0,-600,-466.979992,1197)"/>
<path style="fill:none;stroke-width:0.06;stroke-linecap:round;stroke-linejoin:miter;stroke:rgb(0%,0%,0%);stroke-opacity:1;stroke-miterlimit:10;" d="M 1.5833 1.46 L 1.5833 1.52 " transform="matrix(600,0,0,-600,-466.979992,1197)"/>
<path style="fill:none;stroke-width:0.06;stroke-linecap:round;stroke-linejoin:miter;stroke:rgb(0%,0%,0%);stroke-opacity:1;stroke-miterlimit:10;" d="M 1.6583 1.61 L 1.6583 1.67 " transform="matrix(600,0,0,-600,-466.979992,1197)"/>
<path style="fill:none;stroke-width:0.06;stroke-linecap:round;stroke-linejoin:miter;stroke:rgb(0%,0%,0%);stroke-opacity:1;stroke-miterlimit:10;" d="M 1.8083 1.67 L 1.8083 1.61 " transform="matrix(600,0,0,-600,-466.979992,1197)"/>
<path style="fill:none;stroke-width:0.06;stroke-linecap:round;stroke-linejoin:miter;stroke:rgb(0%,0%,0%);stroke-opacity:1;stroke-miterlimit:10;" d="M 1.7333 1.52 L 1.7333 1.46 " transform="matrix(600,0,0,-600,-466.979992,1197)"/>
<path style="fill:none;stroke-width:0.06;stroke-linecap:round;stroke-linejoin:miter;stroke:rgb(0%,0%,0%);stroke-opacity:1;stroke-miterlimit:10;" d="M 1.8833 1.46 L 1.8833 1.52 " transform="matrix(600,0,0,-600,-466.979992,1197)"/>
<path style="fill:none;stroke-width:0.06;stroke-linecap:round;stroke-linejoin:miter;stroke:rgb(0%,0%,0%);stroke-opacity:1;stroke-miterlimit:10;" d="M 2.7033 0.915 L 2.7633 0.915 " transform="matrix(600,0,0,-600,-466.979992,1197)"/>
<path style="fill:none;stroke-width:0.06;stroke-linecap:round;stroke-linejoin:miter;stroke:rgb(0%,0%,0%);stroke-opacity:1;stroke-miterlimit:10;" d="M 2.7633 0.815 L 2.7033 0.815 " transform="matrix(600,0,0,-600,-466.979992,1197)"/>
<path style="fill:none;stroke-width:0.06;stroke-linecap:round;stroke-linejoin:miter;stroke:rgb(0%,0%,0%);stroke-opacity:1;stroke-miterlimit:10;" d="M 1.8833 0.295 L 1.8833 0.235 " transform="matrix(600,0,0,-600,-466.979992,1197)"/>
<path style="fill:none;stroke-width:0.06;stroke-linecap:round;stroke-linejoin:miter;stroke:rgb(0%,0%,0%);stroke-opacity:1;stroke-miterlimit:10;" d="M 1.7833 0.235 L 1.7833 0.295 " transform="matrix(600,0,0,-600,-466.979992,1197)"/>
<path style="fill:none;stroke-width:0.06;stroke-linecap:round;stroke-linejoin:miter;stroke:rgb(0%,0%,0%);stroke-opacity:1;stroke-miterlimit:10;" d="M 1.6833 0.295 L 1.6833 0.235 " transform="matrix(600,0,0,-600,-466.979992,1197)"/>
<path style=" stroke:none;fill-rule:evenodd;fill:rgb(0%,0%,0%);fill-opacity:1;" d="M 955.5 882 C 955.5 852 910.5 852 910.5 882 C 910.5 912 955.5 912 955.5 882 "/>
<path style=" stroke:none;fill-rule:evenodd;fill:rgb(0%,0%,0%);fill-opacity:1;" d="M 955.5 660 C 955.5 630 910.5 630 910.5 660 C 910.5 690 955.5 690 955.5 660 "/>
<path style=" stroke:none;fill-rule:evenodd;fill:rgb(0%,0%,0%);fill-opacity:1;" d="M 403.5 468 C 403.5 438 358.5 438 358.5 468 C 358.5 498 403.5 498 403.5 468 "/>
<path style=" stroke:none;fill-rule:evenodd;fill:rgb(0%,0%,0%);fill-opacity:1;" d="M 181.5 468 C 181.5 438 136.5 438 136.5 468 C 136.5 498 181.5 498 181.5 468 "/>
<path style=" stroke:none;fill-rule:evenodd;fill:rgb(0%,0%,0%);fill-opacity:1;" d="M 443.460938 678 C 443.460938 652 404.460938 652 404.460938 678 C 404.460938 704 443.460938 704 443.460938 678 "/>
<path style=" stroke:none;fill-rule:evenodd;fill:rgb(0%,0%,0%);fill-opacity:1;" d="M 561.601562 678 C 561.601562 652 522.601562 652 522.601562 678 C 522.601562 704 561.601562 704 561.601562 678 "/>
<path style=" stroke:none;fill-rule:evenodd;fill:rgb(0%,0%,0%);fill-opacity:1;" d="M 713.460938 678 C 713.460938 652 674.460938 652 674.460938 678 C 674.460938 704 713.460938 704 713.460938 678 "/>
<path style=" stroke:none;fill-rule:evenodd;fill:rgb(0%,0%,0%);fill-opacity:1;" d="M 831.601562 678 C 831.601562 652 792.601562 652 792.601562 678 C 792.601562 704 831.601562 704 831.601562 678 "/>
<path style=" stroke:none;fill-rule:evenodd;fill:rgb(0%,0%,0%);fill-opacity:1;" d="M 802.5 828 C 802.5 802 763.5 802 763.5 828 C 763.5 854 802.5 854 802.5 828 "/>
<path style=" stroke:none;fill-rule:evenodd;fill:rgb(0%,0%,0%);fill-opacity:1;" d="M 532.5 828 C 532.5 802 493.5 802 493.5 828 C 493.5 854 532.5 854 532.5 828 "/>
<path style=" stroke:none;fill-rule:evenodd;fill:rgb(0%,0%,0%);fill-opacity:1;" d="M 1282.5 438 C 1282.5 412 1243.5 412 1243.5 438 C 1243.5 464 1282.5 464 1282.5 438 "/>
<path style=" stroke:none;fill-rule:evenodd;fill:rgb(0%,0%,0%);fill-opacity:1;" d="M 1243.5 397.5 L 1282.5 397.5 L 1282.5 358.5 L 1243.5 358.5 Z "/>
<path style=" stroke:none;fill-rule:evenodd;fill:rgb(0%,0%,0%);fill-opacity:1;" d="M 703.5 847.5 L 742.5 847.5 L 742.5 808.5 L 703.5 808.5 Z "/>
<path style=" stroke:none;fill-rule:evenodd;fill:rgb(0%,0%,0%);fill-opacity:1;" d="M 433.5 847.5 L 472.5 847.5 L 472.5 808.5 L 433.5 808.5 Z "/>
<path style=" stroke:none;fill-rule:evenodd;fill:rgb(0%,0%,0%);fill-opacity:1;" d="M 805.800781 498 C 805.800781 467.601562 760.199219 467.601562 760.199219 498 C 760.199219 528.398438 805.800781 528.398438 805.800781 498 "/>
<path style=" stroke:none;fill-rule:evenodd;fill:rgb(0%,0%,0%);fill-opacity:1;" d="M 895.800781 498 C 895.800781 467.601562 850.199219 467.601562 850.199219 498 C 850.199219 528.398438 895.800781 528.398438 895.800781 498 "/>
<path style=" stroke:none;fill-rule:evenodd;fill:rgb(0%,0%,0%);fill-opacity:1;" d="M 895.800781 258 C 895.800781 227.601562 850.199219 227.601562 850.199219 258 C 850.199219 288.398438 895.800781 288.398438 895.800781 258 "/>
<path style=" stroke:none;fill-rule:evenodd;fill:rgb(0%,0%,0%);fill-opacity:1;" d="M 805.800781 258 C 805.800781 227.601562 760.199219 227.601562 760.199219 258 C 760.199219 288.398438 805.800781 288.398438 805.800781 258 "/>
<path style=" stroke:none;fill-rule:evenodd;fill:rgb(0%,0%,0%);fill-opacity:1;" d="M 325.199219 828 C 325.199219 798.398438 280.800781 798.398438 280.800781 828 C 280.800781 857.601562 325.199219 857.601562 325.199219 828 "/>
<path style=" stroke:none;fill-rule:evenodd;fill:rgb(0%,0%,0%);fill-opacity:1;" d="M 325.199219 588 C 325.199219 558.398438 280.800781 558.398438 280.800781 588 C 280.800781 617.601562 325.199219 617.601562 325.199219 588 "/>
<path style=" stroke:none;fill-rule:evenodd;fill:rgb(0%,0%,0%);fill-opacity:1;" d="M 1075.199219 648 C 1075.199219 618.398438 1030.800781 618.398438 1030.800781 648 C 1030.800781 677.601562 1075.199219 677.601562 1075.199219 648 "/>
<path style=" stroke:none;fill-rule:evenodd;fill:rgb(0%,0%,0%);fill-opacity:1;" d="M 1075.199219 888 C 1075.199219 858.398438 1030.800781 858.398438 1030.800781 888 C 1030.800781 917.601562 1075.199219 917.601562 1075.199219 888 "/>
<path style=" stroke:none;fill-rule:evenodd;fill:rgb(0%,0%,0%);fill-opacity:1;" d="M 1135.199219 408 C 1135.199219 378.398438 1090.800781 378.398438 1090.800781 408 C 1090.800781 437.601562 1135.199219 437.601562 1135.199219 408 "/>
<path style=" stroke:none;fill-rule:evenodd;fill:rgb(0%,0%,0%);fill-opacity:1;" d="M 1135.199219 168 C 1135.199219 138.398438 1090.800781 138.398438 1090.800781 168 C 1090.800781 197.601562 1135.199219 197.601562 1135.199219 168 "/>
<path style=" stroke:none;fill-rule:evenodd;fill:rgb(0%,0%,0%);fill-opacity:1;" d="M 1045.199219 168 C 1045.199219 138.398438 1000.800781 138.398438 1000.800781 168 C 1000.800781 197.601562 1045.199219 197.601562 1045.199219 168 "/>
<path style=" stroke:none;fill-rule:evenodd;fill:rgb(0%,0%,0%);fill-opacity:1;" d="M 805.199219 168 C 805.199219 138.398438 760.800781 138.398438 760.800781 168 C 760.800781 197.601562 805.199219 197.601562 805.199219 168 "/>
<path style=" stroke:none;fill-rule:evenodd;fill:rgb(100%,100%,100%);fill-opacity:1;" d="M 457.800781 828 C 457.800781 821.601562 448.199219 821.601562 448.199219 828 C 448.199219 834.398438 457.800781 834.398438 457.800781 828 "/>
<path style=" stroke:none;fill-rule:evenodd;fill:rgb(100%,100%,100%);fill-opacity:1;" d="M 517.800781 828 C 517.800781 821.601562 508.199219 821.601562 508.199219 828 C 508.199219 834.398438 517.800781 834.398438 517.800781 828 "/>
<path style=" stroke:none;fill-rule:evenodd;fill:rgb(100%,100%,100%);fill-opacity:1;" d="M 727.800781 828 C 727.800781 821.601562 718.199219 821.601562 718.199219 828 C 718.199219 834.398438 727.800781 834.398438 727.800781 828 "/>
<path style=" stroke:none;fill-rule:evenodd;fill:rgb(100%,100%,100%);fill-opacity:1;" d="M 787.800781 828 C 787.800781 821.601562 778.199219 821.601562 778.199219 828 C 778.199219 834.398438 787.800781 834.398438 787.800781 828 "/>
<path style=" stroke:none;fill-rule:evenodd;fill:rgb(100%,100%,100%);fill-opacity:1;" d="M 816.898438 678 C 816.898438 671.601562 807.300781 671.601562 807.300781 678 C 807.300781 684.398438 816.898438 684.398438 816.898438 678 "/>
<path style=" stroke:none;fill-rule:evenodd;fill:rgb(100%,100%,100%);fill-opacity:1;" d="M 698.761719 678 C 698.761719 671.601562 689.160156 671.601562 689.160156 678 C 689.160156 684.398438 698.761719 684.398438 698.761719 678 "/>
<path style=" stroke:none;fill-rule:evenodd;fill:rgb(100%,100%,100%);fill-opacity:1;" d="M 546.898438 678 C 546.898438 671.601562 537.300781 671.601562 537.300781 678 C 537.300781 684.398438 546.898438 684.398438 546.898438 678 "/>
<path style=" stroke:none;fill-rule:evenodd;fill:rgb(100%,100%,100%);fill-opacity:1;" d="M 428.761719 678 C 428.761719 671.601562 419.160156 671.601562 419.160156 678 C 419.160156 684.398438 428.761719 684.398438 428.761719 678 "/>
<path style=" stroke:none;fill-rule:evenodd;fill:rgb(100%,100%,100%);fill-opacity:1;" d="M 1267.800781 438 C 1267.800781 431.601562 1258.199219 431.601562 1258.199219 438 C 1258.199219 444.398438 1267.800781 444.398438 1267.800781 438 "/>
<path style=" stroke:none;fill-rule:evenodd;fill:rgb(100%,100%,100%);fill-opacity:1;" d="M 1267.800781 378 C 1267.800781 371.601562 1258.199219 371.601562 1258.199219 378 C 1258.199219 384.398438 1267.800781 384.398438 1267.800781 378 "/>
<path style=" stroke:none;fill-rule:evenodd;fill:rgb(100%,100%,100%);fill-opacity:1;" d="M 1117.800781 408 C 1117.800781 401.601562 1108.199219 401.601562 1108.199219 408 C 1108.199219 414.398438 1117.800781 414.398438 1117.800781 408 "/>
<path style=" stroke:none;fill-rule:evenodd;fill:rgb(100%,100%,100%);fill-opacity:1;" d="M 1117.800781 168 C 1117.800781 161.601562 1108.199219 161.601562 1108.199219 168 C 1108.199219 174.398438 1117.800781 174.398438 1117.800781 168 "/>
<path style=" stroke:none;fill-rule:evenodd;fill:rgb(100%,100%,100%);fill-opacity:1;" d="M 1027.800781 168 C 1027.800781 161.601562 1018.199219 161.601562 1018.199219 168 C 1018.199219 174.398438 1027.800781 174.398438 1027.800781 168 "/>
<path style=" stroke:none;fill-rule:evenodd;fill:rgb(100%,100%,100%);fill-opacity:1;" d="M 787.800781 168 C 787.800781 161.601562 778.199219 161.601562 778.199219 168 C 778.199219 174.398438 787.800781 174.398438 787.800781 168 "/>
<path style=" stroke:none;fill-rule:evenodd;fill:rgb(100%,100%,100%);fill-opacity:1;" d="M 385.800781 468 C 385.800781 461.601562 376.199219 461.601562 376.199219 468 C 376.199219 474.398438 385.800781 474.398438 385.800781 468 "/>
<path style=" stroke:none;fill-rule:evenodd;fill:rgb(100%,100%,100%);fill-opacity:1;" d="M 163.800781 468 C 163.800781 461.601562 154.199219 461.601562 154.199219 468 C 154.199219 474.398438 163.800781 474.398438 163.800781 468 "/>
<path style=" stroke:none;fill-rule:evenodd;fill:rgb(100%,100%,100%);fill-opacity:1;" d="M 307.800781 588 C 307.800781 581.601562 298.199219 581.601562 298.199219 588 C 298.199219 594.398438 307.800781 594.398438 307.800781 588 "/>
<path style=" stroke:none;fill-rule:evenodd;fill:rgb(100%,100%,100%);fill-opacity:1;" d="M 307.800781 828 C 307.800781 821.601562 298.199219 821.601562 298.199219 828 C 298.199219 834.398438 307.800781 834.398438 307.800781 828 "/>
<path style=" stroke:none;fill-rule:evenodd;fill:rgb(100%,100%,100%);fill-opacity:1;" d="M 937.800781 882 C 937.800781 875.601562 928.199219 875.601562 928.199219 882 C 928.199219 888.398438 937.800781 888.398438 937.800781 882 "/>
<path style=" stroke:none;fill-rule:evenodd;fill:rgb(100%,100%,100%);fill-opacity:1;" d="M 1057.800781 888 C 1057.800781 881.601562 1048.199219 881.601562 1048.199219 888 C 1048.199219 894.398438 1057.800781 894.398438 1057.800781 888 "/>
<path style=" stroke:none;fill-rule:evenodd;fill:rgb(100%,100%,100%);fill-opacity:1;" d="M 937.800781 660 C 937.800781 653.601562 928.199219 653.601562 928.199219 660 C 928.199219 666.398438 937.800781 666.398438 937.800781 660 "/>
<path style=" stroke:none;fill-rule:evenodd;fill:rgb(100%,100%,100%);fill-opacity:1;" d="M 1057.800781 648 C 1057.800781 641.601562 1048.199219 641.601562 1048.199219 648 C 1048.199219 654.398438 1057.800781 654.398438 1057.800781 648 "/>
<path style=" stroke:none;fill-rule:evenodd;fill:rgb(100%,100%,100%);fill-opacity:1;" d="M 1177.800781 648 C 1177.800781 641.601562 1168.199219 641.601562 1168.199219 648 C 1168.199219 654.398438 1177.800781 654.398438 1177.800781 648 "/>
<path style=" stroke:none;fill-rule:evenodd;fill:rgb(100%,100%,100%);fill-opacity:1;" d="M 1177.800781 708 C 1177.800781 701.601562 1168.199219 701.601562 1168.199219 708 C 1168.199219 714.398438 1177.800781 714.398438 1177.800781 708 "/>
<path style=" stroke:none;fill-rule:evenodd;fill:rgb(100%,100%,100%);fill-opacity:1;" d="M 667.800781 1038 C 667.800781 1031.601562 658.199219 1031.601562 658.199219 1038 C 658.199219 1044.398438 667.800781 1044.398438 667.800781 1038 "/>
<path style=" stroke:none;fill-rule:evenodd;fill:rgb(100%,100%,100%);fill-opacity:1;" d="M 607.800781 1038 C 607.800781 1031.601562 598.199219 1031.601562 598.199219 1038 C 598.199219 1044.398438 607.800781 1044.398438 607.800781 1038 "/>
<path style=" stroke:none;fill-rule:evenodd;fill:rgb(100%,100%,100%);fill-opacity:1;" d="M 547.800781 1038 C 547.800781 1031.601562 538.199219 1031.601562 538.199219 1038 C 538.199219 1044.398438 547.800781 1044.398438 547.800781 1038 "/>
<path style=" stroke:none;fill-rule:evenodd;fill:rgb(100%,100%,100%);fill-opacity:1;" d="M 157.800781 738 C 157.800781 731.601562 148.199219 731.601562 148.199219 738 C 148.199219 744.398438 157.800781 744.398438 157.800781 738 "/>
<path style=" stroke:none;fill-rule:evenodd;fill:rgb(100%,100%,100%);fill-opacity:1;" d="M 157.800781 678 C 157.800781 671.601562 148.199219 671.601562 148.199219 678 C 148.199219 684.398438 157.800781 684.398438 157.800781 678 "/>
<path style=" stroke:none;fill-rule:evenodd;fill:rgb(100%,100%,100%);fill-opacity:1;" d="M 487.800781 303 C 487.800781 296.601562 478.199219 296.601562 478.199219 303 C 478.199219 309.398438 487.800781 309.398438 487.800781 303 "/>
<path style=" stroke:none;fill-rule:evenodd;fill:rgb(100%,100%,100%);fill-opacity:1;" d="M 577.800781 303 C 577.800781 296.601562 568.199219 296.601562 568.199219 303 C 568.199219 309.398438 577.800781 309.398438 577.800781 303 "/>
<path style=" stroke:none;fill-rule:evenodd;fill:rgb(100%,100%,100%);fill-opacity:1;" d="M 667.800781 303 C 667.800781 296.601562 658.199219 296.601562 658.199219 303 C 658.199219 309.398438 667.800781 309.398438 667.800781 303 "/>
<path style=" stroke:none;fill-rule:evenodd;fill:rgb(100%,100%,100%);fill-opacity:1;" d="M 622.800781 213 C 622.800781 206.601562 613.199219 206.601562 613.199219 213 C 613.199219 219.398438 622.800781 219.398438 622.800781 213 "/>
<path style=" stroke:none;fill-rule:evenodd;fill:rgb(100%,100%,100%);fill-opacity:1;" d="M 532.800781 213 C 532.800781 206.601562 523.199219 206.601562 523.199219 213 C 523.199219 219.398438 532.800781 219.398438 532.800781 213 "/>
<path style=" stroke:none;fill-rule:evenodd;fill:rgb(100%,100%,100%);fill-opacity:1;" d="M 787.800781 258 C 787.800781 251.601562 778.199219 251.601562 778.199219 258 C 778.199219 264.398438 787.800781 264.398438 787.800781 258 "/>
<path style=" stroke:none;fill-rule:evenodd;fill:rgb(100%,100%,100%);fill-opacity:1;" d="M 877.800781 258 C 877.800781 251.601562 868.199219 251.601562 868.199219 258 C 868.199219 264.398438 877.800781 264.398438 877.800781 258 "/>
<path style=" stroke:none;fill-rule:evenodd;fill:rgb(100%,100%,100%);fill-opacity:1;" d="M 877.800781 498 C 877.800781 491.601562 868.199219 491.601562 868.199219 498 C 868.199219 504.398438 877.800781 504.398438 877.800781 498 "/>
<path style=" stroke:none;fill-rule:evenodd;fill:rgb(100%,100%,100%);fill-opacity:1;" d="M 787.800781 498 C 787.800781 491.601562 778.199219 491.601562 778.199219 498 C 778.199219 504.398438 787.800781 504.398438 787.800781 498 "/>
<path style=" stroke:none;fill-rule:evenodd;fill:rgb(100%,100%,100%);fill-opacity:1;" d="M 157.800781 1008 C 157.800781 1001.601562 148.199219 1001.601562 148.199219 1008 C 148.199219 1014.398438 157.800781 1014.398438 157.800781 1008 "/>
<path style=" stroke:none;fill-rule:evenodd;fill:rgb(100%,100%,100%);fill-opacity:1;" d="M 1417.800781 1008 C 1417.800781 1001.601562 1408.199219 1001.601562 1408.199219 1008 C 1408.199219 1014.398438 1417.800781 1014.398438 1417.800781 1008 "/>
<path style=" stroke:none;fill-rule:evenodd;fill:rgb(100%,100%,100%);fill-opacity:1;" d="M 1417.800781 258 C 1417.800781 251.601562 1408.199219 251.601562 1408.199219 258 C 1408.199219 264.398438 1417.800781 264.398438 1417.800781 258 "/>
<path style=" stroke:none;fill-rule:evenodd;fill:rgb(100%,100%,100%);fill-opacity:1;" d="M 157.800781 258 C 157.800781 251.601562 148.199219 251.601562 148.199219 258 C 148.199219 264.398438 157.800781 264.398438 157.800781 258 "/>
</g>
</svg>
