<?xml version="1.0" encoding="UTF-8"?>
<svg xmlns="http://www.w3.org/2000/svg" xmlns:xlink="http://www.w3.org/1999/xlink" width="1131pt" height="1619pt" viewBox="0 0 1131 1619" version="1.1">
<g id="surface1">
<path style="fill:none;stroke-width:0.01;stroke-linecap:round;stroke-linejoin:miter;stroke:rgb(0%,0%,0%);stroke-opacity:1;stroke-miterlimit:10;" d="M 0.833298 0.03 L 0.833298 2.579603 " transform="matrix(600,0,0,-600,-414.419997,1634)"/>
<path style="fill:none;stroke-width:0.01;stroke-linecap:round;stroke-linejoin:miter;stroke:rgb(0%,0%,0%);stroke-opacity:1;stroke-miterlimit:10;" d="M 0.833298 2.579603 L 2.570303 2.579603 " transform="matrix(600,0,0,-600,-414.419997,1634)"/>
<path style="fill:none;stroke-width:0.01;stroke-linecap:round;stroke-linejoin:miter;stroke:rgb(0%,0%,0%);stroke-opacity:1;stroke-miterlimit:10;" d="M 2.570303 2.579603 L 2.570303 0.03 " transform="matrix(600,0,0,-600,-414.419997,1634)"/>
<path style="fill:none;stroke-width:0.01;stroke-linecap:round;stroke-linejoin:miter;stroke:rgb(0%,0%,0%);stroke-opacity:1;stroke-miterlimit:10;" d="M 2.570303 0.03 L 0.833298 0.03 " transform="matrix(600,0,0,-600,-414.419997,1634)"/>
<path style="fill:none;stroke-width:0.0051;stroke-linecap:round;stroke-linejoin:miter;stroke:rgb(0%,0%,0%);stroke-opacity:1;stroke-miterlimit:10;" d="M 0.833298 0.03 L 0.706598 0.03 " transform="matrix(600,0,0,-600,-414.419997,1634)"/>
<path style="fill:none;stroke-width:0.0051;stroke-linecap:round;stroke-linejoin:miter;stroke:rgb(0%,0%,0%);stroke-opacity:1;stroke-miterlimit:10;" d="M 0.783298 0.03 L 0.793597 0.132402 " transform="matrix(600,0,0,-600,-414.419997,1634)"/>
<path style="fill:none;stroke-width:0.0051;stroke-linecap:round;stroke-linejoin:miter;stroke:rgb(0%,0%,0%);stroke-opacity:1;stroke-miterlimit:10;" d="M 0.795902 0.132402 L 0.783298 0.03 " transform="matrix(600,0,0,-600,-414.419997,1634)"/>
<path style="fill:none;stroke-width:0.0051;stroke-linecap:round;stroke-linejoin:miter;stroke:rgb(0%,0%,0%);stroke-opacity:1;stroke-miterlimit:10;" d="M 0.783298 0.03 L 0.773102 0.132402 " transform="matrix(600,0,0,-600,-414.419997,1634)"/>
<path style="fill:none;stroke-width:0.0051;stroke-linecap:round;stroke-linejoin:miter;stroke:rgb(0%,0%,0%);stroke-opacity:1;stroke-miterlimit:10;" d="M 0.770798 0.132402 L 0.795902 0.132402 " transform="matrix(600,0,0,-600,-414.419997,1634)"/>
<path style="fill:none;stroke-width:0.0051;stroke-linecap:round;stroke-linejoin:miter;stroke:rgb(0%,0%,0%);stroke-opacity:1;stroke-miterlimit:10;" d="M 0.788499 0.132402 L 0.783298 0.03 " transform="matrix(600,0,0,-600,-414.419997,1634)"/>
<path style="fill:none;stroke-width:0.0051;stroke-linecap:round;stroke-linejoin:miter;stroke:rgb(0%,0%,0%);stroke-opacity:1;stroke-miterlimit:10;" d="M 0.783298 0.03 L 0.7782 0.132402 " transform="matrix(600,0,0,-600,-414.419997,1634)"/>
<path style="fill:none;stroke-width:0.0051;stroke-linecap:round;stroke-linejoin:miter;stroke:rgb(0%,0%,0%);stroke-opacity:1;stroke-miterlimit:10;" d="M 0.770798 0.132402 L 0.783298 0.03 " transform="matrix(600,0,0,-600,-414.419997,1634)"/>
<path style="fill:none;stroke-width:0.0051;stroke-linecap:round;stroke-linejoin:miter;stroke:rgb(0%,0%,0%);stroke-opacity:1;stroke-miterlimit:10;" d="M 0.783298 0.03 L 0.783298 2.58 " transform="matrix(600,0,0,-600,-414.419997,1634)"/>
<path style="fill:none;stroke-width:0.0051;stroke-linecap:round;stroke-linejoin:miter;stroke:rgb(0%,0%,0%);stroke-opacity:1;stroke-miterlimit:10;" d="M 0.783298 2.58 L 0.793597 2.477598 " transform="matrix(600,0,0,-600,-414.419997,1634)"/>
<path style="fill:none;stroke-width:0.0051;stroke-linecap:round;stroke-linejoin:miter;stroke:rgb(0%,0%,0%);stroke-opacity:1;stroke-miterlimit:10;" d="M 0.795902 2.477598 L 0.783298 2.58 " transform="matrix(600,0,0,-600,-414.419997,1634)"/>
<path style="fill:none;stroke-width:0.0051;stroke-linecap:round;stroke-linejoin:miter;stroke:rgb(0%,0%,0%);stroke-opacity:1;stroke-miterlimit:10;" d="M 0.783298 2.58 L 0.773102 2.477598 " transform="matrix(600,0,0,-600,-414.419997,1634)"/>
<path style="fill:none;stroke-width:0.0051;stroke-linecap:round;stroke-linejoin:miter;stroke:rgb(0%,0%,0%);stroke-opacity:1;stroke-miterlimit:10;" d="M 0.770798 2.477598 L 0.795902 2.477598 " transform="matrix(600,0,0,-600,-414.419997,1634)"/>
<path style="fill:none;stroke-width:0.0051;stroke-linecap:round;stroke-linejoin:miter;stroke:rgb(0%,0%,0%);stroke-opacity:1;stroke-miterlimit:10;" d="M 0.788499 2.477598 L 0.783298 2.58 " transform="matrix(600,0,0,-600,-414.419997,1634)"/>
<path style="fill:none;stroke-width:0.0051;stroke-linecap:round;stroke-linejoin:miter;stroke:rgb(0%,0%,0%);stroke-opacity:1;stroke-miterlimit:10;" d="M 0.783298 2.58 L 0.7782 2.477598 " transform="matrix(600,0,0,-600,-414.419997,1634)"/>
<path style="fill:none;stroke-width:0.0051;stroke-linecap:round;stroke-linejoin:miter;stroke:rgb(0%,0%,0%);stroke-opacity:1;stroke-miterlimit:10;" d="M 0.770798 2.477598 L 0.783298 2.58 " transform="matrix(600,0,0,-600,-414.419997,1634)"/>
<path style="fill:none;stroke-width:0.0051;stroke-linecap:round;stroke-linejoin:miter;stroke:rgb(0%,0%,0%);stroke-opacity:1;stroke-miterlimit:10;" d="M 0.833298 2.58 L 0.706598 2.58 " transform="matrix(600,0,0,-600,-414.419997,1634)"/>
<path style="fill:none;stroke-width:0.0051;stroke-linecap:round;stroke-linejoin:miter;stroke:rgb(0%,0%,0%);stroke-opacity:1;stroke-miterlimit:10;" d="M 0.833298 2.58 L 0.833402 2.707201 " transform="matrix(600,0,0,-600,-414.419997,1634)"/>
<path style="fill:none;stroke-width:0.0051;stroke-linecap:round;stroke-linejoin:miter;stroke:rgb(0%,0%,0%);stroke-opacity:1;stroke-miterlimit:10;" d="M 0.833298 2.630397 L 0.9357 2.620098 " transform="matrix(600,0,0,-600,-414.419997,1634)"/>
<path style="fill:none;stroke-width:0.0051;stroke-linecap:round;stroke-linejoin:miter;stroke:rgb(0%,0%,0%);stroke-opacity:1;stroke-miterlimit:10;" d="M 0.9357 2.617799 L 0.833298 2.630397 " transform="matrix(600,0,0,-600,-414.419997,1634)"/>
<path style="fill:none;stroke-width:0.0051;stroke-linecap:round;stroke-linejoin:miter;stroke:rgb(0%,0%,0%);stroke-opacity:1;stroke-miterlimit:10;" d="M 0.833298 2.630397 L 0.9357 2.640599 " transform="matrix(600,0,0,-600,-414.419997,1634)"/>
<path style="fill:none;stroke-width:0.0051;stroke-linecap:round;stroke-linejoin:miter;stroke:rgb(0%,0%,0%);stroke-opacity:1;stroke-miterlimit:10;" d="M 0.9357 2.642897 L 0.9357 2.617799 " transform="matrix(600,0,0,-600,-414.419997,1634)"/>
<path style="fill:none;stroke-width:0.0051;stroke-linecap:round;stroke-linejoin:miter;stroke:rgb(0%,0%,0%);stroke-opacity:1;stroke-miterlimit:10;" d="M 0.9357 2.625299 L 0.833298 2.630397 " transform="matrix(600,0,0,-600,-414.419997,1634)"/>
<path style="fill:none;stroke-width:0.0051;stroke-linecap:round;stroke-linejoin:miter;stroke:rgb(0%,0%,0%);stroke-opacity:1;stroke-miterlimit:10;" d="M 0.833298 2.630397 L 0.9357 2.635501 " transform="matrix(600,0,0,-600,-414.419997,1634)"/>
<path style="fill:none;stroke-width:0.0051;stroke-linecap:round;stroke-linejoin:miter;stroke:rgb(0%,0%,0%);stroke-opacity:1;stroke-miterlimit:10;" d="M 0.9357 2.642897 L 0.833298 2.630397 " transform="matrix(600,0,0,-600,-414.419997,1634)"/>
<path style="fill:none;stroke-width:0.0051;stroke-linecap:round;stroke-linejoin:miter;stroke:rgb(0%,0%,0%);stroke-opacity:1;stroke-miterlimit:10;" d="M 0.833298 2.630397 L 2.570401 2.63 " transform="matrix(600,0,0,-600,-414.419997,1634)"/>
<path style="fill:none;stroke-width:0.0051;stroke-linecap:round;stroke-linejoin:miter;stroke:rgb(0%,0%,0%);stroke-opacity:1;stroke-miterlimit:10;" d="M 2.570401 2.63 L 2.467998 2.619798 " transform="matrix(600,0,0,-600,-414.419997,1634)"/>
<path style="fill:none;stroke-width:0.0051;stroke-linecap:round;stroke-linejoin:miter;stroke:rgb(0%,0%,0%);stroke-opacity:1;stroke-miterlimit:10;" d="M 2.467998 2.6175 L 2.570401 2.63 " transform="matrix(600,0,0,-600,-414.419997,1634)"/>
<path style="fill:none;stroke-width:0.0051;stroke-linecap:round;stroke-linejoin:miter;stroke:rgb(0%,0%,0%);stroke-opacity:1;stroke-miterlimit:10;" d="M 2.570401 2.63 L 2.467998 2.640299 " transform="matrix(600,0,0,-600,-414.419997,1634)"/>
<path style="fill:none;stroke-width:0.0051;stroke-linecap:round;stroke-linejoin:miter;stroke:rgb(0%,0%,0%);stroke-opacity:1;stroke-miterlimit:10;" d="M 2.467998 2.642598 L 2.467998 2.6175 " transform="matrix(600,0,0,-600,-414.419997,1634)"/>
<path style="fill:none;stroke-width:0.0051;stroke-linecap:round;stroke-linejoin:miter;stroke:rgb(0%,0%,0%);stroke-opacity:1;stroke-miterlimit:10;" d="M 2.467998 2.624902 L 2.570401 2.63 " transform="matrix(600,0,0,-600,-414.419997,1634)"/>
<path style="fill:none;stroke-width:0.0051;stroke-linecap:round;stroke-linejoin:miter;stroke:rgb(0%,0%,0%);stroke-opacity:1;stroke-miterlimit:10;" d="M 2.570401 2.63 L 2.467998 2.635098 " transform="matrix(600,0,0,-600,-414.419997,1634)"/>
<path style="fill:none;stroke-width:0.0051;stroke-linecap:round;stroke-linejoin:miter;stroke:rgb(0%,0%,0%);stroke-opacity:1;stroke-miterlimit:10;" d="M 2.467998 2.642598 L 2.570401 2.63 " transform="matrix(600,0,0,-600,-414.419997,1634)"/>
<path style="fill:none;stroke-width:0.0051;stroke-linecap:round;stroke-linejoin:miter;stroke:rgb(0%,0%,0%);stroke-opacity:1;stroke-miterlimit:10;" d="M 2.570303 2.579603 L 2.570401 2.706797 " transform="matrix(600,0,0,-600,-414.419997,1634)"/>
<path style="fill:none;stroke-width:0.011;stroke-linecap:round;stroke-linejoin:miter;stroke:rgb(0%,0%,0%);stroke-opacity:1;stroke-miterlimit:10;" d="M 1.827302 2.707598 L 1.817399 2.717402 " transform="matrix(600,0,0,-600,-414.419997,1634)"/>
<path style="fill:none;stroke-width:0.011;stroke-linecap:round;stroke-linejoin:miter;stroke:rgb(0%,0%,0%);stroke-opacity:1;stroke-miterlimit:10;" d="M 1.817399 2.717402 L 1.797803 2.717402 " transform="matrix(600,0,0,-600,-414.419997,1634)"/>
<path style="fill:none;stroke-width:0.011;stroke-linecap:round;stroke-linejoin:miter;stroke:rgb(0%,0%,0%);stroke-opacity:1;stroke-miterlimit:10;" d="M 1.797803 2.717402 L 1.787901 2.707598 " transform="matrix(600,0,0,-600,-414.419997,1634)"/>
<path style="fill:none;stroke-width:0.011;stroke-linecap:round;stroke-linejoin:miter;stroke:rgb(0%,0%,0%);stroke-opacity:1;stroke-miterlimit:10;" d="M 1.827302 2.707598 L 1.827302 2.697702 " transform="matrix(600,0,0,-600,-414.419997,1634)"/>
<path style="fill:none;stroke-width:0.011;stroke-linecap:round;stroke-linejoin:miter;stroke:rgb(0%,0%,0%);stroke-opacity:1;stroke-miterlimit:10;" d="M 1.827302 2.697702 L 1.787901 2.658398 " transform="matrix(600,0,0,-600,-414.419997,1634)"/>
<path style="fill:none;stroke-width:0.011;stroke-linecap:round;stroke-linejoin:miter;stroke:rgb(0%,0%,0%);stroke-opacity:1;stroke-miterlimit:10;" d="M 1.787901 2.658398 L 1.827302 2.658398 " transform="matrix(600,0,0,-600,-414.419997,1634)"/>
<path style="fill:none;stroke-width:0.011;stroke-linecap:round;stroke-linejoin:miter;stroke:rgb(0%,0%,0%);stroke-opacity:1;stroke-miterlimit:10;" d="M 1.762803 2.658398 L 1.723499 2.658398 " transform="matrix(600,0,0,-600,-414.419997,1634)"/>
<path style="fill:none;stroke-width:0.011;stroke-linecap:round;stroke-linejoin:miter;stroke:rgb(0%,0%,0%);stroke-opacity:1;stroke-miterlimit:10;" d="M 1.7432 2.658398 L 1.7432 2.717402 " transform="matrix(600,0,0,-600,-414.419997,1634)"/>
<path style="fill:none;stroke-width:0.011;stroke-linecap:round;stroke-linejoin:miter;stroke:rgb(0%,0%,0%);stroke-opacity:1;stroke-miterlimit:10;" d="M 1.7432 2.717402 L 1.723499 2.697702 " transform="matrix(600,0,0,-600,-414.419997,1634)"/>
<path style="fill:none;stroke-width:0.011;stroke-linecap:round;stroke-linejoin:miter;stroke:rgb(0%,0%,0%);stroke-opacity:1;stroke-miterlimit:10;" d="M 1.701097 2.668203 L 1.701097 2.658398 " transform="matrix(600,0,0,-600,-414.419997,1634)"/>
<path style="fill:none;stroke-width:0.011;stroke-linecap:round;stroke-linejoin:miter;stroke:rgb(0%,0%,0%);stroke-opacity:1;stroke-miterlimit:10;" d="M 1.701097 2.658398 L 1.691201 2.658398 " transform="matrix(600,0,0,-600,-414.419997,1634)"/>
<path style="fill:none;stroke-width:0.011;stroke-linecap:round;stroke-linejoin:miter;stroke:rgb(0%,0%,0%);stroke-opacity:1;stroke-miterlimit:10;" d="M 1.691201 2.658398 L 1.691201 2.668203 " transform="matrix(600,0,0,-600,-414.419997,1634)"/>
<path style="fill:none;stroke-width:0.011;stroke-linecap:round;stroke-linejoin:miter;stroke:rgb(0%,0%,0%);stroke-opacity:1;stroke-miterlimit:10;" d="M 1.691201 2.668203 L 1.701097 2.668203 " transform="matrix(600,0,0,-600,-414.419997,1634)"/>
<path style="fill:none;stroke-width:0.011;stroke-linecap:round;stroke-linejoin:miter;stroke:rgb(0%,0%,0%);stroke-opacity:1;stroke-miterlimit:10;" d="M 1.666201 2.687897 L 1.6268 2.687897 " transform="matrix(600,0,0,-600,-414.419997,1634)"/>
<path style="fill:none;stroke-width:0.011;stroke-linecap:round;stroke-linejoin:miter;stroke:rgb(0%,0%,0%);stroke-opacity:1;stroke-miterlimit:10;" d="M 1.6268 2.687897 L 1.656299 2.717402 " transform="matrix(600,0,0,-600,-414.419997,1634)"/>
<path style="fill:none;stroke-width:0.011;stroke-linecap:round;stroke-linejoin:miter;stroke:rgb(0%,0%,0%);stroke-opacity:1;stroke-miterlimit:10;" d="M 1.656299 2.717402 L 1.656299 2.658398 " transform="matrix(600,0,0,-600,-414.419997,1634)"/>
<path style="fill:none;stroke-width:0.011;stroke-linecap:round;stroke-linejoin:miter;stroke:rgb(0%,0%,0%);stroke-opacity:1;stroke-miterlimit:10;" d="M 1.601703 2.687897 L 1.562302 2.687897 " transform="matrix(600,0,0,-600,-414.419997,1634)"/>
<path style="fill:none;stroke-width:0.011;stroke-linecap:round;stroke-linejoin:miter;stroke:rgb(0%,0%,0%);stroke-opacity:1;stroke-miterlimit:10;" d="M 1.562302 2.687897 L 1.591898 2.717402 " transform="matrix(600,0,0,-600,-414.419997,1634)"/>
<path style="fill:none;stroke-width:0.011;stroke-linecap:round;stroke-linejoin:miter;stroke:rgb(0%,0%,0%);stroke-opacity:1;stroke-miterlimit:10;" d="M 1.591898 2.717402 L 1.591898 2.658398 " transform="matrix(600,0,0,-600,-414.419997,1634)"/>
<path style="fill:none;stroke-width:0.011;stroke-linecap:round;stroke-linejoin:miter;stroke:rgb(0%,0%,0%);stroke-opacity:1;stroke-miterlimit:10;" d="M 0.705999 1.430397 L 0.745401 1.3911 " transform="matrix(600,0,0,-600,-414.419997,1634)"/>
<path style="fill:none;stroke-width:0.011;stroke-linecap:round;stroke-linejoin:miter;stroke:rgb(0%,0%,0%);stroke-opacity:1;stroke-miterlimit:10;" d="M 0.745401 1.3911 L 0.755199 1.3911 " transform="matrix(600,0,0,-600,-414.419997,1634)"/>
<path style="fill:none;stroke-width:0.011;stroke-linecap:round;stroke-linejoin:miter;stroke:rgb(0%,0%,0%);stroke-opacity:1;stroke-miterlimit:10;" d="M 0.705999 1.366003 L 0.745401 1.326602 " transform="matrix(600,0,0,-600,-414.419997,1634)"/>
<path style="fill:none;stroke-width:0.011;stroke-linecap:round;stroke-linejoin:miter;stroke:rgb(0%,0%,0%);stroke-opacity:1;stroke-miterlimit:10;" d="M 0.745401 1.326602 L 0.755199 1.326602 " transform="matrix(600,0,0,-600,-414.419997,1634)"/>
<path style="fill:none;stroke-width:0.011;stroke-linecap:round;stroke-linejoin:miter;stroke:rgb(0%,0%,0%);stroke-opacity:1;stroke-miterlimit:10;" d="M 0.755199 1.304199 L 0.755199 1.294401 " transform="matrix(600,0,0,-600,-414.419997,1634)"/>
<path style="fill:none;stroke-width:0.011;stroke-linecap:round;stroke-linejoin:miter;stroke:rgb(0%,0%,0%);stroke-opacity:1;stroke-miterlimit:10;" d="M 0.755199 1.294401 L 0.745401 1.294401 " transform="matrix(600,0,0,-600,-414.419997,1634)"/>
<path style="fill:none;stroke-width:0.011;stroke-linecap:round;stroke-linejoin:miter;stroke:rgb(0%,0%,0%);stroke-opacity:1;stroke-miterlimit:10;" d="M 0.745401 1.294401 L 0.745401 1.304199 " transform="matrix(600,0,0,-600,-414.419997,1634)"/>
<path style="fill:none;stroke-width:0.011;stroke-linecap:round;stroke-linejoin:miter;stroke:rgb(0%,0%,0%);stroke-opacity:1;stroke-miterlimit:10;" d="M 0.745401 1.304199 L 0.755199 1.304199 " transform="matrix(600,0,0,-600,-414.419997,1634)"/>
<path style="fill:none;stroke-width:0.011;stroke-linecap:round;stroke-linejoin:miter;stroke:rgb(0%,0%,0%);stroke-opacity:1;stroke-miterlimit:10;" d="M 0.7257 1.269297 L 0.7257 1.229902 " transform="matrix(600,0,0,-600,-414.419997,1634)"/>
<path style="fill:none;stroke-width:0.011;stroke-linecap:round;stroke-linejoin:miter;stroke:rgb(0%,0%,0%);stroke-opacity:1;stroke-miterlimit:10;" d="M 0.7257 1.229902 L 0.696201 1.259499 " transform="matrix(600,0,0,-600,-414.419997,1634)"/>
<path style="fill:none;stroke-width:0.011;stroke-linecap:round;stroke-linejoin:miter;stroke:rgb(0%,0%,0%);stroke-opacity:1;stroke-miterlimit:10;" d="M 0.696201 1.259499 L 0.755199 1.259499 " transform="matrix(600,0,0,-600,-414.419997,1634)"/>
<path style="fill:none;stroke-width:0.011;stroke-linecap:round;stroke-linejoin:miter;stroke:rgb(0%,0%,0%);stroke-opacity:1;stroke-miterlimit:10;" d="M 0.745401 1.204798 L 0.735498 1.204798 " transform="matrix(600,0,0,-600,-414.419997,1634)"/>
<path style="fill:none;stroke-width:0.011;stroke-linecap:round;stroke-linejoin:miter;stroke:rgb(0%,0%,0%);stroke-opacity:1;stroke-miterlimit:10;" d="M 0.735498 1.204798 L 0.7257 1.195 " transform="matrix(600,0,0,-600,-414.419997,1634)"/>
<path style="fill:none;stroke-width:0.011;stroke-linecap:round;stroke-linejoin:miter;stroke:rgb(0%,0%,0%);stroke-opacity:1;stroke-miterlimit:10;" d="M 0.7257 1.195 L 0.7257 1.165501 " transform="matrix(600,0,0,-600,-414.419997,1634)"/>
<path style="fill:none;stroke-width:0.011;stroke-linecap:round;stroke-linejoin:miter;stroke:rgb(0%,0%,0%);stroke-opacity:1;stroke-miterlimit:10;" d="M 0.7257 1.165501 L 0.745401 1.165501 " transform="matrix(600,0,0,-600,-414.419997,1634)"/>
<path style="fill:none;stroke-width:0.011;stroke-linecap:round;stroke-linejoin:miter;stroke:rgb(0%,0%,0%);stroke-opacity:1;stroke-miterlimit:10;" d="M 0.745401 1.165501 L 0.755199 1.175299 " transform="matrix(600,0,0,-600,-414.419997,1634)"/>
<path style="fill:none;stroke-width:0.011;stroke-linecap:round;stroke-linejoin:miter;stroke:rgb(0%,0%,0%);stroke-opacity:1;stroke-miterlimit:10;" d="M 0.755199 1.175299 L 0.755199 1.195 " transform="matrix(600,0,0,-600,-414.419997,1634)"/>
<path style="fill:none;stroke-width:0.011;stroke-linecap:round;stroke-linejoin:miter;stroke:rgb(0%,0%,0%);stroke-opacity:1;stroke-miterlimit:10;" d="M 0.755199 1.195 L 0.745401 1.204798 " transform="matrix(600,0,0,-600,-414.419997,1634)"/>
<path style="fill:none;stroke-width:0.011;stroke-linecap:round;stroke-linejoin:miter;stroke:rgb(0%,0%,0%);stroke-opacity:1;stroke-miterlimit:10;" d="M 0.7257 1.165501 L 0.705999 1.185202 " transform="matrix(600,0,0,-600,-414.419997,1634)"/>
<path style="fill:none;stroke-width:0.011;stroke-linecap:round;stroke-linejoin:miter;stroke:rgb(0%,0%,0%);stroke-opacity:1;stroke-miterlimit:10;" d="M 0.705999 1.185202 L 0.696201 1.204798 " transform="matrix(600,0,0,-600,-414.419997,1634)"/>
<path style="fill:none;stroke-width:0.011;stroke-linecap:round;stroke-linejoin:miter;stroke:rgb(0%,0%,0%);stroke-opacity:1;stroke-miterlimit:10;" d="M 0.696201 1.326602 L 0.696201 1.366003 " transform="matrix(600,0,0,-600,-414.419997,1634)"/>
<path style="fill:none;stroke-width:0.011;stroke-linecap:round;stroke-linejoin:miter;stroke:rgb(0%,0%,0%);stroke-opacity:1;stroke-miterlimit:10;" d="M 0.696201 1.366003 L 0.705999 1.366003 " transform="matrix(600,0,0,-600,-414.419997,1634)"/>
<path style="fill:none;stroke-width:0.011;stroke-linecap:round;stroke-linejoin:miter;stroke:rgb(0%,0%,0%);stroke-opacity:1;stroke-miterlimit:10;" d="M 0.696201 1.3911 L 0.696201 1.430397 " transform="matrix(600,0,0,-600,-414.419997,1634)"/>
<path style="fill:none;stroke-width:0.011;stroke-linecap:round;stroke-linejoin:miter;stroke:rgb(0%,0%,0%);stroke-opacity:1;stroke-miterlimit:10;" d="M 0.696201 1.430397 L 0.705999 1.430397 " transform="matrix(600,0,0,-600,-414.419997,1634)"/>
<path style="fill:none;stroke-width:0.052;stroke-linecap:round;stroke-linejoin:miter;stroke:rgb(0%,0%,0%);stroke-opacity:1;stroke-miterlimit:10;" d="M 1.457302 0.88 L 1.5093 0.88 " transform="matrix(600,0,0,-600,-414.419997,1634)"/>
<path style="fill:none;stroke-width:0.052;stroke-linecap:round;stroke-linejoin:miter;stroke:rgb(0%,0%,0%);stroke-opacity:1;stroke-miterlimit:10;" d="M 1.5093 0.98 L 1.457302 0.98 " transform="matrix(600,0,0,-600,-414.419997,1634)"/>
<path style="fill:none;stroke-width:0.052;stroke-linecap:round;stroke-linejoin:miter;stroke:rgb(0%,0%,0%);stroke-opacity:1;stroke-miterlimit:10;" d="M 1.457302 1.08 L 1.5093 1.08 " transform="matrix(600,0,0,-600,-414.419997,1634)"/>
<path style="fill:none;stroke-width:0.052;stroke-linecap:round;stroke-linejoin:miter;stroke:rgb(0%,0%,0%);stroke-opacity:1;stroke-miterlimit:10;" d="M 1.5093 1.18 L 1.457302 1.18 " transform="matrix(600,0,0,-600,-414.419997,1634)"/>
<path style="fill:none;stroke-width:0.052;stroke-linecap:round;stroke-linejoin:miter;stroke:rgb(0%,0%,0%);stroke-opacity:1;stroke-miterlimit:10;" d="M 1.457302 1.28 L 1.5093 1.28 " transform="matrix(600,0,0,-600,-414.419997,1634)"/>
<path style="fill:none;stroke-width:0.052;stroke-linecap:round;stroke-linejoin:miter;stroke:rgb(0%,0%,0%);stroke-opacity:1;stroke-miterlimit:10;" d="M 1.5093 1.38 L 1.457302 1.38 " transform="matrix(600,0,0,-600,-414.419997,1634)"/>
<path style="fill:none;stroke-width:0.052;stroke-linecap:round;stroke-linejoin:miter;stroke:rgb(0%,0%,0%);stroke-opacity:1;stroke-miterlimit:10;" d="M 1.457302 1.48 L 1.5093 1.48 " transform="matrix(600,0,0,-600,-414.419997,1634)"/>
<path style="fill:none;stroke-width:0.052;stroke-linecap:round;stroke-linejoin:miter;stroke:rgb(0%,0%,0%);stroke-opacity:1;stroke-miterlimit:10;" d="M 1.5093 1.58 L 1.457302 1.58 " transform="matrix(600,0,0,-600,-414.419997,1634)"/>
<path style="fill:none;stroke-width:0.052;stroke-linecap:round;stroke-linejoin:miter;stroke:rgb(0%,0%,0%);stroke-opacity:1;stroke-miterlimit:10;" d="M 1.457302 1.68 L 1.5093 1.68 " transform="matrix(600,0,0,-600,-414.419997,1634)"/>
<path style="fill:none;stroke-width:0.052;stroke-linecap:round;stroke-linejoin:miter;stroke:rgb(0%,0%,0%);stroke-opacity:1;stroke-miterlimit:10;" d="M 1.5093 1.78 L 1.457302 1.78 " transform="matrix(600,0,0,-600,-414.419997,1634)"/>
<path style="fill:none;stroke-width:0.052;stroke-linecap:round;stroke-linejoin:miter;stroke:rgb(0%,0%,0%);stroke-opacity:1;stroke-miterlimit:10;" d="M 1.283298 1.506003 L 1.283298 1.453997 " transform="matrix(600,0,0,-600,-414.419997,1634)"/>
<path style="fill:none;stroke-width:0.052;stroke-linecap:round;stroke-linejoin:miter;stroke:rgb(0%,0%,0%);stroke-opacity:1;stroke-miterlimit:10;" d="M 1.183298 1.453997 L 1.183298 1.506003 " transform="matrix(600,0,0,-600,-414.419997,1634)"/>
<path style="fill:none;stroke-width:0.052;stroke-linecap:round;stroke-linejoin:miter;stroke:rgb(0%,0%,0%);stroke-opacity:1;stroke-miterlimit:10;" d="M 1.183298 1.306003 L 1.183298 1.253997 " transform="matrix(600,0,0,-600,-414.419997,1634)"/>
<path style="fill:none;stroke-width:0.052;stroke-linecap:round;stroke-linejoin:miter;stroke:rgb(0%,0%,0%);stroke-opacity:1;stroke-miterlimit:10;" d="M 1.283298 1.253997 L 1.283298 1.306003 " transform="matrix(600,0,0,-600,-414.419997,1634)"/>
<path style="fill:none;stroke-width:0.052;stroke-linecap:round;stroke-linejoin:miter;stroke:rgb(0%,0%,0%);stroke-opacity:1;stroke-miterlimit:10;" d="M 1.283298 1.106003 L 1.283298 1.053997 " transform="matrix(600,0,0,-600,-414.419997,1634)"/>
<path style="fill:none;stroke-width:0.052;stroke-linecap:round;stroke-linejoin:miter;stroke:rgb(0%,0%,0%);stroke-opacity:1;stroke-miterlimit:10;" d="M 1.183298 1.053997 L 1.183298 1.106003 " transform="matrix(600,0,0,-600,-414.419997,1634)"/>
<path style="fill:none;stroke-width:0.052;stroke-linecap:round;stroke-linejoin:miter;stroke:rgb(0%,0%,0%);stroke-opacity:1;stroke-miterlimit:10;" d="M 1.857302 1.08 L 1.9093 1.08 " transform="matrix(600,0,0,-600,-414.419997,1634)"/>
<path style="fill:none;stroke-width:0.052;stroke-linecap:round;stroke-linejoin:miter;stroke:rgb(0%,0%,0%);stroke-opacity:1;stroke-miterlimit:10;" d="M 1.9093 1.18 L 1.857302 1.18 " transform="matrix(600,0,0,-600,-414.419997,1634)"/>
<path style="fill:none;stroke-width:0.052;stroke-linecap:round;stroke-linejoin:miter;stroke:rgb(0%,0%,0%);stroke-opacity:1;stroke-miterlimit:10;" d="M 1.857302 1.28 L 1.9093 1.28 " transform="matrix(600,0,0,-600,-414.419997,1634)"/>
<path style="fill:none;stroke-width:0.052;stroke-linecap:round;stroke-linejoin:miter;stroke:rgb(0%,0%,0%);stroke-opacity:1;stroke-miterlimit:10;" d="M 1.9093 1.38 L 1.857302 1.38 " transform="matrix(600,0,0,-600,-414.419997,1634)"/>
<path style="fill:none;stroke-width:0.052;stroke-linecap:round;stroke-linejoin:miter;stroke:rgb(0%,0%,0%);stroke-opacity:1;stroke-miterlimit:10;" d="M 1.857302 1.48 L 1.9093 1.48 " transform="matrix(600,0,0,-600,-414.419997,1634)"/>
<path style="fill:none;stroke-width:0.052;stroke-linecap:round;stroke-linejoin:miter;stroke:rgb(0%,0%,0%);stroke-opacity:1;stroke-miterlimit:10;" d="M 1.9093 1.58 L 1.857302 1.58 " transform="matrix(600,0,0,-600,-414.419997,1634)"/>
<path style="fill:none;stroke-width:0.052;stroke-linecap:round;stroke-linejoin:miter;stroke:rgb(0%,0%,0%);stroke-opacity:1;stroke-miterlimit:10;" d="M 1.857302 1.68 L 1.9093 1.68 " transform="matrix(600,0,0,-600,-414.419997,1634)"/>
<path style="fill:none;stroke-width:0.052;stroke-linecap:round;stroke-linejoin:miter;stroke:rgb(0%,0%,0%);stroke-opacity:1;stroke-miterlimit:10;" d="M 1.9093 1.78 L 1.857302 1.78 " transform="matrix(600,0,0,-600,-414.419997,1634)"/>
<path style="fill:none;stroke-width:0.052;stroke-linecap:round;stroke-linejoin:miter;stroke:rgb(0%,0%,0%);stroke-opacity:1;stroke-miterlimit:10;" d="M 2.083298 1.706003 L 2.083298 1.653997 " transform="matrix(600,0,0,-600,-414.419997,1634)"/>
<path style="fill:none;stroke-width:0.052;stroke-linecap:round;stroke-linejoin:miter;stroke:rgb(0%,0%,0%);stroke-opacity:1;stroke-miterlimit:10;" d="M 2.183298 1.653997 L 2.183298 1.706003 " transform="matrix(600,0,0,-600,-414.419997,1634)"/>
<path style="fill:none;stroke-width:0.052;stroke-linecap:round;stroke-linejoin:miter;stroke:rgb(0%,0%,0%);stroke-opacity:1;stroke-miterlimit:10;" d="M 2.183298 1.506003 L 2.183298 1.453997 " transform="matrix(600,0,0,-600,-414.419997,1634)"/>
<path style="fill:none;stroke-width:0.052;stroke-linecap:round;stroke-linejoin:miter;stroke:rgb(0%,0%,0%);stroke-opacity:1;stroke-miterlimit:10;" d="M 2.083298 1.453997 L 2.083298 1.506003 " transform="matrix(600,0,0,-600,-414.419997,1634)"/>
<path style="fill:none;stroke-width:0.052;stroke-linecap:round;stroke-linejoin:miter;stroke:rgb(0%,0%,0%);stroke-opacity:1;stroke-miterlimit:10;" d="M 2.083298 1.306003 L 2.083298 1.253997 " transform="matrix(600,0,0,-600,-414.419997,1634)"/>
<path style="fill:none;stroke-width:0.052;stroke-linecap:round;stroke-linejoin:miter;stroke:rgb(0%,0%,0%);stroke-opacity:1;stroke-miterlimit:10;" d="M 2.183298 1.253997 L 2.183298 1.306003 " transform="matrix(600,0,0,-600,-414.419997,1634)"/>
<path style="fill:none;stroke-width:0.052;stroke-linecap:round;stroke-linejoin:miter;stroke:rgb(0%,0%,0%);stroke-opacity:1;stroke-miterlimit:10;" d="M 2.183298 1.106003 L 2.183298 1.053997 " transform="matrix(600,0,0,-600,-414.419997,1634)"/>
<path style="fill:none;stroke-width:0.052;stroke-linecap:round;stroke-linejoin:miter;stroke:rgb(0%,0%,0%);stroke-opacity:1;stroke-miterlimit:10;" d="M 2.083298 1.053997 L 2.083298 1.106003 " transform="matrix(600,0,0,-600,-414.419997,1634)"/>
<path style="fill:none;stroke-width:0.052;stroke-linecap:round;stroke-linejoin:miter;stroke:rgb(0%,0%,0%);stroke-opacity:1;stroke-miterlimit:10;" d="M 1.9093 0.98 L 1.857302 0.98 " transform="matrix(600,0,0,-600,-414.419997,1634)"/>
<path style="fill:none;stroke-width:0.052;stroke-linecap:round;stroke-linejoin:miter;stroke:rgb(0%,0%,0%);stroke-opacity:1;stroke-miterlimit:10;" d="M 1.857302 0.88 L 1.9093 0.88 " transform="matrix(600,0,0,-600,-414.419997,1634)"/>
<path style="fill:none;stroke-width:0.06;stroke-linecap:round;stroke-linejoin:miter;stroke:rgb(0%,0%,0%);stroke-opacity:1;stroke-miterlimit:10;" d="M 2.033298 0.36 L 2.033298 0.3 " transform="matrix(600,0,0,-600,-414.419997,1634)"/>
<path style="fill:none;stroke-width:0.06;stroke-linecap:round;stroke-linejoin:miter;stroke:rgb(0%,0%,0%);stroke-opacity:1;stroke-miterlimit:10;" d="M 2.133298 0.3 L 2.133298 0.36 " transform="matrix(600,0,0,-600,-414.419997,1634)"/>
<path style="fill:none;stroke-width:0.06;stroke-linecap:round;stroke-linejoin:miter;stroke:rgb(0%,0%,0%);stroke-opacity:1;stroke-miterlimit:10;" d="M 2.233298 0.36 L 2.233298 0.3 " transform="matrix(600,0,0,-600,-414.419997,1634)"/>
<path style="fill:none;stroke-width:0.06;stroke-linecap:round;stroke-linejoin:miter;stroke:rgb(0%,0%,0%);stroke-opacity:1;stroke-miterlimit:10;" d="M 1.783298 0.3 L 1.783298 0.36 " transform="matrix(600,0,0,-600,-414.419997,1634)"/>
<path style="fill:none;stroke-width:0.06;stroke-linecap:round;stroke-linejoin:miter;stroke:rgb(0%,0%,0%);stroke-opacity:1;stroke-miterlimit:10;" d="M 1.683298 0.36 L 1.683298 0.3 " transform="matrix(600,0,0,-600,-414.419997,1634)"/>
<path style="fill:none;stroke-width:0.06;stroke-linecap:round;stroke-linejoin:miter;stroke:rgb(0%,0%,0%);stroke-opacity:1;stroke-miterlimit:10;" d="M 1.583298 0.3 L 1.583298 0.36 " transform="matrix(600,0,0,-600,-414.419997,1634)"/>
<path style="fill:none;stroke-width:0.06;stroke-linecap:round;stroke-linejoin:miter;stroke:rgb(0%,0%,0%);stroke-opacity:1;stroke-miterlimit:10;" d="M 1.283298 0.36 L 1.283298 0.3 " transform="matrix(600,0,0,-600,-414.419997,1634)"/>
<path style="fill:none;stroke-width:0.06;stroke-linecap:round;stroke-linejoin:miter;stroke:rgb(0%,0%,0%);stroke-opacity:1;stroke-miterlimit:10;" d="M 1.183298 0.3 L 1.183298 0.36 " transform="matrix(600,0,0,-600,-414.419997,1634)"/>
<path style="fill:none;stroke-width:0.06;stroke-linecap:round;stroke-linejoin:miter;stroke:rgb(0%,0%,0%);stroke-opacity:1;stroke-miterlimit:10;" d="M 1.333298 2.2 L 1.333298 2.26 " transform="matrix(600,0,0,-600,-414.419997,1634)"/>
<path style="fill:none;stroke-width:0.06;stroke-linecap:round;stroke-linejoin:miter;stroke:rgb(0%,0%,0%);stroke-opacity:1;stroke-miterlimit:10;" d="M 1.433298 2.26 L 1.433298 2.2 " transform="matrix(600,0,0,-600,-414.419997,1634)"/>
<path style="fill:none;stroke-width:0.06;stroke-linecap:round;stroke-linejoin:miter;stroke:rgb(0%,0%,0%);stroke-opacity:1;stroke-miterlimit:10;" d="M 1.533298 2.2 L 1.533298 2.26 " transform="matrix(600,0,0,-600,-414.419997,1634)"/>
<path style="fill:none;stroke-width:0.06;stroke-linecap:round;stroke-linejoin:miter;stroke:rgb(0%,0%,0%);stroke-opacity:1;stroke-miterlimit:10;" d="M 1.883298 2.26 L 1.883298 2.2 " transform="matrix(600,0,0,-600,-414.419997,1634)"/>
<path style="fill:none;stroke-width:0.06;stroke-linecap:round;stroke-linejoin:miter;stroke:rgb(0%,0%,0%);stroke-opacity:1;stroke-miterlimit:10;" d="M 1.983298 2.2 L 1.983298 2.26 " transform="matrix(600,0,0,-600,-414.419997,1634)"/>
<path style="fill:none;stroke-width:0.06;stroke-linecap:round;stroke-linejoin:miter;stroke:rgb(0%,0%,0%);stroke-opacity:1;stroke-miterlimit:10;" d="M 2.083298 2.26 L 2.083298 2.2 " transform="matrix(600,0,0,-600,-414.419997,1634)"/>
<path style=" stroke:none;fill-rule:evenodd;fill:rgb(0%,0%,0%);fill-opacity:1;" d="M 854.460938 408.171875 L 843.386719 397.101562 L 827.730469 397.101562 L 816.660156 408.171875 L 816.660156 423.828125 L 827.730469 434.898438 L 843.386719 434.898438 L 854.460938 423.828125 L 854.460938 408.171875 "/>
<path style=" stroke:none;fill-rule:evenodd;fill:rgb(0%,0%,0%);fill-opacity:1;" d="M 704.460938 408.171875 L 693.386719 397.101562 L 677.730469 397.101562 L 666.660156 408.171875 L 666.660156 423.828125 L 677.730469 434.898438 L 693.386719 434.898438 L 704.460938 423.828125 L 704.460938 408.171875 "/>
<path style=" stroke:none;fill-rule:evenodd;fill:rgb(0%,0%,0%);fill-opacity:1;" d="M 524.460938 408.171875 L 513.386719 397.101562 L 497.730469 397.101562 L 486.660156 408.171875 L 486.660156 423.828125 L 497.730469 434.898438 L 513.386719 434.898438 L 524.460938 423.828125 L 524.460938 408.171875 "/>
<path style=" stroke:none;fill-rule:evenodd;fill:rgb(0%,0%,0%);fill-opacity:1;" d="M 374.460938 408.171875 L 363.386719 397.101562 L 347.730469 397.101562 L 336.660156 408.171875 L 336.660156 423.828125 L 347.730469 434.898438 L 363.386719 434.898438 L 374.460938 423.828125 L 374.460938 408.171875 "/>
<path style=" stroke:none;fill-rule:evenodd;fill:rgb(0%,0%,0%);fill-opacity:1;" d="M 314.460938 588.171875 L 303.386719 577.101562 L 287.730469 577.101562 L 276.660156 588.171875 L 276.660156 603.828125 L 287.730469 614.898438 L 303.386719 614.898438 L 314.460938 603.828125 L 314.460938 588.171875 "/>
<path style=" stroke:none;fill-rule:evenodd;fill:rgb(0%,0%,0%);fill-opacity:1;" d="M 494.460938 1248.171875 L 483.386719 1237.101562 L 467.730469 1237.101562 L 456.660156 1248.171875 L 456.660156 1263.828125 L 467.730469 1274.898438 L 483.386719 1274.898438 L 494.460938 1263.828125 L 494.460938 1248.171875 "/>
<path style=" stroke:none;fill-rule:evenodd;fill:rgb(0%,0%,0%);fill-opacity:1;" d="M 734.460938 1248.171875 L 723.386719 1237.101562 L 707.730469 1237.101562 L 696.660156 1248.171875 L 696.660156 1263.828125 L 707.730469 1274.898438 L 723.386719 1274.898438 L 734.460938 1263.828125 L 734.460938 1248.171875 "/>
<path style=" stroke:none;fill-rule:evenodd;fill:rgb(0%,0%,0%);fill-opacity:1;" d="M 734.460938 1196 C 734.460938 1170.800781 696.660156 1170.800781 696.660156 1196 C 696.660156 1221.199219 734.460938 1221.199219 734.460938 1196 "/>
<path style=" stroke:none;fill-rule:evenodd;fill:rgb(0%,0%,0%);fill-opacity:1;" d="M 494.460938 1196 C 494.460938 1170.800781 456.660156 1170.800781 456.660156 1196 C 456.660156 1221.199219 494.460938 1221.199219 494.460938 1196 "/>
<path style=" stroke:none;fill-rule:evenodd;fill:rgb(0%,0%,0%);fill-opacity:1;" d="M 374.460938 596 C 374.460938 570.800781 336.660156 570.800781 336.660156 596 C 336.660156 621.199219 374.460938 621.199219 374.460938 596 "/>
<path style=" stroke:none;fill-rule:evenodd;fill:rgb(0%,0%,0%);fill-opacity:1;" d="M 374.460938 476 C 374.460938 450.800781 336.660156 450.800781 336.660156 476 C 336.660156 501.199219 374.460938 501.199219 374.460938 476 "/>
<path style=" stroke:none;fill-rule:evenodd;fill:rgb(0%,0%,0%);fill-opacity:1;" d="M 524.460938 476 C 524.460938 450.800781 486.660156 450.800781 486.660156 476 C 486.660156 501.199219 524.460938 501.199219 524.460938 476 "/>
<path style=" stroke:none;fill-rule:evenodd;fill:rgb(0%,0%,0%);fill-opacity:1;" d="M 704.460938 476 C 704.460938 450.800781 666.660156 450.800781 666.660156 476 C 666.660156 501.199219 704.460938 501.199219 704.460938 476 "/>
<path style=" stroke:none;fill-rule:evenodd;fill:rgb(0%,0%,0%);fill-opacity:1;" d="M 854.460938 476 C 854.460938 450.800781 816.660156 450.800781 816.660156 476 C 816.660156 501.199219 854.460938 501.199219 854.460938 476 "/>
<path style=" stroke:none;fill-rule:evenodd;fill:rgb(0%,0%,0%);fill-opacity:1;" d="M 238.558594 1526 C 238.558594 1491.207031 210.355469 1463 175.558594 1463 C 140.765625 1463 112.558594 1491.207031 112.558594 1526 C 112.558594 1560.792969 140.765625 1589 175.558594 1589 C 210.355469 1589 238.558594 1560.792969 238.558594 1526 "/>
<path style=" stroke:none;fill-rule:evenodd;fill:rgb(0%,0%,0%);fill-opacity:1;" d="M 1108.558594 1526 C 1108.558594 1491.207031 1080.355469 1463 1045.558594 1463 C 1010.765625 1463 982.558594 1491.207031 982.558594 1526 C 982.558594 1560.792969 1010.765625 1589 1045.558594 1589 C 1080.355469 1589 1108.558594 1560.792969 1108.558594 1526 "/>
<path style=" stroke:none;fill-rule:evenodd;fill:rgb(0%,0%,0%);fill-opacity:1;" d="M 1108.558594 176 C 1108.558594 141.207031 1080.355469 113 1045.558594 113 C 1010.765625 113 982.558594 141.207031 982.558594 176 C 982.558594 210.792969 1010.765625 239 1045.558594 239 C 1080.355469 239 1108.558594 210.792969 1108.558594 176 "/>
<path style=" stroke:none;fill-rule:evenodd;fill:rgb(0%,0%,0%);fill-opacity:1;" d="M 238.558594 176 C 238.558594 141.207031 210.355469 113 175.558594 113 C 140.765625 113 112.558594 141.207031 112.558594 176 C 112.558594 210.792969 140.765625 239 175.558594 239 C 210.355469 239 238.558594 210.792969 238.558594 176 "/>
<path style="fill:none;stroke-width:0.04;stroke-linecap:round;stroke-linejoin:miter;stroke:rgb(0%,0%,0%);stroke-opacity:1;stroke-miterlimit:10;" d="M 1.433298 0.48 L 1.683298 0.48 " transform="matrix(600,0,0,-600,-414.419997,1634)"/>
<path style=" stroke:none;fill-rule:evenodd;fill:rgb(0%,0%,0%);fill-opacity:1;" d="M 575.761719 1365.800781 L 615.363281 1365.800781 L 615.363281 1326.199219 L 575.761719 1326.199219 Z "/>
<path style=" stroke:none;fill-rule:evenodd;fill:rgb(0%,0%,0%);fill-opacity:1;" d="M 425.761719 1365.800781 L 465.363281 1365.800781 L 465.363281 1326.199219 L 425.761719 1326.199219 Z "/>
<path style=" stroke:none;fill-rule:evenodd;fill:rgb(100%,100%,100%);fill-opacity:1;" d="M 450.359375 1346 C 450.359375 1339.601562 440.761719 1339.601562 440.761719 1346 C 440.761719 1352.398438 450.359375 1352.398438 450.359375 1346 "/>
<path style=" stroke:none;fill-rule:evenodd;fill:rgb(100%,100%,100%);fill-opacity:1;" d="M 480.359375 1256 C 480.359375 1249.601562 470.761719 1249.601562 470.761719 1256 C 470.761719 1262.398438 480.359375 1262.398438 480.359375 1256 "/>
<path style=" stroke:none;fill-rule:evenodd;fill:rgb(100%,100%,100%);fill-opacity:1;" d="M 480.359375 1196 C 480.359375 1189.601562 470.761719 1189.601562 470.761719 1196 C 470.761719 1202.398438 480.359375 1202.398438 480.359375 1196 "/>
<path style=" stroke:none;fill-rule:evenodd;fill:rgb(100%,100%,100%);fill-opacity:1;" d="M 480.359375 1106 C 480.359375 1099.601562 470.761719 1099.601562 470.761719 1106 C 470.761719 1112.398438 480.359375 1112.398438 480.359375 1106 "/>
<path style=" stroke:none;fill-rule:evenodd;fill:rgb(100%,100%,100%);fill-opacity:1;" d="M 480.359375 1046 C 480.359375 1039.601562 470.761719 1039.601562 470.761719 1046 C 470.761719 1052.398438 480.359375 1052.398438 480.359375 1046 "/>
<path style=" stroke:none;fill-rule:evenodd;fill:rgb(100%,100%,100%);fill-opacity:1;" d="M 480.359375 986 C 480.359375 979.601562 470.761719 979.601562 470.761719 986 C 470.761719 992.398438 480.359375 992.398438 480.359375 986 "/>
<path style=" stroke:none;fill-rule:evenodd;fill:rgb(100%,100%,100%);fill-opacity:1;" d="M 480.359375 926 C 480.359375 919.601562 470.761719 919.601562 470.761719 926 C 470.761719 932.398438 480.359375 932.398438 480.359375 926 "/>
<path style=" stroke:none;fill-rule:evenodd;fill:rgb(100%,100%,100%);fill-opacity:1;" d="M 480.359375 866 C 480.359375 859.601562 470.761719 859.601562 470.761719 866 C 470.761719 872.398438 480.359375 872.398438 480.359375 866 "/>
<path style=" stroke:none;fill-rule:evenodd;fill:rgb(100%,100%,100%);fill-opacity:1;" d="M 480.359375 806 C 480.359375 799.601562 470.761719 799.601562 470.761719 806 C 470.761719 812.398438 480.359375 812.398438 480.359375 806 "/>
<path style=" stroke:none;fill-rule:evenodd;fill:rgb(100%,100%,100%);fill-opacity:1;" d="M 480.359375 746 C 480.359375 739.601562 470.761719 739.601562 470.761719 746 C 470.761719 752.398438 480.359375 752.398438 480.359375 746 "/>
<path style=" stroke:none;fill-rule:evenodd;fill:rgb(100%,100%,100%);fill-opacity:1;" d="M 480.359375 686 C 480.359375 679.601562 470.761719 679.601562 470.761719 686 C 470.761719 692.398438 480.359375 692.398438 480.359375 686 "/>
<path style=" stroke:none;fill-rule:evenodd;fill:rgb(100%,100%,100%);fill-opacity:1;" d="M 480.359375 626 C 480.359375 619.601562 470.761719 619.601562 470.761719 626 C 470.761719 632.398438 480.359375 632.398438 480.359375 626 "/>
<path style=" stroke:none;fill-rule:evenodd;fill:rgb(100%,100%,100%);fill-opacity:1;" d="M 480.359375 566 C 480.359375 559.601562 470.761719 559.601562 470.761719 566 C 470.761719 572.398438 480.359375 572.398438 480.359375 566 "/>
<path style=" stroke:none;fill-rule:evenodd;fill:rgb(100%,100%,100%);fill-opacity:1;" d="M 510.359375 476 C 510.359375 469.601562 500.761719 469.601562 500.761719 476 C 500.761719 482.398438 510.359375 482.398438 510.359375 476 "/>
<path style=" stroke:none;fill-rule:evenodd;fill:rgb(100%,100%,100%);fill-opacity:1;" d="M 510.359375 416 C 510.359375 409.601562 500.761719 409.601562 500.761719 416 C 500.761719 422.398438 510.359375 422.398438 510.359375 416 "/>
<path style=" stroke:none;fill-rule:evenodd;fill:rgb(100%,100%,100%);fill-opacity:1;" d="M 360.359375 416 C 360.359375 409.601562 350.761719 409.601562 350.761719 416 C 350.761719 422.398438 360.359375 422.398438 360.359375 416 "/>
<path style=" stroke:none;fill-rule:evenodd;fill:rgb(100%,100%,100%);fill-opacity:1;" d="M 360.359375 476 C 360.359375 469.601562 350.761719 469.601562 350.761719 476 C 350.761719 482.398438 360.359375 482.398438 360.359375 476 "/>
<path style=" stroke:none;fill-rule:evenodd;fill:rgb(100%,100%,100%);fill-opacity:1;" d="M 360.359375 596 C 360.359375 589.601562 350.761719 589.601562 350.761719 596 C 350.761719 602.398438 360.359375 602.398438 360.359375 596 "/>
<path style=" stroke:none;fill-rule:evenodd;fill:rgb(100%,100%,100%);fill-opacity:1;" d="M 300.359375 596 C 300.359375 589.601562 290.761719 589.601562 290.761719 596 C 290.761719 602.398438 300.359375 602.398438 300.359375 596 "/>
<path style=" stroke:none;fill-rule:evenodd;fill:rgb(100%,100%,100%);fill-opacity:1;" d="M 300.359375 746 C 300.359375 739.601562 290.761719 739.601562 290.761719 746 C 290.761719 752.398438 300.359375 752.398438 300.359375 746 "/>
<path style=" stroke:none;fill-rule:evenodd;fill:rgb(100%,100%,100%);fill-opacity:1;" d="M 360.359375 746 C 360.359375 739.601562 350.761719 739.601562 350.761719 746 C 350.761719 752.398438 360.359375 752.398438 360.359375 746 "/>
<path style=" stroke:none;fill-rule:evenodd;fill:rgb(100%,100%,100%);fill-opacity:1;" d="M 360.359375 866 C 360.359375 859.601562 350.761719 859.601562 350.761719 866 C 350.761719 872.398438 360.359375 872.398438 360.359375 866 "/>
<path style=" stroke:none;fill-rule:evenodd;fill:rgb(100%,100%,100%);fill-opacity:1;" d="M 300.359375 866 C 300.359375 859.601562 290.761719 859.601562 290.761719 866 C 290.761719 872.398438 300.359375 872.398438 300.359375 866 "/>
<path style=" stroke:none;fill-rule:evenodd;fill:rgb(100%,100%,100%);fill-opacity:1;" d="M 300.359375 986 C 300.359375 979.601562 290.761719 979.601562 290.761719 986 C 290.761719 992.398438 300.359375 992.398438 300.359375 986 "/>
<path style=" stroke:none;fill-rule:evenodd;fill:rgb(100%,100%,100%);fill-opacity:1;" d="M 360.359375 986 C 360.359375 979.601562 350.761719 979.601562 350.761719 986 C 350.761719 992.398438 360.359375 992.398438 360.359375 986 "/>
<path style=" stroke:none;fill-rule:evenodd;fill:rgb(100%,100%,100%);fill-opacity:1;" d="M 720.359375 986 C 720.359375 979.601562 710.761719 979.601562 710.761719 986 C 710.761719 992.398438 720.359375 992.398438 720.359375 986 "/>
<path style=" stroke:none;fill-rule:evenodd;fill:rgb(100%,100%,100%);fill-opacity:1;" d="M 720.359375 926 C 720.359375 919.601562 710.761719 919.601562 710.761719 926 C 710.761719 932.398438 720.359375 932.398438 720.359375 926 "/>
<path style=" stroke:none;fill-rule:evenodd;fill:rgb(100%,100%,100%);fill-opacity:1;" d="M 720.359375 866 C 720.359375 859.601562 710.761719 859.601562 710.761719 866 C 710.761719 872.398438 720.359375 872.398438 720.359375 866 "/>
<path style=" stroke:none;fill-rule:evenodd;fill:rgb(100%,100%,100%);fill-opacity:1;" d="M 720.359375 806 C 720.359375 799.601562 710.761719 799.601562 710.761719 806 C 710.761719 812.398438 720.359375 812.398438 720.359375 806 "/>
<path style=" stroke:none;fill-rule:evenodd;fill:rgb(100%,100%,100%);fill-opacity:1;" d="M 720.359375 746 C 720.359375 739.601562 710.761719 739.601562 710.761719 746 C 710.761719 752.398438 720.359375 752.398438 720.359375 746 "/>
<path style=" stroke:none;fill-rule:evenodd;fill:rgb(100%,100%,100%);fill-opacity:1;" d="M 720.359375 686 C 720.359375 679.601562 710.761719 679.601562 710.761719 686 C 710.761719 692.398438 720.359375 692.398438 720.359375 686 "/>
<path style=" stroke:none;fill-rule:evenodd;fill:rgb(100%,100%,100%);fill-opacity:1;" d="M 720.359375 626 C 720.359375 619.601562 710.761719 619.601562 710.761719 626 C 710.761719 632.398438 720.359375 632.398438 720.359375 626 "/>
<path style=" stroke:none;fill-rule:evenodd;fill:rgb(100%,100%,100%);fill-opacity:1;" d="M 720.359375 566 C 720.359375 559.601562 710.761719 559.601562 710.761719 566 C 710.761719 572.398438 720.359375 572.398438 720.359375 566 "/>
<path style=" stroke:none;fill-rule:evenodd;fill:rgb(100%,100%,100%);fill-opacity:1;" d="M 690.359375 476 C 690.359375 469.601562 680.761719 469.601562 680.761719 476 C 680.761719 482.398438 690.359375 482.398438 690.359375 476 "/>
<path style=" stroke:none;fill-rule:evenodd;fill:rgb(100%,100%,100%);fill-opacity:1;" d="M 690.359375 416 C 690.359375 409.601562 680.761719 409.601562 680.761719 416 C 680.761719 422.398438 690.359375 422.398438 690.359375 416 "/>
<path style=" stroke:none;fill-rule:evenodd;fill:rgb(100%,100%,100%);fill-opacity:1;" d="M 840.359375 416 C 840.359375 409.601562 830.761719 409.601562 830.761719 416 C 830.761719 422.398438 840.359375 422.398438 840.359375 416 "/>
<path style=" stroke:none;fill-rule:evenodd;fill:rgb(100%,100%,100%);fill-opacity:1;" d="M 840.359375 476 C 840.359375 469.601562 830.761719 469.601562 830.761719 476 C 830.761719 482.398438 840.359375 482.398438 840.359375 476 "/>
<path style=" stroke:none;fill-rule:evenodd;fill:rgb(100%,100%,100%);fill-opacity:1;" d="M 840.359375 626 C 840.359375 619.601562 830.761719 619.601562 830.761719 626 C 830.761719 632.398438 840.359375 632.398438 840.359375 626 "/>
<path style=" stroke:none;fill-rule:evenodd;fill:rgb(100%,100%,100%);fill-opacity:1;" d="M 900.359375 626 C 900.359375 619.601562 890.761719 619.601562 890.761719 626 C 890.761719 632.398438 900.359375 632.398438 900.359375 626 "/>
<path style=" stroke:none;fill-rule:evenodd;fill:rgb(100%,100%,100%);fill-opacity:1;" d="M 900.359375 746 C 900.359375 739.601562 890.761719 739.601562 890.761719 746 C 890.761719 752.398438 900.359375 752.398438 900.359375 746 "/>
<path style=" stroke:none;fill-rule:evenodd;fill:rgb(100%,100%,100%);fill-opacity:1;" d="M 840.359375 746 C 840.359375 739.601562 830.761719 739.601562 830.761719 746 C 830.761719 752.398438 840.359375 752.398438 840.359375 746 "/>
<path style=" stroke:none;fill-rule:evenodd;fill:rgb(100%,100%,100%);fill-opacity:1;" d="M 840.359375 866 C 840.359375 859.601562 830.761719 859.601562 830.761719 866 C 830.761719 872.398438 840.359375 872.398438 840.359375 866 "/>
<path style=" stroke:none;fill-rule:evenodd;fill:rgb(100%,100%,100%);fill-opacity:1;" d="M 900.359375 866 C 900.359375 859.601562 890.761719 859.601562 890.761719 866 C 890.761719 872.398438 900.359375 872.398438 900.359375 866 "/>
<path style=" stroke:none;fill-rule:evenodd;fill:rgb(100%,100%,100%);fill-opacity:1;" d="M 900.359375 986 C 900.359375 979.601562 890.761719 979.601562 890.761719 986 C 890.761719 992.398438 900.359375 992.398438 900.359375 986 "/>
<path style=" stroke:none;fill-rule:evenodd;fill:rgb(100%,100%,100%);fill-opacity:1;" d="M 840.359375 986 C 840.359375 979.601562 830.761719 979.601562 830.761719 986 C 830.761719 992.398438 840.359375 992.398438 840.359375 986 "/>
<path style=" stroke:none;fill-rule:evenodd;fill:rgb(100%,100%,100%);fill-opacity:1;" d="M 720.359375 1046 C 720.359375 1039.601562 710.761719 1039.601562 710.761719 1046 C 710.761719 1052.398438 720.359375 1052.398438 720.359375 1046 "/>
<path style=" stroke:none;fill-rule:evenodd;fill:rgb(100%,100%,100%);fill-opacity:1;" d="M 720.359375 1106 C 720.359375 1099.601562 710.761719 1099.601562 710.761719 1106 C 710.761719 1112.398438 720.359375 1112.398438 720.359375 1106 "/>
<path style=" stroke:none;fill-rule:evenodd;fill:rgb(100%,100%,100%);fill-opacity:1;" d="M 720.359375 1196 C 720.359375 1189.601562 710.761719 1189.601562 710.761719 1196 C 710.761719 1202.398438 720.359375 1202.398438 720.359375 1196 "/>
<path style=" stroke:none;fill-rule:evenodd;fill:rgb(100%,100%,100%);fill-opacity:1;" d="M 720.359375 1256 C 720.359375 1249.601562 710.761719 1249.601562 710.761719 1256 C 710.761719 1262.398438 720.359375 1262.398438 720.359375 1256 "/>
<path style=" stroke:none;fill-rule:evenodd;fill:rgb(100%,100%,100%);fill-opacity:1;" d="M 600.359375 1346 C 600.359375 1339.601562 590.761719 1339.601562 590.761719 1346 C 590.761719 1352.398438 600.359375 1352.398438 600.359375 1346 "/>
<path style=" stroke:none;fill-rule:evenodd;fill:rgb(100%,100%,100%);fill-opacity:1;" d="M 600.359375 1436 C 600.359375 1429.601562 590.761719 1429.601562 590.761719 1436 C 590.761719 1442.398438 600.359375 1442.398438 600.359375 1436 "/>
<path style=" stroke:none;fill-rule:evenodd;fill:rgb(100%,100%,100%);fill-opacity:1;" d="M 660.359375 1436 C 660.359375 1429.601562 650.761719 1429.601562 650.761719 1436 C 650.761719 1442.398438 660.359375 1442.398438 660.359375 1436 "/>
<path style=" stroke:none;fill-rule:evenodd;fill:rgb(100%,100%,100%);fill-opacity:1;" d="M 540.359375 1436 C 540.359375 1429.601562 530.761719 1429.601562 530.761719 1436 C 530.761719 1442.398438 540.359375 1442.398438 540.359375 1436 "/>
<path style=" stroke:none;fill-rule:evenodd;fill:rgb(100%,100%,100%);fill-opacity:1;" d="M 360.359375 1436 C 360.359375 1429.601562 350.761719 1429.601562 350.761719 1436 C 350.761719 1442.398438 360.359375 1442.398438 360.359375 1436 "/>
<path style=" stroke:none;fill-rule:evenodd;fill:rgb(100%,100%,100%);fill-opacity:1;" d="M 300.359375 1436 C 300.359375 1429.601562 290.761719 1429.601562 290.761719 1436 C 290.761719 1442.398438 300.359375 1442.398438 300.359375 1436 "/>
<path style=" stroke:none;fill-rule:evenodd;fill:rgb(100%,100%,100%);fill-opacity:1;" d="M 810.359375 1436 C 810.359375 1429.601562 800.761719 1429.601562 800.761719 1436 C 800.761719 1442.398438 810.359375 1442.398438 810.359375 1436 "/>
<path style=" stroke:none;fill-rule:evenodd;fill:rgb(100%,100%,100%);fill-opacity:1;" d="M 870.359375 1436 C 870.359375 1429.601562 860.761719 1429.601562 860.761719 1436 C 860.761719 1442.398438 870.359375 1442.398438 870.359375 1436 "/>
<path style=" stroke:none;fill-rule:evenodd;fill:rgb(100%,100%,100%);fill-opacity:1;" d="M 930.359375 1436 C 930.359375 1429.601562 920.761719 1429.601562 920.761719 1436 C 920.761719 1442.398438 930.359375 1442.398438 930.359375 1436 "/>
<path style=" stroke:none;fill-rule:evenodd;fill:rgb(100%,100%,100%);fill-opacity:1;" d="M 840.359375 296 C 840.359375 289.601562 830.761719 289.601562 830.761719 296 C 830.761719 302.398438 840.359375 302.398438 840.359375 296 "/>
<path style=" stroke:none;fill-rule:evenodd;fill:rgb(100%,100%,100%);fill-opacity:1;" d="M 780.359375 296 C 780.359375 289.601562 770.761719 289.601562 770.761719 296 C 770.761719 302.398438 780.359375 302.398438 780.359375 296 "/>
<path style=" stroke:none;fill-rule:evenodd;fill:rgb(100%,100%,100%);fill-opacity:1;" d="M 720.359375 296 C 720.359375 289.601562 710.761719 289.601562 710.761719 296 C 710.761719 302.398438 720.359375 302.398438 720.359375 296 "/>
<path style=" stroke:none;fill-rule:evenodd;fill:rgb(100%,100%,100%);fill-opacity:1;" d="M 510.359375 296 C 510.359375 289.601562 500.761719 289.601562 500.761719 296 C 500.761719 302.398438 510.359375 302.398438 510.359375 296 "/>
<path style=" stroke:none;fill-rule:evenodd;fill:rgb(100%,100%,100%);fill-opacity:1;" d="M 450.359375 296 C 450.359375 289.601562 440.761719 289.601562 440.761719 296 C 440.761719 302.398438 450.359375 302.398438 450.359375 296 "/>
<path style=" stroke:none;fill-rule:evenodd;fill:rgb(100%,100%,100%);fill-opacity:1;" d="M 390.359375 296 C 390.359375 289.601562 380.761719 289.601562 380.761719 296 C 380.761719 302.398438 390.359375 302.398438 390.359375 296 "/>
<path style=" stroke:none;fill-rule:evenodd;fill:rgb(100%,100%,100%);fill-opacity:1;" d="M 180.359375 1526 C 180.359375 1519.601562 170.761719 1519.601562 170.761719 1526 C 170.761719 1532.398438 180.359375 1532.398438 180.359375 1526 "/>
<path style=" stroke:none;fill-rule:evenodd;fill:rgb(100%,100%,100%);fill-opacity:1;" d="M 1050.359375 1526 C 1050.359375 1519.601562 1040.761719 1519.601562 1040.761719 1526 C 1040.761719 1532.398438 1050.359375 1532.398438 1050.359375 1526 "/>
<path style=" stroke:none;fill-rule:evenodd;fill:rgb(100%,100%,100%);fill-opacity:1;" d="M 1050.359375 176 C 1050.359375 169.601562 1040.761719 169.601562 1040.761719 176 C 1040.761719 182.398438 1050.359375 182.398438 1050.359375 176 "/>
<path style=" stroke:none;fill-rule:evenodd;fill:rgb(100%,100%,100%);fill-opacity:1;" d="M 180.359375 176 C 180.359375 169.601562 170.761719 169.601562 170.761719 176 C 170.761719 182.398438 180.359375 182.398438 180.359375 176 "/>
</g>
</svg>
