<?xml version="1.0" encoding="UTF-8"?>
<svg xmlns="http://www.w3.org/2000/svg" xmlns:xlink="http://www.w3.org/1999/xlink" width="2375pt" height="1619pt" viewBox="0 0 2375 1619" version="1.1">
<g id="surface1">
<path style="fill:none;stroke-width:0.01;stroke-linecap:round;stroke-linejoin:miter;stroke:rgb(0%,0%,0%);stroke-opacity:1;stroke-miterlimit:10;" d="M 0.2333 0.3034 L 0.2333 2.853003 " transform="matrix(600,0,0,-600,-136.980003,1798.040009)"/>
<path style="fill:none;stroke-width:0.01;stroke-linecap:round;stroke-linejoin:miter;stroke:rgb(0%,0%,0%);stroke-opacity:1;stroke-miterlimit:10;" d="M 0.2333 2.853003 L 4.170299 2.853003 " transform="matrix(600,0,0,-600,-136.980003,1798.040009)"/>
<path style="fill:none;stroke-width:0.01;stroke-linecap:round;stroke-linejoin:miter;stroke:rgb(0%,0%,0%);stroke-opacity:1;stroke-miterlimit:10;" d="M 4.170299 2.853003 L 4.170299 0.3034 " transform="matrix(600,0,0,-600,-136.980003,1798.040009)"/>
<path style="fill:none;stroke-width:0.01;stroke-linecap:round;stroke-linejoin:miter;stroke:rgb(0%,0%,0%);stroke-opacity:1;stroke-miterlimit:10;" d="M 4.170299 0.3034 L 0.2333 0.3034 " transform="matrix(600,0,0,-600,-136.980003,1798.040009)"/>
<path style="fill:none;stroke-width:0.0051;stroke-linecap:round;stroke-linejoin:miter;stroke:rgb(0%,0%,0%);stroke-opacity:1;stroke-miterlimit:10;" d="M 4.1833 2.8534 L 4.1833 2.980099 " transform="matrix(600,0,0,-600,-136.980003,1798.040009)"/>
<path style="fill:none;stroke-width:0.0051;stroke-linecap:round;stroke-linejoin:miter;stroke:rgb(0%,0%,0%);stroke-opacity:1;stroke-miterlimit:10;" d="M 4.1833 2.9034 L 4.081002 2.893101 " transform="matrix(600,0,0,-600,-136.980003,1798.040009)"/>
<path style="fill:none;stroke-width:0.0051;stroke-linecap:round;stroke-linejoin:miter;stroke:rgb(0%,0%,0%);stroke-opacity:1;stroke-miterlimit:10;" d="M 4.081002 2.890802 L 4.1833 2.9034 " transform="matrix(600,0,0,-600,-136.980003,1798.040009)"/>
<path style="fill:none;stroke-width:0.0051;stroke-linecap:round;stroke-linejoin:miter;stroke:rgb(0%,0%,0%);stroke-opacity:1;stroke-miterlimit:10;" d="M 4.1833 2.9034 L 4.081002 2.913602 " transform="matrix(600,0,0,-600,-136.980003,1798.040009)"/>
<path style="fill:none;stroke-width:0.0051;stroke-linecap:round;stroke-linejoin:miter;stroke:rgb(0%,0%,0%);stroke-opacity:1;stroke-miterlimit:10;" d="M 4.081002 2.9159 L 4.081002 2.890802 " transform="matrix(600,0,0,-600,-136.980003,1798.040009)"/>
<path style="fill:none;stroke-width:0.0051;stroke-linecap:round;stroke-linejoin:miter;stroke:rgb(0%,0%,0%);stroke-opacity:1;stroke-miterlimit:10;" d="M 4.081002 2.898302 L 4.1833 2.9034 " transform="matrix(600,0,0,-600,-136.980003,1798.040009)"/>
<path style="fill:none;stroke-width:0.0051;stroke-linecap:round;stroke-linejoin:miter;stroke:rgb(0%,0%,0%);stroke-opacity:1;stroke-miterlimit:10;" d="M 4.1833 2.9034 L 4.081002 2.908498 " transform="matrix(600,0,0,-600,-136.980003,1798.040009)"/>
<path style="fill:none;stroke-width:0.0051;stroke-linecap:round;stroke-linejoin:miter;stroke:rgb(0%,0%,0%);stroke-opacity:1;stroke-miterlimit:10;" d="M 4.081002 2.9159 L 4.1833 2.9034 " transform="matrix(600,0,0,-600,-136.980003,1798.040009)"/>
<path style="fill:none;stroke-width:0.0051;stroke-linecap:round;stroke-linejoin:miter;stroke:rgb(0%,0%,0%);stroke-opacity:1;stroke-miterlimit:10;" d="M 4.1833 2.9034 L 0.2333 2.9034 " transform="matrix(600,0,0,-600,-136.980003,1798.040009)"/>
<path style="fill:none;stroke-width:0.0051;stroke-linecap:round;stroke-linejoin:miter;stroke:rgb(0%,0%,0%);stroke-opacity:1;stroke-miterlimit:10;" d="M 0.2333 2.9034 L 0.335702 2.893101 " transform="matrix(600,0,0,-600,-136.980003,1798.040009)"/>
<path style="fill:none;stroke-width:0.0051;stroke-linecap:round;stroke-linejoin:miter;stroke:rgb(0%,0%,0%);stroke-opacity:1;stroke-miterlimit:10;" d="M 0.335702 2.890802 L 0.2333 2.9034 " transform="matrix(600,0,0,-600,-136.980003,1798.040009)"/>
<path style="fill:none;stroke-width:0.0051;stroke-linecap:round;stroke-linejoin:miter;stroke:rgb(0%,0%,0%);stroke-opacity:1;stroke-miterlimit:10;" d="M 0.2333 2.9034 L 0.335702 2.913602 " transform="matrix(600,0,0,-600,-136.980003,1798.040009)"/>
<path style="fill:none;stroke-width:0.0051;stroke-linecap:round;stroke-linejoin:miter;stroke:rgb(0%,0%,0%);stroke-opacity:1;stroke-miterlimit:10;" d="M 0.335702 2.9159 L 0.335702 2.890802 " transform="matrix(600,0,0,-600,-136.980003,1798.040009)"/>
<path style="fill:none;stroke-width:0.0051;stroke-linecap:round;stroke-linejoin:miter;stroke:rgb(0%,0%,0%);stroke-opacity:1;stroke-miterlimit:10;" d="M 0.335702 2.898302 L 0.2333 2.9034 " transform="matrix(600,0,0,-600,-136.980003,1798.040009)"/>
<path style="fill:none;stroke-width:0.0051;stroke-linecap:round;stroke-linejoin:miter;stroke:rgb(0%,0%,0%);stroke-opacity:1;stroke-miterlimit:10;" d="M 0.2333 2.9034 L 0.335702 2.908498 " transform="matrix(600,0,0,-600,-136.980003,1798.040009)"/>
<path style="fill:none;stroke-width:0.0051;stroke-linecap:round;stroke-linejoin:miter;stroke:rgb(0%,0%,0%);stroke-opacity:1;stroke-miterlimit:10;" d="M 0.335702 2.9159 L 0.2333 2.9034 " transform="matrix(600,0,0,-600,-136.980003,1798.040009)"/>
<path style="fill:none;stroke-width:0.0051;stroke-linecap:round;stroke-linejoin:miter;stroke:rgb(0%,0%,0%);stroke-opacity:1;stroke-miterlimit:10;" d="M 0.2333 2.8534 L 0.2333 2.980099 " transform="matrix(600,0,0,-600,-136.980003,1798.040009)"/>
<path style="fill:none;stroke-width:0.011;stroke-linecap:round;stroke-linejoin:miter;stroke:rgb(0%,0%,0%);stroke-opacity:1;stroke-miterlimit:10;" d="M 2.036601 2.9709 L 2.056301 2.990503 " transform="matrix(600,0,0,-600,-136.980003,1798.040009)"/>
<path style="fill:none;stroke-width:0.011;stroke-linecap:round;stroke-linejoin:miter;stroke:rgb(0%,0%,0%);stroke-opacity:1;stroke-miterlimit:10;" d="M 2.056301 2.990503 L 2.056301 2.931499 " transform="matrix(600,0,0,-600,-136.980003,1798.040009)"/>
<path style="fill:none;stroke-width:0.011;stroke-linecap:round;stroke-linejoin:miter;stroke:rgb(0%,0%,0%);stroke-opacity:1;stroke-miterlimit:10;" d="M 2.075898 2.931499 L 2.036601 2.931499 " transform="matrix(600,0,0,-600,-136.980003,1798.040009)"/>
<path style="fill:none;stroke-width:0.011;stroke-linecap:round;stroke-linejoin:miter;stroke:rgb(0%,0%,0%);stroke-opacity:1;stroke-miterlimit:10;" d="M 2.101002 2.941297 L 2.140403 2.980698 " transform="matrix(600,0,0,-600,-136.980003,1798.040009)"/>
<path style="fill:none;stroke-width:0.011;stroke-linecap:round;stroke-linejoin:miter;stroke:rgb(0%,0%,0%);stroke-opacity:1;stroke-miterlimit:10;" d="M 2.140403 2.980698 L 2.140403 2.941297 " transform="matrix(600,0,0,-600,-136.980003,1798.040009)"/>
<path style="fill:none;stroke-width:0.011;stroke-linecap:round;stroke-linejoin:miter;stroke:rgb(0%,0%,0%);stroke-opacity:1;stroke-miterlimit:10;" d="M 2.140403 2.941297 L 2.130598 2.931499 " transform="matrix(600,0,0,-600,-136.980003,1798.040009)"/>
<path style="fill:none;stroke-width:0.011;stroke-linecap:round;stroke-linejoin:miter;stroke:rgb(0%,0%,0%);stroke-opacity:1;stroke-miterlimit:10;" d="M 2.130598 2.931499 L 2.110898 2.931499 " transform="matrix(600,0,0,-600,-136.980003,1798.040009)"/>
<path style="fill:none;stroke-width:0.011;stroke-linecap:round;stroke-linejoin:miter;stroke:rgb(0%,0%,0%);stroke-opacity:1;stroke-miterlimit:10;" d="M 2.110898 2.931499 L 2.101002 2.941297 " transform="matrix(600,0,0,-600,-136.980003,1798.040009)"/>
<path style="fill:none;stroke-width:0.011;stroke-linecap:round;stroke-linejoin:miter;stroke:rgb(0%,0%,0%);stroke-opacity:1;stroke-miterlimit:10;" d="M 2.101002 2.941297 L 2.101002 2.980698 " transform="matrix(600,0,0,-600,-136.980003,1798.040009)"/>
<path style="fill:none;stroke-width:0.011;stroke-linecap:round;stroke-linejoin:miter;stroke:rgb(0%,0%,0%);stroke-opacity:1;stroke-miterlimit:10;" d="M 2.101002 2.980698 L 2.110898 2.990503 " transform="matrix(600,0,0,-600,-136.980003,1798.040009)"/>
<path style="fill:none;stroke-width:0.011;stroke-linecap:round;stroke-linejoin:miter;stroke:rgb(0%,0%,0%);stroke-opacity:1;stroke-miterlimit:10;" d="M 2.110898 2.990503 L 2.130598 2.990503 " transform="matrix(600,0,0,-600,-136.980003,1798.040009)"/>
<path style="fill:none;stroke-width:0.011;stroke-linecap:round;stroke-linejoin:miter;stroke:rgb(0%,0%,0%);stroke-opacity:1;stroke-miterlimit:10;" d="M 2.130598 2.990503 L 2.140403 2.980698 " transform="matrix(600,0,0,-600,-136.980003,1798.040009)"/>
<path style="fill:none;stroke-width:0.011;stroke-linecap:round;stroke-linejoin:miter;stroke:rgb(0%,0%,0%);stroke-opacity:1;stroke-miterlimit:10;" d="M 2.165501 2.980698 L 2.165501 2.941297 " transform="matrix(600,0,0,-600,-136.980003,1798.040009)"/>
<path style="fill:none;stroke-width:0.011;stroke-linecap:round;stroke-linejoin:miter;stroke:rgb(0%,0%,0%);stroke-opacity:1;stroke-miterlimit:10;" d="M 2.165501 2.941297 L 2.204902 2.980698 " transform="matrix(600,0,0,-600,-136.980003,1798.040009)"/>
<path style="fill:none;stroke-width:0.011;stroke-linecap:round;stroke-linejoin:miter;stroke:rgb(0%,0%,0%);stroke-opacity:1;stroke-miterlimit:10;" d="M 2.204902 2.980698 L 2.204902 2.941297 " transform="matrix(600,0,0,-600,-136.980003,1798.040009)"/>
<path style="fill:none;stroke-width:0.011;stroke-linecap:round;stroke-linejoin:miter;stroke:rgb(0%,0%,0%);stroke-opacity:1;stroke-miterlimit:10;" d="M 2.204902 2.941297 L 2.194999 2.931499 " transform="matrix(600,0,0,-600,-136.980003,1798.040009)"/>
<path style="fill:none;stroke-width:0.011;stroke-linecap:round;stroke-linejoin:miter;stroke:rgb(0%,0%,0%);stroke-opacity:1;stroke-miterlimit:10;" d="M 2.194999 2.931499 L 2.175299 2.931499 " transform="matrix(600,0,0,-600,-136.980003,1798.040009)"/>
<path style="fill:none;stroke-width:0.011;stroke-linecap:round;stroke-linejoin:miter;stroke:rgb(0%,0%,0%);stroke-opacity:1;stroke-miterlimit:10;" d="M 2.175299 2.931499 L 2.165501 2.941297 " transform="matrix(600,0,0,-600,-136.980003,1798.040009)"/>
<path style="fill:none;stroke-width:0.011;stroke-linecap:round;stroke-linejoin:miter;stroke:rgb(0%,0%,0%);stroke-opacity:1;stroke-miterlimit:10;" d="M 2.165501 2.980698 L 2.175299 2.990503 " transform="matrix(600,0,0,-600,-136.980003,1798.040009)"/>
<path style="fill:none;stroke-width:0.011;stroke-linecap:round;stroke-linejoin:miter;stroke:rgb(0%,0%,0%);stroke-opacity:1;stroke-miterlimit:10;" d="M 2.175299 2.990503 L 2.194999 2.990503 " transform="matrix(600,0,0,-600,-136.980003,1798.040009)"/>
<path style="fill:none;stroke-width:0.011;stroke-linecap:round;stroke-linejoin:miter;stroke:rgb(0%,0%,0%);stroke-opacity:1;stroke-miterlimit:10;" d="M 2.194999 2.990503 L 2.204902 2.980698 " transform="matrix(600,0,0,-600,-136.980003,1798.040009)"/>
<path style="fill:none;stroke-width:0.011;stroke-linecap:round;stroke-linejoin:miter;stroke:rgb(0%,0%,0%);stroke-opacity:1;stroke-miterlimit:10;" d="M 2.229902 2.941297 L 2.239797 2.941297 " transform="matrix(600,0,0,-600,-136.980003,1798.040009)"/>
<path style="fill:none;stroke-width:0.011;stroke-linecap:round;stroke-linejoin:miter;stroke:rgb(0%,0%,0%);stroke-opacity:1;stroke-miterlimit:10;" d="M 2.239797 2.941297 L 2.239797 2.931499 " transform="matrix(600,0,0,-600,-136.980003,1798.040009)"/>
<path style="fill:none;stroke-width:0.011;stroke-linecap:round;stroke-linejoin:miter;stroke:rgb(0%,0%,0%);stroke-opacity:1;stroke-miterlimit:10;" d="M 2.239797 2.931499 L 2.229902 2.931499 " transform="matrix(600,0,0,-600,-136.980003,1798.040009)"/>
<path style="fill:none;stroke-width:0.011;stroke-linecap:round;stroke-linejoin:miter;stroke:rgb(0%,0%,0%);stroke-opacity:1;stroke-miterlimit:10;" d="M 2.229902 2.931499 L 2.229902 2.941297 " transform="matrix(600,0,0,-600,-136.980003,1798.040009)"/>
<path style="fill:none;stroke-width:0.011;stroke-linecap:round;stroke-linejoin:miter;stroke:rgb(0%,0%,0%);stroke-opacity:1;stroke-miterlimit:10;" d="M 2.2622 2.941297 L 2.271998 2.931499 " transform="matrix(600,0,0,-600,-136.980003,1798.040009)"/>
<path style="fill:none;stroke-width:0.011;stroke-linecap:round;stroke-linejoin:miter;stroke:rgb(0%,0%,0%);stroke-opacity:1;stroke-miterlimit:10;" d="M 2.271998 2.931499 L 2.291698 2.931499 " transform="matrix(600,0,0,-600,-136.980003,1798.040009)"/>
<path style="fill:none;stroke-width:0.011;stroke-linecap:round;stroke-linejoin:miter;stroke:rgb(0%,0%,0%);stroke-opacity:1;stroke-miterlimit:10;" d="M 2.291698 2.931499 L 2.301503 2.941297 " transform="matrix(600,0,0,-600,-136.980003,1798.040009)"/>
<path style="fill:none;stroke-width:0.011;stroke-linecap:round;stroke-linejoin:miter;stroke:rgb(0%,0%,0%);stroke-opacity:1;stroke-miterlimit:10;" d="M 2.301503 2.941297 L 2.301503 2.951199 " transform="matrix(600,0,0,-600,-136.980003,1798.040009)"/>
<path style="fill:none;stroke-width:0.011;stroke-linecap:round;stroke-linejoin:miter;stroke:rgb(0%,0%,0%);stroke-opacity:1;stroke-miterlimit:10;" d="M 2.301503 2.951199 L 2.291698 2.960998 " transform="matrix(600,0,0,-600,-136.980003,1798.040009)"/>
<path style="fill:none;stroke-width:0.011;stroke-linecap:round;stroke-linejoin:miter;stroke:rgb(0%,0%,0%);stroke-opacity:1;stroke-miterlimit:10;" d="M 2.291698 2.960998 L 2.2819 2.960998 " transform="matrix(600,0,0,-600,-136.980003,1798.040009)"/>
<path style="fill:none;stroke-width:0.011;stroke-linecap:round;stroke-linejoin:miter;stroke:rgb(0%,0%,0%);stroke-opacity:1;stroke-miterlimit:10;" d="M 2.291698 2.960998 L 2.301503 2.9709 " transform="matrix(600,0,0,-600,-136.980003,1798.040009)"/>
<path style="fill:none;stroke-width:0.011;stroke-linecap:round;stroke-linejoin:miter;stroke:rgb(0%,0%,0%);stroke-opacity:1;stroke-miterlimit:10;" d="M 2.301503 2.9709 L 2.301503 2.980698 " transform="matrix(600,0,0,-600,-136.980003,1798.040009)"/>
<path style="fill:none;stroke-width:0.011;stroke-linecap:round;stroke-linejoin:miter;stroke:rgb(0%,0%,0%);stroke-opacity:1;stroke-miterlimit:10;" d="M 2.301503 2.980698 L 2.291698 2.990503 " transform="matrix(600,0,0,-600,-136.980003,1798.040009)"/>
<path style="fill:none;stroke-width:0.011;stroke-linecap:round;stroke-linejoin:miter;stroke:rgb(0%,0%,0%);stroke-opacity:1;stroke-miterlimit:10;" d="M 2.291698 2.990503 L 2.271998 2.990503 " transform="matrix(600,0,0,-600,-136.980003,1798.040009)"/>
<path style="fill:none;stroke-width:0.011;stroke-linecap:round;stroke-linejoin:miter;stroke:rgb(0%,0%,0%);stroke-opacity:1;stroke-miterlimit:10;" d="M 2.271998 2.990503 L 2.2622 2.980698 " transform="matrix(600,0,0,-600,-136.980003,1798.040009)"/>
<path style="fill:none;stroke-width:0.011;stroke-linecap:round;stroke-linejoin:miter;stroke:rgb(0%,0%,0%);stroke-opacity:1;stroke-miterlimit:10;" d="M 2.326601 2.980698 L 2.336503 2.990503 " transform="matrix(600,0,0,-600,-136.980003,1798.040009)"/>
<path style="fill:none;stroke-width:0.011;stroke-linecap:round;stroke-linejoin:miter;stroke:rgb(0%,0%,0%);stroke-opacity:1;stroke-miterlimit:10;" d="M 2.336503 2.990503 L 2.356197 2.990503 " transform="matrix(600,0,0,-600,-136.980003,1798.040009)"/>
<path style="fill:none;stroke-width:0.011;stroke-linecap:round;stroke-linejoin:miter;stroke:rgb(0%,0%,0%);stroke-opacity:1;stroke-miterlimit:10;" d="M 2.356197 2.990503 L 2.366002 2.980698 " transform="matrix(600,0,0,-600,-136.980003,1798.040009)"/>
<path style="fill:none;stroke-width:0.011;stroke-linecap:round;stroke-linejoin:miter;stroke:rgb(0%,0%,0%);stroke-opacity:1;stroke-miterlimit:10;" d="M 2.366002 2.980698 L 2.366002 2.9709 " transform="matrix(600,0,0,-600,-136.980003,1798.040009)"/>
<path style="fill:none;stroke-width:0.011;stroke-linecap:round;stroke-linejoin:miter;stroke:rgb(0%,0%,0%);stroke-opacity:1;stroke-miterlimit:10;" d="M 2.366002 2.9709 L 2.356197 2.960998 " transform="matrix(600,0,0,-600,-136.980003,1798.040009)"/>
<path style="fill:none;stroke-width:0.011;stroke-linecap:round;stroke-linejoin:miter;stroke:rgb(0%,0%,0%);stroke-opacity:1;stroke-miterlimit:10;" d="M 2.356197 2.960998 L 2.366002 2.951199 " transform="matrix(600,0,0,-600,-136.980003,1798.040009)"/>
<path style="fill:none;stroke-width:0.011;stroke-linecap:round;stroke-linejoin:miter;stroke:rgb(0%,0%,0%);stroke-opacity:1;stroke-miterlimit:10;" d="M 2.366002 2.951199 L 2.366002 2.941297 " transform="matrix(600,0,0,-600,-136.980003,1798.040009)"/>
<path style="fill:none;stroke-width:0.011;stroke-linecap:round;stroke-linejoin:miter;stroke:rgb(0%,0%,0%);stroke-opacity:1;stroke-miterlimit:10;" d="M 2.366002 2.941297 L 2.356197 2.931499 " transform="matrix(600,0,0,-600,-136.980003,1798.040009)"/>
<path style="fill:none;stroke-width:0.011;stroke-linecap:round;stroke-linejoin:miter;stroke:rgb(0%,0%,0%);stroke-opacity:1;stroke-miterlimit:10;" d="M 2.356197 2.931499 L 2.336503 2.931499 " transform="matrix(600,0,0,-600,-136.980003,1798.040009)"/>
<path style="fill:none;stroke-width:0.011;stroke-linecap:round;stroke-linejoin:miter;stroke:rgb(0%,0%,0%);stroke-opacity:1;stroke-miterlimit:10;" d="M 2.336503 2.931499 L 2.326601 2.941297 " transform="matrix(600,0,0,-600,-136.980003,1798.040009)"/>
<path style="fill:none;stroke-width:0.011;stroke-linecap:round;stroke-linejoin:miter;stroke:rgb(0%,0%,0%);stroke-opacity:1;stroke-miterlimit:10;" d="M 2.346301 2.960998 L 2.356197 2.960998 " transform="matrix(600,0,0,-600,-136.980003,1798.040009)"/>
<path style="fill:none;stroke-width:0.052;stroke-linecap:round;stroke-linejoin:miter;stroke:rgb(0%,0%,0%);stroke-opacity:1;stroke-miterlimit:10;" d="M 2.0333 1.827397 L 2.0333 1.879403 " transform="matrix(600,0,0,-600,-136.980003,1798.040009)"/>
<path style="fill:none;stroke-width:0.052;stroke-linecap:round;stroke-linejoin:miter;stroke:rgb(0%,0%,0%);stroke-opacity:1;stroke-miterlimit:10;" d="M 2.1333 1.879403 L 2.1333 1.827397 " transform="matrix(600,0,0,-600,-136.980003,1798.040009)"/>
<path style="fill:none;stroke-width:0.052;stroke-linecap:round;stroke-linejoin:miter;stroke:rgb(0%,0%,0%);stroke-opacity:1;stroke-miterlimit:10;" d="M 2.2333 1.827397 L 2.2333 1.879403 " transform="matrix(600,0,0,-600,-136.980003,1798.040009)"/>
<path style="fill:none;stroke-width:0.052;stroke-linecap:round;stroke-linejoin:miter;stroke:rgb(0%,0%,0%);stroke-opacity:1;stroke-miterlimit:10;" d="M 2.3333 1.879403 L 2.3333 1.827397 " transform="matrix(600,0,0,-600,-136.980003,1798.040009)"/>
<path style="fill:none;stroke-width:0.052;stroke-linecap:round;stroke-linejoin:miter;stroke:rgb(0%,0%,0%);stroke-opacity:1;stroke-miterlimit:10;" d="M 2.3333 2.127397 L 2.3333 2.179403 " transform="matrix(600,0,0,-600,-136.980003,1798.040009)"/>
<path style="fill:none;stroke-width:0.052;stroke-linecap:round;stroke-linejoin:miter;stroke:rgb(0%,0%,0%);stroke-opacity:1;stroke-miterlimit:10;" d="M 2.2333 2.179403 L 2.2333 2.127397 " transform="matrix(600,0,0,-600,-136.980003,1798.040009)"/>
<path style="fill:none;stroke-width:0.052;stroke-linecap:round;stroke-linejoin:miter;stroke:rgb(0%,0%,0%);stroke-opacity:1;stroke-miterlimit:10;" d="M 2.1333 2.127397 L 2.1333 2.179403 " transform="matrix(600,0,0,-600,-136.980003,1798.040009)"/>
<path style="fill:none;stroke-width:0.052;stroke-linecap:round;stroke-linejoin:miter;stroke:rgb(0%,0%,0%);stroke-opacity:1;stroke-miterlimit:10;" d="M 2.0333 2.179403 L 2.0333 2.127397 " transform="matrix(600,0,0,-600,-136.980003,1798.040009)"/>
<path style=" stroke:none;fill-rule:evenodd;fill:rgb(0%,0%,0%);fill-opacity:1;" d="M 985.199219 536 C 985.199219 506.398438 940.800781 506.398438 940.800781 536 C 940.800781 565.601562 985.199219 565.601562 985.199219 536 "/>
<path style=" stroke:none;fill-rule:evenodd;fill:rgb(0%,0%,0%);fill-opacity:1;" d="M 985.199219 656 C 985.199219 626.398438 940.800781 626.398438 940.800781 656 C 940.800781 685.601562 985.199219 685.601562 985.199219 656 "/>
<path style=" stroke:none;fill-rule:evenodd;fill:rgb(0%,0%,0%);fill-opacity:1;" d="M 745.199219 656 C 745.199219 626.398438 700.800781 626.398438 700.800781 656 C 700.800781 685.601562 745.199219 685.601562 745.199219 656 "/>
<path style=" stroke:none;fill-rule:evenodd;fill:rgb(0%,0%,0%);fill-opacity:1;" d="M 745.199219 536 C 745.199219 506.398438 700.800781 506.398438 700.800781 536 C 700.800781 565.601562 745.199219 565.601562 745.199219 536 "/>
<path style=" stroke:none;fill-rule:evenodd;fill:rgb(0%,0%,0%);fill-opacity:1;" d="M 565.199219 656 C 565.199219 626.398438 520.800781 626.398438 520.800781 656 C 520.800781 685.601562 565.199219 685.601562 565.199219 656 "/>
<path style=" stroke:none;fill-rule:evenodd;fill:rgb(0%,0%,0%);fill-opacity:1;" d="M 385.199219 806 C 385.199219 776.398438 340.800781 776.398438 340.800781 806 C 340.800781 835.601562 385.199219 835.601562 385.199219 806 "/>
<path style=" stroke:none;fill-rule:evenodd;fill:rgb(0%,0%,0%);fill-opacity:1;" d="M 295.199219 806 C 295.199219 776.398438 250.800781 776.398438 250.800781 806 C 250.800781 835.601562 295.199219 835.601562 295.199219 806 "/>
<path style=" stroke:none;fill-rule:evenodd;fill:rgb(0%,0%,0%);fill-opacity:1;" d="M 325.199219 656 C 325.199219 626.398438 280.800781 626.398438 280.800781 656 C 280.800781 685.601562 325.199219 685.601562 325.199219 656 "/>
<path style=" stroke:none;fill-rule:evenodd;fill:rgb(0%,0%,0%);fill-opacity:1;" d="M 325.199219 386 C 325.199219 356.398438 280.800781 356.398438 280.800781 386 C 280.800781 415.601562 325.199219 415.601562 325.199219 386 "/>
<path style=" stroke:none;fill-rule:evenodd;fill:rgb(0%,0%,0%);fill-opacity:1;" d="M 565.199219 386 C 565.199219 356.398438 520.800781 356.398438 520.800781 386 C 520.800781 415.601562 565.199219 415.601562 565.199219 386 "/>
<path style=" stroke:none;fill-rule:evenodd;fill:rgb(0%,0%,0%);fill-opacity:1;" d="M 985.199219 386 C 985.199219 356.398438 940.800781 356.398438 940.800781 386 C 940.800781 415.601562 985.199219 415.601562 985.199219 386 "/>
<path style=" stroke:none;fill-rule:evenodd;fill:rgb(0%,0%,0%);fill-opacity:1;" d="M 1225.199219 386 C 1225.199219 356.398438 1180.800781 356.398438 1180.800781 386 C 1180.800781 415.601562 1225.199219 415.601562 1225.199219 386 "/>
<path style=" stroke:none;fill-rule:evenodd;fill:rgb(0%,0%,0%);fill-opacity:1;" d="M 1345.199219 386 C 1345.199219 356.398438 1300.800781 356.398438 1300.800781 386 C 1300.800781 415.601562 1345.199219 415.601562 1345.199219 386 "/>
<path style=" stroke:none;fill-rule:evenodd;fill:rgb(0%,0%,0%);fill-opacity:1;" d="M 1585.199219 386 C 1585.199219 356.398438 1540.800781 356.398438 1540.800781 386 C 1540.800781 415.601562 1585.199219 415.601562 1585.199219 386 "/>
<path style=" stroke:none;fill-rule:evenodd;fill:rgb(0%,0%,0%);fill-opacity:1;" d="M 1465.199219 836 C 1465.199219 806.398438 1420.800781 806.398438 1420.800781 836 C 1420.800781 865.601562 1465.199219 865.601562 1465.199219 836 "/>
<path style=" stroke:none;fill-rule:evenodd;fill:rgb(0%,0%,0%);fill-opacity:1;" d="M 1225.199219 836 C 1225.199219 806.398438 1180.800781 806.398438 1180.800781 836 C 1180.800781 865.601562 1225.199219 865.601562 1225.199219 836 "/>
<path style=" stroke:none;fill-rule:evenodd;fill:rgb(0%,0%,0%);fill-opacity:1;" d="M 1165.199219 836 C 1165.199219 806.398438 1120.800781 806.398438 1120.800781 836 C 1120.800781 865.601562 1165.199219 865.601562 1165.199219 836 "/>
<path style=" stroke:none;fill-rule:evenodd;fill:rgb(0%,0%,0%);fill-opacity:1;" d="M 925.199219 836 C 925.199219 806.398438 880.800781 806.398438 880.800781 836 C 880.800781 865.601562 925.199219 865.601562 925.199219 836 "/>
<path style=" stroke:none;fill-rule:evenodd;fill:rgb(0%,0%,0%);fill-opacity:1;" d="M 865.199219 986 C 865.199219 956.398438 820.800781 956.398438 820.800781 986 C 820.800781 1015.601562 865.199219 1015.601562 865.199219 986 "/>
<path style=" stroke:none;fill-rule:evenodd;fill:rgb(0%,0%,0%);fill-opacity:1;" d="M 805.199219 1076 C 805.199219 1046.398438 760.800781 1046.398438 760.800781 1076 C 760.800781 1105.601562 805.199219 1105.601562 805.199219 1076 "/>
<path style=" stroke:none;fill-rule:evenodd;fill:rgb(0%,0%,0%);fill-opacity:1;" d="M 625.199219 986 C 625.199219 956.398438 580.800781 956.398438 580.800781 986 C 580.800781 1015.601562 625.199219 1015.601562 625.199219 986 "/>
<path style=" stroke:none;fill-rule:evenodd;fill:rgb(0%,0%,0%);fill-opacity:1;" d="M 565.199219 1076 C 565.199219 1046.398438 520.800781 1046.398438 520.800781 1076 C 520.800781 1105.601562 565.199219 1105.601562 565.199219 1076 "/>
<path style=" stroke:none;fill-rule:evenodd;fill:rgb(0%,0%,0%);fill-opacity:1;" d="M 385.199219 1046 C 385.199219 1016.398438 340.800781 1016.398438 340.800781 1046 C 340.800781 1075.601562 385.199219 1075.601562 385.199219 1046 "/>
<path style=" stroke:none;fill-rule:evenodd;fill:rgb(0%,0%,0%);fill-opacity:1;" d="M 295.199219 1046 C 295.199219 1016.398438 250.800781 1016.398438 250.800781 1046 C 250.800781 1075.601562 295.199219 1075.601562 295.199219 1046 "/>
<path style=" stroke:none;fill-rule:evenodd;fill:rgb(0%,0%,0%);fill-opacity:1;" d="M 85.199219 1166 C 85.199219 1136.398438 40.800781 1136.398438 40.800781 1166 C 40.800781 1195.601562 85.199219 1195.601562 85.199219 1166 "/>
<path style=" stroke:none;fill-rule:evenodd;fill:rgb(0%,0%,0%);fill-opacity:1;" d="M 85.199219 1406 C 85.199219 1376.398438 40.800781 1376.398438 40.800781 1406 C 40.800781 1435.601562 85.199219 1435.601562 85.199219 1406 "/>
<path style=" stroke:none;fill-rule:evenodd;fill:rgb(0%,0%,0%);fill-opacity:1;" d="M 685.199219 1466 C 685.199219 1436.398438 640.800781 1436.398438 640.800781 1466 C 640.800781 1495.601562 685.199219 1495.601562 685.199219 1466 "/>
<path style=" stroke:none;fill-rule:evenodd;fill:rgb(0%,0%,0%);fill-opacity:1;" d="M 685.199219 1226 C 685.199219 1196.398438 640.800781 1196.398438 640.800781 1226 C 640.800781 1255.601562 685.199219 1255.601562 685.199219 1226 "/>
<path style=" stroke:none;fill-rule:evenodd;fill:rgb(0%,0%,0%);fill-opacity:1;" d="M 870.71875 1347.921875 C 870.71875 1313.519531 819.121094 1313.519531 819.121094 1347.921875 C 819.121094 1382.320312 870.71875 1382.320312 870.71875 1347.921875 "/>
<path style=" stroke:none;fill-rule:evenodd;fill:rgb(0%,0%,0%);fill-opacity:1;" d="M 988.800781 1347.921875 C 988.800781 1313.519531 937.199219 1313.519531 937.199219 1347.921875 C 937.199219 1382.320312 988.800781 1382.320312 988.800781 1347.921875 "/>
<path style=" stroke:none;fill-rule:evenodd;fill:rgb(0%,0%,0%);fill-opacity:1;" d="M 1106.941406 1347.921875 C 1106.941406 1313.519531 1055.339844 1313.519531 1055.339844 1347.921875 C 1055.339844 1382.320312 1106.941406 1382.320312 1106.941406 1347.921875 "/>
<path style=" stroke:none;fill-rule:evenodd;fill:rgb(0%,0%,0%);fill-opacity:1;" d="M 1106.941406 1466 C 1106.941406 1431.601562 1055.339844 1431.601562 1055.339844 1466 C 1055.339844 1500.398438 1106.941406 1500.398438 1106.941406 1466 "/>
<path style=" stroke:none;fill-rule:evenodd;fill:rgb(0%,0%,0%);fill-opacity:1;" d="M 988.800781 1466 C 988.800781 1431.601562 937.199219 1431.601562 937.199219 1466 C 937.199219 1500.398438 988.800781 1500.398438 988.800781 1466 "/>
<path style=" stroke:none;fill-rule:evenodd;fill:rgb(0%,0%,0%);fill-opacity:1;" d="M 870.71875 1466 C 870.71875 1431.601562 819.121094 1431.601562 819.121094 1466 C 819.121094 1500.398438 870.71875 1500.398438 870.71875 1466 "/>
<path style=" stroke:none;fill-rule:evenodd;fill:rgb(0%,0%,0%);fill-opacity:1;" d="M 506.941406 1466 C 506.941406 1431.601562 455.339844 1431.601562 455.339844 1466 C 455.339844 1500.398438 506.941406 1500.398438 506.941406 1466 "/>
<path style=" stroke:none;fill-rule:evenodd;fill:rgb(0%,0%,0%);fill-opacity:1;" d="M 388.800781 1466 C 388.800781 1431.601562 337.199219 1431.601562 337.199219 1466 C 337.199219 1500.398438 388.800781 1500.398438 388.800781 1466 "/>
<path style=" stroke:none;fill-rule:evenodd;fill:rgb(0%,0%,0%);fill-opacity:1;" d="M 270.71875 1466 C 270.71875 1431.601562 219.121094 1431.601562 219.121094 1466 C 219.121094 1500.398438 270.71875 1500.398438 270.71875 1466 "/>
<path style=" stroke:none;fill-rule:evenodd;fill:rgb(0%,0%,0%);fill-opacity:1;" d="M 270.71875 1347.921875 C 270.71875 1313.519531 219.121094 1313.519531 219.121094 1347.921875 C 219.121094 1382.320312 270.71875 1382.320312 270.71875 1347.921875 "/>
<path style=" stroke:none;fill-rule:evenodd;fill:rgb(0%,0%,0%);fill-opacity:1;" d="M 388.800781 1347.921875 C 388.800781 1313.519531 337.199219 1313.519531 337.199219 1347.921875 C 337.199219 1382.320312 388.800781 1382.320312 388.800781 1347.921875 "/>
<path style=" stroke:none;fill-rule:evenodd;fill:rgb(0%,0%,0%);fill-opacity:1;" d="M 506.941406 1347.921875 C 506.941406 1313.519531 455.339844 1313.519531 455.339844 1347.921875 C 455.339844 1382.320312 506.941406 1382.320312 506.941406 1347.921875 "/>
<path style=" stroke:none;fill-rule:evenodd;fill:rgb(0%,0%,0%);fill-opacity:1;" d="M 1470.71875 1347.921875 C 1470.71875 1313.519531 1419.121094 1313.519531 1419.121094 1347.921875 C 1419.121094 1382.320312 1470.71875 1382.320312 1470.71875 1347.921875 "/>
<path style=" stroke:none;fill-rule:evenodd;fill:rgb(0%,0%,0%);fill-opacity:1;" d="M 1588.800781 1347.921875 C 1588.800781 1313.519531 1537.199219 1313.519531 1537.199219 1347.921875 C 1537.199219 1382.320312 1588.800781 1382.320312 1588.800781 1347.921875 "/>
<path style=" stroke:none;fill-rule:evenodd;fill:rgb(0%,0%,0%);fill-opacity:1;" d="M 1706.941406 1347.921875 C 1706.941406 1313.519531 1655.339844 1313.519531 1655.339844 1347.921875 C 1655.339844 1382.320312 1706.941406 1382.320312 1706.941406 1347.921875 "/>
<path style=" stroke:none;fill-rule:evenodd;fill:rgb(0%,0%,0%);fill-opacity:1;" d="M 1706.941406 1466 C 1706.941406 1431.601562 1655.339844 1431.601562 1655.339844 1466 C 1655.339844 1500.398438 1706.941406 1500.398438 1706.941406 1466 "/>
<path style=" stroke:none;fill-rule:evenodd;fill:rgb(0%,0%,0%);fill-opacity:1;" d="M 1588.800781 1466 C 1588.800781 1431.601562 1537.199219 1431.601562 1537.199219 1466 C 1537.199219 1500.398438 1588.800781 1500.398438 1588.800781 1466 "/>
<path style=" stroke:none;fill-rule:evenodd;fill:rgb(0%,0%,0%);fill-opacity:1;" d="M 1470.71875 1466 C 1470.71875 1431.601562 1419.121094 1431.601562 1419.121094 1466 C 1419.121094 1500.398438 1470.71875 1500.398438 1470.71875 1466 "/>
<path style=" stroke:none;fill-rule:evenodd;fill:rgb(0%,0%,0%);fill-opacity:1;" d="M 2070.71875 1466 C 2070.71875 1431.601562 2019.121094 1431.601562 2019.121094 1466 C 2019.121094 1500.398438 2070.71875 1500.398438 2070.71875 1466 "/>
<path style=" stroke:none;fill-rule:evenodd;fill:rgb(0%,0%,0%);fill-opacity:1;" d="M 2188.800781 1466 C 2188.800781 1431.601562 2137.199219 1431.601562 2137.199219 1466 C 2137.199219 1500.398438 2188.800781 1500.398438 2188.800781 1466 "/>
<path style=" stroke:none;fill-rule:evenodd;fill:rgb(0%,0%,0%);fill-opacity:1;" d="M 2306.941406 1466 C 2306.941406 1431.601562 2255.339844 1431.601562 2255.339844 1466 C 2255.339844 1500.398438 2306.941406 1500.398438 2306.941406 1466 "/>
<path style=" stroke:none;fill-rule:evenodd;fill:rgb(0%,0%,0%);fill-opacity:1;" d="M 142.5 1465.101562 C 142.5 1439.101562 103.5 1439.101562 103.5 1465.101562 C 103.5 1491.101562 142.5 1491.101562 142.5 1465.101562 "/>
<path style=" stroke:none;fill-rule:evenodd;fill:rgb(0%,0%,0%);fill-opacity:1;" d="M 142.5 1346.960938 C 142.5 1320.960938 103.5 1320.960938 103.5 1346.960938 C 103.5 1372.960938 142.5 1372.960938 142.5 1346.960938 "/>
<path style=" stroke:none;fill-rule:evenodd;fill:rgb(0%,0%,0%);fill-opacity:1;" d="M 322.5 1255.101562 C 322.5 1229.101562 283.5 1229.101562 283.5 1255.101562 C 283.5 1281.101562 322.5 1281.101562 322.5 1255.101562 "/>
<path style=" stroke:none;fill-rule:evenodd;fill:rgb(0%,0%,0%);fill-opacity:1;" d="M 382.5 1255.101562 C 382.5 1229.101562 343.5 1229.101562 343.5 1255.101562 C 343.5 1281.101562 382.5 1281.101562 382.5 1255.101562 "/>
<path style=" stroke:none;fill-rule:evenodd;fill:rgb(0%,0%,0%);fill-opacity:1;" d="M 382.5 1136.960938 C 382.5 1110.960938 343.5 1110.960938 343.5 1136.960938 C 343.5 1162.960938 382.5 1162.960938 382.5 1136.960938 "/>
<path style=" stroke:none;fill-rule:evenodd;fill:rgb(0%,0%,0%);fill-opacity:1;" d="M 322.5 1136.960938 C 322.5 1110.960938 283.5 1110.960938 283.5 1136.960938 C 283.5 1162.960938 322.5 1162.960938 322.5 1136.960938 "/>
<path style=" stroke:none;fill-rule:evenodd;fill:rgb(0%,0%,0%);fill-opacity:1;" d="M 622.5 1346.960938 C 622.5 1320.960938 583.5 1320.960938 583.5 1346.960938 C 583.5 1372.960938 622.5 1372.960938 622.5 1346.960938 "/>
<path style=" stroke:none;fill-rule:evenodd;fill:rgb(0%,0%,0%);fill-opacity:1;" d="M 742.5 1316.960938 C 742.5 1290.960938 703.5 1290.960938 703.5 1316.960938 C 703.5 1342.960938 742.5 1342.960938 742.5 1316.960938 "/>
<path style=" stroke:none;fill-rule:evenodd;fill:rgb(0%,0%,0%);fill-opacity:1;" d="M 742.5 1435.101562 C 742.5 1409.101562 703.5 1409.101562 703.5 1435.101562 C 703.5 1461.101562 742.5 1461.101562 742.5 1435.101562 "/>
<path style=" stroke:none;fill-rule:evenodd;fill:rgb(0%,0%,0%);fill-opacity:1;" d="M 622.5 1465.101562 C 622.5 1439.101562 583.5 1439.101562 583.5 1465.101562 C 583.5 1491.101562 622.5 1491.101562 622.5 1465.101562 "/>
<path style=" stroke:none;fill-rule:evenodd;fill:rgb(0%,0%,0%);fill-opacity:1;" d="M 501.601562 746 C 501.601562 720 462.601562 720 462.601562 746 C 462.601562 772 501.601562 772 501.601562 746 "/>
<path style=" stroke:none;fill-rule:evenodd;fill:rgb(0%,0%,0%);fill-opacity:1;" d="M 383.460938 746 C 383.460938 720 344.460938 720 344.460938 746 C 344.460938 772 383.460938 772 383.460938 746 "/>
<path style=" stroke:none;fill-rule:evenodd;fill:rgb(0%,0%,0%);fill-opacity:1;" d="M 1132.5 266 C 1132.5 240 1093.5 240 1093.5 266 C 1093.5 292 1132.5 292 1132.5 266 "/>
<path style=" stroke:none;fill-rule:evenodd;fill:rgb(0%,0%,0%);fill-opacity:1;" d="M 1372.5 506.960938 C 1372.5 480.960938 1333.5 480.960938 1333.5 506.960938 C 1333.5 532.960938 1372.5 532.960938 1372.5 506.960938 "/>
<path style=" stroke:none;fill-rule:evenodd;fill:rgb(0%,0%,0%);fill-opacity:1;" d="M 1372.5 625.101562 C 1372.5 599.101562 1333.5 599.101562 1333.5 625.101562 C 1333.5 651.101562 1372.5 651.101562 1372.5 625.101562 "/>
<path style=" stroke:none;fill-rule:evenodd;fill:rgb(0%,0%,0%);fill-opacity:1;" d="M 1341.601562 746 C 1341.601562 720 1302.601562 720 1302.601562 746 C 1302.601562 772 1341.601562 772 1341.601562 746 "/>
<path style=" stroke:none;fill-rule:evenodd;fill:rgb(0%,0%,0%);fill-opacity:1;" d="M 1223.460938 746 C 1223.460938 720 1184.460938 720 1184.460938 746 C 1184.460938 772 1223.460938 772 1223.460938 746 "/>
<path style=" stroke:none;fill-rule:evenodd;fill:rgb(0%,0%,0%);fill-opacity:1;" d="M 1672.5 206 C 1672.5 180 1633.5 180 1633.5 206 C 1633.5 232 1672.5 232 1672.5 206 "/>
<path style=" stroke:none;fill-rule:evenodd;fill:rgb(0%,0%,0%);fill-opacity:1;" d="M 979.5 296 C 979.5 266 934.5 266 934.5 296 C 934.5 326 979.5 326 979.5 296 "/>
<path style=" stroke:none;fill-rule:evenodd;fill:rgb(0%,0%,0%);fill-opacity:1;" d="M 757.5 296 C 757.5 266 712.5 266 712.5 296 C 712.5 326 757.5 326 757.5 296 "/>
<path style=" stroke:none;fill-rule:evenodd;fill:rgb(0%,0%,0%);fill-opacity:1;" d="M 553.5 476 C 553.5 446 508.5 446 508.5 476 C 508.5 506 553.5 506 553.5 476 "/>
<path style=" stroke:none;fill-rule:evenodd;fill:rgb(0%,0%,0%);fill-opacity:1;" d="M 553.5 566 C 553.5 536 508.5 536 508.5 566 C 508.5 596 553.5 596 553.5 566 "/>
<path style=" stroke:none;fill-rule:evenodd;fill:rgb(0%,0%,0%);fill-opacity:1;" d="M 331.5 566 C 331.5 536 286.5 536 286.5 566 C 286.5 596 331.5 596 331.5 566 "/>
<path style=" stroke:none;fill-rule:evenodd;fill:rgb(0%,0%,0%);fill-opacity:1;" d="M 331.5 476 C 331.5 446 286.5 446 286.5 476 C 286.5 506 331.5 506 331.5 476 "/>
<path style=" stroke:none;fill-rule:evenodd;fill:rgb(0%,0%,0%);fill-opacity:1;" d="M 637.5 836 C 637.5 806 592.5 806 592.5 836 C 592.5 866 637.5 866 637.5 836 "/>
<path style=" stroke:none;fill-rule:evenodd;fill:rgb(0%,0%,0%);fill-opacity:1;" d="M 859.5 836 C 859.5 806 814.5 806 814.5 836 C 814.5 866 859.5 866 859.5 836 "/>
<path style=" stroke:none;fill-rule:evenodd;fill:rgb(0%,0%,0%);fill-opacity:1;" d="M 1105.5 998 C 1105.5 968 1060.5 968 1060.5 998 C 1060.5 1028 1105.5 1028 1105.5 998 "/>
<path style=" stroke:none;fill-rule:evenodd;fill:rgb(0%,0%,0%);fill-opacity:1;" d="M 1105.5 1220 C 1105.5 1190 1060.5 1190 1060.5 1220 C 1060.5 1250 1105.5 1250 1105.5 1220 "/>
<path style=" stroke:none;fill-rule:evenodd;fill:rgb(0%,0%,0%);fill-opacity:1;" d="M 1255.5 1238 C 1255.5 1208 1210.5 1208 1210.5 1238 C 1210.5 1268 1255.5 1268 1255.5 1238 "/>
<path style=" stroke:none;fill-rule:evenodd;fill:rgb(0%,0%,0%);fill-opacity:1;" d="M 1255.5 1460 C 1255.5 1430 1210.5 1430 1210.5 1460 C 1210.5 1490 1255.5 1490 1255.5 1460 "/>
<path style="fill:none;stroke-width:0.06;stroke-linecap:round;stroke-linejoin:miter;stroke:rgb(0%,0%,0%);stroke-opacity:1;stroke-miterlimit:10;" d="M 3.9533 1.2034 L 4.0133 1.2034 " transform="matrix(600,0,0,-600,-136.980003,1798.040009)"/>
<path style="fill:none;stroke-width:0.06;stroke-linecap:round;stroke-linejoin:miter;stroke:rgb(0%,0%,0%);stroke-opacity:1;stroke-miterlimit:10;" d="M 4.0133 1.3034 L 3.9533 1.3034 " transform="matrix(600,0,0,-600,-136.980003,1798.040009)"/>
<path style="fill:none;stroke-width:0.06;stroke-linecap:round;stroke-linejoin:miter;stroke:rgb(0%,0%,0%);stroke-opacity:1;stroke-miterlimit:10;" d="M 3.9533 1.4034 L 4.0133 1.4034 " transform="matrix(600,0,0,-600,-136.980003,1798.040009)"/>
<path style="fill:none;stroke-width:0.06;stroke-linecap:round;stroke-linejoin:miter;stroke:rgb(0%,0%,0%);stroke-opacity:1;stroke-miterlimit:10;" d="M 2.6333 2.6234 L 2.6333 2.6834 " transform="matrix(600,0,0,-600,-136.980003,1798.040009)"/>
<path style="fill:none;stroke-width:0.06;stroke-linecap:round;stroke-linejoin:miter;stroke:rgb(0%,0%,0%);stroke-opacity:1;stroke-miterlimit:10;" d="M 2.5333 2.6834 L 2.5333 2.6234 " transform="matrix(600,0,0,-600,-136.980003,1798.040009)"/>
<path style="fill:none;stroke-width:0.06;stroke-linecap:round;stroke-linejoin:miter;stroke:rgb(0%,0%,0%);stroke-opacity:1;stroke-miterlimit:10;" d="M 2.4333 2.6234 L 2.4333 2.6834 " transform="matrix(600,0,0,-600,-136.980003,1798.040009)"/>
<path style="fill:none;stroke-width:0.06;stroke-linecap:round;stroke-linejoin:miter;stroke:rgb(0%,0%,0%);stroke-opacity:1;stroke-miterlimit:10;" d="M 0.4633 2.2034 L 0.4033 2.2034 " transform="matrix(600,0,0,-600,-136.980003,1798.040009)"/>
<path style="fill:none;stroke-width:0.06;stroke-linecap:round;stroke-linejoin:miter;stroke:rgb(0%,0%,0%);stroke-opacity:1;stroke-miterlimit:10;" d="M 0.4033 2.1034 L 0.4633 2.1034 " transform="matrix(600,0,0,-600,-136.980003,1798.040009)"/>
<path style="fill:none;stroke-width:0.06;stroke-linecap:round;stroke-linejoin:miter;stroke:rgb(0%,0%,0%);stroke-opacity:1;stroke-miterlimit:10;" d="M 0.4633 2.0034 L 0.4033 2.0034 " transform="matrix(600,0,0,-600,-136.980003,1798.040009)"/>
<path style=" stroke:none;fill-rule:evenodd;fill:rgb(0%,0%,0%);fill-opacity:1;" d="M 1093.5 225.5 L 1132.5 225.5 L 1132.5 186.5 L 1093.5 186.5 Z "/>
<path style=" stroke:none;fill-rule:evenodd;fill:rgb(0%,0%,0%);fill-opacity:1;" d="M 1633.5 285.5 L 1672.5 285.5 L 1672.5 246.5 L 1633.5 246.5 Z "/>
<path style=" stroke:none;fill-rule:evenodd;fill:rgb(0%,0%,0%);fill-opacity:1;" d="M 1044 896 C 1044 868 1002 868 1002 896 C 1002 924 1044 924 1044 896 "/>
<path style=" stroke:none;fill-rule:evenodd;fill:rgb(0%,0%,0%);fill-opacity:1;" d="M 924 926 C 924 898 882 898 882 926 C 882 954 924 954 924 926 "/>
<path style=" stroke:none;fill-rule:evenodd;fill:rgb(0%,0%,0%);fill-opacity:1;" d="M 984 1076 C 984 1048 942 1048 942 1076 C 942 1104 984 1104 984 1076 "/>
<path style=" stroke:none;fill-rule:evenodd;fill:rgb(0%,0%,0%);fill-opacity:1;" d="M 924 1136 C 924 1108 882 1108 882 1136 C 882 1164 924 1164 924 1136 "/>
<path style=" stroke:none;fill-rule:evenodd;fill:rgb(0%,0%,0%);fill-opacity:1;" d="M 504 1076 C 504 1048 462 1048 462 1076 C 462 1104 504 1104 504 1076 "/>
<path style=" stroke:none;fill-rule:evenodd;fill:rgb(0%,0%,0%);fill-opacity:1;" d="M 444 1256 C 444 1228 402 1228 402 1256 C 402 1284 444 1284 444 1256 "/>
<path style=" stroke:none;fill-rule:evenodd;fill:rgb(0%,0%,0%);fill-opacity:1;" d="M 1344 1316 C 1344 1288 1302 1288 1302 1316 C 1302 1344 1344 1344 1344 1316 "/>
<path style=" stroke:none;fill-rule:evenodd;fill:rgb(0%,0%,0%);fill-opacity:1;" d="M 1344 1466 C 1344 1438 1302 1438 1302 1466 C 1302 1494 1344 1494 1344 1466 "/>
<path style=" stroke:none;fill-rule:evenodd;fill:rgb(0%,0%,0%);fill-opacity:1;" d="M 1584 1196 C 1584 1168 1542 1168 1542 1196 C 1542 1224 1584 1224 1584 1196 "/>
<path style=" stroke:none;fill-rule:evenodd;fill:rgb(0%,0%,0%);fill-opacity:1;" d="M 2064 1196 C 2064 1168 2022 1168 2022 1196 C 2022 1224 2064 1224 2064 1196 "/>
<path style="fill:none;stroke-width:0.032;stroke-linecap:round;stroke-linejoin:miter;stroke:rgb(0%,0%,0%);stroke-opacity:1;stroke-miterlimit:10;" d="M 3.6333 1.0034 L 2.8333 1.0034 " transform="matrix(600,0,0,-600,-136.980003,1798.040009)"/>
<path style="fill:none;stroke-width:0.032;stroke-linecap:round;stroke-linejoin:miter;stroke:rgb(0%,0%,0%);stroke-opacity:1;stroke-miterlimit:10;" d="M 1.8333 1.2034 L 1.9333 1.5034 " transform="matrix(600,0,0,-600,-136.980003,1798.040009)"/>
<path style="fill:none;stroke-width:0.032;stroke-linecap:round;stroke-linejoin:miter;stroke:rgb(0%,0%,0%);stroke-opacity:1;stroke-miterlimit:10;" d="M 1.7333 1.4534 L 1.7333 1.1034 " transform="matrix(600,0,0,-600,-136.980003,1798.040009)"/>
<path style="fill:none;stroke-width:0.032;stroke-linecap:round;stroke-linejoin:miter;stroke:rgb(0%,0%,0%);stroke-opacity:1;stroke-miterlimit:10;" d="M 1.0333 1.2034 L 0.9833 1.2034 " transform="matrix(600,0,0,-600,-136.980003,1798.040009)"/>
<path style="fill:none;stroke-width:0.032;stroke-linecap:round;stroke-linejoin:miter;stroke:rgb(0%,0%,0%);stroke-opacity:1;stroke-miterlimit:10;" d="M 0.9833 1.2034 L 0.9333 1.1534 " transform="matrix(600,0,0,-600,-136.980003,1798.040009)"/>
<path style="fill:none;stroke-width:0.032;stroke-linecap:round;stroke-linejoin:miter;stroke:rgb(0%,0%,0%);stroke-opacity:1;stroke-miterlimit:10;" d="M 0.9333 1.1534 L 0.9333 0.9034 " transform="matrix(600,0,0,-600,-136.980003,1798.040009)"/>
<path style="fill:none;stroke-width:0.04;stroke-linecap:round;stroke-linejoin:miter;stroke:rgb(0%,0%,0%);stroke-opacity:1;stroke-miterlimit:10;" d="M 2.4333 0.8034 L 2.4333 0.5534 " transform="matrix(600,0,0,-600,-136.980003,1798.040009)"/>
<path style=" stroke:none;fill-rule:evenodd;fill:rgb(100%,100%,100%);fill-opacity:1;" d="M 427.800781 1256 C 427.800781 1249.601562 418.199219 1249.601562 418.199219 1256 C 418.199219 1262.398438 427.800781 1262.398438 427.800781 1256 "/>
<path style=" stroke:none;fill-rule:evenodd;fill:rgb(100%,100%,100%);fill-opacity:1;" d="M 487.800781 1076 C 487.800781 1069.601562 478.199219 1069.601562 478.199219 1076 C 478.199219 1082.398438 487.800781 1082.398438 487.800781 1076 "/>
<path style=" stroke:none;fill-rule:evenodd;fill:rgb(100%,100%,100%);fill-opacity:1;" d="M 907.800781 1136 C 907.800781 1129.601562 898.199219 1129.601562 898.199219 1136 C 898.199219 1142.398438 907.800781 1142.398438 907.800781 1136 "/>
<path style=" stroke:none;fill-rule:evenodd;fill:rgb(100%,100%,100%);fill-opacity:1;" d="M 967.800781 1076 C 967.800781 1069.601562 958.199219 1069.601562 958.199219 1076 C 958.199219 1082.398438 967.800781 1082.398438 967.800781 1076 "/>
<path style=" stroke:none;fill-rule:evenodd;fill:rgb(100%,100%,100%);fill-opacity:1;" d="M 907.800781 926 C 907.800781 919.601562 898.199219 919.601562 898.199219 926 C 898.199219 932.398438 907.800781 932.398438 907.800781 926 "/>
<path style=" stroke:none;fill-rule:evenodd;fill:rgb(100%,100%,100%);fill-opacity:1;" d="M 1027.800781 896 C 1027.800781 889.601562 1018.199219 889.601562 1018.199219 896 C 1018.199219 902.398438 1027.800781 902.398438 1027.800781 896 "/>
<path style=" stroke:none;fill-rule:evenodd;fill:rgb(100%,100%,100%);fill-opacity:1;" d="M 1567.800781 1196 C 1567.800781 1189.601562 1558.199219 1189.601562 1558.199219 1196 C 1558.199219 1202.398438 1567.800781 1202.398438 1567.800781 1196 "/>
<path style=" stroke:none;fill-rule:evenodd;fill:rgb(100%,100%,100%);fill-opacity:1;" d="M 2047.800781 1196 C 2047.800781 1189.601562 2038.199219 1189.601562 2038.199219 1196 C 2038.199219 1202.398438 2047.800781 1202.398438 2047.800781 1196 "/>
<path style=" stroke:none;fill-rule:evenodd;fill:rgb(100%,100%,100%);fill-opacity:1;" d="M 2287.800781 176 C 2287.800781 169.601562 2278.199219 169.601562 2278.199219 176 C 2278.199219 182.398438 2287.800781 182.398438 2287.800781 176 "/>
<path style=" stroke:none;fill-rule:evenodd;fill:rgb(100%,100%,100%);fill-opacity:1;" d="M 97.800781 176 C 97.800781 169.601562 88.199219 169.601562 88.199219 176 C 88.199219 182.398438 97.800781 182.398438 97.800781 176 "/>
<path style=" stroke:none;fill-rule:evenodd;fill:rgb(100%,100%,100%);fill-opacity:1;" d="M 127.800781 1465.101562 C 127.800781 1458.699219 118.199219 1458.699219 118.199219 1465.101562 C 118.199219 1471.5 127.800781 1471.5 127.800781 1465.101562 "/>
<path style=" stroke:none;fill-rule:evenodd;fill:rgb(100%,100%,100%);fill-opacity:1;" d="M 127.800781 1346.960938 C 127.800781 1340.558594 118.199219 1340.558594 118.199219 1346.960938 C 118.199219 1353.359375 127.800781 1353.359375 127.800781 1346.960938 "/>
<path style=" stroke:none;fill-rule:evenodd;fill:rgb(100%,100%,100%);fill-opacity:1;" d="M 307.800781 1255.101562 C 307.800781 1248.699219 298.199219 1248.699219 298.199219 1255.101562 C 298.199219 1261.5 307.800781 1261.5 307.800781 1255.101562 "/>
<path style=" stroke:none;fill-rule:evenodd;fill:rgb(100%,100%,100%);fill-opacity:1;" d="M 367.800781 1255.101562 C 367.800781 1248.699219 358.199219 1248.699219 358.199219 1255.101562 C 358.199219 1261.5 367.800781 1261.5 367.800781 1255.101562 "/>
<path style=" stroke:none;fill-rule:evenodd;fill:rgb(100%,100%,100%);fill-opacity:1;" d="M 367.800781 1136.960938 C 367.800781 1130.558594 358.199219 1130.558594 358.199219 1136.960938 C 358.199219 1143.359375 367.800781 1143.359375 367.800781 1136.960938 "/>
<path style=" stroke:none;fill-rule:evenodd;fill:rgb(100%,100%,100%);fill-opacity:1;" d="M 307.800781 1136.960938 C 307.800781 1130.558594 298.199219 1130.558594 298.199219 1136.960938 C 298.199219 1143.359375 307.800781 1143.359375 307.800781 1136.960938 "/>
<path style=" stroke:none;fill-rule:evenodd;fill:rgb(100%,100%,100%);fill-opacity:1;" d="M 607.800781 1346.960938 C 607.800781 1340.558594 598.199219 1340.558594 598.199219 1346.960938 C 598.199219 1353.359375 607.800781 1353.359375 607.800781 1346.960938 "/>
<path style=" stroke:none;fill-rule:evenodd;fill:rgb(100%,100%,100%);fill-opacity:1;" d="M 727.800781 1316.960938 C 727.800781 1310.558594 718.199219 1310.558594 718.199219 1316.960938 C 718.199219 1323.359375 727.800781 1323.359375 727.800781 1316.960938 "/>
<path style=" stroke:none;fill-rule:evenodd;fill:rgb(100%,100%,100%);fill-opacity:1;" d="M 727.800781 1435.101562 C 727.800781 1428.699219 718.199219 1428.699219 718.199219 1435.101562 C 718.199219 1441.5 727.800781 1441.5 727.800781 1435.101562 "/>
<path style=" stroke:none;fill-rule:evenodd;fill:rgb(100%,100%,100%);fill-opacity:1;" d="M 607.800781 1465.101562 C 607.800781 1458.699219 598.199219 1458.699219 598.199219 1465.101562 C 598.199219 1471.5 607.800781 1471.5 607.800781 1465.101562 "/>
<path style=" stroke:none;fill-rule:evenodd;fill:rgb(100%,100%,100%);fill-opacity:1;" d="M 486.898438 746 C 486.898438 739.601562 477.300781 739.601562 477.300781 746 C 477.300781 752.398438 486.898438 752.398438 486.898438 746 "/>
<path style=" stroke:none;fill-rule:evenodd;fill:rgb(100%,100%,100%);fill-opacity:1;" d="M 368.761719 746 C 368.761719 739.601562 359.160156 739.601562 359.160156 746 C 359.160156 752.398438 368.761719 752.398438 368.761719 746 "/>
<path style=" stroke:none;fill-rule:evenodd;fill:rgb(100%,100%,100%);fill-opacity:1;" d="M 1117.800781 266 C 1117.800781 259.601562 1108.199219 259.601562 1108.199219 266 C 1108.199219 272.398438 1117.800781 272.398438 1117.800781 266 "/>
<path style=" stroke:none;fill-rule:evenodd;fill:rgb(100%,100%,100%);fill-opacity:1;" d="M 1117.800781 206 C 1117.800781 199.601562 1108.199219 199.601562 1108.199219 206 C 1108.199219 212.398438 1117.800781 212.398438 1117.800781 206 "/>
<path style=" stroke:none;fill-rule:evenodd;fill:rgb(100%,100%,100%);fill-opacity:1;" d="M 1357.800781 506.960938 C 1357.800781 500.558594 1348.199219 500.558594 1348.199219 506.960938 C 1348.199219 513.359375 1357.800781 513.359375 1357.800781 506.960938 "/>
<path style=" stroke:none;fill-rule:evenodd;fill:rgb(100%,100%,100%);fill-opacity:1;" d="M 1357.800781 625.101562 C 1357.800781 618.699219 1348.199219 618.699219 1348.199219 625.101562 C 1348.199219 631.5 1357.800781 631.5 1357.800781 625.101562 "/>
<path style=" stroke:none;fill-rule:evenodd;fill:rgb(100%,100%,100%);fill-opacity:1;" d="M 1326.898438 746 C 1326.898438 739.601562 1317.300781 739.601562 1317.300781 746 C 1317.300781 752.398438 1326.898438 752.398438 1326.898438 746 "/>
<path style=" stroke:none;fill-rule:evenodd;fill:rgb(100%,100%,100%);fill-opacity:1;" d="M 1208.761719 746 C 1208.761719 739.601562 1199.160156 739.601562 1199.160156 746 C 1199.160156 752.398438 1208.761719 752.398438 1208.761719 746 "/>
<path style=" stroke:none;fill-rule:evenodd;fill:rgb(100%,100%,100%);fill-opacity:1;" d="M 1657.800781 266 C 1657.800781 259.601562 1648.199219 259.601562 1648.199219 266 C 1648.199219 272.398438 1657.800781 272.398438 1657.800781 266 "/>
<path style=" stroke:none;fill-rule:evenodd;fill:rgb(100%,100%,100%);fill-opacity:1;" d="M 1657.800781 206 C 1657.800781 199.601562 1648.199219 199.601562 1648.199219 206 C 1648.199219 212.398438 1657.800781 212.398438 1657.800781 206 "/>
<path style=" stroke:none;fill-rule:evenodd;fill:rgb(100%,100%,100%);fill-opacity:1;" d="M 1327.800781 1316 C 1327.800781 1309.601562 1318.199219 1309.601562 1318.199219 1316 C 1318.199219 1322.398438 1327.800781 1322.398438 1327.800781 1316 "/>
<path style=" stroke:none;fill-rule:evenodd;fill:rgb(100%,100%,100%);fill-opacity:1;" d="M 1327.800781 1466 C 1327.800781 1459.601562 1318.199219 1459.601562 1318.199219 1466 C 1318.199219 1472.398438 1327.800781 1472.398438 1327.800781 1466 "/>
<path style=" stroke:none;fill-rule:evenodd;fill:rgb(100%,100%,100%);fill-opacity:1;" d="M 1267.800781 686 C 1267.800781 679.601562 1258.199219 679.601562 1258.199219 686 C 1258.199219 692.398438 1267.800781 692.398438 1267.800781 686 "/>
<path style=" stroke:none;fill-rule:evenodd;fill:rgb(100%,100%,100%);fill-opacity:1;" d="M 1207.800781 686 C 1207.800781 679.601562 1198.199219 679.601562 1198.199219 686 C 1198.199219 692.398438 1207.800781 692.398438 1207.800781 686 "/>
<path style=" stroke:none;fill-rule:evenodd;fill:rgb(100%,100%,100%);fill-opacity:1;" d="M 1147.800781 686 C 1147.800781 679.601562 1138.199219 679.601562 1138.199219 686 C 1138.199219 692.398438 1147.800781 692.398438 1147.800781 686 "/>
<path style=" stroke:none;fill-rule:evenodd;fill:rgb(100%,100%,100%);fill-opacity:1;" d="M 1087.800781 686 C 1087.800781 679.601562 1078.199219 679.601562 1078.199219 686 C 1078.199219 692.398438 1087.800781 692.398438 1087.800781 686 "/>
<path style=" stroke:none;fill-rule:evenodd;fill:rgb(100%,100%,100%);fill-opacity:1;" d="M 1087.800781 506 C 1087.800781 499.601562 1078.199219 499.601562 1078.199219 506 C 1078.199219 512.398438 1087.800781 512.398438 1087.800781 506 "/>
<path style=" stroke:none;fill-rule:evenodd;fill:rgb(100%,100%,100%);fill-opacity:1;" d="M 1147.800781 506 C 1147.800781 499.601562 1138.199219 499.601562 1138.199219 506 C 1138.199219 512.398438 1147.800781 512.398438 1147.800781 506 "/>
<path style=" stroke:none;fill-rule:evenodd;fill:rgb(100%,100%,100%);fill-opacity:1;" d="M 1207.800781 506 C 1207.800781 499.601562 1198.199219 499.601562 1198.199219 506 C 1198.199219 512.398438 1207.800781 512.398438 1207.800781 506 "/>
<path style=" stroke:none;fill-rule:evenodd;fill:rgb(100%,100%,100%);fill-opacity:1;" d="M 1267.800781 506 C 1267.800781 499.601562 1258.199219 499.601562 1258.199219 506 C 1258.199219 512.398438 1267.800781 512.398438 1267.800781 506 "/>
<path style=" stroke:none;fill-rule:evenodd;fill:rgb(100%,100%,100%);fill-opacity:1;" d="M 1207.800781 386 C 1207.800781 379.601562 1198.199219 379.601562 1198.199219 386 C 1198.199219 392.398438 1207.800781 392.398438 1207.800781 386 "/>
<path style=" stroke:none;fill-rule:evenodd;fill:rgb(100%,100%,100%);fill-opacity:1;" d="M 1327.800781 386 C 1327.800781 379.601562 1318.199219 379.601562 1318.199219 386 C 1318.199219 392.398438 1327.800781 392.398438 1327.800781 386 "/>
<path style=" stroke:none;fill-rule:evenodd;fill:rgb(100%,100%,100%);fill-opacity:1;" d="M 1567.800781 386 C 1567.800781 379.601562 1558.199219 379.601562 1558.199219 386 C 1558.199219 392.398438 1567.800781 392.398438 1567.800781 386 "/>
<path style=" stroke:none;fill-rule:evenodd;fill:rgb(100%,100%,100%);fill-opacity:1;" d="M 967.800781 386 C 967.800781 379.601562 958.199219 379.601562 958.199219 386 C 958.199219 392.398438 967.800781 392.398438 967.800781 386 "/>
<path style=" stroke:none;fill-rule:evenodd;fill:rgb(100%,100%,100%);fill-opacity:1;" d="M 961.800781 296 C 961.800781 289.601562 952.199219 289.601562 952.199219 296 C 952.199219 302.398438 961.800781 302.398438 961.800781 296 "/>
<path style=" stroke:none;fill-rule:evenodd;fill:rgb(100%,100%,100%);fill-opacity:1;" d="M 739.800781 296 C 739.800781 289.601562 730.199219 289.601562 730.199219 296 C 730.199219 302.398438 739.800781 302.398438 739.800781 296 "/>
<path style=" stroke:none;fill-rule:evenodd;fill:rgb(100%,100%,100%);fill-opacity:1;" d="M 547.800781 386 C 547.800781 379.601562 538.199219 379.601562 538.199219 386 C 538.199219 392.398438 547.800781 392.398438 547.800781 386 "/>
<path style=" stroke:none;fill-rule:evenodd;fill:rgb(100%,100%,100%);fill-opacity:1;" d="M 535.800781 476 C 535.800781 469.601562 526.199219 469.601562 526.199219 476 C 526.199219 482.398438 535.800781 482.398438 535.800781 476 "/>
<path style=" stroke:none;fill-rule:evenodd;fill:rgb(100%,100%,100%);fill-opacity:1;" d="M 535.800781 566 C 535.800781 559.601562 526.199219 559.601562 526.199219 566 C 526.199219 572.398438 535.800781 572.398438 535.800781 566 "/>
<path style=" stroke:none;fill-rule:evenodd;fill:rgb(100%,100%,100%);fill-opacity:1;" d="M 547.800781 656 C 547.800781 649.601562 538.199219 649.601562 538.199219 656 C 538.199219 662.398438 547.800781 662.398438 547.800781 656 "/>
<path style=" stroke:none;fill-rule:evenodd;fill:rgb(100%,100%,100%);fill-opacity:1;" d="M 727.800781 656 C 727.800781 649.601562 718.199219 649.601562 718.199219 656 C 718.199219 662.398438 727.800781 662.398438 727.800781 656 "/>
<path style=" stroke:none;fill-rule:evenodd;fill:rgb(100%,100%,100%);fill-opacity:1;" d="M 727.800781 536 C 727.800781 529.601562 718.199219 529.601562 718.199219 536 C 718.199219 542.398438 727.800781 542.398438 727.800781 536 "/>
<path style=" stroke:none;fill-rule:evenodd;fill:rgb(100%,100%,100%);fill-opacity:1;" d="M 967.800781 536 C 967.800781 529.601562 958.199219 529.601562 958.199219 536 C 958.199219 542.398438 967.800781 542.398438 967.800781 536 "/>
<path style=" stroke:none;fill-rule:evenodd;fill:rgb(100%,100%,100%);fill-opacity:1;" d="M 967.800781 656 C 967.800781 649.601562 958.199219 649.601562 958.199219 656 C 958.199219 662.398438 967.800781 662.398438 967.800781 656 "/>
<path style=" stroke:none;fill-rule:evenodd;fill:rgb(100%,100%,100%);fill-opacity:1;" d="M 907.800781 836 C 907.800781 829.601562 898.199219 829.601562 898.199219 836 C 898.199219 842.398438 907.800781 842.398438 907.800781 836 "/>
<path style=" stroke:none;fill-rule:evenodd;fill:rgb(100%,100%,100%);fill-opacity:1;" d="M 841.800781 836 C 841.800781 829.601562 832.199219 829.601562 832.199219 836 C 832.199219 842.398438 841.800781 842.398438 841.800781 836 "/>
<path style=" stroke:none;fill-rule:evenodd;fill:rgb(100%,100%,100%);fill-opacity:1;" d="M 847.800781 986 C 847.800781 979.601562 838.199219 979.601562 838.199219 986 C 838.199219 992.398438 847.800781 992.398438 847.800781 986 "/>
<path style=" stroke:none;fill-rule:evenodd;fill:rgb(100%,100%,100%);fill-opacity:1;" d="M 787.800781 1076 C 787.800781 1069.601562 778.199219 1069.601562 778.199219 1076 C 778.199219 1082.398438 787.800781 1082.398438 787.800781 1076 "/>
<path style=" stroke:none;fill-rule:evenodd;fill:rgb(100%,100%,100%);fill-opacity:1;" d="M 607.800781 986 C 607.800781 979.601562 598.199219 979.601562 598.199219 986 C 598.199219 992.398438 607.800781 992.398438 607.800781 986 "/>
<path style=" stroke:none;fill-rule:evenodd;fill:rgb(100%,100%,100%);fill-opacity:1;" d="M 547.800781 1076 C 547.800781 1069.601562 538.199219 1069.601562 538.199219 1076 C 538.199219 1082.398438 547.800781 1082.398438 547.800781 1076 "/>
<path style=" stroke:none;fill-rule:evenodd;fill:rgb(100%,100%,100%);fill-opacity:1;" d="M 367.800781 1046 C 367.800781 1039.601562 358.199219 1039.601562 358.199219 1046 C 358.199219 1052.398438 367.800781 1052.398438 367.800781 1046 "/>
<path style=" stroke:none;fill-rule:evenodd;fill:rgb(100%,100%,100%);fill-opacity:1;" d="M 277.800781 1046 C 277.800781 1039.601562 268.199219 1039.601562 268.199219 1046 C 268.199219 1052.398438 277.800781 1052.398438 277.800781 1046 "/>
<path style=" stroke:none;fill-rule:evenodd;fill:rgb(100%,100%,100%);fill-opacity:1;" d="M 67.800781 1166 C 67.800781 1159.601562 58.199219 1159.601562 58.199219 1166 C 58.199219 1172.398438 67.800781 1172.398438 67.800781 1166 "/>
<path style=" stroke:none;fill-rule:evenodd;fill:rgb(100%,100%,100%);fill-opacity:1;" d="M 67.800781 1406 C 67.800781 1399.601562 58.199219 1399.601562 58.199219 1406 C 58.199219 1412.398438 67.800781 1412.398438 67.800781 1406 "/>
<path style=" stroke:none;fill-rule:evenodd;fill:rgb(100%,100%,100%);fill-opacity:1;" d="M 667.800781 1466 C 667.800781 1459.601562 658.199219 1459.601562 658.199219 1466 C 658.199219 1472.398438 667.800781 1472.398438 667.800781 1466 "/>
<path style=" stroke:none;fill-rule:evenodd;fill:rgb(100%,100%,100%);fill-opacity:1;" d="M 667.800781 1226 C 667.800781 1219.601562 658.199219 1219.601562 658.199219 1226 C 658.199219 1232.398438 667.800781 1232.398438 667.800781 1226 "/>
<path style=" stroke:none;fill-rule:evenodd;fill:rgb(100%,100%,100%);fill-opacity:1;" d="M 1087.800781 1220 C 1087.800781 1213.601562 1078.199219 1213.601562 1078.199219 1220 C 1078.199219 1226.398438 1087.800781 1226.398438 1087.800781 1220 "/>
<path style=" stroke:none;fill-rule:evenodd;fill:rgb(100%,100%,100%);fill-opacity:1;" d="M 1237.800781 1238 C 1237.800781 1231.601562 1228.199219 1231.601562 1228.199219 1238 C 1228.199219 1244.398438 1237.800781 1244.398438 1237.800781 1238 "/>
<path style=" stroke:none;fill-rule:evenodd;fill:rgb(100%,100%,100%);fill-opacity:1;" d="M 1237.800781 1460 C 1237.800781 1453.601562 1228.199219 1453.601562 1228.199219 1460 C 1228.199219 1466.398438 1237.800781 1466.398438 1237.800781 1460 "/>
<path style=" stroke:none;fill-rule:evenodd;fill:rgb(100%,100%,100%);fill-opacity:1;" d="M 1087.800781 998 C 1087.800781 991.601562 1078.199219 991.601562 1078.199219 998 C 1078.199219 1004.398438 1087.800781 1004.398438 1087.800781 998 "/>
<path style=" stroke:none;fill-rule:evenodd;fill:rgb(100%,100%,100%);fill-opacity:1;" d="M 1147.800781 836 C 1147.800781 829.601562 1138.199219 829.601562 1138.199219 836 C 1138.199219 842.398438 1147.800781 842.398438 1147.800781 836 "/>
<path style=" stroke:none;fill-rule:evenodd;fill:rgb(100%,100%,100%);fill-opacity:1;" d="M 1207.800781 836 C 1207.800781 829.601562 1198.199219 829.601562 1198.199219 836 C 1198.199219 842.398438 1207.800781 842.398438 1207.800781 836 "/>
<path style=" stroke:none;fill-rule:evenodd;fill:rgb(100%,100%,100%);fill-opacity:1;" d="M 1447.800781 836 C 1447.800781 829.601562 1438.199219 829.601562 1438.199219 836 C 1438.199219 842.398438 1447.800781 842.398438 1447.800781 836 "/>
<path style=" stroke:none;fill-rule:evenodd;fill:rgb(100%,100%,100%);fill-opacity:1;" d="M 619.800781 836 C 619.800781 829.601562 610.199219 829.601562 610.199219 836 C 610.199219 842.398438 619.800781 842.398438 619.800781 836 "/>
<path style=" stroke:none;fill-rule:evenodd;fill:rgb(100%,100%,100%);fill-opacity:1;" d="M 367.800781 806 C 367.800781 799.601562 358.199219 799.601562 358.199219 806 C 358.199219 812.398438 367.800781 812.398438 367.800781 806 "/>
<path style=" stroke:none;fill-rule:evenodd;fill:rgb(100%,100%,100%);fill-opacity:1;" d="M 277.800781 806 C 277.800781 799.601562 268.199219 799.601562 268.199219 806 C 268.199219 812.398438 277.800781 812.398438 277.800781 806 "/>
<path style=" stroke:none;fill-rule:evenodd;fill:rgb(100%,100%,100%);fill-opacity:1;" d="M 307.800781 656 C 307.800781 649.601562 298.199219 649.601562 298.199219 656 C 298.199219 662.398438 307.800781 662.398438 307.800781 656 "/>
<path style=" stroke:none;fill-rule:evenodd;fill:rgb(100%,100%,100%);fill-opacity:1;" d="M 313.800781 566 C 313.800781 559.601562 304.199219 559.601562 304.199219 566 C 304.199219 572.398438 313.800781 572.398438 313.800781 566 "/>
<path style=" stroke:none;fill-rule:evenodd;fill:rgb(100%,100%,100%);fill-opacity:1;" d="M 313.800781 476 C 313.800781 469.601562 304.199219 469.601562 304.199219 476 C 304.199219 482.398438 313.800781 482.398438 313.800781 476 "/>
<path style=" stroke:none;fill-rule:evenodd;fill:rgb(100%,100%,100%);fill-opacity:1;" d="M 307.800781 386 C 307.800781 379.601562 298.199219 379.601562 298.199219 386 C 298.199219 392.398438 307.800781 392.398438 307.800781 386 "/>
<path style=" stroke:none;fill-rule:evenodd;fill:rgb(100%,100%,100%);fill-opacity:1;" d="M 127.800781 476 C 127.800781 469.601562 118.199219 469.601562 118.199219 476 C 118.199219 482.398438 127.800781 482.398438 127.800781 476 "/>
<path style=" stroke:none;fill-rule:evenodd;fill:rgb(100%,100%,100%);fill-opacity:1;" d="M 127.800781 536 C 127.800781 529.601562 118.199219 529.601562 118.199219 536 C 118.199219 542.398438 127.800781 542.398438 127.800781 536 "/>
<path style=" stroke:none;fill-rule:evenodd;fill:rgb(100%,100%,100%);fill-opacity:1;" d="M 127.800781 596 C 127.800781 589.601562 118.199219 589.601562 118.199219 596 C 118.199219 602.398438 127.800781 602.398438 127.800781 596 "/>
<path style=" stroke:none;fill-rule:evenodd;fill:rgb(100%,100%,100%);fill-opacity:1;" d="M 1327.800781 206 C 1327.800781 199.601562 1318.199219 199.601562 1318.199219 206 C 1318.199219 212.398438 1327.800781 212.398438 1327.800781 206 "/>
<path style=" stroke:none;fill-rule:evenodd;fill:rgb(100%,100%,100%);fill-opacity:1;" d="M 1387.800781 206 C 1387.800781 199.601562 1378.199219 199.601562 1378.199219 206 C 1378.199219 212.398438 1387.800781 212.398438 1387.800781 206 "/>
<path style=" stroke:none;fill-rule:evenodd;fill:rgb(100%,100%,100%);fill-opacity:1;" d="M 1447.800781 206 C 1447.800781 199.601562 1438.199219 199.601562 1438.199219 206 C 1438.199219 212.398438 1447.800781 212.398438 1447.800781 206 "/>
<path style=" stroke:none;fill-rule:evenodd;fill:rgb(100%,100%,100%);fill-opacity:1;" d="M 2257.800781 956 C 2257.800781 949.601562 2248.199219 949.601562 2248.199219 956 C 2248.199219 962.398438 2257.800781 962.398438 2257.800781 956 "/>
<path style=" stroke:none;fill-rule:evenodd;fill:rgb(100%,100%,100%);fill-opacity:1;" d="M 2257.800781 1016 C 2257.800781 1009.601562 2248.199219 1009.601562 2248.199219 1016 C 2248.199219 1022.398438 2257.800781 1022.398438 2257.800781 1016 "/>
<path style=" stroke:none;fill-rule:evenodd;fill:rgb(100%,100%,100%);fill-opacity:1;" d="M 2257.800781 1076 C 2257.800781 1069.601562 2248.199219 1069.601562 2248.199219 1076 C 2248.199219 1082.398438 2257.800781 1082.398438 2257.800781 1076 "/>
<path style=" stroke:none;fill-rule:evenodd;fill:rgb(100%,100%,100%);fill-opacity:1;" d="M 2285.941406 1466 C 2285.941406 1459.601562 2276.339844 1459.601562 2276.339844 1466 C 2276.339844 1472.398438 2285.941406 1472.398438 2285.941406 1466 "/>
<path style=" stroke:none;fill-rule:evenodd;fill:rgb(100%,100%,100%);fill-opacity:1;" d="M 2167.800781 1466 C 2167.800781 1459.601562 2158.199219 1459.601562 2158.199219 1466 C 2158.199219 1472.398438 2167.800781 1472.398438 2167.800781 1466 "/>
<path style=" stroke:none;fill-rule:evenodd;fill:rgb(100%,100%,100%);fill-opacity:1;" d="M 2049.71875 1466 C 2049.71875 1459.601562 2040.121094 1459.601562 2040.121094 1466 C 2040.121094 1472.398438 2049.71875 1472.398438 2049.71875 1466 "/>
<path style=" stroke:none;fill-rule:evenodd;fill:rgb(100%,100%,100%);fill-opacity:1;" d="M 1685.941406 1466 C 1685.941406 1459.601562 1676.339844 1459.601562 1676.339844 1466 C 1676.339844 1472.398438 1685.941406 1472.398438 1685.941406 1466 "/>
<path style=" stroke:none;fill-rule:evenodd;fill:rgb(100%,100%,100%);fill-opacity:1;" d="M 1567.800781 1466 C 1567.800781 1459.601562 1558.199219 1459.601562 1558.199219 1466 C 1558.199219 1472.398438 1567.800781 1472.398438 1567.800781 1466 "/>
<path style=" stroke:none;fill-rule:evenodd;fill:rgb(100%,100%,100%);fill-opacity:1;" d="M 1449.71875 1466 C 1449.71875 1459.601562 1440.121094 1459.601562 1440.121094 1466 C 1440.121094 1472.398438 1449.71875 1472.398438 1449.71875 1466 "/>
<path style=" stroke:none;fill-rule:evenodd;fill:rgb(100%,100%,100%);fill-opacity:1;" d="M 1449.71875 1347.921875 C 1449.71875 1341.519531 1440.121094 1341.519531 1440.121094 1347.921875 C 1440.121094 1354.320312 1449.71875 1354.320312 1449.71875 1347.921875 "/>
<path style=" stroke:none;fill-rule:evenodd;fill:rgb(100%,100%,100%);fill-opacity:1;" d="M 1567.800781 1347.921875 C 1567.800781 1341.519531 1558.199219 1341.519531 1558.199219 1347.921875 C 1558.199219 1354.320312 1567.800781 1354.320312 1567.800781 1347.921875 "/>
<path style=" stroke:none;fill-rule:evenodd;fill:rgb(100%,100%,100%);fill-opacity:1;" d="M 1685.941406 1347.921875 C 1685.941406 1341.519531 1676.339844 1341.519531 1676.339844 1347.921875 C 1676.339844 1354.320312 1685.941406 1354.320312 1685.941406 1347.921875 "/>
<path style=" stroke:none;fill-rule:evenodd;fill:rgb(100%,100%,100%);fill-opacity:1;" d="M 1085.941406 1347.921875 C 1085.941406 1341.519531 1076.339844 1341.519531 1076.339844 1347.921875 C 1076.339844 1354.320312 1085.941406 1354.320312 1085.941406 1347.921875 "/>
<path style=" stroke:none;fill-rule:evenodd;fill:rgb(100%,100%,100%);fill-opacity:1;" d="M 967.800781 1347.921875 C 967.800781 1341.519531 958.199219 1341.519531 958.199219 1347.921875 C 958.199219 1354.320312 967.800781 1354.320312 967.800781 1347.921875 "/>
<path style=" stroke:none;fill-rule:evenodd;fill:rgb(100%,100%,100%);fill-opacity:1;" d="M 849.71875 1347.921875 C 849.71875 1341.519531 840.121094 1341.519531 840.121094 1347.921875 C 840.121094 1354.320312 849.71875 1354.320312 849.71875 1347.921875 "/>
<path style=" stroke:none;fill-rule:evenodd;fill:rgb(100%,100%,100%);fill-opacity:1;" d="M 849.71875 1466 C 849.71875 1459.601562 840.121094 1459.601562 840.121094 1466 C 840.121094 1472.398438 849.71875 1472.398438 849.71875 1466 "/>
<path style=" stroke:none;fill-rule:evenodd;fill:rgb(100%,100%,100%);fill-opacity:1;" d="M 967.800781 1466 C 967.800781 1459.601562 958.199219 1459.601562 958.199219 1466 C 958.199219 1472.398438 967.800781 1472.398438 967.800781 1466 "/>
<path style=" stroke:none;fill-rule:evenodd;fill:rgb(100%,100%,100%);fill-opacity:1;" d="M 1085.941406 1466 C 1085.941406 1459.601562 1076.339844 1459.601562 1076.339844 1466 C 1076.339844 1472.398438 1085.941406 1472.398438 1085.941406 1466 "/>
<path style=" stroke:none;fill-rule:evenodd;fill:rgb(100%,100%,100%);fill-opacity:1;" d="M 485.941406 1466 C 485.941406 1459.601562 476.339844 1459.601562 476.339844 1466 C 476.339844 1472.398438 485.941406 1472.398438 485.941406 1466 "/>
<path style=" stroke:none;fill-rule:evenodd;fill:rgb(100%,100%,100%);fill-opacity:1;" d="M 367.800781 1466 C 367.800781 1459.601562 358.199219 1459.601562 358.199219 1466 C 358.199219 1472.398438 367.800781 1472.398438 367.800781 1466 "/>
<path style=" stroke:none;fill-rule:evenodd;fill:rgb(100%,100%,100%);fill-opacity:1;" d="M 249.71875 1466 C 249.71875 1459.601562 240.121094 1459.601562 240.121094 1466 C 240.121094 1472.398438 249.71875 1472.398438 249.71875 1466 "/>
<path style=" stroke:none;fill-rule:evenodd;fill:rgb(100%,100%,100%);fill-opacity:1;" d="M 249.71875 1347.921875 C 249.71875 1341.519531 240.121094 1341.519531 240.121094 1347.921875 C 240.121094 1354.320312 249.71875 1354.320312 249.71875 1347.921875 "/>
<path style=" stroke:none;fill-rule:evenodd;fill:rgb(100%,100%,100%);fill-opacity:1;" d="M 367.800781 1347.921875 C 367.800781 1341.519531 358.199219 1341.519531 358.199219 1347.921875 C 358.199219 1354.320312 367.800781 1354.320312 367.800781 1347.921875 "/>
<path style=" stroke:none;fill-rule:evenodd;fill:rgb(100%,100%,100%);fill-opacity:1;" d="M 485.941406 1347.921875 C 485.941406 1341.519531 476.339844 1341.519531 476.339844 1347.921875 C 476.339844 1354.320312 485.941406 1354.320312 485.941406 1347.921875 "/>
</g>
</svg>
