%
M48
M72
T01C0.0160
T02C0.0160
T03C0.0160
T04C0.0160
T05C0.0160
T06C0.0160
T07C0.0160
%
T01
X16260Y5150
X16260Y8650
X21760Y5150
X24760Y5150
X25760Y6150
X26760Y6150
X26760Y12650
X25760Y12650
X25760Y13650
X25760Y14650
X13260Y14150
X13260Y15150
T02
X16260Y16150
X17260Y16150
X18760Y3650
X18760Y2650
X20260Y2650
X20260Y3650
T03
X10260Y8650
X15260Y11650
X18260Y11650
X20260Y15650
X19260Y16650
X21260Y17650
X17760Y18650
X16260Y20650
X23260Y20650
X26760Y18650
X26760Y17650
X26760Y16650
X26760Y15650
X34260Y14650
X34260Y19650
X31260Y5150
T04
X28260Y10150
X24760Y10150
X23260Y10150
X22260Y10150
X21260Y10150
X20260Y10150
X19260Y10150
X18260Y10150
X17260Y10150
X16260Y10150
X15260Y10150
X14260Y10150
X13260Y10150
X12260Y10150
X11260Y10150
X10260Y10150
X8260Y10150
X10260Y13150
X11260Y13150
X12260Y13150
X13260Y13150
X14260Y13150
X15260Y13150
X16260Y13150
X17260Y13150
X18260Y13150
X19260Y13150
X20260Y13150
X21260Y13150
X22260Y13150
X23260Y13150
X24760Y12650
X28260Y13150
X24760Y19650
X21405Y22977
X20405Y22977
X19405Y22977
X18405Y22977
X17405Y22977
X16405Y22977
X15405Y22977
X14405Y22977
X13405Y22977
X12405Y22977
X11405Y22977
X10405Y22977
X9405Y22977
X8405Y22977
X7405Y22977
X6405Y22977
X5760Y20150
X4260Y20150
X4260Y19150
X4260Y18150
X5760Y15150
X8260Y15150
X14260Y16650
X14260Y18650
X17760Y19650
X18310Y6650
X20210Y6650
T05
X28260Y14650
X29760Y14650
X29760Y18650
X28260Y19650
T06
X32260Y21150
X33260Y21150
X34260Y21150
X35260Y21150
X36260Y21150
X36260Y22150
X35260Y22150
X34260Y22150
X33260Y22150
X32260Y22150
X37370Y16930
X39150Y16930
X39150Y14370
X37370Y14370
X36260Y3650
X35260Y3650
X29760Y3650
X28760Y3650
X27760Y3650
X26760Y3650
X25760Y3650
X24760Y3650
X16260Y3650
X15260Y3650
X14260Y3650
X13260Y3650
X8760Y3650
X7760Y3650
X6760Y3650
X5760Y3650
X4260Y6650
X4260Y7650
X4260Y8650
X4260Y11150
X4260Y12150
X4260Y13150
X4260Y15650
X4260Y16650
T07
X3452Y1323
X3452Y22977
X40067Y22977
X40067Y1323
M30
