G75*
%MOIN*%
%OFA0B0*%
%FSLAX25Y25*%
%IPPOS*%
%LPD*%
%AMOC8*
5,1,8,0,0,1.08239X$1,22.5*
%
%ADD10C,0.05200*%
%ADD11C,0.06600*%
%ADD12C,0.06500*%
%ADD13OC8,0.07400*%
%ADD14C,0.06000*%
%ADD15C,0.07400*%
%ADD16C,0.01200*%
%ADD17C,0.07000*%
%ADD18C,0.01600*%
D10*
X0102595Y0098900D02*
X0102595Y0104100D01*
X0112595Y0104100D02*
X0112595Y0098900D01*
X0122595Y0098900D02*
X0122595Y0104100D01*
X0132595Y0104100D02*
X0132595Y0098900D01*
X0142595Y0098900D02*
X0142595Y0104100D01*
X0152595Y0104100D02*
X0152595Y0098900D01*
X0162595Y0098900D02*
X0162595Y0104100D01*
X0172595Y0104100D02*
X0172595Y0098900D01*
X0182595Y0098900D02*
X0182595Y0104100D01*
X0192595Y0104100D02*
X0192595Y0098900D01*
X0202595Y0098900D02*
X0202595Y0104100D01*
X0212595Y0104100D02*
X0212595Y0098900D01*
X0222595Y0098900D02*
X0222595Y0104100D01*
X0232595Y0104100D02*
X0232595Y0098900D01*
X0232595Y0128900D02*
X0232595Y0134100D01*
X0222595Y0134100D02*
X0222595Y0128900D01*
X0212595Y0128900D02*
X0212595Y0134100D01*
X0202595Y0134100D02*
X0202595Y0128900D01*
X0192595Y0128900D02*
X0192595Y0134100D01*
X0182595Y0134100D02*
X0182595Y0128900D01*
X0172595Y0128900D02*
X0172595Y0134100D01*
X0162595Y0134100D02*
X0162595Y0128900D01*
X0152595Y0128900D02*
X0152595Y0134100D01*
X0142595Y0134100D02*
X0142595Y0128900D01*
X0132595Y0128900D02*
X0132595Y0134100D01*
X0122595Y0134100D02*
X0122595Y0128900D01*
X0112595Y0128900D02*
X0112595Y0134100D01*
X0102595Y0134100D02*
X0102595Y0128900D01*
X0045195Y0181500D02*
X0039995Y0181500D01*
X0039995Y0191500D02*
X0045195Y0191500D01*
X0045195Y0201500D02*
X0039995Y0201500D01*
X0064052Y0227168D02*
X0064052Y0232368D01*
X0074052Y0232368D02*
X0074052Y0227168D01*
X0084052Y0227168D02*
X0084052Y0232368D01*
X0094052Y0232368D02*
X0094052Y0227168D01*
X0104052Y0227168D02*
X0104052Y0232368D01*
X0114052Y0232368D02*
X0114052Y0227168D01*
X0124052Y0227168D02*
X0124052Y0232368D01*
X0134052Y0232368D02*
X0134052Y0227168D01*
X0144052Y0227168D02*
X0144052Y0232368D01*
X0154052Y0232368D02*
X0154052Y0227168D01*
X0164052Y0227168D02*
X0164052Y0232368D01*
X0174052Y0232368D02*
X0174052Y0227168D01*
X0184052Y0227168D02*
X0184052Y0232368D01*
X0194052Y0232368D02*
X0194052Y0227168D01*
X0204052Y0227168D02*
X0204052Y0232368D01*
X0214052Y0232368D02*
X0214052Y0227168D01*
D11*
X0247595Y0196500D03*
X0177595Y0196500D03*
X0247595Y0126500D03*
X0282595Y0131500D03*
X0282595Y0101500D03*
X0247595Y0101500D03*
X0202095Y0066500D03*
X0183095Y0066500D03*
D12*
X0187595Y0036500D03*
X0187595Y0026500D03*
X0202595Y0026500D03*
X0202595Y0036500D03*
X0172595Y0161500D03*
X0162595Y0161500D03*
D13*
X0322595Y0211500D03*
X0332595Y0211500D03*
X0342595Y0211500D03*
X0352595Y0211500D03*
X0362595Y0211500D03*
X0362595Y0221500D03*
X0352595Y0221500D03*
X0342595Y0221500D03*
X0332595Y0221500D03*
X0322595Y0221500D03*
D14*
X0057595Y0039500D02*
X0057595Y0033500D01*
X0067595Y0033500D02*
X0067595Y0039500D01*
X0077595Y0039500D02*
X0077595Y0033500D01*
X0087595Y0033500D02*
X0087595Y0039500D01*
X0045595Y0066500D02*
X0039595Y0066500D01*
X0039595Y0076500D02*
X0045595Y0076500D01*
X0045595Y0086500D02*
X0039595Y0086500D01*
X0039595Y0111500D02*
X0045595Y0111500D01*
X0045595Y0121500D02*
X0039595Y0121500D01*
X0039595Y0131500D02*
X0045595Y0131500D01*
X0045595Y0156500D02*
X0039595Y0156500D01*
X0039595Y0166500D02*
X0045595Y0166500D01*
X0132595Y0039500D02*
X0132595Y0033500D01*
X0142595Y0033500D02*
X0142595Y0039500D01*
X0152595Y0039500D02*
X0152595Y0033500D01*
X0162595Y0033500D02*
X0162595Y0039500D01*
X0247595Y0039500D02*
X0247595Y0033500D01*
X0257595Y0033500D02*
X0257595Y0039500D01*
X0267595Y0039500D02*
X0267595Y0033500D01*
X0277595Y0033500D02*
X0277595Y0039500D01*
X0287595Y0039500D02*
X0287595Y0033500D01*
X0297595Y0033500D02*
X0297595Y0039500D01*
X0352595Y0039500D02*
X0352595Y0033500D01*
X0362595Y0033500D02*
X0362595Y0039500D01*
D15*
X0373695Y0143700D03*
X0391495Y0143700D03*
X0391495Y0169300D03*
X0373695Y0169300D03*
X0297595Y0186500D03*
X0282595Y0196500D03*
X0282595Y0146500D03*
X0297595Y0146500D03*
D16*
X0282595Y0131500D02*
X0282595Y0101500D01*
X0247595Y0101500D02*
X0247595Y0126500D01*
X0257595Y0126500D02*
X0257595Y0061500D01*
X0267595Y0061500D02*
X0267595Y0126500D01*
X0257595Y0146500D02*
X0197595Y0146500D01*
X0192595Y0151500D01*
X0132595Y0151500D01*
X0142595Y0166500D02*
X0142595Y0186500D01*
X0162595Y0206500D02*
X0232595Y0206500D01*
X0247595Y0196500D02*
X0177595Y0196500D01*
X0177595Y0186500D02*
X0267595Y0186500D01*
X0267595Y0176500D02*
X0212595Y0176500D01*
X0192595Y0166500D02*
X0267595Y0166500D01*
X0267595Y0156500D02*
X0202595Y0156500D01*
X0182595Y0116500D02*
X0152595Y0116500D01*
X0162595Y0086500D02*
X0102595Y0086500D01*
X0082595Y0101500D02*
X0082595Y0151500D01*
X0057595Y0151500D02*
X0057595Y0201500D01*
X0162595Y0051500D02*
X0217595Y0051500D01*
X0247595Y0051500D02*
X0312595Y0051500D01*
X0342595Y0146500D02*
X0342595Y0196500D01*
D17*
X0342595Y0196500D03*
X0342595Y0146500D03*
X0267595Y0156500D03*
X0267595Y0166500D03*
X0267595Y0176500D03*
X0267595Y0186500D03*
X0232595Y0206500D03*
X0212595Y0176500D03*
X0192595Y0166500D03*
X0202595Y0156500D03*
X0177595Y0186500D03*
X0162595Y0206500D03*
X0142595Y0186500D03*
X0142595Y0166500D03*
X0132595Y0151500D03*
X0132595Y0141500D03*
X0152595Y0116500D03*
X0182595Y0116500D03*
X0162595Y0086500D03*
X0162595Y0051500D03*
X0217595Y0051500D03*
X0247595Y0051500D03*
X0257595Y0061500D03*
X0267595Y0061500D03*
X0312595Y0051500D03*
X0267595Y0126500D03*
X0257595Y0126500D03*
X0257595Y0136500D03*
X0257595Y0146500D03*
X0102595Y0086500D03*
X0082595Y0101500D03*
X0082595Y0151500D03*
X0057595Y0151500D03*
X0057595Y0201500D03*
D18*
X0132595Y0141500D02*
X0252595Y0141500D01*
X0257595Y0136500D01*
M02*
