G75*
G70*
%OFA0B0*%
%FSLAX24Y24*%
%IPPOS*%
%LPD*%
%AMOC8*
5,1,8,0,0,1.08239X$1,22.5*
%
%ADD10C,0.0100*%
%ADD11C,0.0051*%
%ADD12C,0.0110*%
%ADD13C,0.0000*%
D10*
X000333Y000150D02*
X000333Y022146D01*
X040703Y022146D01*
X040703Y000150D01*
X000333Y000150D01*
D11*
X000333Y022150D02*
X000333Y023418D01*
X000333Y022650D02*
X001357Y022548D01*
X001357Y022524D02*
X000333Y022650D01*
X001357Y022752D01*
X001357Y022776D02*
X001357Y022524D01*
X001357Y022599D02*
X000333Y022650D01*
X001357Y022701D01*
X001357Y022776D02*
X000333Y022650D01*
X040833Y022650D01*
X039810Y022548D01*
X039810Y022524D02*
X040833Y022650D01*
X039810Y022752D01*
X039810Y022776D02*
X039810Y022524D01*
X039810Y022599D02*
X040833Y022650D01*
X039810Y022701D01*
X039810Y022776D02*
X040833Y022650D01*
X040833Y022150D02*
X040833Y023418D01*
D12*
X022160Y023423D02*
X021766Y023030D01*
X021766Y022931D01*
X021515Y023030D02*
X021417Y022931D01*
X021220Y022931D01*
X021122Y023030D01*
X021122Y023128D01*
X021220Y023226D01*
X021417Y023226D01*
X021515Y023128D01*
X021515Y023030D01*
X021417Y023226D02*
X021515Y023325D01*
X021515Y023423D01*
X021417Y023522D01*
X021220Y023522D01*
X021122Y023423D01*
X021122Y023325D01*
X021220Y023226D01*
X020898Y023030D02*
X020898Y022931D01*
X020799Y022931D01*
X020799Y023030D01*
X020898Y023030D01*
X020549Y022931D02*
X020155Y022931D01*
X020549Y023325D01*
X020549Y023423D01*
X020450Y023522D01*
X020253Y023522D01*
X020155Y023423D01*
X019904Y023423D02*
X019510Y023030D01*
X019609Y022931D01*
X019806Y022931D01*
X019904Y023030D01*
X019904Y023423D01*
X019806Y023522D01*
X019609Y023522D01*
X019510Y023423D01*
X019510Y023030D01*
X019259Y022931D02*
X018866Y022931D01*
X019063Y022931D02*
X019063Y023522D01*
X018866Y023325D01*
X021766Y023522D02*
X022160Y023522D01*
X022160Y023423D01*
D13*
X034546Y019252D02*
X034548Y019299D01*
X034554Y019345D01*
X034564Y019391D01*
X034577Y019436D01*
X034595Y019479D01*
X034616Y019521D01*
X034640Y019561D01*
X034668Y019598D01*
X034699Y019633D01*
X034733Y019666D01*
X034769Y019695D01*
X034808Y019721D01*
X034849Y019744D01*
X034892Y019763D01*
X034936Y019779D01*
X034981Y019791D01*
X035027Y019799D01*
X035074Y019803D01*
X035120Y019803D01*
X035167Y019799D01*
X035213Y019791D01*
X035258Y019779D01*
X035302Y019763D01*
X035345Y019744D01*
X035386Y019721D01*
X035425Y019695D01*
X035461Y019666D01*
X035495Y019633D01*
X035526Y019598D01*
X035554Y019561D01*
X035578Y019521D01*
X035599Y019479D01*
X035617Y019436D01*
X035630Y019391D01*
X035640Y019345D01*
X035646Y019299D01*
X035648Y019252D01*
X035646Y019205D01*
X035640Y019159D01*
X035630Y019113D01*
X035617Y019068D01*
X035599Y019025D01*
X035578Y018983D01*
X035554Y018943D01*
X035526Y018906D01*
X035495Y018871D01*
X035461Y018838D01*
X035425Y018809D01*
X035386Y018783D01*
X035345Y018760D01*
X035302Y018741D01*
X035258Y018725D01*
X035213Y018713D01*
X035167Y018705D01*
X035120Y018701D01*
X035074Y018701D01*
X035027Y018705D01*
X034981Y018713D01*
X034936Y018725D01*
X034892Y018741D01*
X034849Y018760D01*
X034808Y018783D01*
X034769Y018809D01*
X034733Y018838D01*
X034699Y018871D01*
X034668Y018906D01*
X034640Y018943D01*
X034616Y018983D01*
X034595Y019025D01*
X034577Y019068D01*
X034564Y019113D01*
X034554Y019159D01*
X034548Y019205D01*
X034546Y019252D01*
X038183Y020150D02*
X038185Y020200D01*
X038191Y020250D01*
X038201Y020300D01*
X038214Y020348D01*
X038231Y020396D01*
X038252Y020442D01*
X038276Y020486D01*
X038304Y020528D01*
X038335Y020568D01*
X038369Y020605D01*
X038406Y020640D01*
X038445Y020671D01*
X038486Y020700D01*
X038530Y020725D01*
X038576Y020747D01*
X038623Y020765D01*
X038671Y020779D01*
X038720Y020790D01*
X038770Y020797D01*
X038820Y020800D01*
X038871Y020799D01*
X038921Y020794D01*
X038971Y020785D01*
X039019Y020773D01*
X039067Y020756D01*
X039113Y020736D01*
X039158Y020713D01*
X039201Y020686D01*
X039241Y020656D01*
X039279Y020623D01*
X039314Y020587D01*
X039347Y020548D01*
X039376Y020507D01*
X039402Y020464D01*
X039425Y020419D01*
X039444Y020372D01*
X039459Y020324D01*
X039471Y020275D01*
X039479Y020225D01*
X039483Y020175D01*
X039483Y020125D01*
X039479Y020075D01*
X039471Y020025D01*
X039459Y019976D01*
X039444Y019928D01*
X039425Y019881D01*
X039402Y019836D01*
X039376Y019793D01*
X039347Y019752D01*
X039314Y019713D01*
X039279Y019677D01*
X039241Y019644D01*
X039201Y019614D01*
X039158Y019587D01*
X039113Y019564D01*
X039067Y019544D01*
X039019Y019527D01*
X038971Y019515D01*
X038921Y019506D01*
X038871Y019501D01*
X038820Y019500D01*
X038770Y019503D01*
X038720Y019510D01*
X038671Y019521D01*
X038623Y019535D01*
X038576Y019553D01*
X038530Y019575D01*
X038486Y019600D01*
X038445Y019629D01*
X038406Y019660D01*
X038369Y019695D01*
X038335Y019732D01*
X038304Y019772D01*
X038276Y019814D01*
X038252Y019858D01*
X038231Y019904D01*
X038214Y019952D01*
X038201Y020000D01*
X038191Y020050D01*
X038185Y020100D01*
X038183Y020150D01*
X034546Y007048D02*
X034548Y007095D01*
X034554Y007141D01*
X034564Y007187D01*
X034577Y007232D01*
X034595Y007275D01*
X034616Y007317D01*
X034640Y007357D01*
X034668Y007394D01*
X034699Y007429D01*
X034733Y007462D01*
X034769Y007491D01*
X034808Y007517D01*
X034849Y007540D01*
X034892Y007559D01*
X034936Y007575D01*
X034981Y007587D01*
X035027Y007595D01*
X035074Y007599D01*
X035120Y007599D01*
X035167Y007595D01*
X035213Y007587D01*
X035258Y007575D01*
X035302Y007559D01*
X035345Y007540D01*
X035386Y007517D01*
X035425Y007491D01*
X035461Y007462D01*
X035495Y007429D01*
X035526Y007394D01*
X035554Y007357D01*
X035578Y007317D01*
X035599Y007275D01*
X035617Y007232D01*
X035630Y007187D01*
X035640Y007141D01*
X035646Y007095D01*
X035648Y007048D01*
X035646Y007001D01*
X035640Y006955D01*
X035630Y006909D01*
X035617Y006864D01*
X035599Y006821D01*
X035578Y006779D01*
X035554Y006739D01*
X035526Y006702D01*
X035495Y006667D01*
X035461Y006634D01*
X035425Y006605D01*
X035386Y006579D01*
X035345Y006556D01*
X035302Y006537D01*
X035258Y006521D01*
X035213Y006509D01*
X035167Y006501D01*
X035120Y006497D01*
X035074Y006497D01*
X035027Y006501D01*
X034981Y006509D01*
X034936Y006521D01*
X034892Y006537D01*
X034849Y006556D01*
X034808Y006579D01*
X034769Y006605D01*
X034733Y006634D01*
X034699Y006667D01*
X034668Y006702D01*
X034640Y006739D01*
X034616Y006779D01*
X034595Y006821D01*
X034577Y006864D01*
X034564Y006909D01*
X034554Y006955D01*
X034548Y007001D01*
X034546Y007048D01*
X038183Y002150D02*
X038185Y002200D01*
X038191Y002250D01*
X038201Y002300D01*
X038214Y002348D01*
X038231Y002396D01*
X038252Y002442D01*
X038276Y002486D01*
X038304Y002528D01*
X038335Y002568D01*
X038369Y002605D01*
X038406Y002640D01*
X038445Y002671D01*
X038486Y002700D01*
X038530Y002725D01*
X038576Y002747D01*
X038623Y002765D01*
X038671Y002779D01*
X038720Y002790D01*
X038770Y002797D01*
X038820Y002800D01*
X038871Y002799D01*
X038921Y002794D01*
X038971Y002785D01*
X039019Y002773D01*
X039067Y002756D01*
X039113Y002736D01*
X039158Y002713D01*
X039201Y002686D01*
X039241Y002656D01*
X039279Y002623D01*
X039314Y002587D01*
X039347Y002548D01*
X039376Y002507D01*
X039402Y002464D01*
X039425Y002419D01*
X039444Y002372D01*
X039459Y002324D01*
X039471Y002275D01*
X039479Y002225D01*
X039483Y002175D01*
X039483Y002125D01*
X039479Y002075D01*
X039471Y002025D01*
X039459Y001976D01*
X039444Y001928D01*
X039425Y001881D01*
X039402Y001836D01*
X039376Y001793D01*
X039347Y001752D01*
X039314Y001713D01*
X039279Y001677D01*
X039241Y001644D01*
X039201Y001614D01*
X039158Y001587D01*
X039113Y001564D01*
X039067Y001544D01*
X039019Y001527D01*
X038971Y001515D01*
X038921Y001506D01*
X038871Y001501D01*
X038820Y001500D01*
X038770Y001503D01*
X038720Y001510D01*
X038671Y001521D01*
X038623Y001535D01*
X038576Y001553D01*
X038530Y001575D01*
X038486Y001600D01*
X038445Y001629D01*
X038406Y001660D01*
X038369Y001695D01*
X038335Y001732D01*
X038304Y001772D01*
X038276Y001814D01*
X038252Y001858D01*
X038231Y001904D01*
X038214Y001952D01*
X038201Y002000D01*
X038191Y002050D01*
X038185Y002100D01*
X038183Y002150D01*
X005019Y007048D02*
X005021Y007095D01*
X005027Y007141D01*
X005037Y007187D01*
X005050Y007232D01*
X005068Y007275D01*
X005089Y007317D01*
X005113Y007357D01*
X005141Y007394D01*
X005172Y007429D01*
X005206Y007462D01*
X005242Y007491D01*
X005281Y007517D01*
X005322Y007540D01*
X005365Y007559D01*
X005409Y007575D01*
X005454Y007587D01*
X005500Y007595D01*
X005547Y007599D01*
X005593Y007599D01*
X005640Y007595D01*
X005686Y007587D01*
X005731Y007575D01*
X005775Y007559D01*
X005818Y007540D01*
X005859Y007517D01*
X005898Y007491D01*
X005934Y007462D01*
X005968Y007429D01*
X005999Y007394D01*
X006027Y007357D01*
X006051Y007317D01*
X006072Y007275D01*
X006090Y007232D01*
X006103Y007187D01*
X006113Y007141D01*
X006119Y007095D01*
X006121Y007048D01*
X006119Y007001D01*
X006113Y006955D01*
X006103Y006909D01*
X006090Y006864D01*
X006072Y006821D01*
X006051Y006779D01*
X006027Y006739D01*
X005999Y006702D01*
X005968Y006667D01*
X005934Y006634D01*
X005898Y006605D01*
X005859Y006579D01*
X005818Y006556D01*
X005775Y006537D01*
X005731Y006521D01*
X005686Y006509D01*
X005640Y006501D01*
X005593Y006497D01*
X005547Y006497D01*
X005500Y006501D01*
X005454Y006509D01*
X005409Y006521D01*
X005365Y006537D01*
X005322Y006556D01*
X005281Y006579D01*
X005242Y006605D01*
X005206Y006634D01*
X005172Y006667D01*
X005141Y006702D01*
X005113Y006739D01*
X005089Y006779D01*
X005068Y006821D01*
X005050Y006864D01*
X005037Y006909D01*
X005027Y006955D01*
X005021Y007001D01*
X005019Y007048D01*
X001683Y002150D02*
X001685Y002200D01*
X001691Y002250D01*
X001701Y002300D01*
X001714Y002348D01*
X001731Y002396D01*
X001752Y002442D01*
X001776Y002486D01*
X001804Y002528D01*
X001835Y002568D01*
X001869Y002605D01*
X001906Y002640D01*
X001945Y002671D01*
X001986Y002700D01*
X002030Y002725D01*
X002076Y002747D01*
X002123Y002765D01*
X002171Y002779D01*
X002220Y002790D01*
X002270Y002797D01*
X002320Y002800D01*
X002371Y002799D01*
X002421Y002794D01*
X002471Y002785D01*
X002519Y002773D01*
X002567Y002756D01*
X002613Y002736D01*
X002658Y002713D01*
X002701Y002686D01*
X002741Y002656D01*
X002779Y002623D01*
X002814Y002587D01*
X002847Y002548D01*
X002876Y002507D01*
X002902Y002464D01*
X002925Y002419D01*
X002944Y002372D01*
X002959Y002324D01*
X002971Y002275D01*
X002979Y002225D01*
X002983Y002175D01*
X002983Y002125D01*
X002979Y002075D01*
X002971Y002025D01*
X002959Y001976D01*
X002944Y001928D01*
X002925Y001881D01*
X002902Y001836D01*
X002876Y001793D01*
X002847Y001752D01*
X002814Y001713D01*
X002779Y001677D01*
X002741Y001644D01*
X002701Y001614D01*
X002658Y001587D01*
X002613Y001564D01*
X002567Y001544D01*
X002519Y001527D01*
X002471Y001515D01*
X002421Y001506D01*
X002371Y001501D01*
X002320Y001500D01*
X002270Y001503D01*
X002220Y001510D01*
X002171Y001521D01*
X002123Y001535D01*
X002076Y001553D01*
X002030Y001575D01*
X001986Y001600D01*
X001945Y001629D01*
X001906Y001660D01*
X001869Y001695D01*
X001835Y001732D01*
X001804Y001772D01*
X001776Y001814D01*
X001752Y001858D01*
X001731Y001904D01*
X001714Y001952D01*
X001701Y002000D01*
X001691Y002050D01*
X001685Y002100D01*
X001683Y002150D01*
X005019Y019252D02*
X005021Y019299D01*
X005027Y019345D01*
X005037Y019391D01*
X005050Y019436D01*
X005068Y019479D01*
X005089Y019521D01*
X005113Y019561D01*
X005141Y019598D01*
X005172Y019633D01*
X005206Y019666D01*
X005242Y019695D01*
X005281Y019721D01*
X005322Y019744D01*
X005365Y019763D01*
X005409Y019779D01*
X005454Y019791D01*
X005500Y019799D01*
X005547Y019803D01*
X005593Y019803D01*
X005640Y019799D01*
X005686Y019791D01*
X005731Y019779D01*
X005775Y019763D01*
X005818Y019744D01*
X005859Y019721D01*
X005898Y019695D01*
X005934Y019666D01*
X005968Y019633D01*
X005999Y019598D01*
X006027Y019561D01*
X006051Y019521D01*
X006072Y019479D01*
X006090Y019436D01*
X006103Y019391D01*
X006113Y019345D01*
X006119Y019299D01*
X006121Y019252D01*
X006119Y019205D01*
X006113Y019159D01*
X006103Y019113D01*
X006090Y019068D01*
X006072Y019025D01*
X006051Y018983D01*
X006027Y018943D01*
X005999Y018906D01*
X005968Y018871D01*
X005934Y018838D01*
X005898Y018809D01*
X005859Y018783D01*
X005818Y018760D01*
X005775Y018741D01*
X005731Y018725D01*
X005686Y018713D01*
X005640Y018705D01*
X005593Y018701D01*
X005547Y018701D01*
X005500Y018705D01*
X005454Y018713D01*
X005409Y018725D01*
X005365Y018741D01*
X005322Y018760D01*
X005281Y018783D01*
X005242Y018809D01*
X005206Y018838D01*
X005172Y018871D01*
X005141Y018906D01*
X005113Y018943D01*
X005089Y018983D01*
X005068Y019025D01*
X005050Y019068D01*
X005037Y019113D01*
X005027Y019159D01*
X005021Y019205D01*
X005019Y019252D01*
X001683Y020150D02*
X001685Y020200D01*
X001691Y020250D01*
X001701Y020300D01*
X001714Y020348D01*
X001731Y020396D01*
X001752Y020442D01*
X001776Y020486D01*
X001804Y020528D01*
X001835Y020568D01*
X001869Y020605D01*
X001906Y020640D01*
X001945Y020671D01*
X001986Y020700D01*
X002030Y020725D01*
X002076Y020747D01*
X002123Y020765D01*
X002171Y020779D01*
X002220Y020790D01*
X002270Y020797D01*
X002320Y020800D01*
X002371Y020799D01*
X002421Y020794D01*
X002471Y020785D01*
X002519Y020773D01*
X002567Y020756D01*
X002613Y020736D01*
X002658Y020713D01*
X002701Y020686D01*
X002741Y020656D01*
X002779Y020623D01*
X002814Y020587D01*
X002847Y020548D01*
X002876Y020507D01*
X002902Y020464D01*
X002925Y020419D01*
X002944Y020372D01*
X002959Y020324D01*
X002971Y020275D01*
X002979Y020225D01*
X002983Y020175D01*
X002983Y020125D01*
X002979Y020075D01*
X002971Y020025D01*
X002959Y019976D01*
X002944Y019928D01*
X002925Y019881D01*
X002902Y019836D01*
X002876Y019793D01*
X002847Y019752D01*
X002814Y019713D01*
X002779Y019677D01*
X002741Y019644D01*
X002701Y019614D01*
X002658Y019587D01*
X002613Y019564D01*
X002567Y019544D01*
X002519Y019527D01*
X002471Y019515D01*
X002421Y019506D01*
X002371Y019501D01*
X002320Y019500D01*
X002270Y019503D01*
X002220Y019510D01*
X002171Y019521D01*
X002123Y019535D01*
X002076Y019553D01*
X002030Y019575D01*
X001986Y019600D01*
X001945Y019629D01*
X001906Y019660D01*
X001869Y019695D01*
X001835Y019732D01*
X001804Y019772D01*
X001776Y019814D01*
X001752Y019858D01*
X001731Y019904D01*
X001714Y019952D01*
X001701Y020000D01*
X001691Y020050D01*
X001685Y020100D01*
X001683Y020150D01*
M02*
