G75*
%MOIN*%
%OFA0B0*%
%FSLAX25Y25*%
%IPPOS*%
%LPD*%
%AMOC8*
5,1,8,0,0,1.08239X$1,22.5*
%
%ADD10C,0.01000*%
%ADD11C,0.00600*%
%ADD12C,0.00800*%
%ADD13C,0.01100*%
%ADD14C,0.00512*%
%ADD15C,0.00200*%
%ADD16C,0.00000*%
%ADD17C,0.01600*%
%ADD18C,0.00500*%
D10*
X0003333Y0001500D02*
X0003333Y0221461D01*
X0407034Y0221461D01*
X0407034Y0001500D01*
X0003333Y0001500D01*
D11*
X0033633Y0017934D02*
X0034768Y0016800D01*
X0035902Y0017934D01*
X0035902Y0020203D01*
X0037316Y0019636D02*
X0037316Y0017367D01*
X0037884Y0016800D01*
X0039018Y0016800D01*
X0039585Y0017367D01*
X0041000Y0017367D02*
X0041000Y0019636D01*
X0041567Y0020203D01*
X0042701Y0020203D01*
X0043268Y0019636D01*
X0043268Y0017367D02*
X0042701Y0016800D01*
X0041567Y0016800D01*
X0041000Y0017367D01*
X0039585Y0019636D02*
X0039018Y0020203D01*
X0037884Y0020203D01*
X0037316Y0019636D01*
X0033633Y0020203D02*
X0033633Y0017934D01*
X0048366Y0017934D02*
X0050067Y0017934D01*
X0050635Y0018501D01*
X0050635Y0019636D01*
X0050067Y0020203D01*
X0048366Y0020203D01*
X0048366Y0016800D01*
X0049500Y0017934D02*
X0050635Y0016800D01*
X0052049Y0016800D02*
X0054318Y0020203D01*
X0052049Y0020203D02*
X0054318Y0016800D01*
X0059415Y0020203D02*
X0061684Y0020203D01*
X0060550Y0020203D02*
X0060550Y0016800D01*
X0063098Y0016800D02*
X0065367Y0020203D01*
X0063098Y0020203D02*
X0065367Y0016800D01*
X0070465Y0017367D02*
X0071032Y0016800D01*
X0072166Y0016800D01*
X0072733Y0017367D01*
X0072733Y0018501D01*
X0071599Y0018501D01*
X0070465Y0017367D02*
X0070465Y0019636D01*
X0071032Y0020203D01*
X0072166Y0020203D01*
X0072733Y0019636D01*
X0074148Y0020203D02*
X0076417Y0016800D01*
X0076417Y0020203D01*
X0077831Y0020203D02*
X0077831Y0016800D01*
X0079533Y0016800D01*
X0080100Y0017367D01*
X0080100Y0019636D01*
X0079533Y0020203D01*
X0077831Y0020203D01*
X0074148Y0020203D02*
X0074148Y0016800D01*
X0075833Y0026500D02*
X0070833Y0026500D01*
X0068333Y0029000D01*
X0065833Y0026500D01*
X0060833Y0026500D01*
X0058333Y0029000D01*
X0055833Y0026500D01*
X0050833Y0026500D01*
X0048333Y0029000D01*
X0045833Y0026500D01*
X0040833Y0026500D01*
X0038333Y0029000D01*
X0038333Y0034000D01*
X0040833Y0036500D01*
X0045833Y0036500D01*
X0048333Y0034000D01*
X0050833Y0036500D01*
X0055833Y0036500D01*
X0058333Y0034000D01*
X0058333Y0029000D01*
X0058333Y0034000D02*
X0060833Y0036500D01*
X0065833Y0036500D01*
X0068333Y0034000D01*
X0070833Y0036500D01*
X0075833Y0036500D01*
X0078333Y0034000D01*
X0078333Y0029000D01*
X0075833Y0026500D01*
X0068333Y0029000D02*
X0068333Y0034000D01*
X0048333Y0034000D02*
X0048333Y0029000D01*
X0030833Y0056500D02*
X0025833Y0056500D01*
X0023333Y0059000D01*
X0023333Y0064000D01*
X0025833Y0066500D01*
X0023333Y0069000D01*
X0023333Y0074000D01*
X0025833Y0076500D01*
X0023333Y0079000D01*
X0023333Y0084000D01*
X0025833Y0086500D01*
X0030833Y0086500D01*
X0033333Y0084000D01*
X0033333Y0079000D01*
X0030833Y0076500D01*
X0033333Y0074000D01*
X0033333Y0069000D01*
X0030833Y0066500D01*
X0033333Y0064000D01*
X0033333Y0059000D01*
X0030833Y0056500D01*
X0018268Y0057367D02*
X0018268Y0059636D01*
X0017701Y0060203D01*
X0016000Y0060203D01*
X0016000Y0056800D01*
X0017701Y0056800D01*
X0018268Y0057367D01*
X0014585Y0056800D02*
X0014585Y0060203D01*
X0012316Y0060203D02*
X0014585Y0056800D01*
X0012316Y0056800D02*
X0012316Y0060203D01*
X0010902Y0059636D02*
X0010335Y0060203D01*
X0009200Y0060203D01*
X0008633Y0059636D01*
X0008633Y0057367D01*
X0009200Y0056800D01*
X0010335Y0056800D01*
X0010902Y0057367D01*
X0010902Y0058501D01*
X0009768Y0058501D01*
X0010335Y0068800D02*
X0009200Y0068800D01*
X0008633Y0069367D01*
X0009200Y0070501D02*
X0010335Y0070501D01*
X0010902Y0069934D01*
X0010902Y0069367D01*
X0010335Y0068800D01*
X0012316Y0068800D02*
X0014018Y0068800D01*
X0014585Y0069367D01*
X0014585Y0071636D01*
X0014018Y0072203D01*
X0012316Y0072203D01*
X0012316Y0068800D01*
X0010902Y0071636D02*
X0010335Y0072203D01*
X0009200Y0072203D01*
X0008633Y0071636D01*
X0008633Y0071069D01*
X0009200Y0070501D01*
X0016000Y0070501D02*
X0018268Y0070501D01*
X0018268Y0071069D02*
X0018268Y0068800D01*
X0016000Y0068800D02*
X0016000Y0071069D01*
X0017134Y0072203D01*
X0018268Y0071069D01*
X0025833Y0066500D02*
X0030833Y0066500D01*
X0030833Y0076500D02*
X0025833Y0076500D01*
X0018268Y0080800D02*
X0016000Y0080800D01*
X0016000Y0084203D01*
X0014585Y0083636D02*
X0014018Y0084203D01*
X0012884Y0084203D01*
X0012316Y0083636D01*
X0012316Y0081367D01*
X0012884Y0080800D01*
X0014018Y0080800D01*
X0014585Y0081367D01*
X0010902Y0081367D02*
X0010335Y0080800D01*
X0009200Y0080800D01*
X0008633Y0081367D01*
X0009200Y0082501D02*
X0010335Y0082501D01*
X0010902Y0081934D01*
X0010902Y0081367D01*
X0009200Y0082501D02*
X0008633Y0083069D01*
X0008633Y0083636D01*
X0009200Y0084203D01*
X0010335Y0084203D01*
X0010902Y0083636D01*
X0093333Y0034000D02*
X0095833Y0036500D01*
X0100833Y0036500D01*
X0103333Y0034000D01*
X0105833Y0036500D01*
X0110833Y0036500D01*
X0113333Y0034000D01*
X0113333Y0029000D01*
X0110833Y0026500D01*
X0105833Y0026500D01*
X0103333Y0029000D01*
X0100833Y0026500D01*
X0095833Y0026500D01*
X0093333Y0029000D01*
X0093333Y0034000D01*
X0103333Y0034000D02*
X0103333Y0029000D01*
X0113333Y0029000D02*
X0115833Y0026500D01*
X0120833Y0026500D01*
X0123333Y0029000D01*
X0125833Y0026500D01*
X0130833Y0026500D01*
X0133333Y0029000D01*
X0133333Y0034000D01*
X0130833Y0036500D01*
X0125833Y0036500D01*
X0123333Y0034000D01*
X0123333Y0029000D01*
X0123333Y0034000D02*
X0120833Y0036500D01*
X0115833Y0036500D01*
X0113333Y0034000D01*
X0113366Y0020203D02*
X0115067Y0020203D01*
X0115635Y0019636D01*
X0115635Y0019069D01*
X0115067Y0018501D01*
X0113366Y0018501D01*
X0113366Y0016800D02*
X0113366Y0020203D01*
X0115067Y0018501D02*
X0115635Y0017934D01*
X0115635Y0017367D01*
X0115067Y0016800D01*
X0113366Y0016800D01*
X0118183Y0016800D02*
X0118183Y0020203D01*
X0117049Y0020203D02*
X0119318Y0020203D01*
X0120732Y0020203D02*
X0123001Y0016800D01*
X0123001Y0020203D01*
X0120732Y0020203D02*
X0120732Y0016800D01*
X0128098Y0017367D02*
X0128666Y0016800D01*
X0129800Y0016800D01*
X0130367Y0017367D01*
X0130367Y0018501D01*
X0129233Y0018501D01*
X0128098Y0017367D02*
X0128098Y0019636D01*
X0128666Y0020203D01*
X0129800Y0020203D01*
X0130367Y0019636D01*
X0131782Y0020203D02*
X0134050Y0016800D01*
X0134050Y0020203D01*
X0135465Y0020203D02*
X0135465Y0016800D01*
X0137166Y0016800D01*
X0137733Y0017367D01*
X0137733Y0019636D01*
X0137166Y0020203D01*
X0135465Y0020203D01*
X0131782Y0020203D02*
X0131782Y0016800D01*
X0108268Y0017367D02*
X0107701Y0016800D01*
X0106000Y0016800D01*
X0106000Y0020203D01*
X0107701Y0020203D01*
X0108268Y0019636D01*
X0108268Y0019069D01*
X0107701Y0018501D01*
X0106000Y0018501D01*
X0107701Y0018501D02*
X0108268Y0017934D01*
X0108268Y0017367D01*
X0100902Y0016800D02*
X0100902Y0019069D01*
X0099768Y0020203D01*
X0098633Y0019069D01*
X0098633Y0016800D01*
X0098633Y0018501D02*
X0100902Y0018501D01*
X0166333Y0040000D02*
X0190333Y0040000D01*
X0180833Y0043500D02*
X0180833Y0046500D01*
X0183333Y0046500D01*
X0180833Y0046500D02*
X0180833Y0049500D01*
X0179333Y0049500D02*
X0179333Y0043500D01*
X0177333Y0043500D01*
X0177333Y0049500D01*
X0179333Y0049500D01*
X0175833Y0049500D02*
X0175833Y0046500D01*
X0173333Y0046500D01*
X0175833Y0046500D02*
X0175833Y0043500D01*
X0166333Y0040000D02*
X0166173Y0040002D01*
X0166014Y0040008D01*
X0165855Y0040018D01*
X0165696Y0040031D01*
X0165537Y0040049D01*
X0165379Y0040070D01*
X0165222Y0040096D01*
X0165065Y0040125D01*
X0164909Y0040158D01*
X0164754Y0040195D01*
X0164599Y0040235D01*
X0164446Y0040280D01*
X0164294Y0040328D01*
X0164143Y0040380D01*
X0163994Y0040436D01*
X0163846Y0040495D01*
X0163699Y0040558D01*
X0163554Y0040624D01*
X0163411Y0040694D01*
X0163269Y0040768D01*
X0163129Y0040844D01*
X0162991Y0040925D01*
X0162856Y0041008D01*
X0162722Y0041095D01*
X0162590Y0041186D01*
X0162461Y0041279D01*
X0162334Y0041376D01*
X0162209Y0041475D01*
X0162087Y0041578D01*
X0161968Y0041684D01*
X0161851Y0041792D01*
X0161737Y0041904D01*
X0161625Y0042018D01*
X0161517Y0042135D01*
X0161411Y0042254D01*
X0161308Y0042376D01*
X0161209Y0042501D01*
X0161112Y0042628D01*
X0161019Y0042757D01*
X0160928Y0042889D01*
X0160841Y0043023D01*
X0160758Y0043158D01*
X0160677Y0043296D01*
X0160601Y0043436D01*
X0160527Y0043578D01*
X0160457Y0043721D01*
X0160391Y0043866D01*
X0160328Y0044013D01*
X0160269Y0044161D01*
X0160213Y0044310D01*
X0160161Y0044461D01*
X0160113Y0044613D01*
X0160068Y0044766D01*
X0160028Y0044921D01*
X0159991Y0045076D01*
X0159958Y0045232D01*
X0159929Y0045389D01*
X0159903Y0045546D01*
X0159882Y0045704D01*
X0159864Y0045863D01*
X0159851Y0046022D01*
X0159841Y0046181D01*
X0159835Y0046340D01*
X0159833Y0046500D01*
X0159835Y0046660D01*
X0159841Y0046819D01*
X0159851Y0046978D01*
X0159864Y0047137D01*
X0159882Y0047296D01*
X0159903Y0047454D01*
X0159929Y0047611D01*
X0159958Y0047768D01*
X0159991Y0047924D01*
X0160028Y0048079D01*
X0160068Y0048234D01*
X0160113Y0048387D01*
X0160161Y0048539D01*
X0160213Y0048690D01*
X0160269Y0048839D01*
X0160328Y0048987D01*
X0160391Y0049134D01*
X0160457Y0049279D01*
X0160527Y0049422D01*
X0160601Y0049564D01*
X0160677Y0049704D01*
X0160758Y0049842D01*
X0160841Y0049977D01*
X0160928Y0050111D01*
X0161019Y0050243D01*
X0161112Y0050372D01*
X0161209Y0050499D01*
X0161308Y0050624D01*
X0161411Y0050746D01*
X0161517Y0050865D01*
X0161625Y0050982D01*
X0161737Y0051096D01*
X0161851Y0051208D01*
X0161968Y0051316D01*
X0162087Y0051422D01*
X0162209Y0051525D01*
X0162334Y0051624D01*
X0162461Y0051721D01*
X0162590Y0051814D01*
X0162722Y0051905D01*
X0162856Y0051992D01*
X0162991Y0052075D01*
X0163129Y0052156D01*
X0163269Y0052232D01*
X0163411Y0052306D01*
X0163554Y0052376D01*
X0163699Y0052442D01*
X0163846Y0052505D01*
X0163994Y0052564D01*
X0164143Y0052620D01*
X0164294Y0052672D01*
X0164446Y0052720D01*
X0164599Y0052765D01*
X0164754Y0052805D01*
X0164909Y0052842D01*
X0165065Y0052875D01*
X0165222Y0052904D01*
X0165379Y0052930D01*
X0165537Y0052951D01*
X0165696Y0052969D01*
X0165855Y0052982D01*
X0166014Y0052992D01*
X0166173Y0052998D01*
X0166333Y0053000D01*
X0190333Y0053000D01*
X0190493Y0052998D01*
X0190652Y0052992D01*
X0190811Y0052982D01*
X0190970Y0052969D01*
X0191129Y0052951D01*
X0191287Y0052930D01*
X0191444Y0052904D01*
X0191601Y0052875D01*
X0191757Y0052842D01*
X0191912Y0052805D01*
X0192067Y0052765D01*
X0192220Y0052720D01*
X0192372Y0052672D01*
X0192523Y0052620D01*
X0192672Y0052564D01*
X0192820Y0052505D01*
X0192967Y0052442D01*
X0193112Y0052376D01*
X0193255Y0052306D01*
X0193397Y0052232D01*
X0193537Y0052156D01*
X0193675Y0052075D01*
X0193810Y0051992D01*
X0193944Y0051905D01*
X0194076Y0051814D01*
X0194205Y0051721D01*
X0194332Y0051624D01*
X0194457Y0051525D01*
X0194579Y0051422D01*
X0194698Y0051316D01*
X0194815Y0051208D01*
X0194929Y0051096D01*
X0195041Y0050982D01*
X0195149Y0050865D01*
X0195255Y0050746D01*
X0195358Y0050624D01*
X0195457Y0050499D01*
X0195554Y0050372D01*
X0195647Y0050243D01*
X0195738Y0050111D01*
X0195825Y0049977D01*
X0195908Y0049842D01*
X0195989Y0049704D01*
X0196065Y0049564D01*
X0196139Y0049422D01*
X0196209Y0049279D01*
X0196275Y0049134D01*
X0196338Y0048987D01*
X0196397Y0048839D01*
X0196453Y0048690D01*
X0196505Y0048539D01*
X0196553Y0048387D01*
X0196598Y0048234D01*
X0196638Y0048079D01*
X0196675Y0047924D01*
X0196708Y0047768D01*
X0196737Y0047611D01*
X0196763Y0047454D01*
X0196784Y0047296D01*
X0196802Y0047137D01*
X0196815Y0046978D01*
X0196825Y0046819D01*
X0196831Y0046660D01*
X0196833Y0046500D01*
X0196831Y0046340D01*
X0196825Y0046181D01*
X0196815Y0046022D01*
X0196802Y0045863D01*
X0196784Y0045704D01*
X0196763Y0045546D01*
X0196737Y0045389D01*
X0196708Y0045232D01*
X0196675Y0045076D01*
X0196638Y0044921D01*
X0196598Y0044766D01*
X0196553Y0044613D01*
X0196505Y0044461D01*
X0196453Y0044310D01*
X0196397Y0044161D01*
X0196338Y0044013D01*
X0196275Y0043866D01*
X0196209Y0043721D01*
X0196139Y0043578D01*
X0196065Y0043436D01*
X0195989Y0043296D01*
X0195908Y0043158D01*
X0195825Y0043023D01*
X0195738Y0042889D01*
X0195647Y0042757D01*
X0195554Y0042628D01*
X0195457Y0042501D01*
X0195358Y0042376D01*
X0195255Y0042254D01*
X0195149Y0042135D01*
X0195041Y0042018D01*
X0194929Y0041904D01*
X0194815Y0041792D01*
X0194698Y0041684D01*
X0194579Y0041578D01*
X0194457Y0041475D01*
X0194332Y0041376D01*
X0194205Y0041279D01*
X0194076Y0041186D01*
X0193944Y0041095D01*
X0193810Y0041008D01*
X0193675Y0040925D01*
X0193537Y0040844D01*
X0193397Y0040768D01*
X0193255Y0040694D01*
X0193112Y0040624D01*
X0192967Y0040558D01*
X0192820Y0040495D01*
X0192672Y0040436D01*
X0192523Y0040380D01*
X0192372Y0040328D01*
X0192220Y0040280D01*
X0192067Y0040235D01*
X0191912Y0040195D01*
X0191757Y0040158D01*
X0191601Y0040125D01*
X0191444Y0040096D01*
X0191287Y0040070D01*
X0191129Y0040049D01*
X0190970Y0040031D01*
X0190811Y0040018D01*
X0190652Y0040008D01*
X0190493Y0040002D01*
X0190333Y0040000D01*
X0228333Y0034000D02*
X0228333Y0029000D01*
X0230833Y0026500D01*
X0235833Y0026500D01*
X0238333Y0029000D01*
X0240833Y0026500D01*
X0245833Y0026500D01*
X0248333Y0029000D01*
X0248333Y0034000D01*
X0245833Y0036500D01*
X0240833Y0036500D01*
X0238333Y0034000D01*
X0238333Y0029000D01*
X0238333Y0034000D02*
X0235833Y0036500D01*
X0230833Y0036500D01*
X0228333Y0034000D01*
X0248333Y0034000D02*
X0250833Y0036500D01*
X0255833Y0036500D01*
X0258333Y0034000D01*
X0260833Y0036500D01*
X0265833Y0036500D01*
X0268333Y0034000D01*
X0270833Y0036500D01*
X0275833Y0036500D01*
X0278333Y0034000D01*
X0280833Y0036500D01*
X0285833Y0036500D01*
X0288333Y0034000D01*
X0288333Y0029000D01*
X0285833Y0026500D01*
X0280833Y0026500D01*
X0278333Y0029000D01*
X0275833Y0026500D01*
X0270833Y0026500D01*
X0268333Y0029000D01*
X0265833Y0026500D01*
X0260833Y0026500D01*
X0258333Y0029000D01*
X0255833Y0026500D01*
X0250833Y0026500D01*
X0248333Y0029000D01*
X0258333Y0029000D02*
X0258333Y0034000D01*
X0268333Y0034000D02*
X0268333Y0029000D01*
X0278333Y0029000D02*
X0278333Y0034000D01*
X0278970Y0020203D02*
X0278970Y0017934D01*
X0280104Y0016800D01*
X0281238Y0017934D01*
X0281238Y0020203D01*
X0282653Y0019636D02*
X0282653Y0017367D01*
X0283220Y0016800D01*
X0284354Y0016800D01*
X0284921Y0017367D01*
X0286336Y0017367D02*
X0286903Y0016800D01*
X0288037Y0016800D01*
X0288605Y0017367D01*
X0288605Y0019636D02*
X0288037Y0020203D01*
X0286903Y0020203D01*
X0286336Y0019636D01*
X0286336Y0017367D01*
X0284921Y0019636D02*
X0284354Y0020203D01*
X0283220Y0020203D01*
X0282653Y0019636D01*
X0273872Y0019636D02*
X0273305Y0020203D01*
X0272170Y0020203D01*
X0271603Y0019636D01*
X0271603Y0017367D01*
X0272170Y0016800D01*
X0273305Y0016800D01*
X0273872Y0017367D01*
X0270189Y0016800D02*
X0270189Y0020203D01*
X0267920Y0020203D02*
X0270189Y0016800D01*
X0267920Y0016800D02*
X0267920Y0020203D01*
X0266599Y0020203D02*
X0265465Y0020203D01*
X0266032Y0020203D02*
X0266032Y0016800D01*
X0265465Y0016800D02*
X0266599Y0016800D01*
X0260367Y0017367D02*
X0260367Y0019636D01*
X0259800Y0020203D01*
X0258098Y0020203D01*
X0258098Y0016800D01*
X0259800Y0016800D01*
X0260367Y0017367D01*
X0256684Y0017367D02*
X0256684Y0020203D01*
X0254415Y0020203D02*
X0254415Y0017367D01*
X0254982Y0016800D01*
X0256117Y0016800D01*
X0256684Y0017367D01*
X0249318Y0017367D02*
X0248751Y0016800D01*
X0247616Y0016800D01*
X0247049Y0017367D01*
X0247616Y0018501D02*
X0248751Y0018501D01*
X0249318Y0017934D01*
X0249318Y0017367D01*
X0247616Y0018501D02*
X0247049Y0019069D01*
X0247049Y0019636D01*
X0247616Y0020203D01*
X0248751Y0020203D01*
X0249318Y0019636D01*
X0245635Y0019636D02*
X0245067Y0020203D01*
X0243933Y0020203D01*
X0243366Y0019636D01*
X0243366Y0017367D01*
X0243933Y0016800D01*
X0245067Y0016800D01*
X0245635Y0017367D01*
X0238268Y0017367D02*
X0238268Y0019636D01*
X0237701Y0020203D01*
X0236000Y0020203D01*
X0236000Y0016800D01*
X0237701Y0016800D01*
X0238268Y0017367D01*
X0234585Y0016800D02*
X0234585Y0020203D01*
X0232316Y0020203D02*
X0232316Y0016800D01*
X0230902Y0017367D02*
X0230902Y0018501D01*
X0229768Y0018501D01*
X0230902Y0017367D02*
X0230335Y0016800D01*
X0229200Y0016800D01*
X0228633Y0017367D01*
X0228633Y0019636D01*
X0229200Y0020203D01*
X0230335Y0020203D01*
X0230902Y0019636D01*
X0232316Y0020203D02*
X0234585Y0016800D01*
X0303633Y0017934D02*
X0304768Y0016800D01*
X0305902Y0017934D01*
X0305902Y0020203D01*
X0307316Y0019636D02*
X0307316Y0017367D01*
X0307884Y0016800D01*
X0309018Y0016800D01*
X0309585Y0017367D01*
X0311000Y0017367D02*
X0311567Y0016800D01*
X0312701Y0016800D01*
X0313268Y0017367D01*
X0311000Y0017367D02*
X0311000Y0019636D01*
X0311567Y0020203D01*
X0312701Y0020203D01*
X0313268Y0019636D01*
X0309585Y0019636D02*
X0309018Y0020203D01*
X0307884Y0020203D01*
X0307316Y0019636D01*
X0303633Y0020203D02*
X0303633Y0017934D01*
X0318366Y0017367D02*
X0318933Y0016800D01*
X0320067Y0016800D01*
X0320635Y0017367D01*
X0320635Y0018501D01*
X0319500Y0018501D01*
X0318366Y0017367D02*
X0318366Y0019636D01*
X0318933Y0020203D01*
X0320067Y0020203D01*
X0320635Y0019636D01*
X0322049Y0020203D02*
X0324318Y0016800D01*
X0324318Y0020203D01*
X0325732Y0020203D02*
X0327434Y0020203D01*
X0328001Y0019636D01*
X0328001Y0017367D01*
X0327434Y0016800D01*
X0325732Y0016800D01*
X0325732Y0020203D01*
X0322049Y0020203D02*
X0322049Y0016800D01*
X0320833Y0026500D02*
X0315833Y0026500D01*
X0313333Y0029000D01*
X0310833Y0026500D01*
X0305833Y0026500D01*
X0303333Y0029000D01*
X0303333Y0034000D01*
X0305833Y0036500D01*
X0310833Y0036500D01*
X0313333Y0034000D01*
X0315833Y0036500D01*
X0320833Y0036500D01*
X0323333Y0034000D01*
X0323333Y0029000D01*
X0320833Y0026500D01*
X0313333Y0029000D02*
X0313333Y0034000D01*
X0031333Y0139000D02*
X0028833Y0139000D01*
X0031333Y0139000D02*
X0031333Y0164000D01*
X0028833Y0164000D01*
X0017833Y0164000D02*
X0014633Y0164000D01*
X0014633Y0139000D01*
X0017833Y0139000D01*
X0017833Y0155000D02*
X0017833Y0156500D01*
X0016333Y0156500D01*
X0015833Y0157000D01*
X0019833Y0157000D01*
X0019333Y0156500D01*
X0017833Y0156500D01*
X0017833Y0162500D01*
X0016333Y0156500D02*
X0016833Y0156000D01*
X0017333Y0155500D01*
X0018333Y0155500D01*
X0018833Y0156000D01*
X0019333Y0156500D01*
X0018833Y0156000D02*
X0016833Y0156000D01*
X0017333Y0155500D02*
X0017833Y0155000D01*
X0018333Y0155500D01*
D12*
X0083333Y0103500D02*
X0084333Y0103500D01*
X0083333Y0103500D02*
X0083333Y0096500D01*
X0083473Y0096498D01*
X0083613Y0096492D01*
X0083753Y0096482D01*
X0083893Y0096469D01*
X0084032Y0096451D01*
X0084171Y0096429D01*
X0084308Y0096404D01*
X0084446Y0096375D01*
X0084582Y0096342D01*
X0084717Y0096305D01*
X0084851Y0096264D01*
X0084984Y0096219D01*
X0085116Y0096171D01*
X0085246Y0096119D01*
X0085375Y0096064D01*
X0085502Y0096005D01*
X0085628Y0095942D01*
X0085752Y0095876D01*
X0085873Y0095807D01*
X0085993Y0095734D01*
X0086111Y0095657D01*
X0086226Y0095578D01*
X0086340Y0095495D01*
X0086450Y0095409D01*
X0086559Y0095320D01*
X0086665Y0095228D01*
X0086768Y0095133D01*
X0086869Y0095036D01*
X0086966Y0094935D01*
X0087061Y0094832D01*
X0087153Y0094726D01*
X0087242Y0094617D01*
X0087328Y0094507D01*
X0087411Y0094393D01*
X0087490Y0094278D01*
X0087567Y0094160D01*
X0087640Y0094040D01*
X0087709Y0093919D01*
X0087775Y0093795D01*
X0087838Y0093669D01*
X0087897Y0093542D01*
X0087952Y0093413D01*
X0088004Y0093283D01*
X0088052Y0093151D01*
X0088097Y0093018D01*
X0088138Y0092884D01*
X0088175Y0092749D01*
X0088208Y0092613D01*
X0088237Y0092475D01*
X0088262Y0092338D01*
X0088284Y0092199D01*
X0088302Y0092060D01*
X0088315Y0091920D01*
X0088325Y0091780D01*
X0088331Y0091640D01*
X0088333Y0091500D01*
X0088331Y0091360D01*
X0088325Y0091220D01*
X0088315Y0091080D01*
X0088302Y0090940D01*
X0088284Y0090801D01*
X0088262Y0090662D01*
X0088237Y0090525D01*
X0088208Y0090387D01*
X0088175Y0090251D01*
X0088138Y0090116D01*
X0088097Y0089982D01*
X0088052Y0089849D01*
X0088004Y0089717D01*
X0087952Y0089587D01*
X0087897Y0089458D01*
X0087838Y0089331D01*
X0087775Y0089205D01*
X0087709Y0089081D01*
X0087640Y0088960D01*
X0087567Y0088840D01*
X0087490Y0088722D01*
X0087411Y0088607D01*
X0087328Y0088493D01*
X0087242Y0088383D01*
X0087153Y0088274D01*
X0087061Y0088168D01*
X0086966Y0088065D01*
X0086869Y0087964D01*
X0086768Y0087867D01*
X0086665Y0087772D01*
X0086559Y0087680D01*
X0086450Y0087591D01*
X0086340Y0087505D01*
X0086226Y0087422D01*
X0086111Y0087343D01*
X0085993Y0087266D01*
X0085873Y0087193D01*
X0085752Y0087124D01*
X0085628Y0087058D01*
X0085502Y0086995D01*
X0085375Y0086936D01*
X0085246Y0086881D01*
X0085116Y0086829D01*
X0084984Y0086781D01*
X0084851Y0086736D01*
X0084717Y0086695D01*
X0084582Y0086658D01*
X0084446Y0086625D01*
X0084308Y0086596D01*
X0084171Y0086571D01*
X0084032Y0086549D01*
X0083893Y0086531D01*
X0083753Y0086518D01*
X0083613Y0086508D01*
X0083473Y0086502D01*
X0083333Y0086500D01*
X0083333Y0079500D01*
X0084333Y0079500D01*
X0041156Y0092701D02*
X0040355Y0091900D01*
X0038754Y0091900D01*
X0037953Y0092701D01*
X0038754Y0094302D02*
X0040355Y0094302D01*
X0041156Y0093501D01*
X0041156Y0092701D01*
X0038754Y0094302D02*
X0037953Y0095103D01*
X0037953Y0095903D01*
X0038754Y0096704D01*
X0040355Y0096704D01*
X0041156Y0095903D01*
X0035999Y0096704D02*
X0035999Y0092701D01*
X0035199Y0091900D01*
X0033597Y0091900D01*
X0032797Y0092701D01*
X0032797Y0096704D01*
X0030843Y0095903D02*
X0030843Y0095103D01*
X0030042Y0094302D01*
X0027640Y0094302D01*
X0027640Y0091900D02*
X0030042Y0091900D01*
X0030843Y0092701D01*
X0030843Y0093501D01*
X0030042Y0094302D01*
X0030843Y0095903D02*
X0030042Y0096704D01*
X0027640Y0096704D01*
X0027640Y0091900D01*
X0020530Y0092701D02*
X0019729Y0091900D01*
X0018128Y0091900D01*
X0017327Y0092701D01*
X0017327Y0095903D01*
X0018128Y0096704D01*
X0019729Y0096704D01*
X0020530Y0095903D01*
X0015374Y0095903D02*
X0015374Y0095103D01*
X0012171Y0091900D01*
X0015374Y0091900D01*
X0010335Y0091900D02*
X0008733Y0091900D01*
X0009534Y0091900D02*
X0009534Y0096704D01*
X0008733Y0096704D02*
X0010335Y0096704D01*
X0012171Y0095903D02*
X0012972Y0096704D01*
X0014573Y0096704D01*
X0015374Y0095903D01*
X0133333Y0051500D02*
X0133333Y0041500D01*
X0153333Y0041500D01*
X0153333Y0051500D01*
X0133333Y0051500D01*
X0143333Y0049000D02*
X0143333Y0044000D01*
X0132074Y0011704D02*
X0129672Y0011704D01*
X0129672Y0006900D01*
X0129672Y0008501D02*
X0132074Y0008501D01*
X0132874Y0009302D01*
X0132874Y0010903D01*
X0132074Y0011704D01*
X0131273Y0008501D02*
X0132874Y0006900D01*
X0127718Y0006900D02*
X0124515Y0006900D01*
X0124515Y0011704D01*
X0127718Y0011704D01*
X0126117Y0009302D02*
X0124515Y0009302D01*
X0122562Y0007701D02*
X0122562Y0010903D01*
X0121761Y0011704D01*
X0119359Y0011704D01*
X0119359Y0006900D01*
X0121761Y0006900D01*
X0122562Y0007701D01*
X0117405Y0007701D02*
X0117405Y0010903D01*
X0116605Y0011704D01*
X0115003Y0011704D01*
X0114203Y0010903D01*
X0114203Y0007701D01*
X0115003Y0006900D01*
X0116605Y0006900D01*
X0117405Y0007701D01*
X0112249Y0007701D02*
X0111448Y0006900D01*
X0109847Y0006900D01*
X0109046Y0007701D01*
X0109046Y0010903D01*
X0109847Y0011704D01*
X0111448Y0011704D01*
X0112249Y0010903D01*
X0107092Y0011704D02*
X0107092Y0006900D01*
X0103890Y0011704D01*
X0103890Y0006900D01*
X0101936Y0006900D02*
X0098733Y0006900D01*
X0098733Y0011704D01*
X0101936Y0011704D01*
X0100335Y0009302D02*
X0098733Y0009302D01*
X0067405Y0006900D02*
X0064203Y0006900D01*
X0065804Y0006900D02*
X0065804Y0011704D01*
X0064203Y0010103D01*
X0062249Y0010903D02*
X0062249Y0007701D01*
X0061448Y0006900D01*
X0059046Y0006900D01*
X0059046Y0011704D01*
X0061448Y0011704D01*
X0062249Y0010903D01*
X0057092Y0010903D02*
X0057092Y0010103D01*
X0056292Y0009302D01*
X0053890Y0009302D01*
X0056292Y0009302D02*
X0057092Y0008501D01*
X0057092Y0007701D01*
X0056292Y0006900D01*
X0053890Y0006900D01*
X0053890Y0011704D01*
X0056292Y0011704D01*
X0057092Y0010903D01*
X0051936Y0011704D02*
X0048733Y0008501D01*
X0049534Y0009302D02*
X0051936Y0006900D01*
X0048733Y0006900D02*
X0048733Y0011704D01*
X0203333Y0041500D02*
X0203333Y0051500D01*
X0223333Y0051500D01*
X0223333Y0041500D01*
X0203333Y0041500D01*
X0213333Y0044000D02*
X0213333Y0049000D01*
X0222333Y0079500D02*
X0223333Y0079500D01*
X0223333Y0103500D01*
X0222333Y0103500D01*
X0173333Y0121500D02*
X0173333Y0131500D01*
X0153333Y0131500D01*
X0153333Y0121500D01*
X0173333Y0121500D01*
X0163333Y0124000D02*
X0163333Y0129000D01*
X0275932Y0186776D02*
X0275932Y0196224D01*
X0300735Y0196224D01*
X0300735Y0186776D01*
X0275932Y0186776D01*
X0278609Y0148902D02*
X0278609Y0124098D01*
X0288058Y0124098D01*
X0288058Y0148902D01*
X0278609Y0148902D01*
X0365617Y0141264D02*
X0365617Y0110161D01*
X0371522Y0110161D01*
X0371522Y0092839D01*
X0365617Y0092839D01*
X0365617Y0110161D01*
X0372408Y0119000D02*
X0372408Y0124000D01*
X0365617Y0141264D02*
X0400656Y0141264D01*
X0401050Y0141264D02*
X0401050Y0061736D01*
X0365617Y0061736D01*
X0365617Y0092839D01*
X0368733Y0056704D02*
X0370335Y0056704D01*
X0369534Y0056704D02*
X0369534Y0051900D01*
X0368733Y0051900D02*
X0370335Y0051900D01*
X0372171Y0052701D02*
X0372972Y0051900D01*
X0374573Y0051900D01*
X0375374Y0052701D01*
X0375374Y0053501D01*
X0374573Y0054302D01*
X0372972Y0054302D01*
X0372171Y0055103D01*
X0372171Y0055903D01*
X0372972Y0056704D01*
X0374573Y0056704D01*
X0375374Y0055903D01*
X0377327Y0056704D02*
X0377327Y0051900D01*
X0377327Y0053501D02*
X0379729Y0053501D01*
X0380530Y0054302D01*
X0380530Y0055903D01*
X0379729Y0056704D01*
X0377327Y0056704D01*
X0387640Y0056704D02*
X0387640Y0051900D01*
X0387640Y0054302D02*
X0390843Y0054302D01*
X0390843Y0056704D02*
X0390843Y0051900D01*
X0392797Y0051900D02*
X0395199Y0051900D01*
X0395999Y0052701D01*
X0395999Y0055903D01*
X0395199Y0056704D01*
X0392797Y0056704D01*
X0392797Y0051900D01*
X0397953Y0051900D02*
X0397953Y0056704D01*
X0400355Y0056704D01*
X0401156Y0055903D01*
X0401156Y0054302D01*
X0400355Y0053501D01*
X0397953Y0053501D01*
X0399554Y0053501D02*
X0401156Y0051900D01*
X0360333Y0050000D02*
X0360333Y0033000D01*
X0352333Y0029500D02*
X0344286Y0029500D01*
X0336333Y0033000D02*
X0336333Y0050000D01*
X0344404Y0053500D02*
X0352333Y0053500D01*
X0341333Y0041500D02*
X0341335Y0041672D01*
X0341341Y0041843D01*
X0341352Y0042015D01*
X0341367Y0042186D01*
X0341386Y0042357D01*
X0341409Y0042527D01*
X0341436Y0042697D01*
X0341468Y0042866D01*
X0341503Y0043034D01*
X0341543Y0043201D01*
X0341587Y0043367D01*
X0341634Y0043532D01*
X0341686Y0043696D01*
X0341742Y0043858D01*
X0341802Y0044019D01*
X0341866Y0044179D01*
X0341934Y0044337D01*
X0342005Y0044493D01*
X0342080Y0044647D01*
X0342160Y0044800D01*
X0342242Y0044950D01*
X0342329Y0045099D01*
X0342419Y0045245D01*
X0342513Y0045389D01*
X0342610Y0045531D01*
X0342711Y0045670D01*
X0342815Y0045807D01*
X0342922Y0045941D01*
X0343033Y0046072D01*
X0343146Y0046201D01*
X0343263Y0046327D01*
X0343383Y0046450D01*
X0343506Y0046570D01*
X0343632Y0046687D01*
X0343761Y0046800D01*
X0343892Y0046911D01*
X0344026Y0047018D01*
X0344163Y0047122D01*
X0344302Y0047223D01*
X0344444Y0047320D01*
X0344588Y0047414D01*
X0344734Y0047504D01*
X0344883Y0047591D01*
X0345033Y0047673D01*
X0345186Y0047753D01*
X0345340Y0047828D01*
X0345496Y0047899D01*
X0345654Y0047967D01*
X0345814Y0048031D01*
X0345975Y0048091D01*
X0346137Y0048147D01*
X0346301Y0048199D01*
X0346466Y0048246D01*
X0346632Y0048290D01*
X0346799Y0048330D01*
X0346967Y0048365D01*
X0347136Y0048397D01*
X0347306Y0048424D01*
X0347476Y0048447D01*
X0347647Y0048466D01*
X0347818Y0048481D01*
X0347990Y0048492D01*
X0348161Y0048498D01*
X0348333Y0048500D01*
X0348505Y0048498D01*
X0348676Y0048492D01*
X0348848Y0048481D01*
X0349019Y0048466D01*
X0349190Y0048447D01*
X0349360Y0048424D01*
X0349530Y0048397D01*
X0349699Y0048365D01*
X0349867Y0048330D01*
X0350034Y0048290D01*
X0350200Y0048246D01*
X0350365Y0048199D01*
X0350529Y0048147D01*
X0350691Y0048091D01*
X0350852Y0048031D01*
X0351012Y0047967D01*
X0351170Y0047899D01*
X0351326Y0047828D01*
X0351480Y0047753D01*
X0351633Y0047673D01*
X0351783Y0047591D01*
X0351932Y0047504D01*
X0352078Y0047414D01*
X0352222Y0047320D01*
X0352364Y0047223D01*
X0352503Y0047122D01*
X0352640Y0047018D01*
X0352774Y0046911D01*
X0352905Y0046800D01*
X0353034Y0046687D01*
X0353160Y0046570D01*
X0353283Y0046450D01*
X0353403Y0046327D01*
X0353520Y0046201D01*
X0353633Y0046072D01*
X0353744Y0045941D01*
X0353851Y0045807D01*
X0353955Y0045670D01*
X0354056Y0045531D01*
X0354153Y0045389D01*
X0354247Y0045245D01*
X0354337Y0045099D01*
X0354424Y0044950D01*
X0354506Y0044800D01*
X0354586Y0044647D01*
X0354661Y0044493D01*
X0354732Y0044337D01*
X0354800Y0044179D01*
X0354864Y0044019D01*
X0354924Y0043858D01*
X0354980Y0043696D01*
X0355032Y0043532D01*
X0355079Y0043367D01*
X0355123Y0043201D01*
X0355163Y0043034D01*
X0355198Y0042866D01*
X0355230Y0042697D01*
X0355257Y0042527D01*
X0355280Y0042357D01*
X0355299Y0042186D01*
X0355314Y0042015D01*
X0355325Y0041843D01*
X0355331Y0041672D01*
X0355333Y0041500D01*
X0355331Y0041328D01*
X0355325Y0041157D01*
X0355314Y0040985D01*
X0355299Y0040814D01*
X0355280Y0040643D01*
X0355257Y0040473D01*
X0355230Y0040303D01*
X0355198Y0040134D01*
X0355163Y0039966D01*
X0355123Y0039799D01*
X0355079Y0039633D01*
X0355032Y0039468D01*
X0354980Y0039304D01*
X0354924Y0039142D01*
X0354864Y0038981D01*
X0354800Y0038821D01*
X0354732Y0038663D01*
X0354661Y0038507D01*
X0354586Y0038353D01*
X0354506Y0038200D01*
X0354424Y0038050D01*
X0354337Y0037901D01*
X0354247Y0037755D01*
X0354153Y0037611D01*
X0354056Y0037469D01*
X0353955Y0037330D01*
X0353851Y0037193D01*
X0353744Y0037059D01*
X0353633Y0036928D01*
X0353520Y0036799D01*
X0353403Y0036673D01*
X0353283Y0036550D01*
X0353160Y0036430D01*
X0353034Y0036313D01*
X0352905Y0036200D01*
X0352774Y0036089D01*
X0352640Y0035982D01*
X0352503Y0035878D01*
X0352364Y0035777D01*
X0352222Y0035680D01*
X0352078Y0035586D01*
X0351932Y0035496D01*
X0351783Y0035409D01*
X0351633Y0035327D01*
X0351480Y0035247D01*
X0351326Y0035172D01*
X0351170Y0035101D01*
X0351012Y0035033D01*
X0350852Y0034969D01*
X0350691Y0034909D01*
X0350529Y0034853D01*
X0350365Y0034801D01*
X0350200Y0034754D01*
X0350034Y0034710D01*
X0349867Y0034670D01*
X0349699Y0034635D01*
X0349530Y0034603D01*
X0349360Y0034576D01*
X0349190Y0034553D01*
X0349019Y0034534D01*
X0348848Y0034519D01*
X0348676Y0034508D01*
X0348505Y0034502D01*
X0348333Y0034500D01*
X0348161Y0034502D01*
X0347990Y0034508D01*
X0347818Y0034519D01*
X0347647Y0034534D01*
X0347476Y0034553D01*
X0347306Y0034576D01*
X0347136Y0034603D01*
X0346967Y0034635D01*
X0346799Y0034670D01*
X0346632Y0034710D01*
X0346466Y0034754D01*
X0346301Y0034801D01*
X0346137Y0034853D01*
X0345975Y0034909D01*
X0345814Y0034969D01*
X0345654Y0035033D01*
X0345496Y0035101D01*
X0345340Y0035172D01*
X0345186Y0035247D01*
X0345033Y0035327D01*
X0344883Y0035409D01*
X0344734Y0035496D01*
X0344588Y0035586D01*
X0344444Y0035680D01*
X0344302Y0035777D01*
X0344163Y0035878D01*
X0344026Y0035982D01*
X0343892Y0036089D01*
X0343761Y0036200D01*
X0343632Y0036313D01*
X0343506Y0036430D01*
X0343383Y0036550D01*
X0343263Y0036673D01*
X0343146Y0036799D01*
X0343033Y0036928D01*
X0342922Y0037059D01*
X0342815Y0037193D01*
X0342711Y0037330D01*
X0342610Y0037469D01*
X0342513Y0037611D01*
X0342419Y0037755D01*
X0342329Y0037901D01*
X0342242Y0038050D01*
X0342160Y0038200D01*
X0342080Y0038353D01*
X0342005Y0038507D01*
X0341934Y0038663D01*
X0341866Y0038821D01*
X0341802Y0038981D01*
X0341742Y0039142D01*
X0341686Y0039304D01*
X0341634Y0039468D01*
X0341587Y0039633D01*
X0341543Y0039799D01*
X0341503Y0039966D01*
X0341468Y0040134D01*
X0341436Y0040303D01*
X0341409Y0040473D01*
X0341386Y0040643D01*
X0341367Y0040814D01*
X0341352Y0040985D01*
X0341341Y0041157D01*
X0341335Y0041328D01*
X0341333Y0041500D01*
X0341135Y0011704D02*
X0338733Y0011704D01*
X0338733Y0006900D01*
X0338733Y0008501D02*
X0341135Y0008501D01*
X0341936Y0009302D01*
X0341936Y0010903D01*
X0341135Y0011704D01*
X0343890Y0011704D02*
X0343890Y0006900D01*
X0347092Y0006900D01*
X0349046Y0007701D02*
X0349847Y0006900D01*
X0351448Y0006900D01*
X0352249Y0007701D01*
X0352249Y0008501D01*
X0351448Y0009302D01*
X0349847Y0009302D01*
X0349046Y0010103D01*
X0349046Y0010903D01*
X0349847Y0011704D01*
X0351448Y0011704D01*
X0352249Y0010903D01*
X0354203Y0011704D02*
X0354203Y0006900D01*
X0357405Y0006900D01*
X0355804Y0009302D02*
X0354203Y0009302D01*
X0354203Y0011704D02*
X0357405Y0011704D01*
X0359359Y0011704D02*
X0362562Y0011704D01*
X0360960Y0011704D02*
X0360960Y0006900D01*
X0347092Y0011704D02*
X0343890Y0011704D01*
X0343890Y0009302D02*
X0345491Y0009302D01*
X0341936Y0006900D02*
X0340335Y0008501D01*
X0327562Y0009302D02*
X0326761Y0008501D01*
X0324359Y0008501D01*
X0324359Y0006900D02*
X0324359Y0011704D01*
X0326761Y0011704D01*
X0327562Y0010903D01*
X0327562Y0009302D01*
X0325960Y0008501D02*
X0327562Y0006900D01*
X0322405Y0006900D02*
X0319203Y0006900D01*
X0319203Y0011704D01*
X0322405Y0011704D01*
X0320804Y0009302D02*
X0319203Y0009302D01*
X0317249Y0006900D02*
X0315647Y0008501D01*
X0314046Y0006900D01*
X0314046Y0011704D01*
X0312092Y0010903D02*
X0311292Y0011704D01*
X0309690Y0011704D01*
X0308890Y0010903D01*
X0308890Y0007701D01*
X0309690Y0006900D01*
X0311292Y0006900D01*
X0312092Y0007701D01*
X0312092Y0010903D01*
X0317249Y0011704D02*
X0317249Y0006900D01*
X0306936Y0009302D02*
X0306135Y0008501D01*
X0303733Y0008501D01*
X0303733Y0006900D02*
X0303733Y0011704D01*
X0306135Y0011704D01*
X0306936Y0010903D01*
X0306936Y0009302D01*
X0267405Y0010103D02*
X0267405Y0010903D01*
X0266605Y0011704D01*
X0265003Y0011704D01*
X0264203Y0010903D01*
X0262249Y0010903D02*
X0261448Y0011704D01*
X0259046Y0011704D01*
X0259046Y0006900D01*
X0261448Y0006900D01*
X0262249Y0007701D01*
X0262249Y0010903D01*
X0264203Y0006900D02*
X0267405Y0010103D01*
X0267405Y0006900D02*
X0264203Y0006900D01*
X0257092Y0007701D02*
X0256292Y0006900D01*
X0253890Y0006900D01*
X0253890Y0011704D01*
X0256292Y0011704D01*
X0257092Y0010903D01*
X0257092Y0010103D01*
X0256292Y0009302D01*
X0253890Y0009302D01*
X0256292Y0009302D02*
X0257092Y0008501D01*
X0257092Y0007701D01*
X0251936Y0006900D02*
X0249534Y0009302D01*
X0248733Y0008501D02*
X0251936Y0011704D01*
X0248733Y0011704D02*
X0248733Y0006900D01*
D13*
X0231774Y0205082D02*
X0231774Y0210987D01*
X0234727Y0210987D01*
X0235711Y0210003D01*
X0235711Y0208034D01*
X0234727Y0207050D01*
X0231774Y0207050D01*
X0229266Y0207050D02*
X0229266Y0210003D01*
X0228281Y0210987D01*
X0227297Y0210003D01*
X0227297Y0207050D01*
X0225329Y0207050D02*
X0225329Y0210987D01*
X0226313Y0210987D01*
X0227297Y0210003D01*
X0222820Y0210003D02*
X0218883Y0210003D01*
X0218883Y0210987D02*
X0220852Y0212955D01*
X0222820Y0210987D01*
X0222820Y0207050D01*
X0218883Y0207050D02*
X0218883Y0210987D01*
X0244665Y0212955D02*
X0246634Y0212955D01*
X0245649Y0212955D02*
X0245649Y0207050D01*
X0244665Y0207050D02*
X0246634Y0207050D01*
X0248962Y0207050D02*
X0248962Y0210987D01*
X0251915Y0210987D01*
X0252899Y0210003D01*
X0252899Y0207050D01*
X0256392Y0208034D02*
X0257376Y0207050D01*
X0256392Y0208034D02*
X0256392Y0211971D01*
X0255408Y0210987D02*
X0257376Y0210987D01*
X0259705Y0210003D02*
X0259705Y0208034D01*
X0260689Y0207050D01*
X0262657Y0207050D01*
X0263641Y0209018D02*
X0259705Y0209018D01*
X0259705Y0210003D02*
X0260689Y0210987D01*
X0262657Y0210987D01*
X0263641Y0210003D01*
X0263641Y0209018D01*
X0266150Y0209018D02*
X0268119Y0210987D01*
X0269103Y0210987D01*
X0271522Y0210003D02*
X0273490Y0210003D01*
X0272506Y0211971D02*
X0272506Y0207050D01*
X0275819Y0208034D02*
X0276803Y0209018D01*
X0279755Y0209018D01*
X0279755Y0210003D02*
X0279755Y0207050D01*
X0276803Y0207050D01*
X0275819Y0208034D01*
X0276803Y0210987D02*
X0278771Y0210987D01*
X0279755Y0210003D01*
X0282264Y0210003D02*
X0282264Y0208034D01*
X0283248Y0207050D01*
X0286201Y0207050D01*
X0288710Y0208034D02*
X0288710Y0210003D01*
X0289694Y0210987D01*
X0291662Y0210987D01*
X0292646Y0210003D01*
X0292646Y0209018D01*
X0288710Y0209018D01*
X0288710Y0208034D02*
X0289694Y0207050D01*
X0291662Y0207050D01*
X0286201Y0210987D02*
X0283248Y0210987D01*
X0282264Y0210003D01*
X0273490Y0212955D02*
X0272506Y0211971D01*
X0266150Y0210987D02*
X0266150Y0207050D01*
X0301601Y0207050D02*
X0304553Y0207050D01*
X0305537Y0208034D01*
X0305537Y0209018D01*
X0304553Y0210003D01*
X0301601Y0210003D01*
X0301601Y0212955D02*
X0301601Y0207050D01*
X0304553Y0210003D02*
X0305537Y0210987D01*
X0305537Y0211971D01*
X0304553Y0212955D01*
X0301601Y0212955D01*
X0308046Y0210003D02*
X0308046Y0208034D01*
X0309030Y0207050D01*
X0310999Y0207050D01*
X0311983Y0208034D01*
X0311983Y0210003D01*
X0310999Y0210987D01*
X0309030Y0210987D01*
X0308046Y0210003D01*
X0314492Y0208034D02*
X0315476Y0209018D01*
X0318428Y0209018D01*
X0318428Y0210003D02*
X0318428Y0207050D01*
X0315476Y0207050D01*
X0314492Y0208034D01*
X0315476Y0210987D02*
X0317444Y0210987D01*
X0318428Y0210003D01*
X0320937Y0210987D02*
X0320937Y0207050D01*
X0320937Y0209018D02*
X0322905Y0210987D01*
X0323890Y0210987D01*
X0326308Y0210003D02*
X0327292Y0210987D01*
X0330245Y0210987D01*
X0330245Y0212955D02*
X0330245Y0207050D01*
X0327292Y0207050D01*
X0326308Y0208034D01*
X0326308Y0210003D01*
X0339199Y0210987D02*
X0341168Y0207050D01*
X0343136Y0210987D01*
X0345645Y0210987D02*
X0347613Y0212955D01*
X0347613Y0207050D01*
X0345645Y0207050D02*
X0349581Y0207050D01*
X0352090Y0207050D02*
X0353074Y0207050D01*
X0353074Y0208034D01*
X0352090Y0208034D01*
X0352090Y0207050D01*
X0355313Y0208034D02*
X0359250Y0211971D01*
X0359250Y0208034D01*
X0358266Y0207050D01*
X0356297Y0207050D01*
X0355313Y0208034D01*
X0355313Y0211971D01*
X0356297Y0212955D01*
X0358266Y0212955D01*
X0359250Y0211971D01*
X0223597Y0234233D02*
X0219660Y0230296D01*
X0219660Y0229312D01*
X0217152Y0230296D02*
X0216167Y0229312D01*
X0214199Y0229312D01*
X0213215Y0230296D01*
X0213215Y0231280D01*
X0214199Y0232264D01*
X0216167Y0232264D01*
X0217152Y0231280D01*
X0217152Y0230296D01*
X0216167Y0232264D02*
X0217152Y0233248D01*
X0217152Y0234233D01*
X0216167Y0235217D01*
X0214199Y0235217D01*
X0213215Y0234233D01*
X0213215Y0233248D01*
X0214199Y0232264D01*
X0210976Y0230296D02*
X0210976Y0229312D01*
X0209992Y0229312D01*
X0209992Y0230296D01*
X0210976Y0230296D01*
X0207483Y0229312D02*
X0203547Y0229312D01*
X0207483Y0233248D01*
X0207483Y0234233D01*
X0206499Y0235217D01*
X0204531Y0235217D01*
X0203547Y0234233D01*
X0201038Y0234233D02*
X0197101Y0230296D01*
X0198085Y0229312D01*
X0200054Y0229312D01*
X0201038Y0230296D01*
X0201038Y0234233D01*
X0200054Y0235217D01*
X0198085Y0235217D01*
X0197101Y0234233D01*
X0197101Y0230296D01*
X0194592Y0229312D02*
X0190656Y0229312D01*
X0192624Y0229312D02*
X0192624Y0235217D01*
X0190656Y0233248D01*
X0219660Y0235217D02*
X0223597Y0235217D01*
X0223597Y0234233D01*
D14*
X0398097Y0227757D02*
X0398097Y0225243D01*
X0408077Y0226500D01*
X0398097Y0225476D01*
X0398097Y0225988D02*
X0408077Y0226500D01*
X0398097Y0227524D01*
X0398097Y0227757D02*
X0408077Y0226500D01*
X0398097Y0227012D01*
X0408077Y0226500D02*
X0003589Y0226500D01*
X0013570Y0225476D01*
X0013570Y0225243D02*
X0003589Y0226500D01*
X0013570Y0227524D01*
X0013570Y0227757D02*
X0013570Y0225243D01*
X0013570Y0225988D02*
X0003589Y0226500D01*
X0013570Y0227012D01*
X0013570Y0227757D02*
X0003589Y0226500D01*
X0003333Y0221500D02*
X0003333Y0234177D01*
X0408333Y0234177D02*
X0408333Y0221500D01*
D15*
X0167111Y0135935D02*
X0167111Y0135568D01*
X0166744Y0135201D01*
X0167111Y0134834D01*
X0167111Y0134467D01*
X0166744Y0134100D01*
X0166010Y0134100D01*
X0165643Y0134467D01*
X0164901Y0134467D02*
X0164534Y0134100D01*
X0163800Y0134100D01*
X0163433Y0134467D01*
X0163433Y0135935D01*
X0163800Y0136302D01*
X0164534Y0136302D01*
X0164901Y0135935D01*
X0165643Y0135935D02*
X0166010Y0136302D01*
X0166744Y0136302D01*
X0167111Y0135935D01*
X0166744Y0135201D02*
X0166377Y0135201D01*
X0096377Y0093802D02*
X0096377Y0091600D01*
X0095643Y0091600D02*
X0097111Y0091600D01*
X0095643Y0093068D02*
X0096377Y0093802D01*
X0094901Y0093802D02*
X0094901Y0091967D01*
X0094534Y0091600D01*
X0093800Y0091600D01*
X0093433Y0091967D01*
X0093433Y0093802D01*
X0143433Y0055935D02*
X0143433Y0054467D01*
X0143800Y0054100D01*
X0144534Y0054100D01*
X0144901Y0054467D01*
X0145643Y0054100D02*
X0147111Y0055568D01*
X0147111Y0055935D01*
X0146744Y0056302D01*
X0146010Y0056302D01*
X0145643Y0055935D01*
X0144901Y0055935D02*
X0144534Y0056302D01*
X0143800Y0056302D01*
X0143433Y0055935D01*
X0145643Y0054100D02*
X0147111Y0054100D01*
X0213433Y0054467D02*
X0213800Y0054100D01*
X0214534Y0054100D01*
X0214901Y0054467D01*
X0215643Y0054100D02*
X0217111Y0054100D01*
X0216377Y0054100D02*
X0216377Y0056302D01*
X0215643Y0055568D01*
X0214901Y0055935D02*
X0214534Y0056302D01*
X0213800Y0056302D01*
X0213433Y0055935D01*
X0213433Y0054467D01*
D16*
X0345459Y0070476D02*
X0345461Y0070624D01*
X0345467Y0070772D01*
X0345477Y0070920D01*
X0345491Y0071067D01*
X0345509Y0071214D01*
X0345530Y0071360D01*
X0345556Y0071506D01*
X0345586Y0071651D01*
X0345619Y0071795D01*
X0345657Y0071938D01*
X0345698Y0072080D01*
X0345743Y0072221D01*
X0345791Y0072361D01*
X0345844Y0072500D01*
X0345900Y0072637D01*
X0345960Y0072772D01*
X0346023Y0072906D01*
X0346090Y0073038D01*
X0346161Y0073168D01*
X0346235Y0073296D01*
X0346312Y0073422D01*
X0346393Y0073546D01*
X0346477Y0073668D01*
X0346564Y0073787D01*
X0346655Y0073904D01*
X0346749Y0074019D01*
X0346845Y0074131D01*
X0346945Y0074241D01*
X0347047Y0074347D01*
X0347153Y0074451D01*
X0347261Y0074552D01*
X0347372Y0074650D01*
X0347485Y0074746D01*
X0347601Y0074838D01*
X0347719Y0074927D01*
X0347840Y0075012D01*
X0347963Y0075095D01*
X0348088Y0075174D01*
X0348215Y0075250D01*
X0348344Y0075322D01*
X0348475Y0075391D01*
X0348608Y0075456D01*
X0348743Y0075517D01*
X0348879Y0075575D01*
X0349016Y0075630D01*
X0349155Y0075680D01*
X0349296Y0075727D01*
X0349437Y0075770D01*
X0349580Y0075810D01*
X0349724Y0075845D01*
X0349868Y0075877D01*
X0350014Y0075904D01*
X0350160Y0075928D01*
X0350307Y0075948D01*
X0350454Y0075964D01*
X0350601Y0075976D01*
X0350749Y0075984D01*
X0350897Y0075988D01*
X0351045Y0075988D01*
X0351193Y0075984D01*
X0351341Y0075976D01*
X0351488Y0075964D01*
X0351635Y0075948D01*
X0351782Y0075928D01*
X0351928Y0075904D01*
X0352074Y0075877D01*
X0352218Y0075845D01*
X0352362Y0075810D01*
X0352505Y0075770D01*
X0352646Y0075727D01*
X0352787Y0075680D01*
X0352926Y0075630D01*
X0353063Y0075575D01*
X0353199Y0075517D01*
X0353334Y0075456D01*
X0353467Y0075391D01*
X0353598Y0075322D01*
X0353727Y0075250D01*
X0353854Y0075174D01*
X0353979Y0075095D01*
X0354102Y0075012D01*
X0354223Y0074927D01*
X0354341Y0074838D01*
X0354457Y0074746D01*
X0354570Y0074650D01*
X0354681Y0074552D01*
X0354789Y0074451D01*
X0354895Y0074347D01*
X0354997Y0074241D01*
X0355097Y0074131D01*
X0355193Y0074019D01*
X0355287Y0073904D01*
X0355378Y0073787D01*
X0355465Y0073668D01*
X0355549Y0073546D01*
X0355630Y0073422D01*
X0355707Y0073296D01*
X0355781Y0073168D01*
X0355852Y0073038D01*
X0355919Y0072906D01*
X0355982Y0072772D01*
X0356042Y0072637D01*
X0356098Y0072500D01*
X0356151Y0072361D01*
X0356199Y0072221D01*
X0356244Y0072080D01*
X0356285Y0071938D01*
X0356323Y0071795D01*
X0356356Y0071651D01*
X0356386Y0071506D01*
X0356412Y0071360D01*
X0356433Y0071214D01*
X0356451Y0071067D01*
X0356465Y0070920D01*
X0356475Y0070772D01*
X0356481Y0070624D01*
X0356483Y0070476D01*
X0356481Y0070328D01*
X0356475Y0070180D01*
X0356465Y0070032D01*
X0356451Y0069885D01*
X0356433Y0069738D01*
X0356412Y0069592D01*
X0356386Y0069446D01*
X0356356Y0069301D01*
X0356323Y0069157D01*
X0356285Y0069014D01*
X0356244Y0068872D01*
X0356199Y0068731D01*
X0356151Y0068591D01*
X0356098Y0068452D01*
X0356042Y0068315D01*
X0355982Y0068180D01*
X0355919Y0068046D01*
X0355852Y0067914D01*
X0355781Y0067784D01*
X0355707Y0067656D01*
X0355630Y0067530D01*
X0355549Y0067406D01*
X0355465Y0067284D01*
X0355378Y0067165D01*
X0355287Y0067048D01*
X0355193Y0066933D01*
X0355097Y0066821D01*
X0354997Y0066711D01*
X0354895Y0066605D01*
X0354789Y0066501D01*
X0354681Y0066400D01*
X0354570Y0066302D01*
X0354457Y0066206D01*
X0354341Y0066114D01*
X0354223Y0066025D01*
X0354102Y0065940D01*
X0353979Y0065857D01*
X0353854Y0065778D01*
X0353727Y0065702D01*
X0353598Y0065630D01*
X0353467Y0065561D01*
X0353334Y0065496D01*
X0353199Y0065435D01*
X0353063Y0065377D01*
X0352926Y0065322D01*
X0352787Y0065272D01*
X0352646Y0065225D01*
X0352505Y0065182D01*
X0352362Y0065142D01*
X0352218Y0065107D01*
X0352074Y0065075D01*
X0351928Y0065048D01*
X0351782Y0065024D01*
X0351635Y0065004D01*
X0351488Y0064988D01*
X0351341Y0064976D01*
X0351193Y0064968D01*
X0351045Y0064964D01*
X0350897Y0064964D01*
X0350749Y0064968D01*
X0350601Y0064976D01*
X0350454Y0064988D01*
X0350307Y0065004D01*
X0350160Y0065024D01*
X0350014Y0065048D01*
X0349868Y0065075D01*
X0349724Y0065107D01*
X0349580Y0065142D01*
X0349437Y0065182D01*
X0349296Y0065225D01*
X0349155Y0065272D01*
X0349016Y0065322D01*
X0348879Y0065377D01*
X0348743Y0065435D01*
X0348608Y0065496D01*
X0348475Y0065561D01*
X0348344Y0065630D01*
X0348215Y0065702D01*
X0348088Y0065778D01*
X0347963Y0065857D01*
X0347840Y0065940D01*
X0347719Y0066025D01*
X0347601Y0066114D01*
X0347485Y0066206D01*
X0347372Y0066302D01*
X0347261Y0066400D01*
X0347153Y0066501D01*
X0347047Y0066605D01*
X0346945Y0066711D01*
X0346845Y0066821D01*
X0346749Y0066933D01*
X0346655Y0067048D01*
X0346564Y0067165D01*
X0346477Y0067284D01*
X0346393Y0067406D01*
X0346312Y0067530D01*
X0346235Y0067656D01*
X0346161Y0067784D01*
X0346090Y0067914D01*
X0346023Y0068046D01*
X0345960Y0068180D01*
X0345900Y0068315D01*
X0345844Y0068452D01*
X0345791Y0068591D01*
X0345743Y0068731D01*
X0345698Y0068872D01*
X0345657Y0069014D01*
X0345619Y0069157D01*
X0345586Y0069301D01*
X0345556Y0069446D01*
X0345530Y0069592D01*
X0345509Y0069738D01*
X0345491Y0069885D01*
X0345477Y0070032D01*
X0345467Y0070180D01*
X0345461Y0070328D01*
X0345459Y0070476D01*
X0381833Y0021500D02*
X0381835Y0021661D01*
X0381841Y0021821D01*
X0381851Y0021982D01*
X0381865Y0022142D01*
X0381883Y0022302D01*
X0381904Y0022461D01*
X0381930Y0022620D01*
X0381960Y0022778D01*
X0381993Y0022935D01*
X0382031Y0023092D01*
X0382072Y0023247D01*
X0382117Y0023401D01*
X0382166Y0023554D01*
X0382219Y0023706D01*
X0382275Y0023857D01*
X0382336Y0024006D01*
X0382399Y0024154D01*
X0382467Y0024300D01*
X0382538Y0024444D01*
X0382612Y0024586D01*
X0382690Y0024727D01*
X0382772Y0024865D01*
X0382857Y0025002D01*
X0382945Y0025136D01*
X0383037Y0025268D01*
X0383132Y0025398D01*
X0383230Y0025526D01*
X0383331Y0025651D01*
X0383435Y0025773D01*
X0383542Y0025893D01*
X0383652Y0026010D01*
X0383765Y0026125D01*
X0383881Y0026236D01*
X0384000Y0026345D01*
X0384121Y0026450D01*
X0384245Y0026553D01*
X0384371Y0026653D01*
X0384499Y0026749D01*
X0384630Y0026842D01*
X0384764Y0026932D01*
X0384899Y0027019D01*
X0385037Y0027102D01*
X0385176Y0027182D01*
X0385318Y0027258D01*
X0385461Y0027331D01*
X0385606Y0027400D01*
X0385753Y0027466D01*
X0385901Y0027528D01*
X0386051Y0027586D01*
X0386202Y0027641D01*
X0386355Y0027692D01*
X0386509Y0027739D01*
X0386664Y0027782D01*
X0386820Y0027821D01*
X0386976Y0027857D01*
X0387134Y0027888D01*
X0387292Y0027916D01*
X0387451Y0027940D01*
X0387611Y0027960D01*
X0387771Y0027976D01*
X0387931Y0027988D01*
X0388092Y0027996D01*
X0388253Y0028000D01*
X0388413Y0028000D01*
X0388574Y0027996D01*
X0388735Y0027988D01*
X0388895Y0027976D01*
X0389055Y0027960D01*
X0389215Y0027940D01*
X0389374Y0027916D01*
X0389532Y0027888D01*
X0389690Y0027857D01*
X0389846Y0027821D01*
X0390002Y0027782D01*
X0390157Y0027739D01*
X0390311Y0027692D01*
X0390464Y0027641D01*
X0390615Y0027586D01*
X0390765Y0027528D01*
X0390913Y0027466D01*
X0391060Y0027400D01*
X0391205Y0027331D01*
X0391348Y0027258D01*
X0391490Y0027182D01*
X0391629Y0027102D01*
X0391767Y0027019D01*
X0391902Y0026932D01*
X0392036Y0026842D01*
X0392167Y0026749D01*
X0392295Y0026653D01*
X0392421Y0026553D01*
X0392545Y0026450D01*
X0392666Y0026345D01*
X0392785Y0026236D01*
X0392901Y0026125D01*
X0393014Y0026010D01*
X0393124Y0025893D01*
X0393231Y0025773D01*
X0393335Y0025651D01*
X0393436Y0025526D01*
X0393534Y0025398D01*
X0393629Y0025268D01*
X0393721Y0025136D01*
X0393809Y0025002D01*
X0393894Y0024865D01*
X0393976Y0024727D01*
X0394054Y0024586D01*
X0394128Y0024444D01*
X0394199Y0024300D01*
X0394267Y0024154D01*
X0394330Y0024006D01*
X0394391Y0023857D01*
X0394447Y0023706D01*
X0394500Y0023554D01*
X0394549Y0023401D01*
X0394594Y0023247D01*
X0394635Y0023092D01*
X0394673Y0022935D01*
X0394706Y0022778D01*
X0394736Y0022620D01*
X0394762Y0022461D01*
X0394783Y0022302D01*
X0394801Y0022142D01*
X0394815Y0021982D01*
X0394825Y0021821D01*
X0394831Y0021661D01*
X0394833Y0021500D01*
X0394831Y0021339D01*
X0394825Y0021179D01*
X0394815Y0021018D01*
X0394801Y0020858D01*
X0394783Y0020698D01*
X0394762Y0020539D01*
X0394736Y0020380D01*
X0394706Y0020222D01*
X0394673Y0020065D01*
X0394635Y0019908D01*
X0394594Y0019753D01*
X0394549Y0019599D01*
X0394500Y0019446D01*
X0394447Y0019294D01*
X0394391Y0019143D01*
X0394330Y0018994D01*
X0394267Y0018846D01*
X0394199Y0018700D01*
X0394128Y0018556D01*
X0394054Y0018414D01*
X0393976Y0018273D01*
X0393894Y0018135D01*
X0393809Y0017998D01*
X0393721Y0017864D01*
X0393629Y0017732D01*
X0393534Y0017602D01*
X0393436Y0017474D01*
X0393335Y0017349D01*
X0393231Y0017227D01*
X0393124Y0017107D01*
X0393014Y0016990D01*
X0392901Y0016875D01*
X0392785Y0016764D01*
X0392666Y0016655D01*
X0392545Y0016550D01*
X0392421Y0016447D01*
X0392295Y0016347D01*
X0392167Y0016251D01*
X0392036Y0016158D01*
X0391902Y0016068D01*
X0391767Y0015981D01*
X0391629Y0015898D01*
X0391490Y0015818D01*
X0391348Y0015742D01*
X0391205Y0015669D01*
X0391060Y0015600D01*
X0390913Y0015534D01*
X0390765Y0015472D01*
X0390615Y0015414D01*
X0390464Y0015359D01*
X0390311Y0015308D01*
X0390157Y0015261D01*
X0390002Y0015218D01*
X0389846Y0015179D01*
X0389690Y0015143D01*
X0389532Y0015112D01*
X0389374Y0015084D01*
X0389215Y0015060D01*
X0389055Y0015040D01*
X0388895Y0015024D01*
X0388735Y0015012D01*
X0388574Y0015004D01*
X0388413Y0015000D01*
X0388253Y0015000D01*
X0388092Y0015004D01*
X0387931Y0015012D01*
X0387771Y0015024D01*
X0387611Y0015040D01*
X0387451Y0015060D01*
X0387292Y0015084D01*
X0387134Y0015112D01*
X0386976Y0015143D01*
X0386820Y0015179D01*
X0386664Y0015218D01*
X0386509Y0015261D01*
X0386355Y0015308D01*
X0386202Y0015359D01*
X0386051Y0015414D01*
X0385901Y0015472D01*
X0385753Y0015534D01*
X0385606Y0015600D01*
X0385461Y0015669D01*
X0385318Y0015742D01*
X0385176Y0015818D01*
X0385037Y0015898D01*
X0384899Y0015981D01*
X0384764Y0016068D01*
X0384630Y0016158D01*
X0384499Y0016251D01*
X0384371Y0016347D01*
X0384245Y0016447D01*
X0384121Y0016550D01*
X0384000Y0016655D01*
X0383881Y0016764D01*
X0383765Y0016875D01*
X0383652Y0016990D01*
X0383542Y0017107D01*
X0383435Y0017227D01*
X0383331Y0017349D01*
X0383230Y0017474D01*
X0383132Y0017602D01*
X0383037Y0017732D01*
X0382945Y0017864D01*
X0382857Y0017998D01*
X0382772Y0018135D01*
X0382690Y0018273D01*
X0382612Y0018414D01*
X0382538Y0018556D01*
X0382467Y0018700D01*
X0382399Y0018846D01*
X0382336Y0018994D01*
X0382275Y0019143D01*
X0382219Y0019294D01*
X0382166Y0019446D01*
X0382117Y0019599D01*
X0382072Y0019753D01*
X0382031Y0019908D01*
X0381993Y0020065D01*
X0381960Y0020222D01*
X0381930Y0020380D01*
X0381904Y0020539D01*
X0381883Y0020698D01*
X0381865Y0020858D01*
X0381851Y0021018D01*
X0381841Y0021179D01*
X0381835Y0021339D01*
X0381833Y0021500D01*
X0345459Y0192524D02*
X0345461Y0192672D01*
X0345467Y0192820D01*
X0345477Y0192968D01*
X0345491Y0193115D01*
X0345509Y0193262D01*
X0345530Y0193408D01*
X0345556Y0193554D01*
X0345586Y0193699D01*
X0345619Y0193843D01*
X0345657Y0193986D01*
X0345698Y0194128D01*
X0345743Y0194269D01*
X0345791Y0194409D01*
X0345844Y0194548D01*
X0345900Y0194685D01*
X0345960Y0194820D01*
X0346023Y0194954D01*
X0346090Y0195086D01*
X0346161Y0195216D01*
X0346235Y0195344D01*
X0346312Y0195470D01*
X0346393Y0195594D01*
X0346477Y0195716D01*
X0346564Y0195835D01*
X0346655Y0195952D01*
X0346749Y0196067D01*
X0346845Y0196179D01*
X0346945Y0196289D01*
X0347047Y0196395D01*
X0347153Y0196499D01*
X0347261Y0196600D01*
X0347372Y0196698D01*
X0347485Y0196794D01*
X0347601Y0196886D01*
X0347719Y0196975D01*
X0347840Y0197060D01*
X0347963Y0197143D01*
X0348088Y0197222D01*
X0348215Y0197298D01*
X0348344Y0197370D01*
X0348475Y0197439D01*
X0348608Y0197504D01*
X0348743Y0197565D01*
X0348879Y0197623D01*
X0349016Y0197678D01*
X0349155Y0197728D01*
X0349296Y0197775D01*
X0349437Y0197818D01*
X0349580Y0197858D01*
X0349724Y0197893D01*
X0349868Y0197925D01*
X0350014Y0197952D01*
X0350160Y0197976D01*
X0350307Y0197996D01*
X0350454Y0198012D01*
X0350601Y0198024D01*
X0350749Y0198032D01*
X0350897Y0198036D01*
X0351045Y0198036D01*
X0351193Y0198032D01*
X0351341Y0198024D01*
X0351488Y0198012D01*
X0351635Y0197996D01*
X0351782Y0197976D01*
X0351928Y0197952D01*
X0352074Y0197925D01*
X0352218Y0197893D01*
X0352362Y0197858D01*
X0352505Y0197818D01*
X0352646Y0197775D01*
X0352787Y0197728D01*
X0352926Y0197678D01*
X0353063Y0197623D01*
X0353199Y0197565D01*
X0353334Y0197504D01*
X0353467Y0197439D01*
X0353598Y0197370D01*
X0353727Y0197298D01*
X0353854Y0197222D01*
X0353979Y0197143D01*
X0354102Y0197060D01*
X0354223Y0196975D01*
X0354341Y0196886D01*
X0354457Y0196794D01*
X0354570Y0196698D01*
X0354681Y0196600D01*
X0354789Y0196499D01*
X0354895Y0196395D01*
X0354997Y0196289D01*
X0355097Y0196179D01*
X0355193Y0196067D01*
X0355287Y0195952D01*
X0355378Y0195835D01*
X0355465Y0195716D01*
X0355549Y0195594D01*
X0355630Y0195470D01*
X0355707Y0195344D01*
X0355781Y0195216D01*
X0355852Y0195086D01*
X0355919Y0194954D01*
X0355982Y0194820D01*
X0356042Y0194685D01*
X0356098Y0194548D01*
X0356151Y0194409D01*
X0356199Y0194269D01*
X0356244Y0194128D01*
X0356285Y0193986D01*
X0356323Y0193843D01*
X0356356Y0193699D01*
X0356386Y0193554D01*
X0356412Y0193408D01*
X0356433Y0193262D01*
X0356451Y0193115D01*
X0356465Y0192968D01*
X0356475Y0192820D01*
X0356481Y0192672D01*
X0356483Y0192524D01*
X0356481Y0192376D01*
X0356475Y0192228D01*
X0356465Y0192080D01*
X0356451Y0191933D01*
X0356433Y0191786D01*
X0356412Y0191640D01*
X0356386Y0191494D01*
X0356356Y0191349D01*
X0356323Y0191205D01*
X0356285Y0191062D01*
X0356244Y0190920D01*
X0356199Y0190779D01*
X0356151Y0190639D01*
X0356098Y0190500D01*
X0356042Y0190363D01*
X0355982Y0190228D01*
X0355919Y0190094D01*
X0355852Y0189962D01*
X0355781Y0189832D01*
X0355707Y0189704D01*
X0355630Y0189578D01*
X0355549Y0189454D01*
X0355465Y0189332D01*
X0355378Y0189213D01*
X0355287Y0189096D01*
X0355193Y0188981D01*
X0355097Y0188869D01*
X0354997Y0188759D01*
X0354895Y0188653D01*
X0354789Y0188549D01*
X0354681Y0188448D01*
X0354570Y0188350D01*
X0354457Y0188254D01*
X0354341Y0188162D01*
X0354223Y0188073D01*
X0354102Y0187988D01*
X0353979Y0187905D01*
X0353854Y0187826D01*
X0353727Y0187750D01*
X0353598Y0187678D01*
X0353467Y0187609D01*
X0353334Y0187544D01*
X0353199Y0187483D01*
X0353063Y0187425D01*
X0352926Y0187370D01*
X0352787Y0187320D01*
X0352646Y0187273D01*
X0352505Y0187230D01*
X0352362Y0187190D01*
X0352218Y0187155D01*
X0352074Y0187123D01*
X0351928Y0187096D01*
X0351782Y0187072D01*
X0351635Y0187052D01*
X0351488Y0187036D01*
X0351341Y0187024D01*
X0351193Y0187016D01*
X0351045Y0187012D01*
X0350897Y0187012D01*
X0350749Y0187016D01*
X0350601Y0187024D01*
X0350454Y0187036D01*
X0350307Y0187052D01*
X0350160Y0187072D01*
X0350014Y0187096D01*
X0349868Y0187123D01*
X0349724Y0187155D01*
X0349580Y0187190D01*
X0349437Y0187230D01*
X0349296Y0187273D01*
X0349155Y0187320D01*
X0349016Y0187370D01*
X0348879Y0187425D01*
X0348743Y0187483D01*
X0348608Y0187544D01*
X0348475Y0187609D01*
X0348344Y0187678D01*
X0348215Y0187750D01*
X0348088Y0187826D01*
X0347963Y0187905D01*
X0347840Y0187988D01*
X0347719Y0188073D01*
X0347601Y0188162D01*
X0347485Y0188254D01*
X0347372Y0188350D01*
X0347261Y0188448D01*
X0347153Y0188549D01*
X0347047Y0188653D01*
X0346945Y0188759D01*
X0346845Y0188869D01*
X0346749Y0188981D01*
X0346655Y0189096D01*
X0346564Y0189213D01*
X0346477Y0189332D01*
X0346393Y0189454D01*
X0346312Y0189578D01*
X0346235Y0189704D01*
X0346161Y0189832D01*
X0346090Y0189962D01*
X0346023Y0190094D01*
X0345960Y0190228D01*
X0345900Y0190363D01*
X0345844Y0190500D01*
X0345791Y0190639D01*
X0345743Y0190779D01*
X0345698Y0190920D01*
X0345657Y0191062D01*
X0345619Y0191205D01*
X0345586Y0191349D01*
X0345556Y0191494D01*
X0345530Y0191640D01*
X0345509Y0191786D01*
X0345491Y0191933D01*
X0345477Y0192080D01*
X0345467Y0192228D01*
X0345461Y0192376D01*
X0345459Y0192524D01*
X0381833Y0201500D02*
X0381835Y0201661D01*
X0381841Y0201821D01*
X0381851Y0201982D01*
X0381865Y0202142D01*
X0381883Y0202302D01*
X0381904Y0202461D01*
X0381930Y0202620D01*
X0381960Y0202778D01*
X0381993Y0202935D01*
X0382031Y0203092D01*
X0382072Y0203247D01*
X0382117Y0203401D01*
X0382166Y0203554D01*
X0382219Y0203706D01*
X0382275Y0203857D01*
X0382336Y0204006D01*
X0382399Y0204154D01*
X0382467Y0204300D01*
X0382538Y0204444D01*
X0382612Y0204586D01*
X0382690Y0204727D01*
X0382772Y0204865D01*
X0382857Y0205002D01*
X0382945Y0205136D01*
X0383037Y0205268D01*
X0383132Y0205398D01*
X0383230Y0205526D01*
X0383331Y0205651D01*
X0383435Y0205773D01*
X0383542Y0205893D01*
X0383652Y0206010D01*
X0383765Y0206125D01*
X0383881Y0206236D01*
X0384000Y0206345D01*
X0384121Y0206450D01*
X0384245Y0206553D01*
X0384371Y0206653D01*
X0384499Y0206749D01*
X0384630Y0206842D01*
X0384764Y0206932D01*
X0384899Y0207019D01*
X0385037Y0207102D01*
X0385176Y0207182D01*
X0385318Y0207258D01*
X0385461Y0207331D01*
X0385606Y0207400D01*
X0385753Y0207466D01*
X0385901Y0207528D01*
X0386051Y0207586D01*
X0386202Y0207641D01*
X0386355Y0207692D01*
X0386509Y0207739D01*
X0386664Y0207782D01*
X0386820Y0207821D01*
X0386976Y0207857D01*
X0387134Y0207888D01*
X0387292Y0207916D01*
X0387451Y0207940D01*
X0387611Y0207960D01*
X0387771Y0207976D01*
X0387931Y0207988D01*
X0388092Y0207996D01*
X0388253Y0208000D01*
X0388413Y0208000D01*
X0388574Y0207996D01*
X0388735Y0207988D01*
X0388895Y0207976D01*
X0389055Y0207960D01*
X0389215Y0207940D01*
X0389374Y0207916D01*
X0389532Y0207888D01*
X0389690Y0207857D01*
X0389846Y0207821D01*
X0390002Y0207782D01*
X0390157Y0207739D01*
X0390311Y0207692D01*
X0390464Y0207641D01*
X0390615Y0207586D01*
X0390765Y0207528D01*
X0390913Y0207466D01*
X0391060Y0207400D01*
X0391205Y0207331D01*
X0391348Y0207258D01*
X0391490Y0207182D01*
X0391629Y0207102D01*
X0391767Y0207019D01*
X0391902Y0206932D01*
X0392036Y0206842D01*
X0392167Y0206749D01*
X0392295Y0206653D01*
X0392421Y0206553D01*
X0392545Y0206450D01*
X0392666Y0206345D01*
X0392785Y0206236D01*
X0392901Y0206125D01*
X0393014Y0206010D01*
X0393124Y0205893D01*
X0393231Y0205773D01*
X0393335Y0205651D01*
X0393436Y0205526D01*
X0393534Y0205398D01*
X0393629Y0205268D01*
X0393721Y0205136D01*
X0393809Y0205002D01*
X0393894Y0204865D01*
X0393976Y0204727D01*
X0394054Y0204586D01*
X0394128Y0204444D01*
X0394199Y0204300D01*
X0394267Y0204154D01*
X0394330Y0204006D01*
X0394391Y0203857D01*
X0394447Y0203706D01*
X0394500Y0203554D01*
X0394549Y0203401D01*
X0394594Y0203247D01*
X0394635Y0203092D01*
X0394673Y0202935D01*
X0394706Y0202778D01*
X0394736Y0202620D01*
X0394762Y0202461D01*
X0394783Y0202302D01*
X0394801Y0202142D01*
X0394815Y0201982D01*
X0394825Y0201821D01*
X0394831Y0201661D01*
X0394833Y0201500D01*
X0394831Y0201339D01*
X0394825Y0201179D01*
X0394815Y0201018D01*
X0394801Y0200858D01*
X0394783Y0200698D01*
X0394762Y0200539D01*
X0394736Y0200380D01*
X0394706Y0200222D01*
X0394673Y0200065D01*
X0394635Y0199908D01*
X0394594Y0199753D01*
X0394549Y0199599D01*
X0394500Y0199446D01*
X0394447Y0199294D01*
X0394391Y0199143D01*
X0394330Y0198994D01*
X0394267Y0198846D01*
X0394199Y0198700D01*
X0394128Y0198556D01*
X0394054Y0198414D01*
X0393976Y0198273D01*
X0393894Y0198135D01*
X0393809Y0197998D01*
X0393721Y0197864D01*
X0393629Y0197732D01*
X0393534Y0197602D01*
X0393436Y0197474D01*
X0393335Y0197349D01*
X0393231Y0197227D01*
X0393124Y0197107D01*
X0393014Y0196990D01*
X0392901Y0196875D01*
X0392785Y0196764D01*
X0392666Y0196655D01*
X0392545Y0196550D01*
X0392421Y0196447D01*
X0392295Y0196347D01*
X0392167Y0196251D01*
X0392036Y0196158D01*
X0391902Y0196068D01*
X0391767Y0195981D01*
X0391629Y0195898D01*
X0391490Y0195818D01*
X0391348Y0195742D01*
X0391205Y0195669D01*
X0391060Y0195600D01*
X0390913Y0195534D01*
X0390765Y0195472D01*
X0390615Y0195414D01*
X0390464Y0195359D01*
X0390311Y0195308D01*
X0390157Y0195261D01*
X0390002Y0195218D01*
X0389846Y0195179D01*
X0389690Y0195143D01*
X0389532Y0195112D01*
X0389374Y0195084D01*
X0389215Y0195060D01*
X0389055Y0195040D01*
X0388895Y0195024D01*
X0388735Y0195012D01*
X0388574Y0195004D01*
X0388413Y0195000D01*
X0388253Y0195000D01*
X0388092Y0195004D01*
X0387931Y0195012D01*
X0387771Y0195024D01*
X0387611Y0195040D01*
X0387451Y0195060D01*
X0387292Y0195084D01*
X0387134Y0195112D01*
X0386976Y0195143D01*
X0386820Y0195179D01*
X0386664Y0195218D01*
X0386509Y0195261D01*
X0386355Y0195308D01*
X0386202Y0195359D01*
X0386051Y0195414D01*
X0385901Y0195472D01*
X0385753Y0195534D01*
X0385606Y0195600D01*
X0385461Y0195669D01*
X0385318Y0195742D01*
X0385176Y0195818D01*
X0385037Y0195898D01*
X0384899Y0195981D01*
X0384764Y0196068D01*
X0384630Y0196158D01*
X0384499Y0196251D01*
X0384371Y0196347D01*
X0384245Y0196447D01*
X0384121Y0196550D01*
X0384000Y0196655D01*
X0383881Y0196764D01*
X0383765Y0196875D01*
X0383652Y0196990D01*
X0383542Y0197107D01*
X0383435Y0197227D01*
X0383331Y0197349D01*
X0383230Y0197474D01*
X0383132Y0197602D01*
X0383037Y0197732D01*
X0382945Y0197864D01*
X0382857Y0197998D01*
X0382772Y0198135D01*
X0382690Y0198273D01*
X0382612Y0198414D01*
X0382538Y0198556D01*
X0382467Y0198700D01*
X0382399Y0198846D01*
X0382336Y0198994D01*
X0382275Y0199143D01*
X0382219Y0199294D01*
X0382166Y0199446D01*
X0382117Y0199599D01*
X0382072Y0199753D01*
X0382031Y0199908D01*
X0381993Y0200065D01*
X0381960Y0200222D01*
X0381930Y0200380D01*
X0381904Y0200539D01*
X0381883Y0200698D01*
X0381865Y0200858D01*
X0381851Y0201018D01*
X0381841Y0201179D01*
X0381835Y0201339D01*
X0381833Y0201500D01*
X0050184Y0192524D02*
X0050186Y0192672D01*
X0050192Y0192820D01*
X0050202Y0192968D01*
X0050216Y0193115D01*
X0050234Y0193262D01*
X0050255Y0193408D01*
X0050281Y0193554D01*
X0050311Y0193699D01*
X0050344Y0193843D01*
X0050382Y0193986D01*
X0050423Y0194128D01*
X0050468Y0194269D01*
X0050516Y0194409D01*
X0050569Y0194548D01*
X0050625Y0194685D01*
X0050685Y0194820D01*
X0050748Y0194954D01*
X0050815Y0195086D01*
X0050886Y0195216D01*
X0050960Y0195344D01*
X0051037Y0195470D01*
X0051118Y0195594D01*
X0051202Y0195716D01*
X0051289Y0195835D01*
X0051380Y0195952D01*
X0051474Y0196067D01*
X0051570Y0196179D01*
X0051670Y0196289D01*
X0051772Y0196395D01*
X0051878Y0196499D01*
X0051986Y0196600D01*
X0052097Y0196698D01*
X0052210Y0196794D01*
X0052326Y0196886D01*
X0052444Y0196975D01*
X0052565Y0197060D01*
X0052688Y0197143D01*
X0052813Y0197222D01*
X0052940Y0197298D01*
X0053069Y0197370D01*
X0053200Y0197439D01*
X0053333Y0197504D01*
X0053468Y0197565D01*
X0053604Y0197623D01*
X0053741Y0197678D01*
X0053880Y0197728D01*
X0054021Y0197775D01*
X0054162Y0197818D01*
X0054305Y0197858D01*
X0054449Y0197893D01*
X0054593Y0197925D01*
X0054739Y0197952D01*
X0054885Y0197976D01*
X0055032Y0197996D01*
X0055179Y0198012D01*
X0055326Y0198024D01*
X0055474Y0198032D01*
X0055622Y0198036D01*
X0055770Y0198036D01*
X0055918Y0198032D01*
X0056066Y0198024D01*
X0056213Y0198012D01*
X0056360Y0197996D01*
X0056507Y0197976D01*
X0056653Y0197952D01*
X0056799Y0197925D01*
X0056943Y0197893D01*
X0057087Y0197858D01*
X0057230Y0197818D01*
X0057371Y0197775D01*
X0057512Y0197728D01*
X0057651Y0197678D01*
X0057788Y0197623D01*
X0057924Y0197565D01*
X0058059Y0197504D01*
X0058192Y0197439D01*
X0058323Y0197370D01*
X0058452Y0197298D01*
X0058579Y0197222D01*
X0058704Y0197143D01*
X0058827Y0197060D01*
X0058948Y0196975D01*
X0059066Y0196886D01*
X0059182Y0196794D01*
X0059295Y0196698D01*
X0059406Y0196600D01*
X0059514Y0196499D01*
X0059620Y0196395D01*
X0059722Y0196289D01*
X0059822Y0196179D01*
X0059918Y0196067D01*
X0060012Y0195952D01*
X0060103Y0195835D01*
X0060190Y0195716D01*
X0060274Y0195594D01*
X0060355Y0195470D01*
X0060432Y0195344D01*
X0060506Y0195216D01*
X0060577Y0195086D01*
X0060644Y0194954D01*
X0060707Y0194820D01*
X0060767Y0194685D01*
X0060823Y0194548D01*
X0060876Y0194409D01*
X0060924Y0194269D01*
X0060969Y0194128D01*
X0061010Y0193986D01*
X0061048Y0193843D01*
X0061081Y0193699D01*
X0061111Y0193554D01*
X0061137Y0193408D01*
X0061158Y0193262D01*
X0061176Y0193115D01*
X0061190Y0192968D01*
X0061200Y0192820D01*
X0061206Y0192672D01*
X0061208Y0192524D01*
X0061206Y0192376D01*
X0061200Y0192228D01*
X0061190Y0192080D01*
X0061176Y0191933D01*
X0061158Y0191786D01*
X0061137Y0191640D01*
X0061111Y0191494D01*
X0061081Y0191349D01*
X0061048Y0191205D01*
X0061010Y0191062D01*
X0060969Y0190920D01*
X0060924Y0190779D01*
X0060876Y0190639D01*
X0060823Y0190500D01*
X0060767Y0190363D01*
X0060707Y0190228D01*
X0060644Y0190094D01*
X0060577Y0189962D01*
X0060506Y0189832D01*
X0060432Y0189704D01*
X0060355Y0189578D01*
X0060274Y0189454D01*
X0060190Y0189332D01*
X0060103Y0189213D01*
X0060012Y0189096D01*
X0059918Y0188981D01*
X0059822Y0188869D01*
X0059722Y0188759D01*
X0059620Y0188653D01*
X0059514Y0188549D01*
X0059406Y0188448D01*
X0059295Y0188350D01*
X0059182Y0188254D01*
X0059066Y0188162D01*
X0058948Y0188073D01*
X0058827Y0187988D01*
X0058704Y0187905D01*
X0058579Y0187826D01*
X0058452Y0187750D01*
X0058323Y0187678D01*
X0058192Y0187609D01*
X0058059Y0187544D01*
X0057924Y0187483D01*
X0057788Y0187425D01*
X0057651Y0187370D01*
X0057512Y0187320D01*
X0057371Y0187273D01*
X0057230Y0187230D01*
X0057087Y0187190D01*
X0056943Y0187155D01*
X0056799Y0187123D01*
X0056653Y0187096D01*
X0056507Y0187072D01*
X0056360Y0187052D01*
X0056213Y0187036D01*
X0056066Y0187024D01*
X0055918Y0187016D01*
X0055770Y0187012D01*
X0055622Y0187012D01*
X0055474Y0187016D01*
X0055326Y0187024D01*
X0055179Y0187036D01*
X0055032Y0187052D01*
X0054885Y0187072D01*
X0054739Y0187096D01*
X0054593Y0187123D01*
X0054449Y0187155D01*
X0054305Y0187190D01*
X0054162Y0187230D01*
X0054021Y0187273D01*
X0053880Y0187320D01*
X0053741Y0187370D01*
X0053604Y0187425D01*
X0053468Y0187483D01*
X0053333Y0187544D01*
X0053200Y0187609D01*
X0053069Y0187678D01*
X0052940Y0187750D01*
X0052813Y0187826D01*
X0052688Y0187905D01*
X0052565Y0187988D01*
X0052444Y0188073D01*
X0052326Y0188162D01*
X0052210Y0188254D01*
X0052097Y0188350D01*
X0051986Y0188448D01*
X0051878Y0188549D01*
X0051772Y0188653D01*
X0051670Y0188759D01*
X0051570Y0188869D01*
X0051474Y0188981D01*
X0051380Y0189096D01*
X0051289Y0189213D01*
X0051202Y0189332D01*
X0051118Y0189454D01*
X0051037Y0189578D01*
X0050960Y0189704D01*
X0050886Y0189832D01*
X0050815Y0189962D01*
X0050748Y0190094D01*
X0050685Y0190228D01*
X0050625Y0190363D01*
X0050569Y0190500D01*
X0050516Y0190639D01*
X0050468Y0190779D01*
X0050423Y0190920D01*
X0050382Y0191062D01*
X0050344Y0191205D01*
X0050311Y0191349D01*
X0050281Y0191494D01*
X0050255Y0191640D01*
X0050234Y0191786D01*
X0050216Y0191933D01*
X0050202Y0192080D01*
X0050192Y0192228D01*
X0050186Y0192376D01*
X0050184Y0192524D01*
X0016833Y0201500D02*
X0016835Y0201661D01*
X0016841Y0201821D01*
X0016851Y0201982D01*
X0016865Y0202142D01*
X0016883Y0202302D01*
X0016904Y0202461D01*
X0016930Y0202620D01*
X0016960Y0202778D01*
X0016993Y0202935D01*
X0017031Y0203092D01*
X0017072Y0203247D01*
X0017117Y0203401D01*
X0017166Y0203554D01*
X0017219Y0203706D01*
X0017275Y0203857D01*
X0017336Y0204006D01*
X0017399Y0204154D01*
X0017467Y0204300D01*
X0017538Y0204444D01*
X0017612Y0204586D01*
X0017690Y0204727D01*
X0017772Y0204865D01*
X0017857Y0205002D01*
X0017945Y0205136D01*
X0018037Y0205268D01*
X0018132Y0205398D01*
X0018230Y0205526D01*
X0018331Y0205651D01*
X0018435Y0205773D01*
X0018542Y0205893D01*
X0018652Y0206010D01*
X0018765Y0206125D01*
X0018881Y0206236D01*
X0019000Y0206345D01*
X0019121Y0206450D01*
X0019245Y0206553D01*
X0019371Y0206653D01*
X0019499Y0206749D01*
X0019630Y0206842D01*
X0019764Y0206932D01*
X0019899Y0207019D01*
X0020037Y0207102D01*
X0020176Y0207182D01*
X0020318Y0207258D01*
X0020461Y0207331D01*
X0020606Y0207400D01*
X0020753Y0207466D01*
X0020901Y0207528D01*
X0021051Y0207586D01*
X0021202Y0207641D01*
X0021355Y0207692D01*
X0021509Y0207739D01*
X0021664Y0207782D01*
X0021820Y0207821D01*
X0021976Y0207857D01*
X0022134Y0207888D01*
X0022292Y0207916D01*
X0022451Y0207940D01*
X0022611Y0207960D01*
X0022771Y0207976D01*
X0022931Y0207988D01*
X0023092Y0207996D01*
X0023253Y0208000D01*
X0023413Y0208000D01*
X0023574Y0207996D01*
X0023735Y0207988D01*
X0023895Y0207976D01*
X0024055Y0207960D01*
X0024215Y0207940D01*
X0024374Y0207916D01*
X0024532Y0207888D01*
X0024690Y0207857D01*
X0024846Y0207821D01*
X0025002Y0207782D01*
X0025157Y0207739D01*
X0025311Y0207692D01*
X0025464Y0207641D01*
X0025615Y0207586D01*
X0025765Y0207528D01*
X0025913Y0207466D01*
X0026060Y0207400D01*
X0026205Y0207331D01*
X0026348Y0207258D01*
X0026490Y0207182D01*
X0026629Y0207102D01*
X0026767Y0207019D01*
X0026902Y0206932D01*
X0027036Y0206842D01*
X0027167Y0206749D01*
X0027295Y0206653D01*
X0027421Y0206553D01*
X0027545Y0206450D01*
X0027666Y0206345D01*
X0027785Y0206236D01*
X0027901Y0206125D01*
X0028014Y0206010D01*
X0028124Y0205893D01*
X0028231Y0205773D01*
X0028335Y0205651D01*
X0028436Y0205526D01*
X0028534Y0205398D01*
X0028629Y0205268D01*
X0028721Y0205136D01*
X0028809Y0205002D01*
X0028894Y0204865D01*
X0028976Y0204727D01*
X0029054Y0204586D01*
X0029128Y0204444D01*
X0029199Y0204300D01*
X0029267Y0204154D01*
X0029330Y0204006D01*
X0029391Y0203857D01*
X0029447Y0203706D01*
X0029500Y0203554D01*
X0029549Y0203401D01*
X0029594Y0203247D01*
X0029635Y0203092D01*
X0029673Y0202935D01*
X0029706Y0202778D01*
X0029736Y0202620D01*
X0029762Y0202461D01*
X0029783Y0202302D01*
X0029801Y0202142D01*
X0029815Y0201982D01*
X0029825Y0201821D01*
X0029831Y0201661D01*
X0029833Y0201500D01*
X0029831Y0201339D01*
X0029825Y0201179D01*
X0029815Y0201018D01*
X0029801Y0200858D01*
X0029783Y0200698D01*
X0029762Y0200539D01*
X0029736Y0200380D01*
X0029706Y0200222D01*
X0029673Y0200065D01*
X0029635Y0199908D01*
X0029594Y0199753D01*
X0029549Y0199599D01*
X0029500Y0199446D01*
X0029447Y0199294D01*
X0029391Y0199143D01*
X0029330Y0198994D01*
X0029267Y0198846D01*
X0029199Y0198700D01*
X0029128Y0198556D01*
X0029054Y0198414D01*
X0028976Y0198273D01*
X0028894Y0198135D01*
X0028809Y0197998D01*
X0028721Y0197864D01*
X0028629Y0197732D01*
X0028534Y0197602D01*
X0028436Y0197474D01*
X0028335Y0197349D01*
X0028231Y0197227D01*
X0028124Y0197107D01*
X0028014Y0196990D01*
X0027901Y0196875D01*
X0027785Y0196764D01*
X0027666Y0196655D01*
X0027545Y0196550D01*
X0027421Y0196447D01*
X0027295Y0196347D01*
X0027167Y0196251D01*
X0027036Y0196158D01*
X0026902Y0196068D01*
X0026767Y0195981D01*
X0026629Y0195898D01*
X0026490Y0195818D01*
X0026348Y0195742D01*
X0026205Y0195669D01*
X0026060Y0195600D01*
X0025913Y0195534D01*
X0025765Y0195472D01*
X0025615Y0195414D01*
X0025464Y0195359D01*
X0025311Y0195308D01*
X0025157Y0195261D01*
X0025002Y0195218D01*
X0024846Y0195179D01*
X0024690Y0195143D01*
X0024532Y0195112D01*
X0024374Y0195084D01*
X0024215Y0195060D01*
X0024055Y0195040D01*
X0023895Y0195024D01*
X0023735Y0195012D01*
X0023574Y0195004D01*
X0023413Y0195000D01*
X0023253Y0195000D01*
X0023092Y0195004D01*
X0022931Y0195012D01*
X0022771Y0195024D01*
X0022611Y0195040D01*
X0022451Y0195060D01*
X0022292Y0195084D01*
X0022134Y0195112D01*
X0021976Y0195143D01*
X0021820Y0195179D01*
X0021664Y0195218D01*
X0021509Y0195261D01*
X0021355Y0195308D01*
X0021202Y0195359D01*
X0021051Y0195414D01*
X0020901Y0195472D01*
X0020753Y0195534D01*
X0020606Y0195600D01*
X0020461Y0195669D01*
X0020318Y0195742D01*
X0020176Y0195818D01*
X0020037Y0195898D01*
X0019899Y0195981D01*
X0019764Y0196068D01*
X0019630Y0196158D01*
X0019499Y0196251D01*
X0019371Y0196347D01*
X0019245Y0196447D01*
X0019121Y0196550D01*
X0019000Y0196655D01*
X0018881Y0196764D01*
X0018765Y0196875D01*
X0018652Y0196990D01*
X0018542Y0197107D01*
X0018435Y0197227D01*
X0018331Y0197349D01*
X0018230Y0197474D01*
X0018132Y0197602D01*
X0018037Y0197732D01*
X0017945Y0197864D01*
X0017857Y0197998D01*
X0017772Y0198135D01*
X0017690Y0198273D01*
X0017612Y0198414D01*
X0017538Y0198556D01*
X0017467Y0198700D01*
X0017399Y0198846D01*
X0017336Y0198994D01*
X0017275Y0199143D01*
X0017219Y0199294D01*
X0017166Y0199446D01*
X0017117Y0199599D01*
X0017072Y0199753D01*
X0017031Y0199908D01*
X0016993Y0200065D01*
X0016960Y0200222D01*
X0016930Y0200380D01*
X0016904Y0200539D01*
X0016883Y0200698D01*
X0016865Y0200858D01*
X0016851Y0201018D01*
X0016841Y0201179D01*
X0016835Y0201339D01*
X0016833Y0201500D01*
X0050184Y0070476D02*
X0050186Y0070624D01*
X0050192Y0070772D01*
X0050202Y0070920D01*
X0050216Y0071067D01*
X0050234Y0071214D01*
X0050255Y0071360D01*
X0050281Y0071506D01*
X0050311Y0071651D01*
X0050344Y0071795D01*
X0050382Y0071938D01*
X0050423Y0072080D01*
X0050468Y0072221D01*
X0050516Y0072361D01*
X0050569Y0072500D01*
X0050625Y0072637D01*
X0050685Y0072772D01*
X0050748Y0072906D01*
X0050815Y0073038D01*
X0050886Y0073168D01*
X0050960Y0073296D01*
X0051037Y0073422D01*
X0051118Y0073546D01*
X0051202Y0073668D01*
X0051289Y0073787D01*
X0051380Y0073904D01*
X0051474Y0074019D01*
X0051570Y0074131D01*
X0051670Y0074241D01*
X0051772Y0074347D01*
X0051878Y0074451D01*
X0051986Y0074552D01*
X0052097Y0074650D01*
X0052210Y0074746D01*
X0052326Y0074838D01*
X0052444Y0074927D01*
X0052565Y0075012D01*
X0052688Y0075095D01*
X0052813Y0075174D01*
X0052940Y0075250D01*
X0053069Y0075322D01*
X0053200Y0075391D01*
X0053333Y0075456D01*
X0053468Y0075517D01*
X0053604Y0075575D01*
X0053741Y0075630D01*
X0053880Y0075680D01*
X0054021Y0075727D01*
X0054162Y0075770D01*
X0054305Y0075810D01*
X0054449Y0075845D01*
X0054593Y0075877D01*
X0054739Y0075904D01*
X0054885Y0075928D01*
X0055032Y0075948D01*
X0055179Y0075964D01*
X0055326Y0075976D01*
X0055474Y0075984D01*
X0055622Y0075988D01*
X0055770Y0075988D01*
X0055918Y0075984D01*
X0056066Y0075976D01*
X0056213Y0075964D01*
X0056360Y0075948D01*
X0056507Y0075928D01*
X0056653Y0075904D01*
X0056799Y0075877D01*
X0056943Y0075845D01*
X0057087Y0075810D01*
X0057230Y0075770D01*
X0057371Y0075727D01*
X0057512Y0075680D01*
X0057651Y0075630D01*
X0057788Y0075575D01*
X0057924Y0075517D01*
X0058059Y0075456D01*
X0058192Y0075391D01*
X0058323Y0075322D01*
X0058452Y0075250D01*
X0058579Y0075174D01*
X0058704Y0075095D01*
X0058827Y0075012D01*
X0058948Y0074927D01*
X0059066Y0074838D01*
X0059182Y0074746D01*
X0059295Y0074650D01*
X0059406Y0074552D01*
X0059514Y0074451D01*
X0059620Y0074347D01*
X0059722Y0074241D01*
X0059822Y0074131D01*
X0059918Y0074019D01*
X0060012Y0073904D01*
X0060103Y0073787D01*
X0060190Y0073668D01*
X0060274Y0073546D01*
X0060355Y0073422D01*
X0060432Y0073296D01*
X0060506Y0073168D01*
X0060577Y0073038D01*
X0060644Y0072906D01*
X0060707Y0072772D01*
X0060767Y0072637D01*
X0060823Y0072500D01*
X0060876Y0072361D01*
X0060924Y0072221D01*
X0060969Y0072080D01*
X0061010Y0071938D01*
X0061048Y0071795D01*
X0061081Y0071651D01*
X0061111Y0071506D01*
X0061137Y0071360D01*
X0061158Y0071214D01*
X0061176Y0071067D01*
X0061190Y0070920D01*
X0061200Y0070772D01*
X0061206Y0070624D01*
X0061208Y0070476D01*
X0061206Y0070328D01*
X0061200Y0070180D01*
X0061190Y0070032D01*
X0061176Y0069885D01*
X0061158Y0069738D01*
X0061137Y0069592D01*
X0061111Y0069446D01*
X0061081Y0069301D01*
X0061048Y0069157D01*
X0061010Y0069014D01*
X0060969Y0068872D01*
X0060924Y0068731D01*
X0060876Y0068591D01*
X0060823Y0068452D01*
X0060767Y0068315D01*
X0060707Y0068180D01*
X0060644Y0068046D01*
X0060577Y0067914D01*
X0060506Y0067784D01*
X0060432Y0067656D01*
X0060355Y0067530D01*
X0060274Y0067406D01*
X0060190Y0067284D01*
X0060103Y0067165D01*
X0060012Y0067048D01*
X0059918Y0066933D01*
X0059822Y0066821D01*
X0059722Y0066711D01*
X0059620Y0066605D01*
X0059514Y0066501D01*
X0059406Y0066400D01*
X0059295Y0066302D01*
X0059182Y0066206D01*
X0059066Y0066114D01*
X0058948Y0066025D01*
X0058827Y0065940D01*
X0058704Y0065857D01*
X0058579Y0065778D01*
X0058452Y0065702D01*
X0058323Y0065630D01*
X0058192Y0065561D01*
X0058059Y0065496D01*
X0057924Y0065435D01*
X0057788Y0065377D01*
X0057651Y0065322D01*
X0057512Y0065272D01*
X0057371Y0065225D01*
X0057230Y0065182D01*
X0057087Y0065142D01*
X0056943Y0065107D01*
X0056799Y0065075D01*
X0056653Y0065048D01*
X0056507Y0065024D01*
X0056360Y0065004D01*
X0056213Y0064988D01*
X0056066Y0064976D01*
X0055918Y0064968D01*
X0055770Y0064964D01*
X0055622Y0064964D01*
X0055474Y0064968D01*
X0055326Y0064976D01*
X0055179Y0064988D01*
X0055032Y0065004D01*
X0054885Y0065024D01*
X0054739Y0065048D01*
X0054593Y0065075D01*
X0054449Y0065107D01*
X0054305Y0065142D01*
X0054162Y0065182D01*
X0054021Y0065225D01*
X0053880Y0065272D01*
X0053741Y0065322D01*
X0053604Y0065377D01*
X0053468Y0065435D01*
X0053333Y0065496D01*
X0053200Y0065561D01*
X0053069Y0065630D01*
X0052940Y0065702D01*
X0052813Y0065778D01*
X0052688Y0065857D01*
X0052565Y0065940D01*
X0052444Y0066025D01*
X0052326Y0066114D01*
X0052210Y0066206D01*
X0052097Y0066302D01*
X0051986Y0066400D01*
X0051878Y0066501D01*
X0051772Y0066605D01*
X0051670Y0066711D01*
X0051570Y0066821D01*
X0051474Y0066933D01*
X0051380Y0067048D01*
X0051289Y0067165D01*
X0051202Y0067284D01*
X0051118Y0067406D01*
X0051037Y0067530D01*
X0050960Y0067656D01*
X0050886Y0067784D01*
X0050815Y0067914D01*
X0050748Y0068046D01*
X0050685Y0068180D01*
X0050625Y0068315D01*
X0050569Y0068452D01*
X0050516Y0068591D01*
X0050468Y0068731D01*
X0050423Y0068872D01*
X0050382Y0069014D01*
X0050344Y0069157D01*
X0050311Y0069301D01*
X0050281Y0069446D01*
X0050255Y0069592D01*
X0050234Y0069738D01*
X0050216Y0069885D01*
X0050202Y0070032D01*
X0050192Y0070180D01*
X0050186Y0070328D01*
X0050184Y0070476D01*
X0016833Y0021500D02*
X0016835Y0021661D01*
X0016841Y0021821D01*
X0016851Y0021982D01*
X0016865Y0022142D01*
X0016883Y0022302D01*
X0016904Y0022461D01*
X0016930Y0022620D01*
X0016960Y0022778D01*
X0016993Y0022935D01*
X0017031Y0023092D01*
X0017072Y0023247D01*
X0017117Y0023401D01*
X0017166Y0023554D01*
X0017219Y0023706D01*
X0017275Y0023857D01*
X0017336Y0024006D01*
X0017399Y0024154D01*
X0017467Y0024300D01*
X0017538Y0024444D01*
X0017612Y0024586D01*
X0017690Y0024727D01*
X0017772Y0024865D01*
X0017857Y0025002D01*
X0017945Y0025136D01*
X0018037Y0025268D01*
X0018132Y0025398D01*
X0018230Y0025526D01*
X0018331Y0025651D01*
X0018435Y0025773D01*
X0018542Y0025893D01*
X0018652Y0026010D01*
X0018765Y0026125D01*
X0018881Y0026236D01*
X0019000Y0026345D01*
X0019121Y0026450D01*
X0019245Y0026553D01*
X0019371Y0026653D01*
X0019499Y0026749D01*
X0019630Y0026842D01*
X0019764Y0026932D01*
X0019899Y0027019D01*
X0020037Y0027102D01*
X0020176Y0027182D01*
X0020318Y0027258D01*
X0020461Y0027331D01*
X0020606Y0027400D01*
X0020753Y0027466D01*
X0020901Y0027528D01*
X0021051Y0027586D01*
X0021202Y0027641D01*
X0021355Y0027692D01*
X0021509Y0027739D01*
X0021664Y0027782D01*
X0021820Y0027821D01*
X0021976Y0027857D01*
X0022134Y0027888D01*
X0022292Y0027916D01*
X0022451Y0027940D01*
X0022611Y0027960D01*
X0022771Y0027976D01*
X0022931Y0027988D01*
X0023092Y0027996D01*
X0023253Y0028000D01*
X0023413Y0028000D01*
X0023574Y0027996D01*
X0023735Y0027988D01*
X0023895Y0027976D01*
X0024055Y0027960D01*
X0024215Y0027940D01*
X0024374Y0027916D01*
X0024532Y0027888D01*
X0024690Y0027857D01*
X0024846Y0027821D01*
X0025002Y0027782D01*
X0025157Y0027739D01*
X0025311Y0027692D01*
X0025464Y0027641D01*
X0025615Y0027586D01*
X0025765Y0027528D01*
X0025913Y0027466D01*
X0026060Y0027400D01*
X0026205Y0027331D01*
X0026348Y0027258D01*
X0026490Y0027182D01*
X0026629Y0027102D01*
X0026767Y0027019D01*
X0026902Y0026932D01*
X0027036Y0026842D01*
X0027167Y0026749D01*
X0027295Y0026653D01*
X0027421Y0026553D01*
X0027545Y0026450D01*
X0027666Y0026345D01*
X0027785Y0026236D01*
X0027901Y0026125D01*
X0028014Y0026010D01*
X0028124Y0025893D01*
X0028231Y0025773D01*
X0028335Y0025651D01*
X0028436Y0025526D01*
X0028534Y0025398D01*
X0028629Y0025268D01*
X0028721Y0025136D01*
X0028809Y0025002D01*
X0028894Y0024865D01*
X0028976Y0024727D01*
X0029054Y0024586D01*
X0029128Y0024444D01*
X0029199Y0024300D01*
X0029267Y0024154D01*
X0029330Y0024006D01*
X0029391Y0023857D01*
X0029447Y0023706D01*
X0029500Y0023554D01*
X0029549Y0023401D01*
X0029594Y0023247D01*
X0029635Y0023092D01*
X0029673Y0022935D01*
X0029706Y0022778D01*
X0029736Y0022620D01*
X0029762Y0022461D01*
X0029783Y0022302D01*
X0029801Y0022142D01*
X0029815Y0021982D01*
X0029825Y0021821D01*
X0029831Y0021661D01*
X0029833Y0021500D01*
X0029831Y0021339D01*
X0029825Y0021179D01*
X0029815Y0021018D01*
X0029801Y0020858D01*
X0029783Y0020698D01*
X0029762Y0020539D01*
X0029736Y0020380D01*
X0029706Y0020222D01*
X0029673Y0020065D01*
X0029635Y0019908D01*
X0029594Y0019753D01*
X0029549Y0019599D01*
X0029500Y0019446D01*
X0029447Y0019294D01*
X0029391Y0019143D01*
X0029330Y0018994D01*
X0029267Y0018846D01*
X0029199Y0018700D01*
X0029128Y0018556D01*
X0029054Y0018414D01*
X0028976Y0018273D01*
X0028894Y0018135D01*
X0028809Y0017998D01*
X0028721Y0017864D01*
X0028629Y0017732D01*
X0028534Y0017602D01*
X0028436Y0017474D01*
X0028335Y0017349D01*
X0028231Y0017227D01*
X0028124Y0017107D01*
X0028014Y0016990D01*
X0027901Y0016875D01*
X0027785Y0016764D01*
X0027666Y0016655D01*
X0027545Y0016550D01*
X0027421Y0016447D01*
X0027295Y0016347D01*
X0027167Y0016251D01*
X0027036Y0016158D01*
X0026902Y0016068D01*
X0026767Y0015981D01*
X0026629Y0015898D01*
X0026490Y0015818D01*
X0026348Y0015742D01*
X0026205Y0015669D01*
X0026060Y0015600D01*
X0025913Y0015534D01*
X0025765Y0015472D01*
X0025615Y0015414D01*
X0025464Y0015359D01*
X0025311Y0015308D01*
X0025157Y0015261D01*
X0025002Y0015218D01*
X0024846Y0015179D01*
X0024690Y0015143D01*
X0024532Y0015112D01*
X0024374Y0015084D01*
X0024215Y0015060D01*
X0024055Y0015040D01*
X0023895Y0015024D01*
X0023735Y0015012D01*
X0023574Y0015004D01*
X0023413Y0015000D01*
X0023253Y0015000D01*
X0023092Y0015004D01*
X0022931Y0015012D01*
X0022771Y0015024D01*
X0022611Y0015040D01*
X0022451Y0015060D01*
X0022292Y0015084D01*
X0022134Y0015112D01*
X0021976Y0015143D01*
X0021820Y0015179D01*
X0021664Y0015218D01*
X0021509Y0015261D01*
X0021355Y0015308D01*
X0021202Y0015359D01*
X0021051Y0015414D01*
X0020901Y0015472D01*
X0020753Y0015534D01*
X0020606Y0015600D01*
X0020461Y0015669D01*
X0020318Y0015742D01*
X0020176Y0015818D01*
X0020037Y0015898D01*
X0019899Y0015981D01*
X0019764Y0016068D01*
X0019630Y0016158D01*
X0019499Y0016251D01*
X0019371Y0016347D01*
X0019245Y0016447D01*
X0019121Y0016550D01*
X0019000Y0016655D01*
X0018881Y0016764D01*
X0018765Y0016875D01*
X0018652Y0016990D01*
X0018542Y0017107D01*
X0018435Y0017227D01*
X0018331Y0017349D01*
X0018230Y0017474D01*
X0018132Y0017602D01*
X0018037Y0017732D01*
X0017945Y0017864D01*
X0017857Y0017998D01*
X0017772Y0018135D01*
X0017690Y0018273D01*
X0017612Y0018414D01*
X0017538Y0018556D01*
X0017467Y0018700D01*
X0017399Y0018846D01*
X0017336Y0018994D01*
X0017275Y0019143D01*
X0017219Y0019294D01*
X0017166Y0019446D01*
X0017117Y0019599D01*
X0017072Y0019753D01*
X0017031Y0019908D01*
X0016993Y0020065D01*
X0016960Y0020222D01*
X0016930Y0020380D01*
X0016904Y0020539D01*
X0016883Y0020698D01*
X0016865Y0020858D01*
X0016851Y0021018D01*
X0016841Y0021179D01*
X0016835Y0021339D01*
X0016833Y0021500D01*
D17*
X0166333Y0038000D02*
X0190333Y0038000D01*
X0190540Y0038003D01*
X0190747Y0038010D01*
X0190953Y0038023D01*
X0191160Y0038040D01*
X0191365Y0038063D01*
X0191571Y0038091D01*
X0191775Y0038123D01*
X0191979Y0038161D01*
X0192181Y0038203D01*
X0192383Y0038251D01*
X0192583Y0038303D01*
X0192782Y0038360D01*
X0192979Y0038422D01*
X0193175Y0038489D01*
X0193369Y0038561D01*
X0193562Y0038637D01*
X0193752Y0038718D01*
X0193941Y0038804D01*
X0194127Y0038894D01*
X0194311Y0038988D01*
X0194493Y0039088D01*
X0194672Y0039191D01*
X0194849Y0039299D01*
X0195023Y0039411D01*
X0195194Y0039527D01*
X0195363Y0039648D01*
X0195528Y0039772D01*
X0195690Y0039901D01*
X0195849Y0040033D01*
X0196005Y0040169D01*
X0196158Y0040309D01*
X0196307Y0040453D01*
X0196452Y0040600D01*
X0196594Y0040751D01*
X0196732Y0040905D01*
X0196867Y0041063D01*
X0196997Y0041223D01*
X0197123Y0041387D01*
X0197246Y0041554D01*
X0197364Y0041724D01*
X0197479Y0041897D01*
X0197589Y0042072D01*
X0197694Y0042250D01*
X0197796Y0042431D01*
X0197892Y0042613D01*
X0197985Y0042799D01*
X0198073Y0042986D01*
X0198156Y0043176D01*
X0198235Y0043367D01*
X0198309Y0043560D01*
X0198378Y0043756D01*
X0198442Y0043952D01*
X0198502Y0044150D01*
X0198557Y0044350D01*
X0198607Y0044551D01*
X0198652Y0044753D01*
X0198692Y0044956D01*
X0198727Y0045160D01*
X0198757Y0045365D01*
X0198782Y0045570D01*
X0198802Y0045776D01*
X0198817Y0045983D01*
X0198827Y0046190D01*
X0198832Y0046397D01*
X0198832Y0046603D01*
X0198827Y0046810D01*
X0198817Y0047017D01*
X0198802Y0047224D01*
X0198782Y0047430D01*
X0198757Y0047635D01*
X0198727Y0047840D01*
X0198692Y0048044D01*
X0198652Y0048247D01*
X0198607Y0048449D01*
X0198557Y0048650D01*
X0198502Y0048850D01*
X0198442Y0049048D01*
X0198378Y0049244D01*
X0198309Y0049440D01*
X0198235Y0049633D01*
X0198156Y0049824D01*
X0198073Y0050014D01*
X0197985Y0050201D01*
X0197892Y0050387D01*
X0197796Y0050569D01*
X0197694Y0050750D01*
X0197589Y0050928D01*
X0197479Y0051103D01*
X0197364Y0051276D01*
X0197246Y0051446D01*
X0197123Y0051613D01*
X0196997Y0051777D01*
X0196867Y0051937D01*
X0196732Y0052095D01*
X0196594Y0052249D01*
X0196452Y0052400D01*
X0196307Y0052547D01*
X0196158Y0052691D01*
X0196005Y0052831D01*
X0195849Y0052967D01*
X0195690Y0053099D01*
X0195528Y0053228D01*
X0195363Y0053352D01*
X0195194Y0053473D01*
X0195023Y0053589D01*
X0194849Y0053701D01*
X0194672Y0053809D01*
X0194493Y0053912D01*
X0194311Y0054012D01*
X0194127Y0054106D01*
X0193941Y0054196D01*
X0193752Y0054282D01*
X0193562Y0054363D01*
X0193369Y0054439D01*
X0193175Y0054511D01*
X0192979Y0054578D01*
X0192782Y0054640D01*
X0192583Y0054697D01*
X0192383Y0054749D01*
X0192181Y0054797D01*
X0191979Y0054839D01*
X0191775Y0054877D01*
X0191571Y0054909D01*
X0191365Y0054937D01*
X0191160Y0054960D01*
X0190953Y0054977D01*
X0190747Y0054990D01*
X0190540Y0054997D01*
X0190333Y0055000D01*
X0166333Y0055000D01*
X0166126Y0054997D01*
X0165919Y0054990D01*
X0165713Y0054977D01*
X0165506Y0054960D01*
X0165301Y0054937D01*
X0165095Y0054909D01*
X0164891Y0054877D01*
X0164687Y0054839D01*
X0164485Y0054797D01*
X0164283Y0054749D01*
X0164083Y0054697D01*
X0163884Y0054640D01*
X0163687Y0054578D01*
X0163491Y0054511D01*
X0163297Y0054439D01*
X0163104Y0054363D01*
X0162914Y0054282D01*
X0162725Y0054196D01*
X0162539Y0054106D01*
X0162355Y0054012D01*
X0162173Y0053912D01*
X0161994Y0053809D01*
X0161817Y0053701D01*
X0161643Y0053589D01*
X0161472Y0053473D01*
X0161303Y0053352D01*
X0161138Y0053228D01*
X0160976Y0053099D01*
X0160817Y0052967D01*
X0160661Y0052831D01*
X0160508Y0052691D01*
X0160359Y0052547D01*
X0160214Y0052400D01*
X0160072Y0052249D01*
X0159934Y0052095D01*
X0159799Y0051937D01*
X0159669Y0051777D01*
X0159543Y0051613D01*
X0159420Y0051446D01*
X0159302Y0051276D01*
X0159187Y0051103D01*
X0159077Y0050928D01*
X0158972Y0050750D01*
X0158870Y0050569D01*
X0158774Y0050387D01*
X0158681Y0050201D01*
X0158593Y0050014D01*
X0158510Y0049824D01*
X0158431Y0049633D01*
X0158357Y0049440D01*
X0158288Y0049244D01*
X0158224Y0049048D01*
X0158164Y0048850D01*
X0158109Y0048650D01*
X0158059Y0048449D01*
X0158014Y0048247D01*
X0157974Y0048044D01*
X0157939Y0047840D01*
X0157909Y0047635D01*
X0157884Y0047430D01*
X0157864Y0047224D01*
X0157849Y0047017D01*
X0157839Y0046810D01*
X0157834Y0046603D01*
X0157834Y0046397D01*
X0157839Y0046190D01*
X0157849Y0045983D01*
X0157864Y0045776D01*
X0157884Y0045570D01*
X0157909Y0045365D01*
X0157939Y0045160D01*
X0157974Y0044956D01*
X0158014Y0044753D01*
X0158059Y0044551D01*
X0158109Y0044350D01*
X0158164Y0044150D01*
X0158224Y0043952D01*
X0158288Y0043756D01*
X0158357Y0043560D01*
X0158431Y0043367D01*
X0158510Y0043176D01*
X0158593Y0042986D01*
X0158681Y0042799D01*
X0158774Y0042613D01*
X0158870Y0042431D01*
X0158972Y0042250D01*
X0159077Y0042072D01*
X0159187Y0041897D01*
X0159302Y0041724D01*
X0159420Y0041554D01*
X0159543Y0041387D01*
X0159669Y0041223D01*
X0159799Y0041063D01*
X0159934Y0040905D01*
X0160072Y0040751D01*
X0160214Y0040600D01*
X0160359Y0040453D01*
X0160508Y0040309D01*
X0160661Y0040169D01*
X0160817Y0040033D01*
X0160976Y0039901D01*
X0161138Y0039772D01*
X0161303Y0039648D01*
X0161472Y0039527D01*
X0161643Y0039411D01*
X0161817Y0039299D01*
X0161994Y0039191D01*
X0162173Y0039088D01*
X0162355Y0038988D01*
X0162539Y0038894D01*
X0162725Y0038804D01*
X0162914Y0038718D01*
X0163104Y0038637D01*
X0163297Y0038561D01*
X0163491Y0038489D01*
X0163687Y0038422D01*
X0163884Y0038360D01*
X0164083Y0038303D01*
X0164283Y0038251D01*
X0164485Y0038203D01*
X0164687Y0038161D01*
X0164891Y0038123D01*
X0165095Y0038091D01*
X0165301Y0038063D01*
X0165506Y0038040D01*
X0165713Y0038023D01*
X0165919Y0038010D01*
X0166126Y0038003D01*
X0166333Y0038000D01*
D18*
X0174375Y0035003D02*
X0174375Y0032001D01*
X0175126Y0031250D01*
X0176627Y0031250D01*
X0177378Y0032001D01*
X0177378Y0035003D01*
X0176627Y0035754D01*
X0175126Y0035754D01*
X0174375Y0035003D01*
X0175877Y0032751D02*
X0177378Y0031250D01*
X0178979Y0031250D02*
X0181982Y0031250D01*
X0180481Y0031250D02*
X0180481Y0035754D01*
X0178979Y0034253D01*
X0228283Y0039701D02*
X0229034Y0038950D01*
X0229785Y0038950D01*
X0230535Y0039701D01*
X0230535Y0043454D01*
X0229785Y0043454D02*
X0231286Y0043454D01*
X0232887Y0043454D02*
X0235139Y0043454D01*
X0235890Y0042703D01*
X0235890Y0041202D01*
X0235139Y0040451D01*
X0232887Y0040451D01*
X0232887Y0038950D02*
X0232887Y0043454D01*
X0237491Y0041202D02*
X0240494Y0041202D01*
X0239743Y0038950D02*
X0239743Y0043454D01*
X0237491Y0041202D01*
X0303283Y0039701D02*
X0304034Y0038950D01*
X0304785Y0038950D01*
X0305535Y0039701D01*
X0305535Y0043454D01*
X0304785Y0043454D02*
X0306286Y0043454D01*
X0307887Y0043454D02*
X0307887Y0038950D01*
X0307887Y0040451D02*
X0310139Y0040451D01*
X0310890Y0041202D01*
X0310890Y0042703D01*
X0310139Y0043454D01*
X0307887Y0043454D01*
X0312491Y0042703D02*
X0313242Y0043454D01*
X0314743Y0043454D01*
X0315494Y0042703D01*
X0315494Y0041953D01*
X0314743Y0041202D01*
X0315494Y0040451D01*
X0315494Y0039701D01*
X0314743Y0038950D01*
X0313242Y0038950D01*
X0312491Y0039701D01*
X0313992Y0041202D02*
X0314743Y0041202D01*
X0325126Y0051750D02*
X0324375Y0052501D01*
X0325126Y0051750D02*
X0326627Y0051750D01*
X0327378Y0052501D01*
X0327378Y0053251D01*
X0326627Y0054002D01*
X0325126Y0054002D01*
X0324375Y0054753D01*
X0324375Y0055503D01*
X0325126Y0056254D01*
X0326627Y0056254D01*
X0327378Y0055503D01*
X0328979Y0054753D02*
X0330481Y0056254D01*
X0330481Y0051750D01*
X0331982Y0051750D02*
X0328979Y0051750D01*
X0284783Y0132402D02*
X0284783Y0134203D01*
X0284783Y0133302D02*
X0282081Y0133302D01*
X0282982Y0132402D01*
X0282531Y0135348D02*
X0282081Y0135798D01*
X0282081Y0136699D01*
X0282531Y0137150D01*
X0284333Y0135348D01*
X0284783Y0135798D01*
X0284783Y0136699D01*
X0284333Y0137150D01*
X0282531Y0137150D01*
X0282081Y0138295D02*
X0284783Y0138295D01*
X0283883Y0138295D02*
X0282982Y0139646D01*
X0283883Y0138295D02*
X0284783Y0139646D01*
X0284333Y0135348D02*
X0282531Y0135348D01*
X0275583Y0136052D02*
X0274683Y0135151D01*
X0274683Y0135601D02*
X0274683Y0134250D01*
X0275583Y0134250D02*
X0272881Y0134250D01*
X0272881Y0135601D01*
X0273331Y0136052D01*
X0274232Y0136052D01*
X0274683Y0135601D01*
X0275583Y0137197D02*
X0275583Y0138998D01*
X0275583Y0138097D02*
X0272881Y0138097D01*
X0273782Y0137197D01*
X0285190Y0181050D02*
X0285190Y0183752D01*
X0286541Y0183752D01*
X0286992Y0183302D01*
X0286992Y0182401D01*
X0286541Y0181951D01*
X0285190Y0181951D01*
X0286091Y0181951D02*
X0286992Y0181050D01*
X0288137Y0181500D02*
X0288587Y0181050D01*
X0289488Y0181050D01*
X0289938Y0181500D01*
X0289938Y0181951D01*
X0289488Y0182401D01*
X0289038Y0182401D01*
X0289488Y0182401D02*
X0289938Y0182852D01*
X0289938Y0183302D01*
X0289488Y0183752D01*
X0288587Y0183752D01*
X0288137Y0183302D01*
X0288041Y0190050D02*
X0287141Y0190050D01*
X0286690Y0190500D01*
X0288492Y0192302D01*
X0288492Y0190500D01*
X0288041Y0190050D01*
X0286690Y0190500D02*
X0286690Y0192302D01*
X0287141Y0192752D01*
X0288041Y0192752D01*
X0288492Y0192302D01*
X0289637Y0192302D02*
X0291438Y0190500D01*
X0290538Y0190500D02*
X0290538Y0192302D01*
X0291438Y0192302D02*
X0289637Y0190500D01*
X0289637Y0191401D02*
X0291438Y0191401D01*
X0285545Y0192302D02*
X0283744Y0190500D01*
X0283744Y0190050D01*
X0282148Y0190050D02*
X0282148Y0192752D01*
X0280797Y0191401D01*
X0282599Y0191401D01*
X0283744Y0192752D02*
X0285545Y0192752D01*
X0285545Y0192302D01*
X0375085Y0148754D02*
X0376586Y0148754D01*
X0375835Y0148754D02*
X0375835Y0145001D01*
X0375085Y0144250D01*
X0374334Y0144250D01*
X0373583Y0145001D01*
X0378187Y0145751D02*
X0380439Y0145751D01*
X0381190Y0146502D01*
X0381190Y0148003D01*
X0380439Y0148754D01*
X0378187Y0148754D01*
X0378187Y0144250D01*
X0382791Y0145001D02*
X0383542Y0144250D01*
X0385043Y0144250D01*
X0385794Y0145001D01*
X0385794Y0146502D01*
X0385043Y0147253D01*
X0384292Y0147253D01*
X0382791Y0146502D01*
X0382791Y0148754D01*
X0385794Y0148754D01*
X0105494Y0042703D02*
X0104743Y0043454D01*
X0103242Y0043454D01*
X0102491Y0042703D01*
X0100890Y0042703D02*
X0100890Y0041202D01*
X0100139Y0040451D01*
X0097887Y0040451D01*
X0097887Y0038950D02*
X0097887Y0043454D01*
X0100139Y0043454D01*
X0100890Y0042703D01*
X0102491Y0038950D02*
X0105494Y0041953D01*
X0105494Y0042703D01*
X0105494Y0038950D02*
X0102491Y0038950D01*
X0095535Y0039701D02*
X0095535Y0043454D01*
X0094785Y0043454D02*
X0096286Y0043454D01*
X0095535Y0039701D02*
X0094785Y0038950D01*
X0094034Y0038950D01*
X0093283Y0039701D01*
X0050494Y0039701D02*
X0050494Y0040451D01*
X0049743Y0041202D01*
X0047491Y0041202D01*
X0047491Y0039701D01*
X0048242Y0038950D01*
X0049743Y0038950D01*
X0050494Y0039701D01*
X0048992Y0042703D02*
X0047491Y0041202D01*
X0045890Y0041202D02*
X0045139Y0040451D01*
X0042887Y0040451D01*
X0042887Y0038950D02*
X0042887Y0043454D01*
X0045139Y0043454D01*
X0045890Y0042703D01*
X0045890Y0041202D01*
X0048992Y0042703D02*
X0050494Y0043454D01*
X0041286Y0043454D02*
X0039785Y0043454D01*
X0040535Y0043454D02*
X0040535Y0039701D01*
X0039785Y0038950D01*
X0039034Y0038950D01*
X0038283Y0039701D01*
X0032994Y0047050D02*
X0029991Y0047050D01*
X0031492Y0047050D02*
X0031492Y0051554D01*
X0029991Y0050053D01*
X0028390Y0050803D02*
X0027639Y0051554D01*
X0025387Y0051554D01*
X0025387Y0047050D01*
X0025387Y0048551D02*
X0027639Y0048551D01*
X0028390Y0049302D01*
X0028390Y0050803D01*
X0023786Y0051554D02*
X0022285Y0051554D01*
X0023035Y0051554D02*
X0023035Y0047801D01*
X0022285Y0047050D01*
X0021534Y0047050D01*
X0020783Y0047801D01*
X0023083Y0169250D02*
X0023083Y0173754D01*
X0025335Y0173754D01*
X0026086Y0173003D01*
X0026086Y0171502D01*
X0025335Y0170751D01*
X0023083Y0170751D01*
X0024585Y0170751D02*
X0026086Y0169250D01*
X0027687Y0169250D02*
X0030690Y0172253D01*
X0030690Y0173003D01*
X0029939Y0173754D01*
X0028438Y0173754D01*
X0027687Y0173003D01*
X0027687Y0169250D02*
X0030690Y0169250D01*
M02*
