%
M48
M72
T01C0.0160
T02C0.0160
T03C0.0160
T04C0.0160
T05C0.0160
T06C0.0160
T07C0.0160
%
T01
X13833Y4650
X14833Y4650
X20833Y4650
X21833Y4650
X16833Y12650
X15833Y12650
T02
X17833Y13650
X18833Y12650
X19833Y14650
X16833Y15650
X16833Y16650
X16833Y17650
X21833Y17650
X23333Y16650
X24833Y15650
X24833Y14650
X24833Y13650
X25833Y12650
X29833Y11150
X33833Y11150
X29833Y6650
X23333Y7650
X23333Y10150
X16833Y9150
X13833Y9150
X8833Y6650
X7333Y9150
X8833Y20150
X21833Y20150
T03
X21833Y10650
X20833Y10650
X19833Y10650
X18833Y10650
X17833Y10650
X16833Y10650
X15833Y10650
X14833Y10650
X13833Y10650
X12833Y10650
X11833Y10650
X10833Y10650
X9833Y10650
X8833Y10650
X7333Y10650
X4333Y10650
X8833Y7650
X9833Y7650
X10833Y7650
X11833Y7650
X12833Y7650
X13833Y7650
X14833Y7650
X15833Y7650
X16833Y7650
X17833Y7650
X18833Y7650
X19833Y7650
X20833Y7650
X21833Y7650
X18783Y4650
X16883Y4650
X2333Y14150
X2333Y15150
X2333Y16150
T04
X26833Y19150
X30833Y19150
X28333Y15650
X28333Y11650
T05
X37833Y11150
X38833Y11150
X38833Y10150
X37833Y10150
X37833Y9150
X38833Y9150
X38833Y8150
X37833Y8150
X35723Y5430
X33943Y5430
X31833Y3150
X30833Y3150
X28333Y3150
X27333Y3150
X26333Y3150
X25333Y3150
X24333Y3150
X23333Y3150
X33943Y2870
X35723Y2870
X37833Y12150
X38833Y12150
X22735Y19252
X21735Y19252
X20735Y19252
X19735Y19252
X18735Y19252
X17735Y19252
X16735Y19252
X15735Y19252
X14735Y19252
X13735Y19252
X12735Y19252
X11735Y19252
X10735Y19252
X9735Y19252
X8735Y19252
X7735Y19252
X2833Y8150
X2833Y7150
X2833Y6150
X4333Y3150
X5333Y3150
X6333Y3150
X7333Y3150
X9833Y3150
X10833Y3150
X11833Y3150
X12833Y3150
T06
X5570Y7048
X5570Y19252
X35097Y19252
X35097Y7048
T07
X2333Y2150
X2333Y20150
X38833Y20150
X38833Y2150
M30
