G75*
%MOIN*%
%OFA0B0*%
%FSLAX25Y25*%
%IPPOS*%
%LPD*%
%AMOC8*
5,1,8,0,0,1.08239X$1,22.5*
%
%ADD10C,0.05200*%
%ADD11R,0.07400X0.07400*%
%ADD12C,0.07400*%
%ADD13C,0.05200*%
%ADD14C,0.06500*%
%ADD15OC8,0.07400*%
%ADD16C,0.06000*%
%ADD17C,0.02400*%
%ADD18C,0.07000*%
%ADD19R,0.04800X0.04800*%
%ADD20C,0.03200*%
D10*
X0088333Y0073900D02*
X0088333Y0079100D01*
X0098333Y0079100D02*
X0098333Y0073900D01*
X0108333Y0073900D02*
X0108333Y0079100D01*
X0118333Y0079100D02*
X0118333Y0073900D01*
X0128333Y0073900D02*
X0128333Y0079100D01*
X0138333Y0079100D02*
X0138333Y0073900D01*
X0148333Y0073900D02*
X0148333Y0079100D01*
X0158333Y0079100D02*
X0158333Y0073900D01*
X0168333Y0073900D02*
X0168333Y0079100D01*
X0178333Y0079100D02*
X0178333Y0073900D01*
X0188333Y0073900D02*
X0188333Y0079100D01*
X0198333Y0079100D02*
X0198333Y0073900D01*
X0208333Y0073900D02*
X0208333Y0079100D01*
X0218333Y0079100D02*
X0218333Y0073900D01*
X0218333Y0103900D02*
X0218333Y0109100D01*
X0208333Y0109100D02*
X0208333Y0103900D01*
X0198333Y0103900D02*
X0198333Y0109100D01*
X0188333Y0109100D02*
X0188333Y0103900D01*
X0178333Y0103900D02*
X0178333Y0109100D01*
X0168333Y0109100D02*
X0168333Y0103900D01*
X0158333Y0103900D02*
X0158333Y0109100D01*
X0148333Y0109100D02*
X0148333Y0103900D01*
X0138333Y0103900D02*
X0138333Y0109100D01*
X0128333Y0109100D02*
X0128333Y0103900D01*
X0118333Y0103900D02*
X0118333Y0109100D01*
X0108333Y0109100D02*
X0108333Y0103900D01*
X0098333Y0103900D02*
X0098333Y0109100D01*
X0088333Y0109100D02*
X0088333Y0103900D01*
X0025933Y0141500D02*
X0020733Y0141500D01*
X0020733Y0151500D02*
X0025933Y0151500D01*
X0025933Y0161500D02*
X0020733Y0161500D01*
D11*
X0077349Y0192524D03*
D12*
X0087349Y0192524D03*
X0097349Y0192524D03*
X0107349Y0192524D03*
X0117349Y0192524D03*
X0127349Y0192524D03*
X0137349Y0192524D03*
X0147349Y0192524D03*
X0157349Y0192524D03*
X0167349Y0192524D03*
X0177349Y0192524D03*
X0187349Y0192524D03*
X0197349Y0192524D03*
X0207349Y0192524D03*
X0217349Y0192524D03*
X0227349Y0192524D03*
X0268333Y0191500D03*
X0308333Y0191500D03*
X0283333Y0156500D03*
X0283333Y0116500D03*
X0339433Y0054300D03*
X0357233Y0054300D03*
X0357233Y0028700D03*
X0339433Y0028700D03*
D13*
X0187833Y0046500D03*
X0168833Y0046500D03*
D14*
X0148333Y0046500D03*
X0138333Y0046500D03*
X0208333Y0046500D03*
X0218333Y0046500D03*
X0168333Y0126500D03*
X0158333Y0126500D03*
D15*
X0378333Y0121500D03*
X0388333Y0121500D03*
X0388333Y0111500D03*
X0378333Y0111500D03*
X0378333Y0101500D03*
X0388333Y0101500D03*
X0388333Y0091500D03*
X0378333Y0091500D03*
X0378333Y0081500D03*
X0388333Y0081500D03*
D16*
X0043333Y0034500D02*
X0043333Y0028500D01*
X0053333Y0028500D02*
X0053333Y0034500D01*
X0063333Y0034500D02*
X0063333Y0028500D01*
X0073333Y0028500D02*
X0073333Y0034500D01*
X0098333Y0034500D02*
X0098333Y0028500D01*
X0108333Y0028500D02*
X0108333Y0034500D01*
X0118333Y0034500D02*
X0118333Y0028500D01*
X0128333Y0028500D02*
X0128333Y0034500D01*
X0031333Y0061500D02*
X0025333Y0061500D01*
X0025333Y0071500D02*
X0031333Y0071500D01*
X0031333Y0081500D02*
X0025333Y0081500D01*
X0233333Y0034500D02*
X0233333Y0028500D01*
X0243333Y0028500D02*
X0243333Y0034500D01*
X0253333Y0034500D02*
X0253333Y0028500D01*
X0263333Y0028500D02*
X0263333Y0034500D01*
X0273333Y0034500D02*
X0273333Y0028500D01*
X0283333Y0028500D02*
X0283333Y0034500D01*
X0308333Y0034500D02*
X0308333Y0028500D01*
X0318333Y0028500D02*
X0318333Y0034500D01*
D17*
X0318333Y0031500D02*
X0318333Y0016500D01*
X0358333Y0016500D01*
X0358333Y0026500D01*
X0358333Y0016500D02*
X0398333Y0071500D01*
X0398333Y0081500D01*
X0388333Y0081500D01*
X0388333Y0091500D01*
X0388333Y0101500D01*
X0388333Y0111500D01*
X0388333Y0121500D02*
X0388333Y0141500D01*
X0333333Y0141500D01*
X0318333Y0156500D01*
X0283333Y0156500D01*
X0248333Y0156500D01*
X0248333Y0176500D01*
X0218333Y0186500D01*
X0218333Y0201500D01*
X0208333Y0191500D02*
X0208333Y0106500D01*
X0198333Y0106500D02*
X0198333Y0146500D01*
X0198333Y0191500D01*
X0188333Y0191500D02*
X0188333Y0126500D01*
X0188333Y0106500D01*
X0178333Y0106500D02*
X0178333Y0136500D01*
X0178333Y0191500D01*
X0168333Y0176500D02*
X0138333Y0176500D01*
X0128333Y0181500D01*
X0128333Y0191500D01*
X0118333Y0196500D02*
X0118333Y0211500D01*
X0078333Y0211500D01*
X0078333Y0196500D01*
X0088333Y0196500D02*
X0088333Y0201500D01*
X0088333Y0191500D02*
X0088333Y0166500D01*
X0083333Y0161500D01*
X0023333Y0161500D01*
X0023333Y0151500D02*
X0083333Y0151500D01*
X0098333Y0166500D01*
X0098333Y0191500D01*
X0108333Y0191500D02*
X0108333Y0181500D01*
X0138333Y0166500D01*
X0168333Y0166500D01*
X0168333Y0156500D02*
X0168333Y0126500D01*
X0168333Y0106500D01*
X0168333Y0091500D01*
X0283333Y0091500D01*
X0283333Y0031500D01*
X0308333Y0031500D01*
X0328333Y0031500D02*
X0328333Y0066500D01*
X0298333Y0066500D01*
X0298333Y0111500D01*
X0288333Y0111500D01*
X0283333Y0116500D01*
X0303333Y0126500D02*
X0328333Y0081500D01*
X0378333Y0081500D01*
X0378333Y0091500D02*
X0333333Y0091500D01*
X0308333Y0136500D01*
X0248333Y0136500D01*
X0258333Y0126500D02*
X0303333Y0126500D01*
X0313333Y0146500D02*
X0328333Y0131500D01*
X0378333Y0131500D01*
X0378333Y0121500D01*
X0378333Y0101500D02*
X0338333Y0101500D01*
X0338333Y0111500D01*
X0313333Y0146500D02*
X0248333Y0146500D01*
X0233333Y0166500D02*
X0233333Y0101500D01*
X0218333Y0106500D02*
X0218333Y0176500D01*
X0228333Y0191500D02*
X0268333Y0191500D01*
X0308333Y0191500D02*
X0333333Y0161500D01*
X0398333Y0161500D01*
X0398333Y0081500D01*
X0338333Y0031500D02*
X0328333Y0031500D01*
X0318333Y0016500D02*
X0233333Y0016500D01*
X0233333Y0031500D01*
X0218333Y0046500D01*
X0208333Y0046500D02*
X0178333Y0046500D01*
X0178333Y0076500D01*
X0168333Y0076500D02*
X0168333Y0046500D01*
X0148333Y0046500D01*
X0148333Y0056500D02*
X0138333Y0046500D01*
X0128333Y0031500D01*
X0128333Y0016500D01*
X0073333Y0016500D01*
X0073333Y0031500D01*
X0063333Y0031500D02*
X0063333Y0046500D01*
X0093333Y0046500D01*
X0108333Y0066500D01*
X0108333Y0076500D01*
X0118333Y0076500D02*
X0118333Y0066500D01*
X0113333Y0056500D01*
X0098333Y0031500D01*
X0108333Y0031500D02*
X0123333Y0056500D01*
X0128333Y0066500D01*
X0128333Y0076500D01*
X0138333Y0076500D02*
X0138333Y0066500D01*
X0133333Y0056500D01*
X0118333Y0031500D01*
X0128333Y0016500D02*
X0233333Y0016500D01*
X0233333Y0031500D02*
X0243333Y0031500D01*
X0253333Y0031500D02*
X0253333Y0056500D01*
X0188333Y0056500D01*
X0188333Y0071500D01*
X0198333Y0071500D02*
X0198333Y0061500D01*
X0263333Y0061500D01*
X0263333Y0031500D01*
X0273333Y0031500D02*
X0273333Y0066500D01*
X0208333Y0066500D01*
X0208333Y0076500D01*
X0218333Y0076500D02*
X0233333Y0076500D01*
X0158333Y0076500D02*
X0158333Y0056500D01*
X0148333Y0056500D01*
X0148333Y0076500D02*
X0148333Y0086500D01*
X0143333Y0086500D01*
X0138333Y0091500D01*
X0073333Y0091500D01*
X0073333Y0056500D01*
X0043333Y0056500D01*
X0043333Y0031500D01*
X0053333Y0031500D02*
X0053333Y0051500D01*
X0088333Y0051500D01*
X0098333Y0066500D01*
X0098333Y0071500D01*
X0088333Y0076500D02*
X0088333Y0066500D01*
X0058333Y0091500D02*
X0058333Y0116500D01*
X0098333Y0116500D01*
X0098333Y0106500D01*
X0058333Y0091500D02*
X0038333Y0071500D01*
X0028333Y0071500D01*
X0028333Y0061500D02*
X0013333Y0061500D01*
X0013333Y0131500D01*
X0013333Y0176500D01*
X0028333Y0176500D01*
X0038333Y0186500D01*
X0038333Y0211500D01*
X0078333Y0211500D01*
X0023333Y0141500D02*
X0023333Y0131500D01*
X0158333Y0131500D01*
X0158333Y0126500D01*
X0148333Y0106500D01*
X0148333Y0096500D01*
X0158333Y0086500D01*
X0158333Y0081500D01*
X0023333Y0131500D02*
X0013333Y0131500D01*
D18*
X0073333Y0091500D03*
X0088333Y0066500D03*
X0138333Y0091500D03*
X0168333Y0091500D03*
X0188333Y0126500D03*
X0178333Y0136500D03*
X0198333Y0146500D03*
X0168333Y0156500D03*
X0168333Y0166500D03*
X0168333Y0176500D03*
X0218333Y0176500D03*
X0233333Y0166500D03*
X0248333Y0156500D03*
X0248333Y0146500D03*
X0248333Y0136500D03*
X0258333Y0126500D03*
X0298333Y0111500D03*
X0338333Y0111500D03*
X0298333Y0066500D03*
X0233333Y0076500D03*
X0233333Y0101500D03*
X0218333Y0201500D03*
X0088333Y0201500D03*
D19*
X0073333Y0106500D03*
X0043333Y0106500D03*
D20*
X0028333Y0106500D01*
X0028333Y0081500D01*
X0073333Y0106500D02*
X0088333Y0106500D01*
M02*
