G75*
G70*
%OFA0B0*%
%FSLAX24Y24*%
%IPPOS*%
%LPD*%
%AMOC8*
5,1,8,0,0,1.08239X$1,22.5*
%
%ADD10C,0.0520*%
%ADD11R,0.0740X0.0740*%
%ADD12C,0.0740*%
%ADD13C,0.0520*%
%ADD14C,0.0650*%
%ADD15OC8,0.0740*%
%ADD16C,0.0600*%
%ADD17C,0.0240*%
%ADD18C,0.0700*%
%ADD19R,0.0480X0.0480*%
%ADD20C,0.0320*%
D10*
X008833Y007390D02*
X008833Y007910D01*
X009833Y007910D02*
X009833Y007390D01*
X010833Y007390D02*
X010833Y007910D01*
X011833Y007910D02*
X011833Y007390D01*
X012833Y007390D02*
X012833Y007910D01*
X013833Y007910D02*
X013833Y007390D01*
X014833Y007390D02*
X014833Y007910D01*
X015833Y007910D02*
X015833Y007390D01*
X016833Y007390D02*
X016833Y007910D01*
X017833Y007910D02*
X017833Y007390D01*
X018833Y007390D02*
X018833Y007910D01*
X019833Y007910D02*
X019833Y007390D01*
X020833Y007390D02*
X020833Y007910D01*
X021833Y007910D02*
X021833Y007390D01*
X021833Y010390D02*
X021833Y010910D01*
X020833Y010910D02*
X020833Y010390D01*
X019833Y010390D02*
X019833Y010910D01*
X018833Y010910D02*
X018833Y010390D01*
X017833Y010390D02*
X017833Y010910D01*
X016833Y010910D02*
X016833Y010390D01*
X015833Y010390D02*
X015833Y010910D01*
X014833Y010910D02*
X014833Y010390D01*
X013833Y010390D02*
X013833Y010910D01*
X012833Y010910D02*
X012833Y010390D01*
X011833Y010390D02*
X011833Y010910D01*
X010833Y010910D02*
X010833Y010390D01*
X009833Y010390D02*
X009833Y010910D01*
X008833Y010910D02*
X008833Y010390D01*
X002593Y014150D02*
X002073Y014150D01*
X002073Y015150D02*
X002593Y015150D01*
X002593Y016150D02*
X002073Y016150D01*
D11*
X007735Y019252D03*
D12*
X008735Y019252D03*
X009735Y019252D03*
X010735Y019252D03*
X011735Y019252D03*
X012735Y019252D03*
X013735Y019252D03*
X014735Y019252D03*
X015735Y019252D03*
X016735Y019252D03*
X017735Y019252D03*
X018735Y019252D03*
X019735Y019252D03*
X020735Y019252D03*
X021735Y019252D03*
X022735Y019252D03*
X026833Y019150D03*
X030833Y019150D03*
X028333Y015650D03*
X028333Y011650D03*
X033943Y005430D03*
X035723Y005430D03*
X035723Y002870D03*
X033943Y002870D03*
D13*
X018783Y004650D03*
X016883Y004650D03*
D14*
X014833Y004650D03*
X013833Y004650D03*
X020833Y004650D03*
X021833Y004650D03*
X016833Y012650D03*
X015833Y012650D03*
D15*
X037833Y012150D03*
X038833Y012150D03*
X038833Y011150D03*
X037833Y011150D03*
X037833Y010150D03*
X038833Y010150D03*
X038833Y009150D03*
X037833Y009150D03*
X037833Y008150D03*
X038833Y008150D03*
D16*
X004333Y003450D02*
X004333Y002850D01*
X005333Y002850D02*
X005333Y003450D01*
X006333Y003450D02*
X006333Y002850D01*
X007333Y002850D02*
X007333Y003450D01*
X009833Y003450D02*
X009833Y002850D01*
X010833Y002850D02*
X010833Y003450D01*
X011833Y003450D02*
X011833Y002850D01*
X012833Y002850D02*
X012833Y003450D01*
X003133Y006150D02*
X002533Y006150D01*
X002533Y007150D02*
X003133Y007150D01*
X003133Y008150D02*
X002533Y008150D01*
X023333Y003450D02*
X023333Y002850D01*
X024333Y002850D02*
X024333Y003450D01*
X025333Y003450D02*
X025333Y002850D01*
X026333Y002850D02*
X026333Y003450D01*
X027333Y003450D02*
X027333Y002850D01*
X028333Y002850D02*
X028333Y003450D01*
X030833Y003450D02*
X030833Y002850D01*
X031833Y002850D02*
X031833Y003450D01*
D17*
X031833Y003150D02*
X031833Y001650D01*
X035833Y001650D01*
X035833Y002650D01*
X035833Y001650D02*
X039833Y007150D01*
X039833Y008150D01*
X038833Y008150D01*
X038833Y009150D01*
X038833Y010150D01*
X038833Y011150D01*
X038833Y012150D02*
X038833Y014150D01*
X033333Y014150D01*
X031833Y015650D01*
X028333Y015650D01*
X024833Y015650D01*
X024833Y017650D01*
X021833Y018650D01*
X021833Y020150D01*
X020833Y019150D02*
X020833Y010650D01*
X019833Y010650D02*
X019833Y014650D01*
X019833Y019150D01*
X018833Y019150D02*
X018833Y012650D01*
X018833Y010650D01*
X017833Y010650D02*
X017833Y013650D01*
X017833Y019150D01*
X016833Y017650D02*
X013833Y017650D01*
X012833Y018150D01*
X012833Y019150D01*
X011833Y019650D02*
X011833Y021150D01*
X007833Y021150D01*
X007833Y019650D01*
X008833Y019650D02*
X008833Y020150D01*
X008833Y019150D02*
X008833Y016650D01*
X008333Y016150D01*
X002333Y016150D01*
X002333Y015150D02*
X008333Y015150D01*
X009833Y016650D01*
X009833Y019150D01*
X010833Y019150D02*
X010833Y018150D01*
X013833Y016650D01*
X016833Y016650D01*
X016833Y015650D02*
X016833Y012650D01*
X016833Y010650D01*
X016833Y009150D01*
X028333Y009150D01*
X028333Y003150D01*
X030833Y003150D01*
X032833Y003150D02*
X032833Y006650D01*
X029833Y006650D01*
X029833Y011150D01*
X028833Y011150D01*
X028333Y011650D01*
X030333Y012650D02*
X025833Y012650D01*
X024833Y013650D02*
X030833Y013650D01*
X033333Y009150D01*
X037833Y009150D01*
X037833Y008150D02*
X032833Y008150D01*
X030333Y012650D01*
X031333Y014650D02*
X032833Y013150D01*
X037833Y013150D01*
X037833Y012150D01*
X037833Y010150D02*
X033833Y010150D01*
X033833Y011150D01*
X031333Y014650D02*
X024833Y014650D01*
X023333Y016650D02*
X023333Y010150D01*
X021833Y010650D02*
X021833Y017650D01*
X022833Y019150D02*
X026833Y019150D01*
X030833Y019150D02*
X033333Y016150D01*
X039833Y016150D01*
X039833Y008150D01*
X033833Y003150D02*
X032833Y003150D01*
X031833Y001650D02*
X023333Y001650D01*
X023333Y003150D01*
X021833Y004650D01*
X020833Y004650D02*
X017833Y004650D01*
X017833Y007650D01*
X016833Y007650D02*
X016833Y004650D01*
X014833Y004650D01*
X014833Y005650D02*
X013833Y004650D01*
X012833Y003150D01*
X012833Y001650D01*
X007333Y001650D01*
X007333Y003150D01*
X006333Y003150D02*
X006333Y004650D01*
X009333Y004650D01*
X010833Y006650D01*
X010833Y007650D01*
X011833Y007650D02*
X011833Y006650D01*
X011333Y005650D01*
X009833Y003150D01*
X010833Y003150D02*
X012333Y005650D01*
X012833Y006650D01*
X012833Y007650D01*
X013833Y007650D02*
X013833Y006650D01*
X013333Y005650D01*
X011833Y003150D01*
X012833Y001650D02*
X023333Y001650D01*
X023333Y003150D02*
X024333Y003150D01*
X025333Y003150D02*
X025333Y005650D01*
X018833Y005650D01*
X018833Y007150D01*
X019833Y007150D02*
X019833Y006150D01*
X026333Y006150D01*
X026333Y003150D01*
X027333Y003150D02*
X027333Y006650D01*
X020833Y006650D01*
X020833Y007650D01*
X021833Y007650D02*
X023333Y007650D01*
X015833Y007650D02*
X015833Y005650D01*
X014833Y005650D01*
X014833Y007650D02*
X014833Y008650D01*
X014333Y008650D01*
X013833Y009150D01*
X007333Y009150D01*
X007333Y005650D01*
X004333Y005650D01*
X004333Y003150D01*
X005333Y003150D02*
X005333Y005150D01*
X008833Y005150D01*
X009833Y006650D01*
X009833Y007150D01*
X008833Y007650D02*
X008833Y006650D01*
X005833Y009150D02*
X005833Y011650D01*
X009833Y011650D01*
X009833Y010650D01*
X005833Y009150D02*
X003833Y007150D01*
X002833Y007150D01*
X002833Y006150D02*
X001333Y006150D01*
X001333Y013150D01*
X001333Y017650D01*
X002833Y017650D01*
X003833Y018650D01*
X003833Y021150D01*
X007833Y021150D01*
X002333Y014150D02*
X002333Y013150D01*
X015833Y013150D01*
X015833Y012650D01*
X014833Y010650D01*
X014833Y009650D01*
X015833Y008650D01*
X015833Y008150D01*
X002333Y013150D02*
X001333Y013150D01*
D18*
X007333Y009150D03*
X008833Y006650D03*
X013833Y009150D03*
X016833Y009150D03*
X018833Y012650D03*
X017833Y013650D03*
X019833Y014650D03*
X016833Y015650D03*
X016833Y016650D03*
X016833Y017650D03*
X021833Y017650D03*
X023333Y016650D03*
X024833Y015650D03*
X024833Y014650D03*
X024833Y013650D03*
X025833Y012650D03*
X029833Y011150D03*
X033833Y011150D03*
X029833Y006650D03*
X023333Y007650D03*
X023333Y010150D03*
X021833Y020150D03*
X008833Y020150D03*
D19*
X007333Y010650D03*
X004333Y010650D03*
D20*
X002833Y010650D01*
X002833Y008150D01*
X007333Y010650D02*
X008833Y010650D01*
M02*
