G75*
%MOIN*%
%OFA0B0*%
%FSLAX25Y25*%
%IPPOS*%
%LPD*%
%AMOC8*
5,1,8,0,0,1.08239X$1,22.5*
%
%ADD10C,0.06000*%
%ADD11R,0.08200X0.08200*%
%ADD12C,0.08200*%
%ADD13C,0.11824*%
%ADD14C,0.06000*%
%ADD15C,0.07300*%
%ADD16OC8,0.08200*%
%ADD17C,0.06800*%
%ADD18C,0.13800*%
%ADD19C,0.07800*%
%ADD20R,0.05600X0.05600*%
D10*
X0088333Y0073900D02*
X0088333Y0079100D01*
X0098333Y0079100D02*
X0098333Y0073900D01*
X0108333Y0073900D02*
X0108333Y0079100D01*
X0118333Y0079100D02*
X0118333Y0073900D01*
X0128333Y0073900D02*
X0128333Y0079100D01*
X0138333Y0079100D02*
X0138333Y0073900D01*
X0148333Y0073900D02*
X0148333Y0079100D01*
X0158333Y0079100D02*
X0158333Y0073900D01*
X0168333Y0073900D02*
X0168333Y0079100D01*
X0178333Y0079100D02*
X0178333Y0073900D01*
X0188333Y0073900D02*
X0188333Y0079100D01*
X0198333Y0079100D02*
X0198333Y0073900D01*
X0208333Y0073900D02*
X0208333Y0079100D01*
X0218333Y0079100D02*
X0218333Y0073900D01*
X0218333Y0103900D02*
X0218333Y0109100D01*
X0208333Y0109100D02*
X0208333Y0103900D01*
X0198333Y0103900D02*
X0198333Y0109100D01*
X0188333Y0109100D02*
X0188333Y0103900D01*
X0178333Y0103900D02*
X0178333Y0109100D01*
X0168333Y0109100D02*
X0168333Y0103900D01*
X0158333Y0103900D02*
X0158333Y0109100D01*
X0148333Y0109100D02*
X0148333Y0103900D01*
X0138333Y0103900D02*
X0138333Y0109100D01*
X0128333Y0109100D02*
X0128333Y0103900D01*
X0118333Y0103900D02*
X0118333Y0109100D01*
X0108333Y0109100D02*
X0108333Y0103900D01*
X0098333Y0103900D02*
X0098333Y0109100D01*
X0088333Y0109100D02*
X0088333Y0103900D01*
X0025933Y0141500D02*
X0020733Y0141500D01*
X0020733Y0151500D02*
X0025933Y0151500D01*
X0025933Y0161500D02*
X0020733Y0161500D01*
D11*
X0077349Y0192524D03*
D12*
X0087349Y0192524D03*
X0097349Y0192524D03*
X0107349Y0192524D03*
X0117349Y0192524D03*
X0127349Y0192524D03*
X0137349Y0192524D03*
X0147349Y0192524D03*
X0157349Y0192524D03*
X0167349Y0192524D03*
X0177349Y0192524D03*
X0187349Y0192524D03*
X0197349Y0192524D03*
X0207349Y0192524D03*
X0217349Y0192524D03*
X0227349Y0192524D03*
X0268333Y0191500D03*
X0308333Y0191500D03*
X0283333Y0156500D03*
X0283333Y0116500D03*
X0339433Y0054300D03*
X0357233Y0054300D03*
X0357233Y0028700D03*
X0339433Y0028700D03*
D13*
X0350971Y0070476D03*
X0350971Y0192524D03*
X0055696Y0192524D03*
X0055696Y0070476D03*
D14*
X0168833Y0046500D03*
X0187833Y0046500D03*
D15*
X0208333Y0046500D03*
X0218333Y0046500D03*
X0148333Y0046500D03*
X0138333Y0046500D03*
X0158333Y0126500D03*
X0168333Y0126500D03*
D16*
X0378333Y0121500D03*
X0388333Y0121500D03*
X0388333Y0111500D03*
X0378333Y0111500D03*
X0378333Y0101500D03*
X0388333Y0101500D03*
X0388333Y0091500D03*
X0378333Y0091500D03*
X0378333Y0081500D03*
X0388333Y0081500D03*
D17*
X0318333Y0034500D02*
X0318333Y0028500D01*
X0308333Y0028500D02*
X0308333Y0034500D01*
X0283333Y0034500D02*
X0283333Y0028500D01*
X0273333Y0028500D02*
X0273333Y0034500D01*
X0263333Y0034500D02*
X0263333Y0028500D01*
X0253333Y0028500D02*
X0253333Y0034500D01*
X0243333Y0034500D02*
X0243333Y0028500D01*
X0233333Y0028500D02*
X0233333Y0034500D01*
X0128333Y0034500D02*
X0128333Y0028500D01*
X0118333Y0028500D02*
X0118333Y0034500D01*
X0108333Y0034500D02*
X0108333Y0028500D01*
X0098333Y0028500D02*
X0098333Y0034500D01*
X0073333Y0034500D02*
X0073333Y0028500D01*
X0063333Y0028500D02*
X0063333Y0034500D01*
X0053333Y0034500D02*
X0053333Y0028500D01*
X0043333Y0028500D02*
X0043333Y0034500D01*
X0031333Y0061500D02*
X0025333Y0061500D01*
X0025333Y0071500D02*
X0031333Y0071500D01*
X0031333Y0081500D02*
X0025333Y0081500D01*
D18*
X0023333Y0021500D03*
X0023333Y0201500D03*
X0388333Y0201500D03*
X0388333Y0021500D03*
D19*
X0298333Y0066500D03*
X0233333Y0076500D03*
X0233333Y0101500D03*
X0258333Y0126500D03*
X0248333Y0136500D03*
X0248333Y0146500D03*
X0248333Y0156500D03*
X0233333Y0166500D03*
X0218333Y0176500D03*
X0218333Y0201500D03*
X0168333Y0176500D03*
X0168333Y0166500D03*
X0168333Y0156500D03*
X0198333Y0146500D03*
X0178333Y0136500D03*
X0188333Y0126500D03*
X0168333Y0091500D03*
X0138333Y0091500D03*
X0088333Y0066500D03*
X0073333Y0091500D03*
X0088333Y0201500D03*
X0298333Y0111500D03*
X0338333Y0111500D03*
D20*
X0073333Y0106500D03*
X0043333Y0106500D03*
M02*
