G75*
G70*
%OFA0B0*%
%FSLAX24Y24*%
%IPPOS*%
%LPD*%
%AMOC8*
5,1,8,0,0,1.08239X$1,22.5*
%
%ADD10C,0.0110*%
%ADD11C,0.0520*%
%ADD12C,0.0740*%
%ADD13C,0.0860*%
%ADD14C,0.0650*%
%ADD15C,0.0750*%
%ADD16C,0.0600*%
%ADD17R,0.0650X0.0650*%
%ADD18C,0.0320*%
%ADD19C,0.0400*%
%ADD20C,0.0700*%
D10*
X029431Y020687D02*
X029530Y020589D01*
X029727Y020589D01*
X029825Y020687D01*
X029431Y021081D01*
X029431Y020687D01*
X029431Y021081D02*
X029530Y021179D01*
X029727Y021179D01*
X029825Y021081D01*
X029825Y020687D01*
X030049Y020687D02*
X030049Y020589D01*
X030147Y020589D01*
X030147Y020687D01*
X030049Y020687D01*
X030398Y020589D02*
X030792Y020589D01*
X030595Y020589D02*
X030595Y021179D01*
X030792Y020982D01*
X031043Y020982D02*
X031239Y020589D01*
X031436Y020982D01*
X032314Y020589D02*
X032511Y020589D01*
X032412Y020589D02*
X032412Y021179D01*
X032511Y021179D01*
X032761Y020884D02*
X032860Y020982D01*
X033057Y020982D01*
X033155Y020884D01*
X033155Y020687D01*
X033057Y020589D01*
X032860Y020589D01*
X032761Y020687D01*
X032761Y020884D01*
X033397Y020982D02*
X033495Y020982D01*
X033692Y020786D01*
X033692Y020982D02*
X033692Y020589D01*
X033925Y020589D02*
X034024Y020687D01*
X034024Y021081D01*
X034122Y020982D02*
X033925Y020982D01*
X034373Y020884D02*
X034373Y020589D01*
X034373Y020884D02*
X034471Y020982D01*
X034766Y020982D01*
X034766Y020589D01*
X035017Y020687D02*
X035017Y020884D01*
X035116Y020982D01*
X035313Y020982D01*
X035411Y020884D01*
X035411Y020687D01*
X035313Y020589D01*
X035116Y020589D01*
X035017Y020687D01*
X035662Y020687D02*
X035760Y020589D01*
X035957Y020589D01*
X036056Y020687D01*
X036056Y021081D01*
X035957Y021179D01*
X035760Y021179D01*
X035662Y021081D01*
X036306Y021639D02*
X036700Y021639D01*
X036306Y022032D01*
X036306Y022131D01*
X036405Y022229D01*
X036602Y022229D01*
X036700Y022131D01*
X036951Y022131D02*
X037345Y021737D01*
X037345Y021639D01*
X037596Y021737D02*
X037694Y021639D01*
X037891Y021639D01*
X037989Y021737D01*
X037596Y022131D01*
X037596Y021737D01*
X037989Y021737D02*
X037989Y022131D01*
X037891Y022229D01*
X037694Y022229D01*
X037596Y022131D01*
X037345Y022229D02*
X036951Y022229D01*
X036951Y022131D01*
X038240Y021639D02*
X038634Y021639D01*
X038634Y022229D01*
X038885Y022229D02*
X039278Y022229D01*
X039081Y022229D02*
X039081Y021639D01*
X039081Y021179D02*
X039081Y020589D01*
X038634Y020687D02*
X038634Y020884D01*
X038535Y020982D01*
X038339Y020982D01*
X038240Y020884D01*
X038240Y020687D01*
X038339Y020589D01*
X038535Y020589D01*
X038634Y020687D01*
X037989Y020589D02*
X037989Y020982D01*
X037694Y020982D01*
X037596Y020884D01*
X037596Y020589D01*
X037345Y020687D02*
X037345Y020884D01*
X037246Y020982D01*
X037049Y020982D01*
X036951Y020884D01*
X036951Y020786D01*
X037345Y020786D01*
X037345Y020687D02*
X037246Y020589D01*
X037049Y020589D01*
X037031Y019679D02*
X036835Y019679D01*
X036736Y019581D01*
X037130Y019187D01*
X037031Y019089D01*
X036835Y019089D01*
X036736Y019187D01*
X036736Y019581D01*
X036485Y019482D02*
X036288Y019679D01*
X036288Y019089D01*
X036092Y019089D02*
X036485Y019089D01*
X035841Y019187D02*
X035742Y019089D01*
X035545Y019089D01*
X035447Y019187D01*
X035447Y019286D01*
X035545Y019384D01*
X035644Y019384D01*
X035545Y019384D02*
X035447Y019482D01*
X035447Y019581D01*
X035545Y019679D01*
X035742Y019679D01*
X035841Y019581D01*
X037031Y019679D02*
X037130Y019581D01*
X037130Y019187D01*
X037381Y019089D02*
X037774Y019089D01*
X037381Y019482D01*
X037381Y019581D01*
X037479Y019679D01*
X037676Y019679D01*
X037774Y019581D01*
X038007Y019482D02*
X038204Y019679D01*
X038007Y019482D02*
X038007Y019286D01*
X038204Y019089D01*
X038455Y019089D02*
X038750Y019089D01*
X038849Y019187D01*
X038849Y019384D01*
X038750Y019482D01*
X038455Y019482D01*
X039081Y019679D02*
X039278Y019482D01*
X039278Y019286D01*
X039081Y019089D01*
X039278Y021179D02*
X038885Y021179D01*
X034552Y019679D02*
X034552Y019089D01*
X034158Y019089D02*
X034158Y019679D01*
X033907Y019482D02*
X033809Y019482D01*
X033809Y019089D01*
X033907Y019089D02*
X033710Y019089D01*
X033477Y019089D02*
X033477Y019679D01*
X033809Y019679D02*
X033809Y019778D01*
X033477Y019286D02*
X033182Y019482D01*
X032940Y019384D02*
X032940Y019187D01*
X032842Y019089D01*
X032645Y019089D01*
X032547Y019187D01*
X032547Y019384D01*
X032645Y019482D01*
X032842Y019482D01*
X032940Y019384D01*
X033182Y019089D02*
X033477Y019286D01*
X034158Y019089D02*
X034552Y019679D01*
X032296Y019482D02*
X032296Y018892D01*
X032296Y019089D02*
X032000Y019089D01*
X031902Y019187D01*
X031902Y019384D01*
X032000Y019482D01*
X032296Y019482D01*
X031651Y019384D02*
X031651Y019187D01*
X031553Y019089D01*
X031356Y019089D01*
X031257Y019187D01*
X031257Y019384D01*
X031356Y019482D01*
X031553Y019482D01*
X031651Y019384D01*
X031007Y019679D02*
X030908Y019679D01*
X030908Y019089D01*
X030810Y019089D02*
X031007Y019089D01*
D11*
X023333Y018794D02*
X023333Y018274D01*
X022333Y018274D02*
X022333Y018794D01*
X021333Y018794D02*
X021333Y018274D01*
X020333Y018274D02*
X020333Y018794D01*
X020333Y021274D02*
X020333Y021794D01*
X021333Y021794D02*
X021333Y021274D01*
X022333Y021274D02*
X022333Y021794D01*
X023333Y021794D02*
X023333Y021274D01*
D12*
X022333Y023534D03*
X024333Y023534D03*
X028333Y023534D03*
X018333Y023534D03*
X018333Y021034D03*
X018333Y019034D03*
X014333Y019034D03*
X014333Y021034D03*
X011333Y019034D03*
X008333Y016534D03*
X006833Y016534D03*
X007333Y019034D03*
X007333Y023534D03*
X011333Y023534D03*
X017333Y016034D03*
X016333Y013534D03*
X015333Y012034D03*
X012333Y013534D03*
X011333Y012034D03*
X008333Y012534D03*
X006833Y012534D03*
X003333Y010534D03*
X003333Y006534D03*
X013333Y005534D03*
X013333Y009534D03*
X021333Y016034D03*
X022333Y016034D03*
X026333Y016034D03*
D13*
X026365Y007502D03*
X028333Y007502D03*
X030302Y007502D03*
X030302Y005534D03*
X028333Y005534D03*
X026365Y005534D03*
X020302Y005534D03*
X018333Y005534D03*
X016365Y005534D03*
X016365Y007502D03*
X018333Y007502D03*
X020302Y007502D03*
X010302Y007502D03*
X008333Y007502D03*
X006365Y007502D03*
X006365Y005534D03*
X008333Y005534D03*
X010302Y005534D03*
X036365Y005534D03*
X038333Y005534D03*
X040302Y005534D03*
D14*
X024318Y017534D03*
X022349Y017534D03*
X024833Y019549D03*
X024833Y021518D03*
X020833Y025534D03*
X029833Y026534D03*
X010318Y017534D03*
X008349Y017534D03*
X008333Y011018D03*
X007333Y011018D03*
X007333Y009049D03*
X008333Y009049D03*
X004333Y007518D03*
X004333Y005549D03*
X012333Y005549D03*
X014333Y006049D03*
X012333Y007518D03*
X014333Y008018D03*
D15*
X020333Y009634D03*
X022833Y009334D03*
X022833Y005634D03*
X020333Y013334D03*
X016233Y016034D03*
X012533Y016034D03*
X011133Y020534D03*
X011133Y022034D03*
X007433Y022034D03*
X007433Y020534D03*
X014533Y025034D03*
X018233Y025034D03*
D16*
X024333Y026234D02*
X024333Y026834D01*
X025333Y026834D02*
X025333Y026234D01*
X026333Y026234D02*
X026333Y026834D01*
X039533Y014034D02*
X040133Y014034D01*
X040133Y013034D02*
X039533Y013034D01*
X039533Y012034D02*
X040133Y012034D01*
X004633Y020034D02*
X004033Y020034D01*
X004033Y021034D02*
X004633Y021034D01*
X004633Y022034D02*
X004033Y022034D01*
D17*
X020833Y026534D03*
X029833Y025534D03*
D18*
X006333Y005534D02*
X003833Y005534D01*
X003333Y006034D01*
X003333Y006534D01*
X004333Y007034D02*
X004333Y007534D01*
X004333Y007034D02*
X004833Y006534D01*
X007833Y006534D01*
X008333Y006034D01*
X008833Y006534D01*
X011833Y006534D01*
X012333Y007034D01*
X012333Y013534D01*
X011333Y012034D02*
X010333Y012034D01*
X009333Y011034D02*
X010333Y010034D01*
X010333Y007534D01*
X009333Y009034D02*
X008333Y009034D01*
X008333Y007534D01*
X008333Y006034D02*
X008333Y005534D01*
X010333Y005534D02*
X013333Y005534D01*
X014333Y006034D02*
X014833Y005534D01*
X016365Y005534D01*
X018333Y005534D02*
X019333Y006534D01*
X019333Y013034D01*
X018833Y013534D01*
X016333Y013534D01*
X017333Y014534D02*
X014833Y014534D01*
X014833Y017534D01*
X010318Y017534D01*
X009333Y018034D02*
X009333Y025034D01*
X014333Y025034D01*
X016833Y026534D02*
X024333Y026534D01*
X026333Y026534D02*
X026333Y025534D01*
X026833Y025034D01*
X026833Y018534D01*
X023333Y018534D01*
X022333Y018534D02*
X022333Y017534D01*
X022333Y018534D02*
X022333Y019034D01*
X021833Y019534D01*
X018833Y019534D01*
X018333Y019034D01*
X018833Y020534D02*
X018333Y021034D01*
X018833Y020534D02*
X022833Y020534D01*
X023333Y021034D01*
X023333Y021534D01*
X024833Y021534D01*
X024333Y023534D02*
X022333Y023534D01*
X022333Y021534D01*
X021333Y021534D02*
X021333Y023534D01*
X018333Y023534D01*
X018333Y025034D01*
X016833Y026534D02*
X016833Y022534D01*
X020333Y022534D01*
X020333Y021534D01*
X020333Y018534D02*
X020333Y016034D01*
X017333Y016034D01*
X016333Y016034D01*
X013833Y016034D02*
X013833Y011034D01*
X013333Y010534D01*
X013333Y009534D01*
X013333Y008534D01*
X013833Y008034D01*
X014333Y008034D01*
X016365Y007502D02*
X017333Y008534D01*
X017333Y011034D01*
X018333Y012034D02*
X018333Y007534D01*
X019333Y006534D02*
X029333Y006534D01*
X030333Y005534D01*
X028333Y005534D02*
X028333Y004534D01*
X040333Y004534D01*
X040333Y010034D01*
X039833Y010534D01*
X039833Y012034D01*
X039833Y014034D02*
X036833Y014034D01*
X036333Y013534D01*
X036333Y010034D01*
X036333Y005534D01*
X030333Y007534D02*
X030333Y015034D01*
X019333Y015034D01*
X021333Y016034D02*
X021333Y018534D01*
X021333Y016034D02*
X022333Y016034D01*
X018333Y012034D02*
X015333Y012034D01*
X013833Y016034D02*
X012833Y016034D01*
X009333Y018034D02*
X008333Y018034D01*
X008333Y016534D01*
X011333Y019034D02*
X011333Y020534D01*
X012833Y019034D01*
X014333Y019034D01*
X014333Y021034D02*
X014333Y022034D01*
X011333Y022034D01*
X011333Y023534D01*
X007333Y022034D02*
X004333Y022034D01*
X004333Y020034D02*
X007333Y020534D01*
X006833Y012534D02*
X007333Y012034D01*
X007333Y011034D01*
X006833Y011034D01*
X006333Y010534D01*
X006333Y007534D01*
X007333Y009034D02*
X008333Y009034D01*
X008333Y011034D02*
X009333Y011034D01*
X008333Y011034D02*
X008333Y012534D01*
X014333Y006049D02*
X014333Y006034D01*
X020302Y005534D02*
X022733Y005534D01*
X022833Y005634D01*
X020302Y007502D02*
X020333Y009634D01*
X028333Y010034D02*
X028333Y007534D01*
D19*
X026365Y007502D02*
X026333Y007534D01*
X026333Y009034D01*
X026033Y009334D01*
X022833Y009334D01*
X022833Y013034D01*
X022533Y013334D01*
X020333Y013334D01*
X022833Y009534D02*
X024333Y008034D01*
X024333Y005534D02*
X026333Y005534D01*
X026365Y005534D02*
X026365Y003565D01*
X026333Y003534D01*
X041333Y003534D01*
X041333Y013034D01*
X041333Y025534D01*
X032333Y025534D01*
X032333Y028034D01*
X025333Y028034D01*
X025333Y026534D01*
X025333Y025034D01*
X025833Y024534D01*
X025833Y021034D01*
X024833Y020034D01*
X024833Y019549D01*
X024318Y017534D02*
X025833Y017534D01*
X026333Y017034D01*
X026333Y016034D01*
X028333Y016034D01*
X028333Y023534D01*
X029833Y023534D01*
X029833Y025534D01*
X032333Y025534D01*
X029833Y026534D02*
X026333Y026534D01*
X025333Y028034D02*
X007333Y028034D01*
X007333Y023534D01*
X003833Y023534D01*
X002833Y022534D01*
X002833Y021034D01*
X002833Y019034D01*
X007333Y019034D01*
X007333Y018534D01*
X006833Y018034D01*
X006833Y016534D01*
X002833Y019034D02*
X002833Y011034D01*
X003333Y010534D01*
X002833Y021034D02*
X004333Y021034D01*
X020833Y025534D02*
X021833Y025534D01*
X022333Y025034D01*
X025333Y025034D01*
X038333Y013034D02*
X038333Y005534D01*
X038333Y013034D02*
X039833Y013034D01*
X041333Y013034D01*
D20*
X036333Y010034D03*
X028333Y010034D03*
X024333Y008034D03*
X024333Y005534D03*
X017333Y011034D03*
X018333Y012034D03*
X017333Y014534D03*
X019333Y015034D03*
X010333Y012034D03*
X009333Y009034D03*
M02*
