%
M48
M72
T01C0.0160
T02C0.0160
T03C0.0160
T04C0.0160
T05C0.0160
T06C0.0160
T07C0.0160
%
T01
X9333Y9034
X10333Y12034
X17333Y11034
X18333Y12034
X17333Y14534
X19333Y15034
X28333Y10034
X36333Y10034
X40333Y27034
X3833Y27034
T02
X4333Y5549
X4333Y7518
X7333Y9049
X8333Y9049
X8333Y11018
X7333Y11018
X12333Y7518
X14333Y8018
X14333Y6049
X12333Y5549
X10318Y17534
X8349Y17534
X20833Y25534
X20833Y26534
X24833Y21518
X24833Y19549
X24318Y17534
X22349Y17534
X29833Y25534
X29833Y26534
T03
X24333Y8034
X24333Y5534
T04
X23333Y18534
X22333Y18534
X21333Y18534
X20333Y18534
X20333Y21534
X21333Y21534
X22333Y21534
X23333Y21534
T05
X22333Y23534
X24333Y23534
X28333Y23534
X18333Y23534
X18233Y25034
X14533Y25034
X11333Y23534
X11133Y22034
X11133Y20534
X11333Y19034
X14333Y19034
X14333Y21034
X18333Y21034
X18333Y19034
X17333Y16034
X16233Y16034
X16333Y13534
X15333Y12034
X12333Y13534
X11333Y12034
X8333Y12534
X6833Y12534
X3333Y10534
X3333Y6534
X13333Y5534
X13333Y9534
X20333Y9634
X22833Y9334
X22833Y5634
X20333Y13334
X21333Y16034
X22333Y16034
X26333Y16034
X12533Y16034
X8333Y16534
X6833Y16534
X7333Y19034
X7433Y20534
X7433Y22034
X7333Y23534
T06
X4333Y22034
X4333Y21034
X4333Y20034
X24333Y26534
X25333Y26534
X26333Y26534
X39833Y14034
X39833Y13034
X39833Y12034
T07
X40302Y5534
X38333Y5534
X36365Y5534
X30302Y5534
X28333Y5534
X26365Y5534
X26365Y7502
X28333Y7502
X30302Y7502
X20302Y7502
X18333Y7502
X16365Y7502
X16365Y5534
X18333Y5534
X20302Y5534
X10302Y5534
X8333Y5534
X6365Y5534
X6365Y7502
X8333Y7502
X10302Y7502
M30
