G75*
G70*
%OFA0B0*%
%FSLAX24Y24*%
%IPPOS*%
%LPD*%
%AMOC8*
5,1,8,0,0,1.08239X$1,22.5*
%
%ADD10C,0.0100*%
%ADD11C,0.0000*%
%ADD12C,0.0051*%
%ADD13C,0.0110*%
D10*
X002333Y003034D02*
X002333Y028530D01*
X041703Y028530D01*
X041703Y003034D01*
X002333Y003034D01*
D11*
X003733Y027034D02*
X003735Y027054D01*
X003741Y027072D01*
X003750Y027090D01*
X003762Y027105D01*
X003777Y027117D01*
X003795Y027126D01*
X003813Y027132D01*
X003833Y027134D01*
X003853Y027132D01*
X003871Y027126D01*
X003889Y027117D01*
X003904Y027105D01*
X003916Y027090D01*
X003925Y027072D01*
X003931Y027054D01*
X003933Y027034D01*
X003931Y027014D01*
X003925Y026996D01*
X003916Y026978D01*
X003904Y026963D01*
X003889Y026951D01*
X003871Y026942D01*
X003853Y026936D01*
X003833Y026934D01*
X003813Y026936D01*
X003795Y026942D01*
X003777Y026951D01*
X003762Y026963D01*
X003750Y026978D01*
X003741Y026996D01*
X003735Y027014D01*
X003733Y027034D01*
X040233Y027034D02*
X040235Y027054D01*
X040241Y027072D01*
X040250Y027090D01*
X040262Y027105D01*
X040277Y027117D01*
X040295Y027126D01*
X040313Y027132D01*
X040333Y027134D01*
X040353Y027132D01*
X040371Y027126D01*
X040389Y027117D01*
X040404Y027105D01*
X040416Y027090D01*
X040425Y027072D01*
X040431Y027054D01*
X040433Y027034D01*
X040431Y027014D01*
X040425Y026996D01*
X040416Y026978D01*
X040404Y026963D01*
X040389Y026951D01*
X040371Y026942D01*
X040353Y026936D01*
X040333Y026934D01*
X040313Y026936D01*
X040295Y026942D01*
X040277Y026951D01*
X040262Y026963D01*
X040250Y026978D01*
X040241Y026996D01*
X040235Y027014D01*
X040233Y027034D01*
D12*
X041833Y028534D02*
X041833Y029801D01*
X041833Y029034D02*
X040810Y028931D01*
X040810Y028908D02*
X041833Y029034D01*
X040810Y029136D01*
X040810Y029159D02*
X040810Y028908D01*
X040810Y028983D02*
X041833Y029034D01*
X040810Y029085D01*
X040810Y029159D02*
X041833Y029034D01*
X002333Y029034D01*
X003357Y028931D01*
X003357Y028908D02*
X002333Y029034D01*
X003357Y029136D01*
X003357Y029159D02*
X003357Y028908D01*
X003357Y028983D02*
X002333Y029034D01*
X003357Y029085D01*
X003357Y029159D02*
X002333Y029034D01*
X002333Y028534D02*
X002333Y029801D01*
D13*
X020366Y029709D02*
X020563Y029905D01*
X020563Y029315D01*
X020759Y029315D02*
X020366Y029315D01*
X021010Y029413D02*
X021404Y029807D01*
X021404Y029413D01*
X021306Y029315D01*
X021109Y029315D01*
X021010Y029413D01*
X021010Y029807D01*
X021109Y029905D01*
X021306Y029905D01*
X021404Y029807D01*
X021655Y029807D02*
X021655Y029413D01*
X022049Y029807D01*
X022049Y029413D01*
X021950Y029315D01*
X021753Y029315D01*
X021655Y029413D01*
X021655Y029807D02*
X021753Y029905D01*
X021950Y029905D01*
X022049Y029807D01*
X022299Y029413D02*
X022398Y029413D01*
X022398Y029315D01*
X022299Y029315D01*
X022299Y029413D01*
X022622Y029413D02*
X022720Y029315D01*
X022917Y029315D01*
X023015Y029413D01*
X023015Y029512D01*
X022917Y029610D01*
X022819Y029610D01*
X022917Y029610D02*
X023015Y029709D01*
X023015Y029807D01*
X022917Y029905D01*
X022720Y029905D01*
X022622Y029807D01*
X023266Y029807D02*
X023365Y029905D01*
X023562Y029905D01*
X023660Y029807D01*
X023660Y029709D01*
X023562Y029610D01*
X023660Y029512D01*
X023660Y029413D01*
X023562Y029315D01*
X023365Y029315D01*
X023266Y029413D01*
X023463Y029610D02*
X023562Y029610D01*
M02*
