G75*
G70*
%OFA0B0*%
%FSLAX24Y24*%
%IPPOS*%
%LPD*%
%AMOC8*
5,1,8,0,0,1.08239X$1,22.5*
%
%ADD10C,0.0280*%
%ADD11C,0.0600*%
%ADD12C,0.0820*%
%ADD13C,0.0940*%
%ADD14C,0.0730*%
%ADD15C,0.0830*%
%ADD16C,0.0680*%
%ADD17R,0.0730X0.0730*%
%ADD18C,0.0780*%
D10*
X003833Y027034D03*
X040333Y027034D03*
D11*
X023333Y021794D02*
X023333Y021274D01*
X022333Y021274D02*
X022333Y021794D01*
X021333Y021794D02*
X021333Y021274D01*
X020333Y021274D02*
X020333Y021794D01*
X020333Y018794D02*
X020333Y018274D01*
X021333Y018274D02*
X021333Y018794D01*
X022333Y018794D02*
X022333Y018274D01*
X023333Y018274D02*
X023333Y018794D01*
D12*
X022333Y016034D03*
X021333Y016034D03*
X017333Y016034D03*
X016333Y013534D03*
X015333Y012034D03*
X012333Y013534D03*
X011333Y012034D03*
X008333Y012534D03*
X006833Y012534D03*
X003333Y010534D03*
X003333Y006534D03*
X013333Y005534D03*
X013333Y009534D03*
X008333Y016534D03*
X006833Y016534D03*
X007333Y019034D03*
X011333Y019034D03*
X014333Y019034D03*
X014333Y021034D03*
X011333Y023534D03*
X007333Y023534D03*
X018333Y023534D03*
X018333Y021034D03*
X018333Y019034D03*
X022333Y023534D03*
X024333Y023534D03*
X028333Y023534D03*
X026333Y016034D03*
D13*
X026365Y007502D03*
X028333Y007502D03*
X030302Y007502D03*
X030302Y005534D03*
X028333Y005534D03*
X026365Y005534D03*
X020302Y005534D03*
X018333Y005534D03*
X016365Y005534D03*
X016365Y007502D03*
X018333Y007502D03*
X020302Y007502D03*
X010302Y007502D03*
X008333Y007502D03*
X006365Y007502D03*
X006365Y005534D03*
X008333Y005534D03*
X010302Y005534D03*
X036365Y005534D03*
X038333Y005534D03*
X040302Y005534D03*
D14*
X004333Y005549D03*
X004333Y007518D03*
X007333Y009049D03*
X008333Y009049D03*
X008333Y011018D03*
X007333Y011018D03*
X012333Y007518D03*
X014333Y008018D03*
X014333Y006049D03*
X012333Y005549D03*
X010318Y017534D03*
X008349Y017534D03*
X020833Y025534D03*
X024833Y021518D03*
X024833Y019549D03*
X024318Y017534D03*
X022349Y017534D03*
X029833Y026534D03*
D15*
X018233Y025034D03*
X014533Y025034D03*
X011133Y022034D03*
X011133Y020534D03*
X007433Y020534D03*
X007433Y022034D03*
X012533Y016034D03*
X016233Y016034D03*
X020333Y013334D03*
X020333Y009634D03*
X022833Y009334D03*
X022833Y005634D03*
D16*
X039533Y012034D02*
X040133Y012034D01*
X040133Y013034D02*
X039533Y013034D01*
X039533Y014034D02*
X040133Y014034D01*
X026333Y026234D02*
X026333Y026834D01*
X025333Y026834D02*
X025333Y026234D01*
X024333Y026234D02*
X024333Y026834D01*
X004633Y022034D02*
X004033Y022034D01*
X004033Y021034D02*
X004633Y021034D01*
X004633Y020034D02*
X004033Y020034D01*
D17*
X020833Y026534D03*
X029833Y025534D03*
D18*
X019333Y015034D03*
X017333Y014534D03*
X018333Y012034D03*
X017333Y011034D03*
X010333Y012034D03*
X009333Y009034D03*
X024333Y008034D03*
X024333Y005534D03*
X028333Y010034D03*
X036333Y010034D03*
M02*
