G75*
%MOIN*%
%OFA0B0*%
%FSLAX25Y25*%
%IPPOS*%
%LPD*%
%AMOC8*
5,1,8,0,0,1.08239X$1,22.5*
%
%ADD10C,0.01000*%
%ADD11C,0.00800*%
%ADD12C,0.00512*%
%ADD13C,0.00600*%
%ADD14R,0.40000X0.05000*%
%ADD15R,0.03000X0.10000*%
%ADD16C,0.00500*%
%ADD17C,0.00100*%
%ADD18R,0.10000X0.02000*%
%ADD19R,0.03000X0.07500*%
%ADD20C,0.00000*%
D10*
X0078333Y0001500D02*
X0078333Y0186461D01*
X0337034Y0186461D01*
X0337034Y0001500D01*
X0078333Y0001500D01*
D11*
X0097427Y0031500D02*
X0097429Y0031653D01*
X0097435Y0031807D01*
X0097445Y0031960D01*
X0097459Y0032112D01*
X0097477Y0032265D01*
X0097499Y0032416D01*
X0097524Y0032567D01*
X0097554Y0032718D01*
X0097588Y0032868D01*
X0097625Y0033016D01*
X0097666Y0033164D01*
X0097711Y0033310D01*
X0097760Y0033456D01*
X0097813Y0033600D01*
X0097869Y0033742D01*
X0097929Y0033883D01*
X0097993Y0034023D01*
X0098060Y0034161D01*
X0098131Y0034297D01*
X0098206Y0034431D01*
X0098283Y0034563D01*
X0098365Y0034693D01*
X0098449Y0034821D01*
X0098537Y0034947D01*
X0098628Y0035070D01*
X0098722Y0035191D01*
X0098820Y0035309D01*
X0098920Y0035425D01*
X0099024Y0035538D01*
X0099130Y0035649D01*
X0099239Y0035757D01*
X0099351Y0035862D01*
X0099465Y0035963D01*
X0099583Y0036062D01*
X0099702Y0036158D01*
X0099824Y0036251D01*
X0099949Y0036340D01*
X0100076Y0036427D01*
X0100205Y0036509D01*
X0100336Y0036589D01*
X0100469Y0036665D01*
X0100604Y0036738D01*
X0100741Y0036807D01*
X0100880Y0036872D01*
X0101020Y0036934D01*
X0101162Y0036992D01*
X0101305Y0037047D01*
X0101450Y0037098D01*
X0101596Y0037145D01*
X0101743Y0037188D01*
X0101891Y0037227D01*
X0102040Y0037263D01*
X0102190Y0037294D01*
X0102341Y0037322D01*
X0102492Y0037346D01*
X0102645Y0037366D01*
X0102797Y0037382D01*
X0102950Y0037394D01*
X0103103Y0037402D01*
X0103256Y0037406D01*
X0103410Y0037406D01*
X0103563Y0037402D01*
X0103716Y0037394D01*
X0103869Y0037382D01*
X0104021Y0037366D01*
X0104174Y0037346D01*
X0104325Y0037322D01*
X0104476Y0037294D01*
X0104626Y0037263D01*
X0104775Y0037227D01*
X0104923Y0037188D01*
X0105070Y0037145D01*
X0105216Y0037098D01*
X0105361Y0037047D01*
X0105504Y0036992D01*
X0105646Y0036934D01*
X0105786Y0036872D01*
X0105925Y0036807D01*
X0106062Y0036738D01*
X0106197Y0036665D01*
X0106330Y0036589D01*
X0106461Y0036509D01*
X0106590Y0036427D01*
X0106717Y0036340D01*
X0106842Y0036251D01*
X0106964Y0036158D01*
X0107083Y0036062D01*
X0107201Y0035963D01*
X0107315Y0035862D01*
X0107427Y0035757D01*
X0107536Y0035649D01*
X0107642Y0035538D01*
X0107746Y0035425D01*
X0107846Y0035309D01*
X0107944Y0035191D01*
X0108038Y0035070D01*
X0108129Y0034947D01*
X0108217Y0034821D01*
X0108301Y0034693D01*
X0108383Y0034563D01*
X0108460Y0034431D01*
X0108535Y0034297D01*
X0108606Y0034161D01*
X0108673Y0034023D01*
X0108737Y0033883D01*
X0108797Y0033742D01*
X0108853Y0033600D01*
X0108906Y0033456D01*
X0108955Y0033310D01*
X0109000Y0033164D01*
X0109041Y0033016D01*
X0109078Y0032868D01*
X0109112Y0032718D01*
X0109142Y0032567D01*
X0109167Y0032416D01*
X0109189Y0032265D01*
X0109207Y0032112D01*
X0109221Y0031960D01*
X0109231Y0031807D01*
X0109237Y0031653D01*
X0109239Y0031500D01*
X0109237Y0031347D01*
X0109231Y0031193D01*
X0109221Y0031040D01*
X0109207Y0030888D01*
X0109189Y0030735D01*
X0109167Y0030584D01*
X0109142Y0030433D01*
X0109112Y0030282D01*
X0109078Y0030132D01*
X0109041Y0029984D01*
X0109000Y0029836D01*
X0108955Y0029690D01*
X0108906Y0029544D01*
X0108853Y0029400D01*
X0108797Y0029258D01*
X0108737Y0029117D01*
X0108673Y0028977D01*
X0108606Y0028839D01*
X0108535Y0028703D01*
X0108460Y0028569D01*
X0108383Y0028437D01*
X0108301Y0028307D01*
X0108217Y0028179D01*
X0108129Y0028053D01*
X0108038Y0027930D01*
X0107944Y0027809D01*
X0107846Y0027691D01*
X0107746Y0027575D01*
X0107642Y0027462D01*
X0107536Y0027351D01*
X0107427Y0027243D01*
X0107315Y0027138D01*
X0107201Y0027037D01*
X0107083Y0026938D01*
X0106964Y0026842D01*
X0106842Y0026749D01*
X0106717Y0026660D01*
X0106590Y0026573D01*
X0106461Y0026491D01*
X0106330Y0026411D01*
X0106197Y0026335D01*
X0106062Y0026262D01*
X0105925Y0026193D01*
X0105786Y0026128D01*
X0105646Y0026066D01*
X0105504Y0026008D01*
X0105361Y0025953D01*
X0105216Y0025902D01*
X0105070Y0025855D01*
X0104923Y0025812D01*
X0104775Y0025773D01*
X0104626Y0025737D01*
X0104476Y0025706D01*
X0104325Y0025678D01*
X0104174Y0025654D01*
X0104021Y0025634D01*
X0103869Y0025618D01*
X0103716Y0025606D01*
X0103563Y0025598D01*
X0103410Y0025594D01*
X0103256Y0025594D01*
X0103103Y0025598D01*
X0102950Y0025606D01*
X0102797Y0025618D01*
X0102645Y0025634D01*
X0102492Y0025654D01*
X0102341Y0025678D01*
X0102190Y0025706D01*
X0102040Y0025737D01*
X0101891Y0025773D01*
X0101743Y0025812D01*
X0101596Y0025855D01*
X0101450Y0025902D01*
X0101305Y0025953D01*
X0101162Y0026008D01*
X0101020Y0026066D01*
X0100880Y0026128D01*
X0100741Y0026193D01*
X0100604Y0026262D01*
X0100469Y0026335D01*
X0100336Y0026411D01*
X0100205Y0026491D01*
X0100076Y0026573D01*
X0099949Y0026660D01*
X0099824Y0026749D01*
X0099702Y0026842D01*
X0099583Y0026938D01*
X0099465Y0027037D01*
X0099351Y0027138D01*
X0099239Y0027243D01*
X0099130Y0027351D01*
X0099024Y0027462D01*
X0098920Y0027575D01*
X0098820Y0027691D01*
X0098722Y0027809D01*
X0098628Y0027930D01*
X0098537Y0028053D01*
X0098449Y0028179D01*
X0098365Y0028307D01*
X0098283Y0028437D01*
X0098206Y0028569D01*
X0098131Y0028703D01*
X0098060Y0028839D01*
X0097993Y0028977D01*
X0097929Y0029117D01*
X0097869Y0029258D01*
X0097813Y0029400D01*
X0097760Y0029544D01*
X0097711Y0029690D01*
X0097666Y0029836D01*
X0097625Y0029984D01*
X0097588Y0030132D01*
X0097554Y0030282D01*
X0097524Y0030433D01*
X0097499Y0030584D01*
X0097477Y0030735D01*
X0097459Y0030888D01*
X0097445Y0031040D01*
X0097435Y0031193D01*
X0097429Y0031347D01*
X0097427Y0031500D01*
X0123609Y0069098D02*
X0123609Y0093902D01*
X0133058Y0093902D01*
X0133058Y0069098D01*
X0123609Y0069098D01*
X0094605Y0081900D02*
X0094605Y0086104D01*
X0091803Y0086104D02*
X0094605Y0081900D01*
X0091803Y0081900D02*
X0091803Y0086104D01*
X0090135Y0086104D02*
X0088733Y0086104D01*
X0089434Y0086104D02*
X0089434Y0081900D01*
X0088733Y0081900D02*
X0090135Y0081900D01*
X0123333Y0119000D02*
X0123333Y0121500D01*
X0133333Y0121500D01*
X0123333Y0121500D02*
X0113333Y0121500D01*
X0123333Y0121500D02*
X0123333Y0124000D01*
X0097427Y0156500D02*
X0097429Y0156653D01*
X0097435Y0156807D01*
X0097445Y0156960D01*
X0097459Y0157112D01*
X0097477Y0157265D01*
X0097499Y0157416D01*
X0097524Y0157567D01*
X0097554Y0157718D01*
X0097588Y0157868D01*
X0097625Y0158016D01*
X0097666Y0158164D01*
X0097711Y0158310D01*
X0097760Y0158456D01*
X0097813Y0158600D01*
X0097869Y0158742D01*
X0097929Y0158883D01*
X0097993Y0159023D01*
X0098060Y0159161D01*
X0098131Y0159297D01*
X0098206Y0159431D01*
X0098283Y0159563D01*
X0098365Y0159693D01*
X0098449Y0159821D01*
X0098537Y0159947D01*
X0098628Y0160070D01*
X0098722Y0160191D01*
X0098820Y0160309D01*
X0098920Y0160425D01*
X0099024Y0160538D01*
X0099130Y0160649D01*
X0099239Y0160757D01*
X0099351Y0160862D01*
X0099465Y0160963D01*
X0099583Y0161062D01*
X0099702Y0161158D01*
X0099824Y0161251D01*
X0099949Y0161340D01*
X0100076Y0161427D01*
X0100205Y0161509D01*
X0100336Y0161589D01*
X0100469Y0161665D01*
X0100604Y0161738D01*
X0100741Y0161807D01*
X0100880Y0161872D01*
X0101020Y0161934D01*
X0101162Y0161992D01*
X0101305Y0162047D01*
X0101450Y0162098D01*
X0101596Y0162145D01*
X0101743Y0162188D01*
X0101891Y0162227D01*
X0102040Y0162263D01*
X0102190Y0162294D01*
X0102341Y0162322D01*
X0102492Y0162346D01*
X0102645Y0162366D01*
X0102797Y0162382D01*
X0102950Y0162394D01*
X0103103Y0162402D01*
X0103256Y0162406D01*
X0103410Y0162406D01*
X0103563Y0162402D01*
X0103716Y0162394D01*
X0103869Y0162382D01*
X0104021Y0162366D01*
X0104174Y0162346D01*
X0104325Y0162322D01*
X0104476Y0162294D01*
X0104626Y0162263D01*
X0104775Y0162227D01*
X0104923Y0162188D01*
X0105070Y0162145D01*
X0105216Y0162098D01*
X0105361Y0162047D01*
X0105504Y0161992D01*
X0105646Y0161934D01*
X0105786Y0161872D01*
X0105925Y0161807D01*
X0106062Y0161738D01*
X0106197Y0161665D01*
X0106330Y0161589D01*
X0106461Y0161509D01*
X0106590Y0161427D01*
X0106717Y0161340D01*
X0106842Y0161251D01*
X0106964Y0161158D01*
X0107083Y0161062D01*
X0107201Y0160963D01*
X0107315Y0160862D01*
X0107427Y0160757D01*
X0107536Y0160649D01*
X0107642Y0160538D01*
X0107746Y0160425D01*
X0107846Y0160309D01*
X0107944Y0160191D01*
X0108038Y0160070D01*
X0108129Y0159947D01*
X0108217Y0159821D01*
X0108301Y0159693D01*
X0108383Y0159563D01*
X0108460Y0159431D01*
X0108535Y0159297D01*
X0108606Y0159161D01*
X0108673Y0159023D01*
X0108737Y0158883D01*
X0108797Y0158742D01*
X0108853Y0158600D01*
X0108906Y0158456D01*
X0108955Y0158310D01*
X0109000Y0158164D01*
X0109041Y0158016D01*
X0109078Y0157868D01*
X0109112Y0157718D01*
X0109142Y0157567D01*
X0109167Y0157416D01*
X0109189Y0157265D01*
X0109207Y0157112D01*
X0109221Y0156960D01*
X0109231Y0156807D01*
X0109237Y0156653D01*
X0109239Y0156500D01*
X0109237Y0156347D01*
X0109231Y0156193D01*
X0109221Y0156040D01*
X0109207Y0155888D01*
X0109189Y0155735D01*
X0109167Y0155584D01*
X0109142Y0155433D01*
X0109112Y0155282D01*
X0109078Y0155132D01*
X0109041Y0154984D01*
X0109000Y0154836D01*
X0108955Y0154690D01*
X0108906Y0154544D01*
X0108853Y0154400D01*
X0108797Y0154258D01*
X0108737Y0154117D01*
X0108673Y0153977D01*
X0108606Y0153839D01*
X0108535Y0153703D01*
X0108460Y0153569D01*
X0108383Y0153437D01*
X0108301Y0153307D01*
X0108217Y0153179D01*
X0108129Y0153053D01*
X0108038Y0152930D01*
X0107944Y0152809D01*
X0107846Y0152691D01*
X0107746Y0152575D01*
X0107642Y0152462D01*
X0107536Y0152351D01*
X0107427Y0152243D01*
X0107315Y0152138D01*
X0107201Y0152037D01*
X0107083Y0151938D01*
X0106964Y0151842D01*
X0106842Y0151749D01*
X0106717Y0151660D01*
X0106590Y0151573D01*
X0106461Y0151491D01*
X0106330Y0151411D01*
X0106197Y0151335D01*
X0106062Y0151262D01*
X0105925Y0151193D01*
X0105786Y0151128D01*
X0105646Y0151066D01*
X0105504Y0151008D01*
X0105361Y0150953D01*
X0105216Y0150902D01*
X0105070Y0150855D01*
X0104923Y0150812D01*
X0104775Y0150773D01*
X0104626Y0150737D01*
X0104476Y0150706D01*
X0104325Y0150678D01*
X0104174Y0150654D01*
X0104021Y0150634D01*
X0103869Y0150618D01*
X0103716Y0150606D01*
X0103563Y0150598D01*
X0103410Y0150594D01*
X0103256Y0150594D01*
X0103103Y0150598D01*
X0102950Y0150606D01*
X0102797Y0150618D01*
X0102645Y0150634D01*
X0102492Y0150654D01*
X0102341Y0150678D01*
X0102190Y0150706D01*
X0102040Y0150737D01*
X0101891Y0150773D01*
X0101743Y0150812D01*
X0101596Y0150855D01*
X0101450Y0150902D01*
X0101305Y0150953D01*
X0101162Y0151008D01*
X0101020Y0151066D01*
X0100880Y0151128D01*
X0100741Y0151193D01*
X0100604Y0151262D01*
X0100469Y0151335D01*
X0100336Y0151411D01*
X0100205Y0151491D01*
X0100076Y0151573D01*
X0099949Y0151660D01*
X0099824Y0151749D01*
X0099702Y0151842D01*
X0099583Y0151938D01*
X0099465Y0152037D01*
X0099351Y0152138D01*
X0099239Y0152243D01*
X0099130Y0152351D01*
X0099024Y0152462D01*
X0098920Y0152575D01*
X0098820Y0152691D01*
X0098722Y0152809D01*
X0098628Y0152930D01*
X0098537Y0153053D01*
X0098449Y0153179D01*
X0098365Y0153307D01*
X0098283Y0153437D01*
X0098206Y0153569D01*
X0098131Y0153703D01*
X0098060Y0153839D01*
X0097993Y0153977D01*
X0097929Y0154117D01*
X0097869Y0154258D01*
X0097813Y0154400D01*
X0097760Y0154544D01*
X0097711Y0154690D01*
X0097666Y0154836D01*
X0097625Y0154984D01*
X0097588Y0155132D01*
X0097554Y0155282D01*
X0097524Y0155433D01*
X0097499Y0155584D01*
X0097477Y0155735D01*
X0097459Y0155888D01*
X0097445Y0156040D01*
X0097435Y0156193D01*
X0097429Y0156347D01*
X0097427Y0156500D01*
X0158333Y0089000D02*
X0158333Y0084000D01*
X0145538Y0061500D02*
X0145542Y0061814D01*
X0145553Y0062128D01*
X0145573Y0062441D01*
X0145600Y0062754D01*
X0145634Y0063066D01*
X0145676Y0063377D01*
X0145726Y0063687D01*
X0145784Y0063996D01*
X0145849Y0064303D01*
X0145921Y0064609D01*
X0146001Y0064913D01*
X0146089Y0065214D01*
X0146184Y0065514D01*
X0146286Y0065811D01*
X0146395Y0066105D01*
X0146512Y0066396D01*
X0146636Y0066685D01*
X0146766Y0066971D01*
X0146904Y0067253D01*
X0147049Y0067532D01*
X0147200Y0067807D01*
X0147358Y0068078D01*
X0147523Y0068345D01*
X0147694Y0068609D01*
X0147872Y0068867D01*
X0148056Y0069122D01*
X0148246Y0069372D01*
X0148442Y0069617D01*
X0148645Y0069857D01*
X0148853Y0070093D01*
X0149066Y0070323D01*
X0149286Y0070547D01*
X0149510Y0070767D01*
X0149740Y0070980D01*
X0149976Y0071188D01*
X0150216Y0071391D01*
X0150461Y0071587D01*
X0150711Y0071777D01*
X0150966Y0071961D01*
X0151224Y0072139D01*
X0151488Y0072310D01*
X0151755Y0072475D01*
X0152026Y0072633D01*
X0152301Y0072784D01*
X0152580Y0072929D01*
X0152862Y0073067D01*
X0153148Y0073197D01*
X0153437Y0073321D01*
X0153728Y0073438D01*
X0154022Y0073547D01*
X0154319Y0073649D01*
X0154619Y0073744D01*
X0154920Y0073832D01*
X0155224Y0073912D01*
X0155530Y0073984D01*
X0155837Y0074049D01*
X0156146Y0074107D01*
X0156456Y0074157D01*
X0156767Y0074199D01*
X0157079Y0074233D01*
X0157392Y0074260D01*
X0157705Y0074280D01*
X0158019Y0074291D01*
X0158333Y0074295D01*
X0158647Y0074291D01*
X0158961Y0074280D01*
X0159274Y0074260D01*
X0159587Y0074233D01*
X0159899Y0074199D01*
X0160210Y0074157D01*
X0160520Y0074107D01*
X0160829Y0074049D01*
X0161136Y0073984D01*
X0161442Y0073912D01*
X0161746Y0073832D01*
X0162047Y0073744D01*
X0162347Y0073649D01*
X0162644Y0073547D01*
X0162938Y0073438D01*
X0163229Y0073321D01*
X0163518Y0073197D01*
X0163804Y0073067D01*
X0164086Y0072929D01*
X0164365Y0072784D01*
X0164640Y0072633D01*
X0164911Y0072475D01*
X0165178Y0072310D01*
X0165442Y0072139D01*
X0165700Y0071961D01*
X0165955Y0071777D01*
X0166205Y0071587D01*
X0166450Y0071391D01*
X0166690Y0071188D01*
X0166926Y0070980D01*
X0167156Y0070767D01*
X0167380Y0070547D01*
X0167600Y0070323D01*
X0167813Y0070093D01*
X0168021Y0069857D01*
X0168224Y0069617D01*
X0168420Y0069372D01*
X0168610Y0069122D01*
X0168794Y0068867D01*
X0168972Y0068609D01*
X0169143Y0068345D01*
X0169308Y0068078D01*
X0169466Y0067807D01*
X0169617Y0067532D01*
X0169762Y0067253D01*
X0169900Y0066971D01*
X0170030Y0066685D01*
X0170154Y0066396D01*
X0170271Y0066105D01*
X0170380Y0065811D01*
X0170482Y0065514D01*
X0170577Y0065214D01*
X0170665Y0064913D01*
X0170745Y0064609D01*
X0170817Y0064303D01*
X0170882Y0063996D01*
X0170940Y0063687D01*
X0170990Y0063377D01*
X0171032Y0063066D01*
X0171066Y0062754D01*
X0171093Y0062441D01*
X0171113Y0062128D01*
X0171124Y0061814D01*
X0171128Y0061500D01*
X0171124Y0061186D01*
X0171113Y0060872D01*
X0171093Y0060559D01*
X0171066Y0060246D01*
X0171032Y0059934D01*
X0170990Y0059623D01*
X0170940Y0059313D01*
X0170882Y0059004D01*
X0170817Y0058697D01*
X0170745Y0058391D01*
X0170665Y0058087D01*
X0170577Y0057786D01*
X0170482Y0057486D01*
X0170380Y0057189D01*
X0170271Y0056895D01*
X0170154Y0056604D01*
X0170030Y0056315D01*
X0169900Y0056029D01*
X0169762Y0055747D01*
X0169617Y0055468D01*
X0169466Y0055193D01*
X0169308Y0054922D01*
X0169143Y0054655D01*
X0168972Y0054391D01*
X0168794Y0054133D01*
X0168610Y0053878D01*
X0168420Y0053628D01*
X0168224Y0053383D01*
X0168021Y0053143D01*
X0167813Y0052907D01*
X0167600Y0052677D01*
X0167380Y0052453D01*
X0167156Y0052233D01*
X0166926Y0052020D01*
X0166690Y0051812D01*
X0166450Y0051609D01*
X0166205Y0051413D01*
X0165955Y0051223D01*
X0165700Y0051039D01*
X0165442Y0050861D01*
X0165178Y0050690D01*
X0164911Y0050525D01*
X0164640Y0050367D01*
X0164365Y0050216D01*
X0164086Y0050071D01*
X0163804Y0049933D01*
X0163518Y0049803D01*
X0163229Y0049679D01*
X0162938Y0049562D01*
X0162644Y0049453D01*
X0162347Y0049351D01*
X0162047Y0049256D01*
X0161746Y0049168D01*
X0161442Y0049088D01*
X0161136Y0049016D01*
X0160829Y0048951D01*
X0160520Y0048893D01*
X0160210Y0048843D01*
X0159899Y0048801D01*
X0159587Y0048767D01*
X0159274Y0048740D01*
X0158961Y0048720D01*
X0158647Y0048709D01*
X0158333Y0048705D01*
X0158019Y0048709D01*
X0157705Y0048720D01*
X0157392Y0048740D01*
X0157079Y0048767D01*
X0156767Y0048801D01*
X0156456Y0048843D01*
X0156146Y0048893D01*
X0155837Y0048951D01*
X0155530Y0049016D01*
X0155224Y0049088D01*
X0154920Y0049168D01*
X0154619Y0049256D01*
X0154319Y0049351D01*
X0154022Y0049453D01*
X0153728Y0049562D01*
X0153437Y0049679D01*
X0153148Y0049803D01*
X0152862Y0049933D01*
X0152580Y0050071D01*
X0152301Y0050216D01*
X0152026Y0050367D01*
X0151755Y0050525D01*
X0151488Y0050690D01*
X0151224Y0050861D01*
X0150966Y0051039D01*
X0150711Y0051223D01*
X0150461Y0051413D01*
X0150216Y0051609D01*
X0149976Y0051812D01*
X0149740Y0052020D01*
X0149510Y0052233D01*
X0149286Y0052453D01*
X0149066Y0052677D01*
X0148853Y0052907D01*
X0148645Y0053143D01*
X0148442Y0053383D01*
X0148246Y0053628D01*
X0148056Y0053878D01*
X0147872Y0054133D01*
X0147694Y0054391D01*
X0147523Y0054655D01*
X0147358Y0054922D01*
X0147200Y0055193D01*
X0147049Y0055468D01*
X0146904Y0055747D01*
X0146766Y0056029D01*
X0146636Y0056315D01*
X0146512Y0056604D01*
X0146395Y0056895D01*
X0146286Y0057189D01*
X0146184Y0057486D01*
X0146089Y0057786D01*
X0146001Y0058087D01*
X0145921Y0058391D01*
X0145849Y0058697D01*
X0145784Y0059004D01*
X0145726Y0059313D01*
X0145676Y0059623D01*
X0145634Y0059934D01*
X0145600Y0060246D01*
X0145573Y0060559D01*
X0145553Y0060872D01*
X0145542Y0061186D01*
X0145538Y0061500D01*
X0160833Y0056500D02*
X0165833Y0056500D01*
X0190538Y0061500D02*
X0190542Y0061814D01*
X0190553Y0062128D01*
X0190573Y0062441D01*
X0190600Y0062754D01*
X0190634Y0063066D01*
X0190676Y0063377D01*
X0190726Y0063687D01*
X0190784Y0063996D01*
X0190849Y0064303D01*
X0190921Y0064609D01*
X0191001Y0064913D01*
X0191089Y0065214D01*
X0191184Y0065514D01*
X0191286Y0065811D01*
X0191395Y0066105D01*
X0191512Y0066396D01*
X0191636Y0066685D01*
X0191766Y0066971D01*
X0191904Y0067253D01*
X0192049Y0067532D01*
X0192200Y0067807D01*
X0192358Y0068078D01*
X0192523Y0068345D01*
X0192694Y0068609D01*
X0192872Y0068867D01*
X0193056Y0069122D01*
X0193246Y0069372D01*
X0193442Y0069617D01*
X0193645Y0069857D01*
X0193853Y0070093D01*
X0194066Y0070323D01*
X0194286Y0070547D01*
X0194510Y0070767D01*
X0194740Y0070980D01*
X0194976Y0071188D01*
X0195216Y0071391D01*
X0195461Y0071587D01*
X0195711Y0071777D01*
X0195966Y0071961D01*
X0196224Y0072139D01*
X0196488Y0072310D01*
X0196755Y0072475D01*
X0197026Y0072633D01*
X0197301Y0072784D01*
X0197580Y0072929D01*
X0197862Y0073067D01*
X0198148Y0073197D01*
X0198437Y0073321D01*
X0198728Y0073438D01*
X0199022Y0073547D01*
X0199319Y0073649D01*
X0199619Y0073744D01*
X0199920Y0073832D01*
X0200224Y0073912D01*
X0200530Y0073984D01*
X0200837Y0074049D01*
X0201146Y0074107D01*
X0201456Y0074157D01*
X0201767Y0074199D01*
X0202079Y0074233D01*
X0202392Y0074260D01*
X0202705Y0074280D01*
X0203019Y0074291D01*
X0203333Y0074295D01*
X0203647Y0074291D01*
X0203961Y0074280D01*
X0204274Y0074260D01*
X0204587Y0074233D01*
X0204899Y0074199D01*
X0205210Y0074157D01*
X0205520Y0074107D01*
X0205829Y0074049D01*
X0206136Y0073984D01*
X0206442Y0073912D01*
X0206746Y0073832D01*
X0207047Y0073744D01*
X0207347Y0073649D01*
X0207644Y0073547D01*
X0207938Y0073438D01*
X0208229Y0073321D01*
X0208518Y0073197D01*
X0208804Y0073067D01*
X0209086Y0072929D01*
X0209365Y0072784D01*
X0209640Y0072633D01*
X0209911Y0072475D01*
X0210178Y0072310D01*
X0210442Y0072139D01*
X0210700Y0071961D01*
X0210955Y0071777D01*
X0211205Y0071587D01*
X0211450Y0071391D01*
X0211690Y0071188D01*
X0211926Y0070980D01*
X0212156Y0070767D01*
X0212380Y0070547D01*
X0212600Y0070323D01*
X0212813Y0070093D01*
X0213021Y0069857D01*
X0213224Y0069617D01*
X0213420Y0069372D01*
X0213610Y0069122D01*
X0213794Y0068867D01*
X0213972Y0068609D01*
X0214143Y0068345D01*
X0214308Y0068078D01*
X0214466Y0067807D01*
X0214617Y0067532D01*
X0214762Y0067253D01*
X0214900Y0066971D01*
X0215030Y0066685D01*
X0215154Y0066396D01*
X0215271Y0066105D01*
X0215380Y0065811D01*
X0215482Y0065514D01*
X0215577Y0065214D01*
X0215665Y0064913D01*
X0215745Y0064609D01*
X0215817Y0064303D01*
X0215882Y0063996D01*
X0215940Y0063687D01*
X0215990Y0063377D01*
X0216032Y0063066D01*
X0216066Y0062754D01*
X0216093Y0062441D01*
X0216113Y0062128D01*
X0216124Y0061814D01*
X0216128Y0061500D01*
X0216124Y0061186D01*
X0216113Y0060872D01*
X0216093Y0060559D01*
X0216066Y0060246D01*
X0216032Y0059934D01*
X0215990Y0059623D01*
X0215940Y0059313D01*
X0215882Y0059004D01*
X0215817Y0058697D01*
X0215745Y0058391D01*
X0215665Y0058087D01*
X0215577Y0057786D01*
X0215482Y0057486D01*
X0215380Y0057189D01*
X0215271Y0056895D01*
X0215154Y0056604D01*
X0215030Y0056315D01*
X0214900Y0056029D01*
X0214762Y0055747D01*
X0214617Y0055468D01*
X0214466Y0055193D01*
X0214308Y0054922D01*
X0214143Y0054655D01*
X0213972Y0054391D01*
X0213794Y0054133D01*
X0213610Y0053878D01*
X0213420Y0053628D01*
X0213224Y0053383D01*
X0213021Y0053143D01*
X0212813Y0052907D01*
X0212600Y0052677D01*
X0212380Y0052453D01*
X0212156Y0052233D01*
X0211926Y0052020D01*
X0211690Y0051812D01*
X0211450Y0051609D01*
X0211205Y0051413D01*
X0210955Y0051223D01*
X0210700Y0051039D01*
X0210442Y0050861D01*
X0210178Y0050690D01*
X0209911Y0050525D01*
X0209640Y0050367D01*
X0209365Y0050216D01*
X0209086Y0050071D01*
X0208804Y0049933D01*
X0208518Y0049803D01*
X0208229Y0049679D01*
X0207938Y0049562D01*
X0207644Y0049453D01*
X0207347Y0049351D01*
X0207047Y0049256D01*
X0206746Y0049168D01*
X0206442Y0049088D01*
X0206136Y0049016D01*
X0205829Y0048951D01*
X0205520Y0048893D01*
X0205210Y0048843D01*
X0204899Y0048801D01*
X0204587Y0048767D01*
X0204274Y0048740D01*
X0203961Y0048720D01*
X0203647Y0048709D01*
X0203333Y0048705D01*
X0203019Y0048709D01*
X0202705Y0048720D01*
X0202392Y0048740D01*
X0202079Y0048767D01*
X0201767Y0048801D01*
X0201456Y0048843D01*
X0201146Y0048893D01*
X0200837Y0048951D01*
X0200530Y0049016D01*
X0200224Y0049088D01*
X0199920Y0049168D01*
X0199619Y0049256D01*
X0199319Y0049351D01*
X0199022Y0049453D01*
X0198728Y0049562D01*
X0198437Y0049679D01*
X0198148Y0049803D01*
X0197862Y0049933D01*
X0197580Y0050071D01*
X0197301Y0050216D01*
X0197026Y0050367D01*
X0196755Y0050525D01*
X0196488Y0050690D01*
X0196224Y0050861D01*
X0195966Y0051039D01*
X0195711Y0051223D01*
X0195461Y0051413D01*
X0195216Y0051609D01*
X0194976Y0051812D01*
X0194740Y0052020D01*
X0194510Y0052233D01*
X0194286Y0052453D01*
X0194066Y0052677D01*
X0193853Y0052907D01*
X0193645Y0053143D01*
X0193442Y0053383D01*
X0193246Y0053628D01*
X0193056Y0053878D01*
X0192872Y0054133D01*
X0192694Y0054391D01*
X0192523Y0054655D01*
X0192358Y0054922D01*
X0192200Y0055193D01*
X0192049Y0055468D01*
X0191904Y0055747D01*
X0191766Y0056029D01*
X0191636Y0056315D01*
X0191512Y0056604D01*
X0191395Y0056895D01*
X0191286Y0057189D01*
X0191184Y0057486D01*
X0191089Y0057786D01*
X0191001Y0058087D01*
X0190921Y0058391D01*
X0190849Y0058697D01*
X0190784Y0059004D01*
X0190726Y0059313D01*
X0190676Y0059623D01*
X0190634Y0059934D01*
X0190600Y0060246D01*
X0190573Y0060559D01*
X0190553Y0060872D01*
X0190542Y0061186D01*
X0190538Y0061500D01*
X0205833Y0056500D02*
X0210833Y0056500D01*
X0230833Y0071500D02*
X0233333Y0071500D01*
X0233333Y0081500D01*
X0248609Y0083902D02*
X0258058Y0083902D01*
X0258058Y0059098D01*
X0248609Y0059098D01*
X0248609Y0083902D01*
X0235833Y0071500D02*
X0233333Y0071500D01*
X0233333Y0061500D01*
X0203333Y0084000D02*
X0203333Y0089000D01*
X0258609Y0139098D02*
X0258609Y0163902D01*
X0268058Y0163902D01*
X0268058Y0139098D01*
X0258609Y0139098D01*
X0283333Y0129000D02*
X0283333Y0124000D01*
X0275538Y0131500D02*
X0275542Y0131814D01*
X0275553Y0132128D01*
X0275573Y0132441D01*
X0275600Y0132754D01*
X0275634Y0133066D01*
X0275676Y0133377D01*
X0275726Y0133687D01*
X0275784Y0133996D01*
X0275849Y0134303D01*
X0275921Y0134609D01*
X0276001Y0134913D01*
X0276089Y0135214D01*
X0276184Y0135514D01*
X0276286Y0135811D01*
X0276395Y0136105D01*
X0276512Y0136396D01*
X0276636Y0136685D01*
X0276766Y0136971D01*
X0276904Y0137253D01*
X0277049Y0137532D01*
X0277200Y0137807D01*
X0277358Y0138078D01*
X0277523Y0138345D01*
X0277694Y0138609D01*
X0277872Y0138867D01*
X0278056Y0139122D01*
X0278246Y0139372D01*
X0278442Y0139617D01*
X0278645Y0139857D01*
X0278853Y0140093D01*
X0279066Y0140323D01*
X0279286Y0140547D01*
X0279510Y0140767D01*
X0279740Y0140980D01*
X0279976Y0141188D01*
X0280216Y0141391D01*
X0280461Y0141587D01*
X0280711Y0141777D01*
X0280966Y0141961D01*
X0281224Y0142139D01*
X0281488Y0142310D01*
X0281755Y0142475D01*
X0282026Y0142633D01*
X0282301Y0142784D01*
X0282580Y0142929D01*
X0282862Y0143067D01*
X0283148Y0143197D01*
X0283437Y0143321D01*
X0283728Y0143438D01*
X0284022Y0143547D01*
X0284319Y0143649D01*
X0284619Y0143744D01*
X0284920Y0143832D01*
X0285224Y0143912D01*
X0285530Y0143984D01*
X0285837Y0144049D01*
X0286146Y0144107D01*
X0286456Y0144157D01*
X0286767Y0144199D01*
X0287079Y0144233D01*
X0287392Y0144260D01*
X0287705Y0144280D01*
X0288019Y0144291D01*
X0288333Y0144295D01*
X0288647Y0144291D01*
X0288961Y0144280D01*
X0289274Y0144260D01*
X0289587Y0144233D01*
X0289899Y0144199D01*
X0290210Y0144157D01*
X0290520Y0144107D01*
X0290829Y0144049D01*
X0291136Y0143984D01*
X0291442Y0143912D01*
X0291746Y0143832D01*
X0292047Y0143744D01*
X0292347Y0143649D01*
X0292644Y0143547D01*
X0292938Y0143438D01*
X0293229Y0143321D01*
X0293518Y0143197D01*
X0293804Y0143067D01*
X0294086Y0142929D01*
X0294365Y0142784D01*
X0294640Y0142633D01*
X0294911Y0142475D01*
X0295178Y0142310D01*
X0295442Y0142139D01*
X0295700Y0141961D01*
X0295955Y0141777D01*
X0296205Y0141587D01*
X0296450Y0141391D01*
X0296690Y0141188D01*
X0296926Y0140980D01*
X0297156Y0140767D01*
X0297380Y0140547D01*
X0297600Y0140323D01*
X0297813Y0140093D01*
X0298021Y0139857D01*
X0298224Y0139617D01*
X0298420Y0139372D01*
X0298610Y0139122D01*
X0298794Y0138867D01*
X0298972Y0138609D01*
X0299143Y0138345D01*
X0299308Y0138078D01*
X0299466Y0137807D01*
X0299617Y0137532D01*
X0299762Y0137253D01*
X0299900Y0136971D01*
X0300030Y0136685D01*
X0300154Y0136396D01*
X0300271Y0136105D01*
X0300380Y0135811D01*
X0300482Y0135514D01*
X0300577Y0135214D01*
X0300665Y0134913D01*
X0300745Y0134609D01*
X0300817Y0134303D01*
X0300882Y0133996D01*
X0300940Y0133687D01*
X0300990Y0133377D01*
X0301032Y0133066D01*
X0301066Y0132754D01*
X0301093Y0132441D01*
X0301113Y0132128D01*
X0301124Y0131814D01*
X0301128Y0131500D01*
X0301124Y0131186D01*
X0301113Y0130872D01*
X0301093Y0130559D01*
X0301066Y0130246D01*
X0301032Y0129934D01*
X0300990Y0129623D01*
X0300940Y0129313D01*
X0300882Y0129004D01*
X0300817Y0128697D01*
X0300745Y0128391D01*
X0300665Y0128087D01*
X0300577Y0127786D01*
X0300482Y0127486D01*
X0300380Y0127189D01*
X0300271Y0126895D01*
X0300154Y0126604D01*
X0300030Y0126315D01*
X0299900Y0126029D01*
X0299762Y0125747D01*
X0299617Y0125468D01*
X0299466Y0125193D01*
X0299308Y0124922D01*
X0299143Y0124655D01*
X0298972Y0124391D01*
X0298794Y0124133D01*
X0298610Y0123878D01*
X0298420Y0123628D01*
X0298224Y0123383D01*
X0298021Y0123143D01*
X0297813Y0122907D01*
X0297600Y0122677D01*
X0297380Y0122453D01*
X0297156Y0122233D01*
X0296926Y0122020D01*
X0296690Y0121812D01*
X0296450Y0121609D01*
X0296205Y0121413D01*
X0295955Y0121223D01*
X0295700Y0121039D01*
X0295442Y0120861D01*
X0295178Y0120690D01*
X0294911Y0120525D01*
X0294640Y0120367D01*
X0294365Y0120216D01*
X0294086Y0120071D01*
X0293804Y0119933D01*
X0293518Y0119803D01*
X0293229Y0119679D01*
X0292938Y0119562D01*
X0292644Y0119453D01*
X0292347Y0119351D01*
X0292047Y0119256D01*
X0291746Y0119168D01*
X0291442Y0119088D01*
X0291136Y0119016D01*
X0290829Y0118951D01*
X0290520Y0118893D01*
X0290210Y0118843D01*
X0289899Y0118801D01*
X0289587Y0118767D01*
X0289274Y0118740D01*
X0288961Y0118720D01*
X0288647Y0118709D01*
X0288333Y0118705D01*
X0288019Y0118709D01*
X0287705Y0118720D01*
X0287392Y0118740D01*
X0287079Y0118767D01*
X0286767Y0118801D01*
X0286456Y0118843D01*
X0286146Y0118893D01*
X0285837Y0118951D01*
X0285530Y0119016D01*
X0285224Y0119088D01*
X0284920Y0119168D01*
X0284619Y0119256D01*
X0284319Y0119351D01*
X0284022Y0119453D01*
X0283728Y0119562D01*
X0283437Y0119679D01*
X0283148Y0119803D01*
X0282862Y0119933D01*
X0282580Y0120071D01*
X0282301Y0120216D01*
X0282026Y0120367D01*
X0281755Y0120525D01*
X0281488Y0120690D01*
X0281224Y0120861D01*
X0280966Y0121039D01*
X0280711Y0121223D01*
X0280461Y0121413D01*
X0280216Y0121609D01*
X0279976Y0121812D01*
X0279740Y0122020D01*
X0279510Y0122233D01*
X0279286Y0122453D01*
X0279066Y0122677D01*
X0278853Y0122907D01*
X0278645Y0123143D01*
X0278442Y0123383D01*
X0278246Y0123628D01*
X0278056Y0123878D01*
X0277872Y0124133D01*
X0277694Y0124391D01*
X0277523Y0124655D01*
X0277358Y0124922D01*
X0277200Y0125193D01*
X0277049Y0125468D01*
X0276904Y0125747D01*
X0276766Y0126029D01*
X0276636Y0126315D01*
X0276512Y0126604D01*
X0276395Y0126895D01*
X0276286Y0127189D01*
X0276184Y0127486D01*
X0276089Y0127786D01*
X0276001Y0128087D01*
X0275921Y0128391D01*
X0275849Y0128697D01*
X0275784Y0129004D01*
X0275726Y0129313D01*
X0275676Y0129623D01*
X0275634Y0129934D01*
X0275600Y0130246D01*
X0275573Y0130559D01*
X0275553Y0130872D01*
X0275542Y0131186D01*
X0275538Y0131500D01*
X0307427Y0156500D02*
X0307429Y0156653D01*
X0307435Y0156807D01*
X0307445Y0156960D01*
X0307459Y0157112D01*
X0307477Y0157265D01*
X0307499Y0157416D01*
X0307524Y0157567D01*
X0307554Y0157718D01*
X0307588Y0157868D01*
X0307625Y0158016D01*
X0307666Y0158164D01*
X0307711Y0158310D01*
X0307760Y0158456D01*
X0307813Y0158600D01*
X0307869Y0158742D01*
X0307929Y0158883D01*
X0307993Y0159023D01*
X0308060Y0159161D01*
X0308131Y0159297D01*
X0308206Y0159431D01*
X0308283Y0159563D01*
X0308365Y0159693D01*
X0308449Y0159821D01*
X0308537Y0159947D01*
X0308628Y0160070D01*
X0308722Y0160191D01*
X0308820Y0160309D01*
X0308920Y0160425D01*
X0309024Y0160538D01*
X0309130Y0160649D01*
X0309239Y0160757D01*
X0309351Y0160862D01*
X0309465Y0160963D01*
X0309583Y0161062D01*
X0309702Y0161158D01*
X0309824Y0161251D01*
X0309949Y0161340D01*
X0310076Y0161427D01*
X0310205Y0161509D01*
X0310336Y0161589D01*
X0310469Y0161665D01*
X0310604Y0161738D01*
X0310741Y0161807D01*
X0310880Y0161872D01*
X0311020Y0161934D01*
X0311162Y0161992D01*
X0311305Y0162047D01*
X0311450Y0162098D01*
X0311596Y0162145D01*
X0311743Y0162188D01*
X0311891Y0162227D01*
X0312040Y0162263D01*
X0312190Y0162294D01*
X0312341Y0162322D01*
X0312492Y0162346D01*
X0312645Y0162366D01*
X0312797Y0162382D01*
X0312950Y0162394D01*
X0313103Y0162402D01*
X0313256Y0162406D01*
X0313410Y0162406D01*
X0313563Y0162402D01*
X0313716Y0162394D01*
X0313869Y0162382D01*
X0314021Y0162366D01*
X0314174Y0162346D01*
X0314325Y0162322D01*
X0314476Y0162294D01*
X0314626Y0162263D01*
X0314775Y0162227D01*
X0314923Y0162188D01*
X0315070Y0162145D01*
X0315216Y0162098D01*
X0315361Y0162047D01*
X0315504Y0161992D01*
X0315646Y0161934D01*
X0315786Y0161872D01*
X0315925Y0161807D01*
X0316062Y0161738D01*
X0316197Y0161665D01*
X0316330Y0161589D01*
X0316461Y0161509D01*
X0316590Y0161427D01*
X0316717Y0161340D01*
X0316842Y0161251D01*
X0316964Y0161158D01*
X0317083Y0161062D01*
X0317201Y0160963D01*
X0317315Y0160862D01*
X0317427Y0160757D01*
X0317536Y0160649D01*
X0317642Y0160538D01*
X0317746Y0160425D01*
X0317846Y0160309D01*
X0317944Y0160191D01*
X0318038Y0160070D01*
X0318129Y0159947D01*
X0318217Y0159821D01*
X0318301Y0159693D01*
X0318383Y0159563D01*
X0318460Y0159431D01*
X0318535Y0159297D01*
X0318606Y0159161D01*
X0318673Y0159023D01*
X0318737Y0158883D01*
X0318797Y0158742D01*
X0318853Y0158600D01*
X0318906Y0158456D01*
X0318955Y0158310D01*
X0319000Y0158164D01*
X0319041Y0158016D01*
X0319078Y0157868D01*
X0319112Y0157718D01*
X0319142Y0157567D01*
X0319167Y0157416D01*
X0319189Y0157265D01*
X0319207Y0157112D01*
X0319221Y0156960D01*
X0319231Y0156807D01*
X0319237Y0156653D01*
X0319239Y0156500D01*
X0319237Y0156347D01*
X0319231Y0156193D01*
X0319221Y0156040D01*
X0319207Y0155888D01*
X0319189Y0155735D01*
X0319167Y0155584D01*
X0319142Y0155433D01*
X0319112Y0155282D01*
X0319078Y0155132D01*
X0319041Y0154984D01*
X0319000Y0154836D01*
X0318955Y0154690D01*
X0318906Y0154544D01*
X0318853Y0154400D01*
X0318797Y0154258D01*
X0318737Y0154117D01*
X0318673Y0153977D01*
X0318606Y0153839D01*
X0318535Y0153703D01*
X0318460Y0153569D01*
X0318383Y0153437D01*
X0318301Y0153307D01*
X0318217Y0153179D01*
X0318129Y0153053D01*
X0318038Y0152930D01*
X0317944Y0152809D01*
X0317846Y0152691D01*
X0317746Y0152575D01*
X0317642Y0152462D01*
X0317536Y0152351D01*
X0317427Y0152243D01*
X0317315Y0152138D01*
X0317201Y0152037D01*
X0317083Y0151938D01*
X0316964Y0151842D01*
X0316842Y0151749D01*
X0316717Y0151660D01*
X0316590Y0151573D01*
X0316461Y0151491D01*
X0316330Y0151411D01*
X0316197Y0151335D01*
X0316062Y0151262D01*
X0315925Y0151193D01*
X0315786Y0151128D01*
X0315646Y0151066D01*
X0315504Y0151008D01*
X0315361Y0150953D01*
X0315216Y0150902D01*
X0315070Y0150855D01*
X0314923Y0150812D01*
X0314775Y0150773D01*
X0314626Y0150737D01*
X0314476Y0150706D01*
X0314325Y0150678D01*
X0314174Y0150654D01*
X0314021Y0150634D01*
X0313869Y0150618D01*
X0313716Y0150606D01*
X0313563Y0150598D01*
X0313410Y0150594D01*
X0313256Y0150594D01*
X0313103Y0150598D01*
X0312950Y0150606D01*
X0312797Y0150618D01*
X0312645Y0150634D01*
X0312492Y0150654D01*
X0312341Y0150678D01*
X0312190Y0150706D01*
X0312040Y0150737D01*
X0311891Y0150773D01*
X0311743Y0150812D01*
X0311596Y0150855D01*
X0311450Y0150902D01*
X0311305Y0150953D01*
X0311162Y0151008D01*
X0311020Y0151066D01*
X0310880Y0151128D01*
X0310741Y0151193D01*
X0310604Y0151262D01*
X0310469Y0151335D01*
X0310336Y0151411D01*
X0310205Y0151491D01*
X0310076Y0151573D01*
X0309949Y0151660D01*
X0309824Y0151749D01*
X0309702Y0151842D01*
X0309583Y0151938D01*
X0309465Y0152037D01*
X0309351Y0152138D01*
X0309239Y0152243D01*
X0309130Y0152351D01*
X0309024Y0152462D01*
X0308920Y0152575D01*
X0308820Y0152691D01*
X0308722Y0152809D01*
X0308628Y0152930D01*
X0308537Y0153053D01*
X0308449Y0153179D01*
X0308365Y0153307D01*
X0308283Y0153437D01*
X0308206Y0153569D01*
X0308131Y0153703D01*
X0308060Y0153839D01*
X0307993Y0153977D01*
X0307929Y0154117D01*
X0307869Y0154258D01*
X0307813Y0154400D01*
X0307760Y0154544D01*
X0307711Y0154690D01*
X0307666Y0154836D01*
X0307625Y0154984D01*
X0307588Y0155132D01*
X0307554Y0155282D01*
X0307524Y0155433D01*
X0307499Y0155584D01*
X0307477Y0155735D01*
X0307459Y0155888D01*
X0307445Y0156040D01*
X0307435Y0156193D01*
X0307429Y0156347D01*
X0307427Y0156500D01*
X0240735Y0166776D02*
X0215932Y0166776D01*
X0215932Y0176224D01*
X0240735Y0176224D01*
X0240735Y0166776D01*
X0217783Y0193662D02*
X0214981Y0193662D01*
X0216382Y0193662D02*
X0216382Y0197865D01*
X0214981Y0196464D01*
X0213179Y0197165D02*
X0210377Y0194362D01*
X0210377Y0193662D01*
X0208776Y0193662D02*
X0208075Y0193662D01*
X0208075Y0194362D01*
X0208776Y0194362D01*
X0208776Y0193662D01*
X0206273Y0194362D02*
X0206273Y0195764D01*
X0205573Y0196464D01*
X0204872Y0196464D01*
X0203471Y0195764D01*
X0203471Y0197865D01*
X0206273Y0197865D01*
X0210377Y0197865D02*
X0213179Y0197865D01*
X0213179Y0197165D01*
X0206273Y0194362D02*
X0205573Y0193662D01*
X0204172Y0193662D01*
X0203471Y0194362D01*
X0201669Y0194362D02*
X0201669Y0195063D01*
X0200969Y0195764D01*
X0198867Y0195764D01*
X0198867Y0194362D01*
X0199568Y0193662D01*
X0200969Y0193662D01*
X0201669Y0194362D01*
X0200268Y0197165D02*
X0198867Y0195764D01*
X0200268Y0197165D02*
X0201669Y0197865D01*
X0289434Y0096104D02*
X0288733Y0095403D01*
X0288733Y0092601D01*
X0289434Y0091900D01*
X0290835Y0091900D01*
X0291536Y0092601D01*
X0291536Y0095403D01*
X0290835Y0096104D01*
X0289434Y0096104D01*
X0293337Y0096104D02*
X0293337Y0092601D01*
X0294038Y0091900D01*
X0295439Y0091900D01*
X0296140Y0092601D01*
X0296140Y0096104D01*
X0297941Y0096104D02*
X0300744Y0096104D01*
X0299342Y0096104D02*
X0299342Y0091900D01*
X0307427Y0031500D02*
X0307429Y0031653D01*
X0307435Y0031807D01*
X0307445Y0031960D01*
X0307459Y0032112D01*
X0307477Y0032265D01*
X0307499Y0032416D01*
X0307524Y0032567D01*
X0307554Y0032718D01*
X0307588Y0032868D01*
X0307625Y0033016D01*
X0307666Y0033164D01*
X0307711Y0033310D01*
X0307760Y0033456D01*
X0307813Y0033600D01*
X0307869Y0033742D01*
X0307929Y0033883D01*
X0307993Y0034023D01*
X0308060Y0034161D01*
X0308131Y0034297D01*
X0308206Y0034431D01*
X0308283Y0034563D01*
X0308365Y0034693D01*
X0308449Y0034821D01*
X0308537Y0034947D01*
X0308628Y0035070D01*
X0308722Y0035191D01*
X0308820Y0035309D01*
X0308920Y0035425D01*
X0309024Y0035538D01*
X0309130Y0035649D01*
X0309239Y0035757D01*
X0309351Y0035862D01*
X0309465Y0035963D01*
X0309583Y0036062D01*
X0309702Y0036158D01*
X0309824Y0036251D01*
X0309949Y0036340D01*
X0310076Y0036427D01*
X0310205Y0036509D01*
X0310336Y0036589D01*
X0310469Y0036665D01*
X0310604Y0036738D01*
X0310741Y0036807D01*
X0310880Y0036872D01*
X0311020Y0036934D01*
X0311162Y0036992D01*
X0311305Y0037047D01*
X0311450Y0037098D01*
X0311596Y0037145D01*
X0311743Y0037188D01*
X0311891Y0037227D01*
X0312040Y0037263D01*
X0312190Y0037294D01*
X0312341Y0037322D01*
X0312492Y0037346D01*
X0312645Y0037366D01*
X0312797Y0037382D01*
X0312950Y0037394D01*
X0313103Y0037402D01*
X0313256Y0037406D01*
X0313410Y0037406D01*
X0313563Y0037402D01*
X0313716Y0037394D01*
X0313869Y0037382D01*
X0314021Y0037366D01*
X0314174Y0037346D01*
X0314325Y0037322D01*
X0314476Y0037294D01*
X0314626Y0037263D01*
X0314775Y0037227D01*
X0314923Y0037188D01*
X0315070Y0037145D01*
X0315216Y0037098D01*
X0315361Y0037047D01*
X0315504Y0036992D01*
X0315646Y0036934D01*
X0315786Y0036872D01*
X0315925Y0036807D01*
X0316062Y0036738D01*
X0316197Y0036665D01*
X0316330Y0036589D01*
X0316461Y0036509D01*
X0316590Y0036427D01*
X0316717Y0036340D01*
X0316842Y0036251D01*
X0316964Y0036158D01*
X0317083Y0036062D01*
X0317201Y0035963D01*
X0317315Y0035862D01*
X0317427Y0035757D01*
X0317536Y0035649D01*
X0317642Y0035538D01*
X0317746Y0035425D01*
X0317846Y0035309D01*
X0317944Y0035191D01*
X0318038Y0035070D01*
X0318129Y0034947D01*
X0318217Y0034821D01*
X0318301Y0034693D01*
X0318383Y0034563D01*
X0318460Y0034431D01*
X0318535Y0034297D01*
X0318606Y0034161D01*
X0318673Y0034023D01*
X0318737Y0033883D01*
X0318797Y0033742D01*
X0318853Y0033600D01*
X0318906Y0033456D01*
X0318955Y0033310D01*
X0319000Y0033164D01*
X0319041Y0033016D01*
X0319078Y0032868D01*
X0319112Y0032718D01*
X0319142Y0032567D01*
X0319167Y0032416D01*
X0319189Y0032265D01*
X0319207Y0032112D01*
X0319221Y0031960D01*
X0319231Y0031807D01*
X0319237Y0031653D01*
X0319239Y0031500D01*
X0319237Y0031347D01*
X0319231Y0031193D01*
X0319221Y0031040D01*
X0319207Y0030888D01*
X0319189Y0030735D01*
X0319167Y0030584D01*
X0319142Y0030433D01*
X0319112Y0030282D01*
X0319078Y0030132D01*
X0319041Y0029984D01*
X0319000Y0029836D01*
X0318955Y0029690D01*
X0318906Y0029544D01*
X0318853Y0029400D01*
X0318797Y0029258D01*
X0318737Y0029117D01*
X0318673Y0028977D01*
X0318606Y0028839D01*
X0318535Y0028703D01*
X0318460Y0028569D01*
X0318383Y0028437D01*
X0318301Y0028307D01*
X0318217Y0028179D01*
X0318129Y0028053D01*
X0318038Y0027930D01*
X0317944Y0027809D01*
X0317846Y0027691D01*
X0317746Y0027575D01*
X0317642Y0027462D01*
X0317536Y0027351D01*
X0317427Y0027243D01*
X0317315Y0027138D01*
X0317201Y0027037D01*
X0317083Y0026938D01*
X0316964Y0026842D01*
X0316842Y0026749D01*
X0316717Y0026660D01*
X0316590Y0026573D01*
X0316461Y0026491D01*
X0316330Y0026411D01*
X0316197Y0026335D01*
X0316062Y0026262D01*
X0315925Y0026193D01*
X0315786Y0026128D01*
X0315646Y0026066D01*
X0315504Y0026008D01*
X0315361Y0025953D01*
X0315216Y0025902D01*
X0315070Y0025855D01*
X0314923Y0025812D01*
X0314775Y0025773D01*
X0314626Y0025737D01*
X0314476Y0025706D01*
X0314325Y0025678D01*
X0314174Y0025654D01*
X0314021Y0025634D01*
X0313869Y0025618D01*
X0313716Y0025606D01*
X0313563Y0025598D01*
X0313410Y0025594D01*
X0313256Y0025594D01*
X0313103Y0025598D01*
X0312950Y0025606D01*
X0312797Y0025618D01*
X0312645Y0025634D01*
X0312492Y0025654D01*
X0312341Y0025678D01*
X0312190Y0025706D01*
X0312040Y0025737D01*
X0311891Y0025773D01*
X0311743Y0025812D01*
X0311596Y0025855D01*
X0311450Y0025902D01*
X0311305Y0025953D01*
X0311162Y0026008D01*
X0311020Y0026066D01*
X0310880Y0026128D01*
X0310741Y0026193D01*
X0310604Y0026262D01*
X0310469Y0026335D01*
X0310336Y0026411D01*
X0310205Y0026491D01*
X0310076Y0026573D01*
X0309949Y0026660D01*
X0309824Y0026749D01*
X0309702Y0026842D01*
X0309583Y0026938D01*
X0309465Y0027037D01*
X0309351Y0027138D01*
X0309239Y0027243D01*
X0309130Y0027351D01*
X0309024Y0027462D01*
X0308920Y0027575D01*
X0308820Y0027691D01*
X0308722Y0027809D01*
X0308628Y0027930D01*
X0308537Y0028053D01*
X0308449Y0028179D01*
X0308365Y0028307D01*
X0308283Y0028437D01*
X0308206Y0028569D01*
X0308131Y0028703D01*
X0308060Y0028839D01*
X0307993Y0028977D01*
X0307929Y0029117D01*
X0307869Y0029258D01*
X0307813Y0029400D01*
X0307760Y0029544D01*
X0307711Y0029690D01*
X0307666Y0029836D01*
X0307625Y0029984D01*
X0307588Y0030132D01*
X0307554Y0030282D01*
X0307524Y0030433D01*
X0307499Y0030584D01*
X0307477Y0030735D01*
X0307459Y0030888D01*
X0307445Y0031040D01*
X0307435Y0031193D01*
X0307429Y0031347D01*
X0307427Y0031500D01*
X0194159Y0014002D02*
X0191357Y0014002D01*
X0192758Y0015403D02*
X0192758Y0012601D01*
X0184951Y0012601D02*
X0184951Y0015403D01*
X0184251Y0016104D01*
X0182149Y0016104D01*
X0182149Y0011900D01*
X0184251Y0011900D01*
X0184951Y0012601D01*
X0180347Y0011900D02*
X0180347Y0016104D01*
X0177545Y0016104D02*
X0180347Y0011900D01*
X0177545Y0011900D02*
X0177545Y0016104D01*
X0175744Y0015403D02*
X0175043Y0016104D01*
X0173642Y0016104D01*
X0172941Y0015403D01*
X0172941Y0012601D01*
X0173642Y0011900D01*
X0175043Y0011900D01*
X0175744Y0012601D01*
X0175744Y0014002D01*
X0174342Y0014002D01*
X0166536Y0014002D02*
X0163733Y0014002D01*
D12*
X0078333Y0186461D02*
X0078333Y0199177D01*
X0078589Y0191500D02*
X0088570Y0190476D01*
X0088570Y0190243D02*
X0078589Y0191500D01*
X0088570Y0192524D01*
X0088570Y0192757D02*
X0088570Y0190243D01*
X0088570Y0190988D02*
X0078589Y0191500D01*
X0088570Y0192012D01*
X0088570Y0192757D02*
X0078589Y0191500D01*
X0336778Y0191500D01*
X0326798Y0190476D01*
X0326798Y0190243D02*
X0336778Y0191500D01*
X0326798Y0192524D01*
X0326798Y0192757D02*
X0326798Y0190243D01*
X0326798Y0190988D02*
X0336778Y0191500D01*
X0326798Y0192012D01*
X0326798Y0192757D02*
X0336778Y0191500D01*
X0337034Y0186461D02*
X0337034Y0199177D01*
D13*
X0301833Y0156500D02*
X0301836Y0156782D01*
X0301847Y0157064D01*
X0301864Y0157346D01*
X0301888Y0157627D01*
X0301919Y0157908D01*
X0301957Y0158187D01*
X0302002Y0158466D01*
X0302054Y0158744D01*
X0302112Y0159020D01*
X0302178Y0159294D01*
X0302250Y0159567D01*
X0302328Y0159838D01*
X0302413Y0160107D01*
X0302505Y0160374D01*
X0302604Y0160639D01*
X0302708Y0160901D01*
X0302820Y0161160D01*
X0302937Y0161417D01*
X0303061Y0161671D01*
X0303191Y0161921D01*
X0303327Y0162168D01*
X0303469Y0162412D01*
X0303617Y0162652D01*
X0303771Y0162889D01*
X0303931Y0163122D01*
X0304096Y0163351D01*
X0304267Y0163575D01*
X0304443Y0163796D01*
X0304625Y0164011D01*
X0304812Y0164223D01*
X0305004Y0164430D01*
X0305201Y0164632D01*
X0305403Y0164829D01*
X0305610Y0165021D01*
X0305822Y0165208D01*
X0306037Y0165390D01*
X0306258Y0165566D01*
X0306482Y0165737D01*
X0306711Y0165902D01*
X0306944Y0166062D01*
X0307181Y0166216D01*
X0307421Y0166364D01*
X0307665Y0166506D01*
X0307912Y0166642D01*
X0308162Y0166772D01*
X0308416Y0166896D01*
X0308673Y0167013D01*
X0308932Y0167125D01*
X0309194Y0167229D01*
X0309459Y0167328D01*
X0309726Y0167420D01*
X0309995Y0167505D01*
X0310266Y0167583D01*
X0310539Y0167655D01*
X0310813Y0167721D01*
X0311089Y0167779D01*
X0311367Y0167831D01*
X0311646Y0167876D01*
X0311925Y0167914D01*
X0312206Y0167945D01*
X0312487Y0167969D01*
X0312769Y0167986D01*
X0313051Y0167997D01*
X0313333Y0168000D01*
X0313615Y0167997D01*
X0313897Y0167986D01*
X0314179Y0167969D01*
X0314460Y0167945D01*
X0314741Y0167914D01*
X0315020Y0167876D01*
X0315299Y0167831D01*
X0315577Y0167779D01*
X0315853Y0167721D01*
X0316127Y0167655D01*
X0316400Y0167583D01*
X0316671Y0167505D01*
X0316940Y0167420D01*
X0317207Y0167328D01*
X0317472Y0167229D01*
X0317734Y0167125D01*
X0317993Y0167013D01*
X0318250Y0166896D01*
X0318504Y0166772D01*
X0318754Y0166642D01*
X0319001Y0166506D01*
X0319245Y0166364D01*
X0319485Y0166216D01*
X0319722Y0166062D01*
X0319955Y0165902D01*
X0320184Y0165737D01*
X0320408Y0165566D01*
X0320629Y0165390D01*
X0320844Y0165208D01*
X0321056Y0165021D01*
X0321263Y0164829D01*
X0321465Y0164632D01*
X0321662Y0164430D01*
X0321854Y0164223D01*
X0322041Y0164011D01*
X0322223Y0163796D01*
X0322399Y0163575D01*
X0322570Y0163351D01*
X0322735Y0163122D01*
X0322895Y0162889D01*
X0323049Y0162652D01*
X0323197Y0162412D01*
X0323339Y0162168D01*
X0323475Y0161921D01*
X0323605Y0161671D01*
X0323729Y0161417D01*
X0323846Y0161160D01*
X0323958Y0160901D01*
X0324062Y0160639D01*
X0324161Y0160374D01*
X0324253Y0160107D01*
X0324338Y0159838D01*
X0324416Y0159567D01*
X0324488Y0159294D01*
X0324554Y0159020D01*
X0324612Y0158744D01*
X0324664Y0158466D01*
X0324709Y0158187D01*
X0324747Y0157908D01*
X0324778Y0157627D01*
X0324802Y0157346D01*
X0324819Y0157064D01*
X0324830Y0156782D01*
X0324833Y0156500D01*
X0324830Y0156218D01*
X0324819Y0155936D01*
X0324802Y0155654D01*
X0324778Y0155373D01*
X0324747Y0155092D01*
X0324709Y0154813D01*
X0324664Y0154534D01*
X0324612Y0154256D01*
X0324554Y0153980D01*
X0324488Y0153706D01*
X0324416Y0153433D01*
X0324338Y0153162D01*
X0324253Y0152893D01*
X0324161Y0152626D01*
X0324062Y0152361D01*
X0323958Y0152099D01*
X0323846Y0151840D01*
X0323729Y0151583D01*
X0323605Y0151329D01*
X0323475Y0151079D01*
X0323339Y0150832D01*
X0323197Y0150588D01*
X0323049Y0150348D01*
X0322895Y0150111D01*
X0322735Y0149878D01*
X0322570Y0149649D01*
X0322399Y0149425D01*
X0322223Y0149204D01*
X0322041Y0148989D01*
X0321854Y0148777D01*
X0321662Y0148570D01*
X0321465Y0148368D01*
X0321263Y0148171D01*
X0321056Y0147979D01*
X0320844Y0147792D01*
X0320629Y0147610D01*
X0320408Y0147434D01*
X0320184Y0147263D01*
X0319955Y0147098D01*
X0319722Y0146938D01*
X0319485Y0146784D01*
X0319245Y0146636D01*
X0319001Y0146494D01*
X0318754Y0146358D01*
X0318504Y0146228D01*
X0318250Y0146104D01*
X0317993Y0145987D01*
X0317734Y0145875D01*
X0317472Y0145771D01*
X0317207Y0145672D01*
X0316940Y0145580D01*
X0316671Y0145495D01*
X0316400Y0145417D01*
X0316127Y0145345D01*
X0315853Y0145279D01*
X0315577Y0145221D01*
X0315299Y0145169D01*
X0315020Y0145124D01*
X0314741Y0145086D01*
X0314460Y0145055D01*
X0314179Y0145031D01*
X0313897Y0145014D01*
X0313615Y0145003D01*
X0313333Y0145000D01*
X0313051Y0145003D01*
X0312769Y0145014D01*
X0312487Y0145031D01*
X0312206Y0145055D01*
X0311925Y0145086D01*
X0311646Y0145124D01*
X0311367Y0145169D01*
X0311089Y0145221D01*
X0310813Y0145279D01*
X0310539Y0145345D01*
X0310266Y0145417D01*
X0309995Y0145495D01*
X0309726Y0145580D01*
X0309459Y0145672D01*
X0309194Y0145771D01*
X0308932Y0145875D01*
X0308673Y0145987D01*
X0308416Y0146104D01*
X0308162Y0146228D01*
X0307912Y0146358D01*
X0307665Y0146494D01*
X0307421Y0146636D01*
X0307181Y0146784D01*
X0306944Y0146938D01*
X0306711Y0147098D01*
X0306482Y0147263D01*
X0306258Y0147434D01*
X0306037Y0147610D01*
X0305822Y0147792D01*
X0305610Y0147979D01*
X0305403Y0148171D01*
X0305201Y0148368D01*
X0305004Y0148570D01*
X0304812Y0148777D01*
X0304625Y0148989D01*
X0304443Y0149204D01*
X0304267Y0149425D01*
X0304096Y0149649D01*
X0303931Y0149878D01*
X0303771Y0150111D01*
X0303617Y0150348D01*
X0303469Y0150588D01*
X0303327Y0150832D01*
X0303191Y0151079D01*
X0303061Y0151329D01*
X0302937Y0151583D01*
X0302820Y0151840D01*
X0302708Y0152099D01*
X0302604Y0152361D01*
X0302505Y0152626D01*
X0302413Y0152893D01*
X0302328Y0153162D01*
X0302250Y0153433D01*
X0302178Y0153706D01*
X0302112Y0153980D01*
X0302054Y0154256D01*
X0302002Y0154534D01*
X0301957Y0154813D01*
X0301919Y0155092D01*
X0301888Y0155373D01*
X0301864Y0155654D01*
X0301847Y0155936D01*
X0301836Y0156218D01*
X0301833Y0156500D01*
X0228333Y0144500D02*
X0228333Y0128500D01*
X0218333Y0128500D01*
X0218333Y0144500D01*
X0228333Y0144500D01*
X0223333Y0142500D02*
X0223333Y0136500D01*
X0225833Y0136500D01*
X0223333Y0136500D02*
X0220833Y0136500D01*
X0223333Y0136500D02*
X0223333Y0134000D01*
X0223333Y0136500D02*
X0220833Y0140500D01*
X0225833Y0140500D01*
X0223333Y0136500D01*
X0213333Y0144500D02*
X0213333Y0128500D01*
X0203333Y0128500D01*
X0203333Y0144500D01*
X0213333Y0144500D01*
X0208333Y0139000D02*
X0208333Y0136500D01*
X0205833Y0136500D01*
X0208333Y0136500D02*
X0210833Y0136500D01*
X0208333Y0136500D02*
X0210833Y0132500D01*
X0205833Y0132500D01*
X0208333Y0136500D01*
X0208333Y0130500D01*
X0192833Y0164000D02*
X0185833Y0164000D01*
X0192833Y0164000D02*
X0192833Y0176500D01*
X0175833Y0164000D02*
X0170833Y0164000D01*
X0160833Y0164000D02*
X0153833Y0164000D01*
X0153833Y0176500D01*
X0091833Y0156500D02*
X0091836Y0156782D01*
X0091847Y0157064D01*
X0091864Y0157346D01*
X0091888Y0157627D01*
X0091919Y0157908D01*
X0091957Y0158187D01*
X0092002Y0158466D01*
X0092054Y0158744D01*
X0092112Y0159020D01*
X0092178Y0159294D01*
X0092250Y0159567D01*
X0092328Y0159838D01*
X0092413Y0160107D01*
X0092505Y0160374D01*
X0092604Y0160639D01*
X0092708Y0160901D01*
X0092820Y0161160D01*
X0092937Y0161417D01*
X0093061Y0161671D01*
X0093191Y0161921D01*
X0093327Y0162168D01*
X0093469Y0162412D01*
X0093617Y0162652D01*
X0093771Y0162889D01*
X0093931Y0163122D01*
X0094096Y0163351D01*
X0094267Y0163575D01*
X0094443Y0163796D01*
X0094625Y0164011D01*
X0094812Y0164223D01*
X0095004Y0164430D01*
X0095201Y0164632D01*
X0095403Y0164829D01*
X0095610Y0165021D01*
X0095822Y0165208D01*
X0096037Y0165390D01*
X0096258Y0165566D01*
X0096482Y0165737D01*
X0096711Y0165902D01*
X0096944Y0166062D01*
X0097181Y0166216D01*
X0097421Y0166364D01*
X0097665Y0166506D01*
X0097912Y0166642D01*
X0098162Y0166772D01*
X0098416Y0166896D01*
X0098673Y0167013D01*
X0098932Y0167125D01*
X0099194Y0167229D01*
X0099459Y0167328D01*
X0099726Y0167420D01*
X0099995Y0167505D01*
X0100266Y0167583D01*
X0100539Y0167655D01*
X0100813Y0167721D01*
X0101089Y0167779D01*
X0101367Y0167831D01*
X0101646Y0167876D01*
X0101925Y0167914D01*
X0102206Y0167945D01*
X0102487Y0167969D01*
X0102769Y0167986D01*
X0103051Y0167997D01*
X0103333Y0168000D01*
X0103615Y0167997D01*
X0103897Y0167986D01*
X0104179Y0167969D01*
X0104460Y0167945D01*
X0104741Y0167914D01*
X0105020Y0167876D01*
X0105299Y0167831D01*
X0105577Y0167779D01*
X0105853Y0167721D01*
X0106127Y0167655D01*
X0106400Y0167583D01*
X0106671Y0167505D01*
X0106940Y0167420D01*
X0107207Y0167328D01*
X0107472Y0167229D01*
X0107734Y0167125D01*
X0107993Y0167013D01*
X0108250Y0166896D01*
X0108504Y0166772D01*
X0108754Y0166642D01*
X0109001Y0166506D01*
X0109245Y0166364D01*
X0109485Y0166216D01*
X0109722Y0166062D01*
X0109955Y0165902D01*
X0110184Y0165737D01*
X0110408Y0165566D01*
X0110629Y0165390D01*
X0110844Y0165208D01*
X0111056Y0165021D01*
X0111263Y0164829D01*
X0111465Y0164632D01*
X0111662Y0164430D01*
X0111854Y0164223D01*
X0112041Y0164011D01*
X0112223Y0163796D01*
X0112399Y0163575D01*
X0112570Y0163351D01*
X0112735Y0163122D01*
X0112895Y0162889D01*
X0113049Y0162652D01*
X0113197Y0162412D01*
X0113339Y0162168D01*
X0113475Y0161921D01*
X0113605Y0161671D01*
X0113729Y0161417D01*
X0113846Y0161160D01*
X0113958Y0160901D01*
X0114062Y0160639D01*
X0114161Y0160374D01*
X0114253Y0160107D01*
X0114338Y0159838D01*
X0114416Y0159567D01*
X0114488Y0159294D01*
X0114554Y0159020D01*
X0114612Y0158744D01*
X0114664Y0158466D01*
X0114709Y0158187D01*
X0114747Y0157908D01*
X0114778Y0157627D01*
X0114802Y0157346D01*
X0114819Y0157064D01*
X0114830Y0156782D01*
X0114833Y0156500D01*
X0114830Y0156218D01*
X0114819Y0155936D01*
X0114802Y0155654D01*
X0114778Y0155373D01*
X0114747Y0155092D01*
X0114709Y0154813D01*
X0114664Y0154534D01*
X0114612Y0154256D01*
X0114554Y0153980D01*
X0114488Y0153706D01*
X0114416Y0153433D01*
X0114338Y0153162D01*
X0114253Y0152893D01*
X0114161Y0152626D01*
X0114062Y0152361D01*
X0113958Y0152099D01*
X0113846Y0151840D01*
X0113729Y0151583D01*
X0113605Y0151329D01*
X0113475Y0151079D01*
X0113339Y0150832D01*
X0113197Y0150588D01*
X0113049Y0150348D01*
X0112895Y0150111D01*
X0112735Y0149878D01*
X0112570Y0149649D01*
X0112399Y0149425D01*
X0112223Y0149204D01*
X0112041Y0148989D01*
X0111854Y0148777D01*
X0111662Y0148570D01*
X0111465Y0148368D01*
X0111263Y0148171D01*
X0111056Y0147979D01*
X0110844Y0147792D01*
X0110629Y0147610D01*
X0110408Y0147434D01*
X0110184Y0147263D01*
X0109955Y0147098D01*
X0109722Y0146938D01*
X0109485Y0146784D01*
X0109245Y0146636D01*
X0109001Y0146494D01*
X0108754Y0146358D01*
X0108504Y0146228D01*
X0108250Y0146104D01*
X0107993Y0145987D01*
X0107734Y0145875D01*
X0107472Y0145771D01*
X0107207Y0145672D01*
X0106940Y0145580D01*
X0106671Y0145495D01*
X0106400Y0145417D01*
X0106127Y0145345D01*
X0105853Y0145279D01*
X0105577Y0145221D01*
X0105299Y0145169D01*
X0105020Y0145124D01*
X0104741Y0145086D01*
X0104460Y0145055D01*
X0104179Y0145031D01*
X0103897Y0145014D01*
X0103615Y0145003D01*
X0103333Y0145000D01*
X0103051Y0145003D01*
X0102769Y0145014D01*
X0102487Y0145031D01*
X0102206Y0145055D01*
X0101925Y0145086D01*
X0101646Y0145124D01*
X0101367Y0145169D01*
X0101089Y0145221D01*
X0100813Y0145279D01*
X0100539Y0145345D01*
X0100266Y0145417D01*
X0099995Y0145495D01*
X0099726Y0145580D01*
X0099459Y0145672D01*
X0099194Y0145771D01*
X0098932Y0145875D01*
X0098673Y0145987D01*
X0098416Y0146104D01*
X0098162Y0146228D01*
X0097912Y0146358D01*
X0097665Y0146494D01*
X0097421Y0146636D01*
X0097181Y0146784D01*
X0096944Y0146938D01*
X0096711Y0147098D01*
X0096482Y0147263D01*
X0096258Y0147434D01*
X0096037Y0147610D01*
X0095822Y0147792D01*
X0095610Y0147979D01*
X0095403Y0148171D01*
X0095201Y0148368D01*
X0095004Y0148570D01*
X0094812Y0148777D01*
X0094625Y0148989D01*
X0094443Y0149204D01*
X0094267Y0149425D01*
X0094096Y0149649D01*
X0093931Y0149878D01*
X0093771Y0150111D01*
X0093617Y0150348D01*
X0093469Y0150588D01*
X0093327Y0150832D01*
X0093191Y0151079D01*
X0093061Y0151329D01*
X0092937Y0151583D01*
X0092820Y0151840D01*
X0092708Y0152099D01*
X0092604Y0152361D01*
X0092505Y0152626D01*
X0092413Y0152893D01*
X0092328Y0153162D01*
X0092250Y0153433D01*
X0092178Y0153706D01*
X0092112Y0153980D01*
X0092054Y0154256D01*
X0092002Y0154534D01*
X0091957Y0154813D01*
X0091919Y0155092D01*
X0091888Y0155373D01*
X0091864Y0155654D01*
X0091847Y0155936D01*
X0091836Y0156218D01*
X0091833Y0156500D01*
X0100833Y0091500D02*
X0098333Y0089000D01*
X0098333Y0084000D01*
X0100833Y0081500D01*
X0098333Y0079000D01*
X0098333Y0074000D01*
X0100833Y0071500D01*
X0105833Y0071500D01*
X0108333Y0074000D01*
X0108333Y0079000D01*
X0105833Y0081500D01*
X0100833Y0081500D01*
X0105833Y0081500D02*
X0108333Y0084000D01*
X0108333Y0089000D01*
X0105833Y0091500D01*
X0100833Y0091500D01*
X0091833Y0031500D02*
X0091836Y0031782D01*
X0091847Y0032064D01*
X0091864Y0032346D01*
X0091888Y0032627D01*
X0091919Y0032908D01*
X0091957Y0033187D01*
X0092002Y0033466D01*
X0092054Y0033744D01*
X0092112Y0034020D01*
X0092178Y0034294D01*
X0092250Y0034567D01*
X0092328Y0034838D01*
X0092413Y0035107D01*
X0092505Y0035374D01*
X0092604Y0035639D01*
X0092708Y0035901D01*
X0092820Y0036160D01*
X0092937Y0036417D01*
X0093061Y0036671D01*
X0093191Y0036921D01*
X0093327Y0037168D01*
X0093469Y0037412D01*
X0093617Y0037652D01*
X0093771Y0037889D01*
X0093931Y0038122D01*
X0094096Y0038351D01*
X0094267Y0038575D01*
X0094443Y0038796D01*
X0094625Y0039011D01*
X0094812Y0039223D01*
X0095004Y0039430D01*
X0095201Y0039632D01*
X0095403Y0039829D01*
X0095610Y0040021D01*
X0095822Y0040208D01*
X0096037Y0040390D01*
X0096258Y0040566D01*
X0096482Y0040737D01*
X0096711Y0040902D01*
X0096944Y0041062D01*
X0097181Y0041216D01*
X0097421Y0041364D01*
X0097665Y0041506D01*
X0097912Y0041642D01*
X0098162Y0041772D01*
X0098416Y0041896D01*
X0098673Y0042013D01*
X0098932Y0042125D01*
X0099194Y0042229D01*
X0099459Y0042328D01*
X0099726Y0042420D01*
X0099995Y0042505D01*
X0100266Y0042583D01*
X0100539Y0042655D01*
X0100813Y0042721D01*
X0101089Y0042779D01*
X0101367Y0042831D01*
X0101646Y0042876D01*
X0101925Y0042914D01*
X0102206Y0042945D01*
X0102487Y0042969D01*
X0102769Y0042986D01*
X0103051Y0042997D01*
X0103333Y0043000D01*
X0103615Y0042997D01*
X0103897Y0042986D01*
X0104179Y0042969D01*
X0104460Y0042945D01*
X0104741Y0042914D01*
X0105020Y0042876D01*
X0105299Y0042831D01*
X0105577Y0042779D01*
X0105853Y0042721D01*
X0106127Y0042655D01*
X0106400Y0042583D01*
X0106671Y0042505D01*
X0106940Y0042420D01*
X0107207Y0042328D01*
X0107472Y0042229D01*
X0107734Y0042125D01*
X0107993Y0042013D01*
X0108250Y0041896D01*
X0108504Y0041772D01*
X0108754Y0041642D01*
X0109001Y0041506D01*
X0109245Y0041364D01*
X0109485Y0041216D01*
X0109722Y0041062D01*
X0109955Y0040902D01*
X0110184Y0040737D01*
X0110408Y0040566D01*
X0110629Y0040390D01*
X0110844Y0040208D01*
X0111056Y0040021D01*
X0111263Y0039829D01*
X0111465Y0039632D01*
X0111662Y0039430D01*
X0111854Y0039223D01*
X0112041Y0039011D01*
X0112223Y0038796D01*
X0112399Y0038575D01*
X0112570Y0038351D01*
X0112735Y0038122D01*
X0112895Y0037889D01*
X0113049Y0037652D01*
X0113197Y0037412D01*
X0113339Y0037168D01*
X0113475Y0036921D01*
X0113605Y0036671D01*
X0113729Y0036417D01*
X0113846Y0036160D01*
X0113958Y0035901D01*
X0114062Y0035639D01*
X0114161Y0035374D01*
X0114253Y0035107D01*
X0114338Y0034838D01*
X0114416Y0034567D01*
X0114488Y0034294D01*
X0114554Y0034020D01*
X0114612Y0033744D01*
X0114664Y0033466D01*
X0114709Y0033187D01*
X0114747Y0032908D01*
X0114778Y0032627D01*
X0114802Y0032346D01*
X0114819Y0032064D01*
X0114830Y0031782D01*
X0114833Y0031500D01*
X0114830Y0031218D01*
X0114819Y0030936D01*
X0114802Y0030654D01*
X0114778Y0030373D01*
X0114747Y0030092D01*
X0114709Y0029813D01*
X0114664Y0029534D01*
X0114612Y0029256D01*
X0114554Y0028980D01*
X0114488Y0028706D01*
X0114416Y0028433D01*
X0114338Y0028162D01*
X0114253Y0027893D01*
X0114161Y0027626D01*
X0114062Y0027361D01*
X0113958Y0027099D01*
X0113846Y0026840D01*
X0113729Y0026583D01*
X0113605Y0026329D01*
X0113475Y0026079D01*
X0113339Y0025832D01*
X0113197Y0025588D01*
X0113049Y0025348D01*
X0112895Y0025111D01*
X0112735Y0024878D01*
X0112570Y0024649D01*
X0112399Y0024425D01*
X0112223Y0024204D01*
X0112041Y0023989D01*
X0111854Y0023777D01*
X0111662Y0023570D01*
X0111465Y0023368D01*
X0111263Y0023171D01*
X0111056Y0022979D01*
X0110844Y0022792D01*
X0110629Y0022610D01*
X0110408Y0022434D01*
X0110184Y0022263D01*
X0109955Y0022098D01*
X0109722Y0021938D01*
X0109485Y0021784D01*
X0109245Y0021636D01*
X0109001Y0021494D01*
X0108754Y0021358D01*
X0108504Y0021228D01*
X0108250Y0021104D01*
X0107993Y0020987D01*
X0107734Y0020875D01*
X0107472Y0020771D01*
X0107207Y0020672D01*
X0106940Y0020580D01*
X0106671Y0020495D01*
X0106400Y0020417D01*
X0106127Y0020345D01*
X0105853Y0020279D01*
X0105577Y0020221D01*
X0105299Y0020169D01*
X0105020Y0020124D01*
X0104741Y0020086D01*
X0104460Y0020055D01*
X0104179Y0020031D01*
X0103897Y0020014D01*
X0103615Y0020003D01*
X0103333Y0020000D01*
X0103051Y0020003D01*
X0102769Y0020014D01*
X0102487Y0020031D01*
X0102206Y0020055D01*
X0101925Y0020086D01*
X0101646Y0020124D01*
X0101367Y0020169D01*
X0101089Y0020221D01*
X0100813Y0020279D01*
X0100539Y0020345D01*
X0100266Y0020417D01*
X0099995Y0020495D01*
X0099726Y0020580D01*
X0099459Y0020672D01*
X0099194Y0020771D01*
X0098932Y0020875D01*
X0098673Y0020987D01*
X0098416Y0021104D01*
X0098162Y0021228D01*
X0097912Y0021358D01*
X0097665Y0021494D01*
X0097421Y0021636D01*
X0097181Y0021784D01*
X0096944Y0021938D01*
X0096711Y0022098D01*
X0096482Y0022263D01*
X0096258Y0022434D01*
X0096037Y0022610D01*
X0095822Y0022792D01*
X0095610Y0022979D01*
X0095403Y0023171D01*
X0095201Y0023368D01*
X0095004Y0023570D01*
X0094812Y0023777D01*
X0094625Y0023989D01*
X0094443Y0024204D01*
X0094267Y0024425D01*
X0094096Y0024649D01*
X0093931Y0024878D01*
X0093771Y0025111D01*
X0093617Y0025348D01*
X0093469Y0025588D01*
X0093327Y0025832D01*
X0093191Y0026079D01*
X0093061Y0026329D01*
X0092937Y0026583D01*
X0092820Y0026840D01*
X0092708Y0027099D01*
X0092604Y0027361D01*
X0092505Y0027626D01*
X0092413Y0027893D01*
X0092328Y0028162D01*
X0092250Y0028433D01*
X0092178Y0028706D01*
X0092112Y0028980D01*
X0092054Y0029256D01*
X0092002Y0029534D01*
X0091957Y0029813D01*
X0091919Y0030092D01*
X0091888Y0030373D01*
X0091864Y0030654D01*
X0091847Y0030936D01*
X0091836Y0031218D01*
X0091833Y0031500D01*
X0163333Y0029000D02*
X0163333Y0024000D01*
X0165833Y0021500D01*
X0170833Y0021500D01*
X0173333Y0024000D01*
X0173333Y0029000D01*
X0170833Y0031500D01*
X0165833Y0031500D01*
X0163333Y0029000D01*
X0173333Y0029000D02*
X0175833Y0031500D01*
X0180833Y0031500D01*
X0183333Y0029000D01*
X0185833Y0031500D01*
X0190833Y0031500D01*
X0193333Y0029000D01*
X0193333Y0024000D01*
X0190833Y0021500D01*
X0185833Y0021500D01*
X0183333Y0024000D01*
X0180833Y0021500D01*
X0175833Y0021500D01*
X0173333Y0024000D01*
X0183333Y0024000D02*
X0183333Y0029000D01*
X0268333Y0079000D02*
X0270833Y0076500D01*
X0275833Y0076500D01*
X0278333Y0079000D01*
X0278333Y0084000D01*
X0275833Y0086500D01*
X0270833Y0086500D01*
X0268333Y0084000D01*
X0268333Y0079000D01*
X0270833Y0086500D02*
X0268333Y0089000D01*
X0268333Y0094000D01*
X0270833Y0096500D01*
X0275833Y0096500D01*
X0278333Y0094000D01*
X0278333Y0089000D01*
X0275833Y0086500D01*
X0301833Y0031500D02*
X0301836Y0031782D01*
X0301847Y0032064D01*
X0301864Y0032346D01*
X0301888Y0032627D01*
X0301919Y0032908D01*
X0301957Y0033187D01*
X0302002Y0033466D01*
X0302054Y0033744D01*
X0302112Y0034020D01*
X0302178Y0034294D01*
X0302250Y0034567D01*
X0302328Y0034838D01*
X0302413Y0035107D01*
X0302505Y0035374D01*
X0302604Y0035639D01*
X0302708Y0035901D01*
X0302820Y0036160D01*
X0302937Y0036417D01*
X0303061Y0036671D01*
X0303191Y0036921D01*
X0303327Y0037168D01*
X0303469Y0037412D01*
X0303617Y0037652D01*
X0303771Y0037889D01*
X0303931Y0038122D01*
X0304096Y0038351D01*
X0304267Y0038575D01*
X0304443Y0038796D01*
X0304625Y0039011D01*
X0304812Y0039223D01*
X0305004Y0039430D01*
X0305201Y0039632D01*
X0305403Y0039829D01*
X0305610Y0040021D01*
X0305822Y0040208D01*
X0306037Y0040390D01*
X0306258Y0040566D01*
X0306482Y0040737D01*
X0306711Y0040902D01*
X0306944Y0041062D01*
X0307181Y0041216D01*
X0307421Y0041364D01*
X0307665Y0041506D01*
X0307912Y0041642D01*
X0308162Y0041772D01*
X0308416Y0041896D01*
X0308673Y0042013D01*
X0308932Y0042125D01*
X0309194Y0042229D01*
X0309459Y0042328D01*
X0309726Y0042420D01*
X0309995Y0042505D01*
X0310266Y0042583D01*
X0310539Y0042655D01*
X0310813Y0042721D01*
X0311089Y0042779D01*
X0311367Y0042831D01*
X0311646Y0042876D01*
X0311925Y0042914D01*
X0312206Y0042945D01*
X0312487Y0042969D01*
X0312769Y0042986D01*
X0313051Y0042997D01*
X0313333Y0043000D01*
X0313615Y0042997D01*
X0313897Y0042986D01*
X0314179Y0042969D01*
X0314460Y0042945D01*
X0314741Y0042914D01*
X0315020Y0042876D01*
X0315299Y0042831D01*
X0315577Y0042779D01*
X0315853Y0042721D01*
X0316127Y0042655D01*
X0316400Y0042583D01*
X0316671Y0042505D01*
X0316940Y0042420D01*
X0317207Y0042328D01*
X0317472Y0042229D01*
X0317734Y0042125D01*
X0317993Y0042013D01*
X0318250Y0041896D01*
X0318504Y0041772D01*
X0318754Y0041642D01*
X0319001Y0041506D01*
X0319245Y0041364D01*
X0319485Y0041216D01*
X0319722Y0041062D01*
X0319955Y0040902D01*
X0320184Y0040737D01*
X0320408Y0040566D01*
X0320629Y0040390D01*
X0320844Y0040208D01*
X0321056Y0040021D01*
X0321263Y0039829D01*
X0321465Y0039632D01*
X0321662Y0039430D01*
X0321854Y0039223D01*
X0322041Y0039011D01*
X0322223Y0038796D01*
X0322399Y0038575D01*
X0322570Y0038351D01*
X0322735Y0038122D01*
X0322895Y0037889D01*
X0323049Y0037652D01*
X0323197Y0037412D01*
X0323339Y0037168D01*
X0323475Y0036921D01*
X0323605Y0036671D01*
X0323729Y0036417D01*
X0323846Y0036160D01*
X0323958Y0035901D01*
X0324062Y0035639D01*
X0324161Y0035374D01*
X0324253Y0035107D01*
X0324338Y0034838D01*
X0324416Y0034567D01*
X0324488Y0034294D01*
X0324554Y0034020D01*
X0324612Y0033744D01*
X0324664Y0033466D01*
X0324709Y0033187D01*
X0324747Y0032908D01*
X0324778Y0032627D01*
X0324802Y0032346D01*
X0324819Y0032064D01*
X0324830Y0031782D01*
X0324833Y0031500D01*
X0324830Y0031218D01*
X0324819Y0030936D01*
X0324802Y0030654D01*
X0324778Y0030373D01*
X0324747Y0030092D01*
X0324709Y0029813D01*
X0324664Y0029534D01*
X0324612Y0029256D01*
X0324554Y0028980D01*
X0324488Y0028706D01*
X0324416Y0028433D01*
X0324338Y0028162D01*
X0324253Y0027893D01*
X0324161Y0027626D01*
X0324062Y0027361D01*
X0323958Y0027099D01*
X0323846Y0026840D01*
X0323729Y0026583D01*
X0323605Y0026329D01*
X0323475Y0026079D01*
X0323339Y0025832D01*
X0323197Y0025588D01*
X0323049Y0025348D01*
X0322895Y0025111D01*
X0322735Y0024878D01*
X0322570Y0024649D01*
X0322399Y0024425D01*
X0322223Y0024204D01*
X0322041Y0023989D01*
X0321854Y0023777D01*
X0321662Y0023570D01*
X0321465Y0023368D01*
X0321263Y0023171D01*
X0321056Y0022979D01*
X0320844Y0022792D01*
X0320629Y0022610D01*
X0320408Y0022434D01*
X0320184Y0022263D01*
X0319955Y0022098D01*
X0319722Y0021938D01*
X0319485Y0021784D01*
X0319245Y0021636D01*
X0319001Y0021494D01*
X0318754Y0021358D01*
X0318504Y0021228D01*
X0318250Y0021104D01*
X0317993Y0020987D01*
X0317734Y0020875D01*
X0317472Y0020771D01*
X0317207Y0020672D01*
X0316940Y0020580D01*
X0316671Y0020495D01*
X0316400Y0020417D01*
X0316127Y0020345D01*
X0315853Y0020279D01*
X0315577Y0020221D01*
X0315299Y0020169D01*
X0315020Y0020124D01*
X0314741Y0020086D01*
X0314460Y0020055D01*
X0314179Y0020031D01*
X0313897Y0020014D01*
X0313615Y0020003D01*
X0313333Y0020000D01*
X0313051Y0020003D01*
X0312769Y0020014D01*
X0312487Y0020031D01*
X0312206Y0020055D01*
X0311925Y0020086D01*
X0311646Y0020124D01*
X0311367Y0020169D01*
X0311089Y0020221D01*
X0310813Y0020279D01*
X0310539Y0020345D01*
X0310266Y0020417D01*
X0309995Y0020495D01*
X0309726Y0020580D01*
X0309459Y0020672D01*
X0309194Y0020771D01*
X0308932Y0020875D01*
X0308673Y0020987D01*
X0308416Y0021104D01*
X0308162Y0021228D01*
X0307912Y0021358D01*
X0307665Y0021494D01*
X0307421Y0021636D01*
X0307181Y0021784D01*
X0306944Y0021938D01*
X0306711Y0022098D01*
X0306482Y0022263D01*
X0306258Y0022434D01*
X0306037Y0022610D01*
X0305822Y0022792D01*
X0305610Y0022979D01*
X0305403Y0023171D01*
X0305201Y0023368D01*
X0305004Y0023570D01*
X0304812Y0023777D01*
X0304625Y0023989D01*
X0304443Y0024204D01*
X0304267Y0024425D01*
X0304096Y0024649D01*
X0303931Y0024878D01*
X0303771Y0025111D01*
X0303617Y0025348D01*
X0303469Y0025588D01*
X0303327Y0025832D01*
X0303191Y0026079D01*
X0303061Y0026329D01*
X0302937Y0026583D01*
X0302820Y0026840D01*
X0302708Y0027099D01*
X0302604Y0027361D01*
X0302505Y0027626D01*
X0302413Y0027893D01*
X0302328Y0028162D01*
X0302250Y0028433D01*
X0302178Y0028706D01*
X0302112Y0028980D01*
X0302054Y0029256D01*
X0302002Y0029534D01*
X0301957Y0029813D01*
X0301919Y0030092D01*
X0301888Y0030373D01*
X0301864Y0030654D01*
X0301847Y0030936D01*
X0301836Y0031218D01*
X0301833Y0031500D01*
D14*
X0173333Y0179000D03*
D15*
X0173333Y0159000D03*
X0158333Y0159000D03*
X0188333Y0159000D03*
D16*
X0167758Y0142754D02*
X0167758Y0138250D01*
X0166257Y0138250D02*
X0169259Y0138250D01*
X0166257Y0141253D02*
X0167758Y0142754D01*
X0164655Y0142003D02*
X0163905Y0142754D01*
X0162403Y0142754D01*
X0161653Y0142003D01*
X0161653Y0139001D01*
X0162403Y0138250D01*
X0163905Y0138250D01*
X0164655Y0139001D01*
X0160085Y0138250D02*
X0158583Y0138250D01*
X0159334Y0138250D02*
X0159334Y0142754D01*
X0158583Y0142754D02*
X0160085Y0142754D01*
X0212079Y0135606D02*
X0212079Y0134105D01*
X0212830Y0133354D01*
X0212830Y0131753D02*
X0212079Y0131002D01*
X0212079Y0128750D01*
X0216583Y0128750D01*
X0216583Y0131002D01*
X0215833Y0131753D01*
X0212830Y0131753D01*
X0216583Y0133354D02*
X0213581Y0136356D01*
X0212830Y0136356D01*
X0212079Y0135606D01*
X0215079Y0135542D02*
X0215079Y0137794D01*
X0215830Y0138545D01*
X0218833Y0138545D01*
X0219583Y0137794D01*
X0219583Y0135542D01*
X0215079Y0135542D01*
X0216583Y0136356D02*
X0216583Y0133354D01*
X0216581Y0140146D02*
X0215079Y0141647D01*
X0219583Y0141647D01*
X0219583Y0140146D02*
X0219583Y0143149D01*
X0235190Y0161050D02*
X0235190Y0163752D01*
X0236541Y0163752D01*
X0236992Y0163302D01*
X0236992Y0162401D01*
X0236541Y0161951D01*
X0235190Y0161951D01*
X0236091Y0161951D02*
X0236992Y0161050D01*
X0238137Y0161050D02*
X0239938Y0162852D01*
X0239938Y0163302D01*
X0239488Y0163752D01*
X0238587Y0163752D01*
X0238137Y0163302D01*
X0238137Y0161050D02*
X0239938Y0161050D01*
X0235988Y0170050D02*
X0235087Y0170050D01*
X0234637Y0170500D01*
X0236438Y0172302D01*
X0236438Y0170500D01*
X0235988Y0170050D01*
X0234637Y0170500D02*
X0234637Y0172302D01*
X0235087Y0172752D01*
X0235988Y0172752D01*
X0236438Y0172302D01*
X0233492Y0172302D02*
X0233492Y0171852D01*
X0233041Y0171401D01*
X0232141Y0171401D01*
X0231690Y0171852D01*
X0231690Y0172302D01*
X0232141Y0172752D01*
X0233041Y0172752D01*
X0233492Y0172302D01*
X0233041Y0171401D02*
X0233492Y0170951D01*
X0233492Y0170500D01*
X0233041Y0170050D01*
X0232141Y0170050D01*
X0231690Y0170500D01*
X0231690Y0170951D01*
X0232141Y0171401D01*
X0230545Y0170951D02*
X0230095Y0171401D01*
X0228744Y0171401D01*
X0228744Y0170500D01*
X0229194Y0170050D01*
X0230095Y0170050D01*
X0230545Y0170500D01*
X0230545Y0170951D01*
X0229645Y0172302D02*
X0228744Y0171401D01*
X0229645Y0172302D02*
X0230545Y0172752D01*
X0262081Y0158295D02*
X0264783Y0158295D01*
X0263883Y0158295D02*
X0264783Y0159646D01*
X0263883Y0158295D02*
X0262982Y0159646D01*
X0262982Y0157150D02*
X0263432Y0156699D01*
X0263883Y0157150D01*
X0264333Y0157150D01*
X0264783Y0156699D01*
X0264783Y0155798D01*
X0264333Y0155348D01*
X0264783Y0154203D02*
X0264783Y0152402D01*
X0264783Y0153302D02*
X0262081Y0153302D01*
X0262982Y0152402D01*
X0262531Y0155348D02*
X0262081Y0155798D01*
X0262081Y0156699D01*
X0262531Y0157150D01*
X0262982Y0157150D01*
X0263432Y0156699D02*
X0263432Y0156249D01*
X0271081Y0158357D02*
X0271081Y0159708D01*
X0271531Y0160159D01*
X0272432Y0160159D01*
X0272883Y0159708D01*
X0272883Y0158357D01*
X0273783Y0158357D02*
X0271081Y0158357D01*
X0272883Y0159258D02*
X0273783Y0160159D01*
X0273333Y0161303D02*
X0273783Y0161754D01*
X0273783Y0162655D01*
X0273333Y0163105D01*
X0272883Y0163105D01*
X0272432Y0162655D01*
X0272432Y0162204D01*
X0272432Y0162655D02*
X0271982Y0163105D01*
X0271531Y0163105D01*
X0271081Y0162655D01*
X0271081Y0161754D01*
X0271531Y0161303D01*
X0281530Y0095449D02*
X0280779Y0094698D01*
X0280779Y0093197D01*
X0281530Y0092446D01*
X0281530Y0090845D02*
X0283031Y0090845D01*
X0283782Y0090094D01*
X0283782Y0087842D01*
X0285283Y0087842D02*
X0280779Y0087842D01*
X0280779Y0090094D01*
X0281530Y0090845D01*
X0285283Y0092446D02*
X0282281Y0095449D01*
X0281530Y0095449D01*
X0285283Y0095449D02*
X0285283Y0092446D01*
X0280779Y0086241D02*
X0280779Y0084739D01*
X0280779Y0085490D02*
X0284533Y0085490D01*
X0285283Y0084739D01*
X0285283Y0083989D01*
X0284533Y0083238D01*
X0254583Y0067498D02*
X0253683Y0066597D01*
X0253683Y0067048D02*
X0253683Y0065697D01*
X0254583Y0065697D02*
X0251881Y0065697D01*
X0251881Y0067048D01*
X0252331Y0067498D01*
X0253232Y0067498D01*
X0253683Y0067048D01*
X0254583Y0064552D02*
X0254583Y0062750D01*
X0254583Y0063651D02*
X0251881Y0063651D01*
X0252782Y0062750D01*
X0245583Y0063548D02*
X0242881Y0063548D01*
X0244232Y0062197D01*
X0244232Y0063998D01*
X0244232Y0061052D02*
X0243331Y0061052D01*
X0242881Y0060601D01*
X0242881Y0059250D01*
X0245583Y0059250D01*
X0244683Y0059250D02*
X0244683Y0060601D01*
X0244232Y0061052D01*
X0244683Y0060151D02*
X0245583Y0061052D01*
X0192282Y0038303D02*
X0192282Y0037553D01*
X0191531Y0036802D01*
X0192282Y0036051D01*
X0192282Y0035301D01*
X0191531Y0034550D01*
X0190030Y0034550D01*
X0189279Y0035301D01*
X0190781Y0036802D02*
X0191531Y0036802D01*
X0192282Y0038303D02*
X0191531Y0039054D01*
X0190030Y0039054D01*
X0189279Y0038303D01*
X0187678Y0038303D02*
X0187678Y0036802D01*
X0186927Y0036051D01*
X0184675Y0036051D01*
X0184675Y0034550D02*
X0184675Y0039054D01*
X0186927Y0039054D01*
X0187678Y0038303D01*
X0183074Y0039054D02*
X0181573Y0039054D01*
X0182323Y0039054D02*
X0182323Y0035301D01*
X0181573Y0034550D01*
X0180822Y0034550D01*
X0180072Y0035301D01*
X0129583Y0074101D02*
X0126881Y0074101D01*
X0128232Y0072750D01*
X0128232Y0074552D01*
X0129133Y0075697D02*
X0127331Y0077498D01*
X0126881Y0077498D01*
X0126881Y0075697D01*
X0129133Y0075697D02*
X0129583Y0075697D01*
X0129583Y0078643D02*
X0126881Y0078643D01*
X0127782Y0079994D02*
X0128683Y0078643D01*
X0129583Y0079994D01*
X0120583Y0073998D02*
X0120583Y0072197D01*
X0120583Y0073097D02*
X0117881Y0073097D01*
X0118782Y0072197D01*
X0119232Y0071052D02*
X0119683Y0070601D01*
X0119683Y0069250D01*
X0120583Y0069250D02*
X0117881Y0069250D01*
X0117881Y0070601D01*
X0118331Y0071052D01*
X0119232Y0071052D01*
X0119683Y0070151D02*
X0120583Y0071052D01*
X0114533Y0078238D02*
X0115283Y0078989D01*
X0115283Y0079739D01*
X0114533Y0080490D01*
X0110779Y0080490D01*
X0110779Y0079739D02*
X0110779Y0081241D01*
X0110779Y0082842D02*
X0110779Y0085094D01*
X0111530Y0085845D01*
X0113031Y0085845D01*
X0113782Y0085094D01*
X0113782Y0082842D01*
X0115283Y0082842D02*
X0110779Y0082842D01*
X0112281Y0087446D02*
X0110779Y0088947D01*
X0115283Y0088947D01*
X0115283Y0087446D02*
X0115283Y0090449D01*
D17*
X0158437Y0081201D02*
X0158437Y0080200D01*
X0158687Y0079950D01*
X0159187Y0079950D01*
X0159438Y0080200D01*
X0159910Y0080200D02*
X0160160Y0079950D01*
X0160661Y0079950D01*
X0160911Y0080200D01*
X0160911Y0080701D01*
X0160661Y0080951D01*
X0160410Y0080951D01*
X0159910Y0080701D01*
X0159910Y0081451D01*
X0160911Y0081451D01*
X0159438Y0081201D02*
X0159187Y0081451D01*
X0158687Y0081451D01*
X0158437Y0081201D01*
X0158687Y0054951D02*
X0158437Y0054701D01*
X0158437Y0053700D01*
X0158687Y0053450D01*
X0159187Y0053450D01*
X0159438Y0053700D01*
X0159910Y0053700D02*
X0160160Y0053450D01*
X0160661Y0053450D01*
X0160911Y0053700D01*
X0160911Y0053950D01*
X0160661Y0054201D01*
X0159910Y0054201D01*
X0159910Y0053700D01*
X0159910Y0054201D02*
X0160410Y0054701D01*
X0160911Y0054951D01*
X0159438Y0054701D02*
X0159187Y0054951D01*
X0158687Y0054951D01*
X0203437Y0054701D02*
X0203437Y0053700D01*
X0203687Y0053450D01*
X0204187Y0053450D01*
X0204438Y0053700D01*
X0204910Y0054201D02*
X0205911Y0054201D01*
X0205661Y0054951D02*
X0204910Y0054201D01*
X0204438Y0054701D02*
X0204187Y0054951D01*
X0203687Y0054951D01*
X0203437Y0054701D01*
X0205661Y0054951D02*
X0205661Y0053450D01*
X0226782Y0068800D02*
X0227032Y0068550D01*
X0228033Y0068550D01*
X0228283Y0068800D01*
X0228283Y0069301D01*
X0228033Y0069551D01*
X0228033Y0070023D02*
X0228283Y0070023D01*
X0228033Y0070023D02*
X0227032Y0071024D01*
X0226782Y0071024D01*
X0226782Y0070023D01*
X0227032Y0069551D02*
X0226782Y0069301D01*
X0226782Y0068800D01*
X0202857Y0091800D02*
X0202607Y0091550D01*
X0202107Y0091550D01*
X0201857Y0091800D01*
X0201384Y0091800D02*
X0201134Y0091550D01*
X0200634Y0091550D01*
X0200383Y0091800D01*
X0200383Y0092801D01*
X0200634Y0093051D01*
X0201134Y0093051D01*
X0201384Y0092801D01*
X0201857Y0092801D02*
X0202107Y0093051D01*
X0202607Y0093051D01*
X0202857Y0092801D01*
X0202857Y0092551D01*
X0202607Y0092301D01*
X0202857Y0092050D01*
X0202857Y0091800D01*
X0202607Y0092301D02*
X0202357Y0092301D01*
X0280282Y0128800D02*
X0280532Y0128550D01*
X0281533Y0128550D01*
X0281783Y0128800D01*
X0281783Y0129301D01*
X0281533Y0129551D01*
X0281783Y0130023D02*
X0280782Y0131024D01*
X0280532Y0131024D01*
X0280282Y0130774D01*
X0280282Y0130273D01*
X0280532Y0130023D01*
X0280532Y0129551D02*
X0280282Y0129301D01*
X0280282Y0128800D01*
X0281783Y0130023D02*
X0281783Y0131024D01*
X0122857Y0126550D02*
X0121857Y0126550D01*
X0122357Y0126550D02*
X0122357Y0128051D01*
X0121857Y0127551D01*
X0121384Y0127801D02*
X0121134Y0128051D01*
X0120634Y0128051D01*
X0120383Y0127801D01*
X0120383Y0126800D01*
X0120634Y0126550D01*
X0121134Y0126550D01*
X0121384Y0126800D01*
D18*
X0208333Y0142000D03*
X0223333Y0131000D03*
D19*
X0223333Y0124750D03*
X0208333Y0124750D03*
X0208333Y0148250D03*
X0223333Y0148250D03*
D20*
X0307821Y0156500D02*
X0307823Y0156648D01*
X0307829Y0156796D01*
X0307839Y0156944D01*
X0307853Y0157091D01*
X0307871Y0157238D01*
X0307892Y0157384D01*
X0307918Y0157530D01*
X0307948Y0157675D01*
X0307981Y0157819D01*
X0308019Y0157962D01*
X0308060Y0158104D01*
X0308105Y0158245D01*
X0308153Y0158385D01*
X0308206Y0158524D01*
X0308262Y0158661D01*
X0308322Y0158796D01*
X0308385Y0158930D01*
X0308452Y0159062D01*
X0308523Y0159192D01*
X0308597Y0159320D01*
X0308674Y0159446D01*
X0308755Y0159570D01*
X0308839Y0159692D01*
X0308926Y0159811D01*
X0309017Y0159928D01*
X0309111Y0160043D01*
X0309207Y0160155D01*
X0309307Y0160265D01*
X0309409Y0160371D01*
X0309515Y0160475D01*
X0309623Y0160576D01*
X0309734Y0160674D01*
X0309847Y0160770D01*
X0309963Y0160862D01*
X0310081Y0160951D01*
X0310202Y0161036D01*
X0310325Y0161119D01*
X0310450Y0161198D01*
X0310577Y0161274D01*
X0310706Y0161346D01*
X0310837Y0161415D01*
X0310970Y0161480D01*
X0311105Y0161541D01*
X0311241Y0161599D01*
X0311378Y0161654D01*
X0311517Y0161704D01*
X0311658Y0161751D01*
X0311799Y0161794D01*
X0311942Y0161834D01*
X0312086Y0161869D01*
X0312230Y0161901D01*
X0312376Y0161928D01*
X0312522Y0161952D01*
X0312669Y0161972D01*
X0312816Y0161988D01*
X0312963Y0162000D01*
X0313111Y0162008D01*
X0313259Y0162012D01*
X0313407Y0162012D01*
X0313555Y0162008D01*
X0313703Y0162000D01*
X0313850Y0161988D01*
X0313997Y0161972D01*
X0314144Y0161952D01*
X0314290Y0161928D01*
X0314436Y0161901D01*
X0314580Y0161869D01*
X0314724Y0161834D01*
X0314867Y0161794D01*
X0315008Y0161751D01*
X0315149Y0161704D01*
X0315288Y0161654D01*
X0315425Y0161599D01*
X0315561Y0161541D01*
X0315696Y0161480D01*
X0315829Y0161415D01*
X0315960Y0161346D01*
X0316089Y0161274D01*
X0316216Y0161198D01*
X0316341Y0161119D01*
X0316464Y0161036D01*
X0316585Y0160951D01*
X0316703Y0160862D01*
X0316819Y0160770D01*
X0316932Y0160674D01*
X0317043Y0160576D01*
X0317151Y0160475D01*
X0317257Y0160371D01*
X0317359Y0160265D01*
X0317459Y0160155D01*
X0317555Y0160043D01*
X0317649Y0159928D01*
X0317740Y0159811D01*
X0317827Y0159692D01*
X0317911Y0159570D01*
X0317992Y0159446D01*
X0318069Y0159320D01*
X0318143Y0159192D01*
X0318214Y0159062D01*
X0318281Y0158930D01*
X0318344Y0158796D01*
X0318404Y0158661D01*
X0318460Y0158524D01*
X0318513Y0158385D01*
X0318561Y0158245D01*
X0318606Y0158104D01*
X0318647Y0157962D01*
X0318685Y0157819D01*
X0318718Y0157675D01*
X0318748Y0157530D01*
X0318774Y0157384D01*
X0318795Y0157238D01*
X0318813Y0157091D01*
X0318827Y0156944D01*
X0318837Y0156796D01*
X0318843Y0156648D01*
X0318845Y0156500D01*
X0318843Y0156352D01*
X0318837Y0156204D01*
X0318827Y0156056D01*
X0318813Y0155909D01*
X0318795Y0155762D01*
X0318774Y0155616D01*
X0318748Y0155470D01*
X0318718Y0155325D01*
X0318685Y0155181D01*
X0318647Y0155038D01*
X0318606Y0154896D01*
X0318561Y0154755D01*
X0318513Y0154615D01*
X0318460Y0154476D01*
X0318404Y0154339D01*
X0318344Y0154204D01*
X0318281Y0154070D01*
X0318214Y0153938D01*
X0318143Y0153808D01*
X0318069Y0153680D01*
X0317992Y0153554D01*
X0317911Y0153430D01*
X0317827Y0153308D01*
X0317740Y0153189D01*
X0317649Y0153072D01*
X0317555Y0152957D01*
X0317459Y0152845D01*
X0317359Y0152735D01*
X0317257Y0152629D01*
X0317151Y0152525D01*
X0317043Y0152424D01*
X0316932Y0152326D01*
X0316819Y0152230D01*
X0316703Y0152138D01*
X0316585Y0152049D01*
X0316464Y0151964D01*
X0316341Y0151881D01*
X0316216Y0151802D01*
X0316089Y0151726D01*
X0315960Y0151654D01*
X0315829Y0151585D01*
X0315696Y0151520D01*
X0315561Y0151459D01*
X0315425Y0151401D01*
X0315288Y0151346D01*
X0315149Y0151296D01*
X0315008Y0151249D01*
X0314867Y0151206D01*
X0314724Y0151166D01*
X0314580Y0151131D01*
X0314436Y0151099D01*
X0314290Y0151072D01*
X0314144Y0151048D01*
X0313997Y0151028D01*
X0313850Y0151012D01*
X0313703Y0151000D01*
X0313555Y0150992D01*
X0313407Y0150988D01*
X0313259Y0150988D01*
X0313111Y0150992D01*
X0312963Y0151000D01*
X0312816Y0151012D01*
X0312669Y0151028D01*
X0312522Y0151048D01*
X0312376Y0151072D01*
X0312230Y0151099D01*
X0312086Y0151131D01*
X0311942Y0151166D01*
X0311799Y0151206D01*
X0311658Y0151249D01*
X0311517Y0151296D01*
X0311378Y0151346D01*
X0311241Y0151401D01*
X0311105Y0151459D01*
X0310970Y0151520D01*
X0310837Y0151585D01*
X0310706Y0151654D01*
X0310577Y0151726D01*
X0310450Y0151802D01*
X0310325Y0151881D01*
X0310202Y0151964D01*
X0310081Y0152049D01*
X0309963Y0152138D01*
X0309847Y0152230D01*
X0309734Y0152326D01*
X0309623Y0152424D01*
X0309515Y0152525D01*
X0309409Y0152629D01*
X0309307Y0152735D01*
X0309207Y0152845D01*
X0309111Y0152957D01*
X0309017Y0153072D01*
X0308926Y0153189D01*
X0308839Y0153308D01*
X0308755Y0153430D01*
X0308674Y0153554D01*
X0308597Y0153680D01*
X0308523Y0153808D01*
X0308452Y0153938D01*
X0308385Y0154070D01*
X0308322Y0154204D01*
X0308262Y0154339D01*
X0308206Y0154476D01*
X0308153Y0154615D01*
X0308105Y0154755D01*
X0308060Y0154896D01*
X0308019Y0155038D01*
X0307981Y0155181D01*
X0307948Y0155325D01*
X0307918Y0155470D01*
X0307892Y0155616D01*
X0307871Y0155762D01*
X0307853Y0155909D01*
X0307839Y0156056D01*
X0307829Y0156204D01*
X0307823Y0156352D01*
X0307821Y0156500D01*
X0307821Y0031500D02*
X0307823Y0031648D01*
X0307829Y0031796D01*
X0307839Y0031944D01*
X0307853Y0032091D01*
X0307871Y0032238D01*
X0307892Y0032384D01*
X0307918Y0032530D01*
X0307948Y0032675D01*
X0307981Y0032819D01*
X0308019Y0032962D01*
X0308060Y0033104D01*
X0308105Y0033245D01*
X0308153Y0033385D01*
X0308206Y0033524D01*
X0308262Y0033661D01*
X0308322Y0033796D01*
X0308385Y0033930D01*
X0308452Y0034062D01*
X0308523Y0034192D01*
X0308597Y0034320D01*
X0308674Y0034446D01*
X0308755Y0034570D01*
X0308839Y0034692D01*
X0308926Y0034811D01*
X0309017Y0034928D01*
X0309111Y0035043D01*
X0309207Y0035155D01*
X0309307Y0035265D01*
X0309409Y0035371D01*
X0309515Y0035475D01*
X0309623Y0035576D01*
X0309734Y0035674D01*
X0309847Y0035770D01*
X0309963Y0035862D01*
X0310081Y0035951D01*
X0310202Y0036036D01*
X0310325Y0036119D01*
X0310450Y0036198D01*
X0310577Y0036274D01*
X0310706Y0036346D01*
X0310837Y0036415D01*
X0310970Y0036480D01*
X0311105Y0036541D01*
X0311241Y0036599D01*
X0311378Y0036654D01*
X0311517Y0036704D01*
X0311658Y0036751D01*
X0311799Y0036794D01*
X0311942Y0036834D01*
X0312086Y0036869D01*
X0312230Y0036901D01*
X0312376Y0036928D01*
X0312522Y0036952D01*
X0312669Y0036972D01*
X0312816Y0036988D01*
X0312963Y0037000D01*
X0313111Y0037008D01*
X0313259Y0037012D01*
X0313407Y0037012D01*
X0313555Y0037008D01*
X0313703Y0037000D01*
X0313850Y0036988D01*
X0313997Y0036972D01*
X0314144Y0036952D01*
X0314290Y0036928D01*
X0314436Y0036901D01*
X0314580Y0036869D01*
X0314724Y0036834D01*
X0314867Y0036794D01*
X0315008Y0036751D01*
X0315149Y0036704D01*
X0315288Y0036654D01*
X0315425Y0036599D01*
X0315561Y0036541D01*
X0315696Y0036480D01*
X0315829Y0036415D01*
X0315960Y0036346D01*
X0316089Y0036274D01*
X0316216Y0036198D01*
X0316341Y0036119D01*
X0316464Y0036036D01*
X0316585Y0035951D01*
X0316703Y0035862D01*
X0316819Y0035770D01*
X0316932Y0035674D01*
X0317043Y0035576D01*
X0317151Y0035475D01*
X0317257Y0035371D01*
X0317359Y0035265D01*
X0317459Y0035155D01*
X0317555Y0035043D01*
X0317649Y0034928D01*
X0317740Y0034811D01*
X0317827Y0034692D01*
X0317911Y0034570D01*
X0317992Y0034446D01*
X0318069Y0034320D01*
X0318143Y0034192D01*
X0318214Y0034062D01*
X0318281Y0033930D01*
X0318344Y0033796D01*
X0318404Y0033661D01*
X0318460Y0033524D01*
X0318513Y0033385D01*
X0318561Y0033245D01*
X0318606Y0033104D01*
X0318647Y0032962D01*
X0318685Y0032819D01*
X0318718Y0032675D01*
X0318748Y0032530D01*
X0318774Y0032384D01*
X0318795Y0032238D01*
X0318813Y0032091D01*
X0318827Y0031944D01*
X0318837Y0031796D01*
X0318843Y0031648D01*
X0318845Y0031500D01*
X0318843Y0031352D01*
X0318837Y0031204D01*
X0318827Y0031056D01*
X0318813Y0030909D01*
X0318795Y0030762D01*
X0318774Y0030616D01*
X0318748Y0030470D01*
X0318718Y0030325D01*
X0318685Y0030181D01*
X0318647Y0030038D01*
X0318606Y0029896D01*
X0318561Y0029755D01*
X0318513Y0029615D01*
X0318460Y0029476D01*
X0318404Y0029339D01*
X0318344Y0029204D01*
X0318281Y0029070D01*
X0318214Y0028938D01*
X0318143Y0028808D01*
X0318069Y0028680D01*
X0317992Y0028554D01*
X0317911Y0028430D01*
X0317827Y0028308D01*
X0317740Y0028189D01*
X0317649Y0028072D01*
X0317555Y0027957D01*
X0317459Y0027845D01*
X0317359Y0027735D01*
X0317257Y0027629D01*
X0317151Y0027525D01*
X0317043Y0027424D01*
X0316932Y0027326D01*
X0316819Y0027230D01*
X0316703Y0027138D01*
X0316585Y0027049D01*
X0316464Y0026964D01*
X0316341Y0026881D01*
X0316216Y0026802D01*
X0316089Y0026726D01*
X0315960Y0026654D01*
X0315829Y0026585D01*
X0315696Y0026520D01*
X0315561Y0026459D01*
X0315425Y0026401D01*
X0315288Y0026346D01*
X0315149Y0026296D01*
X0315008Y0026249D01*
X0314867Y0026206D01*
X0314724Y0026166D01*
X0314580Y0026131D01*
X0314436Y0026099D01*
X0314290Y0026072D01*
X0314144Y0026048D01*
X0313997Y0026028D01*
X0313850Y0026012D01*
X0313703Y0026000D01*
X0313555Y0025992D01*
X0313407Y0025988D01*
X0313259Y0025988D01*
X0313111Y0025992D01*
X0312963Y0026000D01*
X0312816Y0026012D01*
X0312669Y0026028D01*
X0312522Y0026048D01*
X0312376Y0026072D01*
X0312230Y0026099D01*
X0312086Y0026131D01*
X0311942Y0026166D01*
X0311799Y0026206D01*
X0311658Y0026249D01*
X0311517Y0026296D01*
X0311378Y0026346D01*
X0311241Y0026401D01*
X0311105Y0026459D01*
X0310970Y0026520D01*
X0310837Y0026585D01*
X0310706Y0026654D01*
X0310577Y0026726D01*
X0310450Y0026802D01*
X0310325Y0026881D01*
X0310202Y0026964D01*
X0310081Y0027049D01*
X0309963Y0027138D01*
X0309847Y0027230D01*
X0309734Y0027326D01*
X0309623Y0027424D01*
X0309515Y0027525D01*
X0309409Y0027629D01*
X0309307Y0027735D01*
X0309207Y0027845D01*
X0309111Y0027957D01*
X0309017Y0028072D01*
X0308926Y0028189D01*
X0308839Y0028308D01*
X0308755Y0028430D01*
X0308674Y0028554D01*
X0308597Y0028680D01*
X0308523Y0028808D01*
X0308452Y0028938D01*
X0308385Y0029070D01*
X0308322Y0029204D01*
X0308262Y0029339D01*
X0308206Y0029476D01*
X0308153Y0029615D01*
X0308105Y0029755D01*
X0308060Y0029896D01*
X0308019Y0030038D01*
X0307981Y0030181D01*
X0307948Y0030325D01*
X0307918Y0030470D01*
X0307892Y0030616D01*
X0307871Y0030762D01*
X0307853Y0030909D01*
X0307839Y0031056D01*
X0307829Y0031204D01*
X0307823Y0031352D01*
X0307821Y0031500D01*
X0097821Y0031500D02*
X0097823Y0031648D01*
X0097829Y0031796D01*
X0097839Y0031944D01*
X0097853Y0032091D01*
X0097871Y0032238D01*
X0097892Y0032384D01*
X0097918Y0032530D01*
X0097948Y0032675D01*
X0097981Y0032819D01*
X0098019Y0032962D01*
X0098060Y0033104D01*
X0098105Y0033245D01*
X0098153Y0033385D01*
X0098206Y0033524D01*
X0098262Y0033661D01*
X0098322Y0033796D01*
X0098385Y0033930D01*
X0098452Y0034062D01*
X0098523Y0034192D01*
X0098597Y0034320D01*
X0098674Y0034446D01*
X0098755Y0034570D01*
X0098839Y0034692D01*
X0098926Y0034811D01*
X0099017Y0034928D01*
X0099111Y0035043D01*
X0099207Y0035155D01*
X0099307Y0035265D01*
X0099409Y0035371D01*
X0099515Y0035475D01*
X0099623Y0035576D01*
X0099734Y0035674D01*
X0099847Y0035770D01*
X0099963Y0035862D01*
X0100081Y0035951D01*
X0100202Y0036036D01*
X0100325Y0036119D01*
X0100450Y0036198D01*
X0100577Y0036274D01*
X0100706Y0036346D01*
X0100837Y0036415D01*
X0100970Y0036480D01*
X0101105Y0036541D01*
X0101241Y0036599D01*
X0101378Y0036654D01*
X0101517Y0036704D01*
X0101658Y0036751D01*
X0101799Y0036794D01*
X0101942Y0036834D01*
X0102086Y0036869D01*
X0102230Y0036901D01*
X0102376Y0036928D01*
X0102522Y0036952D01*
X0102669Y0036972D01*
X0102816Y0036988D01*
X0102963Y0037000D01*
X0103111Y0037008D01*
X0103259Y0037012D01*
X0103407Y0037012D01*
X0103555Y0037008D01*
X0103703Y0037000D01*
X0103850Y0036988D01*
X0103997Y0036972D01*
X0104144Y0036952D01*
X0104290Y0036928D01*
X0104436Y0036901D01*
X0104580Y0036869D01*
X0104724Y0036834D01*
X0104867Y0036794D01*
X0105008Y0036751D01*
X0105149Y0036704D01*
X0105288Y0036654D01*
X0105425Y0036599D01*
X0105561Y0036541D01*
X0105696Y0036480D01*
X0105829Y0036415D01*
X0105960Y0036346D01*
X0106089Y0036274D01*
X0106216Y0036198D01*
X0106341Y0036119D01*
X0106464Y0036036D01*
X0106585Y0035951D01*
X0106703Y0035862D01*
X0106819Y0035770D01*
X0106932Y0035674D01*
X0107043Y0035576D01*
X0107151Y0035475D01*
X0107257Y0035371D01*
X0107359Y0035265D01*
X0107459Y0035155D01*
X0107555Y0035043D01*
X0107649Y0034928D01*
X0107740Y0034811D01*
X0107827Y0034692D01*
X0107911Y0034570D01*
X0107992Y0034446D01*
X0108069Y0034320D01*
X0108143Y0034192D01*
X0108214Y0034062D01*
X0108281Y0033930D01*
X0108344Y0033796D01*
X0108404Y0033661D01*
X0108460Y0033524D01*
X0108513Y0033385D01*
X0108561Y0033245D01*
X0108606Y0033104D01*
X0108647Y0032962D01*
X0108685Y0032819D01*
X0108718Y0032675D01*
X0108748Y0032530D01*
X0108774Y0032384D01*
X0108795Y0032238D01*
X0108813Y0032091D01*
X0108827Y0031944D01*
X0108837Y0031796D01*
X0108843Y0031648D01*
X0108845Y0031500D01*
X0108843Y0031352D01*
X0108837Y0031204D01*
X0108827Y0031056D01*
X0108813Y0030909D01*
X0108795Y0030762D01*
X0108774Y0030616D01*
X0108748Y0030470D01*
X0108718Y0030325D01*
X0108685Y0030181D01*
X0108647Y0030038D01*
X0108606Y0029896D01*
X0108561Y0029755D01*
X0108513Y0029615D01*
X0108460Y0029476D01*
X0108404Y0029339D01*
X0108344Y0029204D01*
X0108281Y0029070D01*
X0108214Y0028938D01*
X0108143Y0028808D01*
X0108069Y0028680D01*
X0107992Y0028554D01*
X0107911Y0028430D01*
X0107827Y0028308D01*
X0107740Y0028189D01*
X0107649Y0028072D01*
X0107555Y0027957D01*
X0107459Y0027845D01*
X0107359Y0027735D01*
X0107257Y0027629D01*
X0107151Y0027525D01*
X0107043Y0027424D01*
X0106932Y0027326D01*
X0106819Y0027230D01*
X0106703Y0027138D01*
X0106585Y0027049D01*
X0106464Y0026964D01*
X0106341Y0026881D01*
X0106216Y0026802D01*
X0106089Y0026726D01*
X0105960Y0026654D01*
X0105829Y0026585D01*
X0105696Y0026520D01*
X0105561Y0026459D01*
X0105425Y0026401D01*
X0105288Y0026346D01*
X0105149Y0026296D01*
X0105008Y0026249D01*
X0104867Y0026206D01*
X0104724Y0026166D01*
X0104580Y0026131D01*
X0104436Y0026099D01*
X0104290Y0026072D01*
X0104144Y0026048D01*
X0103997Y0026028D01*
X0103850Y0026012D01*
X0103703Y0026000D01*
X0103555Y0025992D01*
X0103407Y0025988D01*
X0103259Y0025988D01*
X0103111Y0025992D01*
X0102963Y0026000D01*
X0102816Y0026012D01*
X0102669Y0026028D01*
X0102522Y0026048D01*
X0102376Y0026072D01*
X0102230Y0026099D01*
X0102086Y0026131D01*
X0101942Y0026166D01*
X0101799Y0026206D01*
X0101658Y0026249D01*
X0101517Y0026296D01*
X0101378Y0026346D01*
X0101241Y0026401D01*
X0101105Y0026459D01*
X0100970Y0026520D01*
X0100837Y0026585D01*
X0100706Y0026654D01*
X0100577Y0026726D01*
X0100450Y0026802D01*
X0100325Y0026881D01*
X0100202Y0026964D01*
X0100081Y0027049D01*
X0099963Y0027138D01*
X0099847Y0027230D01*
X0099734Y0027326D01*
X0099623Y0027424D01*
X0099515Y0027525D01*
X0099409Y0027629D01*
X0099307Y0027735D01*
X0099207Y0027845D01*
X0099111Y0027957D01*
X0099017Y0028072D01*
X0098926Y0028189D01*
X0098839Y0028308D01*
X0098755Y0028430D01*
X0098674Y0028554D01*
X0098597Y0028680D01*
X0098523Y0028808D01*
X0098452Y0028938D01*
X0098385Y0029070D01*
X0098322Y0029204D01*
X0098262Y0029339D01*
X0098206Y0029476D01*
X0098153Y0029615D01*
X0098105Y0029755D01*
X0098060Y0029896D01*
X0098019Y0030038D01*
X0097981Y0030181D01*
X0097948Y0030325D01*
X0097918Y0030470D01*
X0097892Y0030616D01*
X0097871Y0030762D01*
X0097853Y0030909D01*
X0097839Y0031056D01*
X0097829Y0031204D01*
X0097823Y0031352D01*
X0097821Y0031500D01*
X0097821Y0156500D02*
X0097823Y0156648D01*
X0097829Y0156796D01*
X0097839Y0156944D01*
X0097853Y0157091D01*
X0097871Y0157238D01*
X0097892Y0157384D01*
X0097918Y0157530D01*
X0097948Y0157675D01*
X0097981Y0157819D01*
X0098019Y0157962D01*
X0098060Y0158104D01*
X0098105Y0158245D01*
X0098153Y0158385D01*
X0098206Y0158524D01*
X0098262Y0158661D01*
X0098322Y0158796D01*
X0098385Y0158930D01*
X0098452Y0159062D01*
X0098523Y0159192D01*
X0098597Y0159320D01*
X0098674Y0159446D01*
X0098755Y0159570D01*
X0098839Y0159692D01*
X0098926Y0159811D01*
X0099017Y0159928D01*
X0099111Y0160043D01*
X0099207Y0160155D01*
X0099307Y0160265D01*
X0099409Y0160371D01*
X0099515Y0160475D01*
X0099623Y0160576D01*
X0099734Y0160674D01*
X0099847Y0160770D01*
X0099963Y0160862D01*
X0100081Y0160951D01*
X0100202Y0161036D01*
X0100325Y0161119D01*
X0100450Y0161198D01*
X0100577Y0161274D01*
X0100706Y0161346D01*
X0100837Y0161415D01*
X0100970Y0161480D01*
X0101105Y0161541D01*
X0101241Y0161599D01*
X0101378Y0161654D01*
X0101517Y0161704D01*
X0101658Y0161751D01*
X0101799Y0161794D01*
X0101942Y0161834D01*
X0102086Y0161869D01*
X0102230Y0161901D01*
X0102376Y0161928D01*
X0102522Y0161952D01*
X0102669Y0161972D01*
X0102816Y0161988D01*
X0102963Y0162000D01*
X0103111Y0162008D01*
X0103259Y0162012D01*
X0103407Y0162012D01*
X0103555Y0162008D01*
X0103703Y0162000D01*
X0103850Y0161988D01*
X0103997Y0161972D01*
X0104144Y0161952D01*
X0104290Y0161928D01*
X0104436Y0161901D01*
X0104580Y0161869D01*
X0104724Y0161834D01*
X0104867Y0161794D01*
X0105008Y0161751D01*
X0105149Y0161704D01*
X0105288Y0161654D01*
X0105425Y0161599D01*
X0105561Y0161541D01*
X0105696Y0161480D01*
X0105829Y0161415D01*
X0105960Y0161346D01*
X0106089Y0161274D01*
X0106216Y0161198D01*
X0106341Y0161119D01*
X0106464Y0161036D01*
X0106585Y0160951D01*
X0106703Y0160862D01*
X0106819Y0160770D01*
X0106932Y0160674D01*
X0107043Y0160576D01*
X0107151Y0160475D01*
X0107257Y0160371D01*
X0107359Y0160265D01*
X0107459Y0160155D01*
X0107555Y0160043D01*
X0107649Y0159928D01*
X0107740Y0159811D01*
X0107827Y0159692D01*
X0107911Y0159570D01*
X0107992Y0159446D01*
X0108069Y0159320D01*
X0108143Y0159192D01*
X0108214Y0159062D01*
X0108281Y0158930D01*
X0108344Y0158796D01*
X0108404Y0158661D01*
X0108460Y0158524D01*
X0108513Y0158385D01*
X0108561Y0158245D01*
X0108606Y0158104D01*
X0108647Y0157962D01*
X0108685Y0157819D01*
X0108718Y0157675D01*
X0108748Y0157530D01*
X0108774Y0157384D01*
X0108795Y0157238D01*
X0108813Y0157091D01*
X0108827Y0156944D01*
X0108837Y0156796D01*
X0108843Y0156648D01*
X0108845Y0156500D01*
X0108843Y0156352D01*
X0108837Y0156204D01*
X0108827Y0156056D01*
X0108813Y0155909D01*
X0108795Y0155762D01*
X0108774Y0155616D01*
X0108748Y0155470D01*
X0108718Y0155325D01*
X0108685Y0155181D01*
X0108647Y0155038D01*
X0108606Y0154896D01*
X0108561Y0154755D01*
X0108513Y0154615D01*
X0108460Y0154476D01*
X0108404Y0154339D01*
X0108344Y0154204D01*
X0108281Y0154070D01*
X0108214Y0153938D01*
X0108143Y0153808D01*
X0108069Y0153680D01*
X0107992Y0153554D01*
X0107911Y0153430D01*
X0107827Y0153308D01*
X0107740Y0153189D01*
X0107649Y0153072D01*
X0107555Y0152957D01*
X0107459Y0152845D01*
X0107359Y0152735D01*
X0107257Y0152629D01*
X0107151Y0152525D01*
X0107043Y0152424D01*
X0106932Y0152326D01*
X0106819Y0152230D01*
X0106703Y0152138D01*
X0106585Y0152049D01*
X0106464Y0151964D01*
X0106341Y0151881D01*
X0106216Y0151802D01*
X0106089Y0151726D01*
X0105960Y0151654D01*
X0105829Y0151585D01*
X0105696Y0151520D01*
X0105561Y0151459D01*
X0105425Y0151401D01*
X0105288Y0151346D01*
X0105149Y0151296D01*
X0105008Y0151249D01*
X0104867Y0151206D01*
X0104724Y0151166D01*
X0104580Y0151131D01*
X0104436Y0151099D01*
X0104290Y0151072D01*
X0104144Y0151048D01*
X0103997Y0151028D01*
X0103850Y0151012D01*
X0103703Y0151000D01*
X0103555Y0150992D01*
X0103407Y0150988D01*
X0103259Y0150988D01*
X0103111Y0150992D01*
X0102963Y0151000D01*
X0102816Y0151012D01*
X0102669Y0151028D01*
X0102522Y0151048D01*
X0102376Y0151072D01*
X0102230Y0151099D01*
X0102086Y0151131D01*
X0101942Y0151166D01*
X0101799Y0151206D01*
X0101658Y0151249D01*
X0101517Y0151296D01*
X0101378Y0151346D01*
X0101241Y0151401D01*
X0101105Y0151459D01*
X0100970Y0151520D01*
X0100837Y0151585D01*
X0100706Y0151654D01*
X0100577Y0151726D01*
X0100450Y0151802D01*
X0100325Y0151881D01*
X0100202Y0151964D01*
X0100081Y0152049D01*
X0099963Y0152138D01*
X0099847Y0152230D01*
X0099734Y0152326D01*
X0099623Y0152424D01*
X0099515Y0152525D01*
X0099409Y0152629D01*
X0099307Y0152735D01*
X0099207Y0152845D01*
X0099111Y0152957D01*
X0099017Y0153072D01*
X0098926Y0153189D01*
X0098839Y0153308D01*
X0098755Y0153430D01*
X0098674Y0153554D01*
X0098597Y0153680D01*
X0098523Y0153808D01*
X0098452Y0153938D01*
X0098385Y0154070D01*
X0098322Y0154204D01*
X0098262Y0154339D01*
X0098206Y0154476D01*
X0098153Y0154615D01*
X0098105Y0154755D01*
X0098060Y0154896D01*
X0098019Y0155038D01*
X0097981Y0155181D01*
X0097948Y0155325D01*
X0097918Y0155470D01*
X0097892Y0155616D01*
X0097871Y0155762D01*
X0097853Y0155909D01*
X0097839Y0156056D01*
X0097829Y0156204D01*
X0097823Y0156352D01*
X0097821Y0156500D01*
M02*
