%
M48
M72
T01C0.0160
T02C0.0160
T03C0.0160
T04C0.0160
T05C0.0160
%
T01
X15333Y6150
X16333Y6150
X19833Y6150
X20833Y6150
X21318Y8650
X19349Y8650
X16818Y8650
X14849Y8650
X28833Y12650
X28833Y13650
T02
X26333Y13150
X26333Y17150
X24833Y17150
X20833Y17150
X14133Y12150
X10433Y12150
X12833Y10150
X12833Y6150
X23333Y5250
X25333Y5150
X23333Y8950
X25333Y9150
T03
X27333Y9150
X27333Y8150
X18833Y2650
X17833Y2650
X16833Y2650
X10333Y7650
X10333Y8650
X15833Y14900
X17333Y14900
X18833Y14900
X18083Y16400
X16583Y16400
T04
X20833Y15650
X22333Y15650
X22333Y11650
X20833Y11650
T05
X10333Y3150
X31333Y3150
X31333Y15650
X10333Y15650
M30
