G75*
G70*
%OFA0B0*%
%FSLAX24Y24*%
%IPPOS*%
%LPD*%
%AMOC8*
5,1,8,0,0,1.08239X$1,22.5*
%
%ADD10C,0.0100*%
%ADD11C,0.0051*%
%ADD12C,0.0080*%
%ADD13C,0.0000*%
D10*
X007833Y000150D02*
X007833Y018646D01*
X033703Y018646D01*
X033703Y000150D01*
X007833Y000150D01*
D11*
X007833Y018646D02*
X007833Y019918D01*
X007833Y019150D02*
X008857Y019252D01*
X008857Y019276D02*
X008857Y019024D01*
X007833Y019150D01*
X008857Y019048D01*
X008857Y019099D02*
X007833Y019150D01*
X008857Y019201D01*
X008857Y019276D02*
X007833Y019150D01*
X033703Y019150D01*
X032680Y019048D01*
X032680Y019024D02*
X033703Y019150D01*
X032680Y019252D01*
X032680Y019276D02*
X032680Y019024D01*
X032680Y019099D02*
X033703Y019150D01*
X032680Y019201D01*
X032680Y019276D02*
X033703Y019150D01*
X033703Y018646D02*
X033703Y019918D01*
D12*
X021664Y019366D02*
X021384Y019366D01*
X021524Y019366D02*
X021524Y019787D01*
X021384Y019646D01*
X021204Y019716D02*
X020923Y019436D01*
X020923Y019366D01*
X020763Y019366D02*
X020693Y019366D01*
X020693Y019436D01*
X020763Y019436D01*
X020763Y019366D01*
X020513Y019436D02*
X020513Y019576D01*
X020443Y019646D01*
X020373Y019646D01*
X020233Y019576D01*
X020233Y019787D01*
X020513Y019787D01*
X020923Y019787D02*
X021204Y019787D01*
X021204Y019716D01*
X020513Y019436D02*
X020443Y019366D01*
X020303Y019366D01*
X020233Y019436D01*
X020053Y019436D02*
X020053Y019506D01*
X019983Y019576D01*
X019772Y019576D01*
X019772Y019436D01*
X019843Y019366D01*
X019983Y019366D01*
X020053Y019436D01*
X019913Y019716D02*
X019772Y019576D01*
X019913Y019716D02*
X020053Y019787D01*
D13*
X009782Y015650D02*
X009784Y015697D01*
X009790Y015743D01*
X009800Y015789D01*
X009813Y015834D01*
X009831Y015877D01*
X009852Y015919D01*
X009876Y015959D01*
X009904Y015996D01*
X009935Y016031D01*
X009969Y016064D01*
X010005Y016093D01*
X010044Y016119D01*
X010085Y016142D01*
X010128Y016161D01*
X010172Y016177D01*
X010217Y016189D01*
X010263Y016197D01*
X010310Y016201D01*
X010356Y016201D01*
X010403Y016197D01*
X010449Y016189D01*
X010494Y016177D01*
X010538Y016161D01*
X010581Y016142D01*
X010622Y016119D01*
X010661Y016093D01*
X010697Y016064D01*
X010731Y016031D01*
X010762Y015996D01*
X010790Y015959D01*
X010814Y015919D01*
X010835Y015877D01*
X010853Y015834D01*
X010866Y015789D01*
X010876Y015743D01*
X010882Y015697D01*
X010884Y015650D01*
X010882Y015603D01*
X010876Y015557D01*
X010866Y015511D01*
X010853Y015466D01*
X010835Y015423D01*
X010814Y015381D01*
X010790Y015341D01*
X010762Y015304D01*
X010731Y015269D01*
X010697Y015236D01*
X010661Y015207D01*
X010622Y015181D01*
X010581Y015158D01*
X010538Y015139D01*
X010494Y015123D01*
X010449Y015111D01*
X010403Y015103D01*
X010356Y015099D01*
X010310Y015099D01*
X010263Y015103D01*
X010217Y015111D01*
X010172Y015123D01*
X010128Y015139D01*
X010085Y015158D01*
X010044Y015181D01*
X010005Y015207D01*
X009969Y015236D01*
X009935Y015269D01*
X009904Y015304D01*
X009876Y015341D01*
X009852Y015381D01*
X009831Y015423D01*
X009813Y015466D01*
X009800Y015511D01*
X009790Y015557D01*
X009784Y015603D01*
X009782Y015650D01*
X030782Y015650D02*
X030784Y015697D01*
X030790Y015743D01*
X030800Y015789D01*
X030813Y015834D01*
X030831Y015877D01*
X030852Y015919D01*
X030876Y015959D01*
X030904Y015996D01*
X030935Y016031D01*
X030969Y016064D01*
X031005Y016093D01*
X031044Y016119D01*
X031085Y016142D01*
X031128Y016161D01*
X031172Y016177D01*
X031217Y016189D01*
X031263Y016197D01*
X031310Y016201D01*
X031356Y016201D01*
X031403Y016197D01*
X031449Y016189D01*
X031494Y016177D01*
X031538Y016161D01*
X031581Y016142D01*
X031622Y016119D01*
X031661Y016093D01*
X031697Y016064D01*
X031731Y016031D01*
X031762Y015996D01*
X031790Y015959D01*
X031814Y015919D01*
X031835Y015877D01*
X031853Y015834D01*
X031866Y015789D01*
X031876Y015743D01*
X031882Y015697D01*
X031884Y015650D01*
X031882Y015603D01*
X031876Y015557D01*
X031866Y015511D01*
X031853Y015466D01*
X031835Y015423D01*
X031814Y015381D01*
X031790Y015341D01*
X031762Y015304D01*
X031731Y015269D01*
X031697Y015236D01*
X031661Y015207D01*
X031622Y015181D01*
X031581Y015158D01*
X031538Y015139D01*
X031494Y015123D01*
X031449Y015111D01*
X031403Y015103D01*
X031356Y015099D01*
X031310Y015099D01*
X031263Y015103D01*
X031217Y015111D01*
X031172Y015123D01*
X031128Y015139D01*
X031085Y015158D01*
X031044Y015181D01*
X031005Y015207D01*
X030969Y015236D01*
X030935Y015269D01*
X030904Y015304D01*
X030876Y015341D01*
X030852Y015381D01*
X030831Y015423D01*
X030813Y015466D01*
X030800Y015511D01*
X030790Y015557D01*
X030784Y015603D01*
X030782Y015650D01*
X030782Y003150D02*
X030784Y003197D01*
X030790Y003243D01*
X030800Y003289D01*
X030813Y003334D01*
X030831Y003377D01*
X030852Y003419D01*
X030876Y003459D01*
X030904Y003496D01*
X030935Y003531D01*
X030969Y003564D01*
X031005Y003593D01*
X031044Y003619D01*
X031085Y003642D01*
X031128Y003661D01*
X031172Y003677D01*
X031217Y003689D01*
X031263Y003697D01*
X031310Y003701D01*
X031356Y003701D01*
X031403Y003697D01*
X031449Y003689D01*
X031494Y003677D01*
X031538Y003661D01*
X031581Y003642D01*
X031622Y003619D01*
X031661Y003593D01*
X031697Y003564D01*
X031731Y003531D01*
X031762Y003496D01*
X031790Y003459D01*
X031814Y003419D01*
X031835Y003377D01*
X031853Y003334D01*
X031866Y003289D01*
X031876Y003243D01*
X031882Y003197D01*
X031884Y003150D01*
X031882Y003103D01*
X031876Y003057D01*
X031866Y003011D01*
X031853Y002966D01*
X031835Y002923D01*
X031814Y002881D01*
X031790Y002841D01*
X031762Y002804D01*
X031731Y002769D01*
X031697Y002736D01*
X031661Y002707D01*
X031622Y002681D01*
X031581Y002658D01*
X031538Y002639D01*
X031494Y002623D01*
X031449Y002611D01*
X031403Y002603D01*
X031356Y002599D01*
X031310Y002599D01*
X031263Y002603D01*
X031217Y002611D01*
X031172Y002623D01*
X031128Y002639D01*
X031085Y002658D01*
X031044Y002681D01*
X031005Y002707D01*
X030969Y002736D01*
X030935Y002769D01*
X030904Y002804D01*
X030876Y002841D01*
X030852Y002881D01*
X030831Y002923D01*
X030813Y002966D01*
X030800Y003011D01*
X030790Y003057D01*
X030784Y003103D01*
X030782Y003150D01*
X009782Y003150D02*
X009784Y003197D01*
X009790Y003243D01*
X009800Y003289D01*
X009813Y003334D01*
X009831Y003377D01*
X009852Y003419D01*
X009876Y003459D01*
X009904Y003496D01*
X009935Y003531D01*
X009969Y003564D01*
X010005Y003593D01*
X010044Y003619D01*
X010085Y003642D01*
X010128Y003661D01*
X010172Y003677D01*
X010217Y003689D01*
X010263Y003697D01*
X010310Y003701D01*
X010356Y003701D01*
X010403Y003697D01*
X010449Y003689D01*
X010494Y003677D01*
X010538Y003661D01*
X010581Y003642D01*
X010622Y003619D01*
X010661Y003593D01*
X010697Y003564D01*
X010731Y003531D01*
X010762Y003496D01*
X010790Y003459D01*
X010814Y003419D01*
X010835Y003377D01*
X010853Y003334D01*
X010866Y003289D01*
X010876Y003243D01*
X010882Y003197D01*
X010884Y003150D01*
X010882Y003103D01*
X010876Y003057D01*
X010866Y003011D01*
X010853Y002966D01*
X010835Y002923D01*
X010814Y002881D01*
X010790Y002841D01*
X010762Y002804D01*
X010731Y002769D01*
X010697Y002736D01*
X010661Y002707D01*
X010622Y002681D01*
X010581Y002658D01*
X010538Y002639D01*
X010494Y002623D01*
X010449Y002611D01*
X010403Y002603D01*
X010356Y002599D01*
X010310Y002599D01*
X010263Y002603D01*
X010217Y002611D01*
X010172Y002623D01*
X010128Y002639D01*
X010085Y002658D01*
X010044Y002681D01*
X010005Y002707D01*
X009969Y002736D01*
X009935Y002769D01*
X009904Y002804D01*
X009876Y002841D01*
X009852Y002881D01*
X009831Y002923D01*
X009813Y002966D01*
X009800Y003011D01*
X009790Y003057D01*
X009784Y003103D01*
X009782Y003150D01*
M02*
