G75*
G70*
%OFA0B0*%
%FSLAX24Y24*%
%IPPOS*%
%LPD*%
%AMOC8*
5,1,8,0,0,1.08239X$1,22.5*
%
%ADD10C,0.0080*%
%ADD11C,0.0600*%
%ADD12C,0.0750*%
%ADD13C,0.0650*%
%ADD14R,0.0650X0.0650*%
%ADD15C,0.0760*%
%ADD16C,0.0740*%
%ADD17C,0.0320*%
%ADD18C,0.0400*%
D10*
X022949Y003150D02*
X023019Y003080D01*
X023229Y003080D01*
X023229Y002940D02*
X023229Y003360D01*
X023019Y003360D01*
X022949Y003290D01*
X022949Y003150D01*
X023409Y003360D02*
X023409Y002940D01*
X023689Y002940D02*
X023689Y003360D01*
X023549Y003220D01*
X023409Y003360D01*
X023870Y003220D02*
X023870Y002940D01*
X023870Y003150D02*
X024150Y003150D01*
X024150Y003220D02*
X024010Y003360D01*
X023870Y003220D01*
X024150Y003220D02*
X024150Y002940D01*
X024323Y002610D02*
X024253Y002540D01*
X024533Y002260D01*
X024463Y002190D01*
X024323Y002190D01*
X024253Y002260D01*
X024253Y002540D01*
X024323Y002610D02*
X024463Y002610D01*
X024533Y002540D01*
X024533Y002260D01*
X024714Y002190D02*
X024994Y002190D01*
X024714Y002470D01*
X024714Y002540D01*
X024784Y002610D01*
X024924Y002610D01*
X024994Y002540D01*
X025691Y002610D02*
X025691Y002190D01*
X025761Y002190D02*
X025621Y002190D01*
X025941Y002260D02*
X025941Y002400D01*
X026011Y002470D01*
X026152Y002470D01*
X026222Y002400D01*
X026222Y002260D01*
X026152Y002190D01*
X026011Y002190D01*
X025941Y002260D01*
X026402Y002260D02*
X026402Y002400D01*
X026472Y002470D01*
X026682Y002470D01*
X026682Y002050D01*
X026682Y002190D02*
X026472Y002190D01*
X026402Y002260D01*
X026862Y002260D02*
X026862Y002400D01*
X026932Y002470D01*
X027072Y002470D01*
X027142Y002400D01*
X027142Y002260D01*
X027072Y002190D01*
X026932Y002190D01*
X026862Y002260D01*
X027316Y002190D02*
X027526Y002330D01*
X027316Y002470D01*
X027526Y002610D02*
X027526Y002190D01*
X027693Y002190D02*
X027833Y002190D01*
X027763Y002190D02*
X027763Y002470D01*
X027833Y002470D01*
X027763Y002610D02*
X027763Y002680D01*
X028013Y002610D02*
X028013Y002190D01*
X028293Y002610D01*
X028293Y002190D01*
X028153Y002940D02*
X028153Y003360D01*
X028293Y003360D02*
X028013Y003360D01*
X027833Y003360D02*
X027623Y003360D01*
X027553Y003290D01*
X027553Y003010D01*
X027623Y002940D01*
X027833Y002940D01*
X027833Y003360D01*
X027373Y003220D02*
X027232Y003360D01*
X027092Y003220D01*
X027092Y002940D01*
X026912Y002940D02*
X026632Y003220D01*
X026632Y003290D01*
X026702Y003360D01*
X026842Y003360D01*
X026912Y003290D01*
X027092Y003150D02*
X027373Y003150D01*
X027373Y003220D02*
X027373Y002940D01*
X026912Y002940D02*
X026632Y002940D01*
X026452Y003010D02*
X026172Y003290D01*
X026172Y003010D01*
X026242Y002940D01*
X026382Y002940D01*
X026452Y003010D01*
X026452Y003290D01*
X026382Y003360D01*
X026242Y003360D01*
X026172Y003290D01*
X025991Y003290D02*
X025921Y003360D01*
X025781Y003360D01*
X025711Y003290D01*
X025711Y003220D01*
X025781Y003150D01*
X025711Y003080D01*
X025711Y003010D01*
X025781Y002940D01*
X025921Y002940D01*
X025991Y003010D01*
X025851Y003150D02*
X025781Y003150D01*
X025531Y003010D02*
X025251Y003290D01*
X025251Y003010D01*
X025321Y002940D01*
X025461Y002940D01*
X025531Y003010D01*
X025531Y003290D01*
X025461Y003360D01*
X025321Y003360D01*
X025251Y003290D01*
X025071Y003220D02*
X024930Y003360D01*
X024790Y003220D01*
X024790Y002940D01*
X024790Y003150D02*
X025071Y003150D01*
X025071Y003220D02*
X025071Y002940D01*
X025691Y002610D02*
X025761Y002610D01*
X024073Y002470D02*
X023933Y002610D01*
X023933Y002190D01*
X024073Y002190D02*
X023793Y002190D01*
X023613Y002260D02*
X023543Y002190D01*
X023402Y002190D01*
X023332Y002260D01*
X023332Y002330D01*
X023402Y002400D01*
X023473Y002400D01*
X023402Y002400D02*
X023332Y002470D01*
X023332Y002540D01*
X023402Y002610D01*
X023543Y002610D01*
X023613Y002540D01*
D11*
X018833Y002350D02*
X018833Y002950D01*
X017833Y002950D02*
X017833Y002350D01*
X016833Y002350D02*
X016833Y002950D01*
X010633Y007650D02*
X010033Y007650D01*
X010033Y008650D02*
X010633Y008650D01*
X015833Y014600D02*
X015833Y015200D01*
X016583Y016100D02*
X016583Y016700D01*
X018083Y016700D02*
X018083Y016100D01*
X017333Y015200D02*
X017333Y014600D01*
X018833Y014600D02*
X018833Y015200D01*
X027033Y009150D02*
X027633Y009150D01*
X027633Y008150D02*
X027033Y008150D01*
D12*
X023333Y008950D03*
X023333Y005250D03*
X014133Y012150D03*
X010433Y012150D03*
D13*
X014849Y008650D03*
X016818Y008650D03*
X019349Y008650D03*
X021318Y008650D03*
X020833Y006150D03*
X016333Y006150D03*
X028833Y012650D03*
D14*
X028833Y013650D03*
X019833Y006150D03*
X015333Y006150D03*
D15*
X020833Y011650D03*
X022333Y011650D03*
X022333Y015650D03*
X020833Y015650D03*
D16*
X020833Y017150D03*
X024833Y017150D03*
X026333Y017150D03*
X026333Y013150D03*
X025333Y009150D03*
X025333Y005150D03*
X012833Y006150D03*
X012833Y010150D03*
D17*
X013333Y010150D01*
X013833Y010650D01*
X013833Y011850D01*
X014133Y012150D01*
X014133Y013950D01*
X014833Y014650D01*
X015583Y014650D01*
X015833Y014900D01*
X017333Y014900D02*
X017333Y013150D01*
X016818Y012634D01*
X016818Y011650D01*
X016818Y008650D01*
X016333Y008666D01*
X016333Y006150D01*
X016833Y005650D01*
X016833Y002650D01*
X018833Y002650D02*
X019833Y003650D01*
X019833Y006150D01*
X019349Y006634D01*
X019349Y008650D01*
X020349Y010150D01*
X021833Y010150D01*
X022333Y010650D01*
X022333Y011650D01*
X022333Y012650D01*
X021333Y013650D01*
X019833Y013650D01*
X018833Y014650D01*
X018833Y014900D01*
X019833Y015650D02*
X019333Y016150D01*
X018333Y016150D01*
X018083Y016400D01*
X016583Y016400D02*
X016583Y017400D01*
X016833Y017650D01*
X020333Y017650D01*
X020833Y017150D01*
X020833Y015650D02*
X019833Y015650D01*
X020833Y015650D02*
X022333Y015650D01*
X023833Y015650D01*
X026333Y013150D01*
X026333Y011650D01*
X027333Y010650D01*
X027333Y009150D01*
X025333Y009150D01*
X020833Y011650D02*
X016818Y011650D01*
X010433Y012150D02*
X010333Y012050D01*
X010333Y008650D01*
X023333Y005250D02*
X024233Y005050D01*
X025333Y005150D01*
X028833Y013650D02*
X028833Y015650D01*
X027333Y017150D01*
X026333Y017150D01*
X024833Y017150D01*
D18*
X012833Y006150D02*
X010333Y006150D01*
X010333Y007650D01*
X012833Y006150D02*
X015333Y006150D01*
X015333Y001150D01*
X017833Y001150D01*
X020833Y001150D01*
X020833Y006150D01*
X020833Y008166D01*
X021318Y008650D01*
X021833Y008650D01*
X022333Y009150D01*
X023133Y009150D01*
X023333Y008950D01*
X023333Y008150D01*
X023833Y007650D01*
X026833Y007650D01*
X027333Y008150D01*
X028833Y008150D01*
X028833Y012650D01*
X015333Y006150D02*
X014849Y006634D01*
X014849Y008650D01*
X017833Y002650D02*
X017833Y001150D01*
M02*
