G75*
%MOIN*%
%OFA0B0*%
%FSLAX25Y25*%
%IPPOS*%
%LPD*%
%AMOC8*
5,1,8,0,0,1.08239X$1,22.5*
%
%ADD10C,0.06000*%
%ADD11C,0.07500*%
%ADD12C,0.06500*%
%ADD13R,0.06500X0.06500*%
%ADD14C,0.07600*%
%ADD15C,0.07400*%
D10*
X0100333Y0076500D02*
X0106333Y0076500D01*
X0106333Y0086500D02*
X0100333Y0086500D01*
X0158333Y0146000D02*
X0158333Y0152000D01*
X0165833Y0161000D02*
X0165833Y0167000D01*
X0180833Y0167000D02*
X0180833Y0161000D01*
X0173333Y0152000D02*
X0173333Y0146000D01*
X0188333Y0146000D02*
X0188333Y0152000D01*
X0270333Y0091500D02*
X0276333Y0091500D01*
X0276333Y0081500D02*
X0270333Y0081500D01*
X0188333Y0029500D02*
X0188333Y0023500D01*
X0178333Y0023500D02*
X0178333Y0029500D01*
X0168333Y0029500D02*
X0168333Y0023500D01*
D11*
X0233333Y0052500D03*
X0233333Y0089500D03*
X0141333Y0121500D03*
X0104333Y0121500D03*
D12*
X0148491Y0086500D03*
X0168176Y0086500D03*
X0193491Y0086500D03*
X0213176Y0086500D03*
X0208333Y0061500D03*
X0163333Y0061500D03*
X0288333Y0126500D03*
D13*
X0288333Y0136500D03*
X0198333Y0061500D03*
X0153333Y0061500D03*
D14*
X0208333Y0116500D03*
X0223333Y0116500D03*
X0223333Y0156500D03*
X0208333Y0156500D03*
D15*
X0208333Y0171500D03*
X0248333Y0171500D03*
X0263333Y0171500D03*
X0263333Y0131500D03*
X0253333Y0091500D03*
X0253333Y0051500D03*
X0128333Y0061500D03*
X0128333Y0101500D03*
M02*
