G75*
G70*
%OFA0B0*%
%FSLAX24Y24*%
%IPPOS*%
%LPD*%
%AMOC8*
5,1,8,0,0,1.08239X$1,22.5*
%
%ADD10C,0.0100*%
%ADD11C,0.0080*%
%ADD12C,0.0051*%
%ADD13C,0.0060*%
%ADD14C,0.0050*%
%ADD15R,0.4000X0.0500*%
%ADD16R,0.0300X0.1000*%
%ADD17C,0.0010*%
%ADD18R,0.1000X0.0200*%
%ADD19R,0.0300X0.0750*%
%ADD20C,0.0000*%
D10*
X007833Y000150D02*
X007833Y018646D01*
X033703Y018646D01*
X033703Y000150D01*
X007833Y000150D01*
D11*
X009742Y003150D02*
X009744Y003198D01*
X009750Y003246D01*
X009760Y003293D01*
X009773Y003339D01*
X009791Y003384D01*
X009811Y003428D01*
X009836Y003470D01*
X009864Y003509D01*
X009894Y003546D01*
X009928Y003580D01*
X009965Y003612D01*
X010003Y003641D01*
X010044Y003666D01*
X010087Y003688D01*
X010132Y003706D01*
X010178Y003720D01*
X010225Y003731D01*
X010273Y003738D01*
X010321Y003741D01*
X010369Y003740D01*
X010417Y003735D01*
X010465Y003726D01*
X010511Y003714D01*
X010556Y003697D01*
X010600Y003677D01*
X010642Y003654D01*
X010682Y003627D01*
X010720Y003597D01*
X010755Y003564D01*
X010787Y003528D01*
X010817Y003490D01*
X010843Y003449D01*
X010865Y003406D01*
X010885Y003362D01*
X010900Y003317D01*
X010912Y003270D01*
X010920Y003222D01*
X010924Y003174D01*
X010924Y003126D01*
X010920Y003078D01*
X010912Y003030D01*
X010900Y002983D01*
X010885Y002938D01*
X010865Y002894D01*
X010843Y002851D01*
X010817Y002810D01*
X010787Y002772D01*
X010755Y002736D01*
X010720Y002703D01*
X010682Y002673D01*
X010642Y002646D01*
X010600Y002623D01*
X010556Y002603D01*
X010511Y002586D01*
X010465Y002574D01*
X010417Y002565D01*
X010369Y002560D01*
X010321Y002559D01*
X010273Y002562D01*
X010225Y002569D01*
X010178Y002580D01*
X010132Y002594D01*
X010087Y002612D01*
X010044Y002634D01*
X010003Y002659D01*
X009965Y002688D01*
X009928Y002720D01*
X009894Y002754D01*
X009864Y002791D01*
X009836Y002830D01*
X009811Y002872D01*
X009791Y002916D01*
X009773Y002961D01*
X009760Y003007D01*
X009750Y003054D01*
X009744Y003102D01*
X009742Y003150D01*
X014553Y006150D02*
X014555Y006221D01*
X014561Y006292D01*
X014571Y006363D01*
X014585Y006432D01*
X014602Y006501D01*
X014624Y006569D01*
X014649Y006636D01*
X014678Y006701D01*
X014710Y006764D01*
X014746Y006826D01*
X014785Y006885D01*
X014828Y006942D01*
X014873Y006997D01*
X014922Y007049D01*
X014973Y007098D01*
X015027Y007144D01*
X015084Y007188D01*
X015142Y007228D01*
X015203Y007264D01*
X015266Y007298D01*
X015331Y007327D01*
X015397Y007353D01*
X015465Y007376D01*
X015533Y007394D01*
X015603Y007409D01*
X015673Y007420D01*
X015744Y007427D01*
X015815Y007430D01*
X015886Y007429D01*
X015957Y007424D01*
X016028Y007415D01*
X016098Y007402D01*
X016167Y007386D01*
X016235Y007365D01*
X016302Y007341D01*
X016368Y007313D01*
X016431Y007281D01*
X016493Y007246D01*
X016553Y007208D01*
X016611Y007166D01*
X016666Y007122D01*
X016719Y007074D01*
X016769Y007023D01*
X016816Y006970D01*
X016860Y006914D01*
X016901Y006856D01*
X016939Y006795D01*
X016973Y006733D01*
X017003Y006668D01*
X017030Y006603D01*
X017054Y006535D01*
X017073Y006467D01*
X017089Y006398D01*
X017101Y006327D01*
X017109Y006257D01*
X017113Y006186D01*
X017113Y006114D01*
X017109Y006043D01*
X017101Y005973D01*
X017089Y005902D01*
X017073Y005833D01*
X017054Y005765D01*
X017030Y005697D01*
X017003Y005632D01*
X016973Y005567D01*
X016939Y005505D01*
X016901Y005444D01*
X016860Y005386D01*
X016816Y005330D01*
X016769Y005277D01*
X016719Y005226D01*
X016666Y005178D01*
X016611Y005134D01*
X016553Y005092D01*
X016493Y005054D01*
X016431Y005019D01*
X016368Y004987D01*
X016302Y004959D01*
X016235Y004935D01*
X016167Y004914D01*
X016098Y004898D01*
X016028Y004885D01*
X015957Y004876D01*
X015886Y004871D01*
X015815Y004870D01*
X015744Y004873D01*
X015673Y004880D01*
X015603Y004891D01*
X015533Y004906D01*
X015465Y004924D01*
X015397Y004947D01*
X015331Y004973D01*
X015266Y005002D01*
X015203Y005036D01*
X015142Y005072D01*
X015084Y005112D01*
X015027Y005156D01*
X014973Y005202D01*
X014922Y005251D01*
X014873Y005303D01*
X014828Y005358D01*
X014785Y005415D01*
X014746Y005474D01*
X014710Y005536D01*
X014678Y005599D01*
X014649Y005664D01*
X014624Y005731D01*
X014602Y005799D01*
X014585Y005868D01*
X014571Y005937D01*
X014561Y006008D01*
X014555Y006079D01*
X014553Y006150D01*
X013306Y006910D02*
X013306Y009390D01*
X012361Y009390D01*
X012361Y006910D01*
X013306Y006910D01*
X015833Y008400D02*
X015833Y008900D01*
X020333Y008900D02*
X020333Y008400D01*
X023083Y007150D02*
X023333Y007150D01*
X023333Y008150D01*
X024861Y008390D02*
X025806Y008390D01*
X025806Y005910D01*
X024861Y005910D01*
X024861Y008390D01*
X023583Y007150D02*
X023333Y007150D01*
X023333Y006150D01*
X021083Y005650D02*
X020583Y005650D01*
X019053Y006150D02*
X019055Y006221D01*
X019061Y006292D01*
X019071Y006363D01*
X019085Y006432D01*
X019102Y006501D01*
X019124Y006569D01*
X019149Y006636D01*
X019178Y006701D01*
X019210Y006764D01*
X019246Y006826D01*
X019285Y006885D01*
X019328Y006942D01*
X019373Y006997D01*
X019422Y007049D01*
X019473Y007098D01*
X019527Y007144D01*
X019584Y007188D01*
X019642Y007228D01*
X019703Y007264D01*
X019766Y007298D01*
X019831Y007327D01*
X019897Y007353D01*
X019965Y007376D01*
X020033Y007394D01*
X020103Y007409D01*
X020173Y007420D01*
X020244Y007427D01*
X020315Y007430D01*
X020386Y007429D01*
X020457Y007424D01*
X020528Y007415D01*
X020598Y007402D01*
X020667Y007386D01*
X020735Y007365D01*
X020802Y007341D01*
X020868Y007313D01*
X020931Y007281D01*
X020993Y007246D01*
X021053Y007208D01*
X021111Y007166D01*
X021166Y007122D01*
X021219Y007074D01*
X021269Y007023D01*
X021316Y006970D01*
X021360Y006914D01*
X021401Y006856D01*
X021439Y006795D01*
X021473Y006733D01*
X021503Y006668D01*
X021530Y006603D01*
X021554Y006535D01*
X021573Y006467D01*
X021589Y006398D01*
X021601Y006327D01*
X021609Y006257D01*
X021613Y006186D01*
X021613Y006114D01*
X021609Y006043D01*
X021601Y005973D01*
X021589Y005902D01*
X021573Y005833D01*
X021554Y005765D01*
X021530Y005697D01*
X021503Y005632D01*
X021473Y005567D01*
X021439Y005505D01*
X021401Y005444D01*
X021360Y005386D01*
X021316Y005330D01*
X021269Y005277D01*
X021219Y005226D01*
X021166Y005178D01*
X021111Y005134D01*
X021053Y005092D01*
X020993Y005054D01*
X020931Y005019D01*
X020868Y004987D01*
X020802Y004959D01*
X020735Y004935D01*
X020667Y004914D01*
X020598Y004898D01*
X020528Y004885D01*
X020457Y004876D01*
X020386Y004871D01*
X020315Y004870D01*
X020244Y004873D01*
X020173Y004880D01*
X020103Y004891D01*
X020033Y004906D01*
X019965Y004924D01*
X019897Y004947D01*
X019831Y004973D01*
X019766Y005002D01*
X019703Y005036D01*
X019642Y005072D01*
X019584Y005112D01*
X019527Y005156D01*
X019473Y005202D01*
X019422Y005251D01*
X019373Y005303D01*
X019328Y005358D01*
X019285Y005415D01*
X019246Y005474D01*
X019210Y005536D01*
X019178Y005599D01*
X019149Y005664D01*
X019124Y005731D01*
X019102Y005799D01*
X019085Y005868D01*
X019071Y005937D01*
X019061Y006008D01*
X019055Y006079D01*
X019053Y006150D01*
X016583Y005650D02*
X016083Y005650D01*
X009460Y008190D02*
X009460Y008610D01*
X009180Y008610D02*
X009460Y008190D01*
X009180Y008190D02*
X009180Y008610D01*
X009013Y008610D02*
X008873Y008610D01*
X008943Y008610D02*
X008943Y008190D01*
X008873Y008190D02*
X009013Y008190D01*
X012333Y011900D02*
X012333Y012150D01*
X013333Y012150D01*
X012333Y012150D02*
X011333Y012150D01*
X012333Y012150D02*
X012333Y012400D01*
X009742Y015650D02*
X009744Y015698D01*
X009750Y015746D01*
X009760Y015793D01*
X009773Y015839D01*
X009791Y015884D01*
X009811Y015928D01*
X009836Y015970D01*
X009864Y016009D01*
X009894Y016046D01*
X009928Y016080D01*
X009965Y016112D01*
X010003Y016141D01*
X010044Y016166D01*
X010087Y016188D01*
X010132Y016206D01*
X010178Y016220D01*
X010225Y016231D01*
X010273Y016238D01*
X010321Y016241D01*
X010369Y016240D01*
X010417Y016235D01*
X010465Y016226D01*
X010511Y016214D01*
X010556Y016197D01*
X010600Y016177D01*
X010642Y016154D01*
X010682Y016127D01*
X010720Y016097D01*
X010755Y016064D01*
X010787Y016028D01*
X010817Y015990D01*
X010843Y015949D01*
X010865Y015906D01*
X010885Y015862D01*
X010900Y015817D01*
X010912Y015770D01*
X010920Y015722D01*
X010924Y015674D01*
X010924Y015626D01*
X010920Y015578D01*
X010912Y015530D01*
X010900Y015483D01*
X010885Y015438D01*
X010865Y015394D01*
X010843Y015351D01*
X010817Y015310D01*
X010787Y015272D01*
X010755Y015236D01*
X010720Y015203D01*
X010682Y015173D01*
X010642Y015146D01*
X010600Y015123D01*
X010556Y015103D01*
X010511Y015086D01*
X010465Y015074D01*
X010417Y015065D01*
X010369Y015060D01*
X010321Y015059D01*
X010273Y015062D01*
X010225Y015069D01*
X010178Y015080D01*
X010132Y015094D01*
X010087Y015112D01*
X010044Y015134D01*
X010003Y015159D01*
X009965Y015188D01*
X009928Y015220D01*
X009894Y015254D01*
X009864Y015291D01*
X009836Y015330D01*
X009811Y015372D01*
X009791Y015416D01*
X009773Y015461D01*
X009760Y015507D01*
X009750Y015554D01*
X009744Y015602D01*
X009742Y015650D01*
X019772Y019436D02*
X019843Y019366D01*
X019983Y019366D01*
X020053Y019436D01*
X020053Y019506D01*
X019983Y019576D01*
X019772Y019576D01*
X019772Y019436D01*
X019772Y019576D02*
X019913Y019716D01*
X020053Y019787D01*
X020233Y019787D02*
X020233Y019576D01*
X020373Y019646D01*
X020443Y019646D01*
X020513Y019576D01*
X020513Y019436D01*
X020443Y019366D01*
X020303Y019366D01*
X020233Y019436D01*
X020693Y019436D02*
X020763Y019436D01*
X020763Y019366D01*
X020693Y019366D01*
X020693Y019436D01*
X020923Y019436D02*
X020923Y019366D01*
X020923Y019436D02*
X021204Y019716D01*
X021204Y019787D01*
X020923Y019787D01*
X020513Y019787D02*
X020233Y019787D01*
X021384Y019646D02*
X021524Y019787D01*
X021524Y019366D01*
X021384Y019366D02*
X021664Y019366D01*
X021593Y017622D02*
X024073Y017622D01*
X024073Y016678D01*
X021593Y016678D01*
X021593Y017622D01*
X025861Y016390D02*
X025861Y013910D01*
X026806Y013910D01*
X026806Y016390D01*
X025861Y016390D01*
X030742Y015650D02*
X030744Y015698D01*
X030750Y015746D01*
X030760Y015793D01*
X030773Y015839D01*
X030791Y015884D01*
X030811Y015928D01*
X030836Y015970D01*
X030864Y016009D01*
X030894Y016046D01*
X030928Y016080D01*
X030965Y016112D01*
X031003Y016141D01*
X031044Y016166D01*
X031087Y016188D01*
X031132Y016206D01*
X031178Y016220D01*
X031225Y016231D01*
X031273Y016238D01*
X031321Y016241D01*
X031369Y016240D01*
X031417Y016235D01*
X031465Y016226D01*
X031511Y016214D01*
X031556Y016197D01*
X031600Y016177D01*
X031642Y016154D01*
X031682Y016127D01*
X031720Y016097D01*
X031755Y016064D01*
X031787Y016028D01*
X031817Y015990D01*
X031843Y015949D01*
X031865Y015906D01*
X031885Y015862D01*
X031900Y015817D01*
X031912Y015770D01*
X031920Y015722D01*
X031924Y015674D01*
X031924Y015626D01*
X031920Y015578D01*
X031912Y015530D01*
X031900Y015483D01*
X031885Y015438D01*
X031865Y015394D01*
X031843Y015351D01*
X031817Y015310D01*
X031787Y015272D01*
X031755Y015236D01*
X031720Y015203D01*
X031682Y015173D01*
X031642Y015146D01*
X031600Y015123D01*
X031556Y015103D01*
X031511Y015086D01*
X031465Y015074D01*
X031417Y015065D01*
X031369Y015060D01*
X031321Y015059D01*
X031273Y015062D01*
X031225Y015069D01*
X031178Y015080D01*
X031132Y015094D01*
X031087Y015112D01*
X031044Y015134D01*
X031003Y015159D01*
X030965Y015188D01*
X030928Y015220D01*
X030894Y015254D01*
X030864Y015291D01*
X030836Y015330D01*
X030811Y015372D01*
X030791Y015416D01*
X030773Y015461D01*
X030760Y015507D01*
X030750Y015554D01*
X030744Y015602D01*
X030742Y015650D01*
X027553Y013150D02*
X027555Y013221D01*
X027561Y013292D01*
X027571Y013363D01*
X027585Y013432D01*
X027602Y013501D01*
X027624Y013569D01*
X027649Y013636D01*
X027678Y013701D01*
X027710Y013764D01*
X027746Y013826D01*
X027785Y013885D01*
X027828Y013942D01*
X027873Y013997D01*
X027922Y014049D01*
X027973Y014098D01*
X028027Y014144D01*
X028084Y014188D01*
X028142Y014228D01*
X028203Y014264D01*
X028266Y014298D01*
X028331Y014327D01*
X028397Y014353D01*
X028465Y014376D01*
X028533Y014394D01*
X028603Y014409D01*
X028673Y014420D01*
X028744Y014427D01*
X028815Y014430D01*
X028886Y014429D01*
X028957Y014424D01*
X029028Y014415D01*
X029098Y014402D01*
X029167Y014386D01*
X029235Y014365D01*
X029302Y014341D01*
X029368Y014313D01*
X029431Y014281D01*
X029493Y014246D01*
X029553Y014208D01*
X029611Y014166D01*
X029666Y014122D01*
X029719Y014074D01*
X029769Y014023D01*
X029816Y013970D01*
X029860Y013914D01*
X029901Y013856D01*
X029939Y013795D01*
X029973Y013733D01*
X030003Y013668D01*
X030030Y013603D01*
X030054Y013535D01*
X030073Y013467D01*
X030089Y013398D01*
X030101Y013327D01*
X030109Y013257D01*
X030113Y013186D01*
X030113Y013114D01*
X030109Y013043D01*
X030101Y012973D01*
X030089Y012902D01*
X030073Y012833D01*
X030054Y012765D01*
X030030Y012697D01*
X030003Y012632D01*
X029973Y012567D01*
X029939Y012505D01*
X029901Y012444D01*
X029860Y012386D01*
X029816Y012330D01*
X029769Y012277D01*
X029719Y012226D01*
X029666Y012178D01*
X029611Y012134D01*
X029553Y012092D01*
X029493Y012054D01*
X029431Y012019D01*
X029368Y011987D01*
X029302Y011959D01*
X029235Y011935D01*
X029167Y011914D01*
X029098Y011898D01*
X029028Y011885D01*
X028957Y011876D01*
X028886Y011871D01*
X028815Y011870D01*
X028744Y011873D01*
X028673Y011880D01*
X028603Y011891D01*
X028533Y011906D01*
X028465Y011924D01*
X028397Y011947D01*
X028331Y011973D01*
X028266Y012002D01*
X028203Y012036D01*
X028142Y012072D01*
X028084Y012112D01*
X028027Y012156D01*
X027973Y012202D01*
X027922Y012251D01*
X027873Y012303D01*
X027828Y012358D01*
X027785Y012415D01*
X027746Y012474D01*
X027710Y012536D01*
X027678Y012599D01*
X027649Y012664D01*
X027624Y012731D01*
X027602Y012799D01*
X027585Y012868D01*
X027571Y012937D01*
X027561Y013008D01*
X027555Y013079D01*
X027553Y013150D01*
X028333Y012900D02*
X028333Y012400D01*
X028943Y009610D02*
X028873Y009540D01*
X028873Y009260D01*
X028943Y009190D01*
X029084Y009190D01*
X029154Y009260D01*
X029154Y009540D01*
X029084Y009610D01*
X028943Y009610D01*
X029334Y009610D02*
X029334Y009260D01*
X029404Y009190D01*
X029544Y009190D01*
X029614Y009260D01*
X029614Y009610D01*
X029794Y009610D02*
X030074Y009610D01*
X029934Y009610D02*
X029934Y009190D01*
X030742Y003150D02*
X030744Y003198D01*
X030750Y003246D01*
X030760Y003293D01*
X030773Y003339D01*
X030791Y003384D01*
X030811Y003428D01*
X030836Y003470D01*
X030864Y003509D01*
X030894Y003546D01*
X030928Y003580D01*
X030965Y003612D01*
X031003Y003641D01*
X031044Y003666D01*
X031087Y003688D01*
X031132Y003706D01*
X031178Y003720D01*
X031225Y003731D01*
X031273Y003738D01*
X031321Y003741D01*
X031369Y003740D01*
X031417Y003735D01*
X031465Y003726D01*
X031511Y003714D01*
X031556Y003697D01*
X031600Y003677D01*
X031642Y003654D01*
X031682Y003627D01*
X031720Y003597D01*
X031755Y003564D01*
X031787Y003528D01*
X031817Y003490D01*
X031843Y003449D01*
X031865Y003406D01*
X031885Y003362D01*
X031900Y003317D01*
X031912Y003270D01*
X031920Y003222D01*
X031924Y003174D01*
X031924Y003126D01*
X031920Y003078D01*
X031912Y003030D01*
X031900Y002983D01*
X031885Y002938D01*
X031865Y002894D01*
X031843Y002851D01*
X031817Y002810D01*
X031787Y002772D01*
X031755Y002736D01*
X031720Y002703D01*
X031682Y002673D01*
X031642Y002646D01*
X031600Y002623D01*
X031556Y002603D01*
X031511Y002586D01*
X031465Y002574D01*
X031417Y002565D01*
X031369Y002560D01*
X031321Y002559D01*
X031273Y002562D01*
X031225Y002569D01*
X031178Y002580D01*
X031132Y002594D01*
X031087Y002612D01*
X031044Y002634D01*
X031003Y002659D01*
X030965Y002688D01*
X030928Y002720D01*
X030894Y002754D01*
X030864Y002791D01*
X030836Y002830D01*
X030811Y002872D01*
X030791Y002916D01*
X030773Y002961D01*
X030760Y003007D01*
X030750Y003054D01*
X030744Y003102D01*
X030742Y003150D01*
X019416Y001400D02*
X019136Y001400D01*
X019276Y001540D02*
X019276Y001260D01*
X018495Y001260D02*
X018495Y001540D01*
X018425Y001610D01*
X018215Y001610D01*
X018215Y001190D01*
X018425Y001190D01*
X018495Y001260D01*
X018035Y001190D02*
X018035Y001610D01*
X017755Y001610D02*
X018035Y001190D01*
X017755Y001190D02*
X017755Y001610D01*
X017574Y001540D02*
X017504Y001610D01*
X017364Y001610D01*
X017294Y001540D01*
X017294Y001260D01*
X017364Y001190D01*
X017504Y001190D01*
X017574Y001260D01*
X017574Y001400D01*
X017434Y001400D01*
X016654Y001400D02*
X016373Y001400D01*
D12*
X007833Y018646D02*
X007833Y019918D01*
X007833Y019150D02*
X008857Y019252D01*
X008857Y019276D02*
X008857Y019024D01*
X007833Y019150D01*
X008857Y019048D01*
X008857Y019099D02*
X007833Y019150D01*
X008857Y019201D01*
X008857Y019276D02*
X007833Y019150D01*
X033703Y019150D01*
X032680Y019048D01*
X032680Y019024D02*
X033703Y019150D01*
X032680Y019252D01*
X032680Y019276D02*
X032680Y019024D01*
X032680Y019099D02*
X033703Y019150D01*
X032680Y019201D01*
X032680Y019276D02*
X033703Y019150D01*
X033703Y018646D02*
X033703Y019918D01*
D13*
X030183Y015650D02*
X030185Y015717D01*
X030191Y015785D01*
X030201Y015852D01*
X030215Y015918D01*
X030232Y015983D01*
X030254Y016047D01*
X030279Y016110D01*
X030308Y016171D01*
X030340Y016230D01*
X030376Y016287D01*
X030415Y016342D01*
X030457Y016395D01*
X030502Y016445D01*
X030550Y016492D01*
X030601Y016537D01*
X030654Y016578D01*
X030710Y016617D01*
X030768Y016652D01*
X030828Y016683D01*
X030889Y016711D01*
X030952Y016735D01*
X031016Y016756D01*
X031082Y016772D01*
X031148Y016785D01*
X031215Y016794D01*
X031282Y016799D01*
X031350Y016800D01*
X031417Y016797D01*
X031484Y016790D01*
X031551Y016779D01*
X031617Y016764D01*
X031682Y016746D01*
X031746Y016723D01*
X031808Y016697D01*
X031869Y016668D01*
X031927Y016634D01*
X031984Y016598D01*
X032039Y016558D01*
X032091Y016515D01*
X032140Y016469D01*
X032187Y016420D01*
X032231Y016369D01*
X032271Y016315D01*
X032309Y016259D01*
X032343Y016200D01*
X032373Y016140D01*
X032400Y016078D01*
X032424Y016015D01*
X032443Y015950D01*
X032459Y015885D01*
X032471Y015818D01*
X032479Y015751D01*
X032483Y015684D01*
X032483Y015616D01*
X032479Y015549D01*
X032471Y015482D01*
X032459Y015415D01*
X032443Y015350D01*
X032424Y015285D01*
X032400Y015222D01*
X032373Y015160D01*
X032343Y015100D01*
X032309Y015041D01*
X032271Y014985D01*
X032231Y014931D01*
X032187Y014880D01*
X032140Y014831D01*
X032091Y014785D01*
X032039Y014742D01*
X031984Y014702D01*
X031927Y014666D01*
X031869Y014632D01*
X031808Y014603D01*
X031746Y014577D01*
X031682Y014554D01*
X031617Y014536D01*
X031551Y014521D01*
X031484Y014510D01*
X031417Y014503D01*
X031350Y014500D01*
X031282Y014501D01*
X031215Y014506D01*
X031148Y014515D01*
X031082Y014528D01*
X031016Y014544D01*
X030952Y014565D01*
X030889Y014589D01*
X030828Y014617D01*
X030768Y014648D01*
X030710Y014683D01*
X030654Y014722D01*
X030601Y014763D01*
X030550Y014808D01*
X030502Y014855D01*
X030457Y014905D01*
X030415Y014958D01*
X030376Y015013D01*
X030340Y015070D01*
X030308Y015129D01*
X030279Y015190D01*
X030254Y015253D01*
X030232Y015317D01*
X030215Y015382D01*
X030201Y015448D01*
X030191Y015515D01*
X030185Y015583D01*
X030183Y015650D01*
X022833Y014450D02*
X022833Y012850D01*
X021833Y012850D01*
X021833Y014450D01*
X022833Y014450D01*
X022583Y014050D02*
X022083Y014050D01*
X022333Y013650D01*
X022583Y013650D01*
X022333Y013650D02*
X022333Y013400D01*
X022333Y013650D02*
X022083Y013650D01*
X022333Y013650D02*
X022333Y014250D01*
X022583Y014050D02*
X022333Y013650D01*
X021083Y013650D02*
X020833Y013650D01*
X020583Y013650D01*
X020833Y013650D02*
X020583Y013250D01*
X021083Y013250D01*
X020833Y013650D01*
X020833Y013050D01*
X020333Y012850D02*
X021333Y012850D01*
X021333Y014450D01*
X020333Y014450D01*
X020333Y012850D01*
X020833Y013650D02*
X020833Y013900D01*
X019283Y016400D02*
X018583Y016400D01*
X019283Y016400D02*
X019283Y017650D01*
X017583Y016400D02*
X017083Y016400D01*
X016083Y016400D02*
X015383Y016400D01*
X015383Y017650D01*
X009183Y015650D02*
X009185Y015717D01*
X009191Y015785D01*
X009201Y015852D01*
X009215Y015918D01*
X009232Y015983D01*
X009254Y016047D01*
X009279Y016110D01*
X009308Y016171D01*
X009340Y016230D01*
X009376Y016287D01*
X009415Y016342D01*
X009457Y016395D01*
X009502Y016445D01*
X009550Y016492D01*
X009601Y016537D01*
X009654Y016578D01*
X009710Y016617D01*
X009768Y016652D01*
X009828Y016683D01*
X009889Y016711D01*
X009952Y016735D01*
X010016Y016756D01*
X010082Y016772D01*
X010148Y016785D01*
X010215Y016794D01*
X010282Y016799D01*
X010350Y016800D01*
X010417Y016797D01*
X010484Y016790D01*
X010551Y016779D01*
X010617Y016764D01*
X010682Y016746D01*
X010746Y016723D01*
X010808Y016697D01*
X010869Y016668D01*
X010927Y016634D01*
X010984Y016598D01*
X011039Y016558D01*
X011091Y016515D01*
X011140Y016469D01*
X011187Y016420D01*
X011231Y016369D01*
X011271Y016315D01*
X011309Y016259D01*
X011343Y016200D01*
X011373Y016140D01*
X011400Y016078D01*
X011424Y016015D01*
X011443Y015950D01*
X011459Y015885D01*
X011471Y015818D01*
X011479Y015751D01*
X011483Y015684D01*
X011483Y015616D01*
X011479Y015549D01*
X011471Y015482D01*
X011459Y015415D01*
X011443Y015350D01*
X011424Y015285D01*
X011400Y015222D01*
X011373Y015160D01*
X011343Y015100D01*
X011309Y015041D01*
X011271Y014985D01*
X011231Y014931D01*
X011187Y014880D01*
X011140Y014831D01*
X011091Y014785D01*
X011039Y014742D01*
X010984Y014702D01*
X010927Y014666D01*
X010869Y014632D01*
X010808Y014603D01*
X010746Y014577D01*
X010682Y014554D01*
X010617Y014536D01*
X010551Y014521D01*
X010484Y014510D01*
X010417Y014503D01*
X010350Y014500D01*
X010282Y014501D01*
X010215Y014506D01*
X010148Y014515D01*
X010082Y014528D01*
X010016Y014544D01*
X009952Y014565D01*
X009889Y014589D01*
X009828Y014617D01*
X009768Y014648D01*
X009710Y014683D01*
X009654Y014722D01*
X009601Y014763D01*
X009550Y014808D01*
X009502Y014855D01*
X009457Y014905D01*
X009415Y014958D01*
X009376Y015013D01*
X009340Y015070D01*
X009308Y015129D01*
X009279Y015190D01*
X009254Y015253D01*
X009232Y015317D01*
X009215Y015382D01*
X009201Y015448D01*
X009191Y015515D01*
X009185Y015583D01*
X009183Y015650D01*
X010083Y009150D02*
X009833Y008900D01*
X009833Y008400D01*
X010083Y008150D01*
X009833Y007900D01*
X009833Y007400D01*
X010083Y007150D01*
X010583Y007150D01*
X010833Y007400D01*
X010833Y007900D01*
X010583Y008150D01*
X010083Y008150D01*
X010583Y008150D02*
X010833Y008400D01*
X010833Y008900D01*
X010583Y009150D01*
X010083Y009150D01*
X009183Y003150D02*
X009185Y003217D01*
X009191Y003285D01*
X009201Y003352D01*
X009215Y003418D01*
X009232Y003483D01*
X009254Y003547D01*
X009279Y003610D01*
X009308Y003671D01*
X009340Y003730D01*
X009376Y003787D01*
X009415Y003842D01*
X009457Y003895D01*
X009502Y003945D01*
X009550Y003992D01*
X009601Y004037D01*
X009654Y004078D01*
X009710Y004117D01*
X009768Y004152D01*
X009828Y004183D01*
X009889Y004211D01*
X009952Y004235D01*
X010016Y004256D01*
X010082Y004272D01*
X010148Y004285D01*
X010215Y004294D01*
X010282Y004299D01*
X010350Y004300D01*
X010417Y004297D01*
X010484Y004290D01*
X010551Y004279D01*
X010617Y004264D01*
X010682Y004246D01*
X010746Y004223D01*
X010808Y004197D01*
X010869Y004168D01*
X010927Y004134D01*
X010984Y004098D01*
X011039Y004058D01*
X011091Y004015D01*
X011140Y003969D01*
X011187Y003920D01*
X011231Y003869D01*
X011271Y003815D01*
X011309Y003759D01*
X011343Y003700D01*
X011373Y003640D01*
X011400Y003578D01*
X011424Y003515D01*
X011443Y003450D01*
X011459Y003385D01*
X011471Y003318D01*
X011479Y003251D01*
X011483Y003184D01*
X011483Y003116D01*
X011479Y003049D01*
X011471Y002982D01*
X011459Y002915D01*
X011443Y002850D01*
X011424Y002785D01*
X011400Y002722D01*
X011373Y002660D01*
X011343Y002600D01*
X011309Y002541D01*
X011271Y002485D01*
X011231Y002431D01*
X011187Y002380D01*
X011140Y002331D01*
X011091Y002285D01*
X011039Y002242D01*
X010984Y002202D01*
X010927Y002166D01*
X010869Y002132D01*
X010808Y002103D01*
X010746Y002077D01*
X010682Y002054D01*
X010617Y002036D01*
X010551Y002021D01*
X010484Y002010D01*
X010417Y002003D01*
X010350Y002000D01*
X010282Y002001D01*
X010215Y002006D01*
X010148Y002015D01*
X010082Y002028D01*
X010016Y002044D01*
X009952Y002065D01*
X009889Y002089D01*
X009828Y002117D01*
X009768Y002148D01*
X009710Y002183D01*
X009654Y002222D01*
X009601Y002263D01*
X009550Y002308D01*
X009502Y002355D01*
X009457Y002405D01*
X009415Y002458D01*
X009376Y002513D01*
X009340Y002570D01*
X009308Y002629D01*
X009279Y002690D01*
X009254Y002753D01*
X009232Y002817D01*
X009215Y002882D01*
X009201Y002948D01*
X009191Y003015D01*
X009185Y003083D01*
X009183Y003150D01*
X016333Y002900D02*
X016333Y002400D01*
X016583Y002150D01*
X017083Y002150D01*
X017333Y002400D01*
X017333Y002900D01*
X017083Y003150D01*
X016583Y003150D01*
X016333Y002900D01*
X017333Y002900D02*
X017583Y003150D01*
X018083Y003150D01*
X018333Y002900D01*
X018583Y003150D01*
X019083Y003150D01*
X019333Y002900D01*
X019333Y002400D01*
X019083Y002150D01*
X018583Y002150D01*
X018333Y002400D01*
X018083Y002150D01*
X017583Y002150D01*
X017333Y002400D01*
X018333Y002400D02*
X018333Y002900D01*
X026833Y007900D02*
X027083Y007650D01*
X027583Y007650D01*
X027833Y007900D01*
X027833Y008400D01*
X027583Y008650D01*
X027083Y008650D01*
X026833Y008400D01*
X026833Y007900D01*
X027083Y008650D02*
X026833Y008900D01*
X026833Y009400D01*
X027083Y009650D01*
X027583Y009650D01*
X027833Y009400D01*
X027833Y008900D01*
X027583Y008650D01*
X030183Y003150D02*
X030185Y003217D01*
X030191Y003285D01*
X030201Y003352D01*
X030215Y003418D01*
X030232Y003483D01*
X030254Y003547D01*
X030279Y003610D01*
X030308Y003671D01*
X030340Y003730D01*
X030376Y003787D01*
X030415Y003842D01*
X030457Y003895D01*
X030502Y003945D01*
X030550Y003992D01*
X030601Y004037D01*
X030654Y004078D01*
X030710Y004117D01*
X030768Y004152D01*
X030828Y004183D01*
X030889Y004211D01*
X030952Y004235D01*
X031016Y004256D01*
X031082Y004272D01*
X031148Y004285D01*
X031215Y004294D01*
X031282Y004299D01*
X031350Y004300D01*
X031417Y004297D01*
X031484Y004290D01*
X031551Y004279D01*
X031617Y004264D01*
X031682Y004246D01*
X031746Y004223D01*
X031808Y004197D01*
X031869Y004168D01*
X031927Y004134D01*
X031984Y004098D01*
X032039Y004058D01*
X032091Y004015D01*
X032140Y003969D01*
X032187Y003920D01*
X032231Y003869D01*
X032271Y003815D01*
X032309Y003759D01*
X032343Y003700D01*
X032373Y003640D01*
X032400Y003578D01*
X032424Y003515D01*
X032443Y003450D01*
X032459Y003385D01*
X032471Y003318D01*
X032479Y003251D01*
X032483Y003184D01*
X032483Y003116D01*
X032479Y003049D01*
X032471Y002982D01*
X032459Y002915D01*
X032443Y002850D01*
X032424Y002785D01*
X032400Y002722D01*
X032373Y002660D01*
X032343Y002600D01*
X032309Y002541D01*
X032271Y002485D01*
X032231Y002431D01*
X032187Y002380D01*
X032140Y002331D01*
X032091Y002285D01*
X032039Y002242D01*
X031984Y002202D01*
X031927Y002166D01*
X031869Y002132D01*
X031808Y002103D01*
X031746Y002077D01*
X031682Y002054D01*
X031617Y002036D01*
X031551Y002021D01*
X031484Y002010D01*
X031417Y002003D01*
X031350Y002000D01*
X031282Y002001D01*
X031215Y002006D01*
X031148Y002015D01*
X031082Y002028D01*
X031016Y002044D01*
X030952Y002065D01*
X030889Y002089D01*
X030828Y002117D01*
X030768Y002148D01*
X030710Y002183D01*
X030654Y002222D01*
X030601Y002263D01*
X030550Y002308D01*
X030502Y002355D01*
X030457Y002405D01*
X030415Y002458D01*
X030376Y002513D01*
X030340Y002570D01*
X030308Y002629D01*
X030279Y002690D01*
X030254Y002753D01*
X030232Y002817D01*
X030215Y002882D01*
X030201Y002948D01*
X030191Y003015D01*
X030185Y003083D01*
X030183Y003150D01*
D14*
X024558Y005925D02*
X024288Y005925D01*
X024288Y006060D01*
X024333Y006105D01*
X024423Y006105D01*
X024468Y006060D01*
X024468Y005925D01*
X024468Y006015D02*
X024558Y006105D01*
X024423Y006220D02*
X024423Y006400D01*
X024288Y006355D02*
X024423Y006220D01*
X024558Y006355D02*
X024288Y006355D01*
X025188Y006365D02*
X025458Y006365D01*
X025458Y006275D02*
X025458Y006455D01*
X025458Y006570D02*
X025188Y006570D01*
X025188Y006705D01*
X025233Y006750D01*
X025323Y006750D01*
X025368Y006705D01*
X025368Y006570D01*
X025368Y006660D02*
X025458Y006750D01*
X025188Y006365D02*
X025278Y006275D01*
X028453Y008324D02*
X028528Y008399D01*
X028528Y008474D01*
X028453Y008549D01*
X028078Y008549D01*
X028078Y008474D02*
X028078Y008624D01*
X028078Y008784D02*
X028078Y009009D01*
X028153Y009084D01*
X028303Y009084D01*
X028378Y009009D01*
X028378Y008784D01*
X028528Y008784D02*
X028078Y008784D01*
X028153Y009245D02*
X028078Y009320D01*
X028078Y009470D01*
X028153Y009545D01*
X028228Y009545D01*
X028528Y009245D01*
X028528Y009545D01*
X021658Y012875D02*
X021658Y013100D01*
X021583Y013175D01*
X021283Y013175D01*
X021208Y013100D01*
X021208Y012875D01*
X021658Y012875D01*
X021658Y013335D02*
X021358Y013636D01*
X021283Y013636D01*
X021208Y013561D01*
X021208Y013410D01*
X021283Y013335D01*
X021508Y013554D02*
X021508Y013779D01*
X021583Y013854D01*
X021883Y013854D01*
X021958Y013779D01*
X021958Y013554D01*
X021508Y013554D01*
X021658Y013636D02*
X021658Y013335D01*
X021658Y014015D02*
X021508Y014165D01*
X021958Y014165D01*
X021958Y014015D02*
X021958Y014315D01*
X023519Y016105D02*
X023519Y016375D01*
X023654Y016375D01*
X023699Y016330D01*
X023699Y016240D01*
X023654Y016195D01*
X023519Y016195D01*
X023609Y016195D02*
X023699Y016105D01*
X023814Y016105D02*
X023994Y016285D01*
X023994Y016330D01*
X023949Y016375D01*
X023859Y016375D01*
X023814Y016330D01*
X023814Y016105D02*
X023994Y016105D01*
X023599Y017005D02*
X023509Y017005D01*
X023464Y017050D01*
X023644Y017230D01*
X023644Y017050D01*
X023599Y017005D01*
X023464Y017050D02*
X023464Y017230D01*
X023509Y017275D01*
X023599Y017275D01*
X023644Y017230D01*
X023349Y017230D02*
X023349Y017185D01*
X023304Y017140D01*
X023214Y017140D01*
X023169Y017185D01*
X023169Y017230D01*
X023214Y017275D01*
X023304Y017275D01*
X023349Y017230D01*
X023304Y017140D02*
X023349Y017095D01*
X023349Y017050D01*
X023304Y017005D01*
X023214Y017005D01*
X023169Y017050D01*
X023169Y017095D01*
X023214Y017140D01*
X023055Y017095D02*
X023009Y017140D01*
X022874Y017140D01*
X022874Y017050D01*
X022919Y017005D01*
X023009Y017005D01*
X023055Y017050D01*
X023055Y017095D01*
X022964Y017230D02*
X022874Y017140D01*
X022964Y017230D02*
X023055Y017275D01*
X026208Y015829D02*
X026478Y015829D01*
X026388Y015829D02*
X026298Y015965D01*
X026388Y015829D02*
X026478Y015965D01*
X026433Y015715D02*
X026478Y015670D01*
X026478Y015580D01*
X026433Y015535D01*
X026478Y015420D02*
X026478Y015240D01*
X026478Y015330D02*
X026208Y015330D01*
X026298Y015240D01*
X026253Y015535D02*
X026208Y015580D01*
X026208Y015670D01*
X026253Y015715D01*
X026298Y015715D01*
X026343Y015670D01*
X026388Y015715D01*
X026433Y015715D01*
X026343Y015670D02*
X026343Y015625D01*
X027108Y015836D02*
X027108Y015971D01*
X027153Y016016D01*
X027243Y016016D01*
X027288Y015971D01*
X027288Y015836D01*
X027288Y015926D02*
X027378Y016016D01*
X027333Y016130D02*
X027378Y016175D01*
X027378Y016265D01*
X027333Y016311D01*
X027288Y016311D01*
X027243Y016265D01*
X027243Y016220D01*
X027243Y016265D02*
X027198Y016311D01*
X027153Y016311D01*
X027108Y016265D01*
X027108Y016175D01*
X027153Y016130D01*
X027108Y015836D02*
X027378Y015836D01*
X016926Y013825D02*
X016626Y013825D01*
X016776Y013825D02*
X016776Y014275D01*
X016626Y014125D01*
X016466Y014200D02*
X016390Y014275D01*
X016240Y014275D01*
X016165Y014200D01*
X016165Y013900D01*
X016240Y013825D01*
X016390Y013825D01*
X016466Y013900D01*
X016008Y013825D02*
X015858Y013825D01*
X015933Y013825D02*
X015933Y014275D01*
X015858Y014275D02*
X016008Y014275D01*
X011528Y009045D02*
X011528Y008745D01*
X011528Y008895D02*
X011078Y008895D01*
X011228Y008745D01*
X011153Y008584D02*
X011303Y008584D01*
X011378Y008509D01*
X011378Y008284D01*
X011528Y008284D02*
X011078Y008284D01*
X011078Y008509D01*
X011153Y008584D01*
X011078Y008124D02*
X011078Y007974D01*
X011078Y008049D02*
X011453Y008049D01*
X011528Y007974D01*
X011528Y007899D01*
X011453Y007824D01*
X011788Y007310D02*
X012058Y007310D01*
X012058Y007220D02*
X012058Y007400D01*
X011878Y007220D02*
X011788Y007310D01*
X011833Y007105D02*
X011923Y007105D01*
X011968Y007060D01*
X011968Y006925D01*
X011968Y007015D02*
X012058Y007105D01*
X012058Y006925D02*
X011788Y006925D01*
X011788Y007060D01*
X011833Y007105D01*
X012688Y007410D02*
X012823Y007275D01*
X012823Y007455D01*
X012958Y007410D02*
X012688Y007410D01*
X012688Y007570D02*
X012688Y007750D01*
X012733Y007750D01*
X012913Y007570D01*
X012958Y007570D01*
X012958Y007864D02*
X012688Y007864D01*
X012778Y007999D02*
X012868Y007864D01*
X012958Y007999D01*
X018157Y003905D02*
X018307Y003905D01*
X018232Y003905D02*
X018232Y003530D01*
X018157Y003455D01*
X018082Y003455D01*
X018007Y003530D01*
X018468Y003455D02*
X018468Y003905D01*
X018693Y003905D01*
X018768Y003830D01*
X018768Y003680D01*
X018693Y003605D01*
X018468Y003605D01*
X018928Y003530D02*
X019003Y003455D01*
X019153Y003455D01*
X019228Y003530D01*
X019228Y003605D01*
X019153Y003680D01*
X019078Y003680D01*
X019153Y003680D02*
X019228Y003755D01*
X019228Y003830D01*
X019153Y003905D01*
X019003Y003905D01*
X018928Y003830D01*
D15*
X017333Y017900D03*
D16*
X017333Y015900D03*
X018833Y015900D03*
X015833Y015900D03*
D17*
X012236Y012805D02*
X012236Y012655D01*
X012186Y012655D02*
X012286Y012655D01*
X012186Y012755D02*
X012236Y012805D01*
X012138Y012780D02*
X012113Y012805D01*
X012063Y012805D01*
X012038Y012780D01*
X012038Y012680D01*
X012063Y012655D01*
X012113Y012655D01*
X012138Y012680D01*
X020038Y009280D02*
X020038Y009180D01*
X020063Y009155D01*
X020113Y009155D01*
X020138Y009180D01*
X020186Y009180D02*
X020211Y009155D01*
X020261Y009155D01*
X020286Y009180D01*
X020286Y009205D01*
X020261Y009230D01*
X020236Y009230D01*
X020261Y009230D02*
X020286Y009255D01*
X020286Y009280D01*
X020261Y009305D01*
X020211Y009305D01*
X020186Y009280D01*
X020138Y009280D02*
X020113Y009305D01*
X020063Y009305D01*
X020038Y009280D01*
X016091Y008145D02*
X015991Y008145D01*
X015991Y008070D01*
X016041Y008095D01*
X016066Y008095D01*
X016091Y008070D01*
X016091Y008020D01*
X016066Y007995D01*
X016016Y007995D01*
X015991Y008020D01*
X015944Y008020D02*
X015919Y007995D01*
X015869Y007995D01*
X015844Y008020D01*
X015844Y008120D01*
X015869Y008145D01*
X015919Y008145D01*
X015944Y008120D01*
X015919Y005495D02*
X015869Y005495D01*
X015844Y005470D01*
X015844Y005370D01*
X015869Y005345D01*
X015919Y005345D01*
X015944Y005370D01*
X015991Y005370D02*
X016016Y005345D01*
X016066Y005345D01*
X016091Y005370D01*
X016091Y005395D01*
X016066Y005420D01*
X015991Y005420D01*
X015991Y005370D01*
X015991Y005420D02*
X016041Y005470D01*
X016091Y005495D01*
X015944Y005470D02*
X015919Y005495D01*
X020344Y005470D02*
X020344Y005370D01*
X020369Y005345D01*
X020419Y005345D01*
X020444Y005370D01*
X020491Y005420D02*
X020591Y005420D01*
X020566Y005345D02*
X020566Y005495D01*
X020491Y005420D01*
X020444Y005470D02*
X020419Y005495D01*
X020369Y005495D01*
X020344Y005470D01*
X022678Y006880D02*
X022703Y006855D01*
X022803Y006855D01*
X022828Y006880D01*
X022828Y006930D01*
X022803Y006955D01*
X022803Y007002D02*
X022828Y007002D01*
X022803Y007002D02*
X022703Y007102D01*
X022678Y007102D01*
X022678Y007002D01*
X022703Y006955D02*
X022678Y006930D01*
X022678Y006880D01*
X028053Y012855D02*
X028153Y012855D01*
X028178Y012880D01*
X028178Y012930D01*
X028153Y012955D01*
X028178Y013002D02*
X028078Y013102D01*
X028053Y013102D01*
X028028Y013077D01*
X028028Y013027D01*
X028053Y013002D01*
X028053Y012955D02*
X028028Y012930D01*
X028028Y012880D01*
X028053Y012855D01*
X028178Y013002D02*
X028178Y013102D01*
D18*
X022333Y013100D03*
X020833Y014200D03*
D19*
X020833Y014825D03*
X022333Y014825D03*
X022333Y012475D03*
X020833Y012475D03*
D20*
X009782Y015650D02*
X009784Y015697D01*
X009790Y015743D01*
X009800Y015789D01*
X009813Y015834D01*
X009831Y015877D01*
X009852Y015919D01*
X009876Y015959D01*
X009904Y015996D01*
X009935Y016031D01*
X009969Y016064D01*
X010005Y016093D01*
X010044Y016119D01*
X010085Y016142D01*
X010128Y016161D01*
X010172Y016177D01*
X010217Y016189D01*
X010263Y016197D01*
X010310Y016201D01*
X010356Y016201D01*
X010403Y016197D01*
X010449Y016189D01*
X010494Y016177D01*
X010538Y016161D01*
X010581Y016142D01*
X010622Y016119D01*
X010661Y016093D01*
X010697Y016064D01*
X010731Y016031D01*
X010762Y015996D01*
X010790Y015959D01*
X010814Y015919D01*
X010835Y015877D01*
X010853Y015834D01*
X010866Y015789D01*
X010876Y015743D01*
X010882Y015697D01*
X010884Y015650D01*
X010882Y015603D01*
X010876Y015557D01*
X010866Y015511D01*
X010853Y015466D01*
X010835Y015423D01*
X010814Y015381D01*
X010790Y015341D01*
X010762Y015304D01*
X010731Y015269D01*
X010697Y015236D01*
X010661Y015207D01*
X010622Y015181D01*
X010581Y015158D01*
X010538Y015139D01*
X010494Y015123D01*
X010449Y015111D01*
X010403Y015103D01*
X010356Y015099D01*
X010310Y015099D01*
X010263Y015103D01*
X010217Y015111D01*
X010172Y015123D01*
X010128Y015139D01*
X010085Y015158D01*
X010044Y015181D01*
X010005Y015207D01*
X009969Y015236D01*
X009935Y015269D01*
X009904Y015304D01*
X009876Y015341D01*
X009852Y015381D01*
X009831Y015423D01*
X009813Y015466D01*
X009800Y015511D01*
X009790Y015557D01*
X009784Y015603D01*
X009782Y015650D01*
X030782Y015650D02*
X030784Y015697D01*
X030790Y015743D01*
X030800Y015789D01*
X030813Y015834D01*
X030831Y015877D01*
X030852Y015919D01*
X030876Y015959D01*
X030904Y015996D01*
X030935Y016031D01*
X030969Y016064D01*
X031005Y016093D01*
X031044Y016119D01*
X031085Y016142D01*
X031128Y016161D01*
X031172Y016177D01*
X031217Y016189D01*
X031263Y016197D01*
X031310Y016201D01*
X031356Y016201D01*
X031403Y016197D01*
X031449Y016189D01*
X031494Y016177D01*
X031538Y016161D01*
X031581Y016142D01*
X031622Y016119D01*
X031661Y016093D01*
X031697Y016064D01*
X031731Y016031D01*
X031762Y015996D01*
X031790Y015959D01*
X031814Y015919D01*
X031835Y015877D01*
X031853Y015834D01*
X031866Y015789D01*
X031876Y015743D01*
X031882Y015697D01*
X031884Y015650D01*
X031882Y015603D01*
X031876Y015557D01*
X031866Y015511D01*
X031853Y015466D01*
X031835Y015423D01*
X031814Y015381D01*
X031790Y015341D01*
X031762Y015304D01*
X031731Y015269D01*
X031697Y015236D01*
X031661Y015207D01*
X031622Y015181D01*
X031581Y015158D01*
X031538Y015139D01*
X031494Y015123D01*
X031449Y015111D01*
X031403Y015103D01*
X031356Y015099D01*
X031310Y015099D01*
X031263Y015103D01*
X031217Y015111D01*
X031172Y015123D01*
X031128Y015139D01*
X031085Y015158D01*
X031044Y015181D01*
X031005Y015207D01*
X030969Y015236D01*
X030935Y015269D01*
X030904Y015304D01*
X030876Y015341D01*
X030852Y015381D01*
X030831Y015423D01*
X030813Y015466D01*
X030800Y015511D01*
X030790Y015557D01*
X030784Y015603D01*
X030782Y015650D01*
X030782Y003150D02*
X030784Y003197D01*
X030790Y003243D01*
X030800Y003289D01*
X030813Y003334D01*
X030831Y003377D01*
X030852Y003419D01*
X030876Y003459D01*
X030904Y003496D01*
X030935Y003531D01*
X030969Y003564D01*
X031005Y003593D01*
X031044Y003619D01*
X031085Y003642D01*
X031128Y003661D01*
X031172Y003677D01*
X031217Y003689D01*
X031263Y003697D01*
X031310Y003701D01*
X031356Y003701D01*
X031403Y003697D01*
X031449Y003689D01*
X031494Y003677D01*
X031538Y003661D01*
X031581Y003642D01*
X031622Y003619D01*
X031661Y003593D01*
X031697Y003564D01*
X031731Y003531D01*
X031762Y003496D01*
X031790Y003459D01*
X031814Y003419D01*
X031835Y003377D01*
X031853Y003334D01*
X031866Y003289D01*
X031876Y003243D01*
X031882Y003197D01*
X031884Y003150D01*
X031882Y003103D01*
X031876Y003057D01*
X031866Y003011D01*
X031853Y002966D01*
X031835Y002923D01*
X031814Y002881D01*
X031790Y002841D01*
X031762Y002804D01*
X031731Y002769D01*
X031697Y002736D01*
X031661Y002707D01*
X031622Y002681D01*
X031581Y002658D01*
X031538Y002639D01*
X031494Y002623D01*
X031449Y002611D01*
X031403Y002603D01*
X031356Y002599D01*
X031310Y002599D01*
X031263Y002603D01*
X031217Y002611D01*
X031172Y002623D01*
X031128Y002639D01*
X031085Y002658D01*
X031044Y002681D01*
X031005Y002707D01*
X030969Y002736D01*
X030935Y002769D01*
X030904Y002804D01*
X030876Y002841D01*
X030852Y002881D01*
X030831Y002923D01*
X030813Y002966D01*
X030800Y003011D01*
X030790Y003057D01*
X030784Y003103D01*
X030782Y003150D01*
X009782Y003150D02*
X009784Y003197D01*
X009790Y003243D01*
X009800Y003289D01*
X009813Y003334D01*
X009831Y003377D01*
X009852Y003419D01*
X009876Y003459D01*
X009904Y003496D01*
X009935Y003531D01*
X009969Y003564D01*
X010005Y003593D01*
X010044Y003619D01*
X010085Y003642D01*
X010128Y003661D01*
X010172Y003677D01*
X010217Y003689D01*
X010263Y003697D01*
X010310Y003701D01*
X010356Y003701D01*
X010403Y003697D01*
X010449Y003689D01*
X010494Y003677D01*
X010538Y003661D01*
X010581Y003642D01*
X010622Y003619D01*
X010661Y003593D01*
X010697Y003564D01*
X010731Y003531D01*
X010762Y003496D01*
X010790Y003459D01*
X010814Y003419D01*
X010835Y003377D01*
X010853Y003334D01*
X010866Y003289D01*
X010876Y003243D01*
X010882Y003197D01*
X010884Y003150D01*
X010882Y003103D01*
X010876Y003057D01*
X010866Y003011D01*
X010853Y002966D01*
X010835Y002923D01*
X010814Y002881D01*
X010790Y002841D01*
X010762Y002804D01*
X010731Y002769D01*
X010697Y002736D01*
X010661Y002707D01*
X010622Y002681D01*
X010581Y002658D01*
X010538Y002639D01*
X010494Y002623D01*
X010449Y002611D01*
X010403Y002603D01*
X010356Y002599D01*
X010310Y002599D01*
X010263Y002603D01*
X010217Y002611D01*
X010172Y002623D01*
X010128Y002639D01*
X010085Y002658D01*
X010044Y002681D01*
X010005Y002707D01*
X009969Y002736D01*
X009935Y002769D01*
X009904Y002804D01*
X009876Y002841D01*
X009852Y002881D01*
X009831Y002923D01*
X009813Y002966D01*
X009800Y003011D01*
X009790Y003057D01*
X009784Y003103D01*
X009782Y003150D01*
M02*
