G75*
G70*
%OFA0B0*%
%FSLAX24Y24*%
%IPPOS*%
%LPD*%
%AMOC8*
5,1,8,0,0,1.08239X$1,22.5*
%
%ADD10C,0.0100*%
%ADD11C,0.0050*%
%ADD12C,0.0080*%
%ADD13C,0.0051*%
%ADD14C,0.0040*%
%ADD15C,0.0060*%
%ADD16R,0.0340X0.0240*%
%ADD17R,0.0240X0.0340*%
%ADD18C,0.0020*%
D10*
X001446Y000150D02*
X001446Y020146D01*
X021316Y020146D01*
X021316Y000150D01*
X001446Y000150D01*
X005846Y004850D02*
X005846Y005150D01*
X005846Y005450D01*
X006046Y005450D02*
X006046Y005150D01*
X006046Y004850D01*
X006046Y006350D02*
X006046Y006650D01*
X006046Y006950D01*
X005846Y006950D02*
X005846Y006650D01*
X005846Y006350D01*
X005846Y007850D02*
X005846Y008150D01*
X005846Y008450D01*
X006046Y008450D02*
X006046Y008150D01*
X006046Y007850D01*
X006046Y009350D02*
X006046Y009650D01*
X006046Y009950D01*
X005846Y009950D02*
X005846Y009650D01*
X005846Y009350D01*
X005846Y010850D02*
X005846Y011150D01*
X005846Y011450D01*
X006046Y011450D02*
X006046Y011150D01*
X006046Y010850D01*
X016846Y010850D02*
X016846Y011150D01*
X016846Y011450D01*
X017046Y011450D02*
X017046Y011150D01*
X017046Y010850D01*
X017046Y009950D02*
X017046Y009650D01*
X017046Y009350D01*
X016846Y009350D02*
X016846Y009650D01*
X016846Y009950D01*
X016846Y008450D02*
X016846Y008150D01*
X016846Y007850D01*
X017046Y007850D02*
X017046Y008150D01*
X017046Y008450D01*
X017046Y006950D02*
X017046Y006650D01*
X017046Y006350D01*
X016846Y006350D02*
X016846Y006650D01*
X016846Y006950D01*
X016846Y005450D02*
X016846Y005150D01*
X016846Y004850D01*
X017046Y004850D02*
X017046Y005150D01*
X017046Y005450D01*
D11*
X018621Y005725D02*
X018621Y006175D01*
X018846Y006175D01*
X018921Y006100D01*
X018921Y005950D01*
X018846Y005875D01*
X018621Y005875D01*
X018771Y005875D02*
X018921Y005725D01*
X019082Y005800D02*
X019157Y005725D01*
X019307Y005725D01*
X019382Y005800D01*
X019382Y005950D01*
X019307Y006025D01*
X019232Y006025D01*
X019082Y005950D01*
X019082Y006175D01*
X019382Y006175D01*
X019896Y005725D02*
X019821Y005650D01*
X019821Y005350D01*
X019896Y005275D01*
X020046Y005275D01*
X020121Y005350D01*
X020282Y005350D02*
X020282Y005500D01*
X020507Y005500D01*
X020582Y005425D01*
X020582Y005350D01*
X020507Y005275D01*
X020357Y005275D01*
X020282Y005350D01*
X020282Y005500D02*
X020432Y005650D01*
X020582Y005725D01*
X020121Y005650D02*
X020046Y005725D01*
X019896Y005725D01*
X019896Y006775D02*
X019821Y006850D01*
X019821Y007150D01*
X019896Y007225D01*
X020046Y007225D01*
X020121Y007150D01*
X020282Y007150D02*
X020282Y007075D01*
X020357Y007000D01*
X020507Y007000D01*
X020582Y006925D01*
X020582Y006850D01*
X020507Y006775D01*
X020357Y006775D01*
X020282Y006850D01*
X020282Y006925D01*
X020357Y007000D01*
X020507Y007000D02*
X020582Y007075D01*
X020582Y007150D01*
X020507Y007225D01*
X020357Y007225D01*
X020282Y007150D01*
X020121Y006850D02*
X020046Y006775D01*
X019896Y006775D01*
X019896Y008275D02*
X019821Y008350D01*
X019821Y008650D01*
X019896Y008725D01*
X020046Y008725D01*
X020121Y008650D01*
X020282Y008725D02*
X020582Y008725D01*
X020582Y008650D01*
X020282Y008350D01*
X020282Y008275D01*
X020121Y008350D02*
X020046Y008275D01*
X019896Y008275D01*
X019896Y009775D02*
X019821Y009850D01*
X019821Y010150D01*
X019896Y010225D01*
X020046Y010225D01*
X020121Y010150D01*
X020282Y010075D02*
X020432Y010225D01*
X020432Y009775D01*
X020282Y009775D02*
X020582Y009775D01*
X020742Y009850D02*
X021042Y010150D01*
X021042Y009850D01*
X020967Y009775D01*
X020817Y009775D01*
X020742Y009850D01*
X020742Y010150D01*
X020817Y010225D01*
X020967Y010225D01*
X021042Y010150D01*
X020121Y009850D02*
X020046Y009775D01*
X019896Y009775D01*
X019896Y011275D02*
X019821Y011350D01*
X019821Y011650D01*
X019896Y011725D01*
X020046Y011725D01*
X020121Y011650D01*
X020282Y011650D02*
X020357Y011725D01*
X020507Y011725D01*
X020582Y011650D01*
X020582Y011350D01*
X020507Y011275D01*
X020357Y011275D01*
X020282Y011350D01*
X020121Y011350D02*
X020046Y011275D01*
X019896Y011275D01*
X020282Y011575D02*
X020357Y011500D01*
X020582Y011500D01*
X020282Y011575D02*
X020282Y011650D01*
X020307Y013275D02*
X020232Y013350D01*
X020232Y013500D01*
X020457Y013500D01*
X020532Y013425D01*
X020532Y013350D01*
X020457Y013275D01*
X020307Y013275D01*
X020071Y013275D02*
X019921Y013425D01*
X019996Y013425D02*
X019771Y013425D01*
X019771Y013275D02*
X019771Y013725D01*
X019996Y013725D01*
X020071Y013650D01*
X020071Y013500D01*
X019996Y013425D01*
X020232Y013500D02*
X020382Y013650D01*
X020532Y013725D01*
X020457Y014775D02*
X020457Y015225D01*
X020232Y015000D01*
X020532Y015000D01*
X020071Y015000D02*
X019996Y014925D01*
X019771Y014925D01*
X019771Y014775D02*
X019771Y015225D01*
X019996Y015225D01*
X020071Y015150D01*
X020071Y015000D01*
X019921Y014925D02*
X020071Y014775D01*
X017532Y016350D02*
X017457Y016275D01*
X017307Y016275D01*
X017232Y016350D01*
X017071Y016275D02*
X016921Y016425D01*
X016996Y016425D02*
X016771Y016425D01*
X016771Y016275D02*
X016771Y016725D01*
X016996Y016725D01*
X017071Y016650D01*
X017071Y016500D01*
X016996Y016425D01*
X017232Y016650D02*
X017307Y016725D01*
X017457Y016725D01*
X017532Y016650D01*
X017532Y016575D01*
X017457Y016500D01*
X017532Y016425D01*
X017532Y016350D01*
X017457Y016500D02*
X017382Y016500D01*
X015031Y016395D02*
X014731Y016395D01*
X015031Y016695D01*
X015031Y016770D01*
X014956Y016845D01*
X014806Y016845D01*
X014731Y016770D01*
X014571Y016770D02*
X014571Y016620D01*
X014496Y016545D01*
X014270Y016545D01*
X014270Y016395D02*
X014270Y016845D01*
X014496Y016845D01*
X014571Y016770D01*
X014110Y016845D02*
X013960Y016845D01*
X014035Y016845D02*
X014035Y016470D01*
X013960Y016395D01*
X013885Y016395D01*
X013810Y016470D01*
X013782Y014875D02*
X013782Y014650D01*
X013932Y014725D01*
X014007Y014725D01*
X014082Y014650D01*
X014082Y014500D01*
X014007Y014425D01*
X013857Y014425D01*
X013782Y014500D01*
X013621Y014500D02*
X013546Y014425D01*
X013396Y014425D01*
X013321Y014500D01*
X013321Y014800D01*
X013396Y014875D01*
X013546Y014875D01*
X013621Y014800D01*
X013782Y014875D02*
X014082Y014875D01*
X011591Y016530D02*
X011516Y016455D01*
X011366Y016455D01*
X011291Y016530D01*
X011441Y016680D02*
X011516Y016680D01*
X011591Y016605D01*
X011591Y016530D01*
X011516Y016680D02*
X011591Y016755D01*
X011591Y016830D01*
X011516Y016905D01*
X011366Y016905D01*
X011291Y016830D01*
X011131Y016830D02*
X011056Y016905D01*
X010830Y016905D01*
X010830Y016455D01*
X010830Y016605D02*
X011056Y016605D01*
X011131Y016680D01*
X011131Y016830D01*
X010670Y016905D02*
X010520Y016905D01*
X010595Y016905D02*
X010595Y016530D01*
X010520Y016455D01*
X010445Y016455D01*
X010370Y016530D01*
X010489Y018675D02*
X010580Y018675D01*
X010625Y018720D01*
X010739Y018720D02*
X010784Y018675D01*
X010874Y018675D01*
X010919Y018720D01*
X010739Y018720D02*
X010739Y018900D01*
X010784Y018945D01*
X010874Y018945D01*
X010919Y018900D01*
X010625Y018900D02*
X010580Y018945D01*
X010489Y018945D01*
X010444Y018900D01*
X010444Y018720D01*
X010489Y018675D01*
X010330Y018765D02*
X010330Y018945D01*
X010330Y018765D02*
X010240Y018675D01*
X010150Y018765D01*
X010150Y018945D01*
X009741Y018900D02*
X009741Y018720D01*
X009696Y018675D01*
X009560Y018675D01*
X009560Y018945D01*
X009696Y018945D01*
X009741Y018900D01*
X009446Y018945D02*
X009446Y018675D01*
X009266Y018945D01*
X009266Y018675D01*
X009151Y018720D02*
X009151Y018810D01*
X009061Y018810D01*
X008971Y018720D02*
X009016Y018675D01*
X009106Y018675D01*
X009151Y018720D01*
X008971Y018720D02*
X008971Y018900D01*
X009016Y018945D01*
X009106Y018945D01*
X009151Y018900D01*
X008098Y018675D02*
X007918Y018675D01*
X007918Y018945D01*
X007803Y018900D02*
X007758Y018945D01*
X007668Y018945D01*
X007623Y018900D01*
X007623Y018720D01*
X007668Y018675D01*
X007758Y018675D01*
X007803Y018720D01*
X007509Y018720D02*
X007464Y018675D01*
X007373Y018675D01*
X007328Y018720D01*
X007373Y018810D02*
X007328Y018855D01*
X007328Y018900D01*
X007373Y018945D01*
X007464Y018945D01*
X007509Y018900D01*
X007464Y018810D02*
X007509Y018765D01*
X007509Y018720D01*
X007464Y018810D02*
X007373Y018810D01*
X006919Y018810D02*
X006739Y018810D01*
X006739Y018855D02*
X006829Y018945D01*
X006919Y018855D01*
X006919Y018675D01*
X006739Y018675D02*
X006739Y018855D01*
X006625Y018900D02*
X006625Y018720D01*
X006580Y018675D01*
X006444Y018675D01*
X006444Y018945D01*
X006580Y018945D01*
X006625Y018900D01*
X006330Y018900D02*
X006285Y018945D01*
X006195Y018945D01*
X006150Y018900D01*
X006150Y018855D01*
X006195Y018810D01*
X006285Y018810D01*
X006330Y018765D01*
X006330Y018720D01*
X006285Y018675D01*
X006195Y018675D01*
X006150Y018720D01*
X005741Y018720D02*
X005741Y018900D01*
X005696Y018945D01*
X005560Y018945D01*
X005560Y018675D01*
X005696Y018675D01*
X005741Y018720D01*
X005446Y018675D02*
X005446Y018945D01*
X005266Y018945D02*
X005266Y018675D01*
X005151Y018720D02*
X005151Y018810D01*
X005061Y018810D01*
X004971Y018900D02*
X004971Y018720D01*
X005016Y018675D01*
X005106Y018675D01*
X005151Y018720D01*
X005151Y018900D02*
X005106Y018945D01*
X005016Y018945D01*
X004971Y018900D01*
X005266Y018945D02*
X005446Y018675D01*
X005770Y016905D02*
X005920Y016905D01*
X005845Y016905D02*
X005845Y016530D01*
X005770Y016455D01*
X005695Y016455D01*
X005620Y016530D01*
X006080Y016455D02*
X006080Y016905D01*
X006306Y016905D01*
X006381Y016830D01*
X006381Y016680D01*
X006306Y016605D01*
X006080Y016605D01*
X006541Y016680D02*
X006841Y016680D01*
X006766Y016455D02*
X006766Y016905D01*
X006541Y016680D01*
X006615Y015075D02*
X006465Y015075D01*
X006390Y015000D01*
X006390Y014700D01*
X006465Y014625D01*
X006615Y014625D01*
X006690Y014700D01*
X006850Y014625D02*
X007151Y014625D01*
X007001Y014625D02*
X007001Y015075D01*
X006850Y014925D01*
X006690Y015000D02*
X006615Y015075D01*
X007311Y014850D02*
X007536Y014850D01*
X007611Y014775D01*
X007611Y014700D01*
X007536Y014625D01*
X007386Y014625D01*
X007311Y014700D01*
X007311Y014850D01*
X007461Y015000D01*
X007611Y015075D01*
X008725Y013125D02*
X008650Y013050D01*
X008650Y012750D01*
X008725Y012675D01*
X008876Y012675D01*
X008951Y012750D01*
X009111Y012900D02*
X009411Y012900D01*
X009336Y012675D02*
X009336Y013125D01*
X009111Y012900D01*
X008951Y013050D02*
X008876Y013125D01*
X008725Y013125D01*
X003292Y011500D02*
X002992Y011500D01*
X003217Y011725D01*
X003217Y011275D01*
X002832Y011275D02*
X002532Y011275D01*
X002682Y011275D02*
X002682Y011725D01*
X002532Y011575D01*
X002371Y011650D02*
X002296Y011725D01*
X002146Y011725D01*
X002071Y011650D01*
X002071Y011350D01*
X002146Y011275D01*
X002296Y011275D01*
X002371Y011350D01*
X002296Y010225D02*
X002146Y010225D01*
X002071Y010150D01*
X002071Y009850D01*
X002146Y009775D01*
X002296Y009775D01*
X002371Y009850D01*
X002532Y009775D02*
X002832Y009775D01*
X002682Y009775D02*
X002682Y010225D01*
X002532Y010075D01*
X002371Y010150D02*
X002296Y010225D01*
X002992Y010225D02*
X002992Y010000D01*
X003142Y010075D01*
X003217Y010075D01*
X003292Y010000D01*
X003292Y009850D01*
X003217Y009775D01*
X003067Y009775D01*
X002992Y009850D01*
X002992Y010225D02*
X003292Y010225D01*
X003217Y008725D02*
X003067Y008725D01*
X002992Y008650D01*
X003217Y008725D02*
X003292Y008650D01*
X003292Y008575D01*
X002992Y008275D01*
X003292Y008275D01*
X002832Y008275D02*
X002532Y008275D01*
X002682Y008275D02*
X002682Y008725D01*
X002532Y008575D01*
X002371Y008650D02*
X002296Y008725D01*
X002146Y008725D01*
X002071Y008650D01*
X002071Y008350D01*
X002146Y008275D01*
X002296Y008275D01*
X002371Y008350D01*
X002296Y007225D02*
X002146Y007225D01*
X002071Y007150D01*
X002071Y006850D01*
X002146Y006775D01*
X002296Y006775D01*
X002371Y006850D01*
X002532Y006775D02*
X002832Y006775D01*
X002682Y006775D02*
X002682Y007225D01*
X002532Y007075D01*
X002371Y007150D02*
X002296Y007225D01*
X002992Y007150D02*
X003067Y007225D01*
X003217Y007225D01*
X003292Y007150D01*
X003292Y007075D01*
X003217Y007000D01*
X003292Y006925D01*
X003292Y006850D01*
X003217Y006775D01*
X003067Y006775D01*
X002992Y006850D01*
X003142Y007000D02*
X003217Y007000D01*
X003142Y005725D02*
X003142Y005275D01*
X002992Y005275D02*
X003292Y005275D01*
X002992Y005575D02*
X003142Y005725D01*
X002682Y005725D02*
X002682Y005275D01*
X002532Y005275D02*
X002832Y005275D01*
X002532Y005575D02*
X002682Y005725D01*
X002371Y005650D02*
X002296Y005725D01*
X002146Y005725D01*
X002071Y005650D01*
X002071Y005350D01*
X002146Y005275D01*
X002296Y005275D01*
X002371Y005350D01*
X002346Y004425D02*
X002121Y004425D01*
X002121Y003975D01*
X002121Y004125D02*
X002346Y004125D01*
X002421Y004200D01*
X002421Y004350D01*
X002346Y004425D01*
X002582Y004425D02*
X002882Y004425D01*
X002882Y004350D01*
X002582Y004050D01*
X002582Y003975D01*
X002421Y003975D02*
X002271Y004125D01*
X004171Y003025D02*
X004171Y002575D01*
X004171Y002725D02*
X004396Y002725D01*
X004471Y002800D01*
X004471Y002950D01*
X004396Y003025D01*
X004171Y003025D01*
X004321Y002725D02*
X004471Y002575D01*
X004632Y002575D02*
X004932Y002575D01*
X004782Y002575D02*
X004782Y003025D01*
X004632Y002875D01*
X006871Y003500D02*
X006946Y003425D01*
X007096Y003425D01*
X007171Y003500D01*
X007332Y003425D02*
X007632Y003425D01*
X007482Y003425D02*
X007482Y003875D01*
X007332Y003725D01*
X007171Y003800D02*
X007096Y003875D01*
X006946Y003875D01*
X006871Y003800D01*
X006871Y003500D01*
X009941Y002970D02*
X010016Y002895D01*
X010091Y002895D01*
X010166Y002970D01*
X010166Y003345D01*
X010091Y003345D02*
X010241Y003345D01*
X010402Y003345D02*
X010627Y003345D01*
X010702Y003270D01*
X010702Y003120D01*
X010627Y003045D01*
X010402Y003045D01*
X010402Y002895D02*
X010402Y003345D01*
X010862Y003195D02*
X011012Y003345D01*
X011012Y002895D01*
X010862Y002895D02*
X011162Y002895D01*
X011721Y003400D02*
X011796Y003325D01*
X011946Y003325D01*
X012021Y003400D01*
X012182Y003400D02*
X012257Y003325D01*
X012407Y003325D01*
X012482Y003400D01*
X012482Y003475D01*
X012407Y003550D01*
X012332Y003550D01*
X012407Y003550D02*
X012482Y003625D01*
X012482Y003700D01*
X012407Y003775D01*
X012257Y003775D01*
X012182Y003700D01*
X012021Y003700D02*
X011946Y003775D01*
X011796Y003775D01*
X011721Y003700D01*
X011721Y003400D01*
X011785Y001445D02*
X011650Y001445D01*
X011650Y001175D01*
X011785Y001175D01*
X011830Y001220D01*
X011830Y001400D01*
X011785Y001445D01*
X011535Y001445D02*
X011535Y001175D01*
X011355Y001445D01*
X011355Y001175D01*
X011241Y001220D02*
X011241Y001310D01*
X011151Y001310D01*
X011241Y001220D02*
X011196Y001175D01*
X011106Y001175D01*
X011060Y001220D01*
X011060Y001400D01*
X011106Y001445D01*
X011196Y001445D01*
X011241Y001400D01*
X010651Y001400D02*
X010651Y001310D01*
X010606Y001265D01*
X010471Y001265D01*
X010471Y001175D02*
X010471Y001445D01*
X010606Y001445D01*
X010651Y001400D01*
X010561Y001265D02*
X010651Y001175D01*
X012239Y001175D02*
X012419Y001175D01*
X012239Y001175D02*
X012239Y001445D01*
X014371Y003500D02*
X014446Y003425D01*
X014596Y003425D01*
X014671Y003500D01*
X014832Y003425D02*
X015132Y003725D01*
X015132Y003800D01*
X015057Y003875D01*
X014907Y003875D01*
X014832Y003800D01*
X014671Y003800D02*
X014596Y003875D01*
X014446Y003875D01*
X014371Y003800D01*
X014371Y003500D01*
X014832Y003425D02*
X015132Y003425D01*
X018021Y003225D02*
X018021Y002775D01*
X018021Y002925D02*
X018246Y002925D01*
X018321Y003000D01*
X018321Y003150D01*
X018246Y003225D01*
X018021Y003225D01*
X018171Y002925D02*
X018321Y002775D01*
X018482Y002775D02*
X018782Y003075D01*
X018782Y003150D01*
X018707Y003225D01*
X018557Y003225D01*
X018482Y003150D01*
X018482Y002775D02*
X018782Y002775D01*
X014919Y018675D02*
X014739Y018675D01*
X014739Y018945D01*
X014330Y018900D02*
X014330Y018720D01*
X014285Y018675D01*
X014150Y018675D01*
X014150Y018945D01*
X014285Y018945D01*
X014330Y018900D01*
X014035Y018945D02*
X014035Y018675D01*
X013855Y018945D01*
X013855Y018675D01*
X013741Y018720D02*
X013741Y018810D01*
X013651Y018810D01*
X013741Y018720D02*
X013696Y018675D01*
X013606Y018675D01*
X013560Y018720D01*
X013560Y018900D01*
X013606Y018945D01*
X013696Y018945D01*
X013741Y018900D01*
X013151Y018900D02*
X013151Y018810D01*
X013106Y018765D01*
X012971Y018765D01*
X012971Y018675D02*
X012971Y018945D01*
X013106Y018945D01*
X013151Y018900D01*
X013061Y018765D02*
X013151Y018675D01*
X002832Y013000D02*
X002832Y012925D01*
X002757Y012850D01*
X002607Y012850D01*
X002532Y012925D01*
X002532Y013000D01*
X002607Y013075D01*
X002757Y013075D01*
X002832Y013000D01*
X002757Y012850D02*
X002832Y012775D01*
X002832Y012700D01*
X002757Y012625D01*
X002607Y012625D01*
X002532Y012700D01*
X002532Y012775D01*
X002607Y012850D01*
X002371Y012850D02*
X002296Y012775D01*
X002071Y012775D01*
X002071Y012625D02*
X002071Y013075D01*
X002296Y013075D01*
X002371Y013000D01*
X002371Y012850D01*
X002221Y012775D02*
X002371Y012625D01*
D12*
X000660Y010816D02*
X000590Y010816D01*
X000520Y010745D01*
X000520Y010605D01*
X000450Y010535D01*
X000380Y010535D01*
X000310Y010605D01*
X000310Y010745D01*
X000380Y010816D01*
X000450Y010816D01*
X000520Y010745D01*
X000520Y010605D02*
X000590Y010535D01*
X000660Y010535D01*
X000730Y010605D01*
X000730Y010745D01*
X000660Y010816D01*
X000660Y010375D02*
X000730Y010375D01*
X000730Y010305D01*
X000660Y010305D01*
X000660Y010375D01*
X000660Y010125D02*
X000380Y010125D01*
X000660Y009845D01*
X000730Y009915D01*
X000730Y010055D01*
X000660Y010125D01*
X000660Y009845D02*
X000380Y009845D01*
X000310Y009915D01*
X000310Y010055D01*
X000380Y010125D01*
X000310Y009665D02*
X000310Y009384D01*
X000520Y009384D01*
X000450Y009524D01*
X000450Y009594D01*
X000520Y009665D01*
X000660Y009665D01*
X000730Y009594D01*
X000730Y009454D01*
X000660Y009384D01*
X002355Y001650D02*
X002357Y001698D01*
X002363Y001746D01*
X002373Y001793D01*
X002386Y001839D01*
X002404Y001884D01*
X002424Y001928D01*
X002449Y001970D01*
X002477Y002009D01*
X002507Y002046D01*
X002541Y002080D01*
X002578Y002112D01*
X002616Y002141D01*
X002657Y002166D01*
X002700Y002188D01*
X002745Y002206D01*
X002791Y002220D01*
X002838Y002231D01*
X002886Y002238D01*
X002934Y002241D01*
X002982Y002240D01*
X003030Y002235D01*
X003078Y002226D01*
X003124Y002214D01*
X003169Y002197D01*
X003213Y002177D01*
X003255Y002154D01*
X003295Y002127D01*
X003333Y002097D01*
X003368Y002064D01*
X003400Y002028D01*
X003430Y001990D01*
X003456Y001949D01*
X003478Y001906D01*
X003498Y001862D01*
X003513Y001817D01*
X003525Y001770D01*
X003533Y001722D01*
X003537Y001674D01*
X003537Y001626D01*
X003533Y001578D01*
X003525Y001530D01*
X003513Y001483D01*
X003498Y001438D01*
X003478Y001394D01*
X003456Y001351D01*
X003430Y001310D01*
X003400Y001272D01*
X003368Y001236D01*
X003333Y001203D01*
X003295Y001173D01*
X003255Y001146D01*
X003213Y001123D01*
X003169Y001103D01*
X003124Y001086D01*
X003078Y001074D01*
X003030Y001065D01*
X002982Y001060D01*
X002934Y001059D01*
X002886Y001062D01*
X002838Y001069D01*
X002791Y001080D01*
X002745Y001094D01*
X002700Y001112D01*
X002657Y001134D01*
X002616Y001159D01*
X002578Y001188D01*
X002541Y001220D01*
X002507Y001254D01*
X002477Y001291D01*
X002449Y001330D01*
X002424Y001372D01*
X002404Y001416D01*
X002386Y001461D01*
X002373Y001507D01*
X002363Y001554D01*
X002357Y001602D01*
X002355Y001650D01*
X009986Y008690D02*
X009986Y009110D01*
X010196Y009110D01*
X010266Y009040D01*
X010266Y008900D01*
X010196Y008830D01*
X009986Y008830D01*
X010447Y009110D02*
X010727Y009110D01*
X010587Y009110D02*
X010587Y008690D01*
X010907Y008690D02*
X011187Y008970D01*
X011187Y009040D01*
X011117Y009110D01*
X010977Y009110D01*
X010907Y009040D01*
X010907Y008690D02*
X011187Y008690D01*
X011367Y008760D02*
X011437Y008690D01*
X011578Y008690D01*
X011648Y008760D01*
X011648Y008830D01*
X011578Y008900D01*
X011507Y008900D01*
X011578Y008900D02*
X011648Y008970D01*
X011648Y009040D01*
X011578Y009110D01*
X011437Y009110D01*
X011367Y009040D01*
X011828Y009040D02*
X011898Y009110D01*
X012038Y009110D01*
X012108Y009040D01*
X012108Y008970D01*
X011828Y008690D01*
X012108Y008690D01*
X012288Y008690D02*
X012568Y008970D01*
X012568Y009040D01*
X012498Y009110D01*
X012358Y009110D01*
X012288Y009040D01*
X012288Y008690D02*
X012568Y008690D01*
X019355Y001650D02*
X019357Y001698D01*
X019363Y001746D01*
X019373Y001793D01*
X019386Y001839D01*
X019404Y001884D01*
X019424Y001928D01*
X019449Y001970D01*
X019477Y002009D01*
X019507Y002046D01*
X019541Y002080D01*
X019578Y002112D01*
X019616Y002141D01*
X019657Y002166D01*
X019700Y002188D01*
X019745Y002206D01*
X019791Y002220D01*
X019838Y002231D01*
X019886Y002238D01*
X019934Y002241D01*
X019982Y002240D01*
X020030Y002235D01*
X020078Y002226D01*
X020124Y002214D01*
X020169Y002197D01*
X020213Y002177D01*
X020255Y002154D01*
X020295Y002127D01*
X020333Y002097D01*
X020368Y002064D01*
X020400Y002028D01*
X020430Y001990D01*
X020456Y001949D01*
X020478Y001906D01*
X020498Y001862D01*
X020513Y001817D01*
X020525Y001770D01*
X020533Y001722D01*
X020537Y001674D01*
X020537Y001626D01*
X020533Y001578D01*
X020525Y001530D01*
X020513Y001483D01*
X020498Y001438D01*
X020478Y001394D01*
X020456Y001351D01*
X020430Y001310D01*
X020400Y001272D01*
X020368Y001236D01*
X020333Y001203D01*
X020295Y001173D01*
X020255Y001146D01*
X020213Y001123D01*
X020169Y001103D01*
X020124Y001086D01*
X020078Y001074D01*
X020030Y001065D01*
X019982Y001060D01*
X019934Y001059D01*
X019886Y001062D01*
X019838Y001069D01*
X019791Y001080D01*
X019745Y001094D01*
X019700Y001112D01*
X019657Y001134D01*
X019616Y001159D01*
X019578Y001188D01*
X019541Y001220D01*
X019507Y001254D01*
X019477Y001291D01*
X019449Y001330D01*
X019424Y001372D01*
X019404Y001416D01*
X019386Y001461D01*
X019373Y001507D01*
X019363Y001554D01*
X019357Y001602D01*
X019355Y001650D01*
X012455Y000860D02*
X012174Y000860D01*
X012314Y000860D02*
X012314Y000440D01*
X011994Y000510D02*
X011994Y000860D01*
X011714Y000860D02*
X011714Y000510D01*
X011784Y000440D01*
X011924Y000440D01*
X011994Y000510D01*
X011534Y000650D02*
X011464Y000580D01*
X011254Y000580D01*
X011254Y000440D02*
X011254Y000860D01*
X011464Y000860D01*
X011534Y000790D01*
X011534Y000650D01*
X011073Y000440D02*
X011073Y000860D01*
X010793Y000860D02*
X010793Y000440D01*
X010626Y000440D02*
X010486Y000440D01*
X010556Y000440D02*
X010556Y000860D01*
X010486Y000860D02*
X010626Y000860D01*
X010793Y000860D02*
X011073Y000440D01*
X002355Y018650D02*
X002357Y018698D01*
X002363Y018746D01*
X002373Y018793D01*
X002386Y018839D01*
X002404Y018884D01*
X002424Y018928D01*
X002449Y018970D01*
X002477Y019009D01*
X002507Y019046D01*
X002541Y019080D01*
X002578Y019112D01*
X002616Y019141D01*
X002657Y019166D01*
X002700Y019188D01*
X002745Y019206D01*
X002791Y019220D01*
X002838Y019231D01*
X002886Y019238D01*
X002934Y019241D01*
X002982Y019240D01*
X003030Y019235D01*
X003078Y019226D01*
X003124Y019214D01*
X003169Y019197D01*
X003213Y019177D01*
X003255Y019154D01*
X003295Y019127D01*
X003333Y019097D01*
X003368Y019064D01*
X003400Y019028D01*
X003430Y018990D01*
X003456Y018949D01*
X003478Y018906D01*
X003498Y018862D01*
X003513Y018817D01*
X003525Y018770D01*
X003533Y018722D01*
X003537Y018674D01*
X003537Y018626D01*
X003533Y018578D01*
X003525Y018530D01*
X003513Y018483D01*
X003498Y018438D01*
X003478Y018394D01*
X003456Y018351D01*
X003430Y018310D01*
X003400Y018272D01*
X003368Y018236D01*
X003333Y018203D01*
X003295Y018173D01*
X003255Y018146D01*
X003213Y018123D01*
X003169Y018103D01*
X003124Y018086D01*
X003078Y018074D01*
X003030Y018065D01*
X002982Y018060D01*
X002934Y018059D01*
X002886Y018062D01*
X002838Y018069D01*
X002791Y018080D01*
X002745Y018094D01*
X002700Y018112D01*
X002657Y018134D01*
X002616Y018159D01*
X002578Y018188D01*
X002541Y018220D01*
X002507Y018254D01*
X002477Y018291D01*
X002449Y018330D01*
X002424Y018372D01*
X002404Y018416D01*
X002386Y018461D01*
X002373Y018507D01*
X002363Y018554D01*
X002357Y018602D01*
X002355Y018650D01*
X004986Y019190D02*
X005126Y019190D01*
X005056Y019190D02*
X005056Y019610D01*
X004986Y019610D02*
X005126Y019610D01*
X005293Y019540D02*
X005363Y019610D01*
X005503Y019610D01*
X005573Y019540D01*
X005573Y019470D01*
X005293Y019190D01*
X005573Y019190D01*
X005754Y019260D02*
X005824Y019190D01*
X005964Y019190D01*
X006034Y019260D01*
X006034Y019540D02*
X005964Y019610D01*
X005824Y019610D01*
X005754Y019540D01*
X005754Y019260D01*
X006674Y019190D02*
X006884Y019190D01*
X006955Y019260D01*
X006955Y019330D01*
X006884Y019400D01*
X006674Y019400D01*
X006674Y019190D02*
X006674Y019610D01*
X006884Y019610D01*
X006955Y019540D01*
X006955Y019470D01*
X006884Y019400D01*
X007135Y019260D02*
X007205Y019190D01*
X007345Y019190D01*
X007415Y019260D01*
X007415Y019610D01*
X007595Y019540D02*
X007595Y019470D01*
X007665Y019400D01*
X007805Y019400D01*
X007875Y019330D01*
X007875Y019260D01*
X007805Y019190D01*
X007665Y019190D01*
X007595Y019260D01*
X007595Y019540D02*
X007665Y019610D01*
X007805Y019610D01*
X007875Y019540D01*
X007135Y019610D02*
X007135Y019260D01*
X009486Y019190D02*
X009486Y019610D01*
X009696Y019610D01*
X009766Y019540D01*
X009766Y019400D01*
X009696Y019330D01*
X009486Y019330D01*
X009947Y019190D02*
X010087Y019330D01*
X010227Y019190D01*
X010227Y019610D01*
X010407Y019610D02*
X010617Y019610D01*
X010687Y019540D01*
X010687Y019400D01*
X010617Y019330D01*
X010407Y019330D01*
X010407Y019190D02*
X010407Y019610D01*
X010547Y019330D02*
X010687Y019190D01*
X009947Y019190D02*
X009947Y019610D01*
X010750Y020864D02*
X010680Y020934D01*
X010750Y020864D02*
X010891Y020864D01*
X010961Y020934D01*
X010961Y021074D01*
X010891Y021144D01*
X010820Y021144D01*
X010680Y021074D01*
X010680Y021284D01*
X010961Y021284D01*
X011141Y021214D02*
X011211Y021284D01*
X011351Y021284D01*
X011421Y021214D01*
X011141Y020934D01*
X011211Y020864D01*
X011351Y020864D01*
X011421Y020934D01*
X011421Y021214D01*
X011141Y021214D02*
X011141Y020934D01*
X011601Y020934D02*
X011671Y020934D01*
X011671Y020864D01*
X011601Y020864D01*
X011601Y020934D01*
X011831Y020934D02*
X011831Y021004D01*
X011901Y021074D01*
X012042Y021074D01*
X012112Y021004D01*
X012112Y020934D01*
X012042Y020864D01*
X011901Y020864D01*
X011831Y020934D01*
X011901Y021074D02*
X011831Y021144D01*
X011831Y021214D01*
X011901Y021284D01*
X012042Y021284D01*
X012112Y021214D01*
X012112Y021144D01*
X012042Y021074D01*
X013556Y019610D02*
X013486Y019540D01*
X013486Y019260D01*
X013556Y019190D01*
X013696Y019190D01*
X013766Y019260D01*
X013766Y019540D01*
X013696Y019610D01*
X013556Y019610D01*
X013947Y019610D02*
X013947Y019260D01*
X014017Y019190D01*
X014157Y019190D01*
X014227Y019260D01*
X014227Y019610D01*
X014407Y019610D02*
X014687Y019610D01*
X014547Y019610D02*
X014547Y019190D01*
X019355Y018650D02*
X019357Y018698D01*
X019363Y018746D01*
X019373Y018793D01*
X019386Y018839D01*
X019404Y018884D01*
X019424Y018928D01*
X019449Y018970D01*
X019477Y019009D01*
X019507Y019046D01*
X019541Y019080D01*
X019578Y019112D01*
X019616Y019141D01*
X019657Y019166D01*
X019700Y019188D01*
X019745Y019206D01*
X019791Y019220D01*
X019838Y019231D01*
X019886Y019238D01*
X019934Y019241D01*
X019982Y019240D01*
X020030Y019235D01*
X020078Y019226D01*
X020124Y019214D01*
X020169Y019197D01*
X020213Y019177D01*
X020255Y019154D01*
X020295Y019127D01*
X020333Y019097D01*
X020368Y019064D01*
X020400Y019028D01*
X020430Y018990D01*
X020456Y018949D01*
X020478Y018906D01*
X020498Y018862D01*
X020513Y018817D01*
X020525Y018770D01*
X020533Y018722D01*
X020537Y018674D01*
X020537Y018626D01*
X020533Y018578D01*
X020525Y018530D01*
X020513Y018483D01*
X020498Y018438D01*
X020478Y018394D01*
X020456Y018351D01*
X020430Y018310D01*
X020400Y018272D01*
X020368Y018236D01*
X020333Y018203D01*
X020295Y018173D01*
X020255Y018146D01*
X020213Y018123D01*
X020169Y018103D01*
X020124Y018086D01*
X020078Y018074D01*
X020030Y018065D01*
X019982Y018060D01*
X019934Y018059D01*
X019886Y018062D01*
X019838Y018069D01*
X019791Y018080D01*
X019745Y018094D01*
X019700Y018112D01*
X019657Y018134D01*
X019616Y018159D01*
X019578Y018188D01*
X019541Y018220D01*
X019507Y018254D01*
X019477Y018291D01*
X019449Y018330D01*
X019424Y018372D01*
X019404Y018416D01*
X019386Y018461D01*
X019373Y018507D01*
X019363Y018554D01*
X019357Y018602D01*
X019355Y018650D01*
D13*
X001446Y000150D02*
X000178Y000150D01*
X000946Y000150D02*
X001049Y001174D01*
X001072Y001174D02*
X000946Y000150D01*
X000844Y001174D01*
X000820Y001174D02*
X001072Y001174D01*
X000997Y001174D02*
X000946Y000150D01*
X000895Y001174D01*
X000820Y001174D02*
X000946Y000150D01*
X000946Y020150D01*
X001049Y019126D01*
X001072Y019126D02*
X000946Y020150D01*
X000844Y019126D01*
X000820Y019126D02*
X001072Y019126D01*
X000997Y019126D02*
X000946Y020150D01*
X000895Y019126D01*
X000820Y019126D02*
X000946Y020150D01*
X001446Y020150D02*
X000178Y020150D01*
X001446Y020146D02*
X001446Y021414D01*
X001446Y020646D02*
X002470Y020544D01*
X002470Y020521D02*
X001446Y020646D01*
X002470Y020749D01*
X002470Y020772D02*
X002470Y020521D01*
X002470Y020595D02*
X001446Y020646D01*
X002470Y020697D01*
X002470Y020772D02*
X001446Y020646D01*
X021446Y020650D01*
X020422Y020547D01*
X020422Y020524D02*
X021446Y020650D01*
X020422Y020752D01*
X020422Y020775D02*
X020422Y020524D01*
X020422Y020599D02*
X021446Y020650D01*
X020422Y020701D01*
X020422Y020775D02*
X021446Y020650D01*
X021446Y020150D02*
X021446Y021418D01*
D14*
X008984Y009170D02*
X008677Y009170D01*
X008830Y009170D02*
X008830Y009630D01*
X008677Y009477D01*
X008523Y009630D02*
X008523Y009247D01*
X008446Y009170D01*
X008293Y009170D01*
X008216Y009247D01*
X008216Y009630D01*
X008426Y007280D02*
X008426Y006973D01*
X008426Y007127D02*
X007966Y007127D01*
X008119Y006973D01*
D15*
X006896Y007050D02*
X006896Y006250D01*
X006894Y006233D01*
X006890Y006216D01*
X006883Y006200D01*
X006873Y006186D01*
X006860Y006173D01*
X006846Y006163D01*
X006830Y006156D01*
X006813Y006152D01*
X006796Y006150D01*
X005096Y006150D01*
X005079Y006152D01*
X005062Y006156D01*
X005046Y006163D01*
X005032Y006173D01*
X005019Y006186D01*
X005009Y006200D01*
X005002Y006216D01*
X004998Y006233D01*
X004996Y006250D01*
X004996Y007050D01*
X004998Y007067D01*
X005002Y007084D01*
X005009Y007100D01*
X005019Y007114D01*
X005032Y007127D01*
X005046Y007137D01*
X005062Y007144D01*
X005079Y007148D01*
X005096Y007150D01*
X006796Y007150D01*
X006813Y007148D01*
X006830Y007144D01*
X006846Y007137D01*
X006860Y007127D01*
X006873Y007114D01*
X006883Y007100D01*
X006890Y007084D01*
X006894Y007067D01*
X006896Y007050D01*
X006796Y007650D02*
X005096Y007650D01*
X005079Y007652D01*
X005062Y007656D01*
X005046Y007663D01*
X005032Y007673D01*
X005019Y007686D01*
X005009Y007700D01*
X005002Y007716D01*
X004998Y007733D01*
X004996Y007750D01*
X004996Y008550D01*
X004998Y008567D01*
X005002Y008584D01*
X005009Y008600D01*
X005019Y008614D01*
X005032Y008627D01*
X005046Y008637D01*
X005062Y008644D01*
X005079Y008648D01*
X005096Y008650D01*
X006796Y008650D01*
X006813Y008648D01*
X006830Y008644D01*
X006846Y008637D01*
X006860Y008627D01*
X006873Y008614D01*
X006883Y008600D01*
X006890Y008584D01*
X006894Y008567D01*
X006896Y008550D01*
X006896Y007750D01*
X006894Y007733D01*
X006890Y007716D01*
X006883Y007700D01*
X006873Y007686D01*
X006860Y007673D01*
X006846Y007663D01*
X006830Y007656D01*
X006813Y007652D01*
X006796Y007650D01*
X006096Y008150D02*
X006046Y008150D01*
X005846Y008150D02*
X005796Y008150D01*
X005096Y009150D02*
X006796Y009150D01*
X006813Y009152D01*
X006830Y009156D01*
X006846Y009163D01*
X006860Y009173D01*
X006873Y009186D01*
X006883Y009200D01*
X006890Y009216D01*
X006894Y009233D01*
X006896Y009250D01*
X006896Y010050D01*
X006894Y010067D01*
X006890Y010084D01*
X006883Y010100D01*
X006873Y010114D01*
X006860Y010127D01*
X006846Y010137D01*
X006830Y010144D01*
X006813Y010148D01*
X006796Y010150D01*
X005096Y010150D01*
X005079Y010148D01*
X005062Y010144D01*
X005046Y010137D01*
X005032Y010127D01*
X005019Y010114D01*
X005009Y010100D01*
X005002Y010084D01*
X004998Y010067D01*
X004996Y010050D01*
X004996Y009250D01*
X004998Y009233D01*
X005002Y009216D01*
X005009Y009200D01*
X005019Y009186D01*
X005032Y009173D01*
X005046Y009163D01*
X005062Y009156D01*
X005079Y009152D01*
X005096Y009150D01*
X005796Y009650D02*
X005846Y009650D01*
X006046Y009650D02*
X006096Y009650D01*
X006796Y010650D02*
X005096Y010650D01*
X005079Y010652D01*
X005062Y010656D01*
X005046Y010663D01*
X005032Y010673D01*
X005019Y010686D01*
X005009Y010700D01*
X005002Y010716D01*
X004998Y010733D01*
X004996Y010750D01*
X004996Y011550D01*
X004998Y011567D01*
X005002Y011584D01*
X005009Y011600D01*
X005019Y011614D01*
X005032Y011627D01*
X005046Y011637D01*
X005062Y011644D01*
X005079Y011648D01*
X005096Y011650D01*
X006796Y011650D01*
X006813Y011648D01*
X006830Y011644D01*
X006846Y011637D01*
X006860Y011627D01*
X006873Y011614D01*
X006883Y011600D01*
X006890Y011584D01*
X006894Y011567D01*
X006896Y011550D01*
X006896Y010750D01*
X006894Y010733D01*
X006890Y010716D01*
X006883Y010700D01*
X006873Y010686D01*
X006860Y010673D01*
X006846Y010663D01*
X006830Y010656D01*
X006813Y010652D01*
X006796Y010650D01*
X006096Y011150D02*
X006046Y011150D01*
X005846Y011150D02*
X005796Y011150D01*
X004396Y010650D02*
X004396Y010500D01*
X004394Y010483D01*
X004390Y010466D01*
X004383Y010450D01*
X004373Y010436D01*
X004360Y010423D01*
X004346Y010413D01*
X004330Y010406D01*
X004313Y010402D01*
X004296Y010400D01*
X003596Y010400D01*
X003579Y010402D01*
X003562Y010406D01*
X003546Y010413D01*
X003532Y010423D01*
X003519Y010436D01*
X003509Y010450D01*
X003502Y010466D01*
X003498Y010483D01*
X003496Y010500D01*
X003496Y010650D01*
X003546Y010700D01*
X003546Y012600D01*
X003496Y012650D01*
X003496Y012800D01*
X003498Y012817D01*
X003502Y012834D01*
X003509Y012850D01*
X003519Y012864D01*
X003532Y012877D01*
X003546Y012887D01*
X003562Y012894D01*
X003579Y012898D01*
X003596Y012900D01*
X004296Y012900D01*
X004313Y012898D01*
X004330Y012894D01*
X004346Y012887D01*
X004360Y012877D01*
X004373Y012864D01*
X004383Y012850D01*
X004390Y012834D01*
X004394Y012817D01*
X004396Y012800D01*
X004396Y012650D01*
X004346Y012600D01*
X004346Y010700D01*
X004396Y010650D01*
X004296Y007400D02*
X003596Y007400D01*
X003579Y007398D01*
X003562Y007394D01*
X003546Y007387D01*
X003532Y007377D01*
X003519Y007364D01*
X003509Y007350D01*
X003502Y007334D01*
X003498Y007317D01*
X003496Y007300D01*
X003496Y007150D01*
X003546Y007100D01*
X003546Y005200D01*
X003496Y005150D01*
X003496Y005000D01*
X003498Y004983D01*
X003502Y004966D01*
X003509Y004950D01*
X003519Y004936D01*
X003532Y004923D01*
X003546Y004913D01*
X003562Y004906D01*
X003579Y004902D01*
X003596Y004900D01*
X004296Y004900D01*
X004313Y004902D01*
X004330Y004906D01*
X004346Y004913D01*
X004360Y004923D01*
X004373Y004936D01*
X004383Y004950D01*
X004390Y004966D01*
X004394Y004983D01*
X004396Y005000D01*
X004396Y005150D01*
X004346Y005200D01*
X004346Y007100D01*
X004396Y007150D01*
X004396Y007300D01*
X004394Y007317D01*
X004390Y007334D01*
X004383Y007350D01*
X004373Y007364D01*
X004360Y007377D01*
X004346Y007387D01*
X004330Y007394D01*
X004313Y007398D01*
X004296Y007400D01*
X005796Y006650D02*
X005846Y006650D01*
X006046Y006650D02*
X006096Y006650D01*
X006796Y005650D02*
X005096Y005650D01*
X005079Y005648D01*
X005062Y005644D01*
X005046Y005637D01*
X005032Y005627D01*
X005019Y005614D01*
X005009Y005600D01*
X005002Y005584D01*
X004998Y005567D01*
X004996Y005550D01*
X004996Y004750D01*
X004998Y004733D01*
X005002Y004716D01*
X005009Y004700D01*
X005019Y004686D01*
X005032Y004673D01*
X005046Y004663D01*
X005062Y004656D01*
X005079Y004652D01*
X005096Y004650D01*
X006796Y004650D01*
X006813Y004652D01*
X006830Y004656D01*
X006846Y004663D01*
X006860Y004673D01*
X006873Y004686D01*
X006883Y004700D01*
X006890Y004716D01*
X006894Y004733D01*
X006896Y004750D01*
X006896Y005550D01*
X006894Y005567D01*
X006890Y005584D01*
X006883Y005600D01*
X006873Y005614D01*
X006860Y005627D01*
X006846Y005637D01*
X006830Y005644D01*
X006813Y005648D01*
X006796Y005650D01*
X006096Y005150D02*
X006046Y005150D01*
X005846Y005150D02*
X005796Y005150D01*
X006296Y003100D02*
X006446Y003100D01*
X006496Y003050D01*
X008396Y003050D01*
X008446Y003100D01*
X008596Y003100D01*
X008613Y003098D01*
X008630Y003094D01*
X008646Y003087D01*
X008660Y003077D01*
X008673Y003064D01*
X008683Y003050D01*
X008690Y003034D01*
X008694Y003017D01*
X008696Y003000D01*
X008696Y002300D01*
X008694Y002283D01*
X008690Y002266D01*
X008683Y002250D01*
X008673Y002236D01*
X008660Y002223D01*
X008646Y002213D01*
X008630Y002206D01*
X008613Y002202D01*
X008596Y002200D01*
X008446Y002200D01*
X008396Y002250D01*
X006496Y002250D01*
X006446Y002200D01*
X006296Y002200D01*
X006279Y002202D01*
X006262Y002206D01*
X006246Y002213D01*
X006232Y002223D01*
X006219Y002236D01*
X006209Y002250D01*
X006202Y002266D01*
X006198Y002283D01*
X006196Y002300D01*
X006196Y003000D01*
X006198Y003017D01*
X006202Y003034D01*
X006209Y003050D01*
X006219Y003064D01*
X006232Y003077D01*
X006246Y003087D01*
X006262Y003094D01*
X006279Y003098D01*
X006296Y003100D01*
X007446Y004650D02*
X007448Y004713D01*
X007454Y004775D01*
X007464Y004837D01*
X007477Y004899D01*
X007495Y004959D01*
X007516Y005018D01*
X007541Y005076D01*
X007570Y005132D01*
X007602Y005186D01*
X007637Y005238D01*
X007675Y005287D01*
X007717Y005335D01*
X007761Y005379D01*
X007809Y005421D01*
X007858Y005459D01*
X007910Y005494D01*
X007964Y005526D01*
X008020Y005555D01*
X008078Y005580D01*
X008137Y005601D01*
X008197Y005619D01*
X008259Y005632D01*
X008321Y005642D01*
X008383Y005648D01*
X008446Y005650D01*
X008509Y005648D01*
X008571Y005642D01*
X008633Y005632D01*
X008695Y005619D01*
X008755Y005601D01*
X008814Y005580D01*
X008872Y005555D01*
X008928Y005526D01*
X008982Y005494D01*
X009034Y005459D01*
X009083Y005421D01*
X009131Y005379D01*
X009175Y005335D01*
X009217Y005287D01*
X009255Y005238D01*
X009290Y005186D01*
X009322Y005132D01*
X009351Y005076D01*
X009376Y005018D01*
X009397Y004959D01*
X009415Y004899D01*
X009428Y004837D01*
X009438Y004775D01*
X009444Y004713D01*
X009446Y004650D01*
X009444Y004587D01*
X009438Y004525D01*
X009428Y004463D01*
X009415Y004401D01*
X009397Y004341D01*
X009376Y004282D01*
X009351Y004224D01*
X009322Y004168D01*
X009290Y004114D01*
X009255Y004062D01*
X009217Y004013D01*
X009175Y003965D01*
X009131Y003921D01*
X009083Y003879D01*
X009034Y003841D01*
X008982Y003806D01*
X008928Y003774D01*
X008872Y003745D01*
X008814Y003720D01*
X008755Y003699D01*
X008695Y003681D01*
X008633Y003668D01*
X008571Y003658D01*
X008509Y003652D01*
X008446Y003650D01*
X008383Y003652D01*
X008321Y003658D01*
X008259Y003668D01*
X008197Y003681D01*
X008137Y003699D01*
X008078Y003720D01*
X008020Y003745D01*
X007964Y003774D01*
X007910Y003806D01*
X007858Y003841D01*
X007809Y003879D01*
X007761Y003921D01*
X007717Y003965D01*
X007675Y004013D01*
X007637Y004062D01*
X007602Y004114D01*
X007570Y004168D01*
X007541Y004224D01*
X007516Y004282D01*
X007495Y004341D01*
X007477Y004401D01*
X007464Y004463D01*
X007454Y004525D01*
X007448Y004587D01*
X007446Y004650D01*
X009046Y005050D02*
X009246Y005050D01*
X009146Y005150D02*
X009146Y004950D01*
X010446Y005350D02*
X010646Y005350D01*
X010546Y005250D02*
X010546Y005450D01*
X009946Y004650D02*
X009948Y004713D01*
X009954Y004775D01*
X009964Y004837D01*
X009977Y004899D01*
X009995Y004959D01*
X010016Y005018D01*
X010041Y005076D01*
X010070Y005132D01*
X010102Y005186D01*
X010137Y005238D01*
X010175Y005287D01*
X010217Y005335D01*
X010261Y005379D01*
X010309Y005421D01*
X010358Y005459D01*
X010410Y005494D01*
X010464Y005526D01*
X010520Y005555D01*
X010578Y005580D01*
X010637Y005601D01*
X010697Y005619D01*
X010759Y005632D01*
X010821Y005642D01*
X010883Y005648D01*
X010946Y005650D01*
X011009Y005648D01*
X011071Y005642D01*
X011133Y005632D01*
X011195Y005619D01*
X011255Y005601D01*
X011314Y005580D01*
X011372Y005555D01*
X011428Y005526D01*
X011482Y005494D01*
X011534Y005459D01*
X011583Y005421D01*
X011631Y005379D01*
X011675Y005335D01*
X011717Y005287D01*
X011755Y005238D01*
X011790Y005186D01*
X011822Y005132D01*
X011851Y005076D01*
X011876Y005018D01*
X011897Y004959D01*
X011915Y004899D01*
X011928Y004837D01*
X011938Y004775D01*
X011944Y004713D01*
X011946Y004650D01*
X011944Y004587D01*
X011938Y004525D01*
X011928Y004463D01*
X011915Y004401D01*
X011897Y004341D01*
X011876Y004282D01*
X011851Y004224D01*
X011822Y004168D01*
X011790Y004114D01*
X011755Y004062D01*
X011717Y004013D01*
X011675Y003965D01*
X011631Y003921D01*
X011583Y003879D01*
X011534Y003841D01*
X011482Y003806D01*
X011428Y003774D01*
X011372Y003745D01*
X011314Y003720D01*
X011255Y003699D01*
X011195Y003681D01*
X011133Y003668D01*
X011071Y003658D01*
X011009Y003652D01*
X010946Y003650D01*
X010883Y003652D01*
X010821Y003658D01*
X010759Y003668D01*
X010697Y003681D01*
X010637Y003699D01*
X010578Y003720D01*
X010520Y003745D01*
X010464Y003774D01*
X010410Y003806D01*
X010358Y003841D01*
X010309Y003879D01*
X010261Y003921D01*
X010217Y003965D01*
X010175Y004013D01*
X010137Y004062D01*
X010102Y004114D01*
X010070Y004168D01*
X010041Y004224D01*
X010016Y004282D01*
X009995Y004341D01*
X009977Y004401D01*
X009964Y004463D01*
X009954Y004525D01*
X009948Y004587D01*
X009946Y004650D01*
X010196Y002650D02*
X009946Y002400D01*
X009946Y001900D01*
X010196Y001650D01*
X010696Y001650D01*
X010946Y001900D01*
X011196Y001650D01*
X011696Y001650D01*
X011946Y001900D01*
X012196Y001650D01*
X012696Y001650D01*
X012946Y001900D01*
X012946Y002400D01*
X012696Y002650D01*
X012196Y002650D01*
X011946Y002400D01*
X011946Y001900D01*
X011946Y002400D02*
X011696Y002650D01*
X011196Y002650D01*
X010946Y002400D01*
X010946Y001900D01*
X010946Y002400D02*
X010696Y002650D01*
X010196Y002650D01*
X012446Y004650D02*
X012448Y004713D01*
X012454Y004775D01*
X012464Y004837D01*
X012477Y004899D01*
X012495Y004959D01*
X012516Y005018D01*
X012541Y005076D01*
X012570Y005132D01*
X012602Y005186D01*
X012637Y005238D01*
X012675Y005287D01*
X012717Y005335D01*
X012761Y005379D01*
X012809Y005421D01*
X012858Y005459D01*
X012910Y005494D01*
X012964Y005526D01*
X013020Y005555D01*
X013078Y005580D01*
X013137Y005601D01*
X013197Y005619D01*
X013259Y005632D01*
X013321Y005642D01*
X013383Y005648D01*
X013446Y005650D01*
X013509Y005648D01*
X013571Y005642D01*
X013633Y005632D01*
X013695Y005619D01*
X013755Y005601D01*
X013814Y005580D01*
X013872Y005555D01*
X013928Y005526D01*
X013982Y005494D01*
X014034Y005459D01*
X014083Y005421D01*
X014131Y005379D01*
X014175Y005335D01*
X014217Y005287D01*
X014255Y005238D01*
X014290Y005186D01*
X014322Y005132D01*
X014351Y005076D01*
X014376Y005018D01*
X014397Y004959D01*
X014415Y004899D01*
X014428Y004837D01*
X014438Y004775D01*
X014444Y004713D01*
X014446Y004650D01*
X014444Y004587D01*
X014438Y004525D01*
X014428Y004463D01*
X014415Y004401D01*
X014397Y004341D01*
X014376Y004282D01*
X014351Y004224D01*
X014322Y004168D01*
X014290Y004114D01*
X014255Y004062D01*
X014217Y004013D01*
X014175Y003965D01*
X014131Y003921D01*
X014083Y003879D01*
X014034Y003841D01*
X013982Y003806D01*
X013928Y003774D01*
X013872Y003745D01*
X013814Y003720D01*
X013755Y003699D01*
X013695Y003681D01*
X013633Y003668D01*
X013571Y003658D01*
X013509Y003652D01*
X013446Y003650D01*
X013383Y003652D01*
X013321Y003658D01*
X013259Y003668D01*
X013197Y003681D01*
X013137Y003699D01*
X013078Y003720D01*
X013020Y003745D01*
X012964Y003774D01*
X012910Y003806D01*
X012858Y003841D01*
X012809Y003879D01*
X012761Y003921D01*
X012717Y003965D01*
X012675Y004013D01*
X012637Y004062D01*
X012602Y004114D01*
X012570Y004168D01*
X012541Y004224D01*
X012516Y004282D01*
X012495Y004341D01*
X012477Y004401D01*
X012464Y004463D01*
X012454Y004525D01*
X012448Y004587D01*
X012446Y004650D01*
X014046Y005050D02*
X014246Y005050D01*
X014146Y005150D02*
X014146Y004950D01*
X014296Y003100D02*
X014446Y003100D01*
X014496Y003050D01*
X016396Y003050D01*
X016446Y003100D01*
X016596Y003100D01*
X016613Y003098D01*
X016630Y003094D01*
X016646Y003087D01*
X016660Y003077D01*
X016673Y003064D01*
X016683Y003050D01*
X016690Y003034D01*
X016694Y003017D01*
X016696Y003000D01*
X016696Y002300D01*
X016694Y002283D01*
X016690Y002266D01*
X016683Y002250D01*
X016673Y002236D01*
X016660Y002223D01*
X016646Y002213D01*
X016630Y002206D01*
X016613Y002202D01*
X016596Y002200D01*
X016446Y002200D01*
X016396Y002250D01*
X014496Y002250D01*
X014446Y002200D01*
X014296Y002200D01*
X014279Y002202D01*
X014262Y002206D01*
X014246Y002213D01*
X014232Y002223D01*
X014219Y002236D01*
X014209Y002250D01*
X014202Y002266D01*
X014198Y002283D01*
X014196Y002300D01*
X014196Y003000D01*
X014198Y003017D01*
X014202Y003034D01*
X014209Y003050D01*
X014219Y003064D01*
X014232Y003077D01*
X014246Y003087D01*
X014262Y003094D01*
X014279Y003098D01*
X014296Y003100D01*
X015996Y004750D02*
X015996Y005550D01*
X015998Y005567D01*
X016002Y005584D01*
X016009Y005600D01*
X016019Y005614D01*
X016032Y005627D01*
X016046Y005637D01*
X016062Y005644D01*
X016079Y005648D01*
X016096Y005650D01*
X017796Y005650D01*
X017813Y005648D01*
X017830Y005644D01*
X017846Y005637D01*
X017860Y005627D01*
X017873Y005614D01*
X017883Y005600D01*
X017890Y005584D01*
X017894Y005567D01*
X017896Y005550D01*
X017896Y004750D01*
X017894Y004733D01*
X017890Y004716D01*
X017883Y004700D01*
X017873Y004686D01*
X017860Y004673D01*
X017846Y004663D01*
X017830Y004656D01*
X017813Y004652D01*
X017796Y004650D01*
X016096Y004650D01*
X016079Y004652D01*
X016062Y004656D01*
X016046Y004663D01*
X016032Y004673D01*
X016019Y004686D01*
X016009Y004700D01*
X016002Y004716D01*
X015998Y004733D01*
X015996Y004750D01*
X016796Y005150D02*
X016846Y005150D01*
X017046Y005150D02*
X017096Y005150D01*
X017796Y006150D02*
X016096Y006150D01*
X016079Y006152D01*
X016062Y006156D01*
X016046Y006163D01*
X016032Y006173D01*
X016019Y006186D01*
X016009Y006200D01*
X016002Y006216D01*
X015998Y006233D01*
X015996Y006250D01*
X015996Y007050D01*
X015998Y007067D01*
X016002Y007084D01*
X016009Y007100D01*
X016019Y007114D01*
X016032Y007127D01*
X016046Y007137D01*
X016062Y007144D01*
X016079Y007148D01*
X016096Y007150D01*
X017796Y007150D01*
X017813Y007148D01*
X017830Y007144D01*
X017846Y007137D01*
X017860Y007127D01*
X017873Y007114D01*
X017883Y007100D01*
X017890Y007084D01*
X017894Y007067D01*
X017896Y007050D01*
X017896Y006250D01*
X017894Y006233D01*
X017890Y006216D01*
X017883Y006200D01*
X017873Y006186D01*
X017860Y006173D01*
X017846Y006163D01*
X017830Y006156D01*
X017813Y006152D01*
X017796Y006150D01*
X017096Y006650D02*
X017046Y006650D01*
X016846Y006650D02*
X016796Y006650D01*
X016096Y007650D02*
X017796Y007650D01*
X017813Y007652D01*
X017830Y007656D01*
X017846Y007663D01*
X017860Y007673D01*
X017873Y007686D01*
X017883Y007700D01*
X017890Y007716D01*
X017894Y007733D01*
X017896Y007750D01*
X017896Y008550D01*
X017894Y008567D01*
X017890Y008584D01*
X017883Y008600D01*
X017873Y008614D01*
X017860Y008627D01*
X017846Y008637D01*
X017830Y008644D01*
X017813Y008648D01*
X017796Y008650D01*
X016096Y008650D01*
X016079Y008648D01*
X016062Y008644D01*
X016046Y008637D01*
X016032Y008627D01*
X016019Y008614D01*
X016009Y008600D01*
X016002Y008584D01*
X015998Y008567D01*
X015996Y008550D01*
X015996Y007750D01*
X015998Y007733D01*
X016002Y007716D01*
X016009Y007700D01*
X016019Y007686D01*
X016032Y007673D01*
X016046Y007663D01*
X016062Y007656D01*
X016079Y007652D01*
X016096Y007650D01*
X016796Y008150D02*
X016846Y008150D01*
X017046Y008150D02*
X017096Y008150D01*
X017796Y009150D02*
X016096Y009150D01*
X016079Y009152D01*
X016062Y009156D01*
X016046Y009163D01*
X016032Y009173D01*
X016019Y009186D01*
X016009Y009200D01*
X016002Y009216D01*
X015998Y009233D01*
X015996Y009250D01*
X015996Y010050D01*
X015998Y010067D01*
X016002Y010084D01*
X016009Y010100D01*
X016019Y010114D01*
X016032Y010127D01*
X016046Y010137D01*
X016062Y010144D01*
X016079Y010148D01*
X016096Y010150D01*
X017796Y010150D01*
X017813Y010148D01*
X017830Y010144D01*
X017846Y010137D01*
X017860Y010127D01*
X017873Y010114D01*
X017883Y010100D01*
X017890Y010084D01*
X017894Y010067D01*
X017896Y010050D01*
X017896Y009250D01*
X017894Y009233D01*
X017890Y009216D01*
X017883Y009200D01*
X017873Y009186D01*
X017860Y009173D01*
X017846Y009163D01*
X017830Y009156D01*
X017813Y009152D01*
X017796Y009150D01*
X017096Y009650D02*
X017046Y009650D01*
X016846Y009650D02*
X016796Y009650D01*
X016096Y010650D02*
X017796Y010650D01*
X017813Y010652D01*
X017830Y010656D01*
X017846Y010663D01*
X017860Y010673D01*
X017873Y010686D01*
X017883Y010700D01*
X017890Y010716D01*
X017894Y010733D01*
X017896Y010750D01*
X017896Y011550D01*
X017894Y011567D01*
X017890Y011584D01*
X017883Y011600D01*
X017873Y011614D01*
X017860Y011627D01*
X017846Y011637D01*
X017830Y011644D01*
X017813Y011648D01*
X017796Y011650D01*
X016096Y011650D01*
X016079Y011648D01*
X016062Y011644D01*
X016046Y011637D01*
X016032Y011627D01*
X016019Y011614D01*
X016009Y011600D01*
X016002Y011584D01*
X015998Y011567D01*
X015996Y011550D01*
X015996Y010750D01*
X015998Y010733D01*
X016002Y010716D01*
X016009Y010700D01*
X016019Y010686D01*
X016032Y010673D01*
X016046Y010663D01*
X016062Y010656D01*
X016079Y010652D01*
X016096Y010650D01*
X016796Y011150D02*
X016846Y011150D01*
X017046Y011150D02*
X017096Y011150D01*
X016946Y012200D02*
X016796Y012200D01*
X016779Y012202D01*
X016762Y012206D01*
X016746Y012213D01*
X016732Y012223D01*
X016719Y012236D01*
X016709Y012250D01*
X016702Y012266D01*
X016698Y012283D01*
X016696Y012300D01*
X016696Y013000D01*
X016698Y013017D01*
X016702Y013034D01*
X016709Y013050D01*
X016719Y013064D01*
X016732Y013077D01*
X016746Y013087D01*
X016762Y013094D01*
X016779Y013098D01*
X016796Y013100D01*
X016946Y013100D01*
X016996Y013050D01*
X018896Y013050D01*
X018946Y013100D01*
X019096Y013100D01*
X019113Y013098D01*
X019130Y013094D01*
X019146Y013087D01*
X019160Y013077D01*
X019173Y013064D01*
X019183Y013050D01*
X019190Y013034D01*
X019194Y013017D01*
X019196Y013000D01*
X019196Y012300D01*
X019194Y012283D01*
X019190Y012266D01*
X019183Y012250D01*
X019173Y012236D01*
X019160Y012223D01*
X019146Y012213D01*
X019130Y012206D01*
X019113Y012202D01*
X019096Y012200D01*
X018946Y012200D01*
X018896Y012250D01*
X016996Y012250D01*
X016946Y012200D01*
X016946Y013700D02*
X016796Y013700D01*
X016779Y013702D01*
X016762Y013706D01*
X016746Y013713D01*
X016732Y013723D01*
X016719Y013736D01*
X016709Y013750D01*
X016702Y013766D01*
X016698Y013783D01*
X016696Y013800D01*
X016696Y014500D01*
X016698Y014517D01*
X016702Y014534D01*
X016709Y014550D01*
X016719Y014564D01*
X016732Y014577D01*
X016746Y014587D01*
X016762Y014594D01*
X016779Y014598D01*
X016796Y014600D01*
X016946Y014600D01*
X016996Y014550D01*
X018896Y014550D01*
X018946Y014600D01*
X019096Y014600D01*
X019113Y014598D01*
X019130Y014594D01*
X019146Y014587D01*
X019160Y014577D01*
X019173Y014564D01*
X019183Y014550D01*
X019190Y014534D01*
X019194Y014517D01*
X019196Y014500D01*
X019196Y013800D01*
X019194Y013783D01*
X019190Y013766D01*
X019183Y013750D01*
X019173Y013736D01*
X019160Y013723D01*
X019146Y013713D01*
X019130Y013706D01*
X019113Y013702D01*
X019096Y013700D01*
X018946Y013700D01*
X018896Y013750D01*
X016996Y013750D01*
X016946Y013700D01*
X016096Y015200D02*
X015946Y015200D01*
X015896Y015250D01*
X013996Y015250D01*
X013946Y015200D01*
X013796Y015200D01*
X013779Y015202D01*
X013762Y015206D01*
X013746Y015213D01*
X013732Y015223D01*
X013719Y015236D01*
X013709Y015250D01*
X013702Y015266D01*
X013698Y015283D01*
X013696Y015300D01*
X013696Y016000D01*
X013698Y016017D01*
X013702Y016034D01*
X013709Y016050D01*
X013719Y016064D01*
X013732Y016077D01*
X013746Y016087D01*
X013762Y016094D01*
X013779Y016098D01*
X013796Y016100D01*
X013946Y016100D01*
X013996Y016050D01*
X015896Y016050D01*
X015946Y016100D01*
X016096Y016100D01*
X016113Y016098D01*
X016130Y016094D01*
X016146Y016087D01*
X016160Y016077D01*
X016173Y016064D01*
X016183Y016050D01*
X016190Y016034D01*
X016194Y016017D01*
X016196Y016000D01*
X016196Y015300D01*
X016194Y015283D01*
X016190Y015266D01*
X016183Y015250D01*
X016173Y015236D01*
X016160Y015223D01*
X016146Y015213D01*
X016130Y015206D01*
X016113Y015202D01*
X016096Y015200D01*
X015196Y017150D02*
X014696Y017150D01*
X014446Y017400D01*
X014196Y017150D01*
X013696Y017150D01*
X013446Y017400D01*
X013196Y017150D01*
X012696Y017150D01*
X012446Y017400D01*
X012446Y017900D01*
X012696Y018150D01*
X013196Y018150D01*
X013446Y017900D01*
X013696Y018150D01*
X014196Y018150D01*
X014446Y017900D01*
X014696Y018150D01*
X015196Y018150D01*
X015446Y017900D01*
X015446Y017400D01*
X015196Y017150D01*
X014446Y017400D02*
X014446Y017900D01*
X013446Y017900D02*
X013446Y017400D01*
X010946Y017400D02*
X010696Y017150D01*
X010196Y017150D01*
X009946Y017400D01*
X009696Y017150D01*
X009196Y017150D01*
X008946Y017400D01*
X008946Y017900D01*
X009196Y018150D01*
X009696Y018150D01*
X009946Y017900D01*
X010196Y018150D01*
X010696Y018150D01*
X010946Y017900D01*
X010946Y017400D01*
X009946Y017400D02*
X009946Y017900D01*
X007946Y017900D02*
X007946Y017400D01*
X007696Y017150D01*
X007196Y017150D01*
X006946Y017400D01*
X006696Y017150D01*
X006196Y017150D01*
X005946Y017400D01*
X005696Y017150D01*
X005196Y017150D01*
X004946Y017400D01*
X004946Y017900D01*
X005196Y018150D01*
X005696Y018150D01*
X005946Y017900D01*
X006196Y018150D01*
X006696Y018150D01*
X006946Y017900D01*
X007196Y018150D01*
X007696Y018150D01*
X007946Y017900D01*
X006946Y017900D02*
X006946Y017400D01*
X005946Y017400D02*
X005946Y017900D01*
X001796Y018650D02*
X001798Y018717D01*
X001804Y018785D01*
X001814Y018852D01*
X001828Y018918D01*
X001845Y018983D01*
X001867Y019047D01*
X001892Y019110D01*
X001921Y019171D01*
X001953Y019230D01*
X001989Y019287D01*
X002028Y019342D01*
X002070Y019395D01*
X002115Y019445D01*
X002163Y019492D01*
X002214Y019537D01*
X002267Y019578D01*
X002323Y019617D01*
X002381Y019652D01*
X002441Y019683D01*
X002502Y019711D01*
X002565Y019735D01*
X002629Y019756D01*
X002695Y019772D01*
X002761Y019785D01*
X002828Y019794D01*
X002895Y019799D01*
X002963Y019800D01*
X003030Y019797D01*
X003097Y019790D01*
X003164Y019779D01*
X003230Y019764D01*
X003295Y019746D01*
X003359Y019723D01*
X003421Y019697D01*
X003482Y019668D01*
X003540Y019634D01*
X003597Y019598D01*
X003652Y019558D01*
X003704Y019515D01*
X003753Y019469D01*
X003800Y019420D01*
X003844Y019369D01*
X003884Y019315D01*
X003922Y019259D01*
X003956Y019200D01*
X003986Y019140D01*
X004013Y019078D01*
X004037Y019015D01*
X004056Y018950D01*
X004072Y018885D01*
X004084Y018818D01*
X004092Y018751D01*
X004096Y018684D01*
X004096Y018616D01*
X004092Y018549D01*
X004084Y018482D01*
X004072Y018415D01*
X004056Y018350D01*
X004037Y018285D01*
X004013Y018222D01*
X003986Y018160D01*
X003956Y018100D01*
X003922Y018041D01*
X003884Y017985D01*
X003844Y017931D01*
X003800Y017880D01*
X003753Y017831D01*
X003704Y017785D01*
X003652Y017742D01*
X003597Y017702D01*
X003540Y017666D01*
X003482Y017632D01*
X003421Y017603D01*
X003359Y017577D01*
X003295Y017554D01*
X003230Y017536D01*
X003164Y017521D01*
X003097Y017510D01*
X003030Y017503D01*
X002963Y017500D01*
X002895Y017501D01*
X002828Y017506D01*
X002761Y017515D01*
X002695Y017528D01*
X002629Y017544D01*
X002565Y017565D01*
X002502Y017589D01*
X002441Y017617D01*
X002381Y017648D01*
X002323Y017683D01*
X002267Y017722D01*
X002214Y017763D01*
X002163Y017808D01*
X002115Y017855D01*
X002070Y017905D01*
X002028Y017958D01*
X001989Y018013D01*
X001953Y018070D01*
X001921Y018129D01*
X001892Y018190D01*
X001867Y018253D01*
X001845Y018317D01*
X001828Y018382D01*
X001814Y018448D01*
X001804Y018515D01*
X001798Y018583D01*
X001796Y018650D01*
X008096Y015150D02*
X008098Y015223D01*
X008104Y015296D01*
X008114Y015368D01*
X008128Y015440D01*
X008145Y015511D01*
X008167Y015581D01*
X008192Y015650D01*
X008221Y015717D01*
X008253Y015782D01*
X008289Y015846D01*
X008329Y015908D01*
X008371Y015967D01*
X008417Y016024D01*
X008466Y016078D01*
X008518Y016130D01*
X008572Y016179D01*
X008629Y016225D01*
X008688Y016267D01*
X008750Y016307D01*
X008814Y016343D01*
X008879Y016375D01*
X008946Y016404D01*
X009015Y016429D01*
X009085Y016451D01*
X009156Y016468D01*
X009228Y016482D01*
X009300Y016492D01*
X009373Y016498D01*
X009446Y016500D01*
X009519Y016498D01*
X009592Y016492D01*
X009664Y016482D01*
X009736Y016468D01*
X009807Y016451D01*
X009877Y016429D01*
X009946Y016404D01*
X010013Y016375D01*
X010078Y016343D01*
X010142Y016307D01*
X010204Y016267D01*
X010263Y016225D01*
X010320Y016179D01*
X010374Y016130D01*
X010426Y016078D01*
X010475Y016024D01*
X010521Y015967D01*
X010563Y015908D01*
X010603Y015846D01*
X010639Y015782D01*
X010671Y015717D01*
X010700Y015650D01*
X010725Y015581D01*
X010747Y015511D01*
X010764Y015440D01*
X010778Y015368D01*
X010788Y015296D01*
X010794Y015223D01*
X010796Y015150D01*
X010794Y015077D01*
X010788Y015004D01*
X010778Y014932D01*
X010764Y014860D01*
X010747Y014789D01*
X010725Y014719D01*
X010700Y014650D01*
X010671Y014583D01*
X010639Y014518D01*
X010603Y014454D01*
X010563Y014392D01*
X010521Y014333D01*
X010475Y014276D01*
X010426Y014222D01*
X010374Y014170D01*
X010320Y014121D01*
X010263Y014075D01*
X010204Y014033D01*
X010142Y013993D01*
X010078Y013957D01*
X010013Y013925D01*
X009946Y013896D01*
X009877Y013871D01*
X009807Y013849D01*
X009736Y013832D01*
X009664Y013818D01*
X009592Y013808D01*
X009519Y013802D01*
X009446Y013800D01*
X009373Y013802D01*
X009300Y013808D01*
X009228Y013818D01*
X009156Y013832D01*
X009085Y013849D01*
X009015Y013871D01*
X008946Y013896D01*
X008879Y013925D01*
X008814Y013957D01*
X008750Y013993D01*
X008688Y014033D01*
X008629Y014075D01*
X008572Y014121D01*
X008518Y014170D01*
X008466Y014222D01*
X008417Y014276D01*
X008371Y014333D01*
X008329Y014392D01*
X008289Y014454D01*
X008253Y014518D01*
X008221Y014583D01*
X008192Y014650D01*
X008167Y014719D01*
X008145Y014789D01*
X008128Y014860D01*
X008114Y014932D01*
X008104Y015004D01*
X008098Y015077D01*
X008096Y015150D01*
X010346Y015150D02*
X010646Y015150D01*
X010496Y015300D02*
X010496Y015000D01*
X009946Y013150D02*
X009948Y013213D01*
X009954Y013275D01*
X009964Y013337D01*
X009977Y013399D01*
X009995Y013459D01*
X010016Y013518D01*
X010041Y013576D01*
X010070Y013632D01*
X010102Y013686D01*
X010137Y013738D01*
X010175Y013787D01*
X010217Y013835D01*
X010261Y013879D01*
X010309Y013921D01*
X010358Y013959D01*
X010410Y013994D01*
X010464Y014026D01*
X010520Y014055D01*
X010578Y014080D01*
X010637Y014101D01*
X010697Y014119D01*
X010759Y014132D01*
X010821Y014142D01*
X010883Y014148D01*
X010946Y014150D01*
X011009Y014148D01*
X011071Y014142D01*
X011133Y014132D01*
X011195Y014119D01*
X011255Y014101D01*
X011314Y014080D01*
X011372Y014055D01*
X011428Y014026D01*
X011482Y013994D01*
X011534Y013959D01*
X011583Y013921D01*
X011631Y013879D01*
X011675Y013835D01*
X011717Y013787D01*
X011755Y013738D01*
X011790Y013686D01*
X011822Y013632D01*
X011851Y013576D01*
X011876Y013518D01*
X011897Y013459D01*
X011915Y013399D01*
X011928Y013337D01*
X011938Y013275D01*
X011944Y013213D01*
X011946Y013150D01*
X011944Y013087D01*
X011938Y013025D01*
X011928Y012963D01*
X011915Y012901D01*
X011897Y012841D01*
X011876Y012782D01*
X011851Y012724D01*
X011822Y012668D01*
X011790Y012614D01*
X011755Y012562D01*
X011717Y012513D01*
X011675Y012465D01*
X011631Y012421D01*
X011583Y012379D01*
X011534Y012341D01*
X011482Y012306D01*
X011428Y012274D01*
X011372Y012245D01*
X011314Y012220D01*
X011255Y012199D01*
X011195Y012181D01*
X011133Y012168D01*
X011071Y012158D01*
X011009Y012152D01*
X010946Y012150D01*
X010883Y012152D01*
X010821Y012158D01*
X010759Y012168D01*
X010697Y012181D01*
X010637Y012199D01*
X010578Y012220D01*
X010520Y012245D01*
X010464Y012274D01*
X010410Y012306D01*
X010358Y012341D01*
X010309Y012379D01*
X010261Y012421D01*
X010217Y012465D01*
X010175Y012513D01*
X010137Y012562D01*
X010102Y012614D01*
X010070Y012668D01*
X010041Y012724D01*
X010016Y012782D01*
X009995Y012841D01*
X009977Y012901D01*
X009964Y012963D01*
X009954Y013025D01*
X009948Y013087D01*
X009946Y013150D01*
X010246Y012850D02*
X010246Y012650D01*
X010346Y012750D02*
X010146Y012750D01*
X013146Y012750D02*
X013346Y012750D01*
X013246Y012650D02*
X013246Y012850D01*
X012946Y013150D02*
X012948Y013213D01*
X012954Y013275D01*
X012964Y013337D01*
X012977Y013399D01*
X012995Y013459D01*
X013016Y013518D01*
X013041Y013576D01*
X013070Y013632D01*
X013102Y013686D01*
X013137Y013738D01*
X013175Y013787D01*
X013217Y013835D01*
X013261Y013879D01*
X013309Y013921D01*
X013358Y013959D01*
X013410Y013994D01*
X013464Y014026D01*
X013520Y014055D01*
X013578Y014080D01*
X013637Y014101D01*
X013697Y014119D01*
X013759Y014132D01*
X013821Y014142D01*
X013883Y014148D01*
X013946Y014150D01*
X014009Y014148D01*
X014071Y014142D01*
X014133Y014132D01*
X014195Y014119D01*
X014255Y014101D01*
X014314Y014080D01*
X014372Y014055D01*
X014428Y014026D01*
X014482Y013994D01*
X014534Y013959D01*
X014583Y013921D01*
X014631Y013879D01*
X014675Y013835D01*
X014717Y013787D01*
X014755Y013738D01*
X014790Y013686D01*
X014822Y013632D01*
X014851Y013576D01*
X014876Y013518D01*
X014897Y013459D01*
X014915Y013399D01*
X014928Y013337D01*
X014938Y013275D01*
X014944Y013213D01*
X014946Y013150D01*
X014944Y013087D01*
X014938Y013025D01*
X014928Y012963D01*
X014915Y012901D01*
X014897Y012841D01*
X014876Y012782D01*
X014851Y012724D01*
X014822Y012668D01*
X014790Y012614D01*
X014755Y012562D01*
X014717Y012513D01*
X014675Y012465D01*
X014631Y012421D01*
X014583Y012379D01*
X014534Y012341D01*
X014482Y012306D01*
X014428Y012274D01*
X014372Y012245D01*
X014314Y012220D01*
X014255Y012199D01*
X014195Y012181D01*
X014133Y012168D01*
X014071Y012158D01*
X014009Y012152D01*
X013946Y012150D01*
X013883Y012152D01*
X013821Y012158D01*
X013759Y012168D01*
X013697Y012181D01*
X013637Y012199D01*
X013578Y012220D01*
X013520Y012245D01*
X013464Y012274D01*
X013410Y012306D01*
X013358Y012341D01*
X013309Y012379D01*
X013261Y012421D01*
X013217Y012465D01*
X013175Y012513D01*
X013137Y012562D01*
X013102Y012614D01*
X013070Y012668D01*
X013041Y012724D01*
X013016Y012782D01*
X012995Y012841D01*
X012977Y012901D01*
X012964Y012963D01*
X012954Y013025D01*
X012948Y013087D01*
X012946Y013150D01*
X018496Y009800D02*
X018496Y009650D01*
X018546Y009600D01*
X018546Y007700D01*
X018496Y007650D01*
X018496Y007500D01*
X018498Y007483D01*
X018502Y007466D01*
X018509Y007450D01*
X018519Y007436D01*
X018532Y007423D01*
X018546Y007413D01*
X018562Y007406D01*
X018579Y007402D01*
X018596Y007400D01*
X019296Y007400D01*
X019313Y007402D01*
X019330Y007406D01*
X019346Y007413D01*
X019360Y007423D01*
X019373Y007436D01*
X019383Y007450D01*
X019390Y007466D01*
X019394Y007483D01*
X019396Y007500D01*
X019396Y007650D01*
X019346Y007700D01*
X019346Y009600D01*
X019396Y009650D01*
X019396Y009800D01*
X019394Y009817D01*
X019390Y009834D01*
X019383Y009850D01*
X019373Y009864D01*
X019360Y009877D01*
X019346Y009887D01*
X019330Y009894D01*
X019313Y009898D01*
X019296Y009900D01*
X018596Y009900D01*
X018579Y009898D01*
X018562Y009894D01*
X018546Y009887D01*
X018532Y009877D01*
X018519Y009864D01*
X018509Y009850D01*
X018502Y009834D01*
X018498Y009817D01*
X018496Y009800D01*
X018796Y001650D02*
X018798Y001717D01*
X018804Y001785D01*
X018814Y001852D01*
X018828Y001918D01*
X018845Y001983D01*
X018867Y002047D01*
X018892Y002110D01*
X018921Y002171D01*
X018953Y002230D01*
X018989Y002287D01*
X019028Y002342D01*
X019070Y002395D01*
X019115Y002445D01*
X019163Y002492D01*
X019214Y002537D01*
X019267Y002578D01*
X019323Y002617D01*
X019381Y002652D01*
X019441Y002683D01*
X019502Y002711D01*
X019565Y002735D01*
X019629Y002756D01*
X019695Y002772D01*
X019761Y002785D01*
X019828Y002794D01*
X019895Y002799D01*
X019963Y002800D01*
X020030Y002797D01*
X020097Y002790D01*
X020164Y002779D01*
X020230Y002764D01*
X020295Y002746D01*
X020359Y002723D01*
X020421Y002697D01*
X020482Y002668D01*
X020540Y002634D01*
X020597Y002598D01*
X020652Y002558D01*
X020704Y002515D01*
X020753Y002469D01*
X020800Y002420D01*
X020844Y002369D01*
X020884Y002315D01*
X020922Y002259D01*
X020956Y002200D01*
X020986Y002140D01*
X021013Y002078D01*
X021037Y002015D01*
X021056Y001950D01*
X021072Y001885D01*
X021084Y001818D01*
X021092Y001751D01*
X021096Y001684D01*
X021096Y001616D01*
X021092Y001549D01*
X021084Y001482D01*
X021072Y001415D01*
X021056Y001350D01*
X021037Y001285D01*
X021013Y001222D01*
X020986Y001160D01*
X020956Y001100D01*
X020922Y001041D01*
X020884Y000985D01*
X020844Y000931D01*
X020800Y000880D01*
X020753Y000831D01*
X020704Y000785D01*
X020652Y000742D01*
X020597Y000702D01*
X020540Y000666D01*
X020482Y000632D01*
X020421Y000603D01*
X020359Y000577D01*
X020295Y000554D01*
X020230Y000536D01*
X020164Y000521D01*
X020097Y000510D01*
X020030Y000503D01*
X019963Y000500D01*
X019895Y000501D01*
X019828Y000506D01*
X019761Y000515D01*
X019695Y000528D01*
X019629Y000544D01*
X019565Y000565D01*
X019502Y000589D01*
X019441Y000617D01*
X019381Y000648D01*
X019323Y000683D01*
X019267Y000722D01*
X019214Y000763D01*
X019163Y000808D01*
X019115Y000855D01*
X019070Y000905D01*
X019028Y000958D01*
X018989Y001013D01*
X018953Y001070D01*
X018921Y001129D01*
X018892Y001190D01*
X018867Y001253D01*
X018845Y001317D01*
X018828Y001382D01*
X018814Y001448D01*
X018804Y001515D01*
X018798Y001583D01*
X018796Y001650D01*
X001796Y001650D02*
X001798Y001717D01*
X001804Y001785D01*
X001814Y001852D01*
X001828Y001918D01*
X001845Y001983D01*
X001867Y002047D01*
X001892Y002110D01*
X001921Y002171D01*
X001953Y002230D01*
X001989Y002287D01*
X002028Y002342D01*
X002070Y002395D01*
X002115Y002445D01*
X002163Y002492D01*
X002214Y002537D01*
X002267Y002578D01*
X002323Y002617D01*
X002381Y002652D01*
X002441Y002683D01*
X002502Y002711D01*
X002565Y002735D01*
X002629Y002756D01*
X002695Y002772D01*
X002761Y002785D01*
X002828Y002794D01*
X002895Y002799D01*
X002963Y002800D01*
X003030Y002797D01*
X003097Y002790D01*
X003164Y002779D01*
X003230Y002764D01*
X003295Y002746D01*
X003359Y002723D01*
X003421Y002697D01*
X003482Y002668D01*
X003540Y002634D01*
X003597Y002598D01*
X003652Y002558D01*
X003704Y002515D01*
X003753Y002469D01*
X003800Y002420D01*
X003844Y002369D01*
X003884Y002315D01*
X003922Y002259D01*
X003956Y002200D01*
X003986Y002140D01*
X004013Y002078D01*
X004037Y002015D01*
X004056Y001950D01*
X004072Y001885D01*
X004084Y001818D01*
X004092Y001751D01*
X004096Y001684D01*
X004096Y001616D01*
X004092Y001549D01*
X004084Y001482D01*
X004072Y001415D01*
X004056Y001350D01*
X004037Y001285D01*
X004013Y001222D01*
X003986Y001160D01*
X003956Y001100D01*
X003922Y001041D01*
X003884Y000985D01*
X003844Y000931D01*
X003800Y000880D01*
X003753Y000831D01*
X003704Y000785D01*
X003652Y000742D01*
X003597Y000702D01*
X003540Y000666D01*
X003482Y000632D01*
X003421Y000603D01*
X003359Y000577D01*
X003295Y000554D01*
X003230Y000536D01*
X003164Y000521D01*
X003097Y000510D01*
X003030Y000503D01*
X002963Y000500D01*
X002895Y000501D01*
X002828Y000506D01*
X002761Y000515D01*
X002695Y000528D01*
X002629Y000544D01*
X002565Y000565D01*
X002502Y000589D01*
X002441Y000617D01*
X002381Y000648D01*
X002323Y000683D01*
X002267Y000722D01*
X002214Y000763D01*
X002163Y000808D01*
X002115Y000855D01*
X002070Y000905D01*
X002028Y000958D01*
X001989Y001013D01*
X001953Y001070D01*
X001921Y001129D01*
X001892Y001190D01*
X001867Y001253D01*
X001845Y001317D01*
X001828Y001382D01*
X001814Y001448D01*
X001804Y001515D01*
X001798Y001583D01*
X001796Y001650D01*
X018796Y018650D02*
X018798Y018717D01*
X018804Y018785D01*
X018814Y018852D01*
X018828Y018918D01*
X018845Y018983D01*
X018867Y019047D01*
X018892Y019110D01*
X018921Y019171D01*
X018953Y019230D01*
X018989Y019287D01*
X019028Y019342D01*
X019070Y019395D01*
X019115Y019445D01*
X019163Y019492D01*
X019214Y019537D01*
X019267Y019578D01*
X019323Y019617D01*
X019381Y019652D01*
X019441Y019683D01*
X019502Y019711D01*
X019565Y019735D01*
X019629Y019756D01*
X019695Y019772D01*
X019761Y019785D01*
X019828Y019794D01*
X019895Y019799D01*
X019963Y019800D01*
X020030Y019797D01*
X020097Y019790D01*
X020164Y019779D01*
X020230Y019764D01*
X020295Y019746D01*
X020359Y019723D01*
X020421Y019697D01*
X020482Y019668D01*
X020540Y019634D01*
X020597Y019598D01*
X020652Y019558D01*
X020704Y019515D01*
X020753Y019469D01*
X020800Y019420D01*
X020844Y019369D01*
X020884Y019315D01*
X020922Y019259D01*
X020956Y019200D01*
X020986Y019140D01*
X021013Y019078D01*
X021037Y019015D01*
X021056Y018950D01*
X021072Y018885D01*
X021084Y018818D01*
X021092Y018751D01*
X021096Y018684D01*
X021096Y018616D01*
X021092Y018549D01*
X021084Y018482D01*
X021072Y018415D01*
X021056Y018350D01*
X021037Y018285D01*
X021013Y018222D01*
X020986Y018160D01*
X020956Y018100D01*
X020922Y018041D01*
X020884Y017985D01*
X020844Y017931D01*
X020800Y017880D01*
X020753Y017831D01*
X020704Y017785D01*
X020652Y017742D01*
X020597Y017702D01*
X020540Y017666D01*
X020482Y017632D01*
X020421Y017603D01*
X020359Y017577D01*
X020295Y017554D01*
X020230Y017536D01*
X020164Y017521D01*
X020097Y017510D01*
X020030Y017503D01*
X019963Y017500D01*
X019895Y017501D01*
X019828Y017506D01*
X019761Y017515D01*
X019695Y017528D01*
X019629Y017544D01*
X019565Y017565D01*
X019502Y017589D01*
X019441Y017617D01*
X019381Y017648D01*
X019323Y017683D01*
X019267Y017722D01*
X019214Y017763D01*
X019163Y017808D01*
X019115Y017855D01*
X019070Y017905D01*
X019028Y017958D01*
X018989Y018013D01*
X018953Y018070D01*
X018921Y018129D01*
X018892Y018190D01*
X018867Y018253D01*
X018845Y018317D01*
X018828Y018382D01*
X018814Y018448D01*
X018804Y018515D01*
X018798Y018583D01*
X018796Y018650D01*
D16*
X016366Y015650D03*
X016526Y014150D03*
X016526Y012650D03*
X019366Y012650D03*
X019366Y014150D03*
X013526Y015650D03*
X014026Y002650D03*
X016866Y002650D03*
X008866Y002650D03*
X006026Y002650D03*
D17*
X003946Y004730D03*
X003946Y007570D03*
X003946Y010230D03*
X003946Y013070D03*
X018946Y010070D03*
X018946Y007230D03*
D18*
X019946Y002800D02*
X019946Y002700D01*
X019946Y000600D02*
X019946Y000500D01*
X002946Y000600D02*
X002946Y000500D01*
X002946Y002700D02*
X002946Y002800D01*
X002946Y017500D02*
X002946Y017600D01*
X002946Y019700D02*
X002946Y019800D01*
X019946Y019800D02*
X019946Y019700D01*
X019946Y017600D02*
X019946Y017500D01*
M02*
