G75*
%MOIN*%
%OFA0B0*%
%FSLAX25Y25*%
%IPPOS*%
%LPD*%
%AMOC8*
5,1,8,0,0,1.08239X$1,22.5*
%
%ADD10R,0.02362X0.08661*%
%ADD11R,0.09449X0.06299*%
%ADD12R,0.06299X0.09449*%
%ADD13R,0.05118X0.06299*%
%ADD14R,0.05118X0.05906*%
%ADD15C,0.06000*%
%ADD16C,0.21000*%
%ADD17C,0.02400*%
%ADD18C,0.06600*%
D10*
X0081962Y0065546D03*
X0086962Y0065546D03*
X0091962Y0065546D03*
X0096962Y0065546D03*
X0101962Y0065546D03*
X0106962Y0065546D03*
X0111962Y0065546D03*
X0116962Y0065546D03*
X0121962Y0065546D03*
X0126962Y0065546D03*
X0131962Y0065546D03*
X0136962Y0065546D03*
X0141962Y0065546D03*
X0146962Y0065546D03*
X0146962Y0108854D03*
X0141962Y0108854D03*
X0136962Y0108854D03*
X0131962Y0108854D03*
X0126962Y0108854D03*
X0121962Y0108854D03*
X0116962Y0108854D03*
X0111962Y0108854D03*
X0106962Y0108854D03*
X0101962Y0108854D03*
X0096962Y0108854D03*
X0091962Y0108854D03*
X0086962Y0108854D03*
X0081962Y0108854D03*
D11*
X0129462Y0133794D03*
X0129462Y0145606D03*
X0149462Y0145606D03*
X0149462Y0133794D03*
X0144462Y0043106D03*
X0144462Y0031294D03*
X0084462Y0031294D03*
X0084462Y0043106D03*
D12*
X0108556Y0044700D03*
X0120367Y0044700D03*
X0105367Y0157200D03*
X0093556Y0157200D03*
D13*
X0068399Y0107200D03*
X0060525Y0107200D03*
X0060525Y0097200D03*
X0068399Y0097200D03*
X0068399Y0087200D03*
X0060525Y0087200D03*
X0060525Y0077200D03*
X0068399Y0077200D03*
X0068399Y0067200D03*
X0060525Y0067200D03*
X0160525Y0067200D03*
X0168399Y0067200D03*
X0168399Y0077200D03*
X0160525Y0077200D03*
X0160525Y0087200D03*
X0168399Y0087200D03*
X0168399Y0097200D03*
X0160525Y0097200D03*
X0160525Y0107200D03*
X0168399Y0107200D03*
D14*
X0180722Y0107200D03*
X0188202Y0107200D03*
X0188202Y0077200D03*
X0180722Y0077200D03*
X0168202Y0027200D03*
X0160722Y0027200D03*
X0068202Y0027200D03*
X0060722Y0027200D03*
X0048202Y0077200D03*
X0040722Y0077200D03*
X0040722Y0107200D03*
X0048202Y0107200D03*
X0128222Y0162200D03*
X0135702Y0162200D03*
X0143222Y0162200D03*
X0150702Y0162200D03*
D15*
X0149462Y0174200D02*
X0149462Y0180200D01*
X0139462Y0180200D02*
X0139462Y0174200D01*
X0129462Y0174200D02*
X0129462Y0180200D01*
X0104462Y0180200D02*
X0104462Y0174200D01*
X0094462Y0174200D02*
X0094462Y0180200D01*
X0074462Y0180200D02*
X0074462Y0174200D01*
X0064462Y0174200D02*
X0064462Y0180200D01*
X0054462Y0180200D02*
X0054462Y0174200D01*
X0104462Y0025200D02*
X0104462Y0019200D01*
X0114462Y0019200D02*
X0114462Y0025200D01*
X0124462Y0025200D02*
X0124462Y0019200D01*
D16*
X0029462Y0017200D03*
X0199462Y0017200D03*
X0199462Y0187200D03*
X0029462Y0187200D03*
D17*
X0040625Y0177291D02*
X0049262Y0177291D01*
X0049262Y0177200D02*
X0054462Y0177200D01*
X0054462Y0177200D01*
X0054462Y0185400D01*
X0054871Y0185400D01*
X0055679Y0185272D01*
X0056458Y0185019D01*
X0057187Y0184647D01*
X0057849Y0184166D01*
X0058023Y0183993D01*
X0058188Y0184392D01*
X0060270Y0186473D01*
X0062990Y0187600D01*
X0065934Y0187600D01*
X0068654Y0186473D01*
X0069462Y0185665D01*
X0070270Y0186473D01*
X0072990Y0187600D01*
X0075934Y0187600D01*
X0078654Y0186473D01*
X0080735Y0184392D01*
X0081862Y0181672D01*
X0081862Y0172728D01*
X0080735Y0170008D01*
X0080062Y0169335D01*
X0080062Y0149520D01*
X0105712Y0123870D01*
X0120384Y0138542D01*
X0120689Y0138668D01*
X0121007Y0139436D01*
X0121271Y0139700D01*
X0121007Y0139963D01*
X0120337Y0141581D01*
X0120337Y0149630D01*
X0121007Y0151248D01*
X0122245Y0152485D01*
X0123862Y0153155D01*
X0123862Y0155231D01*
X0123170Y0155517D01*
X0121932Y0156755D01*
X0121263Y0158372D01*
X0121263Y0166028D01*
X0121932Y0167645D01*
X0122622Y0168334D01*
X0122622Y0171376D01*
X0122062Y0172728D01*
X0122062Y0181672D01*
X0123188Y0184392D01*
X0125270Y0186473D01*
X0127990Y0187600D01*
X0130934Y0187600D01*
X0133654Y0186473D01*
X0135735Y0184392D01*
X0135901Y0183993D01*
X0136074Y0184166D01*
X0136736Y0184647D01*
X0137466Y0185019D01*
X0138244Y0185272D01*
X0139053Y0185400D01*
X0139462Y0185400D01*
X0139462Y0177200D01*
X0139462Y0177200D01*
X0139462Y0169000D01*
X0139871Y0169000D01*
X0140679Y0169128D01*
X0141458Y0169381D01*
X0142187Y0169753D01*
X0142849Y0170234D01*
X0143023Y0170407D01*
X0143188Y0170008D01*
X0144982Y0168215D01*
X0144413Y0167645D01*
X0144292Y0167353D01*
X0143301Y0167353D01*
X0143301Y0162280D01*
X0143142Y0162280D01*
X0143142Y0167353D01*
X0140373Y0167353D01*
X0139813Y0167203D01*
X0139462Y0167000D01*
X0139110Y0167203D01*
X0138551Y0167353D01*
X0135781Y0167353D01*
X0135781Y0162280D01*
X0135622Y0162280D01*
X0135622Y0167353D01*
X0134632Y0167353D01*
X0134511Y0167645D01*
X0133941Y0168215D01*
X0135735Y0170008D01*
X0135901Y0170407D01*
X0136074Y0170234D01*
X0136736Y0169753D01*
X0137466Y0169381D01*
X0138244Y0169128D01*
X0139053Y0169000D01*
X0139462Y0169000D01*
X0139462Y0177200D01*
X0139462Y0177200D01*
X0139462Y0162200D01*
X0143222Y0162200D01*
X0143301Y0162120D02*
X0143301Y0157047D01*
X0143862Y0157047D01*
X0143862Y0153155D01*
X0142245Y0152485D01*
X0141007Y0151248D01*
X0140337Y0149630D01*
X0140337Y0141581D01*
X0141007Y0139963D01*
X0141271Y0139700D01*
X0141007Y0139436D01*
X0140337Y0137819D01*
X0140337Y0129770D01*
X0140665Y0128980D01*
X0132214Y0120530D01*
X0131362Y0118471D01*
X0131362Y0117584D01*
X0129905Y0117584D01*
X0129462Y0117400D01*
X0129361Y0117442D01*
X0129662Y0118168D01*
X0129662Y0121232D01*
X0128490Y0124062D01*
X0126323Y0126228D01*
X0126282Y0126245D01*
X0135061Y0126245D01*
X0136679Y0126915D01*
X0137916Y0128152D01*
X0138586Y0129770D01*
X0138586Y0137819D01*
X0137916Y0139436D01*
X0137653Y0139700D01*
X0137916Y0139963D01*
X0138586Y0141581D01*
X0138586Y0149630D01*
X0137916Y0151248D01*
X0136679Y0152485D01*
X0135062Y0153155D01*
X0135062Y0157047D01*
X0135622Y0157047D01*
X0135622Y0162120D01*
X0135781Y0162120D01*
X0135781Y0157047D01*
X0138551Y0157047D01*
X0139110Y0157197D01*
X0139462Y0157400D01*
X0139813Y0157197D01*
X0140373Y0157047D01*
X0143142Y0157047D01*
X0143142Y0162120D01*
X0143301Y0162120D01*
X0143142Y0162120D02*
X0138463Y0162120D01*
X0135782Y0162120D01*
X0135782Y0162280D01*
X0143142Y0162280D01*
X0143142Y0162120D01*
X0143142Y0162900D02*
X0143301Y0162900D01*
X0143301Y0160502D02*
X0143142Y0160502D01*
X0143142Y0158103D02*
X0143301Y0158103D01*
X0143862Y0155705D02*
X0135062Y0155705D01*
X0135062Y0153306D02*
X0143862Y0153306D01*
X0140867Y0150908D02*
X0138057Y0150908D01*
X0138586Y0148509D02*
X0140337Y0148509D01*
X0140337Y0146111D02*
X0138586Y0146111D01*
X0138586Y0143712D02*
X0140337Y0143712D01*
X0140448Y0141314D02*
X0138476Y0141314D01*
X0138132Y0138915D02*
X0140791Y0138915D01*
X0140337Y0136517D02*
X0138586Y0136517D01*
X0138586Y0134118D02*
X0140337Y0134118D01*
X0140337Y0131720D02*
X0138586Y0131720D01*
X0138400Y0129321D02*
X0140523Y0129321D01*
X0138607Y0126923D02*
X0136686Y0126923D01*
X0136209Y0124524D02*
X0128027Y0124524D01*
X0129292Y0122126D02*
X0133810Y0122126D01*
X0131882Y0119727D02*
X0129662Y0119727D01*
X0121962Y0119700D02*
X0121962Y0108854D01*
X0124462Y0100307D02*
X0124905Y0100123D01*
X0129018Y0100123D01*
X0129462Y0100307D01*
X0129905Y0100123D01*
X0134018Y0100123D01*
X0134462Y0100307D01*
X0134905Y0100123D01*
X0136362Y0100123D01*
X0136362Y0098586D01*
X0137214Y0096528D01*
X0138790Y0094953D01*
X0141290Y0092453D01*
X0141899Y0092200D01*
X0141290Y0091947D01*
X0138790Y0089447D01*
X0137214Y0087872D01*
X0136362Y0085814D01*
X0136362Y0074277D01*
X0134905Y0074277D01*
X0134462Y0074093D01*
X0134018Y0074277D01*
X0129905Y0074277D01*
X0129462Y0074093D01*
X0129018Y0074277D01*
X0124905Y0074277D01*
X0124462Y0074093D01*
X0124018Y0074277D01*
X0119905Y0074277D01*
X0118288Y0073607D01*
X0117051Y0072370D01*
X0116962Y0072155D01*
X0116873Y0072370D01*
X0115635Y0073607D01*
X0114018Y0074277D01*
X0109905Y0074277D01*
X0109462Y0074093D01*
X0109018Y0074277D01*
X0104905Y0074277D01*
X0104462Y0074093D01*
X0104018Y0074277D01*
X0099905Y0074277D01*
X0099462Y0074093D01*
X0099018Y0074277D01*
X0094905Y0074277D01*
X0094462Y0074093D01*
X0094018Y0074277D01*
X0092562Y0074277D01*
X0092562Y0085814D01*
X0091709Y0087872D01*
X0090134Y0089447D01*
X0087634Y0091947D01*
X0087024Y0092200D01*
X0087634Y0092453D01*
X0089209Y0094028D01*
X0091709Y0096528D01*
X0092562Y0098586D01*
X0092562Y0100814D01*
X0092562Y0101519D01*
X0093288Y0100793D01*
X0094905Y0100123D01*
X0099018Y0100123D01*
X0099462Y0100307D01*
X0099905Y0100123D01*
X0104018Y0100123D01*
X0104462Y0100307D01*
X0104905Y0100123D01*
X0109018Y0100123D01*
X0109462Y0100307D01*
X0109905Y0100123D01*
X0114018Y0100123D01*
X0114462Y0100307D01*
X0114905Y0100123D01*
X0119018Y0100123D01*
X0119462Y0100307D01*
X0119905Y0100123D01*
X0124018Y0100123D01*
X0124462Y0100307D01*
X0136546Y0098140D02*
X0092377Y0098140D01*
X0091962Y0099700D02*
X0091962Y0108854D01*
X0096962Y0108854D02*
X0096962Y0117200D01*
X0064462Y0149700D01*
X0064462Y0177200D01*
X0058023Y0170407D02*
X0058188Y0170008D01*
X0058862Y0169335D01*
X0058862Y0148586D01*
X0059714Y0146528D01*
X0061290Y0144953D01*
X0088658Y0117584D01*
X0084905Y0117584D01*
X0084462Y0117400D01*
X0084018Y0117584D01*
X0079905Y0117584D01*
X0078288Y0116914D01*
X0077051Y0115677D01*
X0076381Y0114059D01*
X0076381Y0112800D01*
X0074705Y0112800D01*
X0074688Y0112842D01*
X0073450Y0114080D01*
X0071833Y0114750D01*
X0064965Y0114750D01*
X0064462Y0114541D01*
X0063959Y0114750D01*
X0057091Y0114750D01*
X0055473Y0114080D01*
X0054265Y0112871D01*
X0053253Y0113883D01*
X0051636Y0114553D01*
X0044768Y0114553D01*
X0043151Y0113883D01*
X0041913Y0112645D01*
X0041792Y0112353D01*
X0040801Y0112353D01*
X0040801Y0107280D01*
X0040642Y0107280D01*
X0040642Y0112353D01*
X0037873Y0112353D01*
X0037313Y0112203D01*
X0036812Y0111913D01*
X0036402Y0111504D01*
X0036113Y0111002D01*
X0035963Y0110442D01*
X0035963Y0107280D01*
X0040642Y0107280D01*
X0040642Y0107120D01*
X0040801Y0107120D01*
X0040801Y0102047D01*
X0041792Y0102047D01*
X0041913Y0101755D01*
X0043151Y0100517D01*
X0044768Y0099847D01*
X0051636Y0099847D01*
X0053253Y0100517D01*
X0053566Y0100829D01*
X0053566Y0093175D01*
X0053970Y0092200D01*
X0053566Y0091225D01*
X0053566Y0083571D01*
X0053253Y0083883D01*
X0051636Y0084553D01*
X0044768Y0084553D01*
X0043151Y0083883D01*
X0041913Y0082645D01*
X0041792Y0082353D01*
X0040801Y0082353D01*
X0040801Y0077280D01*
X0040642Y0077280D01*
X0040642Y0082353D01*
X0037873Y0082353D01*
X0037313Y0082203D01*
X0036812Y0081913D01*
X0036402Y0081504D01*
X0036113Y0081002D01*
X0035963Y0080442D01*
X0035963Y0077280D01*
X0040642Y0077280D01*
X0040642Y0077120D01*
X0040801Y0077120D01*
X0040801Y0072047D01*
X0041792Y0072047D01*
X0041913Y0071755D01*
X0043151Y0070517D01*
X0044768Y0069847D01*
X0051636Y0069847D01*
X0053253Y0070517D01*
X0054265Y0071529D01*
X0055473Y0070320D01*
X0055766Y0070199D01*
X0055766Y0067280D01*
X0060445Y0067280D01*
X0060445Y0067120D01*
X0060604Y0067120D01*
X0060604Y0061850D01*
X0061989Y0061850D01*
X0062110Y0061558D01*
X0063347Y0060320D01*
X0064965Y0059650D01*
X0068029Y0059650D01*
X0073651Y0054028D01*
X0075227Y0052453D01*
X0077285Y0051600D01*
X0080942Y0051600D01*
X0079997Y0050655D01*
X0078862Y0050655D01*
X0077245Y0049985D01*
X0076007Y0048748D01*
X0075337Y0047130D01*
X0075337Y0039081D01*
X0076007Y0037463D01*
X0076271Y0037200D01*
X0076007Y0036936D01*
X0075337Y0035319D01*
X0075337Y0032957D01*
X0074179Y0032957D01*
X0073253Y0033883D01*
X0071636Y0034553D01*
X0064768Y0034553D01*
X0063151Y0033883D01*
X0061913Y0032645D01*
X0061792Y0032353D01*
X0060801Y0032353D01*
X0060801Y0027280D01*
X0060642Y0027280D01*
X0060642Y0032353D01*
X0057873Y0032353D01*
X0057313Y0032203D01*
X0056812Y0031913D01*
X0056402Y0031504D01*
X0056113Y0031002D01*
X0055963Y0030442D01*
X0055963Y0027280D01*
X0060642Y0027280D01*
X0060642Y0027120D01*
X0060801Y0027120D01*
X0060801Y0022047D01*
X0061792Y0022047D01*
X0061913Y0021755D01*
X0063151Y0020517D01*
X0064768Y0019847D01*
X0071636Y0019847D01*
X0073253Y0020517D01*
X0074491Y0021755D01*
X0074492Y0021757D01*
X0081639Y0021757D01*
X0083697Y0022610D01*
X0084462Y0023375D01*
X0085227Y0022610D01*
X0087285Y0021757D01*
X0096985Y0021757D01*
X0097062Y0021680D01*
X0097062Y0017728D01*
X0098188Y0015008D01*
X0100270Y0012927D01*
X0102990Y0011800D01*
X0105934Y0011800D01*
X0108654Y0012927D01*
X0110735Y0015008D01*
X0110901Y0015407D01*
X0111074Y0015234D01*
X0111736Y0014753D01*
X0112466Y0014381D01*
X0113244Y0014128D01*
X0114053Y0014000D01*
X0114462Y0014000D01*
X0114871Y0014000D01*
X0115679Y0014128D01*
X0116458Y0014381D01*
X0117187Y0014753D01*
X0117849Y0015234D01*
X0118023Y0015407D01*
X0118188Y0015008D01*
X0120270Y0012927D01*
X0122990Y0011800D01*
X0125934Y0011800D01*
X0128654Y0012927D01*
X0130735Y0015008D01*
X0131862Y0017728D01*
X0131862Y0021680D01*
X0131939Y0021757D01*
X0141639Y0021757D01*
X0143697Y0022610D01*
X0144462Y0023375D01*
X0145384Y0022453D01*
X0147442Y0021600D01*
X0154587Y0021600D01*
X0155670Y0020517D01*
X0157287Y0019847D01*
X0164156Y0019847D01*
X0165773Y0020517D01*
X0167011Y0021755D01*
X0167132Y0022047D01*
X0168122Y0022047D01*
X0168122Y0027120D01*
X0168281Y0027120D01*
X0168281Y0022047D01*
X0171051Y0022047D01*
X0171610Y0022197D01*
X0172112Y0022487D01*
X0172521Y0022896D01*
X0172811Y0023398D01*
X0172961Y0023958D01*
X0172961Y0027120D01*
X0168282Y0027120D01*
X0168282Y0027280D01*
X0172961Y0027280D01*
X0172961Y0030442D01*
X0172811Y0031002D01*
X0172521Y0031504D01*
X0172112Y0031913D01*
X0171610Y0032203D01*
X0171051Y0032353D01*
X0168281Y0032353D01*
X0168281Y0027280D01*
X0168122Y0027280D01*
X0168122Y0032353D01*
X0167132Y0032353D01*
X0167011Y0032645D01*
X0165773Y0033883D01*
X0164156Y0034553D01*
X0157287Y0034553D01*
X0155670Y0033883D01*
X0154587Y0032800D01*
X0153586Y0032800D01*
X0153586Y0035319D01*
X0152916Y0036936D01*
X0152653Y0037200D01*
X0152916Y0037463D01*
X0153586Y0039081D01*
X0153586Y0047130D01*
X0152916Y0048748D01*
X0151679Y0049985D01*
X0150061Y0050655D01*
X0148926Y0050655D01*
X0147981Y0051600D01*
X0151639Y0051600D01*
X0153697Y0052453D01*
X0155272Y0054028D01*
X0160895Y0059650D01*
X0163959Y0059650D01*
X0165576Y0060320D01*
X0166814Y0061558D01*
X0166935Y0061850D01*
X0168319Y0061850D01*
X0168319Y0067120D01*
X0168478Y0067120D01*
X0168478Y0061850D01*
X0171248Y0061850D01*
X0171807Y0062000D01*
X0172309Y0062290D01*
X0172718Y0062700D01*
X0173008Y0063201D01*
X0173158Y0063761D01*
X0173158Y0067120D01*
X0168478Y0067120D01*
X0168478Y0067280D01*
X0173158Y0067280D01*
X0173158Y0070199D01*
X0173450Y0070320D01*
X0174659Y0071529D01*
X0175670Y0070517D01*
X0177287Y0069847D01*
X0184156Y0069847D01*
X0185773Y0070517D01*
X0187011Y0071755D01*
X0187132Y0072047D01*
X0188122Y0072047D01*
X0188122Y0077120D01*
X0188281Y0077120D01*
X0188281Y0072047D01*
X0191051Y0072047D01*
X0191610Y0072197D01*
X0192112Y0072487D01*
X0192521Y0072896D01*
X0192811Y0073398D01*
X0192961Y0073958D01*
X0192961Y0077120D01*
X0188282Y0077120D01*
X0188282Y0077280D01*
X0192961Y0077280D01*
X0192961Y0080442D01*
X0192811Y0081002D01*
X0192521Y0081504D01*
X0192112Y0081913D01*
X0191610Y0082203D01*
X0191051Y0082353D01*
X0188281Y0082353D01*
X0188281Y0077280D01*
X0188122Y0077280D01*
X0188122Y0082353D01*
X0187132Y0082353D01*
X0187011Y0082645D01*
X0185773Y0083883D01*
X0184156Y0084553D01*
X0177287Y0084553D01*
X0175670Y0083883D01*
X0175358Y0083571D01*
X0175358Y0091225D01*
X0174954Y0092200D01*
X0175358Y0093175D01*
X0175358Y0100829D01*
X0175670Y0100517D01*
X0177287Y0099847D01*
X0184156Y0099847D01*
X0185773Y0100517D01*
X0187011Y0101755D01*
X0187132Y0102047D01*
X0188122Y0102047D01*
X0188122Y0107120D01*
X0188281Y0107120D01*
X0188281Y0102047D01*
X0191051Y0102047D01*
X0191610Y0102197D01*
X0192112Y0102487D01*
X0192521Y0102896D01*
X0192811Y0103398D01*
X0192961Y0103958D01*
X0192961Y0107120D01*
X0188282Y0107120D01*
X0188282Y0107280D01*
X0192961Y0107280D01*
X0192961Y0110442D01*
X0192811Y0111002D01*
X0192521Y0111504D01*
X0192112Y0111913D01*
X0191610Y0112203D01*
X0191051Y0112353D01*
X0188281Y0112353D01*
X0188281Y0107280D01*
X0188122Y0107280D01*
X0188122Y0112353D01*
X0187132Y0112353D01*
X0187011Y0112645D01*
X0185773Y0113883D01*
X0184156Y0114553D01*
X0177287Y0114553D01*
X0175670Y0113883D01*
X0174659Y0112871D01*
X0173450Y0114080D01*
X0171833Y0114750D01*
X0164965Y0114750D01*
X0164462Y0114541D01*
X0163959Y0114750D01*
X0157091Y0114750D01*
X0155473Y0114080D01*
X0154236Y0112842D01*
X0154218Y0112800D01*
X0152543Y0112800D01*
X0152543Y0114059D01*
X0151873Y0115677D01*
X0150635Y0116914D01*
X0149018Y0117584D01*
X0145108Y0117584D01*
X0152634Y0125110D01*
X0153769Y0126245D01*
X0155061Y0126245D01*
X0156679Y0126915D01*
X0157916Y0128152D01*
X0158586Y0129770D01*
X0158586Y0137819D01*
X0157916Y0139436D01*
X0157653Y0139700D01*
X0157916Y0139963D01*
X0158586Y0141581D01*
X0158586Y0149630D01*
X0157916Y0151248D01*
X0156679Y0152485D01*
X0155062Y0153155D01*
X0155062Y0155231D01*
X0155753Y0155517D01*
X0156991Y0156755D01*
X0157661Y0158372D01*
X0157661Y0166028D01*
X0156991Y0167645D01*
X0156302Y0168334D01*
X0156302Y0171376D01*
X0156862Y0172728D01*
X0156862Y0181672D01*
X0155735Y0184392D01*
X0153654Y0186473D01*
X0150934Y0187600D01*
X0147990Y0187600D01*
X0145270Y0186473D01*
X0143188Y0184392D01*
X0143023Y0183993D01*
X0142849Y0184166D01*
X0142187Y0184647D01*
X0141458Y0185019D01*
X0140679Y0185272D01*
X0139871Y0185400D01*
X0139462Y0185400D01*
X0139462Y0177200D01*
X0139462Y0177291D02*
X0139462Y0177291D01*
X0139462Y0174893D02*
X0139462Y0174893D01*
X0139462Y0172494D02*
X0139462Y0172494D01*
X0139462Y0170096D02*
X0139462Y0170096D01*
X0142660Y0170096D02*
X0143152Y0170096D01*
X0144465Y0167697D02*
X0134459Y0167697D01*
X0135622Y0165299D02*
X0135781Y0165299D01*
X0135781Y0162900D02*
X0135622Y0162900D01*
X0135702Y0162200D02*
X0139462Y0162200D01*
X0135781Y0160502D02*
X0135622Y0160502D01*
X0135622Y0158103D02*
X0135781Y0158103D01*
X0129462Y0160960D02*
X0128222Y0162200D01*
X0128222Y0175960D01*
X0129462Y0177200D01*
X0122062Y0177291D02*
X0111862Y0177291D01*
X0111862Y0174893D02*
X0122062Y0174893D01*
X0122159Y0172494D02*
X0111765Y0172494D01*
X0111862Y0172728D02*
X0111862Y0181672D01*
X0110735Y0184392D01*
X0108654Y0186473D01*
X0105934Y0187600D01*
X0102990Y0187600D01*
X0100270Y0186473D01*
X0098188Y0184392D01*
X0098023Y0183993D01*
X0097849Y0184166D01*
X0097187Y0184647D01*
X0096458Y0185019D01*
X0095679Y0185272D01*
X0094871Y0185400D01*
X0094462Y0185400D01*
X0094462Y0177200D01*
X0094462Y0177200D01*
X0094462Y0169000D01*
X0094871Y0169000D01*
X0095679Y0169128D01*
X0096458Y0169381D01*
X0097187Y0169753D01*
X0097849Y0170234D01*
X0098023Y0170407D01*
X0098188Y0170008D01*
X0098862Y0169335D01*
X0098862Y0164791D01*
X0098488Y0164417D01*
X0098147Y0163595D01*
X0098057Y0163685D01*
X0097555Y0163974D01*
X0096996Y0164124D01*
X0093931Y0164124D01*
X0093931Y0157575D01*
X0093181Y0157575D01*
X0093181Y0156825D01*
X0088207Y0156825D01*
X0088207Y0152186D01*
X0088357Y0151626D01*
X0088646Y0151125D01*
X0089056Y0150715D01*
X0089558Y0150426D01*
X0090117Y0150276D01*
X0093181Y0150276D01*
X0093181Y0156825D01*
X0093931Y0156825D01*
X0093931Y0150276D01*
X0096996Y0150276D01*
X0097555Y0150426D01*
X0098057Y0150715D01*
X0098147Y0150805D01*
X0098488Y0149983D01*
X0099725Y0148745D01*
X0101342Y0148076D01*
X0101362Y0148076D01*
X0101362Y0147489D01*
X0100434Y0146562D01*
X0099262Y0143732D01*
X0099262Y0140668D01*
X0100434Y0137838D01*
X0102600Y0135672D01*
X0105430Y0134500D01*
X0108493Y0134500D01*
X0111323Y0135672D01*
X0113490Y0137838D01*
X0114662Y0140668D01*
X0114662Y0143732D01*
X0113490Y0146562D01*
X0112562Y0147489D01*
X0112562Y0150743D01*
X0112917Y0151600D01*
X0112917Y0162800D01*
X0112247Y0164417D01*
X0111009Y0165655D01*
X0110062Y0166047D01*
X0110062Y0169335D01*
X0110735Y0170008D01*
X0111862Y0172728D01*
X0110771Y0170096D02*
X0122622Y0170096D01*
X0121985Y0167697D02*
X0110062Y0167697D01*
X0111365Y0165299D02*
X0121263Y0165299D01*
X0121263Y0162900D02*
X0112875Y0162900D01*
X0112917Y0160502D02*
X0121263Y0160502D01*
X0121374Y0158103D02*
X0112917Y0158103D01*
X0112917Y0155705D02*
X0122983Y0155705D01*
X0123862Y0153306D02*
X0112917Y0153306D01*
X0112630Y0150908D02*
X0120867Y0150908D01*
X0120337Y0148509D02*
X0112562Y0148509D01*
X0113676Y0146111D02*
X0120337Y0146111D01*
X0120337Y0143712D02*
X0114662Y0143712D01*
X0114662Y0141314D02*
X0120448Y0141314D01*
X0120791Y0138915D02*
X0113936Y0138915D01*
X0112168Y0136517D02*
X0118359Y0136517D01*
X0115960Y0134118D02*
X0095463Y0134118D01*
X0097862Y0131720D02*
X0113562Y0131720D01*
X0111163Y0129321D02*
X0100260Y0129321D01*
X0102659Y0126923D02*
X0108765Y0126923D01*
X0106366Y0124524D02*
X0105057Y0124524D01*
X0101962Y0119700D02*
X0074462Y0147200D01*
X0074462Y0177200D01*
X0081862Y0177291D02*
X0089262Y0177291D01*
X0089262Y0177200D02*
X0094462Y0177200D01*
X0094462Y0177200D01*
X0093556Y0176294D01*
X0093556Y0157200D01*
X0093181Y0157575D02*
X0088207Y0157575D01*
X0088207Y0162214D01*
X0088357Y0162774D01*
X0088646Y0163275D01*
X0089056Y0163685D01*
X0089558Y0163974D01*
X0090117Y0164124D01*
X0093181Y0164124D01*
X0093181Y0157575D01*
X0093181Y0158103D02*
X0093931Y0158103D01*
X0093931Y0155705D02*
X0093181Y0155705D01*
X0093181Y0153306D02*
X0093931Y0153306D01*
X0093931Y0150908D02*
X0093181Y0150908D01*
X0088863Y0150908D02*
X0080062Y0150908D01*
X0080062Y0153306D02*
X0088207Y0153306D01*
X0088207Y0155705D02*
X0080062Y0155705D01*
X0080062Y0158103D02*
X0088207Y0158103D01*
X0088207Y0160502D02*
X0080062Y0160502D01*
X0080062Y0162900D02*
X0088430Y0162900D01*
X0093181Y0162900D02*
X0093931Y0162900D01*
X0093931Y0160502D02*
X0093181Y0160502D01*
X0098862Y0165299D02*
X0080062Y0165299D01*
X0080062Y0167697D02*
X0098862Y0167697D01*
X0098152Y0170096D02*
X0097660Y0170096D01*
X0094462Y0170096D02*
X0094462Y0170096D01*
X0094462Y0169000D02*
X0094462Y0177200D01*
X0094462Y0185400D01*
X0094053Y0185400D01*
X0093244Y0185272D01*
X0092466Y0185019D01*
X0091736Y0184647D01*
X0091074Y0184166D01*
X0090495Y0183588D01*
X0090014Y0182925D01*
X0089643Y0182196D01*
X0089390Y0181418D01*
X0089262Y0180609D01*
X0089262Y0177200D01*
X0089262Y0173791D01*
X0089390Y0172982D01*
X0089643Y0172204D01*
X0090014Y0171475D01*
X0090495Y0170812D01*
X0091074Y0170234D01*
X0091736Y0169753D01*
X0092466Y0169381D01*
X0093244Y0169128D01*
X0094053Y0169000D01*
X0094462Y0169000D01*
X0091264Y0170096D02*
X0080771Y0170096D01*
X0081765Y0172494D02*
X0089548Y0172494D01*
X0089262Y0174893D02*
X0081862Y0174893D01*
X0081862Y0179690D02*
X0089262Y0179690D01*
X0089262Y0177200D02*
X0094462Y0177200D01*
X0094462Y0177200D01*
X0094462Y0177291D02*
X0094462Y0177291D01*
X0094462Y0174893D02*
X0094462Y0174893D01*
X0094462Y0172494D02*
X0094462Y0172494D01*
X0094462Y0179690D02*
X0094462Y0179690D01*
X0094462Y0182088D02*
X0094462Y0182088D01*
X0094462Y0184487D02*
X0094462Y0184487D01*
X0097408Y0184487D02*
X0098284Y0184487D01*
X0101265Y0186885D02*
X0077659Y0186885D01*
X0080640Y0184487D02*
X0091515Y0184487D01*
X0089608Y0182088D02*
X0081689Y0182088D01*
X0071265Y0186885D02*
X0067659Y0186885D01*
X0061265Y0186885D02*
X0044362Y0186885D01*
X0044362Y0185238D02*
X0044362Y0189162D01*
X0043346Y0192951D01*
X0041385Y0196349D01*
X0041273Y0196461D01*
X0187651Y0196461D01*
X0187539Y0196349D01*
X0185577Y0192951D01*
X0184562Y0189162D01*
X0184562Y0185238D01*
X0185577Y0181449D01*
X0187539Y0178051D01*
X0190313Y0175277D01*
X0193711Y0173315D01*
X0197500Y0172300D01*
X0201423Y0172300D01*
X0205213Y0173315D01*
X0207463Y0174614D01*
X0207463Y0029786D01*
X0205213Y0031085D01*
X0201423Y0032100D01*
X0197500Y0032100D01*
X0193711Y0031085D01*
X0190313Y0029123D01*
X0187539Y0026349D01*
X0185577Y0022951D01*
X0184562Y0019162D01*
X0184562Y0015238D01*
X0185577Y0011449D01*
X0187539Y0008051D01*
X0187690Y0007900D01*
X0041234Y0007900D01*
X0041385Y0008051D01*
X0043346Y0011449D01*
X0044362Y0015238D01*
X0044362Y0019162D01*
X0043346Y0022951D01*
X0041385Y0026349D01*
X0038611Y0029123D01*
X0035213Y0031085D01*
X0031423Y0032100D01*
X0027500Y0032100D01*
X0023711Y0031085D01*
X0020313Y0029123D01*
X0020162Y0028972D01*
X0020162Y0175428D01*
X0020313Y0175277D01*
X0023711Y0173315D01*
X0027500Y0172300D01*
X0031423Y0172300D01*
X0035213Y0173315D01*
X0038611Y0175277D01*
X0041385Y0178051D01*
X0043346Y0181449D01*
X0044362Y0185238D01*
X0044160Y0184487D02*
X0051515Y0184487D01*
X0051736Y0184647D02*
X0051074Y0184166D01*
X0050495Y0183588D01*
X0050014Y0182925D01*
X0049643Y0182196D01*
X0049390Y0181418D01*
X0049262Y0180609D01*
X0049262Y0177200D01*
X0049262Y0173791D01*
X0049390Y0172982D01*
X0049643Y0172204D01*
X0050014Y0171475D01*
X0050495Y0170812D01*
X0051074Y0170234D01*
X0051736Y0169753D01*
X0052466Y0169381D01*
X0053244Y0169128D01*
X0054053Y0169000D01*
X0054462Y0169000D01*
X0054871Y0169000D01*
X0055679Y0169128D01*
X0056458Y0169381D01*
X0057187Y0169753D01*
X0057849Y0170234D01*
X0058023Y0170407D01*
X0058152Y0170096D02*
X0057660Y0170096D01*
X0058862Y0167697D02*
X0020162Y0167697D01*
X0020162Y0165299D02*
X0058862Y0165299D01*
X0058862Y0162900D02*
X0020162Y0162900D01*
X0020162Y0160502D02*
X0058862Y0160502D01*
X0058862Y0158103D02*
X0020162Y0158103D01*
X0020162Y0155705D02*
X0058862Y0155705D01*
X0058862Y0153306D02*
X0020162Y0153306D01*
X0020162Y0150908D02*
X0058862Y0150908D01*
X0058894Y0148509D02*
X0020162Y0148509D01*
X0020162Y0146111D02*
X0060132Y0146111D01*
X0062530Y0143712D02*
X0020162Y0143712D01*
X0020162Y0141314D02*
X0064929Y0141314D01*
X0067327Y0138915D02*
X0020162Y0138915D01*
X0020162Y0136517D02*
X0069726Y0136517D01*
X0072124Y0134118D02*
X0020162Y0134118D01*
X0020162Y0131720D02*
X0074523Y0131720D01*
X0076921Y0129321D02*
X0020162Y0129321D01*
X0020162Y0126923D02*
X0079320Y0126923D01*
X0081718Y0124524D02*
X0020162Y0124524D01*
X0020162Y0122126D02*
X0084117Y0122126D01*
X0086515Y0119727D02*
X0020162Y0119727D01*
X0020162Y0117329D02*
X0079288Y0117329D01*
X0076741Y0114930D02*
X0020162Y0114930D01*
X0020162Y0112532D02*
X0041866Y0112532D01*
X0040801Y0110133D02*
X0040642Y0110133D01*
X0040642Y0107734D02*
X0040801Y0107734D01*
X0040642Y0107120D02*
X0035963Y0107120D01*
X0035963Y0103958D01*
X0036113Y0103398D01*
X0036402Y0102896D01*
X0036812Y0102487D01*
X0037313Y0102197D01*
X0037873Y0102047D01*
X0040642Y0102047D01*
X0040642Y0107120D01*
X0040642Y0105336D02*
X0040801Y0105336D01*
X0040801Y0102937D02*
X0040642Y0102937D01*
X0043129Y0100539D02*
X0020162Y0100539D01*
X0020162Y0102937D02*
X0036378Y0102937D01*
X0035963Y0105336D02*
X0020162Y0105336D01*
X0020162Y0107734D02*
X0035963Y0107734D01*
X0035963Y0110133D02*
X0020162Y0110133D01*
X0020162Y0098140D02*
X0053566Y0098140D01*
X0053566Y0095742D02*
X0020162Y0095742D01*
X0020162Y0093343D02*
X0053566Y0093343D01*
X0053566Y0090945D02*
X0020162Y0090945D01*
X0020162Y0088546D02*
X0053566Y0088546D01*
X0053566Y0086148D02*
X0020162Y0086148D01*
X0020162Y0083749D02*
X0043017Y0083749D01*
X0040801Y0081351D02*
X0040642Y0081351D01*
X0040642Y0078952D02*
X0040801Y0078952D01*
X0040642Y0077120D02*
X0035963Y0077120D01*
X0035963Y0073958D01*
X0036113Y0073398D01*
X0036402Y0072896D01*
X0036812Y0072487D01*
X0037313Y0072197D01*
X0037873Y0072047D01*
X0040642Y0072047D01*
X0040642Y0077120D01*
X0040642Y0076554D02*
X0040801Y0076554D01*
X0040801Y0074155D02*
X0040642Y0074155D01*
X0041912Y0071757D02*
X0020162Y0071757D01*
X0020162Y0074155D02*
X0035963Y0074155D01*
X0035963Y0076554D02*
X0020162Y0076554D01*
X0020162Y0078952D02*
X0035963Y0078952D01*
X0036314Y0081351D02*
X0020162Y0081351D01*
X0020162Y0069358D02*
X0055766Y0069358D01*
X0055766Y0067120D02*
X0055766Y0063761D01*
X0055916Y0063201D01*
X0056205Y0062700D01*
X0056615Y0062290D01*
X0057117Y0062000D01*
X0057676Y0061850D01*
X0060445Y0061850D01*
X0060445Y0067120D01*
X0055766Y0067120D01*
X0055766Y0066960D02*
X0020162Y0066960D01*
X0020162Y0064561D02*
X0055766Y0064561D01*
X0056835Y0062163D02*
X0020162Y0062163D01*
X0020162Y0059764D02*
X0064690Y0059764D01*
X0060604Y0062163D02*
X0060445Y0062163D01*
X0060445Y0064561D02*
X0060604Y0064561D01*
X0060604Y0066960D02*
X0060445Y0066960D01*
X0068399Y0067200D02*
X0078399Y0057200D01*
X0089462Y0057200D01*
X0091962Y0059700D01*
X0091962Y0065546D01*
X0096962Y0065546D02*
X0096962Y0052200D01*
X0094304Y0049543D01*
X0086804Y0049543D01*
X0084462Y0047200D01*
X0084462Y0043106D01*
X0075337Y0042975D02*
X0020162Y0042975D01*
X0020162Y0045373D02*
X0075337Y0045373D01*
X0075603Y0047772D02*
X0020162Y0047772D01*
X0020162Y0050170D02*
X0077692Y0050170D01*
X0075110Y0052569D02*
X0020162Y0052569D01*
X0020162Y0054967D02*
X0072712Y0054967D01*
X0070313Y0057366D02*
X0020162Y0057366D01*
X0020162Y0040576D02*
X0075337Y0040576D01*
X0075711Y0038178D02*
X0020162Y0038178D01*
X0020162Y0035779D02*
X0075528Y0035779D01*
X0075337Y0033381D02*
X0073756Y0033381D01*
X0068359Y0027357D02*
X0080525Y0027357D01*
X0084462Y0031294D01*
X0088399Y0027357D01*
X0099304Y0027357D01*
X0104462Y0022200D01*
X0097533Y0016591D02*
X0044362Y0016591D01*
X0044362Y0018990D02*
X0097062Y0018990D01*
X0097062Y0021388D02*
X0074124Y0021388D01*
X0068202Y0027200D02*
X0068359Y0027357D01*
X0060801Y0026185D02*
X0060642Y0026185D01*
X0060642Y0027120D02*
X0060642Y0022047D01*
X0057873Y0022047D01*
X0057313Y0022197D01*
X0056812Y0022487D01*
X0056402Y0022896D01*
X0056113Y0023398D01*
X0055963Y0023958D01*
X0055963Y0027120D01*
X0060642Y0027120D01*
X0060642Y0028584D02*
X0060801Y0028584D01*
X0060801Y0030982D02*
X0060642Y0030982D01*
X0062648Y0033381D02*
X0020162Y0033381D01*
X0020162Y0030982D02*
X0023533Y0030982D01*
X0035390Y0030982D02*
X0056107Y0030982D01*
X0055963Y0028584D02*
X0039150Y0028584D01*
X0041479Y0026185D02*
X0055963Y0026185D01*
X0056008Y0023787D02*
X0042864Y0023787D01*
X0043765Y0021388D02*
X0062280Y0021388D01*
X0060801Y0023787D02*
X0060642Y0023787D01*
X0044082Y0014193D02*
X0099004Y0014193D01*
X0109920Y0014193D02*
X0113046Y0014193D01*
X0114462Y0014193D02*
X0114462Y0014193D01*
X0114462Y0014000D02*
X0114462Y0022200D01*
X0114462Y0022200D01*
X0114462Y0030400D01*
X0114871Y0030400D01*
X0115679Y0030272D01*
X0116458Y0030019D01*
X0117187Y0029647D01*
X0117849Y0029166D01*
X0118023Y0028993D01*
X0118188Y0029392D01*
X0120270Y0031473D01*
X0122990Y0032600D01*
X0125934Y0032600D01*
X0126788Y0032246D01*
X0128505Y0032957D01*
X0135337Y0032957D01*
X0135337Y0035319D01*
X0136007Y0036936D01*
X0136271Y0037200D01*
X0136007Y0037463D01*
X0135337Y0039081D01*
X0135337Y0043943D01*
X0133505Y0043943D01*
X0131447Y0044795D01*
X0129872Y0046370D01*
X0127214Y0049028D01*
X0126362Y0051086D01*
X0126362Y0056816D01*
X0124905Y0056816D01*
X0124462Y0057000D01*
X0124018Y0056816D01*
X0119905Y0056816D01*
X0118288Y0057486D01*
X0117562Y0058212D01*
X0117562Y0056086D01*
X0116709Y0054028D01*
X0115017Y0052336D01*
X0115436Y0051917D01*
X0115777Y0051095D01*
X0115867Y0051185D01*
X0116369Y0051474D01*
X0116928Y0051624D01*
X0119992Y0051624D01*
X0119992Y0045075D01*
X0120742Y0045075D01*
X0120742Y0051624D01*
X0123807Y0051624D01*
X0124366Y0051474D01*
X0124868Y0051185D01*
X0125277Y0050775D01*
X0125567Y0050274D01*
X0125717Y0049714D01*
X0125717Y0045075D01*
X0120742Y0045075D01*
X0120742Y0044325D01*
X0120742Y0037776D01*
X0123807Y0037776D01*
X0124366Y0037926D01*
X0124868Y0038215D01*
X0125277Y0038625D01*
X0125567Y0039126D01*
X0125717Y0039686D01*
X0125717Y0044325D01*
X0120742Y0044325D01*
X0119992Y0044325D01*
X0119992Y0037776D01*
X0116928Y0037776D01*
X0116369Y0037926D01*
X0115867Y0038215D01*
X0115777Y0038305D01*
X0115436Y0037483D01*
X0114198Y0036245D01*
X0112581Y0035576D01*
X0104531Y0035576D01*
X0102914Y0036245D01*
X0101677Y0037483D01*
X0101007Y0039100D01*
X0101007Y0048325D01*
X0100134Y0047453D01*
X0100134Y0047453D01*
X0099052Y0046370D01*
X0099052Y0046370D01*
X0097476Y0044795D01*
X0095418Y0043943D01*
X0093586Y0043943D01*
X0093586Y0039081D01*
X0092916Y0037463D01*
X0092653Y0037200D01*
X0092916Y0036936D01*
X0093586Y0035319D01*
X0093586Y0032957D01*
X0100418Y0032957D01*
X0102136Y0032246D01*
X0102990Y0032600D01*
X0105934Y0032600D01*
X0108654Y0031473D01*
X0110735Y0029392D01*
X0110901Y0028993D01*
X0111074Y0029166D01*
X0111736Y0029647D01*
X0112466Y0030019D01*
X0113244Y0030272D01*
X0114053Y0030400D01*
X0114462Y0030400D01*
X0114462Y0022200D01*
X0114462Y0022200D01*
X0114462Y0032200D01*
X0120367Y0038106D01*
X0120367Y0044700D01*
X0120367Y0053794D01*
X0116962Y0057200D01*
X0116962Y0065546D01*
X0116962Y0084700D01*
X0104462Y0097200D01*
X0094462Y0097200D01*
X0091962Y0099700D01*
X0092562Y0100539D02*
X0093901Y0100539D01*
X0090923Y0095742D02*
X0138000Y0095742D01*
X0140399Y0093343D02*
X0088525Y0093343D01*
X0088636Y0090945D02*
X0140287Y0090945D01*
X0137889Y0088546D02*
X0091035Y0088546D01*
X0092423Y0086148D02*
X0136500Y0086148D01*
X0136362Y0083749D02*
X0092562Y0083749D01*
X0092562Y0081351D02*
X0136362Y0081351D01*
X0136362Y0078952D02*
X0092562Y0078952D01*
X0092562Y0076554D02*
X0136362Y0076554D01*
X0134611Y0074155D02*
X0134312Y0074155D01*
X0129611Y0074155D02*
X0129312Y0074155D01*
X0124611Y0074155D02*
X0124312Y0074155D01*
X0119611Y0074155D02*
X0114312Y0074155D01*
X0109611Y0074155D02*
X0109312Y0074155D01*
X0104611Y0074155D02*
X0104312Y0074155D01*
X0099611Y0074155D02*
X0099312Y0074155D01*
X0094611Y0074155D02*
X0094312Y0074155D01*
X0086962Y0065546D02*
X0086962Y0084700D01*
X0084462Y0087200D01*
X0068399Y0087200D01*
X0060525Y0087200D02*
X0060525Y0077200D01*
X0048202Y0077200D01*
X0053387Y0083749D02*
X0053566Y0083749D01*
X0060525Y0097200D02*
X0060525Y0107200D01*
X0048202Y0107200D01*
X0053275Y0100539D02*
X0053566Y0100539D01*
X0060265Y0106940D02*
X0060525Y0107200D01*
X0068399Y0107200D02*
X0080308Y0107200D01*
X0081962Y0108854D01*
X0081962Y0109700D01*
X0086962Y0108854D02*
X0086962Y0099700D01*
X0084462Y0097200D01*
X0068399Y0097200D01*
X0068399Y0077200D02*
X0079462Y0077200D01*
X0081962Y0074700D01*
X0081962Y0065546D01*
X0100453Y0047772D02*
X0101007Y0047772D01*
X0101007Y0045373D02*
X0098055Y0045373D01*
X0101007Y0042975D02*
X0093586Y0042975D01*
X0093586Y0040576D02*
X0101007Y0040576D01*
X0101389Y0038178D02*
X0093212Y0038178D01*
X0093396Y0035779D02*
X0104040Y0035779D01*
X0109145Y0030982D02*
X0119779Y0030982D01*
X0114462Y0028584D02*
X0114462Y0028584D01*
X0114462Y0026185D02*
X0114462Y0026185D01*
X0114462Y0023787D02*
X0114462Y0023787D01*
X0114462Y0022200D02*
X0114462Y0014000D01*
X0115878Y0014193D02*
X0119004Y0014193D01*
X0114462Y0016591D02*
X0114462Y0016591D01*
X0114462Y0018990D02*
X0114462Y0018990D01*
X0114462Y0021388D02*
X0114462Y0021388D01*
X0124462Y0022200D02*
X0129619Y0027357D01*
X0140525Y0027357D01*
X0144462Y0031294D01*
X0148556Y0027200D01*
X0160722Y0027200D01*
X0160564Y0027357D01*
X0168122Y0026185D02*
X0168281Y0026185D01*
X0168281Y0028584D02*
X0168122Y0028584D01*
X0168122Y0030982D02*
X0168281Y0030982D01*
X0166275Y0033381D02*
X0207463Y0033381D01*
X0207463Y0035779D02*
X0153396Y0035779D01*
X0153212Y0038178D02*
X0207463Y0038178D01*
X0207463Y0040576D02*
X0153586Y0040576D01*
X0153586Y0042975D02*
X0207463Y0042975D01*
X0207463Y0045373D02*
X0153586Y0045373D01*
X0153321Y0047772D02*
X0207463Y0047772D01*
X0207463Y0050170D02*
X0151232Y0050170D01*
X0153813Y0052569D02*
X0207463Y0052569D01*
X0207463Y0054967D02*
X0156212Y0054967D01*
X0155272Y0054028D02*
X0155272Y0054028D01*
X0158610Y0057366D02*
X0207463Y0057366D01*
X0207463Y0059764D02*
X0164234Y0059764D01*
X0168319Y0062163D02*
X0168478Y0062163D01*
X0168478Y0064561D02*
X0168319Y0064561D01*
X0168319Y0066960D02*
X0168478Y0066960D01*
X0173158Y0066960D02*
X0207463Y0066960D01*
X0207463Y0064561D02*
X0173158Y0064561D01*
X0172088Y0062163D02*
X0207463Y0062163D01*
X0207463Y0069358D02*
X0173158Y0069358D01*
X0169659Y0075940D02*
X0168399Y0077200D01*
X0180722Y0077200D01*
X0188122Y0076554D02*
X0188281Y0076554D01*
X0188281Y0078952D02*
X0188122Y0078952D01*
X0188122Y0081351D02*
X0188281Y0081351D01*
X0185907Y0083749D02*
X0207463Y0083749D01*
X0207463Y0081351D02*
X0192610Y0081351D01*
X0192961Y0078952D02*
X0207463Y0078952D01*
X0207463Y0076554D02*
X0192961Y0076554D01*
X0192961Y0074155D02*
X0207463Y0074155D01*
X0207463Y0071757D02*
X0187012Y0071757D01*
X0188122Y0074155D02*
X0188281Y0074155D01*
X0175537Y0083749D02*
X0175358Y0083749D01*
X0175358Y0086148D02*
X0207463Y0086148D01*
X0207463Y0088546D02*
X0175358Y0088546D01*
X0175358Y0090945D02*
X0207463Y0090945D01*
X0207463Y0093343D02*
X0175358Y0093343D01*
X0175358Y0095742D02*
X0207463Y0095742D01*
X0207463Y0098140D02*
X0175358Y0098140D01*
X0175358Y0100539D02*
X0175648Y0100539D01*
X0180722Y0107200D02*
X0168399Y0107200D01*
X0168399Y0097200D01*
X0160525Y0097200D02*
X0144462Y0097200D01*
X0141962Y0099700D01*
X0141962Y0108854D01*
X0146962Y0108854D02*
X0148615Y0107200D01*
X0160525Y0107200D01*
X0152182Y0114930D02*
X0207463Y0114930D01*
X0207463Y0117329D02*
X0149635Y0117329D01*
X0147251Y0119727D02*
X0207463Y0119727D01*
X0207463Y0122126D02*
X0149649Y0122126D01*
X0152048Y0124524D02*
X0207463Y0124524D01*
X0207463Y0126923D02*
X0156686Y0126923D01*
X0158400Y0129321D02*
X0207463Y0129321D01*
X0207463Y0131720D02*
X0158586Y0131720D01*
X0158586Y0134118D02*
X0207463Y0134118D01*
X0207463Y0136517D02*
X0158586Y0136517D01*
X0158132Y0138915D02*
X0207463Y0138915D01*
X0207463Y0141314D02*
X0158476Y0141314D01*
X0158586Y0143712D02*
X0207463Y0143712D01*
X0207463Y0146111D02*
X0158586Y0146111D01*
X0158586Y0148509D02*
X0207463Y0148509D01*
X0207463Y0150908D02*
X0158057Y0150908D01*
X0155062Y0153306D02*
X0207463Y0153306D01*
X0207463Y0155705D02*
X0155941Y0155705D01*
X0157550Y0158103D02*
X0207463Y0158103D01*
X0207463Y0160502D02*
X0157661Y0160502D01*
X0157661Y0162900D02*
X0207463Y0162900D01*
X0207463Y0165299D02*
X0157661Y0165299D01*
X0156939Y0167697D02*
X0207463Y0167697D01*
X0207463Y0170096D02*
X0156302Y0170096D01*
X0156765Y0172494D02*
X0196775Y0172494D01*
X0190978Y0174893D02*
X0156862Y0174893D01*
X0156862Y0177291D02*
X0188299Y0177291D01*
X0186593Y0179690D02*
X0156862Y0179690D01*
X0156689Y0182088D02*
X0185406Y0182088D01*
X0184763Y0184487D02*
X0155640Y0184487D01*
X0152659Y0186885D02*
X0184562Y0186885D01*
X0184595Y0189284D02*
X0044329Y0189284D01*
X0043686Y0191682D02*
X0185237Y0191682D01*
X0186229Y0194081D02*
X0042694Y0194081D01*
X0051736Y0184647D02*
X0052466Y0185019D01*
X0053244Y0185272D01*
X0054053Y0185400D01*
X0054462Y0185400D01*
X0054462Y0177200D01*
X0054462Y0169000D01*
X0054462Y0177200D01*
X0054462Y0177200D01*
X0049262Y0177200D01*
X0049262Y0174893D02*
X0037945Y0174893D01*
X0042331Y0179690D02*
X0049262Y0179690D01*
X0049608Y0182088D02*
X0043518Y0182088D01*
X0054462Y0182088D02*
X0054462Y0182088D01*
X0054462Y0184487D02*
X0054462Y0184487D01*
X0057408Y0184487D02*
X0058284Y0184487D01*
X0054462Y0179690D02*
X0054462Y0179690D01*
X0054462Y0177291D02*
X0054462Y0177291D01*
X0054462Y0177200D02*
X0054462Y0177200D01*
X0054462Y0174893D02*
X0054462Y0174893D01*
X0054462Y0172494D02*
X0054462Y0172494D01*
X0054462Y0170096D02*
X0054462Y0170096D01*
X0051264Y0170096D02*
X0020162Y0170096D01*
X0020162Y0172494D02*
X0026775Y0172494D01*
X0032149Y0172494D02*
X0049548Y0172494D01*
X0020978Y0174893D02*
X0020162Y0174893D01*
X0081072Y0148509D02*
X0100296Y0148509D01*
X0100247Y0146111D02*
X0083471Y0146111D01*
X0085869Y0143712D02*
X0099262Y0143712D01*
X0099262Y0141314D02*
X0088268Y0141314D01*
X0090666Y0138915D02*
X0099988Y0138915D01*
X0101756Y0136517D02*
X0093065Y0136517D01*
X0106962Y0142200D02*
X0106962Y0155606D01*
X0105367Y0157200D01*
X0104462Y0158106D01*
X0104462Y0177200D01*
X0111862Y0179690D02*
X0122062Y0179690D01*
X0122234Y0182088D02*
X0111689Y0182088D01*
X0110640Y0184487D02*
X0123284Y0184487D01*
X0126265Y0186885D02*
X0107659Y0186885D01*
X0132659Y0186885D02*
X0146265Y0186885D01*
X0143284Y0184487D02*
X0142408Y0184487D01*
X0139462Y0184487D02*
X0139462Y0184487D01*
X0139462Y0182088D02*
X0139462Y0182088D01*
X0136515Y0184487D02*
X0135640Y0184487D01*
X0139462Y0179690D02*
X0139462Y0179690D01*
X0136264Y0170096D02*
X0135771Y0170096D01*
X0143142Y0165299D02*
X0143301Y0165299D01*
X0149462Y0160960D02*
X0150702Y0162200D01*
X0150702Y0175960D01*
X0149462Y0177200D01*
X0149462Y0160960D02*
X0149462Y0145606D01*
X0149462Y0133794D02*
X0149462Y0129857D01*
X0136962Y0117357D01*
X0136962Y0108854D01*
X0146962Y0108854D02*
X0146962Y0109700D01*
X0144462Y0087200D02*
X0141962Y0084700D01*
X0141962Y0065546D01*
X0146962Y0065546D02*
X0146962Y0064700D01*
X0146962Y0065546D02*
X0146962Y0074700D01*
X0149462Y0077200D01*
X0160525Y0077200D01*
X0168399Y0077200D02*
X0168399Y0087200D01*
X0160525Y0087200D02*
X0144462Y0087200D01*
X0160525Y0067200D02*
X0150525Y0057200D01*
X0139462Y0057200D01*
X0136962Y0059700D01*
X0136962Y0065546D01*
X0131962Y0065546D02*
X0131962Y0052200D01*
X0134619Y0049543D01*
X0142119Y0049543D01*
X0144462Y0047200D01*
X0144462Y0043106D01*
X0135337Y0042975D02*
X0125717Y0042975D01*
X0125717Y0045373D02*
X0130869Y0045373D01*
X0128470Y0047772D02*
X0125717Y0047772D01*
X0125595Y0050170D02*
X0126741Y0050170D01*
X0126362Y0052569D02*
X0115250Y0052569D01*
X0117098Y0054967D02*
X0126362Y0054967D01*
X0120742Y0050170D02*
X0119992Y0050170D01*
X0119992Y0047772D02*
X0120742Y0047772D01*
X0120742Y0045373D02*
X0119992Y0045373D01*
X0119992Y0042975D02*
X0120742Y0042975D01*
X0120742Y0040576D02*
X0119992Y0040576D01*
X0119992Y0038178D02*
X0120742Y0038178D01*
X0124803Y0038178D02*
X0135711Y0038178D01*
X0135528Y0035779D02*
X0113073Y0035779D01*
X0115724Y0038178D02*
X0115932Y0038178D01*
X0108556Y0047200D02*
X0108556Y0053794D01*
X0111962Y0057200D01*
X0111962Y0065546D01*
X0117562Y0057366D02*
X0118578Y0057366D01*
X0125717Y0040576D02*
X0135337Y0040576D01*
X0135337Y0033381D02*
X0093586Y0033381D01*
X0129920Y0014193D02*
X0184842Y0014193D01*
X0184562Y0016591D02*
X0131391Y0016591D01*
X0131862Y0018990D02*
X0184562Y0018990D01*
X0185158Y0021388D02*
X0166644Y0021388D01*
X0168122Y0023787D02*
X0168281Y0023787D01*
X0172915Y0023787D02*
X0186060Y0023787D01*
X0187444Y0026185D02*
X0172961Y0026185D01*
X0172961Y0028584D02*
X0189774Y0028584D01*
X0193533Y0030982D02*
X0172816Y0030982D01*
X0155168Y0033381D02*
X0153586Y0033381D01*
X0154799Y0021388D02*
X0131862Y0021388D01*
X0185485Y0011794D02*
X0043439Y0011794D01*
X0042161Y0009396D02*
X0186763Y0009396D01*
X0205390Y0030982D02*
X0207463Y0030982D01*
X0207463Y0100539D02*
X0185795Y0100539D01*
X0188122Y0102937D02*
X0188281Y0102937D01*
X0188281Y0105336D02*
X0188122Y0105336D01*
X0188122Y0107734D02*
X0188281Y0107734D01*
X0188281Y0110133D02*
X0188122Y0110133D01*
X0187058Y0112532D02*
X0207463Y0112532D01*
X0207463Y0110133D02*
X0192961Y0110133D01*
X0192961Y0107734D02*
X0207463Y0107734D01*
X0207463Y0105336D02*
X0192961Y0105336D01*
X0192545Y0102937D02*
X0207463Y0102937D01*
X0207463Y0172494D02*
X0202149Y0172494D01*
X0129462Y0160960D02*
X0129462Y0145606D01*
X0129462Y0133794D02*
X0123556Y0133794D01*
X0106962Y0117200D01*
X0106962Y0108854D01*
X0101962Y0108854D02*
X0101962Y0119700D01*
D18*
X0121962Y0119700D03*
X0106962Y0142200D03*
M02*
