G75*
%MOIN*%
%OFA0B0*%
%FSLAX25Y25*%
%IPPOS*%
%LPD*%
%AMOC8*
5,1,8,0,0,1.08239X$1,22.5*
%
%ADD10R,0.03162X0.09461*%
%ADD11R,0.10249X0.07099*%
%ADD12R,0.07099X0.10249*%
%ADD13R,0.05918X0.07099*%
%ADD14R,0.05918X0.06706*%
%ADD15C,0.06800*%
%ADD16C,0.21800*%
%ADD17C,0.07400*%
D10*
X0081962Y0065546D03*
X0086962Y0065546D03*
X0091962Y0065546D03*
X0096962Y0065546D03*
X0101962Y0065546D03*
X0106962Y0065546D03*
X0111962Y0065546D03*
X0116962Y0065546D03*
X0121962Y0065546D03*
X0126962Y0065546D03*
X0131962Y0065546D03*
X0136962Y0065546D03*
X0141962Y0065546D03*
X0146962Y0065546D03*
X0146962Y0108854D03*
X0141962Y0108854D03*
X0136962Y0108854D03*
X0131962Y0108854D03*
X0126962Y0108854D03*
X0121962Y0108854D03*
X0116962Y0108854D03*
X0111962Y0108854D03*
X0106962Y0108854D03*
X0101962Y0108854D03*
X0096962Y0108854D03*
X0091962Y0108854D03*
X0086962Y0108854D03*
X0081962Y0108854D03*
D11*
X0129462Y0133794D03*
X0129462Y0145606D03*
X0149462Y0145606D03*
X0149462Y0133794D03*
X0144462Y0043106D03*
X0144462Y0031294D03*
X0084462Y0031294D03*
X0084462Y0043106D03*
D12*
X0108556Y0044700D03*
X0120367Y0044700D03*
X0105367Y0157200D03*
X0093556Y0157200D03*
D13*
X0068399Y0107200D03*
X0060525Y0107200D03*
X0060525Y0097200D03*
X0068399Y0097200D03*
X0068399Y0087200D03*
X0060525Y0087200D03*
X0060525Y0077200D03*
X0068399Y0077200D03*
X0068399Y0067200D03*
X0060525Y0067200D03*
X0160525Y0067200D03*
X0168399Y0067200D03*
X0168399Y0077200D03*
X0160525Y0077200D03*
X0160525Y0087200D03*
X0168399Y0087200D03*
X0168399Y0097200D03*
X0160525Y0097200D03*
X0160525Y0107200D03*
X0168399Y0107200D03*
D14*
X0180722Y0107200D03*
X0188202Y0107200D03*
X0188202Y0077200D03*
X0180722Y0077200D03*
X0168202Y0027200D03*
X0160722Y0027200D03*
X0068202Y0027200D03*
X0060722Y0027200D03*
X0048202Y0077200D03*
X0040722Y0077200D03*
X0040722Y0107200D03*
X0048202Y0107200D03*
X0128222Y0162200D03*
X0135702Y0162200D03*
X0143222Y0162200D03*
X0150702Y0162200D03*
D15*
X0149462Y0174200D02*
X0149462Y0180200D01*
X0139462Y0180200D02*
X0139462Y0174200D01*
X0129462Y0174200D02*
X0129462Y0180200D01*
X0104462Y0180200D02*
X0104462Y0174200D01*
X0094462Y0174200D02*
X0094462Y0180200D01*
X0074462Y0180200D02*
X0074462Y0174200D01*
X0064462Y0174200D02*
X0064462Y0180200D01*
X0054462Y0180200D02*
X0054462Y0174200D01*
X0104462Y0025200D02*
X0104462Y0019200D01*
X0114462Y0019200D02*
X0114462Y0025200D01*
X0124462Y0025200D02*
X0124462Y0019200D01*
D16*
X0029462Y0017200D03*
X0199462Y0017200D03*
X0199462Y0187200D03*
X0029462Y0187200D03*
D17*
X0106962Y0142200D03*
X0121962Y0119700D03*
M02*
