G75*
G70*
%OFA0B0*%
%FSLAX24Y24*%
%IPPOS*%
%LPD*%
%AMOC8*
5,1,8,0,0,1.08239X$1,22.5*
%
%ADD10R,0.0236X0.0866*%
%ADD11OC8,0.0520*%
%ADD12C,0.0520*%
%ADD13OC8,0.0630*%
%ADD14C,0.0630*%
%ADD15C,0.0600*%
%ADD16C,0.2100*%
%ADD17C,0.0240*%
%ADD18C,0.0660*%
D10*
X008196Y006485D03*
X008696Y006485D03*
X009196Y006485D03*
X009696Y006485D03*
X010196Y006485D03*
X010696Y006485D03*
X011196Y006485D03*
X011696Y006485D03*
X012196Y006485D03*
X012696Y006485D03*
X013196Y006485D03*
X013696Y006485D03*
X014196Y006485D03*
X014696Y006485D03*
X014696Y010815D03*
X014196Y010815D03*
X013696Y010815D03*
X013196Y010815D03*
X012696Y010815D03*
X012196Y010815D03*
X011696Y010815D03*
X011196Y010815D03*
X010696Y010815D03*
X010196Y010815D03*
X009696Y010815D03*
X009196Y010815D03*
X008696Y010815D03*
X008196Y010815D03*
D11*
X006446Y011150D03*
X005446Y011150D03*
X005446Y009650D03*
X006446Y009650D03*
X006446Y008150D03*
X005446Y008150D03*
X003946Y008150D03*
X003946Y009650D03*
X005446Y006650D03*
X006446Y006650D03*
X006446Y005150D03*
X005446Y005150D03*
X003946Y004150D03*
X005446Y002650D03*
X008446Y004250D03*
X009446Y002650D03*
X011346Y004650D03*
X013446Y004250D03*
X013446Y002650D03*
X016446Y005150D03*
X017446Y005150D03*
X017446Y006650D03*
X016446Y006650D03*
X016446Y008150D03*
X017446Y008150D03*
X017446Y009650D03*
X016446Y009650D03*
X016446Y011150D03*
X017446Y011150D03*
X018946Y010650D03*
X019946Y012650D03*
X019946Y014150D03*
X016946Y015650D03*
X015946Y014150D03*
X015946Y012650D03*
X013946Y013550D03*
X012946Y015650D03*
X010946Y013550D03*
X003946Y013650D03*
X017446Y002650D03*
X018946Y006650D03*
D12*
X013446Y005050D03*
X010546Y004650D03*
X008446Y005050D03*
X010946Y012750D03*
X013946Y012750D03*
D13*
X008946Y015150D03*
D14*
X009946Y015150D03*
D15*
X009446Y017350D02*
X009446Y017950D01*
X010446Y017950D02*
X010446Y017350D01*
X012946Y017350D02*
X012946Y017950D01*
X013946Y017950D02*
X013946Y017350D01*
X014946Y017350D02*
X014946Y017950D01*
X007446Y017950D02*
X007446Y017350D01*
X006446Y017350D02*
X006446Y017950D01*
X005446Y017950D02*
X005446Y017350D01*
X010446Y002450D02*
X010446Y001850D01*
X011446Y001850D02*
X011446Y002450D01*
X012446Y002450D02*
X012446Y001850D01*
D16*
X002946Y001650D03*
X002946Y018650D03*
X019946Y018650D03*
X019946Y001650D03*
D17*
X017446Y001150D02*
X011446Y001150D01*
X011446Y002150D01*
X011446Y003150D01*
X011346Y003550D01*
X011346Y004650D01*
X011946Y004750D01*
X011946Y005150D01*
X011696Y005400D01*
X011696Y006485D01*
X011696Y007900D01*
X009946Y009650D01*
X009446Y009650D01*
X009196Y009900D01*
X009196Y010815D01*
X008696Y010815D02*
X008696Y009900D01*
X008446Y009650D01*
X006446Y009650D01*
X005446Y009650D02*
X003946Y009650D01*
X003946Y008150D02*
X005446Y008150D01*
X005446Y006650D01*
X006446Y006650D02*
X006946Y006150D01*
X007862Y006150D01*
X008196Y006485D01*
X008696Y006485D02*
X008696Y007900D01*
X008446Y008150D01*
X006446Y008150D01*
X005446Y009650D02*
X005446Y011150D01*
X006446Y011150D02*
X007946Y011150D01*
X008196Y010900D01*
X008196Y010815D01*
X009446Y012150D02*
X006446Y012150D01*
X006446Y017650D01*
X005446Y017650D02*
X005446Y013650D01*
X003946Y013650D01*
X007446Y012650D02*
X007446Y017650D01*
X005446Y017650D02*
X005446Y018650D01*
X009446Y018650D01*
X013946Y018650D01*
X016446Y018650D01*
X016946Y018150D01*
X016946Y015650D01*
X019946Y015650D01*
X019946Y014150D01*
X019946Y012650D01*
X019946Y010650D01*
X018946Y010650D01*
X019946Y010650D02*
X019946Y005150D01*
X017446Y005150D01*
X017446Y002650D01*
X017446Y001150D01*
X016446Y005150D02*
X014446Y005150D01*
X013696Y005900D01*
X013696Y006485D01*
X013196Y006485D02*
X013196Y005400D01*
X013446Y005150D01*
X013346Y005150D01*
X013446Y005050D01*
X013446Y004250D02*
X013546Y004250D01*
X013446Y004150D01*
X013446Y002650D01*
X012946Y002150D01*
X012446Y002150D01*
X011446Y001150D02*
X005446Y001150D01*
X005446Y002650D01*
X005446Y004150D01*
X005446Y005150D01*
X005446Y004150D02*
X003946Y004150D01*
X006446Y005150D02*
X007446Y005150D01*
X007946Y005650D01*
X008946Y005650D01*
X009196Y005900D01*
X009196Y006485D01*
X009696Y006485D02*
X009696Y005400D01*
X009446Y005150D01*
X008946Y005150D01*
X008446Y005050D01*
X008446Y004250D02*
X009346Y004250D01*
X009446Y004150D01*
X009446Y002650D01*
X009946Y002150D01*
X010446Y002150D01*
X010546Y004650D02*
X010446Y004750D01*
X010946Y005150D01*
X011196Y005400D01*
X011196Y006485D01*
X014196Y006485D02*
X014196Y007900D01*
X014446Y008150D01*
X016446Y008150D01*
X017446Y008150D02*
X017446Y006650D01*
X018946Y006650D01*
X016446Y006650D02*
X015946Y006150D01*
X014946Y006150D01*
X014696Y006400D01*
X014696Y006485D01*
X014446Y009650D02*
X016446Y009650D01*
X017446Y009650D02*
X017446Y011150D01*
X017446Y012650D01*
X015946Y012650D01*
X015946Y014150D02*
X015546Y014300D01*
X014946Y014300D01*
X014946Y017650D01*
X013946Y017650D02*
X013946Y018650D01*
X012946Y017650D02*
X012946Y015650D01*
X012946Y014150D01*
X012346Y013550D01*
X010946Y013550D01*
X010946Y012750D02*
X010696Y012500D01*
X010696Y010815D01*
X010196Y010815D02*
X010196Y012400D01*
X009946Y012650D01*
X007446Y012650D01*
X009446Y012150D02*
X009696Y011900D01*
X009696Y010815D01*
X012196Y010815D02*
X012196Y011400D01*
X012446Y011650D01*
X012446Y012150D01*
X013696Y012500D02*
X013696Y010815D01*
X014196Y010815D02*
X014196Y009900D01*
X014446Y009650D01*
X014696Y010815D02*
X014696Y010900D01*
X014946Y011150D01*
X016446Y011150D01*
X013946Y012750D02*
X013696Y012500D01*
X013946Y013550D02*
X014946Y014300D01*
X011946Y014650D02*
X011946Y015150D01*
X010446Y015150D01*
X009946Y015150D01*
X010446Y015150D02*
X010446Y017650D01*
X009446Y017650D02*
X009446Y018650D01*
X009446Y017650D02*
X009446Y016150D01*
X008946Y015650D01*
X008946Y015150D01*
D18*
X011946Y014650D03*
X012446Y012150D03*
M02*
