G75*
%MOIN*%
%OFA0B0*%
%FSLAX25Y25*%
%IPPOS*%
%LPD*%
%AMOC8*
5,1,8,0,0,1.08239X$1,22.5*
%
%ADD10C,0.06000*%
%ADD11C,0.06800*%
%ADD12OC8,0.06000*%
%ADD13C,0.21800*%
%ADD14C,0.07400*%
D10*
X0047595Y0083900D02*
X0047595Y0089100D01*
X0057595Y0089100D02*
X0057595Y0083900D01*
X0067595Y0083900D02*
X0067595Y0089100D01*
X0077595Y0089100D02*
X0077595Y0083900D01*
X0077595Y0113900D02*
X0077595Y0119100D01*
X0067595Y0119100D02*
X0067595Y0113900D01*
X0057595Y0113900D02*
X0057595Y0119100D01*
X0047595Y0119100D02*
X0047595Y0113900D01*
X0147595Y0113900D02*
X0147595Y0119100D01*
X0157595Y0119100D02*
X0157595Y0113900D01*
X0167595Y0113900D02*
X0167595Y0119100D01*
X0177595Y0119100D02*
X0177595Y0113900D01*
X0177595Y0089100D02*
X0177595Y0083900D01*
X0167595Y0083900D02*
X0167595Y0089100D01*
X0157595Y0089100D02*
X0157595Y0083900D01*
X0147595Y0083900D02*
X0147595Y0089100D01*
D11*
X0127595Y0039500D02*
X0127595Y0033500D01*
X0117595Y0033500D02*
X0117595Y0039500D01*
X0107595Y0039500D02*
X0107595Y0033500D01*
X0097595Y0033500D02*
X0097595Y0039500D01*
X0087595Y0039500D02*
X0087595Y0033500D01*
X0077595Y0033500D02*
X0077595Y0039500D01*
X0107595Y0138500D02*
X0107595Y0144500D01*
X0117595Y0144500D02*
X0117595Y0138500D01*
X0127595Y0138500D02*
X0127595Y0144500D01*
D12*
X0147595Y0141500D03*
X0147595Y0131500D03*
X0132595Y0116500D03*
X0132595Y0086500D03*
X0147595Y0071500D03*
X0157595Y0071500D03*
X0167595Y0131500D03*
X0167595Y0141500D03*
X0182595Y0141500D03*
X0182595Y0131500D03*
X0082595Y0131500D03*
X0082595Y0141500D03*
X0067595Y0141500D03*
X0067595Y0131500D03*
X0047595Y0131500D03*
X0047595Y0141500D03*
X0032595Y0116500D03*
X0032595Y0086500D03*
X0047595Y0071500D03*
X0057595Y0071500D03*
D13*
X0032595Y0016500D03*
X0032595Y0161500D03*
X0192595Y0161500D03*
X0192595Y0016500D03*
D14*
X0117595Y0051500D03*
X0097595Y0061500D03*
X0087595Y0061500D03*
X0077595Y0051500D03*
X0087595Y0081500D03*
X0097595Y0106500D03*
X0097595Y0116500D03*
X0122595Y0116500D03*
M02*
