G75*
G70*
%OFA0B0*%
%FSLAX24Y24*%
%IPPOS*%
%LPD*%
%AMOC8*
5,1,8,0,0,1.08239X$1,22.5*
%
%ADD10C,0.0520*%
%ADD11C,0.0600*%
%ADD12OC8,0.0520*%
%ADD13C,0.2100*%
%ADD14C,0.0400*%
%ADD15C,0.0660*%
D10*
X004760Y008390D02*
X004760Y008910D01*
X005760Y008910D02*
X005760Y008390D01*
X006760Y008390D02*
X006760Y008910D01*
X007760Y008910D02*
X007760Y008390D01*
X007760Y011390D02*
X007760Y011910D01*
X006760Y011910D02*
X006760Y011390D01*
X005760Y011390D02*
X005760Y011910D01*
X004760Y011910D02*
X004760Y011390D01*
X014760Y011390D02*
X014760Y011910D01*
X015760Y011910D02*
X015760Y011390D01*
X016760Y011390D02*
X016760Y011910D01*
X017760Y011910D02*
X017760Y011390D01*
X017760Y008910D02*
X017760Y008390D01*
X016760Y008390D02*
X016760Y008910D01*
X015760Y008910D02*
X015760Y008390D01*
X014760Y008390D02*
X014760Y008910D01*
D11*
X012760Y003950D02*
X012760Y003350D01*
X011760Y003350D02*
X011760Y003950D01*
X010760Y003950D02*
X010760Y003350D01*
X009760Y003350D02*
X009760Y003950D01*
X008760Y003950D02*
X008760Y003350D01*
X007760Y003350D02*
X007760Y003950D01*
X010760Y013850D02*
X010760Y014450D01*
X011760Y014450D02*
X011760Y013850D01*
X012760Y013850D02*
X012760Y014450D01*
D12*
X014760Y014150D03*
X014760Y013150D03*
X013260Y011650D03*
X013260Y008650D03*
X014760Y007150D03*
X015760Y007150D03*
X016760Y013150D03*
X016760Y014150D03*
X018260Y014150D03*
X018260Y013150D03*
X008260Y013150D03*
X008260Y014150D03*
X006760Y014150D03*
X006760Y013150D03*
X004760Y013150D03*
X004760Y014150D03*
X003260Y011650D03*
X003260Y008650D03*
X004760Y007150D03*
X005760Y007150D03*
D13*
X003260Y001650D03*
X003260Y016150D03*
X019260Y016150D03*
X019260Y001650D03*
D14*
X011760Y005150D02*
X007760Y005150D01*
X008760Y006150D02*
X008760Y008150D01*
X009760Y006150D02*
X009760Y010650D01*
X009760Y011650D02*
X012260Y011650D01*
D15*
X012260Y011650D03*
X009760Y011650D03*
X009760Y010650D03*
X008760Y008150D03*
X008760Y006150D03*
X009760Y006150D03*
X007760Y005150D03*
X011760Y005150D03*
M02*
