G75*
G70*
%OFA0B0*%
%FSLAX24Y24*%
%IPPOS*%
%LPD*%
%AMOC8*
5,1,8,0,0,1.08239X$1,22.5*
%
%ADD10C,0.0100*%
%ADD11C,0.0051*%
%ADD12C,0.0110*%
D10*
X001760Y000150D02*
X001760Y017646D01*
X020630Y017646D01*
X020630Y000150D01*
X001760Y000150D01*
D11*
X000492Y000150D01*
X001260Y000150D02*
X001362Y001174D01*
X001385Y001174D02*
X001260Y000150D01*
X001157Y001174D01*
X001134Y001174D02*
X001385Y001174D01*
X001311Y001174D02*
X001260Y000150D01*
X001208Y001174D01*
X001134Y001174D02*
X001260Y000150D01*
X001260Y017650D01*
X001362Y016626D01*
X001385Y016626D02*
X001260Y017650D01*
X001157Y016626D01*
X001134Y016626D02*
X001385Y016626D01*
X001311Y016626D02*
X001260Y017650D01*
X001208Y016626D01*
X001134Y016626D02*
X001260Y017650D01*
X001760Y017650D02*
X000492Y017650D01*
X001760Y017646D02*
X001760Y018918D01*
X001760Y018150D02*
X002783Y018048D01*
X002783Y018024D02*
X001760Y018150D01*
X002783Y018252D01*
X002783Y018276D02*
X002783Y018024D01*
X002783Y018099D02*
X001760Y018150D01*
X002783Y018201D01*
X002783Y018276D02*
X001760Y018150D01*
X020630Y018150D01*
X019606Y018048D01*
X019606Y018024D02*
X020630Y018150D01*
X019606Y018252D01*
X019606Y018276D02*
X019606Y018024D01*
X019606Y018099D02*
X020630Y018150D01*
X019606Y018201D01*
X019606Y018276D02*
X020630Y018150D01*
X020630Y017646D02*
X020630Y018918D01*
D12*
X012449Y018923D02*
X012449Y018825D01*
X012350Y018726D01*
X012449Y018628D01*
X012449Y018530D01*
X012350Y018431D01*
X012154Y018431D01*
X012055Y018530D01*
X012252Y018726D02*
X012350Y018726D01*
X012449Y018923D02*
X012350Y019022D01*
X012154Y019022D01*
X012055Y018923D01*
X011804Y018923D02*
X011804Y018530D01*
X011706Y018431D01*
X011509Y018431D01*
X011411Y018530D01*
X011509Y018726D02*
X011411Y018825D01*
X011411Y018923D01*
X011509Y019022D01*
X011706Y019022D01*
X011804Y018923D01*
X011804Y018726D02*
X011509Y018726D01*
X011187Y018530D02*
X011187Y018431D01*
X011088Y018431D01*
X011088Y018530D01*
X011187Y018530D01*
X010838Y018923D02*
X010444Y018530D01*
X010444Y018431D01*
X010095Y018431D02*
X010095Y019022D01*
X009799Y018726D01*
X010193Y018726D01*
X010444Y019022D02*
X010838Y019022D01*
X010838Y018923D01*
X000978Y010056D02*
X000978Y009859D01*
X000880Y009761D01*
X000683Y009761D02*
X000585Y009958D01*
X000585Y010056D01*
X000683Y010154D01*
X000880Y010154D01*
X000978Y010056D01*
X000683Y009761D02*
X000388Y009761D01*
X000388Y010154D01*
X000683Y009510D02*
X000683Y009116D01*
X000388Y009411D01*
X000978Y009411D01*
X000978Y008892D02*
X000978Y008794D01*
X000880Y008794D01*
X000880Y008892D01*
X000978Y008892D01*
X000683Y008543D02*
X000683Y008149D01*
X000388Y008445D01*
X000978Y008445D01*
X000683Y007898D02*
X000683Y007505D01*
X000388Y007800D01*
X000978Y007800D01*
M02*
