G75*
%MOIN*%
%OFA0B0*%
%FSLAX25Y25*%
%IPPOS*%
%LPD*%
%AMOC8*
5,1,8,0,0,1.08239X$1,22.5*
%
%ADD10C,0.01000*%
%ADD11C,0.00512*%
%ADD12C,0.01100*%
D10*
X0017595Y0001500D02*
X0017595Y0176461D01*
X0206296Y0176461D01*
X0206296Y0001500D01*
X0017595Y0001500D01*
D11*
X0004918Y0001500D01*
X0012595Y0001756D02*
X0013619Y0011736D01*
X0013852Y0011736D02*
X0012595Y0001756D01*
X0011572Y0011736D01*
X0011338Y0011736D02*
X0013852Y0011736D01*
X0013107Y0011736D02*
X0012595Y0001756D01*
X0012083Y0011736D01*
X0011338Y0011736D02*
X0012595Y0001756D01*
X0012595Y0176244D01*
X0013619Y0166264D01*
X0013852Y0166264D02*
X0012595Y0176244D01*
X0011572Y0166264D01*
X0011338Y0166264D02*
X0013852Y0166264D01*
X0013107Y0166264D02*
X0012595Y0176244D01*
X0012083Y0166264D01*
X0011338Y0166264D02*
X0012595Y0176244D01*
X0017595Y0176461D02*
X0017595Y0189177D01*
X0017851Y0181500D02*
X0027831Y0180476D01*
X0027831Y0180243D02*
X0017851Y0181500D01*
X0027831Y0182524D01*
X0027831Y0182757D02*
X0027831Y0180243D01*
X0027831Y0180988D02*
X0017851Y0181500D01*
X0027831Y0182012D01*
X0027831Y0182757D02*
X0017851Y0181500D01*
X0206040Y0181500D01*
X0196060Y0180476D01*
X0196060Y0180243D02*
X0206040Y0181500D01*
X0196060Y0182524D01*
X0196060Y0182757D02*
X0196060Y0180243D01*
X0196060Y0180988D02*
X0206040Y0181500D01*
X0196060Y0182012D01*
X0196060Y0182757D02*
X0206040Y0181500D01*
X0206296Y0176461D02*
X0206296Y0189177D01*
X0017595Y0176500D02*
X0004918Y0176500D01*
D12*
X0003878Y0103395D02*
X0003878Y0099459D01*
X0006831Y0099459D01*
X0005847Y0101427D01*
X0005847Y0102411D01*
X0006831Y0103395D01*
X0008799Y0103395D01*
X0009783Y0102411D01*
X0009783Y0100443D01*
X0008799Y0099459D01*
X0006831Y0096950D02*
X0006831Y0093013D01*
X0003878Y0095966D01*
X0009783Y0095966D01*
X0009783Y0090774D02*
X0009783Y0089790D01*
X0008799Y0089790D01*
X0008799Y0090774D01*
X0009783Y0090774D01*
X0009783Y0086297D02*
X0003878Y0086297D01*
X0006831Y0083345D01*
X0006831Y0087281D01*
X0006831Y0080836D02*
X0006831Y0076899D01*
X0003878Y0079852D01*
X0009783Y0079852D01*
X0102797Y0184312D02*
X0102797Y0190217D01*
X0099845Y0187264D01*
X0103782Y0187264D01*
X0106290Y0185296D02*
X0106290Y0184312D01*
X0106290Y0185296D02*
X0110227Y0189233D01*
X0110227Y0190217D01*
X0106290Y0190217D01*
X0112736Y0185296D02*
X0113720Y0185296D01*
X0113720Y0184312D01*
X0112736Y0184312D01*
X0112736Y0185296D01*
X0115959Y0185296D02*
X0116943Y0184312D01*
X0118911Y0184312D01*
X0119895Y0185296D01*
X0119895Y0189233D01*
X0118911Y0190217D01*
X0116943Y0190217D01*
X0115959Y0189233D01*
X0115959Y0188248D01*
X0116943Y0187264D01*
X0119895Y0187264D01*
X0122404Y0185296D02*
X0123388Y0184312D01*
X0125357Y0184312D01*
X0126341Y0185296D01*
X0126341Y0186280D01*
X0125357Y0187264D01*
X0124372Y0187264D01*
X0125357Y0187264D02*
X0126341Y0188248D01*
X0126341Y0189233D01*
X0125357Y0190217D01*
X0123388Y0190217D01*
X0122404Y0189233D01*
M02*
