G75*
G70*
%OFA0B0*%
%FSLAX24Y24*%
%IPPOS*%
%LPD*%
%AMOC8*
5,1,8,0,0,1.08239X$1,22.5*
%
%ADD10C,0.0594*%
%ADD11C,0.0750*%
%ADD12C,0.0660*%
%ADD13R,0.0650X0.0650*%
%ADD14C,0.0600*%
%ADD15C,0.0400*%
%ADD16C,0.0320*%
%ADD17R,0.0760X0.0760*%
D10*
X012818Y016353D02*
X012818Y016947D01*
X014156Y016947D02*
X014156Y016353D01*
X015495Y016353D02*
X015495Y016947D01*
X016833Y016947D02*
X016833Y016353D01*
X018172Y016353D02*
X018172Y016947D01*
X019510Y016947D02*
X019510Y016353D01*
X020849Y016353D02*
X020849Y016947D01*
X020180Y018353D02*
X020180Y018947D01*
X018841Y018947D02*
X018841Y018353D01*
X017503Y018353D02*
X017503Y018947D01*
X016164Y018947D02*
X016164Y018353D01*
X014825Y018353D02*
X014825Y018947D01*
X013487Y018947D02*
X013487Y018353D01*
D11*
X020833Y013325D03*
X020833Y009625D03*
X019583Y008200D03*
X017633Y005150D03*
X019583Y004500D03*
X013933Y005150D03*
D12*
X016833Y009650D03*
D13*
X013833Y009650D03*
D14*
X012958Y002950D02*
X012958Y002350D01*
X013958Y002350D02*
X013958Y002950D01*
X018833Y002950D02*
X018833Y002350D01*
X019833Y002350D02*
X019833Y002950D01*
X020833Y002950D02*
X020833Y002350D01*
X022783Y010650D02*
X023383Y010650D01*
X023383Y011650D02*
X022783Y011650D01*
X010383Y011650D02*
X009783Y011650D01*
X009783Y010650D02*
X010383Y010650D01*
D15*
X010083Y010650D02*
X010833Y010650D01*
X011333Y011150D01*
X011333Y020150D01*
X013833Y020150D01*
X014825Y020142D01*
X014825Y018650D01*
X016164Y018650D02*
X016164Y020981D01*
X015833Y021150D01*
X010333Y021150D01*
X010333Y011900D01*
X010083Y011650D01*
X013833Y009650D02*
X014156Y009973D01*
X014156Y016650D01*
X012833Y016634D02*
X012833Y014150D01*
X015495Y016650D02*
X015495Y010989D01*
X016833Y009650D01*
X017633Y008850D01*
X017633Y005150D01*
X017333Y005150D01*
X017333Y002650D01*
X017333Y001150D01*
X019833Y001150D01*
X019833Y002650D01*
X020833Y002650D02*
X020833Y009625D01*
X020333Y010650D02*
X023083Y010650D01*
X023083Y011650D02*
X020833Y011650D01*
X019833Y012650D01*
X019833Y014989D01*
X018172Y016650D01*
X016833Y016650D02*
X018833Y014650D01*
X018833Y012150D01*
X020333Y010650D01*
X019583Y008200D02*
X017533Y010825D01*
X013933Y009550D02*
X013833Y009650D01*
X013933Y009550D02*
X013933Y005150D01*
X013933Y004550D01*
X012958Y003900D01*
X012958Y002650D01*
X013958Y002650D02*
X017333Y002650D01*
X018833Y002650D02*
X018833Y004525D01*
X019583Y004500D01*
X020833Y013325D02*
X020849Y014591D01*
X020849Y016650D01*
X022333Y014900D02*
X022333Y020650D01*
X018833Y020650D01*
X018841Y020158D01*
X018841Y018650D01*
X017458Y014150D02*
X017432Y013041D01*
X017457Y011932D01*
X017533Y010825D01*
D16*
X015495Y016650D02*
X015458Y016686D01*
X015458Y017275D01*
X015333Y017650D01*
X015708Y017650D01*
X017083Y017650D01*
X017503Y018069D01*
X017503Y018650D01*
X015708Y017650D02*
X015458Y017400D01*
X015458Y017275D01*
X015333Y017650D02*
X013833Y017650D01*
X013487Y017996D01*
X013487Y018650D01*
X012818Y016650D02*
X012833Y016634D01*
D17*
X014208Y014900D03*
X012833Y014150D03*
X017458Y014150D03*
X022333Y014900D03*
M02*
