G75*
%MOIN*%
%OFA0B0*%
%FSLAX25Y25*%
%IPPOS*%
%LPD*%
%AMOC8*
5,1,8,0,0,1.08239X$1,22.5*
%
%ADD10C,0.06737*%
%ADD11C,0.08300*%
%ADD12C,0.07400*%
%ADD13R,0.07300X0.07300*%
%ADD14C,0.06800*%
%ADD15R,0.08400X0.08400*%
D10*
X0128176Y0163531D02*
X0128176Y0169469D01*
X0141562Y0169469D02*
X0141562Y0163531D01*
X0154948Y0163531D02*
X0154948Y0169469D01*
X0168333Y0169469D02*
X0168333Y0163531D01*
X0181719Y0163531D02*
X0181719Y0169469D01*
X0195105Y0169469D02*
X0195105Y0163531D01*
X0208491Y0163531D02*
X0208491Y0169469D01*
X0201798Y0183531D02*
X0201798Y0189469D01*
X0188412Y0189469D02*
X0188412Y0183531D01*
X0175026Y0183531D02*
X0175026Y0189469D01*
X0161640Y0189469D02*
X0161640Y0183531D01*
X0148255Y0183531D02*
X0148255Y0189469D01*
X0134869Y0189469D02*
X0134869Y0183531D01*
D11*
X0208333Y0133250D03*
X0208333Y0096250D03*
X0195833Y0082000D03*
X0176333Y0051500D03*
X0195833Y0045000D03*
X0139333Y0051500D03*
D12*
X0168333Y0096500D03*
D13*
X0138333Y0096500D03*
D14*
X0129583Y0029500D02*
X0129583Y0023500D01*
X0139583Y0023500D02*
X0139583Y0029500D01*
X0188333Y0029500D02*
X0188333Y0023500D01*
X0198333Y0023500D02*
X0198333Y0029500D01*
X0208333Y0029500D02*
X0208333Y0023500D01*
X0227833Y0106500D02*
X0233833Y0106500D01*
X0233833Y0116500D02*
X0227833Y0116500D01*
X0103833Y0116500D02*
X0097833Y0116500D01*
X0097833Y0106500D02*
X0103833Y0106500D01*
D15*
X0128333Y0141500D03*
X0142083Y0149000D03*
X0174583Y0141500D03*
X0223333Y0149000D03*
M02*
