G75*
G70*
%OFA0B0*%
%FSLAX24Y24*%
%IPPOS*%
%LPD*%
%AMOC8*
5,1,8,0,0,1.08239X$1,22.5*
%
%ADD10C,0.0100*%
%ADD11C,0.0050*%
%ADD12C,0.0051*%
%ADD13C,0.0110*%
%ADD14C,0.0080*%
%ADD15C,0.0295*%
%ADD16C,0.0040*%
%ADD17C,0.0010*%
%ADD18C,0.0030*%
%ADD19C,0.0060*%
D10*
X008333Y000150D02*
X008333Y022146D01*
X024703Y022146D01*
X024703Y000150D01*
X008333Y000150D01*
D11*
X012358Y001265D02*
X012448Y001175D01*
X012538Y001265D01*
X012538Y001445D01*
X012653Y001400D02*
X012653Y001220D01*
X012698Y001175D01*
X012788Y001175D01*
X012833Y001220D01*
X012948Y001220D02*
X012948Y001400D01*
X012993Y001445D01*
X013083Y001445D01*
X013128Y001400D01*
X013128Y001220D02*
X013083Y001175D01*
X012993Y001175D01*
X012948Y001220D01*
X012833Y001400D02*
X012788Y001445D01*
X012698Y001445D01*
X012653Y001400D01*
X012358Y001445D02*
X012358Y001265D01*
X013537Y001220D02*
X013582Y001175D01*
X013672Y001175D01*
X013717Y001220D01*
X013717Y001310D01*
X013627Y001310D01*
X013537Y001400D02*
X013537Y001220D01*
X013537Y001400D02*
X013582Y001445D01*
X013672Y001445D01*
X013717Y001400D01*
X013832Y001445D02*
X014012Y001175D01*
X014012Y001445D01*
X014126Y001445D02*
X014261Y001445D01*
X014306Y001400D01*
X014306Y001220D01*
X014261Y001175D01*
X014126Y001175D01*
X014126Y001445D01*
X013832Y001445D02*
X013832Y001175D01*
X013599Y003395D02*
X013599Y003845D01*
X013374Y003620D01*
X013674Y003620D01*
X013214Y003620D02*
X013139Y003545D01*
X012914Y003545D01*
X012914Y003395D02*
X012914Y003845D01*
X013139Y003845D01*
X013214Y003770D01*
X013214Y003620D01*
X012754Y003845D02*
X012603Y003845D01*
X012679Y003845D02*
X012679Y003470D01*
X012603Y003395D01*
X012528Y003395D01*
X012453Y003470D01*
X018328Y003470D02*
X018403Y003395D01*
X018478Y003395D01*
X018554Y003470D01*
X018554Y003845D01*
X018629Y003845D02*
X018478Y003845D01*
X018789Y003845D02*
X019014Y003845D01*
X019089Y003770D01*
X019089Y003620D01*
X019014Y003545D01*
X018789Y003545D01*
X018789Y003395D02*
X018789Y003845D01*
X019249Y003695D02*
X019399Y003845D01*
X019399Y003395D01*
X019249Y003395D02*
X019549Y003395D01*
X019555Y001445D02*
X019735Y001175D01*
X019735Y001445D01*
X019849Y001445D02*
X019849Y001175D01*
X019849Y001265D02*
X019985Y001265D01*
X020030Y001310D01*
X020030Y001400D01*
X019985Y001445D01*
X019849Y001445D01*
X019555Y001445D02*
X019555Y001175D01*
X019448Y001175D02*
X019358Y001175D01*
X019403Y001175D02*
X019403Y001445D01*
X019358Y001445D02*
X019448Y001445D01*
X020144Y001445D02*
X020144Y001220D01*
X020189Y001175D01*
X020279Y001175D01*
X020324Y001220D01*
X020324Y001445D01*
X020439Y001445D02*
X020619Y001445D01*
X020529Y001445D02*
X020529Y001175D01*
X022263Y010145D02*
X022338Y010220D01*
X022338Y010295D01*
X022263Y010370D01*
X021888Y010370D01*
X021888Y010295D02*
X021888Y010445D01*
X021888Y010605D02*
X021888Y010831D01*
X021963Y010906D01*
X022113Y010906D01*
X022188Y010831D01*
X022188Y010605D01*
X022338Y010605D02*
X021888Y010605D01*
X021963Y011066D02*
X021888Y011141D01*
X021888Y011291D01*
X021963Y011366D01*
X022038Y011366D01*
X022113Y011291D01*
X022188Y011366D01*
X022263Y011366D01*
X022338Y011291D01*
X022338Y011141D01*
X022263Y011066D01*
X022113Y011216D02*
X022113Y011291D01*
X022153Y012675D02*
X022153Y012945D01*
X022288Y012945D01*
X022333Y012900D01*
X022333Y012810D01*
X022288Y012765D01*
X022153Y012765D01*
X022038Y012765D02*
X022038Y012720D01*
X021993Y012675D01*
X021903Y012675D01*
X021858Y012720D01*
X021903Y012810D02*
X021993Y012810D01*
X022038Y012765D01*
X022038Y012900D02*
X021993Y012945D01*
X021903Y012945D01*
X021858Y012900D01*
X021858Y012855D01*
X021903Y012810D01*
X022448Y012810D02*
X022538Y012810D01*
X022448Y012675D02*
X022628Y012675D01*
X022742Y012675D02*
X022742Y012855D01*
X022832Y012945D01*
X022922Y012855D01*
X022922Y012675D01*
X023037Y012675D02*
X023037Y012945D01*
X023082Y012810D02*
X023217Y012675D01*
X023332Y012675D02*
X023512Y012675D01*
X023626Y012675D02*
X023626Y012945D01*
X023761Y012945D01*
X023806Y012900D01*
X023806Y012810D01*
X023761Y012765D01*
X023626Y012765D01*
X023716Y012765D02*
X023806Y012675D01*
X023921Y012675D02*
X024101Y012855D01*
X024101Y012900D01*
X024056Y012945D01*
X023966Y012945D01*
X023921Y012900D01*
X023921Y012675D02*
X024101Y012675D01*
X023512Y012945D02*
X023332Y012945D01*
X023332Y012675D01*
X023332Y012810D02*
X023422Y012810D01*
X023217Y012945D02*
X023037Y012765D01*
X022922Y012810D02*
X022742Y012810D01*
X022628Y012945D02*
X022448Y012945D01*
X022448Y012675D01*
X011101Y012675D02*
X010921Y012675D01*
X011011Y012675D02*
X011011Y012945D01*
X010921Y012855D01*
X010806Y012810D02*
X010761Y012765D01*
X010626Y012765D01*
X010626Y012675D02*
X010626Y012945D01*
X010761Y012945D01*
X010806Y012900D01*
X010806Y012810D01*
X010716Y012765D02*
X010806Y012675D01*
X010512Y012675D02*
X010332Y012675D01*
X010332Y012945D01*
X010512Y012945D01*
X010422Y012810D02*
X010332Y012810D01*
X010217Y012675D02*
X010082Y012810D01*
X010037Y012765D02*
X010217Y012945D01*
X010037Y012945D02*
X010037Y012675D01*
X009922Y012675D02*
X009922Y012855D01*
X009832Y012945D01*
X009742Y012855D01*
X009742Y012675D01*
X009628Y012675D02*
X009448Y012675D01*
X009448Y012945D01*
X009628Y012945D01*
X009538Y012810D02*
X009448Y012810D01*
X009333Y012810D02*
X009288Y012765D01*
X009153Y012765D01*
X009153Y012675D02*
X009153Y012945D01*
X009288Y012945D01*
X009333Y012900D01*
X009333Y012810D01*
X009038Y012765D02*
X009038Y012720D01*
X008993Y012675D01*
X008903Y012675D01*
X008858Y012720D01*
X008903Y012810D02*
X008993Y012810D01*
X009038Y012765D01*
X009038Y012900D02*
X008993Y012945D01*
X008903Y012945D01*
X008858Y012900D01*
X008858Y012855D01*
X008903Y012810D01*
X009742Y012810D02*
X009922Y012810D01*
X009338Y011366D02*
X009338Y011066D01*
X009038Y011366D01*
X008963Y011366D01*
X008888Y011291D01*
X008888Y011141D01*
X008963Y011066D01*
X008963Y010906D02*
X009113Y010906D01*
X009188Y010831D01*
X009188Y010605D01*
X009338Y010605D02*
X008888Y010605D01*
X008888Y010831D01*
X008963Y010906D01*
X008888Y010445D02*
X008888Y010295D01*
X008888Y010370D02*
X009263Y010370D01*
X009338Y010295D01*
X009338Y010220D01*
X009263Y010145D01*
D12*
X008333Y022146D02*
X008333Y023418D01*
X008333Y022146D01*
X008333Y022650D02*
X009357Y022548D01*
X008333Y022650D01*
X009357Y022752D01*
X008333Y022650D01*
X009357Y022599D01*
X008333Y022650D01*
X009357Y022701D01*
X008333Y022650D01*
X009357Y022524D01*
X009357Y022776D01*
X008333Y022650D01*
X024703Y022650D01*
X023680Y022548D01*
X024703Y022650D01*
X023680Y022752D01*
X024703Y022650D01*
X023680Y022599D01*
X024703Y022650D01*
X023680Y022701D01*
X024703Y022650D01*
X023680Y022524D01*
X023680Y022776D01*
X024703Y022650D01*
X023680Y022524D01*
X023680Y022776D01*
X024703Y022650D01*
X008333Y022650D01*
X009357Y022524D01*
X009357Y022776D01*
X008333Y022650D01*
X024703Y022146D02*
X024703Y023418D01*
X024703Y022146D01*
D13*
X017773Y023030D02*
X017674Y022931D01*
X017477Y022931D01*
X017379Y023030D01*
X017379Y023128D01*
X017477Y023226D01*
X017674Y023226D01*
X017773Y023128D01*
X017773Y023030D01*
X017674Y022931D01*
X017477Y022931D01*
X017379Y023030D01*
X017379Y023128D01*
X017477Y023226D01*
X017379Y023325D01*
X017379Y023423D01*
X017477Y023522D01*
X017674Y023522D01*
X017773Y023423D01*
X017773Y023325D01*
X017674Y023226D01*
X017477Y023226D01*
X017379Y023325D01*
X017379Y023423D01*
X017477Y023522D01*
X017674Y023522D01*
X017773Y023423D01*
X017773Y023325D01*
X017674Y023226D01*
X017773Y023128D01*
X017773Y023030D01*
X017128Y023030D02*
X017030Y022931D01*
X016833Y022931D01*
X016735Y023030D01*
X016833Y022931D01*
X017030Y022931D01*
X017128Y023030D01*
X017128Y023226D01*
X017030Y023325D01*
X016931Y023325D01*
X016735Y023226D01*
X016735Y023522D01*
X017128Y023522D01*
X016735Y023522D01*
X016735Y023226D01*
X016931Y023325D01*
X017030Y023325D01*
X017128Y023226D01*
X017128Y023030D01*
X016511Y023030D02*
X016511Y022931D01*
X016412Y022931D01*
X016412Y023030D01*
X016511Y023030D01*
X016511Y022931D01*
X016412Y022931D01*
X016412Y023030D01*
X016511Y023030D01*
X016161Y022931D02*
X015768Y022931D01*
X016161Y022931D01*
X015965Y022931D02*
X015965Y023522D01*
X015768Y023325D01*
X015965Y023522D01*
X015965Y022931D01*
X015517Y023226D02*
X015123Y023226D01*
X015418Y023522D01*
X015418Y022931D01*
X015418Y023522D01*
X015123Y023226D01*
X015517Y023226D01*
D14*
X012247Y020304D02*
X021420Y020304D01*
X021518Y019556D01*
X021420Y018571D01*
X020581Y018571D01*
X019778Y018571D02*
X019243Y018571D01*
X018440Y018571D02*
X017904Y018571D01*
X017101Y018571D02*
X016566Y018571D01*
X015762Y018571D02*
X015227Y018571D01*
X014424Y018571D02*
X013888Y018571D01*
X013085Y018571D02*
X012247Y018571D01*
X012148Y019556D01*
X012247Y020304D01*
X020833Y012525D02*
X020833Y011525D01*
X020833Y010525D01*
X020833Y011525D02*
X020583Y011525D01*
X020833Y011525D02*
X021083Y011525D01*
X017083Y008900D02*
X016583Y008900D01*
X012183Y009650D02*
X012187Y009805D01*
X012198Y009959D01*
X012217Y010112D01*
X012244Y010265D01*
X012277Y010415D01*
X012319Y010564D01*
X012367Y010711D01*
X012423Y010855D01*
X012485Y010997D01*
X012555Y011135D01*
X012631Y011269D01*
X012714Y011400D01*
X012803Y011526D01*
X012898Y011648D01*
X012999Y011765D01*
X013106Y011877D01*
X013218Y011984D01*
X013335Y012085D01*
X013457Y012180D01*
X013583Y012269D01*
X013714Y012352D01*
X013848Y012428D01*
X013986Y012498D01*
X014128Y012560D01*
X014272Y012616D01*
X014419Y012664D01*
X014568Y012706D01*
X014718Y012739D01*
X014871Y012766D01*
X015024Y012785D01*
X015178Y012796D01*
X015333Y012800D01*
X015488Y012796D01*
X015642Y012785D01*
X015795Y012766D01*
X015948Y012739D01*
X016098Y012706D01*
X016247Y012664D01*
X016394Y012616D01*
X016538Y012560D01*
X016680Y012498D01*
X016818Y012428D01*
X016952Y012352D01*
X017083Y012269D01*
X017209Y012180D01*
X017331Y012085D01*
X017448Y011984D01*
X017560Y011877D01*
X017667Y011765D01*
X017768Y011648D01*
X017863Y011526D01*
X017952Y011400D01*
X018035Y011269D01*
X018111Y011135D01*
X018181Y010997D01*
X018243Y010855D01*
X018299Y010711D01*
X018347Y010564D01*
X018389Y010415D01*
X018422Y010265D01*
X018449Y010112D01*
X018468Y009959D01*
X018479Y009805D01*
X018483Y009650D01*
X018479Y009495D01*
X018468Y009341D01*
X018449Y009188D01*
X018422Y009035D01*
X018389Y008885D01*
X018347Y008736D01*
X018299Y008589D01*
X018243Y008445D01*
X018181Y008303D01*
X018111Y008165D01*
X018035Y008031D01*
X017952Y007900D01*
X017863Y007774D01*
X017768Y007652D01*
X017667Y007535D01*
X017560Y007423D01*
X017448Y007316D01*
X017331Y007215D01*
X017209Y007120D01*
X017083Y007031D01*
X016952Y006948D01*
X016818Y006872D01*
X016680Y006802D01*
X016538Y006740D01*
X016394Y006684D01*
X016247Y006636D01*
X016098Y006594D01*
X015948Y006561D01*
X015795Y006534D01*
X015642Y006515D01*
X015488Y006504D01*
X015333Y006500D01*
X015178Y006504D01*
X015024Y006515D01*
X014871Y006534D01*
X014718Y006561D01*
X014568Y006594D01*
X014419Y006636D01*
X014272Y006684D01*
X014128Y006740D01*
X013986Y006802D01*
X013848Y006872D01*
X013714Y006948D01*
X013583Y007031D01*
X013457Y007120D01*
X013335Y007215D01*
X013218Y007316D01*
X013106Y007423D01*
X012999Y007535D01*
X012898Y007652D01*
X012803Y007774D01*
X012714Y007900D01*
X012631Y008031D01*
X012555Y008165D01*
X012485Y008303D01*
X012423Y008445D01*
X012367Y008589D01*
X012319Y008736D01*
X012277Y008885D01*
X012244Y009035D01*
X012217Y009188D01*
X012198Y009341D01*
X012187Y009495D01*
X012183Y009650D01*
X015833Y005400D02*
X015833Y005150D01*
X016833Y005150D01*
X015833Y005150D02*
X014833Y005150D01*
X015833Y005150D02*
X015833Y004900D01*
X019333Y006400D02*
X019583Y006400D01*
X019583Y007400D01*
X019583Y006400D02*
X019583Y005400D01*
X019583Y006400D02*
X019833Y006400D01*
D15*
X019510Y017445D02*
X019510Y018449D01*
X018172Y018449D02*
X018172Y017445D01*
X016833Y017445D02*
X016833Y018449D01*
X015495Y018449D02*
X015495Y017445D01*
X014156Y017445D02*
X014156Y018449D01*
X012818Y018449D02*
X012818Y017445D01*
X020849Y017445D02*
X020849Y018449D01*
D16*
X013428Y020420D02*
X013121Y020420D01*
X013274Y020420D02*
X013274Y020880D01*
X013121Y020727D01*
X012967Y020804D02*
X012890Y020880D01*
X012737Y020880D01*
X012660Y020804D01*
X012660Y020497D01*
X012737Y020420D01*
X012890Y020420D01*
X012967Y020497D01*
X012507Y020420D02*
X012353Y020420D01*
X012430Y020420D02*
X012430Y020880D01*
X012353Y020880D02*
X012507Y020880D01*
D17*
X020203Y011477D02*
X020178Y011452D01*
X020178Y011402D01*
X020203Y011377D01*
X020203Y011330D02*
X020178Y011305D01*
X020178Y011255D01*
X020203Y011230D01*
X020303Y011230D01*
X020328Y011255D01*
X020328Y011305D01*
X020303Y011330D01*
X020328Y011377D02*
X020228Y011477D01*
X020203Y011477D01*
X020328Y011477D02*
X020328Y011377D01*
X019078Y006352D02*
X019078Y006252D01*
X019078Y006302D02*
X018928Y006302D01*
X018978Y006252D01*
X018953Y006205D02*
X018928Y006180D01*
X018928Y006130D01*
X018953Y006105D01*
X019053Y006105D01*
X019078Y006130D01*
X019078Y006180D01*
X019053Y006205D01*
X015786Y005780D02*
X015786Y005755D01*
X015761Y005730D01*
X015786Y005705D01*
X015786Y005680D01*
X015761Y005655D01*
X015711Y005655D01*
X015686Y005680D01*
X015638Y005680D02*
X015613Y005655D01*
X015563Y005655D01*
X015538Y005680D01*
X015538Y005780D01*
X015563Y005805D01*
X015613Y005805D01*
X015638Y005780D01*
X015686Y005780D02*
X015711Y005805D01*
X015761Y005805D01*
X015786Y005780D01*
X015761Y005730D02*
X015736Y005730D01*
D18*
X015807Y005635D02*
X015759Y005587D01*
X015759Y005393D01*
X015807Y005345D01*
X015904Y005345D01*
X015953Y005393D01*
X016054Y005490D02*
X016247Y005490D01*
X016199Y005345D02*
X016199Y005635D01*
X016054Y005490D01*
X015953Y005587D02*
X015904Y005635D01*
X015807Y005635D01*
D19*
X014208Y003150D02*
X013708Y003150D01*
X013458Y002900D01*
X013458Y002400D01*
X013708Y002150D01*
X014208Y002150D01*
X014458Y002400D01*
X014458Y002900D01*
X014208Y003150D01*
X013458Y002900D02*
X013208Y003150D01*
X012708Y003150D01*
X012458Y002900D01*
X012458Y002400D01*
X012708Y002150D01*
X013208Y002150D01*
X013458Y002400D01*
X018333Y002400D02*
X018583Y002150D01*
X019083Y002150D01*
X019333Y002400D01*
X019583Y002150D01*
X020083Y002150D01*
X020333Y002400D01*
X020583Y002150D01*
X021083Y002150D01*
X021333Y002400D01*
X021333Y002900D01*
X021083Y003150D01*
X020583Y003150D01*
X020333Y002900D01*
X020333Y002400D01*
X020333Y002900D02*
X020083Y003150D01*
X019583Y003150D01*
X019333Y002900D01*
X019333Y002400D01*
X019333Y002900D02*
X019083Y003150D01*
X018583Y003150D01*
X018333Y002900D01*
X018333Y002400D01*
X022833Y010150D02*
X022583Y010400D01*
X022583Y010900D01*
X022833Y011150D01*
X022583Y011400D01*
X022583Y011900D01*
X022833Y012150D01*
X023333Y012150D01*
X023583Y011900D01*
X023583Y011400D01*
X023333Y011150D01*
X023583Y010900D01*
X023583Y010400D01*
X023333Y010150D01*
X022833Y010150D01*
X022833Y011150D02*
X023333Y011150D01*
X010583Y010900D02*
X010583Y010400D01*
X010333Y010150D01*
X009833Y010150D01*
X009583Y010400D01*
X009583Y010900D01*
X009833Y011150D01*
X009583Y011400D01*
X009583Y011900D01*
X009833Y012150D01*
X010333Y012150D01*
X010583Y011900D01*
X010583Y011400D01*
X010333Y011150D01*
X010583Y010900D01*
X010333Y011150D02*
X009833Y011150D01*
M02*
