G75*
%MOIN*%
%OFA0B0*%
%FSLAX25Y25*%
%IPPOS*%
%LPD*%
%AMOC8*
5,1,8,0,0,1.08239X$1,22.5*
%
%ADD10C,0.05937*%
%ADD11C,0.07500*%
%ADD12C,0.06600*%
%ADD13R,0.06500X0.06500*%
%ADD14C,0.06000*%
%ADD15C,0.04000*%
%ADD16C,0.03200*%
%ADD17R,0.07600X0.07600*%
D10*
X0128176Y0163531D02*
X0128176Y0169469D01*
X0141562Y0169469D02*
X0141562Y0163531D01*
X0154948Y0163531D02*
X0154948Y0169469D01*
X0168333Y0169469D02*
X0168333Y0163531D01*
X0181719Y0163531D02*
X0181719Y0169469D01*
X0195105Y0169469D02*
X0195105Y0163531D01*
X0208491Y0163531D02*
X0208491Y0169469D01*
X0201798Y0183531D02*
X0201798Y0189469D01*
X0188412Y0189469D02*
X0188412Y0183531D01*
X0175026Y0183531D02*
X0175026Y0189469D01*
X0161640Y0189469D02*
X0161640Y0183531D01*
X0148255Y0183531D02*
X0148255Y0189469D01*
X0134869Y0189469D02*
X0134869Y0183531D01*
D11*
X0208333Y0133250D03*
X0208333Y0096250D03*
X0195833Y0082000D03*
X0176333Y0051500D03*
X0195833Y0045000D03*
X0139333Y0051500D03*
D12*
X0168333Y0096500D03*
D13*
X0138333Y0096500D03*
D14*
X0129583Y0029500D02*
X0129583Y0023500D01*
X0139583Y0023500D02*
X0139583Y0029500D01*
X0188333Y0029500D02*
X0188333Y0023500D01*
X0198333Y0023500D02*
X0198333Y0029500D01*
X0208333Y0029500D02*
X0208333Y0023500D01*
X0227833Y0106500D02*
X0233833Y0106500D01*
X0233833Y0116500D02*
X0227833Y0116500D01*
X0103833Y0116500D02*
X0097833Y0116500D01*
X0097833Y0106500D02*
X0103833Y0106500D01*
D15*
X0100833Y0106500D02*
X0108333Y0106500D01*
X0113333Y0111500D01*
X0113333Y0201500D01*
X0138333Y0201500D01*
X0148255Y0201421D01*
X0148255Y0186500D01*
X0161640Y0186500D02*
X0161640Y0209807D01*
X0158333Y0211500D01*
X0103333Y0211500D01*
X0103333Y0119000D01*
X0100833Y0116500D01*
X0128333Y0141500D02*
X0128333Y0166343D01*
X0141562Y0166500D02*
X0141562Y0099728D01*
X0138333Y0096500D01*
X0139333Y0095500D01*
X0139333Y0051500D01*
X0139333Y0045500D01*
X0129583Y0039000D01*
X0129583Y0026500D01*
X0139583Y0026500D02*
X0173333Y0026500D01*
X0173333Y0011500D01*
X0198333Y0011500D01*
X0198333Y0026500D01*
X0208333Y0026500D02*
X0208333Y0096250D01*
X0203333Y0106500D02*
X0230833Y0106500D01*
X0230833Y0116500D02*
X0208333Y0116500D01*
X0198333Y0126500D01*
X0198333Y0149886D01*
X0181719Y0166500D01*
X0168333Y0166500D02*
X0188333Y0146500D01*
X0188333Y0121500D01*
X0203333Y0106500D01*
X0195833Y0082000D02*
X0175333Y0108250D01*
X0168333Y0096500D02*
X0154948Y0109886D01*
X0154948Y0166500D01*
X0188412Y0186500D02*
X0188412Y0201579D01*
X0188333Y0206500D01*
X0223333Y0206500D01*
X0223333Y0149000D01*
X0208491Y0145907D02*
X0208333Y0133250D01*
X0208491Y0145907D02*
X0208491Y0166500D01*
X0168333Y0096500D02*
X0176333Y0088500D01*
X0176333Y0051500D01*
X0173333Y0051500D01*
X0173333Y0026500D01*
X0188333Y0026500D02*
X0188333Y0045250D01*
X0195833Y0045000D01*
X0175333Y0108250D02*
X0174886Y0113779D01*
X0174568Y0119318D01*
X0174379Y0124862D01*
X0174318Y0130409D01*
X0174386Y0135956D01*
X0174583Y0141500D01*
D16*
X0154948Y0166500D02*
X0154583Y0166864D01*
X0154583Y0172750D01*
X0153333Y0176500D01*
X0157083Y0176500D01*
X0170833Y0176500D01*
X0175026Y0180693D01*
X0175026Y0186500D01*
X0157083Y0176500D02*
X0154583Y0174000D01*
X0154583Y0172750D01*
X0153333Y0176500D02*
X0138333Y0176500D01*
X0134869Y0179965D01*
X0134869Y0186500D01*
X0128176Y0166500D02*
X0128333Y0166343D01*
D17*
X0142083Y0149000D03*
X0128333Y0141500D03*
X0174583Y0141500D03*
X0223333Y0149000D03*
M02*
