G75*
%MOIN*%
%OFA0B0*%
%FSLAX25Y25*%
%IPPOS*%
%LPD*%
%AMOC8*
5,1,8,0,0,1.08239X$1,22.5*
%
%ADD10C,0.01000*%
%ADD11C,0.00512*%
%ADD12C,0.01100*%
D10*
X0083333Y0001500D02*
X0083333Y0221461D01*
X0247034Y0221461D01*
X0247034Y0001500D01*
X0083333Y0001500D01*
D11*
X0083333Y0221461D02*
X0083333Y0234177D01*
X0083589Y0226500D02*
X0093570Y0225476D01*
X0093570Y0225243D02*
X0083589Y0226500D01*
X0093570Y0227524D01*
X0093570Y0227757D02*
X0093570Y0225243D01*
X0093570Y0225988D02*
X0083589Y0226500D01*
X0093570Y0227012D01*
X0093570Y0227757D02*
X0083589Y0226500D01*
X0246778Y0226500D01*
X0236798Y0225476D01*
X0236798Y0225243D02*
X0246778Y0226500D01*
X0236798Y0227524D01*
X0236798Y0227757D02*
X0236798Y0225243D01*
X0236798Y0225988D02*
X0246778Y0226500D01*
X0236798Y0227012D01*
X0236798Y0227757D02*
X0246778Y0226500D01*
X0247034Y0221461D02*
X0247034Y0234177D01*
D12*
X0179579Y0234233D02*
X0179579Y0233248D01*
X0178595Y0232264D01*
X0176626Y0232264D01*
X0175642Y0233248D01*
X0175642Y0234233D01*
X0176626Y0235217D01*
X0178595Y0235217D01*
X0179579Y0234233D01*
X0178595Y0232264D02*
X0179579Y0231280D01*
X0179579Y0230296D01*
X0178595Y0229312D01*
X0176626Y0229312D01*
X0175642Y0230296D01*
X0175642Y0231280D01*
X0176626Y0232264D01*
X0173133Y0232264D02*
X0173133Y0230296D01*
X0172149Y0229312D01*
X0170181Y0229312D01*
X0169197Y0230296D01*
X0169197Y0232264D02*
X0171165Y0233248D01*
X0172149Y0233248D01*
X0173133Y0232264D01*
X0173133Y0235217D02*
X0169197Y0235217D01*
X0169197Y0232264D01*
X0166958Y0230296D02*
X0165974Y0230296D01*
X0165974Y0229312D01*
X0166958Y0229312D01*
X0166958Y0230296D01*
X0163465Y0229312D02*
X0159529Y0229312D01*
X0161497Y0229312D02*
X0161497Y0235217D01*
X0159529Y0233248D01*
X0157020Y0232264D02*
X0153083Y0232264D01*
X0156036Y0235217D01*
X0156036Y0229312D01*
M02*
