G75*
G70*
%OFA0B0*%
%FSLAX24Y24*%
%IPPOS*%
%LPD*%
%AMOC8*
5,1,8,0,0,1.08239X$1,22.5*
%
%ADD10C,0.0100*%
%ADD11C,0.0051*%
%ADD12C,0.0110*%
D10*
X008333Y000150D02*
X008333Y022146D01*
X024703Y022146D01*
X024703Y000150D01*
X008333Y000150D01*
D11*
X008333Y022146D02*
X008333Y023418D01*
X008333Y022650D02*
X009357Y022548D01*
X009357Y022524D02*
X008333Y022650D01*
X009357Y022752D01*
X009357Y022776D02*
X009357Y022524D01*
X009357Y022599D02*
X008333Y022650D01*
X009357Y022701D01*
X009357Y022776D02*
X008333Y022650D01*
X024703Y022650D01*
X023680Y022548D01*
X023680Y022524D02*
X024703Y022650D01*
X023680Y022752D01*
X023680Y022776D02*
X023680Y022524D01*
X023680Y022599D02*
X024703Y022650D01*
X023680Y022701D01*
X023680Y022776D02*
X024703Y022650D01*
X024703Y022146D02*
X024703Y023418D01*
D12*
X017773Y023423D02*
X017773Y023325D01*
X017674Y023226D01*
X017477Y023226D01*
X017379Y023325D01*
X017379Y023423D01*
X017477Y023522D01*
X017674Y023522D01*
X017773Y023423D01*
X017674Y023226D02*
X017773Y023128D01*
X017773Y023030D01*
X017674Y022931D01*
X017477Y022931D01*
X017379Y023030D01*
X017379Y023128D01*
X017477Y023226D01*
X017128Y023226D02*
X017128Y023030D01*
X017030Y022931D01*
X016833Y022931D01*
X016735Y023030D01*
X016735Y023226D02*
X016931Y023325D01*
X017030Y023325D01*
X017128Y023226D01*
X017128Y023522D02*
X016735Y023522D01*
X016735Y023226D01*
X016511Y023030D02*
X016511Y022931D01*
X016412Y022931D01*
X016412Y023030D01*
X016511Y023030D01*
X016161Y022931D02*
X015768Y022931D01*
X015965Y022931D02*
X015965Y023522D01*
X015768Y023325D01*
X015517Y023226D02*
X015123Y023226D01*
X015418Y023522D01*
X015418Y022931D01*
M02*
