%
M48
M72
T01C0.0160
T02C0.0160
T03C0.0160
%
T01
X13933Y5150
X17633Y5150
X19583Y4500
X19583Y8200
X20833Y9625
X20833Y13325
T02
X20849Y16650
X19510Y16650
X18172Y16650
X16833Y16650
X15495Y16650
X14156Y16650
X12818Y16650
X13487Y18650
X14825Y18650
X16164Y18650
X17503Y18650
X18841Y18650
X20180Y18650
T03
X12958Y2650
X13958Y2650
X18833Y2650
X19833Y2650
X20833Y2650
X16833Y9650
X13833Y9650
X10083Y10650
X10083Y11650
X12833Y14150
X14208Y14900
X17458Y14150
X22333Y14900
X23083Y11650
X23083Y10650
M30
