G75*
G70*
%OFA0B0*%
%FSLAX24Y24*%
%IPPOS*%
%LPD*%
%AMOC8*
5,1,8,0,0,1.08239X$1,22.5*
%
%ADD10C,0.0674*%
%ADD11C,0.0830*%
%ADD12C,0.0740*%
%ADD13R,0.0730X0.0730*%
%ADD14C,0.0680*%
%ADD15R,0.0840X0.0840*%
D10*
X012818Y016353D02*
X012818Y016947D01*
X014156Y016947D02*
X014156Y016353D01*
X015495Y016353D02*
X015495Y016947D01*
X016833Y016947D02*
X016833Y016353D01*
X018172Y016353D02*
X018172Y016947D01*
X019510Y016947D02*
X019510Y016353D01*
X020849Y016353D02*
X020849Y016947D01*
X020180Y018353D02*
X020180Y018947D01*
X018841Y018947D02*
X018841Y018353D01*
X017503Y018353D02*
X017503Y018947D01*
X016164Y018947D02*
X016164Y018353D01*
X014825Y018353D02*
X014825Y018947D01*
X013487Y018947D02*
X013487Y018353D01*
D11*
X020833Y013325D03*
X020833Y009625D03*
X019583Y008200D03*
X017633Y005150D03*
X019583Y004500D03*
X013933Y005150D03*
D12*
X016833Y009650D03*
D13*
X013833Y009650D03*
D14*
X012958Y002950D02*
X012958Y002350D01*
X013958Y002350D02*
X013958Y002950D01*
X018833Y002950D02*
X018833Y002350D01*
X019833Y002350D02*
X019833Y002950D01*
X020833Y002950D02*
X020833Y002350D01*
X022783Y010650D02*
X023383Y010650D01*
X023383Y011650D02*
X022783Y011650D01*
X010383Y011650D02*
X009783Y011650D01*
X009783Y010650D02*
X010383Y010650D01*
D15*
X012833Y014150D03*
X014208Y014900D03*
X017458Y014150D03*
X022333Y014900D03*
M02*
